<svg width="40" height="40" viewBox="0 0 40 40" fill="none" xmlns="http://www.w3.org/2000/svg">
<path d="M27.7932 17.3175L24.1688 16.7869C23.4482 16.6825 22.8219 16.2294 22.4938 15.5763L20.8694 12.2819C20.7032 11.9457 20.3794 11.7444 20.0019 11.7432H19.9994C19.62 11.7432 19.2919 11.9457 19.1225 12.285L17.5007 15.5732C17.1857 16.2244 16.5613 16.68 15.8325 16.7869L12.2 17.3175C11.855 17.3675 11.5813 17.5788 11.4463 17.8969C11.3125 18.2138 11.35 18.5644 11.5463 18.8344C11.585 18.89 11.63 18.9375 11.6725 18.98L14.2944 21.5338C14.815 22.055 15.0494 22.7907 14.9238 23.5038L14.3107 27.11C14.2457 27.4875 14.3894 27.845 14.6963 28.0682C15.0013 28.2913 15.3844 28.3182 15.7163 28.1432L18.9619 26.4369C19.2875 26.2644 19.6432 26.1775 19.9988 26.1775C20.3544 26.1775 20.7132 26.265 21.0369 26.4407L24.2769 28.1438C24.6132 28.3207 24.9988 28.2919 25.3063 28.0669C25.6113 27.8438 25.7557 27.4869 25.69 27.1125L25.0682 23.5019C24.9507 22.7744 25.19 22.04 25.7088 21.5313L25.7638 21.4757L28.3344 18.9738C28.3719 18.9363 28.4157 18.89 28.4488 18.8432C28.4625 18.8082 28.4719 18.7938 28.4919 18.7619C28.675 18.4725 28.6732 18.0882 28.4869 17.7832C28.3338 17.5238 28.0888 17.3619 27.7919 17.3175H27.7932Z" fill="white"/>
<path d="M20 2.5C10.35 2.5 2.5 10.35 2.5 20C2.5 29.65 10.35 37.5 20 37.5C29.65 37.5 37.5 29.65 37.5 20C37.5 10.35 29.65 2.5 20 2.5ZM20 35.925C11.2188 35.925 4.075 28.7812 4.075 20C4.075 11.2188 11.2188 4.075 20 4.075C28.7812 4.075 35.925 11.2188 35.925 20C35.925 28.7812 28.7812 35.925 20 35.925Z" fill="white"/>
<path d="M20.0031 5.32507C11.9094 5.32507 5.32812 11.9063 5.32812 20.0001C5.32812 28.0938 11.9094 34.6751 20.0031 34.6751C28.0969 34.6751 34.6781 28.0938 34.6781 20.0001C34.6781 11.9063 28.0969 5.32507 20.0031 5.32507ZM20.0031 6.82507C20.4344 6.82507 20.8719 6.85007 21.2906 6.88757C21.6344 6.92507 21.8844 7.23132 21.8531 7.57507C21.8219 7.89382 21.5531 8.13757 21.2344 8.13757C21.2094 8.13757 21.1906 8.13757 21.1719 8.13132C20.7906 8.09382 20.3969 8.07507 20.0031 8.07507C19.6594 8.07507 19.3781 7.80007 19.3781 7.45007C19.3781 7.10632 19.6594 6.82507 20.0031 6.82507ZM29.5781 19.3876C29.5406 19.4688 29.4969 19.5313 29.4656 19.5751C29.4031 19.6626 29.3094 19.7688 29.2156 19.8626L26.5969 22.4188C26.3594 22.6501 26.2531 22.9751 26.3031 23.2938L26.9281 26.9001C27.0719 27.7376 26.7344 28.5751 26.0469 29.0751C25.3594 29.5813 24.4594 29.6438 23.7031 29.2501L20.4531 27.5438C20.1719 27.3876 19.8344 27.3938 19.5531 27.5438L16.3031 29.2501C15.9781 29.4188 15.6219 29.5063 15.2719 29.5063C14.8094 29.5063 14.3531 29.3626 13.9656 29.0813C13.2781 28.5751 12.9406 27.7438 13.0844 26.9001L13.6969 23.2938C13.7531 22.9751 13.6469 22.6501 13.4156 22.4188L13.3594 22.3626L10.7969 19.8688C10.6969 19.7688 10.6031 19.6626 10.5344 19.5626C10.0844 18.9438 9.99687 18.1313 10.2969 17.4126C10.6031 16.6876 11.2469 16.1938 12.0219 16.0813L15.6531 15.5501C15.9719 15.5063 16.2469 15.3001 16.3844 15.0251L18.0094 11.7313C18.3906 10.9626 19.1531 10.4938 20.0031 10.4938H20.0094C20.8594 10.4938 21.6219 10.9688 21.9969 11.7313L23.6156 15.0188C23.7594 15.3063 24.0344 15.5063 24.3531 15.5501L27.9781 16.0813C28.6469 16.1813 29.2281 16.5626 29.5656 17.1376C29.9906 17.8376 29.9969 18.7001 29.5781 19.3876ZM32.5531 20.6251C32.2031 20.6251 31.9281 20.3438 31.9281 20.0001C31.9281 15.3376 29.1844 11.0751 24.9344 9.13757C24.6219 9.00007 24.4781 8.62507 24.6219 8.31257C24.7656 8.00007 25.1344 7.85632 25.4531 8.00007C30.1469 10.1376 33.1781 14.8438 33.1781 20.0001C33.1781 20.3438 32.8969 20.6251 32.5531 20.6251Z" fill="white"/>
</svg>
