<svg width="40" height="40" viewBox="0 0 40 40" fill="none" xmlns="http://www.w3.org/2000/svg">
<path fill-rule="evenodd" clip-rule="evenodd" d="M24.6619 1.25C25.7189 1.25044 26.7595 1.51076 27.6922 2.00804C28.6249 2.50532 29.4211 3.22431 30.0105 4.10168C30.5999 4.97906 30.9646 5.9879 31.0724 7.03938C31.1801 8.09085 31.0277 9.1527 30.6285 10.1314C29.5082 10.2018 28.4169 10.5168 27.4313 11.0542C26.4458 11.5917 25.59 12.3385 24.9241 13.2422C24.203 12.4276 23.3171 11.7757 22.3249 11.3295C21.3328 10.8834 20.2572 10.6532 19.1693 10.6544C19.0922 10.6544 19.0154 10.6559 18.9388 10.6581C18.4305 9.6757 18.1835 8.57899 18.2217 7.4735C18.2598 6.36801 18.5819 5.29094 19.1567 4.34591C19.7316 3.40087 20.54 2.61968 21.5041 2.07748C22.4683 1.53528 23.5557 1.25031 24.6619 1.25ZM11.3245 26.4147L7.67009 28.5305L10.707 33.8965L10.942 33.7607C11.0846 33.6786 11.2539 33.6564 11.4128 33.6991L19.664 35.908C20.8617 36.229 21.54 36.0174 22.5976 35.4779L33.9287 28.5006C34.4726 28.1658 34.5381 27.2385 34.216 26.7194C33.4895 25.5492 31.4276 26.5624 30.6003 27.0442L24.3321 30.6953C23.8512 30.979 23.3223 31.1723 22.7718 31.2656C21.2171 31.5267 18.8766 30.7942 17.4845 30.3966C17.0371 30.2689 16.5829 30.1388 16.1394 30.0203C15.9795 29.9776 15.8431 29.8731 15.7602 29.7298C15.6773 29.5865 15.6548 29.4161 15.6975 29.2562C15.7403 29.0962 15.8448 28.9598 15.9881 28.877C16.1314 28.7941 16.3017 28.7716 16.4617 28.8143C17.8142 29.1766 19.1553 29.6125 20.5263 29.8964C21.1896 29.9774 21.7344 29.778 21.9189 29.089C22.0849 28.4696 21.6913 27.8879 21.11 27.6843C19.2235 27.3383 17.3959 26.6776 15.9584 26.1579C13.8959 25.4125 13.3587 25.237 11.3245 26.4146V26.4147ZM5.77853 27.7261L10.7317 36.4777C10.8464 36.6819 10.8757 36.9232 10.8131 37.149C10.7506 37.3747 10.6012 37.5665 10.3977 37.6825L8.71299 38.6356C8.50883 38.7504 8.26754 38.7798 8.04181 38.7173C7.81608 38.6548 7.62425 38.5055 7.50822 38.302L2.55509 29.5504C2.44034 29.3462 2.41106 29.1048 2.47363 28.8791C2.53621 28.6534 2.68556 28.4615 2.88908 28.3455L4.57384 27.3924C4.77805 27.2776 5.01938 27.2483 5.24512 27.3109C5.47086 27.3735 5.66266 27.5229 5.77861 27.7264L5.77853 27.7261ZM4.64283 29.0379C4.52508 29.0551 4.41509 29.1068 4.32676 29.1866C4.23843 29.2663 4.17573 29.3705 4.14659 29.4858C4.11745 29.6012 4.12319 29.7226 4.16307 29.8347C4.20295 29.9469 4.27518 30.0446 4.37064 30.1157C4.46609 30.1867 4.58047 30.2279 4.69931 30.2339C4.81816 30.24 4.93612 30.2106 5.03828 30.1496C5.14045 30.0886 5.22222 29.9986 5.27326 29.8911C5.3243 29.7837 5.34231 29.6634 5.32502 29.5457C5.30184 29.3879 5.21696 29.2458 5.08904 29.1506C4.96112 29.0554 4.80062 29.0148 4.64283 29.0379ZM19.1693 11.9041C17.8948 11.9041 16.6489 12.2821 15.5892 12.9902C14.5295 13.6982 13.7035 14.7047 13.2158 15.8822C12.728 17.0597 12.6004 18.3554 12.8491 19.6054C13.0977 20.8554 13.7115 22.0036 14.6127 22.9048C15.5139 23.8061 16.6621 24.4198 17.9121 24.6684C19.1622 24.9171 20.4579 24.7895 21.6353 24.3017C22.8128 23.814 23.8193 22.9881 24.5274 21.9283C25.2354 20.8686 25.6134 19.6227 25.6134 18.3482C25.6134 16.6391 24.9344 15.0001 23.726 13.7916C22.5175 12.5831 20.8784 11.9041 19.1693 11.9041ZM19.3378 14.5114L20.2028 16.7895C20.2148 16.8226 20.2364 16.8512 20.2648 16.8719C20.2933 16.8926 20.3272 16.9043 20.3624 16.9055L22.7963 17.0242C22.8328 17.026 22.8679 17.0388 22.8969 17.061C22.9259 17.0832 22.9475 17.1137 22.9588 17.1485C22.9701 17.1832 22.9706 17.2206 22.9601 17.2556C22.9497 17.2906 22.9289 17.3216 22.9004 17.3445L21.001 18.8711C20.9734 18.8928 20.9529 18.9222 20.942 18.9556C20.9312 18.989 20.9305 19.0248 20.9401 19.0586L21.5794 21.4102C21.589 21.4454 21.5876 21.4828 21.5754 21.5172C21.5633 21.5517 21.541 21.5817 21.5114 21.6032C21.4818 21.6246 21.4464 21.6366 21.4099 21.6375C21.3734 21.6384 21.3374 21.6282 21.3068 21.6082L19.2678 20.2736C19.2386 20.254 19.2042 20.2435 19.1691 20.2435C19.1339 20.2435 19.0996 20.254 19.0704 20.2736L17.0317 21.6084C17.0011 21.6284 16.9651 21.6386 16.9286 21.6377C16.8921 21.6368 16.8567 21.6248 16.8271 21.6034C16.7976 21.5819 16.7752 21.5519 16.7631 21.5175C16.751 21.483 16.7496 21.4457 16.7592 21.4104L17.3984 19.0588C17.408 19.0251 17.4073 18.9892 17.3965 18.9558C17.3856 18.9224 17.3651 18.893 17.3374 18.8713L15.4379 17.3446C15.4094 17.3217 15.3886 17.2907 15.3782 17.2557C15.3677 17.2206 15.3682 17.1833 15.3795 17.1485C15.3908 17.1138 15.4124 17.0833 15.4414 17.0611C15.4705 17.0389 15.5056 17.0261 15.542 17.0243L17.976 16.9056C18.0111 16.9044 18.0451 16.8926 18.0735 16.872C18.1019 16.8513 18.1236 16.8226 18.1356 16.7896L19.0006 14.5115C19.0137 14.4775 19.0368 14.4482 19.0669 14.4276C19.0969 14.407 19.1325 14.3959 19.169 14.3959C19.2055 14.3959 19.2411 14.407 19.2711 14.4276C19.3012 14.4482 19.3243 14.4775 19.3374 14.5115L19.3378 14.5114ZM31.1157 11.3655C30.0418 11.365 28.9849 11.633 28.041 12.1452C27.0972 12.6575 26.2965 13.3977 25.7118 14.2984C26.4025 15.4152 26.7961 16.69 26.8554 18.0018C26.9146 19.3135 26.6375 20.6187 26.0503 21.7931C26.7254 22.6517 27.6077 23.3245 28.6142 23.7485C29.6208 24.1725 30.7186 24.3337 31.8045 24.2169C32.8905 24.1002 33.9289 23.7093 34.8224 23.0811C35.7158 22.4529 36.4349 21.6079 36.9122 20.6254C37.3894 19.643 37.6091 18.5554 37.5506 17.4648C37.4922 16.3742 37.1575 15.3163 36.578 14.3905C35.9985 13.4647 35.1932 12.7014 34.2377 12.1723C33.2822 11.6431 32.2079 11.3655 31.1157 11.3655ZM31.2842 13.9728L32.1492 16.2509C32.1612 16.2839 32.1829 16.3126 32.2113 16.3333C32.2397 16.3539 32.2736 16.3657 32.3088 16.367L34.7427 16.4855C34.7791 16.4874 34.8142 16.5002 34.8432 16.5224C34.8722 16.5446 34.8938 16.5751 34.9051 16.6098C34.9164 16.6446 34.9168 16.6819 34.9064 16.7169C34.896 16.7519 34.8752 16.7829 34.8468 16.8059L32.9474 18.3324C32.9198 18.3541 32.8993 18.3835 32.8884 18.4169C32.8776 18.4503 32.8769 18.4861 32.8865 18.5199L33.5258 20.8715C33.5354 20.9068 33.534 20.9441 33.5218 20.9786C33.5097 21.013 33.4874 21.043 33.4578 21.0645C33.4282 21.086 33.3928 21.098 33.3563 21.0989C33.3198 21.0998 33.2838 21.0895 33.2532 21.0695L31.2142 19.7348C31.185 19.7152 31.1506 19.7048 31.1155 19.7048C31.0803 19.7048 31.046 19.7152 31.0168 19.7348L28.9778 21.0695C28.9472 21.0896 28.9112 21.0998 28.8747 21.0989C28.8381 21.098 28.8027 21.086 28.7732 21.0645C28.7436 21.043 28.7213 21.0131 28.7091 20.9786C28.697 20.9441 28.6957 20.9068 28.7053 20.8715L29.3445 18.5199C29.3541 18.4861 29.3534 18.4503 29.3425 18.4169C29.3317 18.3835 29.3111 18.3541 29.2835 18.3324L27.3842 16.8059C27.3557 16.7829 27.3349 16.7519 27.3245 16.7169C27.3141 16.6819 27.3146 16.6446 27.3259 16.6098C27.3372 16.5751 27.3588 16.5446 27.3878 16.5224C27.4168 16.5002 27.4518 16.4874 27.4883 16.4855L29.9222 16.367C29.9573 16.3657 29.9913 16.3539 30.0197 16.3333C30.0482 16.3126 30.0698 16.2839 30.0819 16.2509L30.9468 13.9728C30.9599 13.9388 30.9831 13.9096 31.0131 13.8889C31.0432 13.8683 31.0788 13.8573 31.1153 13.8573C31.1517 13.8573 31.1873 13.8683 31.2174 13.8889C31.2474 13.9096 31.2706 13.9388 31.2837 13.9728H31.2842ZM24.8304 3.85727C24.8173 3.82326 24.7941 3.79403 24.7641 3.77341C24.734 3.7528 24.6984 3.74176 24.6619 3.74176C24.6255 3.74176 24.5899 3.7528 24.5598 3.77341C24.5297 3.79403 24.5066 3.82326 24.4935 3.85727L23.6285 6.13539C23.6164 6.1684 23.5948 6.19707 23.5664 6.21773C23.5379 6.23839 23.504 6.25012 23.4688 6.25141L21.0349 6.37C20.9985 6.37182 20.9634 6.38468 20.9344 6.40688C20.9054 6.42907 20.8838 6.45955 20.8725 6.49428C20.8612 6.52901 20.8608 6.56636 20.8712 6.60136C20.8816 6.63637 20.9024 6.66739 20.9308 6.69031L22.8302 8.21688C22.8578 8.23855 22.8783 8.26796 22.8892 8.30134C22.9001 8.33473 22.9008 8.37059 22.8912 8.40437L22.2519 10.7559C22.2423 10.7912 22.2437 10.8286 22.2558 10.863C22.268 10.8975 22.2903 10.9275 22.3199 10.9489C22.3495 10.9704 22.3849 10.9824 22.4214 10.9833C22.4579 10.9842 22.4939 10.974 22.5245 10.954L24.5635 9.6193C24.5927 9.5997 24.6271 9.58923 24.6622 9.58923C24.6973 9.58923 24.7317 9.5997 24.7609 9.6193L26.7999 10.954C26.8305 10.974 26.8665 10.9842 26.903 10.9833C26.9395 10.9824 26.9749 10.9704 27.0045 10.9489C27.0341 10.9275 27.0564 10.8975 27.0686 10.863C27.0807 10.8286 27.0821 10.7912 27.0725 10.7559L26.4332 8.40437C26.4236 8.37059 26.4243 8.33472 26.4352 8.30133C26.446 8.26794 26.4666 8.23854 26.4942 8.21688L28.3935 6.69031C28.422 6.66739 28.4428 6.63637 28.4532 6.60136C28.4636 6.56636 28.4631 6.52901 28.4518 6.49428C28.4405 6.45955 28.4189 6.42907 28.3899 6.40688C28.3609 6.38468 28.3259 6.37182 28.2894 6.37L25.8556 6.25141C25.8204 6.25012 25.7865 6.23839 25.758 6.21773C25.7296 6.19707 25.708 6.1684 25.6959 6.13539L24.8304 3.85727Z" fill="white"/>
</svg>
