<svg width="44" height="44" viewBox="0 0 44 44" fill="none" xmlns="http://www.w3.org/2000/svg">
<path d="M16.0045 14.9671L11.3088 39.999C11.1851 40.6453 11.357 41.3121 11.7763 41.8209C12.2026 42.3296 12.8213 42.6253 13.4813 42.6253C14.547 42.6253 15.4613 41.8621 15.6607 40.8171L16.5407 36.1078H24.3713L23.6426 40.0059C23.5188 40.6521 23.6976 41.319 24.117 41.8278C24.5363 42.3365 25.1551 42.6253 25.8151 42.6253C26.8807 42.6253 27.7951 41.8621 27.9876 40.8171L32.6901 15.7784C32.7176 15.6409 32.7313 15.5034 32.7313 15.3796C32.7313 14.1559 31.7345 13.1659 30.5176 13.1659C29.452 13.1659 28.5376 13.9221 28.3382 14.9671L27.7951 17.889H19.9576L20.3495 15.7784C20.377 15.6409 20.3907 15.4965 20.3907 15.3728C20.3907 14.1559 19.3938 13.1659 18.177 13.1659C17.1113 13.1659 16.197 13.9221 16.0045 14.9671ZM17.3107 32.0171L17.8676 29.0471H25.6982L25.1413 32.0171H17.3107ZM28.5238 21.4296C28.5307 21.4296 28.5307 21.4228 28.5307 21.4228L28.7232 20.3915L29.6926 15.2215C29.7682 14.8228 30.112 14.5409 30.5176 14.5409C30.9782 14.5409 31.3563 14.919 31.3563 15.3796C31.3563 15.4278 31.3495 15.4828 31.3357 15.5309L26.6401 40.5628C26.5645 40.9615 26.2207 41.2503 25.8151 41.2503C25.5676 41.2503 25.3338 41.1403 25.1757 40.9478C25.0107 40.7553 24.9488 40.5009 24.997 40.2534L27.2038 28.4971V28.4834L27.4445 27.1909L28.5238 21.4296ZM27.0251 21.9865L26.4682 24.9565H18.6307L19.1876 21.9865H27.0251ZM19.0157 15.3728C19.0157 15.4278 19.0088 15.4828 19.002 15.5309L15.3513 34.9803L15.2963 35.2896V35.2965L14.3063 40.5628C14.2307 40.9615 13.887 41.2503 13.4813 41.2503C13.2338 41.2503 13.0001 41.1403 12.8351 40.9478C12.677 40.7553 12.6151 40.5009 12.6563 40.2534L17.352 15.2215C17.4276 14.8228 17.7713 14.5409 18.177 14.5409C18.6376 14.5409 19.0157 14.9121 19.0157 15.3728Z" fill="white"/>
<path d="M24.6163 1.375C24.0938 1.375 23.6263 1.66375 23.3994 2.13812L22.3407 4.29L19.955 4.63375C19.4394 4.70937 19.02 5.06687 18.855 5.56188C18.6969 6.05688 18.8275 6.59312 19.1988 6.9575L20.9244 8.62813L20.5119 11C20.4294 11.5156 20.6357 12.0312 21.055 12.3338C21.4813 12.6431 22.0313 12.6844 22.4919 12.4369L24.6163 11.3231L26.7475 12.4369C26.9469 12.5469 27.16 12.595 27.38 12.595C27.6619 12.595 27.9438 12.5125 28.1775 12.3338C28.6038 12.0312 28.81 11.5156 28.7207 11L28.315 8.64187L30.0338 6.9575C30.4119 6.59312 30.5425 6.05688 30.3844 5.56188C30.2194 5.06687 29.8 4.70937 29.2775 4.63375L26.9057 4.29688L25.84 2.13812V2.13125C25.6132 1.66375 25.1388 1.375 24.6163 1.375Z" fill="white"/>
</svg>
