<svg width="48" height="48" viewBox="0 0 48 48" fill="none" xmlns="http://www.w3.org/2000/svg">
<path d="M8.59145 19.373V19.7259H7.88557C7.63853 19.7259 7.40558 19.7683 7.17969 19.8389V19.373C7.17969 18.9777 7.49734 18.6671 7.88557 18.6671C8.28086 18.6671 8.59145 18.9777 8.59145 19.373Z" fill="#010211"/>
<path d="M7.88948 18.5412C7.49931 18.5412 7.18359 18.2254 7.18359 17.8353V16.3001C7.18359 15.91 7.49931 15.5942 7.88948 15.5942C8.27964 15.5942 8.59536 15.91 8.59536 16.3001V17.8353C8.59536 18.2254 8.27964 18.5412 7.88948 18.5412Z" fill="#010211"/>
<path d="M7.88948 15.4702C7.49931 15.4702 7.18359 15.1544 7.18359 14.7643V13.7055C7.18359 13.3153 7.49931 12.9996 7.88948 12.9996C8.27964 12.9996 8.59536 13.3153 8.59536 13.7055V14.7643C8.59536 15.1544 8.27964 15.4702 7.88948 15.4702Z" fill="#010211"/>
<path d="M20.2208 19.9026H12.6498C12.4141 19.9026 12.2148 20.1018 12.2148 20.3376V38.2948H21.312C22.0338 38.2948 22.7204 38.5299 23.2835 38.938L23.3649 21.5287C23.3525 21.5143 23.3408 21.4998 23.3297 21.4839C22.6108 20.4947 21.4478 19.9026 20.2208 19.9026Z" fill="#010211"/>
<path d="M40.063 21.1351H37.2622C37.2235 21.1351 37.1902 21.1191 37.1533 21.1132V38.9125C37.1533 39.3502 36.7969 39.7066 36.3591 39.7066H26.6443C25.5641 39.7066 24.6859 40.5883 24.6859 41.6719C24.6859 42.0621 24.3702 42.3778 23.98 42.3778C23.5898 42.3778 23.2741 42.0621 23.2741 41.6719C23.2741 41.5271 23.2831 41.3844 23.301 41.2445C23.2383 41.1735 23.188 41.0901 23.1535 40.997C22.8695 40.225 22.1305 39.7066 21.315 39.7066H11.6002C11.1625 39.7066 10.8061 39.3502 10.8061 38.9125V21.1132C10.7691 21.1191 10.7358 21.1351 10.6972 21.1351H7.89223C7.43658 21.1351 7.06641 21.5053 7.06641 21.961V41.907C7.06641 42.4109 7.47587 42.8203 7.97978 42.8203H19.5358C20.5416 42.8203 21.4336 43.4235 21.7548 44.3217C22.0878 45.2558 22.9805 45.8824 23.9759 45.8824C24.9747 45.8824 25.8674 45.2558 26.2004 44.3224C26.5209 43.4242 27.4129 42.8203 28.4193 42.8203H39.9747C40.4786 42.8203 40.8881 42.4109 40.8881 41.907V21.961C40.8881 21.5053 40.5179 21.1351 40.063 21.1351Z" fill="#010211"/>
<path d="M24.7773 21.282L24.6953 38.9159C25.2454 38.5251 25.9168 38.2948 26.6413 38.2948H35.7385V20.3376C35.7385 20.1018 35.5393 19.9026 35.3035 19.9026H27.7284C26.5889 19.9026 25.5046 20.4141 24.7773 21.282Z" fill="#010211"/>
<path d="M13.4851 13.7048V11.1636C13.4851 9.92826 12.864 8.83415 11.9181 8.18475C11.0498 9.49062 9.56745 10.3589 7.88745 10.3589C6.20749 10.3589 4.72511 9.49062 3.85689 8.18475C2.91805 8.83415 2.29688 9.92826 2.29688 11.1636V13.7048C2.29688 14.093 2.60746 14.4106 3.00276 14.4106H12.7793C13.1675 14.4106 13.4851 14.093 13.4851 13.7048Z" fill="#010211"/>
<path d="M7.88701 8.94638C9.7727 8.94638 11.3014 7.41772 11.3014 5.53203C11.3014 3.64633 9.7727 2.11768 7.88701 2.11768C6.00131 2.11768 4.47266 3.64633 4.47266 5.53203C4.47266 7.41772 6.00131 8.94638 7.88701 8.94638Z" fill="#010211"/>
<path d="M19.0887 14.4106H23.2711V14.7643C23.2711 15.1544 23.5868 15.4701 23.977 15.4701C24.3671 15.4701 24.6828 15.1544 24.6828 14.7643V14.4106H28.8651C29.2604 14.4106 29.571 14.093 29.571 13.7047V11.1635C29.571 9.92825 28.9499 8.83414 28.0039 8.18474C27.1357 9.4906 25.6534 10.3589 23.9734 10.3589C22.2863 10.3589 20.804 9.4906 19.9499 8.17767C19.0039 8.83414 18.3828 9.92825 18.3828 11.1635V13.7047C18.3828 14.093 18.6934 14.4106 19.0887 14.4106Z" fill="#010211"/>
<path d="M23.9768 8.94626C25.8601 8.94626 27.3918 7.41455 27.3918 5.53197C27.3918 3.64939 25.8601 2.11768 23.9768 2.11768C22.0942 2.11768 20.5625 3.64939 20.5625 5.53197C20.5625 7.41455 22.0942 8.94626 23.9768 8.94626Z" fill="#010211"/>
<path d="M44.129 8.17767C43.2678 9.4906 41.7855 10.3589 40.0984 10.3589C38.4184 10.3589 36.936 9.4906 36.0749 8.17767C35.129 8.83414 34.5078 9.92825 34.5078 11.1635V13.7047C34.5078 14.093 34.8255 14.4106 35.2137 14.4106H39.3981V14.7643C39.3981 15.1544 39.7138 15.4701 40.1039 15.4701C40.4941 15.4701 40.8098 15.1544 40.8098 14.7643V14.4106H44.9972C45.3855 14.4106 45.7031 14.093 45.7031 13.7047V11.1635C45.7031 9.92825 45.0819 8.83414 44.129 8.17767Z" fill="#010211"/>
<path d="M40.1019 8.94638C41.9875 8.94638 43.5162 7.41772 43.5162 5.53203C43.5162 3.64633 41.9875 2.11768 40.1019 2.11768C38.2162 2.11768 36.6875 3.64633 36.6875 5.53203C36.6875 7.41772 38.2162 8.94638 40.1019 8.94638Z" fill="#010211"/>
<path d="M40.1043 18.6671C39.7161 18.6671 39.3984 18.9777 39.3984 19.373V19.7259H40.062C40.3231 19.7259 40.5772 19.7683 40.8102 19.8601V19.373C40.8102 18.9777 40.4925 18.6671 40.1043 18.6671Z" fill="#010211"/>
<path d="M40.1043 15.5942C39.7142 15.5942 39.3984 15.91 39.3984 16.3001V17.8353C39.3984 18.2254 39.7142 18.5412 40.1043 18.5412C40.4945 18.5412 40.8102 18.2254 40.8102 17.8353V16.3001C40.8102 15.91 40.4945 15.5942 40.1043 15.5942Z" fill="#010211"/>
<path d="M24.6891 19.4648V19.373C24.6891 18.9777 24.3715 18.6671 23.9832 18.6671C23.5879 18.6671 23.2773 18.9777 23.2773 19.373V19.4789C23.5244 19.6483 23.7573 19.846 23.9762 20.0648C24.195 19.8389 24.435 19.6412 24.6891 19.4648Z" fill="#010211"/>
<path d="M23.9793 18.5412C24.3695 18.5412 24.6852 18.2254 24.6852 17.8353V16.3001C24.6852 15.91 24.3695 15.5942 23.9793 15.5942C23.5892 15.5942 23.2734 15.91 23.2734 16.3001V17.8353C23.2734 18.2254 23.5892 18.5412 23.9793 18.5412Z" fill="#010211"/>
</svg>
