<svg width="48" height="48" viewBox="0 0 48 48" fill="none" xmlns="http://www.w3.org/2000/svg">
<path d="M9.50096 30.947L9.52484 30.1711C9.53899 29.7563 9.7601 29.3831 10.1174 29.1726C10.4747 28.963 10.9081 28.9524 11.2769 29.1408L14.77 30.9486H15.9087V17.3185H9.5328C5.77749 17.3185 2.72266 20.3743 2.72266 24.1296C2.72266 27.8785 5.76047 30.9294 9.50096 30.947ZM6.6522 21.4701C7.80373 20.3177 9.80786 20.3168 10.9612 21.4701C11.5378 22.0467 11.8553 22.8118 11.8553 23.6246C11.8553 24.2063 11.6868 24.76 11.3835 25.2406L12.6681 26.5246C12.9334 26.7899 12.9334 27.2198 12.6681 27.4851C12.5355 27.6178 12.3621 27.6841 12.1879 27.6841C12.0136 27.6841 11.8403 27.6178 11.7076 27.4851L10.4228 26.2009C9.92991 26.5099 9.3694 26.6699 8.80668 26.6705C8.02661 26.6705 7.24654 26.3734 6.6522 25.779C6.07555 25.2033 5.75803 24.4382 5.75803 23.6246C5.75803 22.8109 6.07555 22.0458 6.6522 21.4701Z" fill="#010211"/>
<path d="M10.0013 24.8186C10.3215 24.4984 10.4975 24.0748 10.4975 23.6246C10.4975 23.1744 10.3215 22.7508 10.0013 22.4306C9.68116 22.1105 9.25752 21.9344 8.80734 21.9344C8.35716 21.9344 7.93352 22.1105 7.61335 22.4306C7.29319 22.7508 7.11719 23.1744 7.11719 23.6246C7.11719 24.0748 7.29319 24.4984 7.61335 24.8186C8.27137 25.4766 9.34331 25.4766 10.0013 24.8186Z" fill="#010211"/>
<path d="M14.2891 38.7819L16.4968 37.4833L19.2633 42.1869L17.0556 43.4855L14.2891 38.7819Z" fill="#010211"/>
<path d="M33.5756 4.50665C28.5582 4.50665 24.4766 8.58832 24.4766 13.6057C24.4766 18.6178 28.5582 22.695 33.5756 22.695C38.5877 22.695 42.6658 18.6178 42.6658 13.6057C42.6658 8.58832 38.5877 4.50665 33.5756 4.50665ZM34.2504 17.8439C34.2504 18.2189 33.9462 18.5232 33.5712 18.5232C33.1962 18.5232 32.892 18.2189 32.892 17.8439V17.6759C32.892 17.3009 33.1962 16.9966 33.5712 16.9966C33.9462 16.9966 34.2504 17.3009 34.2504 17.6759V17.8439ZM34.3955 14.9483C34.3168 14.9695 34.2531 15.0756 34.2531 15.1853V15.9132C34.2531 16.2882 33.9488 16.5924 33.5738 16.5924C33.1988 16.5924 32.8946 16.2882 32.8946 15.9132V15.1853C32.8946 14.453 33.3678 13.8153 34.0461 13.6358C34.981 13.3864 35.5488 12.4719 35.3657 11.5078C35.2277 10.7773 34.6219 10.1838 33.8931 10.0644C33.3377 9.97422 32.8044 10.1184 32.3878 10.4722C31.9766 10.8206 31.7413 11.3301 31.7413 11.8696C31.7413 12.2446 31.4371 12.5488 31.0621 12.5488C30.6871 12.5488 30.3828 12.2446 30.3828 11.8696C30.3828 10.9303 30.7932 10.0432 31.5087 9.43649C32.2242 8.828 33.175 8.57151 34.1134 8.72363C35.394 8.93413 36.4589 9.97511 36.7012 11.2549C37.0178 12.9256 36.0264 14.514 34.3955 14.9483Z" fill="#010211"/>
<path d="M45.2774 24.1296C45.2774 22.0099 44.3034 20.0559 42.6498 18.7637C40.8493 21.9182 37.4595 24.0535 33.5746 24.0535C29.1184 24.0535 25.3146 21.2494 23.8118 17.3185H17.2656V30.9486H38.4584C42.2182 30.9486 45.2774 27.8893 45.2774 24.1296ZM22.9198 27.9618C23.2948 27.9618 23.5991 28.2661 23.5991 28.6411C23.5991 29.0161 23.2948 29.3203 22.9198 29.3203H20.1073C19.7323 29.3203 19.4281 29.0161 19.4281 28.6411C19.4281 28.2661 19.7323 27.9618 20.1073 27.9618H20.8343V20.3124H20.1073C19.7323 20.3124 19.4281 20.0081 19.4281 19.6331C19.4281 19.2581 19.7323 18.9539 20.1073 18.9539H22.9198C23.2948 18.9539 23.5991 19.2581 23.5991 19.6331C23.5991 20.0081 23.2948 20.3124 22.9198 20.3124H22.1928V27.9618H22.9198Z" fill="#010211"/>
<path d="M10.6016 39.3772L12.9993 37.9677L13.0072 37.9604L16.3858 35.9739L16.3966 35.9702L18.7941 34.5606L10.8766 30.463L10.6016 39.3772Z" fill="#010211"/>
</svg>
