<svg width="48" height="48" viewBox="0 0 48 48" fill="none" xmlns="http://www.w3.org/2000/svg">
<path d="M11.9975 44.5711C17.1582 44.5711 21.0497 43.1312 21.0497 41.2217C21.0497 37.9853 19.339 35.0647 16.5716 33.4445C15.357 34.9064 13.7588 35.9151 11.9966 35.9151C10.2348 35.9151 8.63687 34.9068 7.42232 33.4451C4.65559 35.0649 2.94531 37.9858 2.94531 41.2217C2.94531 43.1312 6.83682 44.5711 11.9975 44.5711Z" fill="#010211"/>
<path d="M11.9972 34.5566C14.9185 34.5566 17.5178 30.5227 17.5178 27.3423C17.5178 24.2981 15.0414 21.8217 11.9972 21.8217C8.95298 21.8217 6.47656 24.2981 6.47656 27.3423C6.47656 30.5227 9.07591 34.5566 11.9972 34.5566Z" fill="#010211"/>
<path d="M36.0126 44.571C41.1706 44.571 45.0604 43.1312 45.0604 41.2217C45.0604 37.983 43.3532 35.0619 40.5913 33.4409C39.3763 34.9048 37.777 35.9151 36.0135 35.9151C34.2499 35.9151 32.6504 34.9047 31.4354 33.4406C28.6722 35.0622 26.9648 37.9835 26.9648 41.2217C26.9648 43.1312 30.8546 44.571 36.0126 44.571Z" fill="#010211"/>
<path d="M36.0128 34.5566C38.9341 34.5566 41.5335 30.5227 41.5335 27.3423C41.5335 24.2981 39.057 21.8217 36.0128 21.8217C32.9686 21.8217 30.4922 24.2981 30.4922 27.3423C30.4922 30.5227 33.0915 34.5566 36.0128 34.5566Z" fill="#010211"/>
<path d="M12.2522 13.6698H21.3274L21.384 3.48556C21.384 3.45372 21.3592 3.42896 21.3274 3.42896H7.92379L7.86719 15.8632L8.28906 16.5018L7.95209 15.9119L11.55 13.8564C11.764 13.7344 12.0063 13.6698 12.2522 13.6698ZM12.3044 7.43102C12.3044 6.05838 13.4214 4.94134 14.7941 4.94134C16.1667 4.94134 17.2838 6.05838 17.2838 7.43102V11.4861C17.2838 11.8611 16.9795 12.1654 16.6045 12.1654C16.2295 12.1654 15.9253 11.8611 15.9253 11.4861V9.56427H13.6629V11.4861C13.6629 11.8611 13.3586 12.1654 12.9836 12.1654C12.6086 12.1654 12.3044 11.8611 12.3044 11.4861V7.43102Z" fill="#010211"/>
<path d="M34.5118 18.9419L34.5914 18.8889V6.51741L22.7444 6.45715V13.6132C22.7444 14.3933 22.1094 15.0283 21.3293 15.0283H21.0781V16.6424L30.2073 16.6972C30.4434 16.6972 30.6831 16.76 30.9024 16.8785L34.5118 18.9419ZM30.0666 14.725L29.5979 14.2518C29.0838 14.5665 28.4861 14.7577 27.8405 14.7577C25.9673 14.7577 24.4434 13.2373 24.4434 11.3694C24.4434 9.49618 25.9673 7.9723 27.8405 7.9723C29.7084 7.9723 31.2288 9.49618 31.2288 11.3694C31.2288 12.1001 30.9909 12.7731 30.5957 13.3272L31.0324 13.768C31.296 14.0351 31.2942 14.4649 31.028 14.7294C30.8953 14.8603 30.722 14.9257 30.5495 14.9257C30.3744 14.9257 30.2002 14.8585 30.0666 14.725Z" fill="#010211"/>
<path d="M28.133 11.809C28.401 11.5454 28.83 11.5481 29.0944 11.8134L29.6127 12.3364C29.771 12.0475 29.8692 11.7213 29.8692 11.3694C29.8692 10.2453 28.9582 9.33081 27.8394 9.33081C26.7153 9.33081 25.8008 10.2453 25.8008 11.3694C25.8008 12.4882 26.7153 13.3992 27.8394 13.3992C28.1092 13.3992 28.3659 13.3439 28.6018 13.2477L28.1286 12.7704C27.865 12.5033 27.8668 12.0734 28.133 11.809Z" fill="#010211"/>
<path d="M15.9264 8.20576V7.431C15.9264 6.80747 15.4188 6.2998 14.7953 6.2998C14.1717 6.2998 13.6641 6.80747 13.6641 7.431V8.20576H15.9264Z" fill="#010211"/>
</svg>
