<svg width="48" height="48" viewBox="0 0 48 48" fill="none" xmlns="http://www.w3.org/2000/svg">
<path d="M15.851 19.6997C12.1055 19.6997 9.05859 22.7426 9.05859 26.4833C9.05859 30.2289 12.1055 33.2758 15.851 33.2758C19.5913 33.2758 22.6338 30.2289 22.6338 26.4833C22.6338 22.7426 19.5913 19.6997 15.851 19.6997ZM16.5294 30.511C16.5294 30.886 16.2252 31.1903 15.8502 31.1903C15.4752 31.1903 15.1709 30.886 15.1709 30.511V30.3952C15.1709 30.0202 15.4752 29.7159 15.8502 29.7159C16.2252 29.7159 16.5294 30.0202 16.5294 30.3952V30.511ZM16.7647 27.3014C16.6515 27.3461 16.5294 27.4447 16.5294 27.5866V28.1354C16.5294 28.5104 16.2252 28.8147 15.8502 28.8147C15.4752 28.8147 15.1709 28.5104 15.1709 28.1354V27.5866C15.1709 26.9087 15.6008 26.3007 16.2658 26.038C16.7107 25.862 17.0875 25.3539 16.9477 24.7224C16.8602 24.3218 16.5338 23.9901 16.135 23.895C15.7821 23.8123 15.4309 23.884 15.1523 24.1033C14.8791 24.3187 14.7225 24.6415 14.7225 24.9886C14.7225 25.3636 14.4183 25.6679 14.0433 25.6679C13.6683 25.6679 13.364 25.3636 13.364 24.9886C13.364 24.2231 13.7089 23.5121 14.3104 23.0371C14.9127 22.5622 15.6901 22.3933 16.4498 22.5737C17.3581 22.7899 18.0745 23.5187 18.2744 24.4301C18.5424 25.6418 17.9082 26.8499 16.7647 27.3014Z" fill="#010211"/>
<path d="M28.754 31.051C28.754 31.0432 28.7582 31.0368 28.7584 31.0291V16.8899C28.7584 16.1704 28.1729 15.5853 27.4539 15.5853H4.24985C3.53081 15.5853 2.94531 16.1704 2.94531 16.8899V41.8229C2.94531 42.1015 3.09301 42.3434 3.34154 42.4704C3.5883 42.5973 3.87308 42.5752 4.09773 42.412L11.2413 37.2491C11.3572 37.1655 11.496 37.1204 11.6393 37.1204H27.4539C28.1729 37.1204 28.7584 36.5354 28.7584 35.8159V31.0729C28.7582 31.0652 28.754 31.0587 28.754 31.051ZM15.8527 34.6343C11.358 34.6343 7.7018 30.9776 7.7018 26.4833C7.7018 21.9939 11.358 18.3412 15.8527 18.3412C20.3421 18.3412 23.994 21.9939 23.994 26.4833C23.994 30.9776 20.3421 34.6343 15.8527 34.6343Z" fill="#010211"/>
<path d="M44.5452 36.4982C44.8645 36.3355 45.0546 36.0259 45.0546 35.6695V7.05097C45.0546 6.16698 44.34 5.44794 43.4609 5.44794H16.8253C15.9417 5.44794 15.2227 6.16698 15.2227 7.05097V14.2268H27.4526C28.9208 14.2268 30.1156 15.4213 30.1156 16.8899V30.3717H34.9747C35.1171 30.3717 35.2569 30.4168 35.3718 30.5004L43.5776 36.4235C43.8668 36.6326 44.2268 36.6596 44.5452 36.4982ZM40.2787 22.977H34.054C33.679 22.977 33.3748 22.6727 33.3748 22.2977C33.3748 21.9227 33.679 21.6185 34.054 21.6185H40.2787C40.6537 21.6185 40.9579 21.9227 40.9579 22.2977C40.9579 22.6727 40.6537 22.977 40.2787 22.977ZM40.2787 17.011H34.054C33.679 17.011 33.3748 16.7068 33.3748 16.3318C33.3748 15.9568 33.679 15.6525 34.054 15.6525H40.2787C40.6537 15.6525 40.9579 15.9568 40.9579 16.3318C40.9579 16.7068 40.6537 17.011 40.2787 17.011ZM40.2787 11.0455H21.8391C21.4641 11.0455 21.1599 10.7413 21.1599 10.3663C21.1599 9.99127 21.4641 9.68703 21.8391 9.68703H40.2787C40.6537 9.68703 40.9579 9.99127 40.9579 10.3663C40.9579 10.7413 40.6537 11.0455 40.2787 11.0455Z" fill="#010211"/>
</svg>
