<svg width="28" height="28" viewBox="0 0 28 28" fill="none" xmlns="http://www.w3.org/2000/svg">
<path d="M8.79714 2.00293L4.25 7.03005H8.79714V2.00293Z" fill="#010211"/>
<path d="M23.0058 1.32031H9.65156V7.45709C9.65156 7.69305 9.46013 7.88448 9.22417 7.88448H3.71484V25.3966C3.71484 26.1037 4.29026 26.6788 4.99701 26.6788H23.0058C23.7126 26.6788 24.288 26.1037 24.288 25.3966V2.60248C24.288 1.89545 23.7126 1.32031 23.0058 1.32031ZM18.0664 23.7461H7.08722C6.85126 23.7461 6.65983 23.5546 6.65983 23.3187C6.65983 23.0827 6.85126 22.8913 7.08722 22.8913H18.0664C18.3023 22.8913 18.4938 23.0827 18.4938 23.3187C18.4938 23.5546 18.3023 23.7461 18.0664 23.7461ZM18.0664 19.9983H7.08722C6.85126 19.9983 6.65983 19.8069 6.65983 19.5709C6.65983 19.335 6.85126 19.1435 7.08722 19.1435H18.0664C18.3023 19.1435 18.4938 19.335 18.4938 19.5709C18.4938 19.8069 18.3023 19.9983 18.0664 19.9983ZM18.0664 16.2503H7.08722C6.85126 16.2503 6.65983 16.0589 6.65983 15.8229C6.65983 15.587 6.85126 15.3955 7.08722 15.3955H18.0664C18.3023 15.3955 18.4938 15.587 18.4938 15.8229C18.4938 16.0589 18.3023 16.2503 18.0664 16.2503ZM18.0664 12.5023H7.08722C6.85126 12.5023 6.65983 12.3109 6.65983 12.0749C6.65983 11.839 6.85126 11.6475 7.08722 11.6475H18.0664C18.3023 11.6475 18.4938 11.839 18.4938 12.0749C18.4938 12.3109 18.3023 12.5023 18.0664 12.5023ZM18.0669 8.75429H12.1452C11.9093 8.75429 11.7178 8.56285 11.7178 8.3269C11.7178 8.09094 11.9093 7.89951 12.1452 7.89951H18.0669C18.3029 7.89951 18.4943 8.09094 18.4943 8.3269C18.4943 8.56285 18.3029 8.75429 18.0669 8.75429ZM21.8198 22.923C21.2463 22.923 20.7796 22.4563 20.7796 21.8828C20.7796 21.3048 21.2463 20.8344 21.8198 20.8344C22.3983 20.8344 22.8686 21.3048 22.8686 21.8828C22.8686 22.4563 22.3983 22.923 21.8198 22.923ZM21.8197 17.6941C21.2331 17.6941 20.7558 17.2167 20.7558 16.6301C20.7558 16.0389 21.2331 15.5578 21.8197 15.5578C22.4114 15.5578 22.8924 16.0389 22.8924 16.6301C22.8924 17.2167 22.4114 17.6941 21.8197 17.6941ZM21.8195 12.5126C21.1936 12.5126 20.6844 12.0034 20.6844 11.3776C20.6844 10.7469 21.1936 10.2337 21.8195 10.2337C22.4506 10.2337 22.9638 10.7469 22.9638 11.3776C22.9638 12.0034 22.4506 12.5126 21.8195 12.5126ZM21.8195 7.25985C21.1936 7.25985 20.6844 6.75065 20.6844 6.12484C20.6844 5.49412 21.1936 4.98089 21.8195 4.98089C22.4506 4.98089 22.9638 5.49412 22.9638 6.12484C22.9638 6.75065 22.4506 7.25985 21.8195 7.25985Z" fill="#010211"/>
</svg>
