<svg width="28" height="28" viewBox="0 0 28 28" fill="none" xmlns="http://www.w3.org/2000/svg">
<g clip-path="url(#clip0_17155_114245)">
<path d="M18.2324 5.97524L14.6072 6.19458C14.6068 6.19458 14.6059 6.19458 14.6055 6.19458C13.7918 6.19458 13.1519 5.55399 13.1519 4.7667V0.865234H1.16049C0.978202 0.865234 0.824219 1.01922 0.824219 1.20151V23.1288C0.824219 23.3109 0.975199 23.4591 1.16049 23.4591H6.83084V15.2197C6.83084 14.3312 7.56944 13.6085 8.47747 13.6085H9.92411C9.92824 13.6084 9.93164 13.6061 9.9358 13.6061C9.93995 13.6061 9.94336 13.6084 9.94749 13.6085H18.2324V5.97524ZM2.75136 3.14495H9.9358C10.1786 3.14495 10.375 3.34161 10.375 3.58417C10.375 3.82672 10.1786 4.02338 9.9358 4.02338H2.75136C2.50859 4.02338 2.31215 3.82672 2.31215 3.58417C2.31215 3.34161 2.50859 3.14495 2.75136 3.14495ZM2.75136 5.833H9.9358C10.1786 5.833 10.375 6.02966 10.375 6.27222C10.375 6.51477 10.1786 6.71143 9.9358 6.71143H2.75136C2.50859 6.71143 2.31215 6.51477 2.31215 6.27222C2.31215 6.02966 2.50859 5.833 2.75136 5.833ZM14.6861 12.0875H2.75136C2.50859 12.0875 2.31215 11.8909 2.31215 11.6483C2.31215 11.4058 2.50859 11.2091 2.75136 11.2091H14.6861C14.9289 11.2091 15.1253 11.4058 15.1253 11.6483C15.1253 11.8909 14.9289 12.0875 14.6861 12.0875ZM14.6861 9.39949H2.75136C2.50859 9.39949 2.31215 9.20283 2.31215 8.96027C2.31215 8.71772 2.50859 8.52106 2.75136 8.52106H14.6861C14.9289 8.52106 15.1253 8.71772 15.1253 8.96027C15.1253 9.20283 14.9289 9.39949 14.6861 9.39949Z" fill="#010211"/>
<path d="M14.5816 5.31738L17.6719 5.12973L14.0312 1.48926V4.76708C14.0312 5.07054 14.2783 5.31738 14.5816 5.31738Z" fill="#010211"/>
<path d="M7.71094 15.2201V26.4027C7.71094 26.807 8.05536 27.1358 8.47914 27.1358H9.49825V14.4873H8.47914C8.05536 14.4873 7.71094 14.8161 7.71094 15.2201Z" fill="#010211"/>
<path d="M10.375 27.1358H24.5123V14.4873H10.375V27.1358ZM14.6278 17.2399C14.6278 17.0735 14.7217 16.9214 14.8705 16.847C15.0194 16.7726 15.1974 16.7889 15.3308 16.8886L20.0836 20.4573C20.1939 20.5402 20.2591 20.6702 20.2591 20.8083C20.2591 20.9464 20.1943 21.0766 20.0836 21.1596L15.3308 24.7332C15.2536 24.7915 15.1605 24.8213 15.067 24.8213C15.0001 24.8213 14.9327 24.8061 14.871 24.775C14.7217 24.7008 14.6278 24.5485 14.6278 24.3821V17.2399Z" fill="#010211"/>
<path d="M26.4089 14.4873H25.3906V27.1358H26.4089C26.8327 27.1358 27.1771 26.807 27.1771 26.4027V15.2201C27.1771 14.8161 26.8327 14.4873 26.4089 14.4873Z" fill="#010211"/>
</g>
<defs>
<clipPath id="clip0_17155_114245">
<rect width="28" height="28" fill="white"/>
</clipPath>
</defs>
</svg>
