<svg width="28" height="28" viewBox="0 0 28 28" fill="none" xmlns="http://www.w3.org/2000/svg">
<path d="M14.0053 3.44629C8.18029 3.44629 3.44141 8.1804 3.44141 13.9996C3.44141 19.8189 8.18029 24.553 14.0048 24.553H14.0053C19.8241 24.553 24.5587 19.8189 24.5587 13.9996C24.5587 8.1804 19.8246 3.44629 14.0053 3.44629ZM14.0001 13.2109C15.8385 13.2109 17.3336 14.706 17.3336 16.5445C17.3336 18.1082 16.2506 19.4237 14.7925 19.7777V20.9505C14.7925 21.3837 14.4386 21.743 14.0001 21.743C13.5668 21.743 13.2076 21.3837 13.2076 20.9505V19.7777C11.7495 19.4237 10.6665 18.1082 10.6665 16.5445C10.6665 16.106 11.0204 15.752 11.4589 15.752C11.8974 15.752 12.2514 16.106 12.2514 16.5445C12.2514 17.506 13.0333 18.2931 14.0001 18.2931C14.9669 18.2931 15.7487 17.506 15.7487 16.5445C15.7487 15.5777 14.9669 14.7905 14.0001 14.7905C12.1616 14.7905 10.6665 13.2954 10.6665 11.4569C10.6665 9.89316 11.7495 8.57766 13.2076 8.22371V7.05089C13.2076 6.61239 13.5668 6.25844 14.0001 6.25844C14.4386 6.25844 14.7925 6.61239 14.7925 7.05089V8.22371C16.2506 8.57766 17.3336 9.89316 17.3336 11.4569C17.3336 11.8954 16.9797 12.2494 16.5412 12.2494C16.1027 12.2494 15.7487 11.8954 15.7487 11.4569C15.7487 10.4901 14.9669 9.70823 14.0001 9.70823C13.0333 9.70823 12.2514 10.4901 12.2514 11.4569C12.2514 12.4237 13.0333 13.2109 14.0001 13.2109Z" fill="#010211"/>
</svg>
