<svg width="28" height="28" viewBox="0 0 28 28" fill="none" xmlns="http://www.w3.org/2000/svg">
<g clip-path="url(#clip0_17155_114253)">
<path d="M17.2032 17.2036L15.3848 16.8597C15.2901 16.842 15.2119 16.7761 15.1814 16.6872C15.1011 16.4574 15.0072 16.231 14.9018 16.0144C14.8619 15.932 14.8701 15.8324 14.9232 15.7546L15.9683 14.2228C16.1231 13.9955 16.0943 13.6896 15.8999 13.4956L14.5057 12.101C14.3114 11.9066 14.0054 11.8782 13.7781 12.033L12.2464 13.0777C12.1685 13.1308 12.0689 13.139 11.9865 13.0991C11.7683 12.9933 11.5418 12.899 11.3133 12.8199C11.2248 12.789 11.1589 12.7112 11.1408 12.6165L10.7974 10.7977C10.7459 10.528 10.5095 10.332 10.2349 10.332H8.26253C7.98748 10.332 7.75112 10.528 7.70006 10.7977L7.35624 12.6165C7.33854 12.7112 7.27224 12.789 7.18371 12.8199C6.9556 12.899 6.72912 12.9933 6.5113 13.0991C6.42813 13.139 6.32848 13.1304 6.25106 13.0781L4.71931 12.0326C4.49201 11.8778 4.18648 11.9066 3.99171 12.101L2.59748 13.4956C2.40313 13.69 2.3743 13.9959 2.52953 14.2228L3.57419 15.7546C3.6273 15.8324 3.63553 15.932 3.5956 16.0144C3.48977 16.2326 3.39589 16.4587 3.31642 16.6872C3.28553 16.7761 3.20771 16.842 3.11301 16.8597L1.29465 17.2036C1.02412 17.2546 0.828125 17.491 0.828125 17.766V19.7384C0.828125 20.0134 1.02412 20.2502 1.29424 20.3013L3.11301 20.6451C3.20771 20.6628 3.28553 20.7291 3.31642 20.8172C3.39547 21.0457 3.48935 21.2718 3.5956 21.49C3.63553 21.5728 3.6273 21.6724 3.57419 21.7503L2.52953 23.282C2.3743 23.5089 2.40313 23.8149 2.59748 24.0092L3.99171 25.4039C4.18607 25.5978 4.49201 25.6274 4.71931 25.4718L6.25106 24.4272C6.3293 24.3736 6.42853 24.3662 6.5113 24.4057C6.72831 24.5111 6.95477 24.605 7.18371 24.6849C7.27224 24.7158 7.33854 24.7936 7.35624 24.8883L7.70006 26.7067C7.75112 26.9768 7.98748 27.1728 8.26253 27.1728H10.2349C10.5095 27.1728 10.7459 26.9768 10.7974 26.7067L11.1408 24.8883C11.1589 24.7936 11.2248 24.7158 11.3133 24.6849C11.5418 24.6054 11.7683 24.5116 11.9865 24.4057C12.0689 24.3658 12.1685 24.374 12.2464 24.4267L13.7781 25.4718C14.005 25.6266 14.3109 25.5982 14.5057 25.4039L15.8999 24.0092C16.0943 23.8149 16.1231 23.5093 15.9683 23.282L14.9232 21.7503C14.8701 21.6724 14.8619 21.5728 14.9022 21.49C15.0072 21.2734 15.1011 21.047 15.1814 20.8176C15.2119 20.7291 15.2901 20.6628 15.3848 20.6451L17.2032 20.3013C17.4733 20.2502 17.6693 20.0134 17.6693 19.7384V17.766C17.6693 17.491 17.4733 17.2546 17.2032 17.2036ZM9.24872 22.2407C7.32536 22.2407 5.76024 20.676 5.76024 18.7522C5.76024 16.8289 7.32536 15.2641 9.24872 15.2641C11.1721 15.2641 12.7372 16.8289 12.7372 18.7522C12.7372 20.676 11.1721 22.2407 9.24872 22.2407Z" fill="#010211"/>
<path d="M26.7799 6.21689L25.3539 5.94719C25.2913 5.93566 25.2399 5.89201 25.2197 5.83354C25.1563 5.65154 25.0822 5.47283 24.9994 5.30277C24.973 5.24884 24.9788 5.18336 25.0134 5.1323L25.8328 3.93077C25.9633 3.7393 25.939 3.48195 25.7756 3.31848L24.6819 2.22483C24.5181 2.06096 24.2603 2.03707 24.0696 2.1676L22.8685 2.98701C22.8175 3.02159 22.7524 3.02736 22.698 3.00101C22.5259 2.91742 22.3472 2.84331 22.1665 2.7803C22.1084 2.76055 22.0652 2.70908 22.0536 2.64648L21.7839 1.22054C21.7411 0.993243 21.5418 0.828125 21.31 0.828125H19.7642C19.5328 0.828125 19.3335 0.993243 19.2903 1.22054L19.0206 2.64648C19.009 2.70908 18.9658 2.76055 18.9073 2.78071C18.7249 2.84412 18.5466 2.91825 18.3762 3.00101C18.3222 3.02736 18.2572 3.02159 18.2057 2.98701L17.005 2.1676C16.8139 2.03707 16.5562 2.06096 16.3923 2.22483L15.299 3.31848C15.1352 3.48195 15.1113 3.7393 15.2418 3.93119L16.0608 5.1323C16.0958 5.18336 16.1012 5.24884 16.0752 5.30236C15.9916 5.47407 15.9175 5.65278 15.8545 5.83395C15.8343 5.89201 15.7833 5.93566 15.7207 5.94719L14.2948 6.21689C14.0675 6.25972 13.9023 6.45901 13.9023 6.69042V8.23701C13.9023 8.46883 14.0675 8.66813 14.2948 8.71095L15.7207 8.98066C15.7833 8.99218 15.8343 9.03584 15.8545 9.09389C15.9175 9.27465 15.9916 9.45337 16.0752 9.62466C16.1012 9.67902 16.0958 9.74449 16.0608 9.79596L15.2414 10.9967C15.1113 11.1881 15.1352 11.4459 15.299 11.6094L16.3923 12.703C16.5562 12.8669 16.8135 12.8904 17.005 12.7602L18.2057 11.9408C18.2567 11.9063 18.3226 11.9005 18.3762 11.9268C18.5479 12.01 18.7266 12.0845 18.9073 12.1471C18.9658 12.1673 19.009 12.2188 19.0206 12.2814L19.2903 13.7073C19.3335 13.935 19.5328 14.1001 19.7642 14.1001H21.31C21.5418 14.1001 21.7411 13.9346 21.7839 13.7073L22.0536 12.2814C22.0652 12.2188 22.1084 12.1673 22.1669 12.1471C22.3472 12.0845 22.5259 12.0104 22.698 11.9268C22.7524 11.9005 22.8175 11.9063 22.8685 11.9408L24.0696 12.7602C24.2607 12.8908 24.5185 12.8669 24.6819 12.703L25.7756 11.6094C25.939 11.4459 25.9633 11.1881 25.8328 10.9967L25.0134 9.79596C24.9788 9.74449 24.973 9.67902 24.9994 9.62507C25.0822 9.45501 25.1563 9.2763 25.2197 9.09431C25.2197 9.09389 25.2197 9.09389 25.2201 9.09389C25.2399 9.03584 25.2913 8.99218 25.3539 8.98066L26.7795 8.71095C27.0072 8.66813 27.1723 8.46883 27.1723 8.23701V6.69042C27.1723 6.45901 27.0072 6.25972 26.7799 6.21689ZM20.5371 10.1991C19.0292 10.1991 17.8022 8.97201 17.8022 7.46372C17.8022 5.95583 19.0292 4.72878 20.5371 4.72878C22.045 4.72878 23.2721 5.95583 23.2721 7.46372C23.2721 8.97201 22.045 10.1991 20.5371 10.1991Z" fill="#010211"/>
<path d="M26.8639 21.6361L25.8851 21.4512C25.8592 21.4463 25.8378 21.4285 25.8295 21.4047C25.7855 21.2782 25.734 21.1543 25.676 21.0349C25.6657 21.0135 25.6681 20.9871 25.6821 20.9665L26.245 20.1414C26.3475 19.9911 26.3282 19.7881 26.1993 19.6596L25.4491 18.909C25.3198 18.7797 25.1172 18.7607 24.9669 18.8637L24.1421 19.4261C24.1215 19.4405 24.0952 19.443 24.0738 19.4323C23.954 19.3742 23.8304 19.3228 23.7036 19.2791C23.6801 19.2709 23.6624 19.2495 23.6575 19.2235L23.4722 18.2444C23.4384 18.0653 23.2815 17.9355 23.0995 17.9355H22.038C21.856 17.9355 21.6991 18.0653 21.665 18.2444L21.4801 19.2235C21.4751 19.2495 21.4574 19.2709 21.434 19.2787C21.3071 19.3228 21.1836 19.3742 21.0642 19.4323C21.0428 19.4426 21.016 19.4405 20.9954 19.4261L20.1711 18.8637C20.0204 18.7607 19.8174 18.7797 19.6889 18.909L18.9382 19.6596C18.8094 19.7881 18.7904 19.9911 18.893 20.1418L19.4554 20.9665C19.4698 20.9871 19.4719 21.0135 19.4616 21.0349C19.4035 21.1543 19.3521 21.2782 19.3084 21.4051C19.3002 21.4285 19.2788 21.4463 19.2528 21.4512L18.2737 21.6361C18.095 21.6703 17.9648 21.8271 17.9648 22.0091V23.0711C17.9648 23.2531 18.095 23.41 18.2737 23.4437L19.2533 23.629C19.2788 23.634 19.3002 23.6517 19.308 23.6751C19.3521 23.802 19.4035 23.9255 19.4616 24.0449C19.4719 24.0663 19.4698 24.0931 19.4554 24.1137L18.893 24.9384C18.7904 25.0887 18.8094 25.2917 18.9382 25.4206L19.6885 26.1708C19.8174 26.3001 20.0204 26.3191 20.1711 26.2165L20.9954 25.6537C21.0164 25.6397 21.0428 25.6372 21.0642 25.6479C21.1836 25.7055 21.3071 25.757 21.4335 25.8011C21.4574 25.8093 21.4751 25.8307 21.4801 25.8567L21.665 26.8358C21.6991 27.0146 21.856 27.1447 22.038 27.1447H23.0995C23.2815 27.1447 23.4384 27.0146 23.4722 26.8358L23.6575 25.8562C23.6624 25.8307 23.6801 25.8093 23.7036 25.8011C23.8304 25.757 23.954 25.7055 24.0734 25.6479C24.0952 25.6368 24.1215 25.6392 24.1421 25.6537L24.9669 26.2165C25.1172 26.3195 25.3202 26.2997 25.4491 26.1713L26.1993 25.4206C26.3282 25.2917 26.3475 25.0891 26.2446 24.9384L25.6825 24.1141C25.6681 24.0927 25.6657 24.0667 25.676 24.0453C25.734 23.9255 25.7855 23.802 25.8295 23.6751C25.8378 23.6517 25.8588 23.634 25.8851 23.629L26.8639 23.4437C27.0426 23.41 27.1727 23.2531 27.1727 23.0711V22.0091C27.1727 21.8271 27.0426 21.6703 26.8639 21.6361ZM22.5688 24.418C21.5336 24.418 20.6911 23.5755 20.6911 22.5399C20.6911 21.5043 21.5336 20.6618 22.5688 20.6618C23.6044 20.6618 24.4464 21.5043 24.4464 22.5399C24.4464 23.5755 23.6044 24.418 22.5688 24.418Z" fill="#010211"/>
</g>
<defs>
<clipPath id="clip0_17155_114253">
<rect width="28" height="28" fill="white"/>
</clipPath>
</defs>
</svg>
