<svg width="32" height="32" viewBox="0 0 32 32" fill="none" xmlns="http://www.w3.org/2000/svg">
<path d="M11.9464 16.2463C12.2225 16.2463 12.4464 16.4702 12.4464 16.7463V18.7081C12.4464 18.9842 12.2225 19.2081 11.9464 19.2081C11.6702 19.2081 11.4464 18.9842 11.4464 18.7081V16.7463C11.4464 16.4702 11.6702 16.2463 11.9464 16.2463ZM6.6035 16.3789C6.46062 16.2964 6.28306 16.3989 6.28306 16.5639V18.8905C6.28306 19.0555 6.46062 19.158 6.6035 19.0755L8.61838 17.9122C8.76038 17.8302 8.76038 17.6243 8.61838 17.5422L6.6035 16.3789ZM28.6937 4.02681H19.5124C19.3579 4.78237 18.9674 5.45194 18.4214 5.95538H28.7515C28.9274 5.95538 29.0713 6.09931 29.0713 6.27519V20.6206H2.9285V6.27519C2.9285 6.09931 3.07244 5.95538 3.24837 5.95538H13.5257C12.9797 5.45194 12.5892 4.78237 12.4347 4.02681H3.30625C2.03781 4.02681 1 5.06469 1 6.33306V22.1992C1 23.4676 2.03781 24.5055 3.30625 24.5055H11.2857V28.1696H7.77519C6.69344 28.1696 5.80844 28.8767 5.80844 29.7411V31.3125H26.1915V29.7411C26.1915 28.8767 25.3065 28.1696 24.2247 28.1696H20.7142V24.5055H28.6937C29.9621 24.5055 30.9999 23.4677 30.9999 22.1992V6.33306C30.9999 5.06463 29.9621 4.02681 28.6937 4.02681ZM12.9701 7.49913C14.0702 7.86981 15.1396 8.482 15.9819 9.28375C16.7992 8.46456 17.8558 7.86925 18.9774 7.49944C17.1929 6.22175 14.7547 6.22162 12.9701 7.49913ZM15.4999 10.2183C14.5623 9.21994 12.7921 8.14606 10.5144 8.05144C10.4261 8.04775 10.3488 8.077 10.2851 8.13819C10.2213 8.19937 10.1889 8.27537 10.1889 8.36369V14.3765C10.1889 14.5471 10.3265 14.6866 10.4971 14.6889C12.3119 14.7134 14.1254 14.9621 15.4999 15.7093V10.2183H15.4999ZM10.0713 16.2463C9.79519 16.2463 9.57131 16.4702 9.57131 16.7463V18.7081C9.57131 18.9842 9.79519 19.2081 10.0713 19.2081C10.3474 19.2081 10.5713 18.9842 10.5713 18.7081V16.7463C10.5713 16.4702 10.3474 16.2463 10.0713 16.2463ZM21.4866 8.05075C19.1871 8.1375 17.4602 9.13813 16.4999 10.1987V15.7093C17.8744 14.9621 19.6879 14.7134 21.5027 14.6889C21.6733 14.6866 21.8109 14.5471 21.8109 14.3765V8.36306C21.8109 8.27494 21.7787 8.19906 21.7152 8.13794C21.6517 8.07681 21.5747 8.04737 21.4866 8.05075ZM13.4132 18.2272H25.5676C25.8437 18.2272 26.0676 18.0033 26.0676 17.7272C26.0676 17.4511 25.8437 17.2272 25.5676 17.2272H13.4132C13.1371 17.2272 12.9132 17.4511 12.9132 17.7272C12.9132 18.0033 13.1371 18.2272 13.4132 18.2272ZM15.9736 5.91162C17.4162 5.91162 18.5856 4.74219 18.5856 3.29956C18.5856 1.85694 17.4162 0.6875 15.9736 0.6875C14.531 0.6875 13.3615 1.857 13.3615 3.29956C13.3615 4.74219 14.531 5.91162 15.9736 5.91162Z" fill="#83B807"/>
</svg>
