<svg width="32" height="32" viewBox="0 0 32 32" fill="none" xmlns="http://www.w3.org/2000/svg">
<g clip-path="url(#clip0_17155_122357)">
<path fill-rule="evenodd" clip-rule="evenodd" d="M12.99 28.078H1.25513C1.08189 28.078 0.941406 27.9376 0.941406 27.7643V0.989507C0.941406 0.816268 1.08189 0.675781 1.25513 0.675781H18.1576V4.10072C18.1576 4.37793 18.3823 4.60268 18.6596 4.60268H22.0845V16.8007H18.195C18.2451 16.7227 18.2741 16.6299 18.2741 16.5303C18.2741 16.2533 18.0492 16.0284 17.7721 16.0284H5.25658C4.97949 16.0284 4.75461 16.2533 4.75461 16.5303C4.75461 16.8074 4.97949 17.0323 5.25658 17.0323H13.6932C13.2706 17.299 12.99 17.77 12.99 18.3066V19.7167H5.25658C4.97949 19.7167 4.75461 19.9417 4.75461 20.2187C4.75461 20.4958 4.97949 20.7206 5.25658 20.7206H12.99V23.4051H5.25658C4.97949 23.4051 4.75461 23.6301 4.75461 23.9071C4.75461 24.1842 4.97949 24.4091 5.25658 24.4091H12.99V28.078ZM5.25658 9.65825H17.7721C18.0492 9.65825 18.2741 9.43337 18.2741 9.15628C18.2741 8.87926 18.0492 8.65432 17.7721 8.65432H5.25658C4.97949 8.65432 4.75461 8.87926 4.75461 9.15628C4.75461 9.43337 4.97949 9.65825 5.25658 9.65825ZM5.25658 5.9699H14.239C14.5161 5.9699 14.741 5.74496 14.741 5.46794C14.741 5.19086 14.5161 4.96598 14.239 4.96598H5.25658C4.97949 4.96598 4.75461 5.19086 4.75461 5.46794C4.75461 5.74496 4.97949 5.9699 5.25658 5.9699ZM5.25658 13.3439H17.7721C18.0492 13.3439 18.2741 13.119 18.2741 12.8419C18.2741 12.5649 18.0492 12.34 17.7721 12.34H5.25658C4.97949 12.34 4.75461 12.5649 4.75461 12.8419C4.75461 13.119 4.97949 13.3439 5.25658 13.3439ZM19.1615 1.17774L21.5825 3.59876H19.1615V1.17774ZM27.5134 20.8853V30.8222C27.5134 31.0994 27.2887 31.3241 27.0114 31.3241H14.4959C14.2186 31.3241 13.9939 31.0994 13.9939 30.8222V18.3066C13.9939 18.0294 14.2186 17.8046 14.4959 17.8046H23.1509L18.6157 22.3398C18.4863 22.4692 17.7389 23.1533 17.646 23.4996L16.8869 26.3299C16.7766 26.7414 16.8942 27.1804 17.1955 27.4817C17.4967 27.7829 17.9358 27.9005 18.3472 27.7901L21.1776 27.0311C21.5238 26.9382 22.2079 26.1908 22.3372 26.0614L27.5134 20.8853ZM27.241 15.1343L28.3625 14.0129C28.8888 13.4832 29.752 13.4832 30.2784 14.0129L30.6643 14.3954C31.1906 14.9251 31.1906 15.7883 30.6643 16.3147L29.5428 17.4361L27.241 15.1343ZM19.3255 23.0497L26.52 15.8553L28.8218 18.1571L21.6274 25.3515L19.3255 23.0497ZM18.0872 26.8205C18.0222 26.8379 17.9529 26.8193 17.9053 26.7718C17.8577 26.7242 17.8392 26.6549 17.8566 26.5899L18.6157 23.7596L20.9175 26.0614L18.0872 26.8205Z" fill="#6F42C1"/>
</g>
<defs>
<clipPath id="clip0_17155_122357">
<rect width="32" height="32" fill="white"/>
</clipPath>
</defs>
</svg>
