<svg width="32" height="32" viewBox="0 0 32 32" fill="none" xmlns="http://www.w3.org/2000/svg">
<g clip-path="url(#clip0_17155_122341)">
<path fill-rule="evenodd" clip-rule="evenodd" d="M19.9674 27.194H8.7169C8.42401 27.194 8.18614 26.9562 8.18614 26.6652V25.4652C12.6413 25.4121 16.2364 21.784 16.2364 17.3163C16.2364 15.7627 15.8015 14.3106 15.047 13.075L15.0512 13.0708C15.5747 12.5473 15.5747 11.6934 15.0512 11.1698L14.2335 10.3521C13.71 9.82857 12.856 9.82857 12.3325 10.352L12.3283 10.3563C11.615 9.92074 10.8297 9.5917 9.99433 9.39136C9.99741 9.37398 9.99998 9.35647 10.0021 9.3389C10.4256 9.11252 10.7345 8.65793 10.7345 8.10119V7.49727C10.7345 6.69439 10.0921 6.10402 9.39035 6.10402H8.18614V1.47186C8.18614 1.17903 8.42401 0.941162 8.7169 0.941162H24.1565C24.1558 0.956848 24.1554 0.972535 24.1554 0.988346V3.95839C24.1554 4.65417 24.7289 5.22766 25.4247 5.22766H28.3947C28.4105 5.22766 28.4262 5.22728 28.4419 5.22659V20.3717C27.6809 20.0301 26.8381 19.8399 25.9524 19.8399C22.5863 19.8399 19.8402 22.586 19.8402 25.9521C19.8402 26.3774 19.884 26.7928 19.9674 27.194ZM26.4396 6.67462H12.8933C12.6163 6.67462 12.3913 6.89956 12.3913 7.17658C12.3913 7.4536 12.6163 7.67854 12.8933 7.67854H26.4396C26.7166 7.67854 26.9415 7.4536 26.9415 7.17658C26.9415 6.89956 26.7166 6.67462 26.4396 6.67462ZM26.4396 14.8781H18.3202C18.0431 14.8781 17.8183 15.103 17.8183 15.3801C17.8183 15.6571 18.0431 15.882 18.3202 15.882H26.4396C26.7166 15.882 26.9415 15.6571 26.9415 15.3801C26.9415 15.103 26.7166 14.8781 26.4396 14.8781ZM26.4396 9.40911H16.4271C16.1501 9.40911 15.9251 9.63399 15.9251 9.91108C15.9251 10.1881 16.1501 10.413 16.4271 10.413H26.4396C26.7166 10.413 26.9415 10.1881 26.9415 9.91108C26.9415 9.63399 26.7166 9.40911 26.4396 9.40911ZM26.4396 17.6126H18.3202C18.0431 17.6126 17.8183 17.8375 17.8183 18.1146C17.8183 18.3916 18.0431 18.6165 18.3202 18.6165H26.4396C26.7166 18.6165 26.9415 18.3916 26.9415 18.1146C26.9415 17.8375 26.7166 17.6126 26.4396 17.6126ZM26.4396 12.1436H18.3202C18.0431 12.1436 17.8183 12.3685 17.8183 12.6456C17.8183 12.9226 18.0431 13.1475 18.3202 13.1475H26.4396C26.7166 13.1475 26.9415 12.9226 26.9415 12.6456C26.9415 12.3685 26.7166 12.1436 26.4396 12.1436ZM25.1593 0.988346C25.2163 1.01388 25.2674 1.04927 25.3146 1.09646L28.2866 4.06844C28.3338 4.11563 28.3692 4.16676 28.3947 4.22373H25.4247C25.2792 4.22373 25.1593 4.10383 25.1593 3.95839V0.988346ZM25.9524 31.0588C23.1392 31.0588 20.8441 28.7653 20.8441 25.9521C20.8441 23.1389 23.1392 20.8438 25.9524 20.8438C28.7655 20.8438 31.0591 23.1389 31.0591 25.9521C31.0591 28.7653 28.7655 31.0588 25.9524 31.0588ZM25.2818 26.4017L24.1404 25.2602C23.8447 24.9646 23.3647 24.9646 23.069 25.2602C22.7734 25.5574 22.7734 26.0359 23.069 26.3315L24.7469 28.011C25.0426 28.3066 25.5226 28.3066 25.8182 28.011C26.8302 26.999 27.8298 25.9765 28.8371 24.96C29.1313 24.6628 29.1298 24.1843 28.8341 23.8902C28.5385 23.5961 28.0584 23.5976 27.7643 23.8933L25.2818 26.4017ZM7.16842 9.21806V8.49053H6.7836C6.59618 8.49053 6.44327 8.31559 6.44327 8.10119V7.49727C6.44327 7.28281 6.59618 7.10794 6.7836 7.10794H9.39035C9.57777 7.10794 9.73061 7.28281 9.73061 7.49727V8.10119C9.73061 8.31559 9.57777 8.49053 9.39035 8.49053H9.00547V9.21806C8.70398 9.18424 8.39753 9.16686 8.08694 9.16686C7.77642 9.16686 7.46997 9.18424 7.16842 9.21806ZM13.7474 12.9548C14.6786 14.1616 15.2325 15.6743 15.2325 17.3163C15.2325 21.2627 12.0334 24.4619 8.08694 24.4619C4.14059 24.4619 0.941406 21.2627 0.941406 17.3163C0.941406 15.6743 1.49532 14.1616 2.42646 12.9548L1.83257 12.361C1.70006 12.2284 1.70006 12.0122 1.83257 11.8797L2.65033 11.0619C2.78285 10.9294 2.99907 10.9294 3.13159 11.0619L3.72547 11.6558C4.93218 10.7247 6.4449 10.1708 8.08694 10.1708C9.72905 10.1708 11.2418 10.7247 12.4485 11.6558L13.0423 11.0619C13.1749 10.9294 13.391 10.9294 13.5236 11.0619L14.3413 11.8797C14.4738 12.0122 14.4738 12.2284 14.3413 12.361L13.7474 12.9548ZM8.08694 11.7298C5.0017 11.7298 2.50043 14.2311 2.50043 17.3163C2.50043 20.4016 5.0017 22.9028 8.08694 22.9028C11.1722 22.9028 13.6735 20.4016 13.6735 17.3163C13.6735 14.2311 11.1722 11.7298 8.08694 11.7298ZM8.5889 21.7642C8.5889 22.0413 8.36403 22.2662 8.08694 22.2662C7.80992 22.2662 7.58505 22.0413 7.58505 21.7642V21.2821C7.58505 21.005 7.80992 20.7802 8.08694 20.7802C8.36403 20.7802 8.5889 21.005 8.5889 21.2821V21.7642ZM11.5871 20.1065C11.7829 20.3024 11.7829 20.6205 11.5871 20.8164C11.3912 21.0123 11.073 21.0123 10.8772 20.8164L10.5363 20.4755C10.3403 20.2796 10.3403 19.9615 10.5363 19.7656C10.7322 19.5697 11.0502 19.5697 11.2461 19.7656L11.5871 20.1065ZM12.5349 16.8144C12.8119 16.8144 13.0368 17.0393 13.0368 17.3163C13.0368 17.5933 12.8119 17.8183 12.5349 17.8183H12.0527C11.7757 17.8183 11.5508 17.5933 11.5508 17.3163C11.5508 17.0393 11.7757 16.8144 12.0527 16.8144H12.5349ZM5.29673 20.8164C5.10084 21.0123 4.78279 21.0123 4.5869 20.8164C4.39094 20.6205 4.39094 20.3025 4.58683 20.1065L4.92779 19.7656C5.12368 19.5697 5.4418 19.5697 5.63769 19.7656C5.83358 19.9615 5.83358 20.2796 5.63769 20.4755L5.29673 20.8164ZM4.58683 14.5261C4.39094 14.3302 4.39094 14.0121 4.5869 13.8162C4.78279 13.6203 5.10084 13.6203 5.29673 13.8162L5.63769 14.1572C5.83358 14.3531 5.83358 14.6712 5.63769 14.8671C5.4418 15.063 5.12368 15.063 4.92779 14.8671L4.58683 14.5261ZM3.63907 17.8183C3.36205 17.8183 3.13711 17.5933 3.13711 17.3163C3.13711 17.0393 3.36205 16.8144 3.63907 16.8144H4.1212C4.39822 16.8144 4.62316 17.0393 4.62316 17.3163C4.62316 17.5933 4.39822 17.8183 4.1212 17.8183H3.63907ZM9.25137 17.8183C9.05692 18.2687 8.6088 18.584 8.08694 18.584C7.38683 18.584 6.81924 18.0164 6.81924 17.3163C6.81924 16.7945 7.13454 16.3463 7.58505 16.1519V14.6988C7.58505 14.4218 7.80992 14.1968 8.08694 14.1968C8.36403 14.1968 8.5889 14.4218 8.5889 14.6988V16.1519C8.88544 16.2799 9.12337 16.5178 9.25137 16.8144H10.7045C10.9815 16.8144 11.2064 17.0393 11.2064 17.3163C11.2064 17.5934 10.9815 17.8183 10.7045 17.8183H9.25137ZM8.08694 17.0525C7.94125 17.0525 7.82316 17.1706 7.82316 17.3163C7.82316 17.462 7.94131 17.5801 8.08694 17.5801C8.23264 17.5801 8.35072 17.462 8.35072 17.3163C8.35072 17.1707 8.23264 17.0525 8.08694 17.0525ZM7.58505 12.8684C7.58505 12.5914 7.80992 12.3664 8.08694 12.3664C8.36403 12.3664 8.5889 12.5914 8.5889 12.8684V13.3506C8.5889 13.6276 8.36403 13.8525 8.08694 13.8525C7.80992 13.8525 7.58505 13.6276 7.58505 13.3506V12.8684ZM10.8772 13.8162C11.073 13.6203 11.3912 13.6203 11.5871 13.8162C11.7829 14.0121 11.7829 14.3302 11.5871 14.5261L11.2461 14.8671C11.0502 15.063 10.7322 15.063 10.5363 14.8671C10.3403 14.6712 10.3403 14.3531 10.5363 14.1572L10.8772 13.8162Z" fill="#0186D8"/>
</g>
<defs>
<clipPath id="clip0_17155_122341">
<rect width="32" height="32" fill="white"/>
</clipPath>
</defs>
</svg>
