<svg width="32" height="32" viewBox="0 0 32 32" fill="none" xmlns="http://www.w3.org/2000/svg">
<path fill-rule="evenodd" clip-rule="evenodd" d="M19.8723 0.98797C19.9296 1.01413 19.9823 1.05122 20.0303 1.09915L23.0589 4.12767C23.1069 4.17567 23.1439 4.22838 23.17 4.28573H20.142C19.9935 4.28573 19.8723 4.1645 19.8723 4.01599V0.98797ZM17.6426 27.6959H3.11358C2.81648 27.6959 2.57422 27.4536 2.57422 27.1565V1.48052C2.57422 1.18342 2.81648 0.941162 3.11358 0.941162H18.8694C18.8687 0.956723 18.8684 0.972284 18.8684 0.98797V4.01599C18.8684 4.71735 19.4404 5.28965 20.142 5.28965H23.17C23.1857 5.28965 23.2012 5.28927 23.2168 5.28852V18.9171C19.8811 19.2353 17.2566 22.0593 17.2566 25.4759C17.2566 26.2542 17.3928 27.0018 17.6426 27.6959ZM11.035 20.9093H18.5607C18.8377 20.9093 19.0626 20.6843 19.0626 20.4073C19.0626 20.1303 18.8377 19.9054 18.5607 19.9054H11.035C10.7579 19.9054 10.533 20.1303 10.533 20.4073C10.533 20.6843 10.7579 20.9093 11.035 20.9093ZM11.035 16.4499H19.8156C20.0926 16.4499 20.3175 16.2251 20.3175 15.948C20.3175 15.671 20.0926 15.446 19.8156 15.446H11.035C10.7579 15.446 10.533 15.671 10.533 15.948C10.533 16.2251 10.7579 16.4499 11.035 16.4499ZM4.73566 13.0946V16.5718C4.73566 16.7451 4.87609 16.8856 5.04939 16.8856H8.52653C8.69983 16.8856 8.84026 16.7451 8.84026 16.5718V13.0946C8.84026 12.9213 8.69983 12.7808 8.52653 12.7808H5.04939C4.87609 12.7808 4.73566 12.9213 4.73566 13.0946ZM5.70915 15.1815C5.51326 14.9856 5.51326 14.6676 5.70915 14.4717C5.90504 14.2758 6.22316 14.2758 6.41905 14.4717L6.50319 14.5558L7.17456 13.9468C7.37974 13.7606 7.69748 13.7761 7.88358 13.9813C8.06975 14.1865 8.05425 14.5041 7.84907 14.6903L6.82357 15.6206C6.62529 15.8005 6.32067 15.7931 6.13136 15.6038L5.70915 15.1815ZM11.035 9.76105H19.8156C20.0926 9.76105 20.3175 9.53611 20.3175 9.25909C20.3175 8.98207 20.0926 8.75713 19.8156 8.75713H11.035C10.7579 8.75713 10.533 8.98207 10.533 9.25909C10.533 9.53611 10.7579 9.76105 11.035 9.76105ZM4.73566 19.7835V23.2607C4.73566 23.3439 4.76873 23.4237 4.82752 23.4825C4.88638 23.5414 4.96619 23.5744 5.04939 23.5744H8.52653C8.60973 23.5744 8.68954 23.5414 8.7484 23.4825C8.80719 23.4237 8.84026 23.3439 8.84026 23.2607V19.7835C8.84026 19.7003 8.80719 19.6205 8.7484 19.5616C8.68954 19.5029 8.60973 19.4698 8.52653 19.4698H5.04939C4.96619 19.4698 4.88638 19.5029 4.82752 19.5616C4.76873 19.6205 4.73566 19.7003 4.73566 19.7835ZM5.70915 21.7604C5.51326 21.5645 5.51326 21.2464 5.70915 21.0505C5.90504 20.8546 6.22316 20.8546 6.41905 21.0505L6.50319 21.1347L7.17456 20.5256C7.37974 20.3395 7.69748 20.3549 7.88358 20.5601C8.06975 20.7653 8.05425 21.083 7.84907 21.2692L6.82357 22.1995C6.62529 22.3793 6.32067 22.3719 6.13136 22.1826L5.70915 21.7604ZM4.73566 6.4057V9.8829C4.73566 10.0562 4.87609 10.1966 5.04939 10.1966H8.52653C8.69983 10.1966 8.84026 10.0562 8.84026 9.8829V6.4057C8.84026 6.23246 8.69983 6.09197 8.52653 6.09197H5.04939C4.87609 6.09197 4.73566 6.23246 4.73566 6.4057ZM5.70915 8.60272C5.51326 8.40683 5.51326 8.08871 5.70915 7.89282C5.90504 7.69693 6.22316 7.69693 6.41905 7.89282L6.50319 7.97696L7.17456 7.36789C7.37974 7.18179 7.69748 7.19723 7.88358 7.4024C8.06975 7.60764 8.05425 7.92532 7.84907 8.11148L6.82357 9.04174C6.62529 9.22163 6.32067 9.21423 6.13136 9.02493L5.70915 8.60272ZM11.035 14.2203H19.8156C20.0926 14.2203 20.3175 13.9954 20.3175 13.7183C20.3175 13.4413 20.0926 13.2164 19.8156 13.2164H11.035C10.7579 13.2164 10.533 13.4413 10.533 13.7183C10.533 13.9954 10.7579 14.2203 11.035 14.2203ZM11.035 7.53141H19.8156C20.0926 7.53141 20.3175 7.30646 20.3175 7.02944C20.3175 6.75243 20.0926 6.52748 19.8156 6.52748H11.035C10.7579 6.52748 10.533 6.75243 10.533 7.02944C10.533 7.30646 10.7579 7.53141 11.035 7.53141ZM11.035 23.1389H16.6783C16.9553 23.1389 17.1803 22.914 17.1803 22.637C17.1803 22.36 16.9553 22.135 16.6783 22.135H11.035C10.7579 22.135 10.533 22.36 10.533 22.637C10.533 22.914 10.7579 23.1389 11.035 23.1389ZM23.8451 31.0588C20.7695 31.0588 18.2605 28.5514 18.2605 25.4759C18.2605 22.4004 20.7695 19.8912 23.8451 19.8912C26.9206 19.8912 29.428 22.4004 29.428 25.4759C29.428 28.5514 26.9206 31.0588 23.8451 31.0588ZM22.6555 25.4759L21.1544 26.977C20.8262 27.3052 20.8262 27.84 21.1544 28.1666C21.4809 28.4931 22.0157 28.4931 22.3423 28.1666L23.8451 26.6638L25.3462 28.1666C25.6744 28.4931 26.2092 28.4931 26.5358 28.1666C26.8623 27.84 26.8623 27.3052 26.5358 26.977L25.0329 25.4759L26.5358 23.9731C26.8623 23.6465 26.8623 23.1118 26.5358 22.7852C26.2092 22.457 25.6744 22.457 25.3462 22.7852L23.8451 24.2863L22.3423 22.7852C22.0157 22.457 21.4809 22.457 21.1544 22.7852C20.8262 23.1118 20.8262 23.6465 21.1544 23.9731L22.6555 25.4759Z" fill="#DB3D26"/>
</svg>
