<svg width="32" height="32" viewBox="0 0 32 32" fill="none" xmlns="http://www.w3.org/2000/svg">
<path d="M3.34923 28.935H28.6492C28.7818 28.935 28.909 28.8823 29.0028 28.7886C29.0965 28.6948 29.1492 28.5676 29.1492 28.435V19.08L30.6492 18.54C30.7733 18.4938 30.874 18.4003 30.9292 18.28C30.9792 18.1583 30.9792 18.0217 30.9292 17.9L25.7992 3.40001C25.7553 3.27497 25.6636 3.17246 25.5442 3.11501C25.4225 3.065 25.286 3.065 25.1642 3.11501L1.32923 11.615C1.20607 11.66 1.10551 11.7516 1.04923 11.87C0.999216 11.9917 0.999216 12.1283 1.04923 12.25L2.84923 17.335V28.435C2.84923 28.5676 2.9019 28.6948 2.99567 28.7886C3.08944 28.8823 3.21662 28.935 3.34923 28.935ZM28.1492 27.935H3.84923V13.54H28.1492V27.935ZM7.68923 12.54L22.3592 7.30501C22.5944 7.68499 22.934 7.9893 23.3374 8.18168C23.7407 8.37405 24.1909 8.44637 24.6342 8.39001L26.1342 12.54H7.68923ZM29.1492 18V15.77L29.8592 17.77L29.1492 18ZM2.14923 12.35L25.0292 4.20501L27.9992 12.54H27.1742L25.4242 7.63501C25.3803 7.50997 25.2886 7.40746 25.1692 7.35001C25.1082 7.32456 25.0428 7.31146 24.9767 7.31146C24.9106 7.31146 24.8452 7.32456 24.7842 7.35001C24.4574 7.46641 24.0978 7.44843 23.7842 7.30001C23.6191 7.22146 23.4719 7.10997 23.3515 6.97239C23.2311 6.83481 23.1402 6.67405 23.0842 6.50001C23.0619 6.43765 23.0275 6.38035 22.9828 6.33142C22.9382 6.2825 22.8843 6.24293 22.8242 6.21501C22.7025 6.165 22.566 6.165 22.4442 6.21501L5.40923 12.29C5.28884 12.3349 5.19037 12.4244 5.13423 12.54H3.34923C3.21662 12.54 3.08944 12.5927 2.99567 12.6865C2.9019 12.7802 2.84923 12.9074 2.84923 13.04V14.36L2.14923 12.35Z" fill="#010211"/>
<path d="M5.125 25.07C5.47866 25.0713 5.81746 25.2124 6.06753 25.4625C6.31761 25.7125 6.45868 26.0513 6.46 26.405C6.46 26.5376 6.51268 26.6648 6.60645 26.7586C6.70021 26.8523 6.82739 26.905 6.96 26.905H25.04C25.1726 26.905 25.2998 26.8523 25.3936 26.7586C25.4873 26.6648 25.54 26.5376 25.54 26.405C25.5413 26.0513 25.6824 25.7125 25.9325 25.4625C26.1825 25.2124 26.5213 25.0713 26.875 25.07C27.0076 25.07 27.1348 25.0173 27.2286 24.9236C27.3223 24.8298 27.375 24.7026 27.375 24.57V16.9C27.375 16.7674 27.3223 16.6402 27.2286 16.5464C27.1348 16.4527 27.0076 16.4 26.875 16.4C26.5213 16.3987 26.1825 16.2576 25.9325 16.0075C25.6824 15.7575 25.5413 15.4187 25.54 15.065C25.54 14.9324 25.4873 14.8052 25.3936 14.7114C25.2998 14.6177 25.1726 14.565 25.04 14.565H6.96C6.82739 14.565 6.70021 14.6177 6.60645 14.7114C6.51268 14.8052 6.46 14.9324 6.46 15.065C6.45868 15.4187 6.31761 15.7575 6.06753 16.0075C5.81746 16.2576 5.47866 16.3987 5.125 16.4C4.99239 16.4 4.86521 16.4527 4.77145 16.5464C4.67768 16.6402 4.625 16.7674 4.625 16.9V24.57C4.625 24.7026 4.67768 24.8298 4.77145 24.9236C4.86521 25.0173 4.99239 25.07 5.125 25.07ZM5.625 17.35C6.06087 17.2528 6.45992 17.0332 6.77525 16.717C7.09058 16.4008 7.30906 16.0011 7.405 15.565H24.595C24.6909 16.0011 24.9094 16.4008 25.2247 16.717C25.5401 17.0332 25.9391 17.2528 26.375 17.35V24.125C25.94 24.2224 25.5417 24.4414 25.2266 24.7566C24.9114 25.0717 24.6923 25.47 24.595 25.905H7.405C7.30765 25.47 7.08861 25.0717 6.77344 24.7566C6.45826 24.4414 6.05996 24.2224 5.625 24.125V17.35Z" fill="#010211"/>
<path d="M14.2383 22.675C14.1057 22.675 13.9785 22.7277 13.8847 22.8214C13.791 22.9152 13.7383 23.0424 13.7383 23.175C13.7396 23.591 13.9054 23.9896 14.1996 24.2837C14.4937 24.5778 14.8923 24.7437 15.3083 24.745H15.4983V25.245C15.4983 25.3776 15.551 25.5048 15.6447 25.5986C15.7385 25.6923 15.8657 25.745 15.9983 25.745C16.1309 25.745 16.2581 25.6923 16.3518 25.5986C16.4456 25.5048 16.4983 25.3776 16.4983 25.245V24.745H16.6883C17.1043 24.7437 17.5028 24.5778 17.797 24.2837C18.0911 23.9896 18.257 23.591 18.2583 23.175V21.8C18.257 21.3845 18.091 20.9864 17.7967 20.6931C17.5024 20.3997 17.1038 20.235 16.6883 20.235H16.4983V17.735H16.6883C16.7629 17.7343 16.8369 17.7485 16.906 17.7766C16.9752 17.8047 17.038 17.8462 17.091 17.8987C17.144 17.9512 17.1861 18.0137 17.2148 18.0826C17.2435 18.1515 17.2583 18.2254 17.2583 18.3C17.2583 18.4326 17.311 18.5598 17.4047 18.6536C17.4985 18.7473 17.6257 18.8 17.7583 18.8C17.8909 18.8 18.0181 18.7473 18.1118 18.6536C18.2056 18.5598 18.2583 18.4326 18.2583 18.3C18.257 17.8845 18.091 17.4864 17.7967 17.1931C17.5024 16.8997 17.1038 16.735 16.6883 16.735H16.4983V16.235C16.4983 16.1024 16.4456 15.9752 16.3518 15.8814C16.2581 15.7877 16.1309 15.735 15.9983 15.735C15.8657 15.735 15.7385 15.7877 15.6447 15.8814C15.551 15.9752 15.4983 16.1024 15.4983 16.235V16.735H15.3083C14.8928 16.735 14.4942 16.8997 14.1999 17.1931C13.9056 17.4864 13.7396 17.8845 13.7383 18.3V19.685C13.7396 20.1005 13.9056 20.4986 14.1999 20.7919C14.4942 21.0853 14.8928 21.25 15.3083 21.25H15.4983V23.75H15.3083C15.1571 23.75 15.0121 23.6899 14.9052 23.5831C14.7983 23.4762 14.7383 23.3312 14.7383 23.18C14.7389 23.1139 14.7265 23.0484 14.7017 22.9871C14.6768 22.9259 14.6401 22.8702 14.5936 22.8232C14.5471 22.7763 14.4918 22.739 14.4308 22.7135C14.3698 22.6881 14.3044 22.675 14.2383 22.675ZM14.7383 18.285C14.7383 18.2104 14.7531 18.1365 14.7818 18.0676C14.8105 17.9987 14.8525 17.9362 14.9055 17.8837C14.9585 17.8312 15.0214 17.7897 15.0905 17.7616C15.1597 17.7335 15.2337 17.7193 15.3083 17.72H15.4983V20.22H15.3083C15.158 20.22 15.0137 20.1606 14.907 20.0548C14.8002 19.949 14.7396 19.8053 14.7383 19.655V18.285ZM16.4983 21.235H16.6883C16.8386 21.235 16.9828 21.2944 17.0896 21.4002C17.1963 21.506 17.257 21.6497 17.2583 21.8V23.185C17.2583 23.3362 17.1982 23.4812 17.0913 23.5881C16.9844 23.6949 16.8395 23.755 16.6883 23.755H16.4983V21.235Z" fill="#010211"/>
<path d="M21.4994 22.42H23.5994C23.8281 22.4325 24.0569 22.3982 24.2719 22.3193C24.4868 22.2404 24.6835 22.1185 24.8497 21.961C25.016 21.8035 25.1485 21.6138 25.239 21.4035C25.3295 21.1931 25.3762 20.9665 25.3762 20.7375C25.3762 20.5085 25.3295 20.2819 25.239 20.0715C25.1485 19.8612 25.016 19.6715 24.8497 19.514C24.6835 19.3566 24.4868 19.2346 24.2719 19.1557C24.0569 19.0768 23.8281 19.0425 23.5994 19.055H21.4994C21.2707 19.0425 21.0419 19.0768 20.827 19.1557C20.612 19.2346 20.4154 19.3566 20.2491 19.514C20.0828 19.6715 19.9504 19.8612 19.8598 20.0715C19.7693 20.2819 19.7227 20.5085 19.7227 20.7375C19.7227 20.9665 19.7693 21.1931 19.8598 21.4035C19.9504 21.6138 20.0828 21.8035 20.2491 21.961C20.4154 22.1185 20.612 22.2404 20.827 22.3193C21.0419 22.3982 21.2707 22.4325 21.4994 22.42ZM21.4994 20.055H23.5994C23.6939 20.0469 23.7891 20.0585 23.8789 20.0892C23.9688 20.1198 24.0512 20.1687 24.1211 20.2329C24.191 20.2971 24.2468 20.375 24.285 20.4619C24.3232 20.5488 24.3429 20.6426 24.3429 20.7375C24.3429 20.8324 24.3232 20.9262 24.285 21.0131C24.2468 21.1 24.191 21.178 24.1211 21.2421C24.0512 21.3063 23.9688 21.3552 23.8789 21.3859C23.7891 21.4165 23.6939 21.4281 23.5994 21.42H21.4994C21.4049 21.4281 21.3097 21.4165 21.2199 21.3859C21.1301 21.3552 21.0476 21.3063 20.9777 21.2421C20.9078 21.178 20.852 21.1 20.8138 21.0131C20.7757 20.9262 20.7559 20.8324 20.7559 20.7375C20.7559 20.6426 20.7757 20.5488 20.8138 20.4619C20.852 20.375 20.9078 20.2971 20.9777 20.2329C21.0476 20.1687 21.1301 20.1198 21.2199 20.0892C21.3097 20.0585 21.4049 20.0469 21.4994 20.055Z" fill="#010211"/>
<path d="M8.42519 22.42H10.5252C10.7539 22.4325 10.9827 22.3982 11.1976 22.3193C11.4126 22.2404 11.6092 22.1185 11.7755 21.961C11.9418 21.8035 12.0742 21.6138 12.1648 21.4035C12.2553 21.1931 12.3019 20.9665 12.3019 20.7375C12.3019 20.5085 12.2553 20.2819 12.1648 20.0715C12.0742 19.8612 11.9418 19.6715 11.7755 19.514C11.6092 19.3566 11.4126 19.2346 11.1976 19.1557C10.9827 19.0768 10.7539 19.0425 10.5252 19.055H8.42519C8.19653 19.0425 7.96772 19.0768 7.75274 19.1557C7.53777 19.2346 7.34114 19.3566 7.17486 19.514C7.00858 19.6715 6.87614 19.8612 6.78563 20.0715C6.69512 20.2819 6.64844 20.5085 6.64844 20.7375C6.64844 20.9665 6.69512 21.1931 6.78563 21.4035C6.87614 21.6138 7.00858 21.8035 7.17486 21.961C7.34114 22.1185 7.53777 22.2404 7.75274 22.3193C7.96772 22.3982 8.19653 22.4325 8.42519 22.42ZM8.42519 20.055H10.5252C10.6197 20.0469 10.7149 20.0585 10.8047 20.0892C10.8945 20.1198 10.977 20.1687 11.0469 20.2329C11.1168 20.2971 11.1726 20.375 11.2108 20.4619C11.2489 20.5488 11.2687 20.6426 11.2687 20.7375C11.2687 20.8324 11.2489 20.9262 11.2108 21.0131C11.1726 21.1 11.1168 21.178 11.0469 21.2421C10.977 21.3063 10.8945 21.3552 10.8047 21.3859C10.7149 21.4165 10.6197 21.4281 10.5252 21.42H8.42519C8.33065 21.4281 8.23546 21.4165 8.14566 21.3859C8.05585 21.3552 7.97338 21.3063 7.90349 21.2421C7.83359 21.178 7.77778 21.1 7.73961 21.0131C7.70143 20.9262 7.68172 20.8324 7.68172 20.7375C7.68172 20.6426 7.70143 20.5488 7.73961 20.4619C7.77778 20.375 7.83359 20.2971 7.90349 20.2329C7.97338 20.1687 8.05585 20.1198 8.14566 20.0892C8.23546 20.0585 8.33065 20.0469 8.42519 20.055Z" fill="#010211"/>
</svg>
