<svg width="32" height="32" viewBox="0 0 32 32" fill="none" xmlns="http://www.w3.org/2000/svg">
<path d="M30.5 21.0925H29.129V6.55C29.129 6.41739 29.0763 6.29022 28.9826 6.19645C28.8888 6.10268 28.7616 6.05 28.629 6.05H5.969C5.83639 6.05 5.70921 6.10268 5.61545 6.19645C5.52168 6.29022 5.469 6.41739 5.469 6.55V15.415C4.96434 15.6417 4.52413 15.9906 4.18818 16.4302C3.85224 16.8698 3.63114 17.3861 3.54488 17.9326C3.45862 18.4791 3.50992 19.0385 3.69415 19.5602C3.87837 20.0818 4.1897 20.5494 4.6 20.9205C4.37371 20.9731 4.15174 21.0428 3.936 21.129C3.92374 21.1326 3.91172 21.1369 3.9 21.142C3.04406 21.4918 2.31139 22.0881 1.79504 22.8551C1.27869 23.6221 1.00196 24.5254 1 25.45C1 25.5826 1.05268 25.7098 1.14645 25.8036C1.24021 25.8973 1.36739 25.95 1.5 25.95H12.182C12.3146 25.95 12.4418 25.8973 12.5356 25.8036C12.6293 25.7098 12.682 25.5826 12.682 25.45C12.6818 24.9981 12.6154 24.5487 12.485 24.116H30.5C30.6326 24.116 30.7598 24.0633 30.8536 23.9696C30.9473 23.8758 31 23.7486 31 23.616V21.5925C31 21.4599 30.9473 21.3327 30.8536 21.2389C30.7598 21.1452 30.6326 21.0925 30.5 21.0925ZM6.469 7.05H28.129V21.0925H25.979V19.077C25.979 18.9444 25.9263 18.8172 25.8326 18.7234C25.7388 18.6297 25.6116 18.577 25.479 18.577H20.5C20.3674 18.577 20.2402 18.6297 20.1464 18.7234C20.0527 18.8172 20 18.9444 20 19.077V21.0925H9.65C9.46578 21.0229 9.27721 20.9655 9.0855 20.9205C9.6018 20.4532 9.9582 19.8354 10.1044 19.1545C10.2505 18.4737 10.179 17.7641 9.9 17.126H12.85C12.9826 17.126 13.1098 17.0733 13.2036 16.9796C13.2973 16.8858 13.35 16.7586 13.35 16.626C13.35 16.4934 13.2973 16.3662 13.2036 16.2724C13.1098 16.1787 12.9826 16.126 12.85 16.126H9.228C8.9179 15.8066 8.54686 15.5527 8.13684 15.3793C7.72682 15.2059 7.28618 15.1165 6.841 15.1165C6.71669 15.117 6.5925 15.1243 6.469 15.1385V7.05ZM21 21.0925V19.577H24.978V21.0925H21ZM6.841 16.1165C7.30365 16.1164 7.75594 16.2535 8.14067 16.5105C8.52539 16.7675 8.82526 17.1328 9.00236 17.5602C9.17945 17.9876 9.22582 18.4579 9.13558 18.9117C9.04535 19.3655 8.82257 19.7823 8.49542 20.1094C8.16828 20.4366 7.75146 20.6593 7.29769 20.7496C6.84393 20.8398 6.37359 20.7935 5.94617 20.6164C5.51876 20.4393 5.15346 20.1394 4.89648 19.7547C4.63951 19.3699 4.5024 18.9177 4.5025 18.455C4.50316 17.835 4.74975 17.2406 5.18816 16.8022C5.62657 16.3638 6.22099 16.1172 6.841 16.1165ZM2.034 24.95C2.15588 24.0752 2.58972 23.2738 3.25564 22.6935C3.92156 22.1132 4.77472 21.7931 5.658 21.792H8.024C8.90766 21.7925 9.76135 22.1124 10.4277 22.6928C11.0941 23.2731 11.5282 24.0748 11.65 24.95H2.034ZM30 23.118H12.05C11.83 22.7403 11.5584 22.3951 11.243 22.0925H20.493H20.5025H25.4805H25.49H30V23.118Z" fill="#010211"/>
<path d="M13.9062 9.75349H21.4248C21.5574 9.75349 21.6845 9.70082 21.7783 9.60705C21.8721 9.51328 21.9248 9.3861 21.9248 9.25349C21.9248 9.12089 21.8721 8.99371 21.7783 8.89994C21.6845 8.80617 21.5574 8.75349 21.4248 8.75349H13.9062C13.7736 8.75349 13.6465 8.80617 13.5527 8.89994C13.4589 8.99371 13.4062 9.12089 13.4062 9.25349C13.4062 9.3861 13.4589 9.51328 13.5527 9.60705C13.6465 9.70082 13.7736 9.75349 13.9062 9.75349Z" fill="#010211"/>
<path d="M8.30078 12.9255H15.2008C15.3334 12.9255 15.4606 12.8728 15.5543 12.7791C15.6481 12.6853 15.7008 12.5581 15.7008 12.4255C15.7008 12.2929 15.6481 12.1657 15.5543 12.072C15.4606 11.9782 15.3334 11.9255 15.2008 11.9255H8.30078C8.16817 11.9255 8.041 11.9782 7.94723 12.072C7.85346 12.1657 7.80078 12.2929 7.80078 12.4255C7.80078 12.5581 7.85346 12.6853 7.94723 12.7791C8.041 12.8728 8.16817 12.9255 8.30078 12.9255Z" fill="#010211"/>
<path d="M17.3008 11.9255C17.1682 11.9255 17.041 11.9782 16.9472 12.072C16.8535 12.1657 16.8008 12.2929 16.8008 12.4255C16.8008 12.5581 16.8535 12.6853 16.9472 12.7791C17.041 12.8728 17.1682 12.9255 17.3008 12.9255H18.9008C19.0334 12.9255 19.1606 12.8728 19.2543 12.7791C19.3481 12.6853 19.4008 12.5581 19.4008 12.4255C19.4008 12.2929 19.3481 12.1657 19.2543 12.072C19.1606 11.9782 19.0334 11.9255 18.9008 11.9255H17.3008Z" fill="#010211"/>
<path d="M8.30078 15.0395H22.9903C23.1229 15.0395 23.2501 14.9868 23.3438 14.8931C23.4376 14.7993 23.4903 14.6721 23.4903 14.5395C23.4903 14.4069 23.4376 14.2797 23.3438 14.186C23.2501 14.0922 23.1229 14.0395 22.9903 14.0395H8.30078C8.16817 14.0395 8.041 14.0922 7.94723 14.186C7.85346 14.2797 7.80078 14.4069 7.80078 14.5395C7.80078 14.6721 7.85346 14.7993 7.94723 14.8931C8.041 14.9868 8.16817 15.0395 8.30078 15.0395Z" fill="#010211"/>
<path d="M16.4901 16.125H14.9336C14.801 16.125 14.6738 16.1777 14.58 16.2714C14.4863 16.3652 14.4336 16.4924 14.4336 16.625C14.4336 16.7576 14.4863 16.8848 14.58 16.9786C14.6738 17.0723 14.801 17.125 14.9336 17.125H16.4901C16.6227 17.125 16.7499 17.0723 16.8436 16.9786C16.9374 16.8848 16.9901 16.7576 16.9901 16.625C16.9901 16.4924 16.9374 16.3652 16.8436 16.2714C16.7499 16.1777 16.6227 16.125 16.4901 16.125Z" fill="#010211"/>
</svg>
