<svg width="32" height="32" viewBox="0 0 32 32" fill="none" xmlns="http://www.w3.org/2000/svg">
<path d="M29.0285 8.619H2.9715C2.44874 8.61967 1.94759 8.82766 1.57799 9.19735C1.20839 9.56704 1.00053 10.0682 1 10.591V28.25C1.00066 28.7726 1.2086 29.2737 1.5782 29.6432C1.9478 30.0127 2.44887 30.2205 2.9715 30.221H29.0285C29.5511 30.2205 30.0522 30.0127 30.4218 29.6432C30.7914 29.2737 30.9993 28.7726 31 28.25V10.591C30.9995 10.0682 30.7916 9.56704 30.422 9.19735C30.0524 8.82766 29.5513 8.61967 29.0285 8.619ZM30 28.25C29.9996 28.5075 29.8971 28.7543 29.715 28.9363C29.5329 29.1184 29.286 29.2207 29.0285 29.221H2.9715C2.71401 29.2207 2.46713 29.1184 2.28501 28.9363C2.10289 28.7543 2.0004 28.5075 2 28.25V10.591C2.00026 10.3334 2.10269 10.0864 2.28481 9.90416C2.46693 9.72195 2.71388 9.6194 2.9715 9.619H29.0285C29.2861 9.6194 29.5331 9.72195 29.7152 9.90416C29.8973 10.0864 29.9997 10.3334 30 10.591V28.25Z" fill="#010211"/>
<path d="M28.0962 10.8085H3.90625C3.77364 10.8085 3.64646 10.8612 3.5527 10.9549C3.45893 11.0487 3.40625 11.1759 3.40625 11.3085V25.127C3.40625 25.2596 3.45893 25.3868 3.5527 25.4806C3.64646 25.5743 3.77364 25.627 3.90625 25.627H28.0962C28.2289 25.627 28.356 25.5743 28.4498 25.4806C28.5436 25.3868 28.5962 25.2596 28.5962 25.127V11.3085C28.5962 11.1759 28.5436 11.0487 28.4498 10.9549C28.356 10.8612 28.2289 10.8085 28.0962 10.8085ZM27.5962 24.627H4.40625V11.8085H27.5962V24.627Z" fill="#010211"/>
<path d="M12.8923 22.2915C13.0586 22.3889 13.248 22.4403 13.4408 22.4403C13.6336 22.4403 13.8229 22.3889 13.9893 22.2915L19.3983 19.168C19.5643 19.0711 19.702 18.9324 19.7977 18.7657C19.8934 18.5991 19.9437 18.4102 19.9437 18.218C19.9437 18.0258 19.8934 17.837 19.7977 17.6703C19.702 17.5036 19.5643 17.3649 19.3983 17.268L13.9893 14.1435C13.8225 14.0474 13.6333 13.9968 13.4408 13.9969C13.2483 13.997 13.0592 14.0477 12.8925 14.1439C12.7258 14.2402 12.5873 14.3786 12.491 14.5453C12.3947 14.7119 12.3439 14.901 12.3438 15.0935V21.3435C12.3429 21.536 12.3933 21.7252 12.4897 21.8918C12.5861 22.0583 12.725 22.1963 12.8923 22.2915ZM13.3423 15.094C13.3418 15.0767 13.3463 15.0596 13.3551 15.0448C13.364 15.0299 13.3768 15.0178 13.3923 15.01C13.4073 15.0009 13.4246 14.996 13.4423 14.996C13.4599 14.9958 13.4773 15.0007 13.4923 15.01L18.8983 18.134C18.9137 18.1418 18.9266 18.1538 18.9355 18.1687C18.9444 18.1836 18.9488 18.2007 18.9483 18.218C18.9487 18.2353 18.9442 18.2523 18.9353 18.2672C18.9265 18.2821 18.9136 18.2941 18.8983 18.302L13.4893 21.426C13.4745 21.4345 13.4578 21.439 13.4408 21.439C13.4237 21.439 13.407 21.4345 13.3923 21.426C13.3775 21.4175 13.3653 21.4053 13.3568 21.3905C13.3482 21.3758 13.3438 21.359 13.3438 21.342L13.3423 15.094Z" fill="#010211"/>
<path d="M26.8294 26.9215H24.4794C24.375 26.5912 24.1681 26.3028 23.8887 26.0981C23.6093 25.8934 23.272 25.7831 22.9256 25.7831C22.5793 25.7831 22.2419 25.8934 21.9625 26.0981C21.6831 26.3028 21.4763 26.5912 21.3719 26.9215H5.17188C5.03927 26.9215 4.91209 26.9742 4.81832 27.0679C4.72455 27.1617 4.67188 27.2889 4.67188 27.4215C4.67188 27.5541 4.72455 27.6813 4.81832 27.7751C4.91209 27.8688 5.03927 27.9215 5.17188 27.9215H21.3719C21.4757 28.2525 21.6826 28.5417 21.9622 28.7471C22.2418 28.9524 22.5797 29.0631 22.9266 29.0631C23.2736 29.0631 23.6114 28.9524 23.8911 28.7471C24.1707 28.5417 24.3775 28.2525 24.4814 27.9215H26.8314C26.964 27.9215 27.0912 27.8688 27.1849 27.7751C27.2787 27.6813 27.3314 27.5541 27.3314 27.4215C27.3314 27.2889 27.2787 27.1617 27.1849 27.0679C27.0912 26.9742 26.964 26.9215 26.8314 26.9215H26.8294ZM22.9234 28.0635C22.797 28.0638 22.6734 28.0267 22.5681 27.9569C22.4628 27.8871 22.3805 27.7877 22.3315 27.6713C22.2826 27.5548 22.2691 27.4265 22.2929 27.3024C22.3167 27.1783 22.3766 27.0641 22.4652 26.974C22.5538 26.8839 22.667 26.822 22.7906 26.7961C22.9143 26.7702 23.0428 26.7815 23.1601 26.8284C23.2774 26.8754 23.3782 26.956 23.4497 27.0601C23.5213 27.1642 23.5605 27.2872 23.5624 27.4135V27.419V27.4255C23.5616 27.5946 23.494 27.7566 23.3743 27.8761C23.2546 27.9956 23.0925 28.063 22.9234 28.0635Z" fill="#010211"/>
<path d="M11.8471 4.05C11.8015 3.90643 11.7163 3.77864 11.6013 3.68134C11.4864 3.58404 11.3462 3.52118 11.1971 3.5L9.9866 3.324L9.4456 2.228C9.37918 2.09334 9.2764 1.97996 9.1489 1.90068C9.02139 1.8214 8.87424 1.77939 8.7241 1.77939C8.57395 1.77939 8.42681 1.8214 8.2993 1.90068C8.1718 1.97996 8.06902 2.09334 8.0026 2.228L7.4611 3.3245L6.2511 3.5C6.10258 3.5217 5.96309 3.58449 5.84838 3.68128C5.73366 3.77807 5.64829 3.90501 5.60191 4.04776C5.55552 4.1905 5.54997 4.34337 5.58587 4.48911C5.62178 4.63484 5.69771 4.76764 5.8051 4.8725L6.6811 5.7265L6.4746 6.9315C6.44856 7.07967 6.46462 7.23218 6.52095 7.37168C6.57728 7.51118 6.67162 7.63208 6.79325 7.72062C6.91487 7.80917 7.0589 7.86182 7.20896 7.87258C7.35902 7.88334 7.50908 7.85179 7.6421 7.7815L8.7246 7.212L9.8081 7.7815C9.94112 7.85144 10.0911 7.88273 10.241 7.87181C10.3908 7.86089 10.5347 7.80821 10.6562 7.71972C10.7776 7.63124 10.8719 7.5105 10.9283 7.37119C10.9846 7.23188 11.0009 7.07956 10.9751 6.9315L10.7686 5.7255L11.6436 4.8725C11.7511 4.7682 11.8272 4.63581 11.8632 4.4904C11.8992 4.34499 11.8936 4.1924 11.8471 4.05ZM9.9946 5.084C9.9016 5.17517 9.83209 5.28752 9.79204 5.41144C9.75198 5.53536 9.74256 5.66714 9.7646 5.7955L9.9221 6.7125L9.0971 6.2785C8.98145 6.21771 8.85275 6.18595 8.7221 6.18595C8.59145 6.18595 8.46275 6.21771 8.3471 6.2785L7.5241 6.711L7.6811 5.795C7.70337 5.66629 7.69393 5.53409 7.65359 5.40985C7.61326 5.28561 7.54324 5.17307 7.4496 5.082L6.7836 4.432L7.7076 4.3C7.83637 4.28082 7.95858 4.23079 8.06384 4.15418C8.1691 4.07756 8.25427 3.97664 8.3121 3.86L8.7241 3.026L9.1361 3.86C9.194 3.97663 9.27927 4.07752 9.38462 4.15405C9.48997 4.23058 9.61228 4.28049 9.7411 4.2995L10.6616 4.433L9.9946 5.084Z" fill="#010211"/>
<path d="M19.1221 4.05C19.0765 3.90643 18.9914 3.77864 18.8764 3.68134C18.7614 3.58404 18.6212 3.52118 18.4721 3.5L17.2616 3.324L16.7201 2.228C16.6537 2.09334 16.5509 1.97996 16.4234 1.90068C16.2959 1.8214 16.1488 1.77939 15.9986 1.77939C15.8485 1.77939 15.7013 1.8214 15.5738 1.90068C15.4463 1.97996 15.3435 2.09334 15.2771 2.228L14.7361 3.3245L13.5251 3.5C13.3765 3.52153 13.2369 3.58422 13.122 3.68099C13.0072 3.77776 12.9217 3.90474 12.8753 4.04756C12.8289 4.19038 12.8234 4.34334 12.8594 4.48913C12.8954 4.63492 12.9715 4.76772 13.0791 4.8725L13.9551 5.7265L13.7486 6.9315C13.7228 7.07963 13.739 7.23203 13.7954 7.37142C13.8517 7.51081 13.9461 7.63161 14.0676 7.72011C14.1892 7.80861 14.3331 7.86128 14.4831 7.87213C14.6331 7.88298 14.7831 7.85158 14.9161 7.7815L15.9986 7.2115L17.0821 7.781C17.2151 7.85101 17.365 7.88234 17.5149 7.87144C17.6648 7.86055 17.8087 7.80786 17.9301 7.71935C18.0516 7.63084 18.1458 7.51007 18.2021 7.37072C18.2584 7.23137 18.2745 7.07904 18.2486 6.931L18.0421 5.7255L18.9176 4.872C19.0252 4.76786 19.1014 4.6356 19.1376 4.49028C19.1737 4.34497 19.1684 4.19242 19.1221 4.05ZM17.2721 5.084C17.1792 5.17522 17.1097 5.28756 17.0695 5.41145C17.0294 5.53534 17.0198 5.66711 17.0416 5.7955L17.1991 6.712L16.3751 6.279C16.2595 6.21817 16.1308 6.18638 16.0001 6.18638C15.8694 6.18638 15.7407 6.21817 15.6251 6.279L14.8016 6.7115L14.9596 5.793C14.981 5.66464 14.9711 5.53301 14.9307 5.40931C14.8903 5.28561 14.8206 5.17349 14.7276 5.0825L14.0616 4.4325L14.9826 4.3C15.1113 4.2807 15.2335 4.23062 15.3387 4.15402C15.444 4.07742 15.5292 3.97656 15.5871 3.86L15.9986 3.0255L16.4101 3.86C16.4683 3.97663 16.5538 4.07749 16.6593 4.15401C16.7648 4.23052 16.8872 4.28044 17.0161 4.2995L17.9366 4.433L17.2721 5.084Z" fill="#010211"/>
<path d="M26.3981 4.05C26.3525 3.90643 26.2673 3.77864 26.1523 3.68134C26.0373 3.58404 25.8972 3.52118 25.7481 3.5L24.5381 3.3245L23.9981 2.228C23.9317 2.09334 23.8289 1.97996 23.7014 1.90068C23.5739 1.8214 23.4267 1.77939 23.2766 1.77939C23.1264 1.77939 22.9793 1.8214 22.8518 1.90068C22.7243 1.97996 22.6215 2.09334 22.5551 2.228L22.0121 3.3245L20.8006 3.5C20.6522 3.52193 20.5129 3.58489 20.3984 3.68177C20.2838 3.77866 20.1987 3.90561 20.1524 4.04832C20.1062 4.19103 20.1008 4.34381 20.1368 4.48944C20.1728 4.63506 20.2487 4.76774 20.3561 4.8725L21.2316 5.726L21.0251 6.9325C20.9994 7.08065 21.0157 7.23303 21.0721 7.37239C21.1286 7.51175 21.223 7.63251 21.3446 7.72099C21.4661 7.80946 21.6101 7.86212 21.76 7.87299C21.91 7.88386 22.06 7.85251 22.1931 7.7825L23.2756 7.213L24.3586 7.7825C24.4916 7.85244 24.6415 7.88373 24.7914 7.87281C24.9413 7.86189 25.0852 7.80921 25.2066 7.72073C25.3281 7.63224 25.4224 7.51151 25.4788 7.37219C25.5351 7.23288 25.5513 7.08056 25.5256 6.9325L25.3191 5.727L26.1951 4.873C26.3026 4.7686 26.3786 4.6361 26.4145 4.49059C26.4504 4.34509 26.4447 4.19242 26.3981 4.05ZM24.5481 5.0835C24.4543 5.1745 24.3842 5.28701 24.3437 5.41126C24.3033 5.53551 24.2938 5.66775 24.3161 5.7965L24.4731 6.713L23.6481 6.278C23.5324 6.21729 23.4037 6.18558 23.2731 6.18558C23.1424 6.18558 23.0138 6.21729 22.8981 6.278L22.0746 6.711L22.2321 5.7945C22.2542 5.66583 22.2447 5.53373 22.2044 5.40953C22.1642 5.28534 22.0944 5.17277 22.0011 5.0815L21.3351 4.4315L22.2591 4.3C22.3878 4.28082 22.5099 4.23079 22.6151 4.15417C22.7203 4.07756 22.8054 3.97662 22.8631 3.86L23.2756 3.026L23.6871 3.8605C23.7451 3.97721 23.8306 4.07813 23.9361 4.15466C24.0416 4.23119 24.1641 4.28106 24.2931 4.3L25.2136 4.4335L24.5481 5.0835Z" fill="#010211"/>
</svg>
