<svg width="32" height="32" viewBox="0 0 32 32" fill="none" xmlns="http://www.w3.org/2000/svg">
<path d="M1.00146 21.228C1.01928 21.655 1.20162 22.0586 1.51029 22.3543C1.81897 22.6499 2.23005 22.8146 2.65746 22.814H2.73096C8.78383 22.5522 14.6347 20.5604 19.59 17.0745C22.7386 14.8661 25.4555 12.099 27.606 8.9105L27.686 10.7725C27.6946 10.9939 27.7475 11.2113 27.8415 11.4119C27.9355 11.6125 28.0688 11.7923 28.2335 11.9405C28.3922 12.0858 28.5786 12.1976 28.7815 12.2693C28.9844 12.341 29.1997 12.3712 29.4145 12.358C29.6321 12.3488 29.8459 12.2968 30.0435 12.205C30.2411 12.1132 30.4186 11.9833 30.566 11.8228C30.7134 11.6623 30.8277 11.4744 30.9024 11.2697C30.9771 11.0651 31.0108 10.8477 31.0015 10.63L30.6635 2.81C30.6635 2.7955 30.6575 2.7575 30.657 2.7515C30.654 2.7085 30.648 2.6665 30.641 2.622C30.6324 2.56635 30.6206 2.51125 30.6055 2.457C30.6007 2.42767 30.5937 2.39875 30.5845 2.3705C30.5845 2.3665 30.5655 2.323 30.564 2.3205C30.5385 2.25011 30.5081 2.1816 30.473 2.1155C30.467 2.102 30.4405 2.0515 30.433 2.0385C30.3914 1.96816 30.3443 1.90128 30.292 1.8385C30.282 1.8255 30.263 1.8015 30.2525 1.7885C30.1889 1.71671 30.1191 1.65063 30.044 1.591C30.0186 1.5705 29.992 1.55147 29.9645 1.534C29.9079 1.4929 29.8486 1.45565 29.787 1.4225C29.7595 1.4075 29.731 1.3945 29.687 1.3725C29.6319 1.3473 29.5755 1.32527 29.518 1.3065C29.477 1.293 29.436 1.282 29.395 1.272C29.3775 1.267 29.3255 1.2535 29.3075 1.25C29.2773 1.24429 29.2467 1.24078 29.216 1.2395C29.175 1.234 29.1345 1.23 29.0945 1.228C29.0195 1.22428 28.9443 1.22545 28.8695 1.2315C28.8585 1.2315 28.8045 1.237 28.7935 1.2385C28.7004 1.25044 28.6086 1.27034 28.519 1.298C28.501 1.3025 28.4825 1.308 28.469 1.312L21.204 3.6875C20.7863 3.82465 20.44 4.12184 20.2411 4.51392C20.0422 4.90599 20.0069 5.36094 20.143 5.779C20.284 6.19395 20.5817 6.53727 20.9726 6.73554C21.3634 6.93381 21.8163 6.97131 22.2345 6.84L25.7135 5.7025C23.6805 9.1256 20.9427 12.0772 17.682 14.3615C13.2451 17.4821 8.00672 19.2653 2.58746 19.5C2.14813 19.5192 1.73438 19.712 1.43703 20.0359C1.13968 20.3599 0.983027 20.7886 1.00146 21.228ZM2.17296 20.711C2.23158 20.6472 2.3023 20.5957 2.38102 20.5595C2.45973 20.5232 2.54486 20.503 2.63146 20.5C8.24161 20.2566 13.6644 18.4102 18.2575 15.1795C21.9984 12.5572 25.0702 9.09191 27.225 5.0635C27.2727 4.97549 27.293 4.87517 27.283 4.77553C27.2731 4.67589 27.2335 4.58152 27.1694 4.50465C27.1052 4.42777 27.0194 4.37193 26.9232 4.34436C26.8269 4.31679 26.7246 4.31875 26.6295 4.35L21.925 5.888C21.8418 5.91951 21.7531 5.93384 21.6642 5.93013C21.5753 5.92641 21.4881 5.90472 21.4078 5.86637C21.3276 5.82803 21.2559 5.77381 21.1972 5.707C21.1384 5.64019 21.0938 5.56218 21.0661 5.47766C21.0383 5.39314 21.028 5.30388 21.0357 5.21525C21.0434 5.12663 21.0689 5.04048 21.1108 4.96201C21.1527 4.88354 21.2101 4.81437 21.2795 4.75868C21.3488 4.703 21.4288 4.66194 21.5145 4.638L28.777 2.263L28.8075 2.2545C28.8563 2.24024 28.9066 2.23135 28.9575 2.228C29.0011 2.225 29.045 2.226 29.0885 2.231H29.1055L29.2095 2.2595C29.2466 2.2725 29.283 2.28752 29.3185 2.3045C29.3425 2.3175 29.3645 2.333 29.4185 2.37C29.449 2.394 29.478 2.42 29.481 2.42C29.488 2.43 29.504 2.4505 29.512 2.46C29.5322 2.48447 29.5509 2.51018 29.568 2.537L29.59 2.582C29.602 2.605 29.613 2.6285 29.6295 2.667C29.6325 2.6805 29.6355 2.694 29.638 2.702C29.645 2.72786 29.6506 2.75406 29.655 2.7805L30.149 2.7015L29.6615 2.8315C29.6615 2.84 29.665 2.8575 29.667 2.873L30.0015 10.673C30.005 10.7601 29.9913 10.847 29.9611 10.9287C29.9309 11.0104 29.8848 11.0853 29.8255 11.1491C29.7662 11.213 29.6948 11.2644 29.6155 11.3005C29.5362 11.3366 29.4505 11.3567 29.3635 11.3595C29.2797 11.3654 29.1956 11.3544 29.1162 11.3269C29.0368 11.2995 28.9637 11.2564 28.9015 11.2C28.8356 11.1405 28.7823 11.0683 28.7448 10.9879C28.7073 10.9074 28.6862 10.8202 28.683 10.7315L28.533 7.2885C28.5283 7.18123 28.4893 7.07829 28.4216 6.99493C28.354 6.91156 28.2612 6.8522 28.1572 6.82561C28.0532 6.79903 27.9434 6.80664 27.844 6.84733C27.7446 6.88801 27.661 6.9596 27.6055 7.0515C25.4138 10.6843 22.4879 13.8195 19.015 16.2565C14.2074 19.6365 8.53056 21.5654 2.65896 21.814C2.53123 21.814 2.40627 21.7767 2.29933 21.7069C2.19239 21.637 2.10809 21.5376 2.05672 21.4206C2.00535 21.3037 1.98913 21.1743 2.01004 21.0483C2.03095 20.9223 2.08808 20.8051 2.17446 20.711H2.17296Z" fill="#010211"/>
<path d="M5.3125 25.3645C5.17989 25.3645 5.05271 25.4172 4.95895 25.5109C4.86518 25.6047 4.8125 25.7319 4.8125 25.8645V30.274C4.8125 30.4066 4.86518 30.5338 4.95895 30.6276C5.05271 30.7213 5.17989 30.774 5.3125 30.774H8.825C8.95761 30.774 9.08479 30.7213 9.17855 30.6276C9.27232 30.5338 9.325 30.4066 9.325 30.274V25.8645C9.325 25.7319 9.27232 25.6047 9.17855 25.5109C9.08479 25.4172 8.95761 25.3645 8.825 25.3645H5.3125ZM8.325 29.774H5.8125V26.3645H8.325V29.774Z" fill="#010211"/>
<path d="M10.6953 23.3465C10.5627 23.3465 10.4355 23.3992 10.3418 23.4929C10.248 23.5867 10.1953 23.7139 10.1953 23.8465V30.274C10.1953 30.4066 10.248 30.5338 10.3418 30.6276C10.4355 30.7213 10.5627 30.774 10.6953 30.774H14.2083C14.3409 30.774 14.4681 30.7213 14.5619 30.6276C14.6556 30.5338 14.7083 30.4066 14.7083 30.274V23.8465C14.7083 23.7139 14.6556 23.5867 14.5619 23.4929C14.4681 23.3992 14.3409 23.3465 14.2083 23.3465H10.6953ZM13.7083 29.774H11.1953V24.3465H13.7083V29.774Z" fill="#010211"/>
<path d="M16.0742 21.665C15.9416 21.665 15.8144 21.7177 15.7207 21.8115C15.6269 21.9052 15.5742 22.0324 15.5742 22.165V30.274C15.5742 30.4066 15.6269 30.5338 15.7207 30.6276C15.8144 30.7213 15.9416 30.774 16.0742 30.774H19.5872C19.7198 30.774 19.847 30.7213 19.9408 30.6276C20.0345 30.5338 20.0872 30.4066 20.0872 30.274V22.165C20.0872 22.0324 20.0345 21.9052 19.9408 21.8115C19.847 21.7177 19.7198 21.665 19.5872 21.665H16.0742ZM19.0872 29.774H16.5742V22.665H19.0872V29.774Z" fill="#010211"/>
<path d="M21.457 18.0395C21.3244 18.0395 21.1972 18.0922 21.1035 18.186C21.0097 18.2797 20.957 18.4069 20.957 18.5395V30.274C20.957 30.4066 21.0097 30.5338 21.1035 30.6276C21.1972 30.7213 21.3244 30.774 21.457 30.774H24.9695C25.1021 30.774 25.2293 30.7213 25.3231 30.6276C25.4169 30.5338 25.4695 30.4066 25.4695 30.274V18.5395C25.4695 18.4069 25.4169 18.2797 25.3231 18.186C25.2293 18.0922 25.1021 18.0395 24.9695 18.0395H21.457ZM24.4695 29.774H21.957V19.0395H24.4695V29.774Z" fill="#010211"/>
<path d="M26.8359 14.527C26.7033 14.527 26.5762 14.5797 26.4824 14.6735C26.3886 14.7672 26.3359 14.8944 26.3359 15.027V30.274C26.3359 30.4066 26.3886 30.5338 26.4824 30.6276C26.5762 30.7213 26.7033 30.774 26.8359 30.774H30.3484C30.481 30.774 30.6082 30.7213 30.702 30.6276C30.7958 30.5338 30.8484 30.4066 30.8484 30.274V15.027C30.8484 14.8944 30.7958 14.7672 30.702 14.6735C30.6082 14.5797 30.481 14.527 30.3484 14.527H26.8359ZM29.8484 29.774H27.3359V15.527H29.8484V29.774Z" fill="#010211"/>
<path d="M8.61547 11.467C8.3278 11.4929 8.04143 11.4051 7.81763 11.2225C7.59383 11.0399 7.45038 10.777 7.41797 10.49C7.41797 10.3574 7.36529 10.2302 7.27152 10.1364C7.17775 10.0427 7.05058 9.99 6.91797 9.99C6.78536 9.99 6.65818 10.0427 6.56442 10.1364C6.47065 10.2302 6.41797 10.3574 6.41797 10.49C6.43781 10.9561 6.61723 11.4013 6.92617 11.7509C7.23511 12.1006 7.65481 12.3334 8.11497 12.4105V13.0025C8.11497 13.1351 8.16765 13.2623 8.26142 13.356C8.35518 13.4498 8.48236 13.5025 8.61497 13.5025C8.74758 13.5025 8.87475 13.4498 8.96852 13.356C9.06229 13.2623 9.11497 13.1351 9.11497 13.0025V12.411C9.57572 12.3344 9.99612 12.1018 10.3057 11.752C10.6152 11.4022 10.795 10.9566 10.815 10.49C10.7831 9.93744 10.5343 9.41983 10.1228 9.04971C9.71129 8.67958 9.1703 8.48688 8.61747 8.5135C8.32982 8.53923 8.04352 8.45143 7.81976 8.26886C7.59599 8.0863 7.4525 7.82345 7.41997 7.5365C7.45238 7.2499 7.59557 6.98734 7.81894 6.80489C8.04232 6.62243 8.32817 6.53455 8.61547 6.56H8.61897C8.90637 6.53428 9.19243 6.62205 9.41594 6.80455C9.63945 6.98704 9.78268 7.24976 9.81497 7.5365C9.81497 7.6691 9.86765 7.79628 9.96142 7.89005C10.0552 7.98382 10.1824 8.0365 10.315 8.0365C10.4476 8.0365 10.5748 7.98382 10.6685 7.89005C10.7623 7.79628 10.815 7.6691 10.815 7.5365C10.7951 7.06989 10.6153 6.62433 10.3057 6.27462C9.99616 5.92492 9.57571 5.69236 9.11497 5.616V5.02299C9.11497 4.89039 9.06229 4.76321 8.96852 4.66944C8.87475 4.57567 8.74758 4.52299 8.61497 4.52299C8.48236 4.52299 8.35518 4.57567 8.26142 4.66944C8.16765 4.76321 8.11497 4.89039 8.11497 5.02299V5.6165C7.65489 5.69355 7.23525 5.92633 6.92632 6.27586C6.61739 6.62538 6.43792 7.07044 6.41797 7.5365C6.44975 8.08914 6.69845 8.60688 7.10997 8.97711C7.5215 9.34734 8.06256 9.54011 8.61547 9.5135C8.90309 9.4875 9.18946 9.57513 9.41327 9.75764C9.63709 9.94015 9.78056 10.203 9.81297 10.49C9.78068 10.7771 9.63726 11.0401 9.41343 11.2227C9.18961 11.4053 8.90317 11.493 8.61547 11.467Z" fill="#010211"/>
<path d="M8.61656 15.527C9.90475 15.5267 11.1639 15.1444 12.2349 14.4286C13.3058 13.7127 14.1404 12.6953 14.6332 11.5051C15.1259 10.3149 15.2547 9.00526 15.0032 7.74186C14.7517 6.47847 14.1313 5.31801 13.2203 4.40723C12.3093 3.49645 11.1487 2.87625 9.88523 2.62505C8.62178 2.37385 7.31221 2.50292 6.12211 2.99596C4.93201 3.48899 3.91483 4.32385 3.19918 5.39495C2.48353 6.46606 2.10156 7.72532 2.10156 9.0135C2.10355 10.7406 2.79063 12.3964 4.01205 13.6176C5.23346 14.8387 6.88942 15.5254 8.61656 15.527ZM8.61656 3.5C9.70697 3.5003 10.7728 3.82391 11.6793 4.42992C12.5858 5.03594 13.2922 5.89713 13.7093 6.90462C14.1264 7.9121 14.2353 9.02064 14.0224 10.0901C13.8095 11.1595 13.2843 12.1417 12.5132 12.9127C11.742 13.6836 10.7596 14.2086 9.69014 14.4212C8.62067 14.6338 7.51216 14.5245 6.50479 14.1072C5.49742 13.6898 4.63642 12.9831 4.03065 12.0765C3.42489 11.1698 3.10156 10.1039 3.10156 9.0135C3.10302 7.55142 3.68458 6.14966 4.71857 5.11595C5.75256 4.08224 7.15448 3.50106 8.61656 3.5Z" fill="#010211"/>
</svg>
