<svg width="32" height="32" viewBox="0 0 32 32" fill="none" xmlns="http://www.w3.org/2000/svg">
<path d="M30.5 21.5965H29.1155C29.1994 21.3969 29.2426 21.1825 29.2425 20.966V6.909C29.2421 6.47673 29.0703 6.06226 28.7647 5.7565C28.4591 5.45074 28.0448 5.27866 27.6125 5.278H4.3875C3.95523 5.27866 3.54086 5.45074 3.23529 5.7565C2.92972 6.06226 2.7579 6.47673 2.7575 6.909V20.966C2.75739 21.1825 2.80057 21.3969 2.8845 21.5965H1.5C1.36739 21.5965 1.24021 21.6492 1.14645 21.7429C1.05268 21.8367 1 21.9639 1 22.0965V24.7245C1 25.2549 1.21071 25.7636 1.58579 26.1387C1.96086 26.5138 2.46957 26.7245 3 26.7245H29.005C29.535 26.7238 30.0431 26.5128 30.4176 26.1378C30.7921 25.7628 31.0025 25.2545 31.0025 24.7245V22.0965C31.0025 22.0306 30.9895 21.9654 30.9642 21.9046C30.9389 21.8438 30.9019 21.7885 30.8552 21.7421C30.8085 21.6956 30.7531 21.6588 30.6921 21.6338C30.6312 21.6089 30.5659 21.5962 30.5 21.5965ZM3.7575 20.966V6.909C3.7575 6.74182 3.82384 6.58148 3.94196 6.46317C4.06008 6.34486 4.22032 6.27826 4.3875 6.278H27.6125C27.7797 6.27826 27.9399 6.34486 28.058 6.46317C28.1762 6.58148 28.2425 6.74182 28.2425 6.909V20.966C28.2424 21.1331 28.176 21.2933 28.0579 21.4115C27.9398 21.5297 27.7796 21.5962 27.6125 21.5965H4.3875C4.22041 21.5962 4.06024 21.5297 3.94214 21.4115C3.82403 21.2933 3.75763 21.1331 3.7575 20.966ZM30 24.7245C30 24.9893 29.895 25.2433 29.708 25.4307C29.521 25.6182 29.2673 25.7238 29.0025 25.7245H3C2.73522 25.7238 2.4815 25.6182 2.29451 25.4307C2.10751 25.2433 2.0025 24.9893 2.0025 24.7245V22.5965H30V24.7245Z" fill="#010211"/>
<path d="M3.28954 23.805C3.19722 23.9002 3.14527 24.0274 3.14454 24.16C3.14396 24.2593 3.17297 24.3566 3.22787 24.4393C3.28277 24.5221 3.36108 24.5866 3.4528 24.6247C3.54452 24.6628 3.64551 24.6727 3.74288 24.6531C3.84025 24.6336 3.9296 24.5855 3.99954 24.515C4.09369 24.4209 4.14659 24.2932 4.14659 24.16C4.14659 24.0269 4.09369 23.8992 3.99954 23.805C3.90539 23.7109 3.77769 23.658 3.64454 23.658C3.51139 23.658 3.38369 23.7109 3.28954 23.805Z" fill="#010211"/>
<path d="M6.72896 23.805C6.63326 23.7158 6.50729 23.6662 6.37646 23.6662C6.24563 23.6662 6.11967 23.7158 6.02396 23.805C5.97615 23.8517 5.93868 23.9079 5.91396 23.97C5.88988 24.0304 5.87798 24.095 5.87896 24.16C5.87858 24.2258 5.89119 24.291 5.91608 24.352C5.94096 24.4129 5.97762 24.4683 6.02396 24.515C6.1193 24.6071 6.24641 24.659 6.37896 24.66C6.51004 24.659 6.63556 24.607 6.72896 24.515C6.80072 24.4462 6.84972 24.3572 6.86938 24.2597C6.88904 24.1623 6.87843 24.0612 6.83896 23.97C6.8161 23.907 6.77836 23.8504 6.72896 23.805Z" fill="#010211"/>
<path d="M9.30332 23.7C9.22763 23.6677 9.14508 23.6547 9.06314 23.6623C8.98119 23.6699 8.90242 23.6978 8.83395 23.7434C8.76547 23.7891 8.70944 23.8511 8.67093 23.9238C8.63241 23.9965 8.61261 24.0777 8.61332 24.16C8.61251 24.225 8.62458 24.2896 8.64882 24.35C8.676 24.4108 8.71318 24.4665 8.75882 24.515C8.82865 24.585 8.91788 24.6324 9.01495 24.6511C9.11202 24.6698 9.21247 24.659 9.30332 24.62C9.36314 24.5958 9.41766 24.5601 9.46382 24.515C9.50947 24.4666 9.5465 24.4108 9.57332 24.35C9.59923 24.29 9.61283 24.2254 9.61332 24.16C9.61189 24.0266 9.55801 23.899 9.46332 23.805C9.41731 23.7599 9.36296 23.7243 9.30332 23.7Z" fill="#010211"/>
<path d="M17.1683 8.231H5.67578C5.54317 8.231 5.416 8.28368 5.32223 8.37745C5.22846 8.47122 5.17578 8.59839 5.17578 8.731V18.7C5.17578 18.8326 5.22846 18.9598 5.32223 19.0536C5.416 19.1473 5.54317 19.2 5.67578 19.2H17.1683C17.3009 19.2 17.4281 19.1473 17.5218 19.0536C17.6156 18.9598 17.6683 18.8326 17.6683 18.7V8.731C17.6683 8.59839 17.6156 8.47122 17.5218 8.37745C17.4281 8.28368 17.3009 8.231 17.1683 8.231ZM16.6683 18.199H6.17578V9.231H16.6683V18.199Z" fill="#010211"/>
<path d="M9.55086 16.0095C9.6906 16.0914 9.84964 16.1345 10.0116 16.1345C10.1736 16.1345 10.3326 16.0914 10.4724 16.0095L13.5974 14.2055C13.7375 14.1245 13.8539 14.0081 13.9348 13.8679C14.0157 13.7277 14.0583 13.5686 14.0583 13.4067C14.0583 13.2449 14.0157 13.0858 13.9348 12.9456C13.8539 12.8054 13.7375 12.689 13.5974 12.608L10.4724 10.804C10.3321 10.7231 10.173 10.6806 10.0111 10.6808C9.84921 10.6809 9.6902 10.7236 9.55007 10.8047C9.40994 10.8858 9.29363 11.0024 9.21284 11.1427C9.13206 11.283 9.08964 11.4421 9.08985 11.604V15.212C9.08905 15.3739 9.13133 15.533 9.21234 15.6732C9.29335 15.8133 9.41018 15.9294 9.55086 16.0095ZM10.0899 11.738L12.9804 13.4065L10.0899 15.0755V11.738Z" fill="#010211"/>
<path d="M19.4023 9.34351H22.3523C22.485 9.34351 22.6121 9.29083 22.7059 9.19706C22.7997 9.10329 22.8523 8.97611 22.8523 8.84351C22.8523 8.7109 22.7997 8.58372 22.7059 8.48995C22.6121 8.39618 22.485 8.34351 22.3523 8.34351H19.4023C19.2697 8.34351 19.1426 8.39618 19.0488 8.48995C18.955 8.58372 18.9023 8.7109 18.9023 8.84351C18.9023 8.97611 18.955 9.10329 19.0488 9.19706C19.1426 9.29083 19.2697 9.34351 19.4023 9.34351Z" fill="#010211"/>
<path d="M26.9023 10.295H19.4023C19.2697 10.295 19.1426 10.3477 19.0488 10.4414C18.955 10.5352 18.9023 10.6624 18.9023 10.795C18.9023 10.9276 18.955 11.0548 19.0488 11.1486C19.1426 11.2423 19.2697 11.295 19.4023 11.295H26.9023C27.035 11.295 27.1621 11.2423 27.2559 11.1486C27.3497 11.0548 27.4023 10.9276 27.4023 10.795C27.4023 10.6624 27.3497 10.5352 27.2559 10.4414C27.1621 10.3477 27.035 10.295 26.9023 10.295Z" fill="#010211"/>
<path d="M19.4023 13.4H22.3523C22.485 13.4 22.6121 13.3473 22.7059 13.2535C22.7997 13.1598 22.8523 13.0326 22.8523 12.9C22.8523 12.7674 22.7997 12.6402 22.7059 12.5464C22.6121 12.4527 22.485 12.4 22.3523 12.4H19.4023C19.2697 12.4 19.1426 12.4527 19.0488 12.5464C18.955 12.6402 18.9023 12.7674 18.9023 12.9C18.9023 13.0326 18.955 13.1598 19.0488 13.2535C19.1426 13.3473 19.2697 13.4 19.4023 13.4Z" fill="#010211"/>
<path d="M25.5649 13.4C25.6975 13.4 25.8247 13.3473 25.9184 13.2535C26.0122 13.1598 26.0649 13.0326 26.0649 12.9C26.0649 12.7674 26.0122 12.6402 25.9184 12.5464C25.8247 12.4527 25.6975 12.4 25.5649 12.4H23.9844C23.8518 12.4 23.7246 12.4527 23.6308 12.5464C23.5371 12.6402 23.4844 12.7674 23.4844 12.9C23.4844 13.0326 23.5371 13.1598 23.6308 13.2535C23.7246 13.3473 23.8518 13.4 23.9844 13.4H25.5649Z" fill="#010211"/>
<path d="M26.9023 14.933H19.4023C19.2697 14.933 19.1426 14.9857 19.0488 15.0794C18.955 15.1732 18.9023 15.3004 18.9023 15.433V18.7C18.9023 18.8326 18.955 18.9598 19.0488 19.0536C19.1426 19.1473 19.2697 19.2 19.4023 19.2H26.9023C27.035 19.2 27.1621 19.1473 27.2559 19.0536C27.3497 18.9598 27.4023 18.8326 27.4023 18.7V15.433C27.4023 15.3004 27.3497 15.1732 27.2559 15.0794C27.1621 14.9857 27.035 14.933 26.9023 14.933ZM26.4023 18.199H19.9023V15.933H26.4023V18.199Z" fill="#010211"/>
</svg>
