<svg width="36" height="36" viewBox="0 0 36 36" fill="none" xmlns="http://www.w3.org/2000/svg">
<path d="M6.03125 10.5074C6.03125 11.3497 6.71729 12.0357 7.55955 12.0357H8.49011V8.97913H7.55955C6.71729 8.97913 6.03125 9.66517 6.03125 10.5074Z" fill="black"/>
<path d="M33.0871 3.37537H2.91505C2.24261 3.37537 1.69922 3.9188 1.69922 4.59124V16.4236C1.69922 17.0961 2.24261 17.6395 2.91505 17.6395H8.49167V12.715H7.56111C6.33848 12.715 5.35356 11.7233 5.35356 10.5074C5.35356 9.29157 6.33848 8.29989 7.56111 8.29989H28.4479C29.6637 8.29989 30.6554 9.29157 30.6554 10.5074C30.6554 11.7233 29.6637 12.715 28.4479 12.715H27.5105V17.6395H33.0871C33.7596 17.6395 34.303 17.0961 34.303 16.4236V4.59124C34.303 3.9188 33.7596 3.37537 33.0871 3.37537Z" fill="black"/>
<path d="M29.9774 10.5074C29.9774 9.66517 29.2913 8.97913 28.4491 8.97913H27.5117V12.0357H28.4491C29.2913 12.0357 29.9774 11.3497 29.9774 10.5074Z" fill="black"/>
<path d="M18.0032 25.45C18.5659 25.45 19.0221 24.9938 19.0221 24.4311C19.0221 23.8684 18.5659 23.4122 18.0032 23.4122C17.4405 23.4122 16.9844 23.8684 16.9844 24.4311C16.9844 24.9938 17.4405 25.45 18.0032 25.45Z" fill="black"/>
<path d="M24.119 27.5746H23.7794C22.7744 27.5746 21.9566 28.3925 21.9566 29.3981V29.7377H14.0477V29.3981C14.0477 28.3925 13.2299 27.5746 12.2249 27.5746H11.8853V8.97827H9.17188V31.5249C9.17188 32.1321 9.66423 32.6245 10.2716 32.6245H25.7326C26.34 32.6245 26.8323 32.1321 26.8323 31.5249V8.97827H24.119V27.5746Z" fill="black"/>
<path d="M14.7056 29.0585H21.3024C21.453 27.9494 22.3332 27.0698 23.4416 26.9186V8.97827H12.5664V26.9186C13.6748 27.0698 14.5551 27.9494 14.7056 29.0585ZM18.0037 26.1292C17.0671 26.1292 16.3056 25.3677 16.3056 24.4311C16.3056 23.4945 17.0671 22.733 18.0037 22.733C18.9403 22.733 19.7018 23.4945 19.7018 24.4311C19.7018 25.3677 18.9403 26.1292 18.0037 26.1292ZM14.4078 16.5349H14.7088C14.869 15.6855 15.6139 15.0404 16.5092 15.0404C16.6969 15.0404 16.8488 15.1923 16.8488 15.38C16.8488 15.5677 16.6969 15.7196 16.5092 15.7196C15.8718 15.7196 15.3537 16.2377 15.3537 16.8745C15.3537 17.5113 15.8718 18.0293 16.5092 18.0293C17.146 18.0293 17.6641 17.5113 17.6641 16.8745C17.6641 16.8685 17.6641 16.8626 17.6647 16.8566C17.674 15.8696 18.47 15.0596 19.463 15.0404C19.9545 15.0397 20.4175 15.2129 20.7704 15.5525C21.0488 15.8204 21.2277 16.1625 21.2973 16.5349H21.6002C21.788 16.5349 21.9399 16.6868 21.9399 16.8745C21.9399 17.0622 21.788 17.2141 21.6002 17.2141H21.3011C21.1435 18.0497 20.4172 18.6912 19.5346 18.7086C19.5327 18.7086 19.53 18.7086 19.528 18.7086C19.3436 18.7086 19.1917 18.5607 19.1884 18.3756C19.1851 18.1879 19.3337 18.0333 19.5214 18.0293C20.1582 18.0174 20.6663 17.4887 20.6537 16.8519C20.6477 16.5435 20.5217 16.2563 20.2995 16.042C20.0779 15.8291 19.7894 15.7203 19.4763 15.7196C18.8395 15.7316 18.3314 16.2603 18.344 16.8971C18.344 16.911 18.3433 16.9249 18.342 16.9388C18.3082 17.9206 17.4989 18.7086 16.5092 18.7086C15.6139 18.7086 14.869 18.0635 14.7088 17.2141H14.4078C14.2201 17.2141 14.0682 17.0622 14.0682 16.8745C14.0682 16.6868 14.2201 16.5349 14.4078 16.5349Z" fill="black"/>
<path d="M6.88907 25.5574L6.34854 26.098V22.2616C6.34854 21.8938 6.05572 21.601 5.68787 21.601C5.32001 21.601 5.0347 21.8938 5.0347 22.2616V26.098L4.49413 25.565C4.37403 25.4373 4.2089 25.3698 4.02868 25.3698C3.85601 25.3698 3.68338 25.4373 3.57074 25.5574C3.44313 25.6776 3.37551 25.8428 3.37551 26.0155C3.36801 26.1956 3.44313 26.3608 3.57074 26.4959L5.21487 28.1326C5.33502 28.2677 5.50769 28.3428 5.68787 28.3428C5.86804 28.3428 6.04076 28.2677 6.15331 28.1476L7.81258 26.4884C7.94011 26.3608 8.00776 26.1956 8.00776 26.0155C8.00022 25.8428 7.93264 25.6776 7.81258 25.565C7.57229 25.3098 7.11427 25.3172 6.88907 25.5574Z" fill="black"/>
<path d="M31.5102 29.2933L30.9696 29.8338V25.9975C30.9696 25.6297 30.6769 25.3368 30.309 25.3368C29.9411 25.3368 29.6558 25.6297 29.6558 25.9975V29.8338L29.1152 29.3008C28.9952 29.1731 28.83 29.1056 28.6497 29.1056C28.4771 29.1056 28.3045 29.1731 28.1919 29.2933C28.0642 29.4134 27.9966 29.5786 27.9966 29.7513C27.9891 29.9315 28.0642 30.0966 28.1919 30.2317L29.8359 31.8684C29.9562 32.0035 30.1288 32.0787 30.309 32.0787C30.4891 32.0787 30.6619 32.0035 30.7744 31.8834L32.4337 30.2243C32.5612 30.0966 32.6289 29.9315 32.6289 29.7513C32.6213 29.5786 32.5537 29.4134 32.4337 29.3008C32.1934 29.0456 31.7354 29.0531 31.5102 29.2933Z" fill="black"/>
</svg>
