<svg width="40" height="40" viewBox="0 0 40 40" fill="none" xmlns="http://www.w3.org/2000/svg">
<path d="M30.65 1.78751C29.5375 1.94376 28.4562 2.38751 27.5 3.06876C27.1875 3.30626 26.9187 3.54376 26.6687 3.78751C25.5 4.96251 24.7812 6.49376 24.6313 8.16251H8.325C7.98125 8.16251 7.7 8.44376 7.7 8.78751V24.1688C7.5125 24.1813 7.35 24.2063 7.21875 24.225C6.5875 24.325 5.95625 24.5125 5.35 24.7938C2.8625 25.95 1.25 28.4688 1.25 31.2125C1.25 32.15 1.4375 33.0688 1.8 33.925C2.05625 34.5375 2.375 35.0875 2.74375 35.5438C3.925 37.0688 5.625 38.0313 7.49375 38.2375C7.5125 38.2438 7.53125 38.2438 7.54375 38.2438C7.5625 38.25 7.5875 38.25 7.60625 38.2563C7.84375 38.2813 8.0875 38.2875 8.325 38.2875C8.55 38.2875 8.7875 38.2813 9.03125 38.25C9.06875 38.25 9.10625 38.2438 9.125 38.2438C11.2 38.0063 13.05 36.8813 14.2125 35.1438C14.5625 34.625 14.8375 34.0625 15.0312 33.475C15.2125 32.95 15.325 32.4 15.3687 31.8375H31.675C32.0188 31.8375 32.3 31.5563 32.3 31.2125V15.8313C32.4188 15.8188 32.5437 15.8063 32.6625 15.7875C34.1937 15.5813 35.5812 14.8875 36.675 13.7875C38.0125 12.45 38.75 10.675 38.75 8.78751C38.75 6.90001 38.0125 5.12501 36.675 3.78751C35.0812 2.19376 32.8875 1.46876 30.65 1.78751ZM34.85 11.9688C34.525 12.2938 34.0938 12.4625 33.6688 12.4625C33.2375 12.4625 32.8063 12.2938 32.4813 11.9688C32.1625 11.65 31.9875 11.2313 31.9875 10.7813C31.9875 10.3375 32.1625 9.91251 32.4813 9.59376C33.1125 8.96251 34.2188 8.96251 34.85 9.59376C35.5062 10.25 35.5062 11.3125 34.85 11.9688ZM30.8625 5.60626C31.5188 6.26251 31.5187 7.32501 30.8687 7.98126H30.8625C30.5375 8.30626 30.1063 8.47501 29.6813 8.47501C29.25 8.47501 28.8188 8.30626 28.4937 7.98126C27.8375 7.32501 27.8375 6.26251 28.4937 5.60626C29.1437 4.95626 30.2125 4.95626 30.8625 5.60626ZM33.6625 5.91251C33.9062 5.66876 34.3 5.66876 34.5438 5.91251C34.7938 6.16251 34.7938 6.55626 34.5438 6.80001L29.6813 11.6625C29.5625 11.7875 29.4 11.8438 29.2375 11.8438C29.0812 11.8438 28.9188 11.7875 28.8 11.6625C28.5563 11.4188 28.5563 11.025 28.8 10.7813L33.6625 5.91251ZM24.6187 9.41251C24.6375 9.61876 24.6625 9.82501 24.7062 10.025C24.7437 10.2313 24.7875 10.4313 24.8375 10.625C24.8688 10.725 24.8938 10.825 24.925 10.9188C24.9563 11.0188 24.9875 11.1125 25.025 11.2125C25.0938 11.4125 25.1812 11.6125 25.2687 11.8063C25.3438 11.9563 25.4187 12.1 25.5 12.2438C25.5938 12.4188 25.7 12.5875 25.8188 12.7563C25.8563 12.8188 25.9 12.8813 25.9437 12.9375C26.0562 13.0938 26.175 13.2438 26.3062 13.3875C26.4188 13.525 26.5375 13.6563 26.6687 13.7875C27.6125 14.7375 28.8 15.3875 30.0813 15.6813C30.2375 15.7188 30.4 15.75 30.5562 15.775C30.6938 15.8 30.825 15.8125 30.9625 15.825C30.9938 15.8313 31.0187 15.8375 31.05 15.8375V18.3C31.0438 18.3 31.0375 18.3 31.0312 18.3063C31.0125 18.3063 31 18.3063 30.9813 18.3125C30.8937 18.325 30.8 18.3438 30.7125 18.3625C30.6938 18.3625 30.675 18.3688 30.65 18.3813C30.5562 18.4 30.4625 18.425 30.3687 18.4563C30.2 18.5063 30.0375 18.5688 29.875 18.6375C29.8062 18.6688 29.7437 18.7 29.675 18.7313C29.4562 18.8438 29.25 18.9688 29.05 19.1125C28.8687 19.25 28.6938 19.4 28.5312 19.5625C28.45 19.6438 28.3687 19.7313 28.2938 19.8188C28.2188 19.9125 28.1437 20 28.075 20.1C28.0062 20.1938 27.9375 20.2938 27.8813 20.3938C27.8313 20.475 27.7812 20.5563 27.7375 20.6438C27.6813 20.75 27.6313 20.85 27.5875 20.9563C27.55 21.0375 27.5187 21.1188 27.4875 21.2063C27.3875 21.4813 27.3125 21.775 27.2688 22.075H12.7313C12.6938 21.8 12.625 21.5313 12.5375 21.275C12.5 21.1563 12.45 21.0375 12.4 20.925C12.35 20.8063 12.2937 20.6875 12.225 20.5688C12.175 20.475 12.1188 20.3813 12.0563 20.2938C12.0438 20.2625 12.0188 20.225 11.9938 20.1938C11.9563 20.1313 11.9125 20.075 11.8687 20.0188C11.8187 19.95 11.7625 19.8813 11.7062 19.8188C11.6312 19.7313 11.55 19.6438 11.4688 19.5625C11.3063 19.4 11.1313 19.25 10.95 19.1125C10.7563 18.9688 10.5437 18.8438 10.325 18.7313C10.2563 18.7 10.1938 18.6688 10.125 18.6375C9.9625 18.5688 9.8 18.5063 9.63125 18.4563C9.5375 18.425 9.44375 18.4 9.35 18.3813C9.325 18.3688 9.30625 18.3625 9.2875 18.3625C9.2 18.3438 9.10625 18.325 9.01875 18.3125C9 18.3063 8.9875 18.3063 8.96875 18.3063C8.9625 18.3 8.95625 18.3 8.95 18.3V13.1875C9.83125 13.0688 10.65 12.6875 11.3062 12.0875C12.0813 11.3875 12.5875 10.4375 12.7313 9.41251H24.6187ZM8.95 35.1313C8.95 35.475 8.675 35.7563 8.325 35.7563C7.98125 35.7563 7.7 35.475 7.7 35.1313V34.6625H7.2625C6.3125 34.6625 5.5375 33.8875 5.5375 32.9313C5.5375 32.5875 5.8125 32.3063 6.1625 32.3063C6.50625 32.3063 6.7875 32.5875 6.7875 32.9313C6.7875 33.1938 7 33.4125 7.2625 33.4125H9.3875C9.65625 33.4125 9.86875 33.1938 9.86875 32.9313V32.3188C9.86875 32.0563 9.65625 31.8375 9.3875 31.8375H7.2625C6.3125 31.8375 5.5375 31.0625 5.5375 30.1063V29.4938C5.5375 28.5438 6.3125 27.7688 7.2625 27.7688H7.7V27.3C7.7 26.9563 7.98125 26.675 8.325 26.675C8.675 26.675 8.95 26.9563 8.95 27.3V27.7688H9.3875C10.3438 27.7688 11.1188 28.5438 11.1188 29.4938C11.1188 29.8438 10.8375 30.1188 10.4938 30.1188C10.15 30.1188 9.86875 29.8438 9.86875 29.4938C9.86875 29.2313 9.65625 29.0188 9.3875 29.0188H7.2625C7 29.0188 6.7875 29.2313 6.7875 29.4938V30.1063C6.7875 30.375 7 30.5875 7.2625 30.5875H9.3875C10.3438 30.5875 11.1188 31.3625 11.1188 32.3188V32.9313C11.1188 33.8875 10.3438 34.6625 9.3875 34.6625H8.95V35.1313ZM12.15 23.3313H27.85C27.8688 23.3313 27.8937 23.3313 27.9125 23.325H31.05V24.9125H11.55C11.4937 24.8813 11.4375 24.8563 11.375 24.8313C11.2688 24.775 11.1562 24.725 11.0437 24.6813C10.8188 24.5875 10.5875 24.5 10.35 24.4313C10.1875 24.3813 10.0312 24.3375 9.8625 24.3063C9.73125 24.275 9.59375 24.25 9.45 24.2313C9.40625 24.2188 9.35625 24.2125 9.30625 24.2063C9.1875 24.1875 9.06875 24.175 8.95 24.1625V23.325H12.0875C12.1062 23.3313 12.1313 23.3313 12.15 23.3313ZM14.4938 27.75C14.4938 27.7438 14.4938 27.7375 14.4875 27.7375C14.4187 27.6125 14.3438 27.4875 14.2625 27.3688C14.1812 27.2438 14.1 27.1188 14.0063 26.9938C13.7875 26.7 13.5437 26.4188 13.2812 26.1625H31.05V27.75H14.4938ZM15.375 30.5875C15.3688 30.5125 15.3625 30.4375 15.35 30.3625C15.3375 30.275 15.325 30.1875 15.3125 30.1C15.2563 29.725 15.1687 29.3625 15.0437 29H31.05V30.5875H15.375Z" fill="#5A5BB5"/>
<path d="M29.982 7.0999C30.1508 6.93115 30.1508 6.6624 29.982 6.49365C29.9008 6.40615 29.7883 6.36865 29.682 6.36865C29.5695 6.36865 29.4633 6.40615 29.3758 6.49365C29.2133 6.6624 29.2133 6.93115 29.3758 7.0999C29.5445 7.2624 29.8133 7.2624 29.982 7.0999Z" fill="#5A5BB5"/>
<path d="M33.6703 10.3562C33.5516 10.3562 33.4453 10.4 33.3641 10.4812C33.2016 10.65 33.2016 10.9187 33.3641 11.0875C33.5328 11.25 33.8016 11.2562 33.9703 11.0875C34.1391 10.9187 34.1391 10.65 33.9703 10.4812C33.8891 10.4 33.7828 10.3562 33.6703 10.3562Z" fill="#5A5BB5"/>
<path d="M19.9984 19.875C22.2801 19.875 24.1297 18.0254 24.1297 15.7438C24.1297 13.4622 22.2801 11.6125 19.9984 11.6125C17.7168 11.6125 15.8672 13.4622 15.8672 15.7438C15.8672 18.0254 17.7168 19.875 19.9984 19.875Z" fill="#5A5BB5"/>
<path d="M25.9023 16.3701H27.0711C27.4167 16.3701 27.6961 16.0907 27.6961 15.7451C27.6961 15.3995 27.4167 15.1201 27.0711 15.1201H25.9023C25.5567 15.1201 25.2773 15.3995 25.2773 15.7451C25.2773 16.0907 25.5567 16.3701 25.9023 16.3701Z" fill="#5A5BB5"/>
<path d="M12.9297 16.3701H14.0984C14.4441 16.3701 14.7234 16.0907 14.7234 15.7451C14.7234 15.3995 14.4441 15.1201 14.0984 15.1201H12.9297C12.5841 15.1201 12.3047 15.3995 12.3047 15.7451C12.3047 16.0907 12.5841 16.3701 12.9297 16.3701Z" fill="#5A5BB5"/>
</svg>
