<svg width="40" height="40" viewBox="0 0 40 40" fill="none" xmlns="http://www.w3.org/2000/svg">
<path d="M35.3463 11.1937C35.2888 11.1356 35.2194 11.09 35.1425 11.0581C34.99 10.995 34.8175 10.995 34.665 11.0581C34.5881 11.09 34.5194 11.1356 34.4613 11.1937L32.1794 13.4756C31.935 13.72 31.935 14.115 32.1794 14.3593C32.4237 14.6037 32.8188 14.6037 33.0631 14.3593L34.2788 13.1437V19.8625C34.2788 20.2075 34.5581 20.4875 34.9038 20.4875C35.2494 20.4875 35.5288 20.2075 35.5288 19.8625V13.1437L36.7444 14.3593C36.8663 14.4812 37.0263 14.5425 37.1863 14.5425C37.3463 14.5425 37.5063 14.4812 37.6281 14.3593C37.8725 14.115 37.8725 13.72 37.6281 13.4756L35.3463 11.1937Z" fill="#5A5BB5"/>
<path d="M4.485 14.3601L5.70063 13.1444V19.8632C5.70063 20.2082 5.98 20.4882 6.32563 20.4882C6.67125 20.4882 6.95063 20.2082 6.95063 19.8632V13.1444L8.16625 14.3601C8.28813 14.4819 8.44812 14.5432 8.60812 14.5432C8.76813 14.5432 8.92813 14.4819 9.05 14.3601C9.29438 14.1157 9.29438 13.7207 9.05 13.4763L6.76813 11.1944C6.71063 11.1363 6.64125 11.0907 6.56438 11.0588C6.41188 10.9957 6.23938 10.9957 6.08688 11.0588C6.01 11.0907 5.94125 11.1363 5.88313 11.1944L3.60125 13.4763C3.35687 13.7207 3.35687 14.1157 3.60125 14.3601C3.84562 14.6044 4.24063 14.6044 4.485 14.3601Z" fill="#5A5BB5"/>
<path d="M20.6153 7.6781L25.5266 3.2131C23.5316 2.81873 19.3897 2.15435 16.3516 2.71748L20.4497 7.68498C20.5047 7.68373 20.5597 7.67873 20.6153 7.67873V7.6781Z" fill="#5A5BB5"/>
<path d="M14.9342 25.857C15.118 26.0407 15.363 26.142 15.623 26.142H21.2561C22.3823 26.142 23.3161 26.9838 23.4592 28.0713L29.4273 25.3332C30.0642 24.2188 30.3955 22.9145 30.3955 21.4426C30.3955 15.8095 25.8836 8.92822 20.618 8.92822C15.3523 8.92822 10.8398 15.8095 10.8398 21.4426C10.8398 22.4063 10.9898 23.3045 11.2692 24.1295C12.6542 24.2601 13.9386 24.8613 14.9342 25.857ZM21.7286 19.3251H19.5061C18.5248 19.3251 17.7261 18.527 17.7261 17.5451V16.9038C17.7261 15.9226 18.5242 15.1238 19.5061 15.1238H19.9911V14.6082C19.9911 14.2632 20.2705 13.9832 20.6161 13.9832C20.9617 13.9832 21.2411 14.2632 21.2411 14.6082V15.1238H21.728C22.7092 15.1238 23.5086 15.922 23.5086 16.9038C23.5086 17.2488 23.2292 17.5288 22.8836 17.5288C22.538 17.5288 22.2586 17.2488 22.2586 16.9038C22.2586 16.612 22.0205 16.3738 21.728 16.3738H20.6292C20.6242 16.3738 20.6205 16.3763 20.6155 16.3763C20.6105 16.3763 20.6067 16.3738 20.6017 16.3738H19.5048C19.2123 16.3738 18.9748 16.6113 18.9748 16.9038V17.5451C18.9748 17.837 19.2123 18.0751 19.5048 18.0751H21.7273C22.7086 18.0751 23.508 18.8738 23.508 19.8551V20.4963C23.508 21.4776 22.7092 22.2763 21.7273 22.2763H21.2405V22.7982C21.2405 23.1432 20.9611 23.4232 20.6155 23.4232C20.2698 23.4232 19.9905 23.1432 19.9905 22.7982V22.2763H19.5055C18.5242 22.2763 17.7255 21.4776 17.7255 20.4963C17.7255 20.1513 18.0048 19.8713 18.3505 19.8713C18.6961 19.8713 18.9755 20.1513 18.9755 20.4963C18.9755 20.7888 19.213 21.0263 19.5055 21.0263H21.728C22.0205 21.0263 22.2586 20.7888 22.2586 20.4963V19.8551C22.2586 19.5626 22.0211 19.3251 21.7286 19.3251Z" fill="#5A5BB5"/>
<path d="M3.53125 29.605V36.7868L4.985 35.5706C5.93188 34.7787 7.1325 34.3425 8.36562 34.3425H19.785C20.42 34.3425 21.045 34.1725 21.5919 33.8493L32.125 27.6425C32.3563 27.5062 32.5194 27.2875 32.5837 27.0268C32.6481 26.7662 32.6056 26.4975 32.465 26.2693C32.2019 25.8437 31.6619 25.6818 31.2087 25.8893L23.0906 29.6143C22.69 30.2012 22.0156 30.5868 21.2537 30.5868H15.0737C14.7281 30.5868 14.4487 30.3068 14.4487 29.9618C14.4487 29.6168 14.7281 29.3368 15.0737 29.3368H21.2537C21.5956 29.3368 21.8962 29.16 22.07 28.8931C22.0881 28.8487 22.1112 28.8068 22.1394 28.7675C22.1956 28.645 22.2269 28.5081 22.2269 28.3643C22.2269 27.8281 21.7906 27.3912 21.2537 27.3912H15.6206C15.0269 27.3912 14.4681 27.16 14.0481 26.74C13.1656 25.8568 11.9425 25.3506 10.6937 25.3506H10.2225C8.65125 25.3506 7.17438 25.9625 6.06375 27.0731L3.53187 29.6043L3.53125 29.605Z" fill="#5A5BB5"/>
</svg>
