<svg width="40" height="40" viewBox="0 0 40 40" fill="none" xmlns="http://www.w3.org/2000/svg">
<path d="M11.6523 24.37C11.7748 24.37 11.898 24.3743 12.0211 24.3762C12.1248 24.3781 12.228 24.3787 12.3317 24.3818C12.4642 24.3862 12.5955 24.3931 12.728 24.3993C12.8355 24.4043 12.943 24.4081 13.0498 24.4143C13.178 24.4225 13.3048 24.4331 13.4323 24.4431C13.5417 24.4518 13.6511 24.4587 13.7598 24.4687C13.8873 24.4806 14.0123 24.4956 14.1386 24.51C14.2448 24.5218 14.3517 24.5318 14.4561 24.545C14.5805 24.5606 14.7017 24.58 14.8242 24.5981C14.928 24.6131 15.0336 24.6268 15.1355 24.6437C15.253 24.6631 15.3667 24.6862 15.4817 24.7075C15.5842 24.7268 15.6886 24.7437 15.7886 24.765C15.9017 24.7887 16.0098 24.8156 16.1205 24.8412C16.2167 24.8637 16.3155 24.8843 16.4092 24.9087C16.5167 24.9362 16.618 24.9675 16.7211 24.9975C16.8117 25.0237 16.9048 25.0475 16.9923 25.0756C17.0936 25.1081 17.1873 25.1437 17.2842 25.1781C17.3661 25.2075 17.4517 25.2343 17.5298 25.265C17.6248 25.3025 17.7111 25.3431 17.8005 25.3831C17.8723 25.415 17.9486 25.445 18.0173 25.4787C18.1023 25.5206 18.178 25.5662 18.2567 25.61C18.3198 25.6456 18.388 25.6787 18.4473 25.7156C18.523 25.7625 18.5873 25.8137 18.6555 25.8637C18.7073 25.9018 18.7655 25.9375 18.8136 25.9768C18.8773 26.0293 18.928 26.0856 18.9836 26.1406C19.0248 26.1812 19.0723 26.22 19.1092 26.2625C19.1617 26.3225 19.1998 26.3868 19.2423 26.45C19.2698 26.4906 19.3048 26.5293 19.328 26.5718C19.368 26.6437 19.3917 26.7193 19.4192 26.795C19.433 26.8325 19.4542 26.8681 19.4648 26.9068C19.4955 27.0225 19.5117 27.1425 19.5117 27.2662V34.4331C20.7211 34.715 22.013 34.8581 23.3605 34.8581C30.4886 34.8581 35.0948 31.0393 35.0948 25.1287C35.0948 18.3806 29.6798 10.1375 23.3605 10.1375C17.3105 10.1375 12.033 17.8056 11.6523 24.37ZM31.468 18.1193C31.7773 17.965 32.1517 18.0918 32.3061 18.4006C32.3698 18.5293 32.4317 18.6581 32.493 18.7881C32.6386 19.1006 32.5042 19.4731 32.1911 19.6193C32.1055 19.6587 32.0155 19.6781 31.9267 19.6781C31.6917 19.6781 31.4661 19.545 31.3598 19.3175C31.3036 19.1968 31.2461 19.0768 31.1867 18.9575C31.033 18.6487 31.1592 18.2731 31.468 18.1193ZM29.3242 31.1731C31.6161 29.8931 32.778 27.86 32.778 25.1312C32.778 24.0731 32.6086 22.94 32.2755 21.7637C32.1811 21.4312 32.3742 21.0862 32.7061 20.9918C33.0398 20.8987 33.3842 21.0906 33.478 21.4225C33.843 22.7106 34.028 23.9581 34.028 25.1312C34.028 28.3018 32.6123 30.7687 29.9342 32.2649C29.838 32.3187 29.733 32.3443 29.6298 32.3443C29.4105 32.3443 29.198 32.2287 29.0836 32.0243C28.9148 31.7231 29.023 31.3418 29.3242 31.1731ZM25.183 23.8606H22.5417C21.4405 23.8606 20.5442 22.9643 20.5442 21.8631V21.1006C20.5442 19.9993 21.4405 19.1031 22.5417 19.1031H23.2361V18.3725C23.2361 18.0275 23.5161 17.7475 23.8611 17.7475C24.2061 17.7475 24.4861 18.0275 24.4861 18.3725V19.1031H25.183C26.2842 19.1031 27.1805 19.9993 27.1805 21.1006C27.1805 21.4456 26.9005 21.7256 26.5555 21.7256C26.2105 21.7256 25.9305 21.4456 25.9305 21.1006C25.9305 20.6887 25.5948 20.3531 25.183 20.3531H23.878C23.8723 20.3531 23.8673 20.3562 23.8611 20.3562C23.8548 20.3562 23.8505 20.3531 23.8442 20.3531H22.5417C22.1298 20.3531 21.7942 20.6887 21.7942 21.1006V21.8631C21.7942 22.275 22.1298 22.6106 22.5417 22.6106H25.183C26.2842 22.6106 27.1805 23.5068 27.1805 24.6081V25.37C27.1805 26.4712 26.2842 27.3675 25.183 27.3675H24.4861V28.1056C24.4861 28.4506 24.2061 28.7306 23.8611 28.7306C23.5161 28.7306 23.2361 28.4506 23.2361 28.1056V27.3675H22.5417C21.4405 27.3675 20.5442 26.4712 20.5442 25.37C20.5442 25.025 20.8242 24.745 21.1692 24.745C21.5142 24.745 21.7942 25.025 21.7942 25.37C21.7942 25.7818 22.1298 26.1175 22.5417 26.1175H25.183C25.5948 26.1175 25.9305 25.7818 25.9305 25.37V24.6081C25.9305 24.1962 25.5948 23.8606 25.183 23.8606Z" fill="#5A5BB5"/>
<path d="M11.0463 25.63C6.78688 25.7288 4.90625 26.8544 4.90625 27.2663C4.90625 27.5169 5.89812 28.3688 8.93625 28.7494C9.79375 28.855 10.7075 28.9231 11.6206 28.9069C11.7137 28.9069 11.8075 28.9069 11.8962 28.9019C12.7406 28.8894 13.5181 28.8388 14.2331 28.7494C14.4088 28.7275 14.5787 28.7038 14.7419 28.6781C14.7881 28.6713 14.8306 28.6631 14.8756 28.6556C14.99 28.6369 15.105 28.6181 15.2131 28.5981C15.4556 28.5531 15.6781 28.5038 15.89 28.4531C15.9425 28.4406 15.9988 28.4281 16.0494 28.4156C16.0844 28.4069 16.115 28.3975 16.1488 28.3881C16.2388 28.3644 16.3294 28.3406 16.4138 28.3156C16.4794 28.2963 16.5388 28.2769 16.6 28.2575C16.6475 28.2425 16.6975 28.2281 16.7431 28.2125C16.8094 28.1906 16.8688 28.1681 16.9306 28.1456C16.9663 28.1325 17.005 28.12 17.0394 28.1069C17.0875 28.0888 17.13 28.07 17.175 28.0519C17.2175 28.0344 17.2625 28.0175 17.3025 28C17.3387 27.9844 17.37 27.9688 17.4044 27.9525C17.4475 27.9325 17.4925 27.9131 17.5319 27.8931C17.5669 27.8756 17.5969 27.8588 17.6294 27.8413C17.6625 27.8238 17.6981 27.8056 17.7288 27.7881C17.7581 27.7713 17.7825 27.755 17.8094 27.7381C17.8375 27.7206 17.8688 27.7031 17.8938 27.6856C17.9106 27.6744 17.9237 27.6631 17.94 27.6519C17.9706 27.63 18.0019 27.6081 18.0281 27.5875C18.0381 27.5794 18.045 27.5719 18.0544 27.5644C18.0819 27.5413 18.1094 27.5175 18.1313 27.4956C18.1419 27.4844 18.1488 27.4744 18.1588 27.4638C18.175 27.4456 18.1925 27.4269 18.205 27.41C18.2119 27.4 18.2156 27.3913 18.2213 27.3813C18.2313 27.365 18.2425 27.3481 18.2487 27.3331C18.2531 27.3225 18.2531 27.3131 18.255 27.3031C18.2581 27.2906 18.2631 27.2769 18.2631 27.2656C18.2631 26.7731 15.9919 25.6194 11.5875 25.6194C11.4019 25.6194 11.2244 25.6194 11.0456 25.63H11.0463Z" fill="#5A5BB5"/>
<path d="M4.90625 31.4724C4.90625 31.8018 6.12375 32.6036 8.93812 32.9618C10.6306 33.1705 12.5519 33.1699 14.235 32.9618C14.6038 32.9161 14.9519 32.8605 15.2706 32.7955L15.6025 32.7268C15.6938 32.7086 15.7762 32.6893 15.8569 32.6711L15.9663 32.6468C15.9806 32.6424 15.9944 32.638 16.0094 32.6343C16.1356 32.6024 16.2619 32.5711 16.3775 32.5343L16.7469 32.4211C17.07 32.3149 17.3725 32.1874 17.6313 32.0474C17.7544 31.9786 17.87 31.9074 17.9662 31.8361C18.0256 31.7911 18.0838 31.7424 18.13 31.6924L18.1844 31.6318C18.215 31.5949 18.2306 31.5699 18.2506 31.5299L18.26 28.9261C18.2331 28.9411 18.2025 28.953 18.175 28.9674C18.0681 29.0236 17.9594 29.0774 17.8456 29.128C17.7938 29.1511 17.7413 29.1724 17.6881 29.1949C17.5863 29.2368 17.4838 29.2774 17.3788 29.3155C17.3231 29.3361 17.2675 29.3561 17.2106 29.3755C17.0969 29.4143 16.9819 29.4505 16.8656 29.4855C16.82 29.4993 16.7756 29.5136 16.73 29.5268C16.5694 29.573 16.4081 29.6155 16.2488 29.6543C16.2206 29.6611 16.1938 29.6668 16.1656 29.673C16.0319 29.7049 15.9 29.7343 15.77 29.7611C15.7163 29.7724 15.6644 29.7824 15.6119 29.7924C15.5081 29.813 15.4069 29.8318 15.3081 29.8499C15.255 29.8593 15.2038 29.868 15.1525 29.8768C15.0531 29.8936 14.9587 29.9086 14.8669 29.9224C14.8263 29.9286 14.785 29.9355 14.7456 29.9411C14.6194 29.9593 14.5 29.9755 14.3919 29.9893C13.6313 30.0843 12.8069 30.1386 11.9413 30.1505C11.845 30.1561 11.7175 30.1561 11.5906 30.1561C10.6275 30.1561 9.68313 30.0999 8.785 29.9893C8.67625 29.9755 8.55563 29.9593 8.42875 29.9405C8.39188 29.9349 8.3525 29.9286 8.31437 29.923C8.21937 29.9086 8.1225 29.893 8.02063 29.8761C7.97063 29.868 7.92125 29.8593 7.87 29.8499C7.76875 29.8318 7.665 29.8124 7.55875 29.7911C7.5075 29.7811 7.4575 29.7718 7.40563 29.7605C7.2725 29.733 7.1375 29.7024 7.00063 29.6699C6.975 29.6636 6.95062 29.6586 6.925 29.6524C6.765 29.6136 6.60438 29.5705 6.44313 29.5243C6.39625 29.5111 6.35063 29.4961 6.30437 29.4818C6.18938 29.4474 6.075 29.4111 5.96187 29.3724C5.905 29.353 5.84875 29.3324 5.7925 29.3118C5.68812 29.2736 5.58563 29.2336 5.485 29.1911C5.43125 29.1686 5.3775 29.1468 5.325 29.1236C5.21187 29.073 5.10312 29.0193 4.99687 28.9636C4.96875 28.9486 4.93688 28.9361 4.90938 28.9211V31.4718L4.90625 31.4724Z" fill="#5A5BB5"/>
<path d="M23.4062 8.88875L29.4488 3.39563C27.1306 2.925 21.8444 2.03625 18.0781 2.7975L23.1094 8.89688C23.1937 8.89438 23.2775 8.88688 23.3625 8.88688C23.3769 8.88688 23.3919 8.88875 23.4062 8.88875Z" fill="#5A5BB5"/>
<path d="M4.90687 35.6856C4.90687 36.1762 7.18 37.3263 11.5887 37.3263C15.9975 37.3263 18.2644 36.1762 18.2644 35.6856V33.125C18.2537 33.1306 18.2425 33.1369 18.2319 33.1431C17.9019 33.3225 17.5294 33.4794 17.1206 33.6138L16.7387 33.7313C16.6281 33.7669 16.4919 33.8019 16.3544 33.8363C16.3306 33.8444 16.3069 33.8513 16.2825 33.8569C16.2581 33.8625 16.1369 33.89 16.1369 33.89C16.0456 33.9112 15.9513 33.9325 15.855 33.9519L15.5187 34.0212C15.1706 34.0919 14.7894 34.1531 14.3887 34.2031C13.4962 34.3137 12.5544 34.37 11.5894 34.37C10.6244 34.37 9.68187 34.3137 8.78375 34.2031C8.67562 34.1894 8.555 34.1725 8.42875 34.1537C8.39 34.1481 8.34938 34.1413 8.30875 34.135C8.21563 34.1206 8.12062 34.1056 8.02062 34.0881C7.96937 34.0794 7.91813 34.07 7.865 34.0606C7.76563 34.0425 7.66375 34.0231 7.55937 34.0025C7.50688 33.9919 7.45563 33.9819 7.40188 33.9706C7.26875 33.9425 7.13375 33.9119 6.99688 33.8794C6.97188 33.8731 6.9475 33.8681 6.9225 33.8625C6.7625 33.8231 6.60125 33.78 6.44062 33.7337C6.39437 33.7206 6.34937 33.7056 6.30312 33.6912C6.18687 33.6562 6.07188 33.6194 5.9575 33.58C5.90188 33.5606 5.8475 33.5406 5.79187 33.5206C5.685 33.4819 5.58125 33.4406 5.47812 33.3975C5.42625 33.3756 5.37438 33.355 5.32375 33.3319C5.20688 33.2794 5.09437 33.2238 4.985 33.1663C4.95937 33.1525 4.93125 33.1413 4.90625 33.1275V35.685L4.90687 35.6856Z" fill="#5A5BB5"/>
</svg>
