<svg width="36" height="36" viewBox="0 0 36 36" fill="none" xmlns="http://www.w3.org/2000/svg">
<path d="M32.9818 24.3728C32.5471 23.7547 31.7591 23.4897 31.0391 23.7275L24.3554 26.1932C24.3554 26.1932 24.3486 26.1932 24.3486 26.2C23.9614 26.6346 23.3773 26.9064 22.7252 26.9064H17.3795C17.1893 26.9064 17.0399 26.7569 17.0399 26.5667C17.0399 26.3833 17.1893 26.2271 17.3795 26.2271H22.7252C23.1599 26.2271 23.5471 26.0505 23.8119 25.7788C23.8663 25.6226 23.8935 25.4596 23.8935 25.283C23.8935 24.3863 23.1667 23.6595 22.2701 23.6595H18.6225C18.1878 23.6595 17.7599 23.5305 17.3863 23.2996L14.5606 21.486C14.1939 21.255 13.7659 21.126 13.3244 21.126H7.91763C8.00594 21.4045 8.05349 21.7101 8.05349 22.0226V28.4279C8.05349 28.7946 7.98554 29.1411 7.86328 29.4671L15.4708 31.8241C17.7123 32.5169 20.1237 32.3675 22.2565 31.4166L32.2754 26.9267C32.9274 26.6346 33.2942 26.003 33.2942 25.3577C33.2942 25.018 33.1923 24.6784 32.9818 24.3728Z" fill="white"/>
<path d="M5.0516 19.6812C3.75674 19.6812 2.70703 20.7308 2.70703 22.0257V28.4248C2.70703 29.7196 3.7567 30.7693 5.05156 30.7693C6.34641 30.7693 7.39612 29.7196 7.39612 28.4248V22.0257C7.39612 20.7308 6.34645 19.6812 5.0516 19.6812ZM6.16868 28.7417C6.16868 28.9294 6.01678 29.0813 5.82906 29.0813C5.64133 29.0813 5.48943 28.9294 5.48943 28.7417V28.0405C5.48943 27.8528 5.64133 27.7009 5.82906 27.7009C6.01678 27.7009 6.16868 27.8528 6.16868 28.0405V28.7417Z" fill="white"/>
<path d="M22.9635 21.7783C26.8848 21.7783 30.0637 18.5994 30.0637 14.6781C30.0637 10.7567 26.8848 7.57788 22.9635 7.57788C19.0421 7.57788 15.8633 10.7567 15.8633 14.6781C15.8633 18.5994 19.0421 21.7783 22.9635 21.7783ZM26.7449 14.3382H27.3711C27.5588 14.3382 27.7107 14.4901 27.7107 14.6778C27.7107 14.8655 27.5588 15.0174 27.3711 15.0174H26.7449C26.5572 15.0174 26.4053 14.8655 26.4053 14.6778C26.4053 14.4901 26.5572 14.3382 26.7449 14.3382ZM22.624 11.1793V10.8372C22.624 10.6495 22.7759 10.4975 22.9636 10.4975C23.1513 10.4975 23.3032 10.6495 23.3032 10.8372V11.1793C24.2088 11.3408 24.8998 12.1296 24.8998 13.0812C24.8998 13.2689 24.7479 13.4208 24.5602 13.4208C24.3725 13.4208 24.2206 13.2689 24.2206 13.0812C24.2206 12.388 23.6568 11.8242 22.9636 11.8242C22.2704 11.8242 21.7066 12.388 21.7066 13.0812C21.7066 13.7744 22.2704 14.3382 22.9636 14.3382C22.9692 14.3382 22.9752 14.3382 22.9808 14.3389C24.0236 14.3475 24.879 15.1879 24.8995 16.2373C24.9181 17.2009 24.2234 18.0093 23.3032 18.1741V18.5191C23.3032 18.7069 23.1513 18.8588 22.9636 18.8588C22.7759 18.8588 22.624 18.7069 22.624 18.5191V18.1784C22.2491 18.1124 21.9016 17.9399 21.621 17.6701C21.2486 17.3112 21.0376 16.829 21.0277 16.3123C21.024 16.1245 21.1733 15.97 21.3607 15.966H21.3673C21.552 15.966 21.7033 16.1139 21.7069 16.299C21.7132 16.6346 21.8502 16.9477 22.092 17.1806C22.3341 17.4134 22.6558 17.5208 22.9878 17.5315C23.6807 17.5182 24.2335 16.9431 24.2203 16.2506C24.207 15.5574 23.6312 14.9869 22.9391 15.0181C22.9218 15.0181 22.9105 15.0174 22.8973 15.0161C21.8602 14.981 21.0274 14.1266 21.0274 13.0812C21.0274 12.1296 21.7184 11.3408 22.624 11.1793ZM18.5558 14.3382H19.182C19.3697 14.3382 19.5216 14.4901 19.5216 14.6778C19.5216 14.8655 19.3697 15.0174 19.182 15.0174H18.5558C18.3681 15.0174 18.2162 14.8655 18.2162 14.6778C18.2162 14.4901 18.3681 14.3382 18.5558 14.3382Z" fill="white"/>
<path d="M11.9612 17.834C12.0276 17.9003 12.1145 17.9335 12.2014 17.9335C12.2883 17.9335 12.3751 17.9003 12.4415 17.834L13.9399 16.3355C14.0726 16.2029 14.0726 15.988 13.9399 15.8553C13.8073 15.7226 13.5923 15.7226 13.4597 15.8553L12.541 16.774V12.4995C12.541 12.3118 12.3891 12.1599 12.2014 12.1599C12.0136 12.1599 11.8617 12.3118 11.8617 12.4995V16.774L10.943 15.8553C10.8104 15.7226 10.5954 15.7226 10.4628 15.8553C10.3301 15.988 10.3301 16.2029 10.4628 16.3355L11.9612 17.834Z" fill="white"/>
<path d="M14.469 9.41969C14.5354 9.48602 14.6223 9.51919 14.7092 9.51919C14.7961 9.51919 14.883 9.48602 14.9493 9.41969L16.4477 7.92124C16.5804 7.78857 16.5804 7.57366 16.4477 7.44099C16.3151 7.30833 16.1002 7.30833 15.9675 7.44099L15.0488 8.3597V4.08523C15.0488 3.89751 14.8969 3.74561 14.7092 3.74561C14.5214 3.74561 14.3695 3.89751 14.3695 4.08523V8.3597L13.4508 7.44099C13.3182 7.30833 13.1033 7.30833 12.9706 7.44099C12.8379 7.57366 12.8379 7.78857 12.9706 7.92124L14.469 9.41969Z" fill="white"/>
</svg>
