<svg width="280" height="274" viewBox="0 0 280 274" fill="none" xmlns="http://www.w3.org/2000/svg">
<g clip-path="url(#clip0_3786_19034)">
<g opacity="0.1">
<path d="M25.3115 274C28.4334 267.939 0.478592 219.643 0.0302833 207.444C-1.3172 170.831 42.7323 170.539 46.5827 140.638C50.0334 113.841 5.18028 81.4936 32.9208 56.1485C56.67 34.4489 83.1185 43.4849 110.845 36.0081C127.381 31.5496 128.648 16.2365 141.712 7.51716C170.025 -11.3789 231.832 8.09394 247.974 35.5169C263.457 61.8196 229.709 84.9877 238.36 110.182C245.316 130.442 267.457 140.43 268.72 163.725C269.725 182.265 251.007 194.898 253.54 213.338C256.968 238.301 301.693 244.638 266.696 273.758" fill="url(#paint0_linear_3786_19034)"/>
<path d="M25.3115 274C28.4334 267.939 0.478592 219.643 0.0302833 207.444C-1.3172 170.831 42.7323 170.539 46.5827 140.638C50.0334 113.841 5.18028 81.4936 32.9208 56.1485C56.67 34.4489 83.1185 43.4849 110.845 36.0081C127.381 31.5496 128.648 16.2365 141.712 7.51716C170.025 -11.3789 231.832 8.09394 247.974 35.5169C263.457 61.8196 229.709 84.9877 238.36 110.182C245.316 130.442 267.457 140.43 268.72 163.725C269.725 182.265 251.007 194.898 253.54 213.338C256.968 238.301 301.693 244.638 266.696 273.758" fill="url(#paint1_linear_3786_19034)" fill-opacity="0.28"/>
</g>
<g clip-path="url(#clip1_3786_19034)">
<path d="M49.2028 203.435C49.2028 203.435 44.2164 201.681 41.6757 208.73C40.8393 211.05 39.5335 218.592 39.0749 221.806C37.223 234.787 39.9435 255.491 39.9435 255.491H42.7811C42.7811 255.491 38.8464 234.752 39.9814 221.753C40.3592 217.431 41.3887 211.493 42.3191 208.73C44.3682 202.648 49.2028 203.435 49.2028 203.435Z" fill="#7BBE70"/>
<path d="M47.446 203.412C47.8502 203.441 47.2298 203.318 46.7258 202.654C44.3551 199.535 46.4132 195.718 49.8307 194.775C50.4156 194.614 51.2149 194.562 52.1404 194.629C52.2047 194.634 51.2561 195.674 50.7463 196.819C50.0798 198.319 49.7969 200.018 49.7969 200.018C49.7969 200.018 50.5772 198.324 51.5358 197.012C52.4943 195.699 53.5881 194.762 53.631 194.768C55.2411 194.98 56.3836 195.453 58.1612 196.346C58.2842 196.408 58.1563 196.831 58.1563 196.831C58.1563 196.831 58.9152 196.75 59.1057 196.862C59.99 197.387 60.8281 198.008 61.568 198.73C65.6256 202.692 67.287 209.107 67.287 209.107C67.287 209.107 63.867 205.446 58.9589 205.989C58.2627 206.066 57.7843 206.031 57.2126 206.287C57.1598 206.31 55.5101 206.109 54.2282 205.524C52.9471 204.938 51.9424 204.163 51.9424 204.163C51.9424 204.163 52.8721 205.437 53.9032 206.125C54.9343 206.813 56.1032 206.894 56.066 206.915C53.6813 208.231 52.6221 210.583 50.1582 211.248C50.0493 211.278 49.1667 210.856 49.1667 210.856C49.1667 210.856 49.5989 211.366 49.4834 211.38C48.9275 211.448 48.3228 211.423 47.653 211.278C42.7515 210.219 43.8907 203.147 47.446 203.412Z" fill="#85C67A"/>
<path d="M47.5729 203.411L47.2462 203.168C47.1992 203.198 48.4258 203.573 49.7407 202.671C52.1485 201.016 55.5883 199.137 58.3418 200.169C62.6741 201.794 67.2868 209.108 67.2868 209.108C67.2868 209.108 63.0807 202.073 58.0398 200.716C52.999 199.361 49.2795 205.068 47.1777 203.406L47.5729 203.411Z" fill="#C3EDBC"/>
<path d="M49.2029 203.435C48.5471 203.655 48.1082 205.675 49.0222 207.214C49.9362 208.753 52.8604 209.592 52.8604 209.592C52.8604 209.592 50.083 208.562 49.3299 206.945C48.5768 205.328 49.2012 203.869 49.664 203.22L49.2029 203.435Z" fill="#C3EDBC"/>
<path d="M52.3374 201.083C52.3374 201.083 52.4991 198.398 53.5805 197.037C54.6628 195.675 56.6656 195.636 56.6656 195.636C56.6656 195.636 54.8484 195.942 53.9195 197.239C52.9907 198.535 52.9503 200.82 52.9503 200.82L52.3374 201.083Z" fill="#C3EDBC"/>
<path d="M61.6472 213.36L56.7911 210.896C56.7911 210.896 47.6357 205.436 43.7447 216.293C39.8546 227.15 41.2404 255.491 41.2404 255.491H43.0914C43.0914 255.491 41.6528 227.845 44.8097 217.034C47.9665 206.224 56.0364 211.397 56.0364 211.397L61.6472 213.36Z" fill="#72B068"/>
<path d="M55.0545 212.341C54.2585 212.785 50.0269 217.143 51.2898 219.985C53.0476 223.94 55.6221 221.368 55.6221 221.368C55.6221 221.368 55.7582 223.353 57.1027 223.625C58.6659 223.94 59.0264 223.068 61.6487 223.311L55.0545 212.341Z" fill="#5B9651"/>
<path d="M59.1928 209.621C63.8229 207.712 67.0457 208.925 70.2224 212.746C70.4105 212.973 67.6405 213.436 67.6405 213.436C67.6405 213.436 71.1009 213.867 71.2576 214.083C71.5373 214.468 71.8177 214.873 72.0998 215.297C75.9422 221.072 76.0321 227.831 75.8687 232.324C75.8663 232.388 72.0767 230.709 67.7279 228.34C67.4178 228.172 66.6886 224.12 66.6886 224.12C66.6886 224.12 66.0617 227.414 65.6962 227.205C64.006 226.233 62.3076 225.186 60.7766 224.12C59.8684 223.488 60.2239 220.762 58.5139 218.881C56.804 216.999 54.6617 218.017 53.9358 216.593C52.2069 213.201 57.0745 210.494 59.1928 209.621Z" fill="#85C67A"/>
<path d="M57.2141 210.615C57.2141 210.615 62.1221 212.759 66.7861 218.186C71.45 223.614 75.8689 232.324 75.8689 232.324C75.8689 232.324 71.0689 223.878 66.1113 218.646C61.1529 213.414 56.0361 211.397 56.0361 211.397L57.2141 210.615Z" fill="#C3EDBC"/>
<path d="M63.0924 215.828C63.0924 215.828 61.9829 216.394 61.0021 218.163C60.0222 219.932 60.1797 222.949 60.1797 222.949C60.1797 222.949 60.1764 219.993 61.3461 218.386C62.5166 216.779 63.8497 216.473 63.8497 216.473L63.0924 215.828Z" fill="#C3EDBC"/>
<path d="M67.4912 219.033L68.053 219.745C68.053 219.745 68.5 219.009 69.9048 218.608C71.3104 218.207 73.6746 218.141 73.6746 218.141C73.6746 218.141 71.3525 217.886 69.8067 218.109C68.2608 218.332 67.4912 219.033 67.4912 219.033Z" fill="#C3EDBC"/>
<path d="M69.8637 223.173L70.4163 223.923C70.4163 223.923 69.5683 224.246 68.8969 225.35C68.2246 226.455 67.728 228.34 67.728 228.34C67.728 228.34 67.9103 226.468 68.444 225.176C68.9786 223.885 69.8637 223.173 69.8637 223.173Z" fill="#C3EDBC"/>
<path d="M29.9399 214.102C29.9399 214.102 32.3808 215.657 35.032 218.53C38.2441 222.012 42.0922 226.966 43.4037 231.848C45.7976 240.759 44.2798 255.492 44.2798 255.492H41.6558C41.6558 255.492 44.0018 241.27 42.305 232.326C41.377 227.436 37.8333 222.35 34.8125 218.745C32.309 215.757 29.9399 214.102 29.9399 214.102Z" fill="#81C476"/>
<path d="M25.0138 212.062C31.4875 213.9 35.8635 218.157 35.117 220.245C34.2987 222.534 32.0765 224.223 29.9573 225.227C25.1615 227.497 24.4529 224.447 23.4061 220.971C23.3228 220.694 23.8763 219.979 23.8763 219.979C23.8763 219.979 23.0473 219.827 22.9953 219.674C22.8963 219.386 22.6225 218.768 22.5094 218.485C22.4393 218.309 23.3236 218.5 23.3236 218.5C23.3236 218.5 22.3156 217.981 22.2389 217.829C21.5699 216.502 20.6262 215.345 19.1183 214.684C18.1252 214.248 17.1691 213.912 16.2684 213.652C16.0663 213.593 15.9351 213.093 15.9351 213.093C15.9351 213.093 15.4847 213.441 15.3931 213.418C11.7521 212.528 9.22217 212.893 9.22217 212.893C9.22217 212.893 18.5401 210.224 25.0138 212.062Z" fill="#85C67A"/>
<path d="M15.3511 213.412C15.4839 213.45 16.0027 212.934 16.0027 212.934C16.0027 212.934 16.1199 213.608 16.2684 213.653C17.6385 214.06 19.1753 214.556 20.2113 215.315C21.4181 216.198 21.9543 217.306 21.9543 217.306C21.9543 217.306 18.5723 215.185 15.7751 214.504C12.9771 213.822 9.22217 212.894 9.22217 212.894C9.22217 212.894 12.0334 212.481 15.3511 213.412Z" fill="#5B9651"/>
<path d="M17.8233 211.473C14.3126 211.68 11.1607 212.398 9.86312 212.725C9.86312 212.725 9.21806 212.894 9.22219 212.894C9.39541 212.855 19.7807 210.543 25.9938 212.698C32.2374 214.865 35.1748 219.67 35.1954 219.704C35.1451 217.491 30.9687 213.752 25.0138 212.062C22.7883 211.43 20.227 211.331 17.8233 211.473Z" fill="#C3EDBC"/>
<path d="M32.7895 216.074C33.0188 217.582 32.7367 219.177 31.8738 220.576C30.2356 223.233 27.0359 224.331 24.1958 223.419C24.1966 223.42 24.1966 223.421 24.1966 223.422C24.242 223.538 24.2915 223.646 24.3393 223.757C27.2537 224.857 30.6291 223.777 32.3275 221.023C33.1986 219.611 33.4783 218 33.2366 216.48C33.0939 216.345 32.9462 216.209 32.7895 216.074Z" fill="#C3EDBC"/>
<path d="M27.0802 212.757C27.4563 213.846 27.4778 215.065 27.0505 216.23C26.3757 218.073 24.7647 219.299 22.9541 219.569C22.9673 219.603 22.9854 219.646 22.9945 219.675C22.9995 219.688 23.0118 219.701 23.0259 219.714C23.03 219.717 23.0349 219.721 23.0399 219.725C23.0481 219.731 23.0589 219.737 23.0688 219.743C23.0861 219.753 23.1059 219.763 23.1273 219.773C23.1809 219.797 23.2436 219.821 23.3146 219.843C23.3162 219.843 23.3179 219.845 23.3195 219.845C25.1499 219.592 26.7841 218.36 27.4654 216.5C27.9084 215.291 27.8713 214.023 27.453 212.905C27.3301 212.854 27.2056 212.806 27.0802 212.757Z" fill="#C3EDBC"/>
<path d="M19.8764 211.417C19.8533 211.51 19.831 211.601 19.8013 211.693C19.4697 212.745 18.832 213.615 18.0195 214.239C18.1845 214.301 18.3511 214.365 18.5186 214.433H18.5202C19.2981 213.814 19.9069 212.964 20.2286 211.944C20.283 211.772 20.3267 211.599 20.3622 211.425C20.2005 211.421 20.0389 211.419 19.8764 211.417Z" fill="#C3EDBC"/>
<path d="M34.1074 249.796V260.245C34.1074 264.653 37.6734 268.226 42.0717 268.226C46.47 268.226 50.0368 264.653 50.0368 260.245V249.796H34.1074Z" fill="#C1C1C1"/>
<path d="M49.5147 269.495C48.618 268.765 45.509 268.226 41.811 268.226C38.1131 268.226 35.0041 268.765 34.1074 269.495H49.5147Z" fill="#C1C1C1"/>
<path d="M34.1074 254.208V258.702H50.0368V254.208H34.1074Z" fill="#303030"/>
<path d="M34.853 256.442L35.8924 254.191L36.9317 256.442L35.8924 258.694L34.853 256.442Z" fill="#5E5E5E"/>
<path d="M34.1074 254.827V258.056L34.8531 256.442L34.1074 254.827Z" fill="#5E5E5E"/>
<path d="M36.9316 256.451L37.971 254.2L39.0104 256.451L37.971 258.702L36.9316 256.451Z" fill="#5E5E5E"/>
<path d="M39.0107 256.451L40.0501 254.2L41.0895 256.451L40.0501 258.702L39.0107 256.451Z" fill="#5E5E5E"/>
<path d="M41.0894 256.451L42.1287 254.2L43.1681 256.451L42.1287 258.702L41.0894 256.451Z" fill="#5E5E5E"/>
<path d="M43.168 256.442L44.2073 254.191L45.2467 256.442L44.2073 258.694L43.168 256.442Z" fill="#5E5E5E"/>
<path d="M45.2466 256.451L46.2859 254.2L47.3253 256.451L46.2859 258.702L45.2466 256.451Z" fill="#5E5E5E"/>
<path d="M47.3252 256.451L48.3646 254.2L49.4039 256.451L48.3646 258.702L47.3252 256.451Z" fill="#5E5E5E"/>
<path d="M50.0367 254.827L49.3455 256.324L49.291 256.442L49.3488 256.568L50.0367 258.056V254.827Z" fill="#5E5E5E"/>
<path d="M33.3335 249.118H50.9226V249.795C50.9226 250.169 50.6206 250.472 50.2478 250.472H34.0091C33.6362 250.472 33.3335 250.169 33.3335 249.795V249.118Z" fill="#8B8B8B"/>
<path d="M33.0161 270.849H50.606V270.173C50.606 269.799 50.3033 269.496 49.9304 269.496H33.6917C33.3188 269.496 33.0161 269.799 33.0161 270.173V270.849Z" fill="#8B8B8B"/>
<path d="M38.2772 267.76H45.3449C45.6022 267.76 45.8101 267.968 45.8101 268.226C45.8101 268.484 45.6022 268.692 45.3449 268.692H38.2772C38.0199 268.692 37.812 268.483 37.812 268.226C37.812 267.969 38.0199 267.76 38.2772 267.76Z" fill="#8B8B8B"/>
</g>
<path d="M176.201 87.8226C165.536 86.891 156.137 94.7999 155.208 105.488C154.976 108.146 155.292 110.725 156.058 113.115L150.29 126.771L163.737 123.321C166.365 125.086 169.461 126.232 172.835 126.527C183.5 127.459 192.899 119.55 193.829 108.861C194.758 98.1732 186.866 88.7542 176.201 87.8226Z" fill="#5A5BB5"/>
<path d="M158.684 91.8403C158.684 91.8403 167.766 82.2685 179.561 85.5931" stroke="#5A5BB5" stroke-width="0.426961" stroke-miterlimit="10" stroke-linecap="round"/>
<path d="M181.888 86.4336C181.888 86.4336 183.84 87.1004 184.571 87.9219" stroke="#5A5BB5" stroke-width="0.426961" stroke-miterlimit="10" stroke-linecap="round"/>
<path d="M163.795 101.753L163.044 99.1785L169.572 97.2686L170.323 99.8432L171.984 112.077L168.962 112.961L163.795 101.753ZM167.993 115.151L173.977 113.4L175.477 118.548L169.493 120.299L167.993 115.151Z" fill="white"/>
<path d="M173.708 98.8538L172.958 96.2791L179.486 94.3691L180.236 96.9438L181.897 109.177L178.875 110.061L173.708 98.8538ZM177.906 112.251L183.89 110.5L185.39 115.648L179.406 117.399L177.906 112.251Z" fill="white"/>
<rect x="32.1929" y="270.849" width="234.06" height="3.17105" rx="1.58552" fill="#548DC2"/>
<g clip-path="url(#clip2_3786_19034)">
<path fill-rule="evenodd" clip-rule="evenodd" d="M192.98 147.805C192.98 147.525 192.869 147.255 192.67 147.058C192.472 146.859 192.203 146.748 191.923 146.748H188.487V169.982H191.923C192.203 169.982 192.472 169.87 192.67 169.672C192.869 169.474 192.98 169.205 192.98 168.925V147.805V147.805Z" fill="#0A3751" stroke="black" stroke-width="0.0204941" stroke-linecap="round" stroke-linejoin="round"/>
<path fill-rule="evenodd" clip-rule="evenodd" d="M192.98 190.134C192.98 189.55 192.506 189.077 191.922 189.077H189.232V208.45H191.922C192.506 208.45 192.98 207.977 192.98 207.393V190.134V190.134Z" fill="#0A3751" stroke="black" stroke-width="0.0204941" stroke-linecap="round" stroke-linejoin="round"/>
<path fill-rule="evenodd" clip-rule="evenodd" d="M190.733 132.639C190.733 131.907 190.442 131.206 189.925 130.689C189.407 130.171 188.706 129.881 187.974 129.881H117.355C116.623 129.881 115.921 130.171 115.404 130.689C114.887 131.206 114.596 131.907 114.596 132.639V267.935C114.596 268.667 114.887 269.368 115.404 269.885C115.921 270.402 116.623 270.693 117.355 270.693H187.974C188.706 270.693 189.408 270.402 189.926 269.885C190.443 269.367 190.734 268.666 190.734 267.935V132.639H190.733Z" fill="#013360"/>
<path fill-rule="evenodd" clip-rule="evenodd" d="M188.003 135.412C188.003 133.889 186.768 132.654 185.244 132.654H120.085C118.562 132.654 117.327 133.889 117.327 135.412V265.161C117.327 266.684 118.562 267.919 120.085 267.919H185.244C186.768 267.919 188.003 266.685 188.003 265.161V135.412H188.003Z" fill="#FBFDFF"/>
<path fill-rule="evenodd" clip-rule="evenodd" d="M152.664 134.303C153.698 134.303 154.538 135.142 154.538 136.175C154.538 137.209 153.698 138.048 152.664 138.048C151.631 138.048 150.791 137.209 150.791 136.175C150.791 135.142 151.631 134.303 152.664 134.303Z" fill="#0A3751" stroke="black" stroke-width="0.0204941" stroke-linecap="round" stroke-linejoin="round"/>
<path fill-rule="evenodd" clip-rule="evenodd" d="M155.325 176.291L181.267 221.283C182.09 222.716 181.596 224.544 180.166 225.366C179.696 225.638 179.183 225.764 178.677 225.764V225.777H126.612C124.955 225.777 123.61 224.432 123.61 222.772C123.61 222.151 123.8 221.572 124.124 221.092L150.054 176.122C150.883 174.69 152.715 174.201 154.144 175.031C154.673 175.337 155.073 175.781 155.325 176.291Z" fill="#5A5BB5"/>
<path fill-rule="evenodd" clip-rule="evenodd" d="M155.325 176.291L181.267 221.283C182.09 222.716 181.596 224.544 180.166 225.366C179.696 225.638 179.183 225.764 178.677 225.764V225.777H126.612C124.955 225.777 123.61 224.432 123.61 222.772C123.61 222.151 123.8 221.572 124.124 221.092L150.054 176.122C150.883 174.69 152.715 174.201 154.144 175.031C154.673 175.337 155.073 175.781 155.325 176.291Z" fill="white" fill-opacity="0.65"/>
<path fill-rule="evenodd" clip-rule="evenodd" d="M152.688 180.896L129.425 221.143H174.135V221.126L175.941 221.128L152.688 180.896Z" fill="white"/>
<path fill-rule="evenodd" clip-rule="evenodd" d="M150.51 193.524H154.764C155.217 193.524 155.614 193.895 155.589 194.342L154.711 210.136C154.686 210.585 154.339 210.955 153.886 210.955H151.39C150.936 210.955 150.589 210.585 150.565 210.136L149.686 194.342C149.661 193.894 150.058 193.524 150.511 193.524H150.51ZM152.638 212.62C154 212.62 155.105 213.713 155.105 215.064C155.105 216.416 154.001 217.509 152.638 217.509C151.274 217.509 150.17 216.414 150.17 215.064C150.17 213.715 151.274 212.62 152.638 212.62Z" fill="#5A5BB5"/>
<path fill-rule="evenodd" clip-rule="evenodd" d="M150.51 193.524H154.764C155.217 193.524 155.614 193.895 155.589 194.342L154.711 210.136C154.686 210.585 154.339 210.955 153.886 210.955H151.39C150.936 210.955 150.589 210.585 150.565 210.136L149.686 194.342C149.661 193.894 150.058 193.524 150.511 193.524H150.51ZM152.638 212.62C154 212.62 155.105 213.713 155.105 215.064C155.105 216.416 154.001 217.509 152.638 217.509C151.274 217.509 150.17 216.414 150.17 215.064C150.17 213.715 151.274 212.62 152.638 212.62Z" fill="white" fill-opacity="0.65"/>
</g>
<path d="M236.903 208.236C239.83 207.561 252.122 210.994 252.122 210.994C252.122 210.994 252.489 227.98 253.586 237.486C255.225 251.68 243.439 267.193 243.439 267.193L199.058 266.749C199.058 266.749 191.367 257.621 201.663 243.72C204.314 240.141 212.388 238.876 216.513 235.028C228.408 223.931 224.168 211.169 236.903 208.238V208.236Z" fill="#6B8EA8"/>
<path d="M213.163 235.633L206.129 234.517L203.504 234.82L201.867 237.306C201.867 237.306 202.087 237.522 202.439 237.347C202.793 237.171 203.57 236.214 203.57 236.214L205.834 235.976L206.495 239.39L212.577 237.72L213.163 235.634V235.633Z" fill="#ECD2B8"/>
<path d="M223.312 235.506L214.647 236.066C214.647 236.066 214.617 236.713 214.619 237.211C214.621 237.709 214.655 238.06 214.655 238.06L222.644 239.796L223.312 235.507V235.506Z" fill="#5A5BB5"/>
<path d="M223.312 235.506L214.647 236.066C214.647 236.066 214.617 236.713 214.619 237.211C214.621 237.709 214.655 238.06 214.655 238.06L222.644 239.796L223.312 235.507V235.506Z" fill="black" fill-opacity="0.2"/>
<path d="M214.646 236.067L213.163 235.634L212.647 237.462L214.655 238.061C214.655 238.061 214.622 237.71 214.619 237.212C214.617 236.714 214.646 236.067 214.646 236.067Z" fill="#5A5BB5"/>
<path d="M214.646 236.067L213.163 235.634L212.647 237.462L214.655 238.061C214.655 238.061 214.622 237.71 214.619 237.212C214.617 236.714 214.646 236.067 214.646 236.067Z" fill="black" fill-opacity="0.5"/>
<path d="M228.391 203.74C228.391 203.74 223.792 202.621 222.54 208.058C222.076 210.074 222.771 212.61 223.748 215.158C225.066 218.593 224.319 221.266 224.319 221.266L228.587 217.855L228.391 203.74Z" fill="#303030"/>
<path d="M223.315 210.651C223.158 207.705 224.452 205.554 226.153 205.669C227.854 205.786 229.072 208.265 228.873 211.207C228.675 214.15 227.964 216.307 226.263 216.192C224.562 216.076 223.479 213.729 223.316 210.651H223.315Z" fill="#F7D2AD"/>
<path d="M226.262 216.191L227.864 216.088L228.114 217.137L227.583 218.604L227.203 220.047L232.476 217.92L232.036 215.443L232.08 211.567L228.744 212.229C228.744 212.229 228.326 213.72 228.006 214.423C227.554 215.413 226.261 216.189 226.261 216.189L226.262 216.191Z" fill="#F7D2AD"/>
<path d="M226.85 216.154L227.865 216.089L228.114 217.138L229.585 213.871C229.585 213.871 228.91 214.919 228.226 215.488C227.542 216.059 226.85 216.154 226.85 216.154Z" fill="#EECAA7"/>
<path d="M191.489 256.75L188.387 262.518L180.247 265.801L180.662 263.912L186.702 255.927L191.489 256.75Z" fill="#DAC2A9"/>
<path d="M189.857 263.79C189.857 263.79 190.656 262.393 190.587 261.6C190.517 260.806 189.58 260.614 189.58 260.614C189.58 260.614 185.646 263.08 183.416 263.905C181.187 264.73 180.662 263.913 180.662 263.913C180.662 263.913 179.354 263.309 178.7 263.422C178.048 263.536 178.049 264.368 178.049 264.368L179.166 265.617L182.477 267.087L186.326 264.546L189.856 263.79H189.857Z" fill="#303030"/>
<path d="M189.799 263.945L187.933 266.197L185.628 269.782L184.953 269.464C184.953 269.464 187.845 264.289 186.78 264.739C185.171 265.42 183.721 268.056 182.554 268.116C181.548 268.167 177.595 266.002 177.595 266.002L178.05 264.368C178.05 264.368 179.781 266.148 181.936 266.138C184.091 266.127 184.329 264.722 186.494 264.089C188.66 263.458 189.799 263.945 189.799 263.945Z" fill="black"/>
<path d="M193.9 257.885L190.798 263.653L182.658 266.934L183.074 265.047L189.113 257.062L193.9 257.885Z" fill="#F7D2AD"/>
<path d="M192.268 264.925C192.268 264.925 193.067 263.529 192.997 262.734C192.928 261.94 191.991 261.748 191.991 261.748C191.991 261.748 188.057 264.213 185.827 265.038C183.598 265.863 183.073 265.047 183.073 265.047C183.073 265.047 181.765 264.443 181.111 264.556C180.459 264.67 180.46 265.502 180.46 265.502L181.577 266.751L184.888 268.221L188.738 265.679L192.268 264.924L192.268 264.925Z" fill="#303030"/>
<path d="M192.211 265.08L190.345 267.332L188.039 270.917L187.365 270.599C187.365 270.599 190.258 265.424 189.191 265.874C187.581 266.554 186.132 269.191 184.966 269.251C183.96 269.302 180.006 267.137 180.006 267.137L180.461 265.503C180.461 265.503 182.192 267.283 184.348 267.273C186.502 267.261 186.739 265.857 188.906 265.224C191.071 264.593 192.211 265.08 192.211 265.08Z" fill="black"/>
<path d="M214.148 240.399C214.148 240.399 200.555 236.78 195.949 238.366C192.825 239.441 185.936 256.94 185.936 256.94L189.84 258.995L198.267 245.888L214.147 240.4L214.148 240.399Z" fill="#201F1F"/>
<path d="M230.418 240.432C230.418 240.432 230.427 256.284 223.203 254.405C211.424 251.34 201.028 245.869 201.028 245.869L193.087 260.325L188.169 258.309C188.169 258.309 192.872 240.538 194.713 238.818C196.534 237.116 215.8 240.694 215.8 240.694L219.664 237.166L230.417 240.432L230.418 240.432Z" fill="#303030"/>
<path d="M233.57 216.25L227.391 217.641L226.851 219.243C226.851 219.243 224.593 220.141 222.241 225.159C221.34 227.082 222.213 230.351 221.666 232.721C220.784 236.536 216.453 240.976 216.453 240.976C216.453 240.976 219.45 241.666 220.697 246.601C221.683 250.501 225.818 255.227 225.818 255.227C225.818 255.227 229.969 246.57 232.996 240.287C236.022 234.004 238.747 232.698 239.073 228.273C239.399 223.85 233.75 217.918 233.75 217.918L233.57 216.251V216.25Z" fill="#5A5BB5"/>
<path d="M234.585 224.091C234.585 224.091 236.352 225.8 235.561 230.469C234.66 235.78 229.957 246.819 226.551 246.839C224.751 246.85 223.283 243.968 223.3 246.859C223.316 249.749 226.143 254.547 226.143 254.547C226.126 254.582 225.816 255.226 225.816 255.226C225.816 255.226 221.683 250.501 220.697 246.6C219.45 241.666 215.583 240.644 215.583 240.644C215.583 240.644 217.083 239.398 217.977 238.291C218.571 237.898 219.145 238.398 219.21 238.306L220.509 237.635C220.509 237.635 223.036 238.172 223.311 237.65C224.382 235.62 224.877 229.346 225.974 227.499C228.227 223.706 231.756 223.409 231.756 223.409L234.585 224.091Z" fill="#5A5BB5"/>
<path d="M234.585 224.091C234.585 224.091 236.352 225.8 235.561 230.469C234.66 235.78 229.957 246.819 226.551 246.839C224.751 246.85 223.283 243.968 223.3 246.859C223.316 249.749 226.143 254.547 226.143 254.547C226.126 254.582 225.816 255.226 225.816 255.226C225.816 255.226 221.683 250.501 220.697 246.6C219.45 241.666 215.583 240.644 215.583 240.644C215.583 240.644 217.083 239.398 217.977 238.291C218.571 237.898 219.145 238.398 219.21 238.306L220.509 237.635C220.509 237.635 223.036 238.172 223.311 237.65C224.382 235.62 224.877 229.346 225.974 227.499C228.227 223.706 231.756 223.409 231.756 223.409L234.585 224.091Z" fill="black" fill-opacity="0.2"/>
<path d="M233.57 216.25L227.39 217.641L227.583 218.605L227.204 220.048L233.749 217.917L233.57 216.25Z" fill="#5A5BB5"/>
<path d="M233.57 216.25L227.39 217.641L227.583 218.605L227.204 220.048L233.749 217.917L233.57 216.25Z" fill="black" fill-opacity="0.2"/>
<path d="M228.391 203.74L226.153 205.669C226.153 205.669 228.537 209.099 228.746 212.231C228.954 215.362 227.396 221.476 227.396 221.476L234.763 217.35C234.763 217.35 237.087 211.67 234.656 206.247C233.12 202.82 228.391 203.74 228.391 203.74H228.391Z" fill="#303030"/>
<path d="M213.426 242.94L200.924 239.508L200.691 238.616L213.398 242.63L213.426 242.94Z" fill="#261E1E"/>
<path d="M213.398 242.63L210.179 240.218L200.761 236.917L200.691 238.617L213.398 242.63Z" fill="#ADADAD"/>
<path d="M206.085 238.783L207.404 240.737L201.978 239.023L200.761 236.917L206.085 238.783Z" fill="#5E5E5E"/>
<path d="M200.043 225.631L201.152 236.735L201.361 239.628L200.924 239.508L199.223 236.665L197.948 224.567L198.341 224.385L200.043 225.631Z" fill="#989696"/>
<path d="M199.651 225.813L200.761 236.917L200.924 239.508L198.831 236.848L197.948 224.567L199.651 225.813Z" fill="#ADADAD"/>
<path d="M214.924 237.677L212.112 237.302L210.814 240.693L213.699 241.655L214.924 237.677Z" fill="#5A5BB5"/>
<path d="M214.924 237.677L212.112 237.302L210.814 240.693L213.699 241.655L214.924 237.677Z" fill="black" fill-opacity="0.5"/>
<path d="M212.112 237.302L207.467 235.834L204.194 236.148L202.577 237.791C202.577 237.791 202.622 238.009 202.771 238.067C202.92 238.125 203.173 238.025 203.173 238.025L202.989 238.774C202.989 238.774 203.204 239.158 203.574 238.918C203.943 238.677 204.469 237.809 204.469 237.809L206.69 237.642L205.155 238.141L203.746 239.112C203.746 239.112 203.755 239.521 204.205 239.444C204.655 239.368 205.547 238.805 205.547 238.805L207.111 238.773L211.044 240.091L212.111 237.303L212.112 237.302Z" fill="#F7D2AD"/>
<path d="M203.065 238.06L203.173 238.025L203.124 238.226L204.365 236.996L205.336 236.809L204.311 236.802L203.065 238.06Z" fill="#FFE1C2"/>
<path d="M228.573 225.756C226.511 229.246 224.059 238.951 224.059 238.951L214.925 237.678L213.405 242.611C213.405 242.611 225.082 245.279 226.554 245.035C227.832 244.824 235.718 232.91 235.948 227.625C236.179 222.34 230.857 221.893 228.574 225.756H228.573Z" fill="#5A5BB5"/>
<path d="M252.123 210.992L249.721 219.115L245.331 223.147C245.331 223.147 235.476 242.112 231.921 245.126C227.332 249.017 221.317 249.463 213.118 250.313C207.827 250.86 202.043 249.093 200.655 248.644C200.451 248.578 200.359 248.596 200.359 248.596H199.53C199.53 248.596 197.555 251.139 197.555 251.141H197.552C194.034 260.776 199.061 266.746 199.061 266.746C199.061 266.746 199.755 266.983 200.969 267.348C202.058 267.674 203.61 268.107 205.406 268.551C205.61 268.601 205.77 268.649 205.981 268.7C208.568 269.324 243.439 267.19 243.439 267.19C243.439 267.19 261.935 254.43 260.61 232.071C259.812 218.596 252.123 210.992 252.123 210.992Z" fill="#B8D1E3"/>
<path d="M252.122 210.992L249.721 219.115C249.721 219.115 251.416 221.663 252.661 225.297C253.747 228.473 254.492 232.474 253.466 236.351C252.965 238.251 252.04 240.116 250.52 241.84C238.648 255.292 234.687 267.478 234.687 267.478L243.439 267.19C243.439 267.19 261.935 254.428 260.609 232.071C259.812 218.596 252.122 210.992 252.122 210.992Z" fill="#A4C1D6"/>
<path d="M206.606 250.039C204.383 249.741 201.538 248.837 200.358 248.596C199.887 248.5 199.529 248.596 199.529 248.596C199.312 248.836 197.539 251.176 197.539 251.176C197.539 251.176 197.094 252.175 196.928 252.547C196.875 252.666 196.853 252.802 196.82 252.925C196.764 253.127 196.717 253.323 196.669 253.52C196.642 253.64 196.613 253.762 196.589 253.88C196.546 254.066 196.508 254.25 196.476 254.434C196.453 254.54 196.436 254.646 196.418 254.754C196.297 255.448 196.221 256.115 196.181 256.755C196.179 256.803 196.174 256.851 196.171 256.899C196.161 257.085 196.156 257.267 196.153 257.451C196.151 257.539 196.148 257.63 196.148 257.718C196.148 257.872 196.148 258.023 196.151 258.174C196.153 258.3 196.158 258.424 196.163 258.55C196.168 258.678 196.174 258.809 196.183 258.938C196.191 259.061 196.203 259.183 196.215 259.306C196.281 260.064 196.396 260.77 196.545 261.423C196.548 261.444 196.553 261.464 196.558 261.482C196.712 262.154 196.9 262.759 197.098 263.309C197.169 263.5 197.239 263.682 197.312 263.858C197.367 263.994 197.423 264.135 197.478 264.261C197.598 264.531 197.719 264.786 197.837 265.012C197.887 265.111 197.935 265.191 197.983 265.282C198.063 265.428 198.144 265.575 198.22 265.7C198.27 265.783 198.315 265.857 198.36 265.93C198.421 266.026 198.478 266.116 198.531 266.194C198.569 266.25 198.604 266.305 198.637 266.351C198.781 266.553 198.904 266.706 198.904 266.706L208.346 267.285C208.346 267.285 207.491 262.043 208.54 258.177C209.591 254.311 212.542 251.824 212.542 251.824L212.622 251.53L212.629 251.502L212.964 250.275C212.964 250.275 211.596 250.348 209.79 250.288H209.732C208.812 250.256 207.79 250.187 206.767 250.059C206.712 250.051 206.656 250.049 206.604 250.041L206.606 250.039Z" fill="#8BA8BE"/>
<path d="M196.302 270.915C196.302 270.556 199.061 266.747 199.061 266.747H221.436C230.489 266.747 243.439 267.19 243.439 267.19L246.161 270.915C246.161 270.915 196.303 271.485 196.303 270.915H196.302Z" fill="#587387"/>
<path d="M89.6802 146.272L89.4159 148.79L88.4194 150.336L95.8895 155.696L96.3841 153.866L98.6817 152.803L95.9957 149.463L89.6802 146.272Z" fill="#F7D2AD"/>
<path d="M89.2688 143.026C89.706 139.299 93.0744 136.63 96.7951 137.067C100.515 137.505 103.175 140.881 102.741 144.609C102.304 148.337 98.9356 151.005 95.2149 150.568C91.4942 150.131 88.8337 146.755 89.2688 143.026Z" fill="#F7D2AD"/>
<path d="M95.7265 146.201C96.1924 142.2 98.2491 139.153 100.319 139.396C101.727 139.562 102.298 141.576 102.678 143.874C102.855 144.95 103.863 145.864 103.715 147.14C103.665 147.556 102.671 148.134 102.624 148.523C102.212 151.857 102.695 153.865 100.841 153.647C98.7712 153.404 95.2585 150.203 95.7265 146.202V146.201Z" fill="#F7D2AD"/>
<path d="M98.6626 152.778L96.3841 153.865L96.0583 155.068L95.6943 149.088L98.6626 152.778Z" fill="#E1BE99"/>
<path d="M97.7266 140.792C97.7266 140.792 97.4029 143.625 97.179 145.694C97.0728 146.685 96.6016 147.357 96.9243 147.728C98.4641 149.51 102.151 152.895 102.151 152.895L101.645 156.489C101.645 156.489 96.8309 151.647 95.4268 148.755C94.0228 145.863 96.2111 146.383 96.0264 144.921C95.8429 143.458 94.6914 142.904 94.6914 142.904L96.503 142.058L97.7255 140.793L97.7266 140.792Z" fill="black"/>
<path d="M88.8271 145.138L89.4564 148.406L89.086 149.303L90.714 149.719L93.7003 148.302L93.5496 147.114C93.5496 147.114 92.1201 145.53 93.8298 144.356C94.7329 143.736 96.1147 144.565 97.2863 144.584C98.8495 144.611 100.376 144.021 102.15 142.776C105.252 140.599 104.854 135.209 104.854 135.209C104.854 135.209 101.747 135.932 98.4876 136.124C96.0022 136.269 93.5486 134.563 90.8053 137.018C87.0792 140.35 88.826 145.136 88.826 145.136L88.8271 145.138Z" fill="black"/>
<path d="M88.633 203.42L86.2962 227.029L64.9185 252.889L67.0622 257.434L71.9046 257.733C71.9046 257.733 94.5219 233.787 95.5088 231.458C96.5913 228.902 105.364 199.643 105.364 199.643L88.633 203.42Z" fill="#002345"/>
<path d="M86.7483 153.056L87.3977 150.669C87.3977 150.669 96.8609 158.504 101.352 170.747C105.843 182.991 105.362 199.644 105.362 199.644C105.362 199.644 103.304 203.6 97.3161 204.552C91.3286 205.504 81.4091 203.45 81.4091 203.45L83.7333 181.273C83.7333 181.273 79.0978 170.068 79.8502 163.013C80.6026 155.959 86.7472 153.057 86.7472 153.057L86.7483 153.056Z" fill="#5A5BB5"/>
<path d="M87.9111 151.116L88.4301 149.972L93.8329 153.103L96.798 155.907L95.0618 155.806L93.4583 157.052L87.9111 151.116Z" fill="#5A5BB5"/>
<path d="M96.3843 153.865L96.3153 154.119L96.0107 155.161L96.7982 155.907L96.761 153.687L96.3843 153.865Z" fill="#5A5BB5"/>
<path d="M90.8001 161.603L95.3857 174.117L101.183 173.169L103.697 180.91C103.697 180.91 94.0189 188.946 89.4672 187.896C87.9125 187.537 85.1405 183.06 85.1405 183.06L81.4102 203.448L83.7344 181.272L79.3472 165.763L90.8001 161.602V161.603Z" fill="#5A5BB5"/>
<path d="M96.7982 155.908C96.7982 155.908 99.0661 160.7 101.162 164.755C103.557 169.391 101.992 175.149 101.992 175.149C101.992 175.149 100.224 167.786 98.0356 163.712C95.8452 159.637 93.4585 157.052 93.4585 157.052L95.061 155.807L96.7972 155.909L96.7982 155.908Z" fill="#DDDDDD"/>
<path d="M96.7983 155.908C96.7983 155.908 104.323 169.505 106.537 180.845C108.391 190.327 106.447 200.725 106.447 200.725L105.363 199.644C105.363 199.644 105.727 191.984 103.616 180.95C103.163 178.58 102.245 173.281 102.245 173.281C102.245 173.281 102.512 169.031 101.447 166.652C98.4263 159.904 96.7983 155.908 96.7983 155.908Z" fill="#5A5BB5"/>
<path d="M96.7983 155.908C96.7983 155.908 104.323 169.505 106.537 180.845C108.391 190.327 106.447 200.725 106.447 200.725L105.363 199.644C105.363 199.644 105.727 191.984 103.616 180.95C103.163 178.58 102.245 173.281 102.245 173.281C102.245 173.281 102.512 169.031 101.447 166.652C98.4263 159.904 96.7983 155.908 96.7983 155.908Z" fill="black" fill-opacity="0.2"/>
<path d="M87.3975 150.669L86.748 153.056L90.9071 156.34L91.8749 156.641L91.6977 157.442C91.6977 157.442 94.943 160.325 98.0259 166.154C101.107 171.982 104.024 180.756 104.024 180.756C104.024 180.756 102.064 171.123 98.0365 163.713C94.007 156.304 87.3986 150.67 87.3986 150.67" fill="#5A5BB5"/>
<path d="M87.3975 150.669L86.748 153.056L90.9071 156.34L91.8749 156.641L91.6977 157.442C91.6977 157.442 94.943 160.325 98.0259 166.154C101.107 171.982 104.024 180.756 104.024 180.756C104.024 180.756 102.064 171.123 98.0365 163.713C94.007 156.304 87.3986 150.67 87.3986 150.67" fill="black" fill-opacity="0.2"/>
<path d="M88.8964 158.812C92.6351 161.834 94.1941 176.277 94.1941 176.277L107.524 170.349L110.402 177.649C110.402 177.649 92.5736 186.595 90.3206 186.249C87.8861 185.874 79.0682 170.606 79.2433 164.187C79.4184 157.768 85.1597 155.789 88.8964 158.812Z" fill="#5A5BB5"/>
<path d="M118.91 160.653L114.007 169.177L114.425 169.465L116.312 169.698L121.65 160.883L121.148 160.596L118.91 160.653Z" fill="#5E5E5E"/>
<path d="M119.326 160.94L114.425 169.464L116.73 169.986L121.566 160.883L119.326 160.94Z" fill="#8B8B8B"/>
<path d="M107.524 170.348L108.898 169.698L111.585 174.505L109.842 176.225L107.524 170.348Z" fill="#5A5BB5"/>
<path d="M107.524 170.348L108.898 169.698L111.585 174.505L109.842 176.225L107.524 170.348Z" fill="black" fill-opacity="0.5"/>
<path d="M108.897 169.698L111.05 165.706L113.596 164.553L116.486 164.238C116.486 164.238 116.641 164.909 116.079 165.311C115.516 165.712 114.24 165.844 114.24 165.844L113.239 166.595L115.479 166.588L118.767 165.267L119.12 166.811L118.441 167.31L118.616 168.8L118.159 169.28L118.389 170.388L117.473 171.42L115.586 173.428L111.867 173.865L111.369 174.119L108.899 169.7L108.897 169.698Z" fill="#EDD0B1"/>
<path d="M87.9826 210.844L94.8212 224.064L93.4586 230.571L70.5591 257.649L71.9047 257.733C71.9047 257.733 94.522 233.786 95.5089 231.457C95.7827 230.813 96.55 228.454 97.538 225.308L92.3549 216.048L87.9826 210.842V210.844Z" fill="#01182F"/>
<path d="M83.8922 203.897C83.8922 203.897 84.6796 206.522 86.5134 208.971C88.3441 211.42 92.3545 216.049 92.3545 216.049L100.505 230.618L107.743 263.744C107.743 263.744 112.012 264.375 114.006 263.258C116.002 262.141 115.72 259.277 115.72 259.277L111.333 228.092L103.345 201.944L83.8911 203.897H83.8922Z" fill="#002345"/>
<path d="M107.338 189.999L111.106 193.692L106.86 197.88L107.338 189.999Z" fill="#5A5BB5"/>
<path d="M107.338 189.999L111.106 193.692L106.86 197.88L107.338 189.999Z" fill="black" fill-opacity="0.2"/>
<path d="M108.322 198.832L111.373 202.486L112.095 203.4L111.787 205.557L112.122 205.896L112.921 205.882L113.361 206.284L113.934 206.202L115.786 203.335L115.549 200.945L113.671 198.925L109.025 198.283L108.322 198.832Z" fill="#D6B99B"/>
<path d="M111.106 193.692L112.185 195.821L108.113 198.995L107.324 197.424L111.106 193.692Z" fill="#5A5BB5"/>
<path d="M111.106 193.692L112.185 195.821L108.113 198.995L107.324 197.424L111.106 193.692Z" fill="black" fill-opacity="0.5"/>
<path d="M109.024 198.283C109.024 198.283 110.226 199.782 111.213 200.429C112.201 201.075 112.974 200.866 112.974 200.866C112.974 200.866 113.24 202.155 113.817 202.79C114.392 203.424 115.18 203.356 115.18 203.356L115.044 201.077L113.671 198.925L115.549 200.946L115.786 203.336C115.786 203.336 114.388 204.43 114.007 205.297C113.627 206.163 114.264 206.802 114.264 206.802L116.838 203.932L116.312 199.901L112.063 195.912L109.023 198.282L109.024 198.283Z" fill="#F7D2AD"/>
<path d="M115.721 259.276L122.501 263.141C122.501 263.141 125.906 260.757 127.062 262.787C128.217 264.817 127.298 264.756 127.298 264.756L109.287 269.7L107.54 262.953C107.54 262.953 111.024 263.733 112.581 262.862C114.136 261.99 115.722 259.276 115.722 259.276H115.721Z" fill="#303030"/>
<path d="M109.267 269.432L109.62 270.825L128.119 266.18L127.644 264.356L112.438 268.635L109.267 269.432Z" fill="black"/>
<path d="M72.9647 256.853L74.3252 264.551C74.3252 264.551 78.3293 265.654 77.5079 267.843C76.6865 270.032 76.1474 269.282 76.1474 269.282L60.8506 258.543L64.9173 252.89C64.9173 252.89 66.5431 256.074 68.205 256.719C69.869 257.364 72.9636 256.855 72.9636 256.855L72.9647 256.853Z" fill="#303030"/>
<path d="M61.0449 258.358L60.2012 259.52L75.5765 270.825L76.6738 269.295L63.681 260.296L61.0449 258.358Z" fill="black"/>
</g>
<defs>
<linearGradient id="paint0_linear_3786_19034" x1="140" y1="0" x2="140" y2="274" gradientUnits="userSpaceOnUse">
<stop stop-color="white"/>
<stop offset="0.5" stop-color="#5A5BB5"/>
<stop offset="1" stop-color="#5A5BB5"/>
</linearGradient>
<linearGradient id="paint1_linear_3786_19034" x1="140" y1="0" x2="140" y2="274" gradientUnits="userSpaceOnUse">
<stop stop-color="white" stop-opacity="0"/>
<stop offset="1" stop-color="white"/>
</linearGradient>
<clipPath id="clip0_3786_19034">
<rect width="280" height="274" fill="white"/>
</clipPath>
<clipPath id="clip1_3786_19034">
<rect width="66.6913" height="76.2485" fill="white" transform="translate(9.22217 194.601)"/>
</clipPath>
<clipPath id="clip2_3786_19034">
<rect width="78.39" height="140.812" fill="white" transform="translate(114.596 129.881)"/>
</clipPath>
</defs>
</svg>
