<svg width="280" height="274" viewBox="0 0 280 274" fill="none" xmlns="http://www.w3.org/2000/svg">
<g clip-path="url(#clip0_3786_18969)">
<g opacity="0.1">
<path d="M25.3115 274C28.4334 267.939 0.478592 219.643 0.0302833 207.444C-1.3172 170.831 42.7323 170.539 46.5827 140.638C50.0334 113.841 5.18028 81.4936 32.9208 56.1485C56.67 34.4489 83.1185 43.4849 110.845 36.0081C127.381 31.5496 128.648 16.2365 141.712 7.51716C170.025 -11.3789 231.832 8.09394 247.974 35.5169C263.457 61.8196 229.709 84.9877 238.36 110.182C245.316 130.442 267.457 140.43 268.72 163.725C269.725 182.265 251.007 194.898 253.54 213.338C256.968 238.301 301.693 244.638 266.696 273.758" fill="url(#paint0_linear_3786_18969)"/>
<path d="M25.3115 274C28.4334 267.939 0.478592 219.643 0.0302833 207.444C-1.3172 170.831 42.7323 170.539 46.5827 140.638C50.0334 113.841 5.18028 81.4936 32.9208 56.1485C56.67 34.4489 83.1185 43.4849 110.845 36.0081C127.381 31.5496 128.648 16.2365 141.712 7.51716C170.025 -11.3789 231.832 8.09394 247.974 35.5169C263.457 61.8196 229.709 84.9877 238.36 110.182C245.316 130.442 267.457 140.43 268.72 163.725C269.725 182.265 251.007 194.898 253.54 213.338C256.968 238.301 301.693 244.638 266.696 273.758" fill="url(#paint1_linear_3786_18969)" fill-opacity="0.28"/>
</g>
<g clip-path="url(#clip1_3786_18969)">
<path d="M235.021 269.996C234.929 270.235 234.854 270.426 234.788 270.607H234.677C234.794 270.404 234.906 270.2 235.021 269.996Z" fill="#A0662C"/>
<path d="M109.157 269.996C109.249 270.235 109.324 270.426 109.39 270.607H109.501C109.385 270.404 109.272 270.2 109.157 269.996Z" fill="#A0662C"/>
<path d="M87.5338 124.978L80.5185 122.109L73.5805 123.49L71.1053 123.978L68.2957 126.18L66.7295 129.224C66.7295 129.224 67.1662 129.736 68.1049 129.054C68.5215 128.752 69.1814 127.178 69.1814 127.178L70.4857 126.497L70.747 128.486L72.0636 131.209C72.0636 131.209 72.7351 130.928 72.7648 130.005C72.7945 129.082 72.0906 127.627 72.0906 127.627L73.0526 125.857V128.034L74.0453 129.83C74.0453 129.83 74.5499 129.648 74.6209 129.105C74.692 128.561 74.3289 127.656 74.3289 127.656L75.4435 125.584C75.4435 125.584 76.1394 126.379 76.8984 126.762C77.6574 127.146 78.4795 127.119 78.4795 127.119L84.519 131.012L87.5338 124.977V124.978Z" fill="#F7D2AD"/>
<path d="M78.3997 126.366L73.6391 128.487L68.2085 128.348C68.2085 128.348 68.6516 127.42 69.2298 126.989C69.8081 126.558 70.5215 126.624 70.5215 126.624L75.3643 124.831L78.3997 126.365V126.366Z" fill="#F1D2B3"/>
<path d="M71.6055 126.347L69.2501 125.155C69.2501 125.155 67.4449 125.347 66.6716 125.148C65.8978 124.95 66.1569 124.362 66.1569 124.362L69.1028 123.653L71.0702 123.958L71.8859 124.934L71.6055 126.348V126.347Z" fill="#F1D2B3"/>
<path d="M87.9301 158.391C87.9301 158.391 104.359 149.679 106.257 140.601C108.046 132.038 80.5183 122.109 80.5183 122.109L79.5601 127.46L95.1808 138.65L83.0031 145.52L87.9301 158.391Z" fill="#5A5BB5"/>
<path d="M86.7496 194.083C86.7496 194.083 93.3234 223.15 93.6223 229.608C93.8964 235.536 92.8522 263.796 92.8522 263.796L84.7567 264.427C84.7567 264.427 82.0213 250.047 81.7404 241.863C81.4595 233.68 83.6331 231.694 83.6331 231.694L66.9932 195.747L86.7496 194.083Z" fill="#04294C"/>
<path d="M82.3354 195.248L68.0116 237.412L65.8984 263.795L61.15 264.489L57.4558 263.655C57.4558 263.655 55.6415 251.991 56.4424 242.412C57.2432 232.832 58.7697 228.097 58.7697 228.097L60.4292 194.726L82.3354 195.248Z" fill="#04294C"/>
<path d="M80.2647 199.593L78.8946 213.889L86.75 231.002C86.75 231.002 84.7232 240.286 85.3322 248.447C85.9412 256.608 87.554 264.209 87.554 264.209L84.6156 263.657C84.2393 261.639 81.9994 249.383 81.7413 241.863C81.4604 233.68 83.634 231.693 83.634 231.693L75.521 214.167L80.2647 199.593Z" fill="#02203D"/>
<path d="M87.5337 124.978L80.5183 122.109L79.5601 127.46L84.5189 131.012L87.5337 124.978Z" fill="#5A5BB5"/>
<path d="M87.5337 124.978L80.5183 122.109L79.5601 127.46L84.5189 131.012L87.5337 124.978Z" fill="black" fill-opacity="0.5"/>
<path d="M60.4292 194.726L58.7697 228.098C58.7697 228.098 57.2438 232.832 56.4429 242.411C55.6421 251.991 57.4558 263.655 57.4558 263.655L59.0246 263.646H59.0358C59.0358 263.646 58.0367 251.901 58.7697 243.126C59.5033 234.35 61.9684 228.545 61.9684 228.545C61.9684 228.545 62.65 219.442 65.8985 211.552C69.1475 203.663 74.9639 196.986 74.9639 196.986L60.4292 194.726Z" fill="#02203D"/>
<path d="M63.4585 146.797L66.2061 143.121L75.7491 146.445L75.8641 146.506L76.5023 147.654L85.5301 151.276L85.9239 177.948L86.7496 194.083C86.7496 194.083 81.5565 194.864 74.8804 194.704C68.2038 194.545 62.5183 191.698 62.5183 191.698L63.0175 175.541L55.1865 152.345L63.4585 146.797Z" fill="white"/>
<path d="M66.2064 143.121C66.2064 143.121 75.7393 160.985 77.4406 175.534C79.142 190.084 76.0939 197.918 72.4394 202.28C70.1338 205.033 53.4229 203.805 53.4229 203.805L60.312 170.903L54.8327 152.497L63.4587 146.797L66.2064 143.121Z" fill="#5A5BB5"/>
<path d="M55.8582 152.349L55.713 155.453L60.3115 170.902L53.4233 203.806C53.4233 203.806 62.1777 204.736 65.1346 204.748C68.0921 204.761 71.5982 202.878 71.5982 202.878C71.5982 202.878 71.5643 202.875 71.5622 202.875C71.3565 202.862 61.5263 202.179 60.4275 194.725C59.2928 187.024 63.3453 173.599 63.3453 173.599C63.3453 173.599 60.9379 165.324 65.2332 166.072C68.6227 166.662 63.4582 153.98 63.4582 153.98L55.8582 152.349Z" fill="#5A5BB5"/>
<path d="M55.8582 152.349L55.713 155.453L60.3115 170.902L53.4233 203.806C53.4233 203.806 62.1777 204.736 65.1346 204.748C68.0921 204.761 71.5982 202.878 71.5982 202.878C71.5982 202.878 71.5643 202.875 71.5622 202.875C71.3565 202.862 61.5263 202.179 60.4275 194.725C59.2928 187.024 63.3453 173.599 63.3453 173.599C63.3453 173.599 60.9379 165.324 65.2332 166.072C68.6227 166.662 63.4582 153.98 63.4582 153.98L55.8582 152.349Z" fill="black" fill-opacity="0.2"/>
<path d="M76.0405 146.761C76.0405 146.761 81.4637 158.642 84.321 168.512C87.9426 181.025 91.5277 197.706 91.5277 197.706C91.5277 197.706 89.4177 173.599 88.7387 163.211C87.976 151.533 83.0034 145.521 83.0034 145.521L76.0405 146.761Z" fill="#5A5BB5"/>
<path d="M63.4585 146.797L66.2061 143.121C66.2061 143.121 70.9238 152.449 73.8294 160.832C76.7355 169.216 77.6232 177.27 77.6232 177.27L65.4365 154.702L66.8183 153.474L64.5673 151.631L63.4585 146.797Z" fill="#5A5BB5"/>
<path d="M63.4585 146.797L66.2061 143.121C66.2061 143.121 70.9238 152.449 73.8294 160.832C76.7355 169.216 77.6232 177.27 77.6232 177.27L65.4365 154.702L66.8183 153.474L64.5673 151.631L63.4585 146.797Z" fill="black" fill-opacity="0.5"/>
<path d="M75.8611 146.504L75.7773 146.459C75.7773 146.459 76.1621 147.474 76.5024 148.072C77.5783 149.967 79.6428 153.513 81.3409 158.712C83.8803 166.491 87.1871 179.192 87.1871 179.192L83.2591 153.856L81.8789 153.281L82.4158 151.85L78.4725 146.427L76.0402 146.761L75.8611 146.504Z" fill="#5A5BB5"/>
<path d="M75.8611 146.504L75.7773 146.459C75.7773 146.459 76.1621 147.474 76.5024 148.072C77.5783 149.967 79.6428 153.513 81.3409 158.712C83.8803 166.491 87.1871 179.192 87.1871 179.192L83.2591 153.856L81.8789 153.281L82.4158 151.85L78.4725 146.427L76.0402 146.761L75.8611 146.504Z" fill="black" fill-opacity="0.5"/>
<path d="M83.6333 166.072L86.6247 194.686C86.6247 194.686 89.1317 194.448 89.7338 195.817C90.3439 197.203 91.5274 197.615 91.5274 197.615C91.5274 197.615 89.2552 186.674 87.0657 178.319" fill="#041424"/>
<path d="M75.0496 145.91L75.4222 147.331L74.7067 151.601L67.7905 145.224L68.9454 143.913C68.9454 143.913 64.4763 141.937 63.8376 137.051C63.1989 132.165 65.125 128.774 70.1114 127.82C75.0978 126.866 78.8652 129.524 78.8652 129.524L75.0496 145.91Z" fill="#F7D2AD"/>
<path d="M75.1072 145.916L75.3224 147.219C75.3224 147.219 73.1573 146.433 72.0125 145.031C70.8676 143.629 70.1182 141.428 70.1182 141.428L71.3918 140.213L75.1072 145.916Z" fill="#ECC7A3"/>
<path d="M68.6874 135.293C68.5772 133.643 70.6156 134.659 71.1244 133.686C72.1903 131.648 72.6307 128.633 75.2406 128.47C79.0954 128.229 83.0748 132.742 81.5637 138.509C80.2683 143.455 78.0767 146.735 74.3321 145.775C72.2767 145.247 71.1456 139.27 70.5398 138.047C69.934 136.824 68.7637 136.431 68.6874 135.293V135.293Z" fill="#F7D2AD"/>
<path d="M73.5395 133.56L72.1397 137.274C72.1397 137.274 70.9318 135.467 71.0044 134.793C71.0749 134.143 68.4837 134.019 68.9893 135.768C69.1817 136.435 70.1697 136.699 70.6573 137.62C71.4491 139.115 71.3039 140.373 71.3039 140.373L68.6146 144.287C68.6146 144.287 58.9009 138.179 64.8901 128.248C65.038 128.003 65.144 127.736 65.3279 127.541C68.7275 123.948 71.5302 125.102 77.2041 125.732C83.8452 126.47 85.0467 125.777 85.0467 125.777C85.0467 125.777 85.917 132.733 81.4569 133.304C77.3631 133.827 73.5395 133.56 73.5395 133.56Z" fill="black"/>
<path d="M72.4459 136.463L73.8621 144.004L78.6105 144.626L77.3777 148.663L76.2843 147.918L72.528 145.358L71.5459 136.287L72.4459 136.463Z" fill="black"/>
<path d="M93.0628 261.072L98.5236 266.369C98.5236 266.369 102.349 264.985 102.936 267.171C103.523 269.356 102.666 269.07 102.666 269.07L84.3467 269.22L84.3833 262.478C84.3833 262.478 87.4902 264.072 89.1847 263.644C90.8797 263.216 93.0628 261.072 93.0628 261.072Z" fill="#252525"/>
<path d="M84.3976 268.965L84.3833 270.355L103.088 270.607L103.095 268.783L87.6042 269.007L84.3976 268.965Z" fill="black"/>
<path d="M65.8797 261.072L71.34 266.369C71.34 266.369 75.1651 264.985 75.7529 267.171C76.3402 269.356 75.4831 269.07 75.4831 269.07L57.1636 269.22L57.2001 262.478C57.2001 262.478 60.3076 264.072 62.0021 263.644C63.6966 263.216 65.8803 261.072 65.8803 261.072H65.8797Z" fill="#303030"/>
<path d="M57.214 268.965L57.1997 270.355L75.9046 270.607L75.912 268.783L60.4206 269.007L57.214 268.965Z" fill="black"/>
<path d="M56.1619 151.618C50.0874 153.485 40.9021 166.197 40.2417 168.923C38.7466 175.097 53.3486 187.664 53.3486 187.664L58.1118 183.855L50.0105 171.613C50.0105 171.613 51.5486 169.866 63.1004 161.245C68.6756 157.083 62.2364 149.752 56.1619 151.618Z" fill="#5A5BB5"/>
<path d="M58.1124 183.855L56.8865 182.812L53.3491 185.45L54.2745 186.598C54.2745 186.598 54.8083 187.143 56.0061 187.833C57.2039 188.523 60.0666 190.21 60.0666 190.21C60.0666 190.21 61.5188 191.839 62.4214 192.332C63.3241 192.825 63.6765 192.182 63.6765 192.182L60.0417 188.225L60.294 188.101L61.9259 189.457C61.9259 189.457 63.4099 191.495 64.2845 192.183C65.1585 192.87 65.4229 192.207 65.4229 192.207L65.539 191.769C65.539 191.769 66.4777 191.962 66.1236 191.015C65.7701 190.068 64.1239 187.98 64.1239 187.98L62.157 186.233L63.6818 186.789L64.6396 187.883C64.6396 187.883 65.1378 189.002 65.6837 189.292C66.2302 189.581 66.8238 189.04 66.8238 189.04L64.8166 185.678L61.9683 184.416L58.1129 183.855H58.1124Z" fill="#F7D2AD"/>
<path d="M65.5387 191.769L65.4517 192.097L63.081 188.898L61.1538 187.102L63.1753 188.67L65.5387 191.769Z" fill="#CAA27B"/>
<path d="M49.043 183.599L55.3746 179.718L58.1126 183.855L53.3494 187.664C53.3494 187.664 51.6756 186.156 50.474 185.013C49.273 183.87 49.043 183.599 49.043 183.599Z" fill="#5A5BB5"/>
<path d="M49.043 183.599L55.3746 179.718L58.1126 183.855L53.3494 187.664C53.3494 187.664 51.6756 186.156 50.474 185.013C49.273 183.87 49.043 183.599 49.043 183.599Z" fill="black" fill-opacity="0.5"/>
<path d="M79.4505 122.322L72.4521 123.604L69.9769 124.092L67.1673 126.294L65.6011 129.338C65.6011 129.338 66.0378 129.851 66.9765 129.169C67.3931 128.866 68.0529 127.293 68.0529 127.293L69.3573 126.612L69.6186 128.601L70.9352 131.324C70.9352 131.324 71.6067 131.042 71.6364 130.12C71.6661 129.197 70.9622 127.742 70.9622 127.742L71.9242 125.972V128.15L72.9169 129.945C72.9169 129.945 73.4215 129.763 73.4925 129.22C73.5635 128.676 73.2005 127.771 73.2005 127.771L74.3151 125.699C74.3151 125.699 74.8536 126.292 76.1182 126.233C77.3823 126.174 79.372 125.463 79.372 125.463L79.4505 122.323V122.322Z" fill="#F7D2AD"/>
<path d="M88.0061 158.383L84.2578 147.404L89.3561 157.535L88.0061 158.383Z" fill="#5A5BB5"/>
<path d="M88.0061 158.383L84.2578 147.404L89.3561 157.535L88.0061 158.383Z" fill="black" fill-opacity="0.2"/>
<g clip-path="url(#clip2_3786_18969)">
<path d="M224.514 194.873V270.349H119.049V174.605C119.049 172.548 120.483 170.879 122.253 170.879H155.727C157.497 170.879 158.931 172.548 158.931 174.605V184.136C158.931 186.286 160.43 188.029 162.279 188.029H218.629C221.879 188.029 224.514 191.093 224.514 194.873Z" fill="#5A5BB5"/>
<path d="M224.514 194.873V270.349H119.049V174.605C119.049 172.548 120.483 170.879 122.253 170.879H155.727C157.497 170.879 158.931 172.548 158.931 174.605V184.136C158.931 186.286 160.43 188.029 162.279 188.029H218.629C221.879 188.029 224.514 191.093 224.514 194.873Z" fill="white" fill-opacity="0.4"/>
<path d="M200.999 205.464L165.671 198.699C165.489 198.664 165.369 198.488 165.404 198.306L165.605 197.255C165.639 197.073 165.816 196.954 165.998 196.988L201.326 203.754C201.508 203.788 201.628 203.965 201.593 204.147L201.392 205.197C201.357 205.379 201.181 205.499 200.999 205.464Z" fill="#5A5BB5"/>
<path d="M200.999 205.464L165.671 198.699C165.489 198.664 165.369 198.488 165.404 198.306L165.605 197.255C165.639 197.073 165.816 196.954 165.998 196.988L201.326 203.754C201.508 203.788 201.628 203.965 201.593 204.147L201.392 205.197C201.357 205.379 201.181 205.499 200.999 205.464Z" fill="white" fill-opacity="0.6"/>
<path d="M199.913 209.413L164.586 202.648C164.403 202.613 164.284 202.437 164.318 202.255L164.519 201.205C164.554 201.022 164.73 200.903 164.913 200.938L200.24 207.703C200.423 207.738 200.542 207.914 200.508 208.096L200.307 209.146C200.272 209.329 200.096 209.448 199.913 209.413Z" fill="#5A5BB5"/>
<path d="M199.913 209.413L164.586 202.648C164.403 202.613 164.284 202.437 164.318 202.255L164.519 201.205C164.554 201.022 164.73 200.903 164.913 200.938L200.24 207.703C200.423 207.738 200.542 207.914 200.508 208.096L200.307 209.146C200.272 209.329 200.096 209.448 199.913 209.413Z" fill="white" fill-opacity="0.6"/>
<path opacity="0.1" d="M174.403 204.277L150.626 238.758C149.608 240.235 147.584 240.607 146.106 239.589L118.951 219.954L119.028 175.559L134.557 172.885L173.571 201.528C175.049 202.546 175.421 202.799 174.403 204.277Z" fill="black"/>
<path d="M224.509 270.349H119.071L122.239 191.043H227.678L224.509 270.349Z" fill="#D3DCEF"/>
<path opacity="0.1" d="M217.41 199.095L206.662 239.571C206.202 241.304 204.422 242.337 202.687 241.877L194.083 239.594L148.461 227.492C146.726 227.032 145.693 225.253 146.154 223.519L154.609 191.679L154.871 191.523L169.306 182.974L204.761 192.379L215.103 195.122C216.837 195.583 217.87 197.361 217.41 199.095Z" fill="black"/>
<path d="M218.642 200.939L207.894 241.415C207.434 243.148 205.654 244.181 203.919 243.72L195.315 241.438L149.693 229.336C147.958 228.876 146.925 227.097 147.386 225.363L155.841 193.522L156.103 193.367L170.538 184.817L205.993 194.223L216.335 196.966C218.069 197.426 219.102 199.205 218.642 200.939Z" fill="#E3E9F7"/>
<path opacity="0.1" d="M170.538 184.817L168.146 193.826C167.771 195.237 166.323 196.078 164.91 195.703L156.104 193.367L170.538 184.817Z" fill="black"/>
<path d="M176.679 197.987C183.639 199.834 187.785 206.97 185.937 213.928L185.929 213.957C184.07 220.896 176.94 225.025 169.989 223.18C167.521 222.526 165.407 221.205 163.788 219.465C160.842 216.296 159.538 211.731 160.732 207.241C162.579 200.284 169.719 196.141 176.68 197.987H176.679Z" fill="#0F31AC"/>
<path d="M176.678 197.987C183.639 199.834 187.784 206.97 185.937 213.928L160.73 207.241C162.578 200.284 169.718 196.141 176.679 197.987H176.678Z" fill="#5A5BB5"/>
<path d="M176.678 197.987C183.639 199.834 187.784 206.97 185.937 213.928L160.73 207.241C162.578 200.284 169.718 196.141 176.679 197.987H176.678Z" fill="white" fill-opacity="0.6"/>
<path d="M173.295 210.605L185.929 213.957C184.069 220.896 176.939 225.025 169.988 223.181C167.52 222.526 165.406 221.206 163.788 219.465L173.296 210.605H173.295Z" fill="#5A5BB5"/>
<path d="M173.295 210.605L185.929 213.957C184.069 220.896 176.939 225.025 169.988 223.181C167.52 222.526 165.406 221.206 163.788 219.465L173.296 210.605H173.295Z" fill="white" fill-opacity="0.6"/>
<path d="M193.727 209.827L188.916 227.944C188.895 228.026 188.81 228.075 188.728 228.053L188.249 227.926C188.166 227.904 188.118 227.82 188.139 227.738L192.95 209.621C192.971 209.539 193.056 209.49 193.138 209.512L193.617 209.639C193.7 209.66 193.748 209.745 193.727 209.827Z" fill="#5A5BB5"/>
<path d="M193.727 209.827L188.916 227.944C188.895 228.026 188.81 228.075 188.728 228.053L188.249 227.926C188.166 227.904 188.118 227.82 188.139 227.738L192.95 209.621C192.971 209.539 193.056 209.49 193.138 209.512L193.617 209.639C193.7 209.66 193.748 209.745 193.727 209.827Z" fill="white" fill-opacity="0.6"/>
<path d="M198.26 200.305L190.788 228.444C190.766 228.524 190.685 228.572 190.605 228.55L190.14 228.427C190.06 228.405 190.012 228.324 190.033 228.244L197.506 200.105C197.528 200.024 197.609 199.977 197.689 199.998L198.154 200.121C198.234 200.143 198.282 200.225 198.26 200.305Z" fill="#5A5BB5"/>
<path d="M198.26 200.305L190.788 228.444C190.766 228.524 190.685 228.572 190.605 228.55L190.14 228.427C190.06 228.405 190.012 228.324 190.033 228.244L197.506 200.105C197.528 200.024 197.609 199.977 197.689 199.998L198.154 200.121C198.234 200.143 198.282 200.225 198.26 200.305Z" fill="white" fill-opacity="0.6"/>
<path d="M195.068 217.529L192.088 228.753C192.063 228.849 192.12 228.947 192.216 228.973L192.773 229.121C192.869 229.146 192.967 229.089 192.993 228.993L195.972 217.768C195.998 217.673 195.941 217.574 195.845 217.549L195.288 217.401C195.192 217.376 195.094 217.433 195.068 217.529Z" fill="#5A5BB5"/>
<path d="M195.068 217.529L192.088 228.753C192.063 228.849 192.12 228.947 192.216 228.973L192.773 229.121C192.869 229.146 192.967 229.089 192.993 228.993L195.972 217.768C195.998 217.673 195.941 217.574 195.845 217.549L195.288 217.401C195.192 217.376 195.094 217.433 195.068 217.529Z" fill="white" fill-opacity="0.6"/>
<path d="M201.519 203.843L194.708 229.491C194.687 229.568 194.609 229.614 194.531 229.594L194.082 229.474C194.005 229.453 193.959 229.375 193.98 229.297L200.791 203.649C200.812 203.572 200.89 203.526 200.968 203.547L201.417 203.666C201.494 203.687 201.54 203.765 201.519 203.843Z" fill="#5A5BB5"/>
<path d="M201.519 203.843L194.708 229.491C194.687 229.568 194.609 229.614 194.531 229.594L194.082 229.474C194.005 229.453 193.959 229.375 193.98 229.297L200.791 203.649C200.812 203.572 200.89 203.526 200.968 203.547L201.417 203.666C201.494 203.687 201.54 203.765 201.519 203.843Z" fill="white" fill-opacity="0.6"/>
<path d="M199.587 216.429L196.031 229.822C196.009 229.906 196.059 229.993 196.143 230.015L196.635 230.145C196.719 230.168 196.806 230.118 196.828 230.033L200.384 216.64C200.406 216.556 200.356 216.469 200.272 216.447L199.78 216.317C199.696 216.294 199.609 216.344 199.587 216.429Z" fill="#5A5BB5"/>
<path d="M199.587 216.429L196.031 229.822C196.009 229.906 196.059 229.993 196.143 230.015L196.635 230.145C196.719 230.168 196.806 230.118 196.828 230.033L200.384 216.64C200.406 216.556 200.356 216.469 200.272 216.447L199.78 216.317C199.696 216.294 199.609 216.344 199.587 216.429Z" fill="white" fill-opacity="0.6"/>
<path d="M206.821 199.792L198.656 230.539C198.635 230.616 198.556 230.662 198.479 230.642L198.03 230.522C197.953 230.502 197.907 230.423 197.927 230.345L206.093 199.599C206.113 199.522 206.192 199.475 206.27 199.496L206.718 199.615C206.795 199.636 206.842 199.715 206.821 199.792Z" fill="#5A5BB5"/>
<path d="M206.821 199.792L198.656 230.539C198.635 230.616 198.556 230.662 198.479 230.642L198.03 230.522C197.953 230.502 197.907 230.423 197.927 230.345L206.093 199.599C206.113 199.522 206.192 199.475 206.27 199.496L206.718 199.615C206.795 199.636 206.842 199.715 206.821 199.792Z" fill="white" fill-opacity="0.6"/>
<path d="M187.879 232.362C188.372 232.493 188.664 232.997 188.534 233.489C188.403 233.982 187.898 234.274 187.406 234.144C186.914 234.013 186.621 233.508 186.751 233.017C186.882 232.524 187.387 232.232 187.879 232.362Z" fill="#0F31AC"/>
<path d="M191.828 233.409C192.32 233.54 192.613 234.044 192.483 234.536C192.352 235.028 191.847 235.321 191.355 235.191C190.862 235.06 190.57 234.555 190.7 234.064C190.831 233.571 191.336 233.279 191.828 233.409Z" fill="#5A5BB5"/>
<path d="M191.828 233.409C192.32 233.54 192.613 234.044 192.483 234.536C192.352 235.028 191.847 235.321 191.355 235.191C190.862 235.06 190.57 234.555 190.7 234.064C190.831 233.571 191.336 233.279 191.828 233.409Z" fill="white" fill-opacity="0.6"/>
<path d="M195.776 234.456C196.269 234.586 196.561 235.091 196.431 235.583C196.3 236.075 195.795 236.368 195.303 236.238C194.811 236.107 194.518 235.602 194.648 235.11C194.779 234.618 195.284 234.326 195.776 234.456Z" fill="#5A5BB5"/>
<path d="M195.776 234.456C196.269 234.586 196.561 235.091 196.431 235.583C196.3 236.075 195.795 236.368 195.303 236.238C194.811 236.107 194.518 235.602 194.648 235.11C194.779 234.618 195.284 234.326 195.776 234.456Z" fill="white" fill-opacity="0.6"/>
<path d="M224.509 270.349H119.071L125.388 193.531H230.826L224.509 270.349Z" fill="#EEF2FA"/>
<path d="M206.741 167.736L212.649 214.74C212.873 216.52 211.611 218.144 209.83 218.367L168.27 223.57C166.49 223.792 164.865 222.53 164.641 220.749L157.646 165.095C157.423 163.315 158.684 161.691 160.465 161.467L193.159 157.375L193.402 157.56L206.741 167.736Z" fill="white"/>
<path opacity="0.1" d="M206.742 167.736L197.492 168.895C196.042 169.076 194.72 168.048 194.537 166.599L193.401 157.56L206.741 167.737L206.742 167.736Z" fill="black"/>
<path d="M203.473 193.586L168.411 197.975C168.056 198.02 167.732 197.767 167.688 197.413L167.632 196.97C167.587 196.615 167.839 196.291 168.194 196.247L203.256 191.858C203.611 191.813 203.935 192.065 203.979 192.42L204.034 192.862C204.079 193.218 203.827 193.541 203.473 193.586Z" fill="#5A5BB5"/>
<path d="M203.473 193.586L168.411 197.975C168.056 198.02 167.732 197.767 167.688 197.413L167.632 196.97C167.587 196.615 167.839 196.291 168.194 196.247L203.256 191.858C203.611 191.813 203.935 192.065 203.979 192.42L204.034 192.862C204.079 193.218 203.827 193.541 203.473 193.586Z" fill="white" fill-opacity="0.6"/>
<path d="M204.069 197.919L169.008 202.308C168.653 202.353 168.329 202.1 168.284 201.746L168.229 201.303C168.184 200.948 168.436 200.624 168.791 200.58L203.852 196.191C204.207 196.146 204.531 196.398 204.576 196.753L204.631 197.195C204.676 197.551 204.424 197.874 204.069 197.919Z" fill="#5A5BB5"/>
<path d="M204.069 197.919L169.008 202.308C168.653 202.353 168.329 202.1 168.284 201.746L168.229 201.303C168.184 200.948 168.436 200.624 168.791 200.58L203.852 196.191C204.207 196.146 204.531 196.398 204.576 196.753L204.631 197.195C204.676 197.551 204.424 197.874 204.069 197.919Z" fill="white" fill-opacity="0.6"/>
<path d="M204.667 202.25L169.606 206.64C169.251 206.685 168.927 206.432 168.882 206.078L168.827 205.635C168.782 205.28 169.034 204.956 169.389 204.912L204.45 200.522C204.805 200.478 205.129 200.73 205.174 201.085L205.229 201.527C205.274 201.882 205.022 202.206 204.667 202.25Z" fill="#5A5BB5"/>
<path d="M204.667 202.25L169.606 206.64C169.251 206.685 168.927 206.432 168.882 206.078L168.827 205.635C168.782 205.28 169.034 204.956 169.389 204.912L204.45 200.522C204.805 200.478 205.129 200.73 205.174 201.085L205.229 201.527C205.274 201.882 205.022 202.206 204.667 202.25Z" fill="white" fill-opacity="0.6"/>
<path d="M204.857 206.343L169.795 210.733C169.44 210.778 169.116 210.525 169.072 210.171L169.017 209.728C168.972 209.373 169.224 209.049 169.578 209.005L204.64 204.615C204.995 204.571 205.319 204.823 205.363 205.178L205.419 205.62C205.464 205.975 205.212 206.299 204.857 206.343Z" fill="#5A5BB5"/>
<path d="M204.857 206.343L169.795 210.733C169.44 210.778 169.116 210.525 169.072 210.171L169.017 209.728C168.972 209.373 169.224 209.049 169.578 209.005L204.64 204.615C204.995 204.571 205.319 204.823 205.363 205.178L205.419 205.62C205.464 205.975 205.212 206.299 204.857 206.343Z" fill="white" fill-opacity="0.6"/>
<path d="M166.031 179.067L201.093 174.68C201.448 174.635 201.772 174.887 201.817 175.242L201.872 175.685C201.917 176.04 201.665 176.364 201.31 176.409L166.248 180.796C165.893 180.84 165.569 180.588 165.525 180.233L165.469 179.79C165.424 179.435 165.676 179.111 166.031 179.067Z" fill="#5A5BB5"/>
<path d="M166.031 179.067L201.093 174.68C201.448 174.635 201.772 174.887 201.817 175.242L201.872 175.685C201.917 176.04 201.665 176.364 201.31 176.409L166.248 180.796C165.893 180.84 165.569 180.588 165.525 180.233L165.469 179.79C165.424 179.435 165.676 179.111 166.031 179.067Z" fill="white" fill-opacity="0.6"/>
<path d="M201.691 179.012L166.629 183.399C166.274 183.443 166.022 183.767 166.067 184.122L166.123 184.565C166.167 184.92 166.491 185.172 166.846 185.127L201.908 180.74C202.263 180.696 202.515 180.372 202.47 180.017L202.415 179.575C202.37 179.219 202.046 178.968 201.691 179.012Z" fill="#5A5BB5"/>
<path d="M201.691 179.012L166.629 183.399C166.274 183.443 166.022 183.767 166.067 184.122L166.123 184.565C166.167 184.92 166.491 185.172 166.846 185.127L201.908 180.74C202.263 180.696 202.515 180.372 202.47 180.017L202.415 179.575C202.37 179.219 202.046 178.968 201.691 179.012Z" fill="white" fill-opacity="0.6"/>
<path d="M202.508 185.07L167.446 189.459C167.091 189.504 166.767 189.252 166.723 188.897L166.667 188.455C166.622 188.099 166.875 187.776 167.229 187.731L202.291 183.342C202.646 183.297 202.97 183.55 203.014 183.904L203.07 184.347C203.115 184.702 202.862 185.026 202.508 185.07Z" fill="#5A5BB5"/>
<path d="M202.508 185.07L167.446 189.459C167.091 189.504 166.767 189.252 166.723 188.897L166.667 188.455C166.622 188.099 166.875 187.776 167.229 187.731L202.291 183.342C202.646 183.297 202.97 183.55 203.014 183.904L203.07 184.347C203.115 184.702 202.862 185.026 202.508 185.07Z" fill="white" fill-opacity="0.6"/>
<path d="M202.697 189.163L167.636 193.552C167.28 193.597 166.957 193.345 166.912 192.99L166.857 192.547C166.812 192.192 167.064 191.868 167.419 191.824L202.48 187.435C202.835 187.39 203.159 187.642 203.204 187.997L203.259 188.439C203.304 188.795 203.052 189.119 202.697 189.163Z" fill="#5A5BB5"/>
<path d="M202.697 189.163L167.636 193.552C167.28 193.597 166.957 193.345 166.912 192.99L166.857 192.547C166.812 192.192 167.064 191.868 167.419 191.824L202.48 187.435C202.835 187.39 203.159 187.642 203.204 187.997L203.259 188.439C203.304 188.795 203.052 189.119 202.697 189.163Z" fill="white" fill-opacity="0.6"/>
<path d="M173.016 213.438L132.102 210.715L135.924 153.274L169.788 155.528L176.329 163.567L173.016 213.438Z" fill="#5A5BB5"/>
<path d="M151.091 188.2L151.191 186.699C151.558 181.18 158.633 181.446 158.93 176.982C159.07 174.872 157.579 173.387 155.186 173.228C152.669 173.06 150.947 174.454 150.806 176.565L150.76 177.253C150.765 177.34 150.749 177.426 150.714 177.506C150.679 177.585 150.626 177.655 150.559 177.71C150.492 177.765 150.413 177.804 150.328 177.823C150.243 177.841 150.155 177.84 150.071 177.819L146.673 177.43C146.506 177.423 146.348 177.351 146.234 177.229C146.12 177.107 146.059 176.945 146.063 176.778L146.099 176.25C146.412 171.546 150.278 168.579 155.594 168.933C160.829 169.277 164.036 172.552 163.73 177.137C163.279 183.915 156.13 183.521 155.88 187.295L155.798 188.512C155.8 188.599 155.783 188.686 155.748 188.766C155.713 188.846 155.661 188.918 155.595 188.975C155.53 189.033 155.452 189.076 155.368 189.1C155.285 189.125 155.196 189.131 155.11 189.118L151.701 188.889C151.613 188.89 151.527 188.873 151.447 188.838C151.367 188.803 151.295 188.751 151.237 188.685C151.18 188.62 151.137 188.542 151.112 188.459C151.088 188.375 151.082 188.286 151.095 188.2H151.091ZM150.173 194.619C150.21 194.225 150.324 193.842 150.508 193.492C150.693 193.143 150.945 192.833 151.249 192.58C151.554 192.328 151.906 192.138 152.284 192.022C152.662 191.906 153.059 191.865 153.453 191.903C153.854 191.907 154.25 191.993 154.616 192.156C154.983 192.319 155.312 192.555 155.583 192.85C155.855 193.145 156.063 193.493 156.195 193.872C156.327 194.25 156.379 194.652 156.35 195.052C156.321 195.452 156.21 195.841 156.024 196.197C155.838 196.552 155.581 196.865 155.27 197.118C154.958 197.37 154.598 197.556 154.212 197.663C153.825 197.771 153.421 197.798 153.024 197.744C152.631 197.728 152.245 197.635 151.888 197.469C151.532 197.303 151.212 197.068 150.947 196.777C150.682 196.487 150.477 196.146 150.344 195.776C150.212 195.406 150.154 195.013 150.175 194.62L150.173 194.619Z" fill="white"/>
<g opacity="0.8">
<path d="M169.788 155.529L169.288 163.045L176.335 163.569L169.788 155.529Z" fill="#5A5BB5"/>
<path d="M169.788 155.529L169.288 163.045L176.335 163.569L169.788 155.529Z" fill="black" fill-opacity="0.3"/>
</g>
<path d="M224.509 270.349H119.071L128.33 196.245H233.768L224.509 270.349Z" fill="#D3DCEF"/>
<path d="M224.509 270.35H119.071L130.898 197.666H236.336L224.509 270.35Z" fill="#F4F6FC"/>
<path d="M119.014 270.349H224.479L239.289 204.862C240.038 201.554 237.892 198.318 234.952 198.318H138.762C136.724 198.318 134.942 199.916 134.424 202.208L119.014 270.348V270.349Z" fill="#5A5BB5"/>
<path d="M119.014 270.349H224.479L239.289 204.862C240.038 201.554 237.892 198.318 234.952 198.318H138.762C136.724 198.318 134.942 199.916 134.424 202.208L119.014 270.348V270.349Z" fill="white" fill-opacity="0.4"/>
<path d="M187.606 224.636C187.606 214.465 195.849 206.219 206.018 206.219C216.186 206.219 224.429 214.465 224.429 224.636C224.429 234.807 216.186 243.054 206.018 243.054C195.849 243.054 187.606 234.808 187.606 224.636Z" fill="white"/>
<path d="M212.068 215.625C212.863 214.832 214.152 214.833 214.945 215.629L215.044 215.728C215.838 216.524 215.836 217.813 215.04 218.607L199.968 233.647C199.173 234.441 197.884 234.439 197.09 233.644L196.991 233.545C196.198 232.749 196.2 231.46 196.995 230.666L212.068 215.625Z" fill="#5A5BB5"/>
<path d="M199.968 215.625C199.173 214.832 197.884 214.833 197.09 215.629L196.991 215.728C196.198 216.524 196.2 217.813 196.995 218.607L212.068 233.647C212.863 234.441 214.152 234.439 214.945 233.644L215.044 233.545C215.838 232.749 215.836 231.46 215.04 230.666L199.968 215.625Z" fill="#5A5BB5"/>
</g>
</g>
<rect x="32.1929" y="270.849" width="234.06" height="3.17105" rx="1.58552" fill="#548DC2"/>
<path d="M54.2249 123.284L54.1793 123.098C55.0981 121.487 55.1154 120.705 54.5537 120.316L54.5411 120.306C54.0959 119.997 53.5767 120.161 53.1425 120.79C52.7082 121.419 52.5604 122.305 52.6846 123.303L50.0525 123.417C49.8071 122.064 49.9817 120.577 51.0232 119.07C52.3542 117.143 54.3319 116.519 56.0326 117.697L56.0594 117.716C57.7082 118.859 57.6531 120.45 57.0018 122.149L57.7302 122.887L56.6352 124.473L54.2249 123.286V123.284ZM57.0238 125.534L58.8063 122.952L61.0294 124.494L59.2469 127.076L57.0238 125.534Z" fill="#9BA4AC"/>
<path d="M74.859 112.673L74.9943 112.537C76.8461 112.482 77.521 112.089 77.5588 111.404V111.388C77.5902 110.847 77.1796 110.489 76.4181 110.445C75.6724 110.402 74.8244 110.738 74.0409 111.364L72.5698 109.174C73.5925 108.258 74.9502 107.632 76.7768 107.735C79.1116 107.865 80.6755 109.231 80.559 111.301V111.333C80.4442 113.338 79.0628 114.122 77.2756 114.453L77.0286 115.46L75.1076 115.352L74.859 112.671V112.673ZM74.4043 116.239L77.5336 116.416L77.3825 119.121L74.2533 118.945L74.4043 116.239Z" fill="#9BA4AC"/>
<path d="M60.9052 111.573L60.9634 111.303C63.1645 109.797 63.6805 108.796 63.1975 107.937L63.1865 107.916C62.8042 107.237 62.0301 107.12 61.072 107.661C60.1343 108.191 59.3665 109.255 58.9008 110.624L55.4238 109.11C55.9556 107.204 57.1167 105.39 59.4106 104.096C62.3432 102.442 65.2963 102.882 66.7563 105.48L66.7783 105.52C68.1943 108.039 67.1245 110.064 65.2129 111.853L65.6928 113.268L63.2793 114.63L60.9052 111.573ZM63.1125 116.251L67.0426 114.034L68.9526 117.433L65.0225 119.65L63.1125 116.251Z" fill="#9BA4AC"/>
</g>
<defs>
<linearGradient id="paint0_linear_3786_18969" x1="140" y1="0" x2="140" y2="274" gradientUnits="userSpaceOnUse">
<stop stop-color="white"/>
<stop offset="0.5" stop-color="#5A5BB5"/>
<stop offset="1" stop-color="#5A5BB5"/>
</linearGradient>
<linearGradient id="paint1_linear_3786_18969" x1="140" y1="0" x2="140" y2="274" gradientUnits="userSpaceOnUse">
<stop stop-color="white" stop-opacity="0"/>
<stop offset="1" stop-color="white"/>
</linearGradient>
<clipPath id="clip0_3786_18969">
<rect width="280" height="274" fill="white"/>
</clipPath>
<clipPath id="clip1_3786_18969">
<rect width="202.636" height="148.497" fill="white" transform="translate(40.1343 122.11)"/>
</clipPath>
<clipPath id="clip2_3786_18969">
<rect width="141.922" height="127.149" fill="white" transform="translate(97.5176 143.201)"/>
</clipPath>
</defs>
</svg>
