<svg width="32" height="32" viewBox="0 0 32 32" fill="none" xmlns="http://www.w3.org/2000/svg">
<path d="M18.9102 12.2501C18.7775 12.2501 18.6504 12.3027 18.5566 12.3965C18.4628 12.4903 18.4102 12.6175 18.4102 12.7501C18.4102 12.8827 18.4628 13.0099 18.5566 13.1036C18.6504 13.1974 18.7775 13.2501 18.9102 13.2501H20.6937V14.6251C20.6937 14.7577 20.7463 14.8849 20.8401 14.9786C20.9339 15.0724 21.061 15.1251 21.1937 15.1251C21.3263 15.1251 21.4534 15.0724 21.5472 14.9786C21.641 14.8849 21.6937 14.7577 21.6937 14.6251V13.2501H23.4777C23.6103 13.2501 23.7374 13.1974 23.8312 13.1036C23.925 13.0099 23.9777 12.8827 23.9777 12.7501V10.0151C23.9777 9.88246 23.925 9.75528 23.8312 9.66151C23.7374 9.56774 23.6103 9.51506 23.4777 9.51506H21.6937V7.77806H23.4777C23.6103 7.77806 23.7374 7.72539 23.8312 7.63162C23.925 7.53785 23.9777 7.41067 23.9777 7.27806C23.9777 7.14546 23.925 7.01828 23.8312 6.92451C23.7374 6.83074 23.6103 6.77806 23.4777 6.77806H21.6937V5.40356C21.6937 5.27096 21.641 5.14378 21.5472 5.05001C21.4534 4.95624 21.3263 4.90356 21.1937 4.90356C21.061 4.90356 20.9339 4.95624 20.8401 5.05001C20.7463 5.14378 20.6937 5.27096 20.6937 5.40356V6.77806H18.9102C18.7775 6.77806 18.6504 6.83074 18.5566 6.92451C18.4628 7.01828 18.4102 7.14546 18.4102 7.27806V10.0126C18.4102 10.1452 18.4628 10.2723 18.5566 10.3661C18.6504 10.4599 18.7775 10.5126 18.9102 10.5126H20.6937V12.2501H18.9102ZM19.4102 9.51506V7.77806H20.6937V9.51256L19.4102 9.51506ZM21.6937 10.5151H22.9777V12.2501H21.6937V10.5151Z" fill="black"/>
<path d="M21.1925 18.7875C22.9279 18.7875 24.6243 18.2729 26.0673 17.3088C27.5102 16.3447 28.6349 14.9743 29.299 13.371C29.9631 11.7677 30.1369 10.0035 29.7984 8.30139C29.4599 6.59932 28.6242 5.03585 27.3972 3.8087C26.1701 2.58154 24.6066 1.74581 22.9046 1.40719C21.2025 1.06857 19.4383 1.24226 17.835 1.9063C16.2316 2.57035 14.8612 3.69492 13.897 5.13781C12.9328 6.58071 12.4181 8.27712 12.418 10.0125C12.4205 12.3389 13.3457 14.5694 14.9907 16.2144C16.6357 17.8595 18.8661 18.7849 21.1925 18.7875ZM21.1925 2.23753C22.7301 2.23753 24.2332 2.69348 25.5117 3.54773C26.7902 4.40198 27.7867 5.61617 28.3751 7.03674C28.9636 8.45732 29.1176 10.0205 28.8176 11.5286C28.5177 13.0367 27.7773 14.422 26.69 15.5093C25.6028 16.5966 24.2176 17.337 22.7095 17.6371C21.2014 17.9371 19.6383 17.7832 18.2176 17.1949C16.797 16.6065 15.5828 15.6101 14.7285 14.3317C13.8741 13.0532 13.4181 11.5502 13.418 10.0125C13.4204 7.95138 14.2402 5.97534 15.6977 4.51794C17.1552 3.06053 19.1313 2.24078 21.1925 2.23853V2.23753Z" fill="black"/>
<path d="M1.5 30.7616H6.893C7.02561 30.7616 7.15279 30.7089 7.24655 30.6151C7.34032 30.5214 7.393 30.3942 7.393 30.2616V27.5351L12.096 29.2851C12.6127 29.4776 13.1596 29.576 13.711 29.5756H20.211C21.1497 29.5768 22.0665 29.2918 22.839 28.7586L30.2105 23.6806C30.6021 23.4072 30.8707 22.991 30.9588 22.5216C31.0468 22.0522 30.9472 21.567 30.6813 21.1703C30.4154 20.7736 30.0045 20.497 29.5369 20.4C29.0693 20.303 28.5822 20.3933 28.1805 20.6516L24.333 23.1611C24.1376 23.2886 23.9093 23.3563 23.676 23.3561H21.993C22.1346 23.078 22.2024 22.7682 22.1899 22.4564C22.1775 22.1446 22.0852 21.8412 21.9219 21.5753C21.7587 21.3093 21.5299 21.0898 21.2574 20.9376C20.985 20.7854 20.6781 20.7057 20.366 20.7061H15.6265L13.396 19.4846C12.7134 19.1114 11.948 18.9154 11.17 18.9146H7.393V16.6526C7.393 16.52 7.34032 16.3928 7.24655 16.299C7.15279 16.2053 7.02561 16.1526 6.893 16.1526H1.5C1.36739 16.1526 1.24021 16.2053 1.14645 16.299C1.05268 16.3928 1 16.52 1 16.6526V30.2616C1 30.3942 1.05268 30.5214 1.14645 30.6151C1.24021 30.7089 1.36739 30.7616 1.5 30.7616ZM11.17 19.9171C11.78 19.9179 12.3802 20.0716 12.9155 20.3641L15.2585 21.6471C15.332 21.6875 15.4146 21.7087 15.4985 21.7086H20.366C20.5848 21.7086 20.7946 21.7955 20.9494 21.9502C21.1041 22.1049 21.191 22.3148 21.191 22.5336C21.191 22.7524 21.1041 22.9622 20.9494 23.117C20.7946 23.2717 20.5848 23.3586 20.366 23.3586H16.55C16.4174 23.3586 16.2902 23.4113 16.1964 23.505C16.1027 23.5988 16.05 23.726 16.05 23.8586C16.05 23.9912 16.1027 24.1184 16.1964 24.2121C16.2902 24.3059 16.4174 24.3586 16.55 24.3586H23.676C24.1033 24.3587 24.5214 24.2341 24.879 24.0001L28.729 21.4906C28.9103 21.3691 29.1325 21.3245 29.3467 21.3668C29.5609 21.4091 29.7495 21.5347 29.871 21.7161C29.9925 21.8974 30.0371 22.1196 29.9948 22.3338C29.9525 22.548 29.8268 22.7366 29.6455 22.8581L22.271 27.9331C21.665 28.3514 20.9459 28.575 20.2095 28.5741H13.7095C13.2773 28.5744 12.8485 28.4972 12.4435 28.3461L7.3935 26.4681V19.9181L11.17 19.9171ZM2 17.1526H6.393V29.7616H2V17.1526Z" fill="black"/>
<path d="M4.69647 25.419V22.3225C4.69647 22.1899 4.6438 22.0627 4.55003 21.969C4.45626 21.8752 4.32908 21.8225 4.19647 21.8225C4.06386 21.8225 3.93669 21.8752 3.84292 21.969C3.74915 22.0627 3.69647 22.1899 3.69647 22.3225V25.419C3.25152 25.5401 2.86566 25.8187 2.61061 26.2029C2.35556 26.5871 2.24865 27.0508 2.30976 27.5079C2.37086 27.965 2.59582 28.3843 2.94284 28.688C3.28985 28.9918 3.73532 29.1592 4.19647 29.1592C4.65762 29.1592 5.10309 28.9918 5.45011 28.688C5.79712 28.3843 6.02208 27.965 6.08319 27.5079C6.14429 27.0508 6.03739 26.5871 5.78234 26.2029C5.52728 25.8187 5.14143 25.5401 4.69647 25.419ZM4.19647 28.1505C4.01778 28.1505 3.8431 28.0975 3.69452 27.9982C3.54594 27.899 3.43013 27.7579 3.36175 27.5928C3.29336 27.4277 3.27547 27.246 3.31033 27.0707C3.3452 26.8955 3.43125 26.7345 3.5576 26.6081C3.68396 26.4818 3.84495 26.3957 4.02021 26.3609C4.19547 26.326 4.37713 26.3439 4.54223 26.4123C4.70732 26.4807 4.84843 26.5965 4.94771 26.7451C5.04698 26.8936 5.09997 27.0683 5.09997 27.247C5.09944 27.4864 5.00407 27.7159 4.83473 27.8851C4.66539 28.0544 4.43589 28.1501 4.19647 28.1505Z" fill="black"/>
</svg>
