<svg width="32" height="32" viewBox="0 0 32 32" fill="none" xmlns="http://www.w3.org/2000/svg">
<path d="M4.39844 29.0255H17.8709V30.5C17.8709 30.6326 17.9236 30.7598 18.0174 30.8536C18.1112 30.9473 18.2383 31 18.3709 31H27.5984C27.731 31 27.8582 30.9473 27.952 30.8536C28.0458 30.7598 28.0984 30.6326 28.0984 30.5V17.185C28.0984 17.0524 28.0458 16.9252 27.952 16.8314C27.8582 16.7377 27.731 16.685 27.5984 16.685H19.6644C18.7452 15.9927 17.711 15.468 16.6094 15.135C18.1744 14.4761 19.4633 13.296 20.2572 11.7949C21.0511 10.2939 21.3013 8.5644 20.9652 6.89993C20.629 5.23547 19.7274 3.73855 18.4132 2.66322C17.099 1.58788 15.4533 1.00037 13.7552 1.00037C12.0571 1.00037 10.4114 1.58788 9.09717 2.66322C7.78298 3.73855 6.88133 5.23547 6.54522 6.89993C6.20911 8.5644 6.45924 10.2939 7.25317 11.7949C8.0471 13.296 9.33593 14.4761 10.9009 15.135C8.87704 15.7511 7.10435 17.0006 5.84377 18.6996C4.58318 20.3986 3.90129 22.4574 3.89844 24.573V28.5255C3.89844 28.6581 3.95112 28.7853 4.04488 28.8791C4.13865 28.9728 4.26583 29.0255 4.39844 29.0255ZM20.5344 17.685H21.8609V19.9465L21.5339 19.6465C21.4418 19.5623 21.3215 19.5156 21.1967 19.5156C21.0719 19.5156 20.9516 19.5623 20.8594 19.6465L20.5344 19.944V17.685ZM27.0984 30H18.8709V17.685H19.5344V21.0805C19.5344 21.1775 19.5626 21.2724 19.6156 21.3537C19.6686 21.4349 19.7441 21.499 19.8328 21.5381C19.9216 21.5773 20.0198 21.5897 20.1156 21.574C20.2113 21.5582 20.3004 21.515 20.3719 21.4495L21.1969 20.6945L22.0234 21.45C22.095 21.5155 22.1841 21.5587 22.2798 21.5745C22.3755 21.5902 22.4738 21.5778 22.5625 21.5386C22.6513 21.4995 22.7268 21.4354 22.7798 21.3542C22.8328 21.2729 22.861 21.178 22.8609 21.081V17.685H27.0984V30ZM7.39844 8.3555C7.39815 7.09967 7.76993 5.87191 8.46682 4.8272C9.16372 3.78248 10.1545 2.96764 11.3141 2.48554C12.4737 2.00344 13.7501 1.87568 14.9823 2.1184C16.2144 2.36112 17.3471 2.96343 18.2372 3.8493C19.1273 4.73517 19.735 5.8649 19.9837 7.09587C20.2323 8.32684 20.1106 9.60387 19.6341 10.7658C19.1575 11.9277 18.3475 12.9223 17.3061 13.6242C16.2647 14.3261 15.0388 14.7038 13.7829 14.7095H13.7564H13.7324C12.0518 14.7016 10.4425 14.0289 9.2562 12.8383C8.06988 11.6478 7.4029 10.0362 7.40094 8.3555H7.39844ZM4.89844 24.573C4.90053 22.228 5.83099 19.9792 7.48639 18.3183C9.14179 16.6574 11.3875 15.7194 13.7324 15.7095H13.7564H13.7829C15.2731 15.7101 16.7385 16.0909 18.0404 16.816C17.9876 16.8619 17.9451 16.9186 17.9159 16.9822C17.8867 17.0458 17.8713 17.115 17.8709 17.185V28.0255H4.89844V24.573Z" fill="black"/>
<path d="M20.6719 24.887C20.6719 25.3448 20.8076 25.7923 21.0619 26.1729C21.3163 26.5535 21.6777 26.8502 22.1007 27.0253C22.5236 27.2005 22.9889 27.2463 23.4379 27.157C23.8869 27.0677 24.2993 26.8473 24.623 26.5236C24.9467 26.1999 25.1671 25.7875 25.2564 25.3385C25.3457 24.8896 25.2999 24.4242 25.1247 24.0013C24.9495 23.5784 24.6529 23.2169 24.2722 22.9626C23.8916 22.7083 23.4441 22.5725 22.9864 22.5725C22.3727 22.5732 21.7844 22.8172 21.3505 23.2511C20.9166 23.6851 20.6725 24.2734 20.6719 24.887ZM24.3009 24.887C24.3009 25.147 24.2238 25.4011 24.0793 25.6173C23.9349 25.8335 23.7296 26.002 23.4894 26.1014C23.2492 26.2009 22.9849 26.227 22.7299 26.1763C22.4749 26.1255 22.2407 26.0003 22.0569 25.8165C21.873 25.6327 21.7479 25.3984 21.6971 25.1435C21.6464 24.8885 21.6724 24.6242 21.7719 24.384C21.8714 24.1438 22.0399 23.9385 22.2561 23.794C22.4722 23.6496 22.7264 23.5725 22.9864 23.5725C23.3345 23.5734 23.6681 23.7123 23.9141 23.9587C24.1601 24.205 24.2985 24.5388 24.2989 24.887H24.3009Z" fill="black"/>
<path d="M9.3217 8.09252C9.37164 7.4778 9.54706 6.87984 9.83713 6.33556C10.1272 5.79128 10.5258 5.31224 11.0082 4.92802C11.0597 4.88735 11.1028 4.83692 11.1348 4.77961C11.1669 4.7223 11.1873 4.65925 11.195 4.59404C11.2027 4.52883 11.1975 4.46274 11.1796 4.39956C11.1618 4.33637 11.1316 4.27732 11.091 4.22577C11.0503 4.17423 10.9998 4.1312 10.9425 4.09915C10.8852 4.06709 10.8222 4.04664 10.757 4.03896C10.6918 4.03127 10.6257 4.03651 10.5625 4.05437C10.4993 4.07222 10.4402 4.10235 10.3887 4.14302C9.79715 4.61509 9.30869 5.20345 8.95351 5.87176C8.59833 6.54006 8.38398 7.2741 8.3237 8.02852C8.29339 8.90552 8.46674 9.7776 8.83014 10.5763C9.19355 11.3751 9.73712 12.0787 10.4182 12.632C10.5228 12.7096 10.6536 12.7433 10.7827 12.726C10.9118 12.7086 11.0291 12.6416 11.1095 12.5391C11.1899 12.4366 11.2271 12.3067 11.2132 12.1772C11.1994 12.0477 11.1355 11.9287 11.0352 11.8455C10.4793 11.3946 10.0354 10.8212 9.73812 10.1701C9.44085 9.51897 9.29833 8.80789 9.3217 8.09252Z" fill="black"/>
</svg>
