<svg width="32" height="32" viewBox="0 0 32 32" fill="none" xmlns="http://www.w3.org/2000/svg">
<path d="M30.5 6.51196H1.5C1.36739 6.51196 1.24021 6.56464 1.14645 6.65841C1.05268 6.75218 1 6.87935 1 7.01196V24.988C1 25.1206 1.05268 25.2477 1.14645 25.3415C1.24021 25.4353 1.36739 25.488 1.5 25.488H30.5C30.6326 25.488 30.7598 25.4353 30.8536 25.3415C30.9473 25.2477 31 25.1206 31 24.988V7.01196C31 6.87935 30.9473 6.75218 30.8536 6.65841C30.7598 6.56464 30.6326 6.51196 30.5 6.51196ZM30 7.51196V10.262H2V7.51196H30ZM2 24.488V11.26H30V24.488H2Z" fill="black"/>
<path d="M28.2193 9.15496C28.2641 9.2029 28.3189 9.24044 28.3798 9.26496C28.4413 9.29099 28.5074 9.30443 28.5743 9.30446C28.6396 9.30372 28.7042 9.29009 28.7642 9.26435C28.8243 9.23861 28.8787 9.20127 28.9243 9.15446C28.9706 9.10859 29.0078 9.05428 29.0338 8.99446C29.0583 8.934 29.0704 8.8692 29.0693 8.80396C29.0698 8.73813 29.0573 8.67285 29.0324 8.6119C29.0075 8.55095 28.9708 8.49557 28.9243 8.44896C28.8541 8.38016 28.7652 8.33357 28.6686 8.31502C28.5721 8.29647 28.4723 8.30677 28.3816 8.34465C28.2909 8.38253 28.2133 8.4463 28.1587 8.52799C28.104 8.60969 28.0747 8.70567 28.0743 8.80396C28.0734 8.86918 28.0855 8.93393 28.1098 8.99446C28.134 9.05535 28.1714 9.11015 28.2193 9.15496Z" fill="black"/>
<path d="M26.2086 9.15497C26.2531 9.20301 26.3078 9.24057 26.3686 9.26497C26.4294 9.29105 26.4949 9.3045 26.5611 9.3045C26.6273 9.3045 26.6928 9.29105 26.7536 9.26497C26.8738 9.21141 26.97 9.11523 27.0236 8.99497C27.0593 8.90304 27.0679 8.8028 27.0484 8.70612C27.0289 8.60945 26.9821 8.52038 26.9136 8.44947C26.8178 8.36049 26.6919 8.31104 26.5611 8.31104C26.4303 8.31104 26.3044 8.36049 26.2086 8.44947C26.1139 8.54351 26.06 8.67103 26.0586 8.80447C26.059 8.87001 26.0726 8.93479 26.0986 8.99497C26.1228 9.0559 26.1604 9.1106 26.2086 9.15497Z" fill="black"/>
<path d="M24.2003 9.15497C24.2694 9.22641 24.3585 9.27517 24.4559 9.29482C24.5533 9.31446 24.6544 9.30405 24.7458 9.26497C24.866 9.2114 24.9622 9.11523 25.0158 8.99497C25.0418 8.93493 25.0553 8.87017 25.0553 8.80472C25.0553 8.73927 25.0418 8.67452 25.0158 8.61447C24.9925 8.55164 24.9548 8.49514 24.9058 8.44947C24.8477 8.39162 24.7762 8.34905 24.6977 8.32558C24.6192 8.30211 24.5361 8.29847 24.4558 8.31497C24.4229 8.32042 24.3909 8.33035 24.3608 8.34447C24.3301 8.3548 24.3014 8.37018 24.2758 8.38997C24.2475 8.40552 24.222 8.42562 24.2003 8.44947C24.1528 8.49637 24.1156 8.55254 24.0908 8.61447C24.0644 8.67443 24.0508 8.73922 24.0508 8.80472C24.0508 8.87023 24.0644 8.93501 24.0908 8.99497C24.1168 9.05479 24.1539 9.1091 24.2003 9.15497Z" fill="black"/>
<path d="M10.2404 15.7335L8.74038 15.5155L8.07038 14.1575C7.99947 14.0126 7.88916 13.8905 7.7521 13.8054C7.61503 13.7202 7.45675 13.6754 7.29538 13.676C7.13416 13.6755 6.97605 13.7203 6.83915 13.8055C6.70226 13.8907 6.59213 14.0127 6.52138 14.1575L5.84938 15.5155L4.34938 15.7335C4.18984 15.7567 4.03996 15.8241 3.91669 15.928C3.79341 16.032 3.70166 16.1683 3.65178 16.3216C3.6019 16.4749 3.5959 16.6391 3.63444 16.7957C3.67298 16.9522 3.75453 17.0949 3.86988 17.2075L4.95438 18.2645L4.69938 19.758C4.67166 19.9171 4.68912 20.0807 4.74977 20.2303C4.81043 20.3799 4.91185 20.5094 5.0425 20.6042C5.17315 20.699 5.32778 20.7553 5.48881 20.7666C5.64983 20.7778 5.8108 20.7437 5.95338 20.668L7.29938 19.9635L8.63938 20.668C8.78207 20.7431 8.94292 20.7768 9.10375 20.7652C9.26457 20.7537 9.41896 20.6973 9.54943 20.6026C9.67991 20.5079 9.78127 20.3785 9.84205 20.2292C9.90284 20.0798 9.92062 19.9165 9.89338 19.7575L9.63738 18.265L10.7219 17.2075C10.8374 17.095 10.9191 16.9524 10.9578 16.7958C10.9965 16.6392 10.9906 16.475 10.9407 16.3216C10.8909 16.1682 10.7991 16.0318 10.6758 15.9279C10.5525 15.824 10.4025 15.7567 10.2429 15.7335H10.2404ZM8.88638 17.6C8.7858 17.6978 8.71048 17.8186 8.66693 17.9519C8.62338 18.0853 8.6129 18.2272 8.63638 18.3655L8.85788 19.6575L7.69938 19.045C7.57552 18.9798 7.43763 18.9457 7.29763 18.9457C7.15764 18.9457 7.01975 18.9798 6.89588 19.045L5.73488 19.655L5.95638 18.364C5.98017 18.2256 5.96984 18.0835 5.92627 17.9501C5.88271 17.8166 5.80723 17.6957 5.70638 17.598L4.76838 16.683L6.06538 16.495C6.20401 16.4749 6.33564 16.4214 6.4489 16.3389C6.56216 16.2565 6.65362 16.1478 6.71538 16.022L7.29938 14.8465L7.87938 16.023C7.9414 16.1484 8.03297 16.2569 8.1462 16.339C8.25944 16.4211 8.39094 16.4745 8.52938 16.4945L9.82638 16.683L8.88638 17.6Z" fill="black"/>
<path d="M18.9455 15.7335L17.4455 15.5155L16.7765 14.1575C16.705 14.0129 16.5946 13.8913 16.4577 13.8062C16.3207 13.7211 16.1627 13.676 16.0015 13.676C15.8403 13.676 15.6822 13.7211 15.5453 13.8062C15.4083 13.8913 15.2979 14.0129 15.2265 14.1575L14.556 15.5155L13.056 15.7335C12.8965 15.7568 12.7467 15.8242 12.6234 15.9281C12.5002 16.0321 12.4085 16.1684 12.3587 16.3217C12.3089 16.475 12.3029 16.6392 12.3415 16.7957C12.3801 16.9522 12.4616 17.0949 12.577 17.2075L13.6615 18.265L13.406 19.757C13.378 19.916 13.3952 20.0797 13.4556 20.2294C13.5161 20.3791 13.6174 20.5088 13.748 20.6037C13.8786 20.6987 14.0332 20.7551 14.1943 20.7664C14.3553 20.7778 14.5164 20.7437 14.659 20.668L16.0015 19.9635L17.342 20.668C17.4846 20.7431 17.6455 20.7769 17.8063 20.7653C17.9671 20.7538 18.1215 20.6974 18.252 20.6027C18.3824 20.5079 18.4838 20.3785 18.5445 20.2291C18.6052 20.0798 18.6228 19.9164 18.5955 19.7575L18.34 18.265L19.4245 17.2075C19.5398 17.0949 19.6214 16.9522 19.6599 16.7957C19.6985 16.6392 19.6926 16.475 19.6427 16.3217C19.5929 16.1684 19.5012 16.0321 19.378 15.9281C19.2548 15.8242 19.105 15.7568 18.9455 15.7335ZM17.5915 17.6C17.4907 17.6976 17.4153 17.8184 17.3717 17.9518C17.3282 18.0852 17.3178 18.2272 17.3415 18.3655L17.5625 19.657L16.4015 19.045C16.2775 18.9797 16.1396 18.9456 15.9995 18.9456C15.8594 18.9456 15.7214 18.9797 15.5975 19.045L14.4375 19.6545L14.659 18.362C14.6824 18.2239 14.6719 18.0822 14.6283 17.9491C14.5848 17.816 14.5095 17.6955 14.409 17.598L13.47 16.6825L14.767 16.4945C14.9056 16.4742 15.0371 16.4206 15.1504 16.3382C15.2636 16.2558 15.3551 16.1471 15.417 16.0215L16.0015 14.8465L16.5815 16.023C16.6435 16.1484 16.7351 16.2568 16.8483 16.3389C16.9615 16.4211 17.093 16.4744 17.2315 16.4945L18.529 16.683L17.5915 17.6Z" fill="black"/>
<path d="M27.6458 15.7335L26.1458 15.5155L25.4748 14.1575C25.4041 14.0126 25.294 13.8906 25.1571 13.8054C25.0201 13.7203 24.862 13.6754 24.7008 13.676C24.5394 13.6754 24.3811 13.7202 24.2441 13.8054C24.107 13.8905 23.9967 14.0126 23.9258 14.1575L23.2558 15.5155L21.7558 15.7335C21.5962 15.7567 21.4462 15.824 21.3229 15.9279C21.1995 16.0318 21.1078 16.1682 21.0579 16.3216C21.0081 16.475 21.0022 16.6392 21.0408 16.7958C21.0795 16.9524 21.1612 17.095 21.2768 17.2075L22.3613 18.265L22.1053 19.757C22.0775 19.9162 22.0949 20.0799 22.1555 20.2296C22.2161 20.3793 22.3176 20.509 22.4483 20.6039C22.579 20.6989 22.7337 20.7552 22.8949 20.7665C23.056 20.7778 23.2171 20.7437 23.3598 20.668L24.6993 19.9635L26.0398 20.668C26.1826 20.7445 26.3441 20.7792 26.5058 20.7683C26.6674 20.7574 26.8227 20.7013 26.954 20.6064C27.0854 20.5114 27.1873 20.3815 27.2484 20.2315C27.3094 20.0814 27.3271 19.9172 27.2993 19.7575L27.0433 18.2645L28.1278 17.2075C28.2431 17.0949 28.3247 16.9522 28.3632 16.7957C28.4018 16.6391 28.3958 16.4749 28.3459 16.3216C28.296 16.1683 28.2042 16.032 28.081 15.928C27.9577 15.8241 27.8078 15.7567 27.6483 15.7335H27.6458ZM26.2918 17.6C26.1909 17.6976 26.1155 17.8184 26.0719 17.9518C26.0283 18.0852 26.018 18.2272 26.0418 18.3655L26.2633 19.6575L25.1038 19.045C24.9798 18.9799 24.8418 18.9458 24.7018 18.9458C24.5617 18.9458 24.4238 18.9799 24.2998 19.045L23.1398 19.655L23.3618 18.362C23.385 18.224 23.3743 18.0823 23.3308 17.9493C23.2872 17.8162 23.2121 17.6957 23.1118 17.598L22.1728 16.6825L23.4693 16.4945C23.6079 16.4743 23.7394 16.4207 23.8527 16.3383C23.9659 16.2559 24.0574 16.1472 24.1193 16.0215L24.6993 14.846L25.2793 16.0205C25.3409 16.1464 25.4323 16.2554 25.5456 16.3379C25.6588 16.4204 25.7906 16.474 25.9293 16.494L27.2293 16.6825L26.2918 17.6Z" fill="black"/>
<path d="M4.11328 9.30396H11.6293C11.7619 9.30396 11.8891 9.25128 11.9828 9.15751C12.0766 9.06374 12.1293 8.93656 12.1293 8.80396C12.1293 8.67135 12.0766 8.54417 11.9828 8.4504C11.8891 8.35663 11.7619 8.30396 11.6293 8.30396H4.11328C3.98067 8.30396 3.8535 8.35663 3.75973 8.4504C3.66596 8.54417 3.61328 8.67135 3.61328 8.80396C3.61328 8.93656 3.66596 9.06374 3.75973 9.15751C3.8535 9.25128 3.98067 9.30396 4.11328 9.30396Z" fill="black"/>
</svg>
