<svg width="32" height="32" viewBox="0 0 32 32" fill="none" xmlns="http://www.w3.org/2000/svg">
<path d="M30.5 26.4249H1.5C1.36739 26.4249 1.24021 26.3723 1.14645 26.2785C1.05268 26.1847 1 26.0576 1 25.9249V6.07495C1 5.94234 1.05268 5.81517 1.14645 5.7214C1.24021 5.62763 1.36739 5.57495 1.5 5.57495H30.5C30.6326 5.57495 30.7598 5.62763 30.8536 5.7214C30.9473 5.81517 31 5.94234 31 6.07495V25.9249C31 26.0576 30.9473 26.1847 30.8536 26.2785C30.7598 26.3723 30.6326 26.4249 30.5 26.4249ZM2 25.4249H30V6.57495H2V25.4249Z" fill="black"/>
<path d="M30.5 22.9H1.5C1.36739 22.9 1.24021 22.8473 1.14645 22.7536C1.05268 22.6598 1 22.5326 1 22.4C1 22.2674 1.05268 22.1402 1.14645 22.0465C1.24021 21.9527 1.36739 21.9 1.5 21.9H30.5C30.6326 21.9 30.7598 21.9527 30.8536 22.0465C30.9473 22.1402 31 22.2674 31 22.4C31 22.5326 30.9473 22.6598 30.8536 22.7536C30.7598 22.8473 30.6326 22.9 30.5 22.9Z" fill="black"/>
<path d="M9.0835 22.9H5.5625C5.42989 22.9 5.30271 22.8474 5.20895 22.7536C5.11518 22.6598 5.0625 22.5326 5.0625 22.4V17.4205C5.0625 17.2879 5.11518 17.1607 5.20895 17.067C5.30271 16.9732 5.42989 16.9205 5.5625 16.9205H9.0835C9.21611 16.9205 9.34329 16.9732 9.43705 17.067C9.53082 17.1607 9.5835 17.2879 9.5835 17.4205V22.4C9.5835 22.5326 9.53082 22.6598 9.43705 22.7536C9.34329 22.8474 9.21611 22.9 9.0835 22.9ZM6.0625 21.9H8.5835V17.9205H6.0625V21.9Z" fill="black"/>
<path d="M14.8701 22.9H11.3516C11.219 22.9 11.0918 22.8473 10.998 22.7535C10.9042 22.6597 10.8516 22.5326 10.8516 22.4V16.012C10.8516 15.8794 10.9042 15.7522 10.998 15.6584C11.0918 15.5646 11.219 15.512 11.3516 15.512H14.8726C15.0052 15.512 15.1323 15.5646 15.2261 15.6584C15.3199 15.7522 15.3726 15.8794 15.3726 16.012V22.4C15.3726 22.4658 15.3595 22.5311 15.3343 22.5919C15.309 22.6527 15.2719 22.7079 15.2252 22.7544C15.1785 22.8009 15.1231 22.8376 15.0622 22.8626C15.0012 22.8876 14.9359 22.9003 14.8701 22.9ZM11.8491 21.9H14.3701V16.512H11.8516L11.8491 21.9Z" fill="black"/>
<path d="M20.6533 22.9H17.1328C17.0002 22.9 16.873 22.8474 16.7793 22.7536C16.6855 22.6598 16.6328 22.5327 16.6328 22.4V14.05C16.6328 13.9174 16.6855 13.7903 16.7793 13.6965C16.873 13.6027 17.0002 13.55 17.1328 13.55H20.6533C20.7859 13.55 20.9131 13.6027 21.0069 13.6965C21.1006 13.7903 21.1533 13.9174 21.1533 14.05V22.4C21.1533 22.5327 21.1006 22.6598 21.0069 22.7536C20.9131 22.8474 20.7859 22.9 20.6533 22.9ZM17.6328 21.9H20.1533V14.55H17.6328V21.9Z" fill="black"/>
<path d="M26.4351 22.9H22.9141C22.7815 22.9 22.6543 22.8473 22.5605 22.7535C22.4667 22.6597 22.4141 22.5326 22.4141 22.4V10.882C22.4141 10.7493 22.4667 10.6222 22.5605 10.5284C22.6543 10.4346 22.7815 10.382 22.9141 10.382H26.4351C26.5677 10.382 26.6948 10.4346 26.7886 10.5284C26.8824 10.6222 26.9351 10.7493 26.9351 10.882V22.4C26.9351 22.5326 26.8824 22.6597 26.7886 22.7535C26.6948 22.8473 26.5677 22.9 26.4351 22.9ZM23.4141 21.9H25.9351V11.382H23.4141V21.9Z" fill="black"/>
<path d="M6.70456 16.2585C6.60597 16.2588 6.5095 16.2299 6.42727 16.1755C6.34505 16.1212 6.28074 16.0437 6.24243 15.9528C6.20411 15.862 6.19351 15.7619 6.21195 15.665C6.23039 15.5682 6.27704 15.4789 6.34606 15.4085L9.09606 12.5815C9.14229 12.531 9.19913 12.4914 9.2625 12.4655C9.32586 12.4395 9.39418 12.4279 9.46256 12.4315C9.53071 12.4328 9.59789 12.4479 9.66003 12.4759C9.72217 12.504 9.77797 12.5443 9.82406 12.5945L11.2491 14.1565L14.6091 10.997C14.6948 10.9164 14.8062 10.8685 14.9237 10.8619C15.0413 10.8553 15.1574 10.8904 15.2516 10.961L16.5781 11.956L19.8146 8.68252L19.2681 8.76652C19.1382 8.78368 19.0069 8.74923 18.9022 8.67057C18.7975 8.5919 18.7278 8.47531 18.7082 8.34585C18.6885 8.21638 18.7205 8.08438 18.7971 7.9782C18.8738 7.87202 18.989 7.80015 19.1181 7.77802L21.1596 7.46402C21.2535 7.44978 21.3496 7.46261 21.4366 7.50102H21.4396C21.4561 7.50902 21.4721 7.51702 21.4896 7.52602C21.5662 7.57176 21.6292 7.6372 21.6721 7.71552C21.6764 7.72293 21.6802 7.73062 21.6836 7.73852C21.7166 7.8066 21.7337 7.88133 21.7336 7.95702V10.127C21.7336 10.2596 21.6809 10.3868 21.5871 10.4806C21.4933 10.5743 21.3662 10.627 21.2336 10.627C21.1009 10.627 20.9738 10.5743 20.88 10.4806C20.7862 10.3868 20.7336 10.2596 20.7336 10.127V9.17452L16.9836 12.9685C16.8988 13.0547 16.7857 13.1072 16.6652 13.1164C16.5447 13.1256 16.4249 13.0908 16.3281 13.0185L14.9891 12.014L11.5651 15.234C11.4665 15.324 11.337 15.3725 11.2036 15.3695C11.1373 15.3669 11.0723 15.3512 11.0122 15.3232C10.9521 15.2952 10.8982 15.2555 10.8536 15.2065L9.44456 13.662L7.06556 16.1085C7.01866 16.1567 6.96249 16.1948 6.90044 16.2205C6.83839 16.2463 6.77175 16.2592 6.70456 16.2585Z" fill="black"/>
<path d="M3.53125 11.1776C3.39864 11.1776 3.27146 11.1249 3.1777 11.0311C3.08393 10.9373 3.03125 10.8102 3.03125 10.6776V8.09656C3.03125 7.96395 3.08393 7.83677 3.1777 7.743C3.27146 7.64924 3.39864 7.59656 3.53125 7.59656H7.14475C7.27736 7.59656 7.40454 7.64924 7.4983 7.743C7.59207 7.83677 7.64475 7.96395 7.64475 8.09656C7.64475 8.22917 7.59207 8.35634 7.4983 8.45011C7.40454 8.54388 7.27736 8.59656 7.14475 8.59656H4.03125V10.6776C4.03125 10.8102 3.97857 10.9373 3.8848 11.0311C3.79104 11.1249 3.66386 11.1776 3.53125 11.1776Z" fill="black"/>
<path d="M9.41872 8.59656H8.94922C8.81661 8.59656 8.68943 8.54388 8.59567 8.45011C8.5019 8.35634 8.44922 8.22917 8.44922 8.09656C8.44922 7.96395 8.5019 7.83677 8.59567 7.743C8.68943 7.64924 8.81661 7.59656 8.94922 7.59656H9.41722C9.54983 7.59656 9.677 7.64924 9.77077 7.743C9.86454 7.83677 9.91722 7.96395 9.91722 8.09656C9.91722 8.22917 9.86454 8.35634 9.77077 8.45011C9.677 8.54388 9.54983 8.59656 9.41722 8.59656H9.41872Z" fill="black"/>
</svg>
