<svg width="600" height="400" viewBox="0 0 600 400" fill="none" xmlns="http://www.w3.org/2000/svg">
<g clip-path="url(#clip0_17155_120678)">
<path d="M207.482 72.8207C207.482 78.7823 202.65 83.6151 196.688 83.6151C190.727 83.6151 185.895 78.7823 185.895 72.8207C185.895 66.8599 190.727 62.0271 196.688 62.0271C202.65 62.0271 207.482 66.8599 207.482 72.8207Z" fill="#5A5BB5"/>
<path d="M207.482 72.8207C207.482 78.7823 202.65 83.6151 196.688 83.6151C190.727 83.6151 185.895 78.7823 185.895 72.8207C185.895 66.8599 190.727 62.0271 196.688 62.0271C202.65 62.0271 207.482 66.8599 207.482 72.8207Z" fill="white" fill-opacity="0.8"/>
<path d="M435.372 66.2415C435.372 69.8039 432.484 72.6919 428.921 72.6919C425.359 72.6919 422.471 69.8039 422.471 66.2415C422.471 62.6791 425.359 59.7903 428.921 59.7903C432.484 59.7903 435.372 62.6791 435.372 66.2415Z" fill="#5A5BB5"/>
<path d="M435.372 66.2415C435.372 69.8039 432.484 72.6919 428.921 72.6919C425.359 72.6919 422.471 69.8039 422.471 66.2415C422.471 62.6791 425.359 59.7903 428.921 59.7903C432.484 59.7903 435.372 62.6791 435.372 66.2415Z" fill="white" fill-opacity="0.8"/>
<path d="M135.283 279.081C111.791 258.126 91.697 228.729 98.6978 197.462C103.171 177.484 119.793 167.157 137.02 158.734C152.651 151.092 166.555 143.884 179.357 131.721C203.746 108.548 222.23 78.5487 251.443 61.0287C289.813 38.0167 337.559 43.6735 377.846 58.5567C378.253 58.7087 378.66 58.8599 379.067 59.0111C416.79 73.1823 451.071 98.0848 474.68 130.904C483.231 142.791 490.346 155.729 495.535 169.431C497.814 175.446 499.671 181.62 501.054 187.903C506.655 213.375 497.892 242.726 477.816 260.024C452.689 281.673 417.834 284.063 388.235 296.404C365.925 305.706 347.393 322.904 324.121 329.9C304.352 335.842 283.075 334.638 262.876 331.893C224.975 326.742 186.095 315.538 153.927 293.631C147.761 289.432 141.406 284.543 135.283 279.081Z" fill="white"/>
<path d="M450.04 220.306C444.519 232.849 420.751 288.602 403.666 317.242C402.284 319.537 400.955 321.669 399.686 323.574C397.543 322.794 395.305 321.958 392.98 321.052C392.616 320.916 392.259 320.766 391.88 320.625C390.553 320.103 389.197 319.569 387.819 319.008C387.118 318.714 386.412 318.436 385.697 318.137C387.138 316.219 388.819 313.931 390.623 311.31C399.713 298.11 411.962 276.603 414.596 253.541C418.891 215.915 407.5 226.824 424.347 202.807C441.188 178.804 444.872 156.803 443.971 139.05C443.051 121.306 445.252 110.548 449.724 111.026C454.216 111.495 451.705 140.205 457.852 157.349C463.999 174.493 456.327 206.016 450.04 220.306Z" fill="#5A5BB5"/>
<path d="M450.04 220.306C444.519 232.849 420.751 288.602 403.666 317.242C402.284 319.537 400.955 321.669 399.686 323.574C397.543 322.794 395.305 321.958 392.98 321.052C392.616 320.916 392.259 320.766 391.88 320.625C390.553 320.103 389.197 319.569 387.819 319.008C387.118 318.714 386.412 318.436 385.697 318.137C387.138 316.219 388.819 313.931 390.623 311.31C399.713 298.11 411.962 276.603 414.596 253.541C418.891 215.915 407.5 226.824 424.347 202.807C441.188 178.804 444.872 156.803 443.971 139.05C443.051 121.306 445.252 110.548 449.724 111.026C454.216 111.495 451.705 140.205 457.852 157.349C463.999 174.493 456.327 206.016 450.04 220.306Z" fill="white" fill-opacity="0.8"/>
<path d="M449.288 121.938C449.288 121.938 449.13 124.902 449.129 130.086C449.095 135.262 449.212 142.686 450.151 151.465C450.702 155.79 451.468 160.704 451.459 165.861C451.474 171.033 450.89 176.518 449.483 182.01C448.084 187.499 445.939 192.983 443.188 198.227C440.377 203.326 438.226 208.666 436.529 214.29C433.158 225.505 431.24 237.284 428.04 248.022C424.915 258.787 420.822 268.41 417.024 276.48C413.194 284.547 409.362 290.938 406.553 295.31C403.687 299.652 401.824 301.964 401.824 301.964C401.824 301.964 403.524 299.526 406.07 295.015C408.672 290.538 411.977 283.912 415.542 275.805C419.083 267.686 422.678 257.971 425.586 247.333C428.507 236.69 430.367 224.978 433.759 213.45C435.505 207.73 437.842 202.035 440.719 196.931C443.433 191.866 445.562 186.613 447.023 181.361C448.464 176.102 449.189 170.849 449.351 165.835C449.526 160.786 448.979 156.125 448.536 151.622C447.848 142.684 448.301 135.249 448.57 130.066C448.927 124.882 449.288 121.938 449.288 121.938Z" fill="#5A5BB5"/>
<path d="M449.288 121.938C449.288 121.938 449.13 124.902 449.129 130.086C449.095 135.262 449.212 142.686 450.151 151.465C450.702 155.79 451.468 160.704 451.459 165.861C451.474 171.033 450.89 176.518 449.483 182.01C448.084 187.499 445.939 192.983 443.188 198.227C440.377 203.326 438.226 208.666 436.529 214.29C433.158 225.505 431.24 237.284 428.04 248.022C424.915 258.787 420.822 268.41 417.024 276.48C413.194 284.547 409.362 290.938 406.553 295.31C403.687 299.652 401.824 301.964 401.824 301.964C401.824 301.964 403.524 299.526 406.07 295.015C408.672 290.538 411.977 283.912 415.542 275.805C419.083 267.686 422.678 257.971 425.586 247.333C428.507 236.69 430.367 224.978 433.759 213.45C435.505 207.73 437.842 202.035 440.719 196.931C443.433 191.866 445.562 186.613 447.023 181.361C448.464 176.102 449.189 170.849 449.351 165.835C449.526 160.786 448.979 156.125 448.536 151.622C447.848 142.684 448.301 135.249 448.57 130.066C448.927 124.882 449.288 121.938 449.288 121.938Z" fill="white" fill-opacity="0.5"/>
<path d="M472.182 200.74C468.662 205.534 465.45 211.197 462.2 217.432C453.174 234.692 443.772 256.382 426.379 276.406L426.373 276.421C424.786 278.243 423.142 280.042 421.421 281.825C412.843 290.753 406.081 298.071 400.826 303.92L400.798 303.942C399.409 305.494 398.131 306.942 396.943 308.293C395.6 309.815 394.394 311.209 393.298 312.464C392.597 313.296 391.939 314.062 391.341 314.77C389.906 316.471 388.743 317.883 387.818 319.008C386.283 318.382 384.704 317.738 383.117 317.073L381.23 316.282C379.448 315.52 377.71 314.775 376.006 314.028C375.189 313.652 374.38 313.297 373.586 312.946C372.488 312.437 371.427 311.959 370.367 311.482C370.929 310.221 371.698 308.544 372.661 306.527L372.709 306.413C372.921 305.946 373.146 305.487 373.37 304.993C373.469 304.798 373.562 304.618 373.659 304.424C374.037 303.642 374.427 302.83 374.85 301.982C376.415 298.806 378.276 295.165 380.4 291.215L380.412 291.186C382.044 288.174 383.823 284.969 385.75 281.692C385.88 281.461 386.025 281.236 386.162 280.99C390.178 274.169 394.795 266.994 399.87 260.214C400.353 259.542 400.858 258.896 401.349 258.245C403.075 256.01 404.826 253.836 406.63 251.735C409.722 248.123 412.706 244.65 415.564 241.276L415.57 241.262C422.333 233.338 428.437 225.946 433.784 218.674L433.796 218.646C442.282 207.092 448.884 195.858 453.194 183.278C454.81 178.577 457.142 173.251 459.902 167.702L459.908 167.688C471.128 145.028 489.047 118.973 490.466 119.315C492.218 119.746 490.976 131.46 488.273 146.864C485.584 162.274 486.332 181.476 472.182 200.74Z" fill="#5A5BB5"/>
<path d="M472.182 200.74C468.662 205.534 465.45 211.197 462.2 217.432C453.174 234.692 443.772 256.382 426.379 276.406L426.373 276.421C424.786 278.243 423.142 280.042 421.421 281.825C412.843 290.753 406.081 298.071 400.826 303.92L400.798 303.942C399.409 305.494 398.131 306.942 396.943 308.293C395.6 309.815 394.394 311.209 393.298 312.464C392.597 313.296 391.939 314.062 391.341 314.77C389.906 316.471 388.743 317.883 387.818 319.008C386.283 318.382 384.704 317.738 383.117 317.073L381.23 316.282C379.448 315.52 377.71 314.775 376.006 314.028C375.189 313.652 374.38 313.297 373.586 312.946C372.488 312.437 371.427 311.959 370.367 311.482C370.929 310.221 371.698 308.544 372.661 306.527L372.709 306.413C372.921 305.946 373.146 305.487 373.37 304.993C373.469 304.798 373.562 304.618 373.659 304.424C374.037 303.642 374.427 302.83 374.85 301.982C376.415 298.806 378.276 295.165 380.4 291.215L380.412 291.186C382.044 288.174 383.823 284.969 385.75 281.692C385.88 281.461 386.025 281.236 386.162 280.99C390.178 274.169 394.795 266.994 399.87 260.214C400.353 259.542 400.858 258.896 401.349 258.245C403.075 256.01 404.826 253.836 406.63 251.735C409.722 248.123 412.706 244.65 415.564 241.276L415.57 241.262C422.333 233.338 428.437 225.946 433.784 218.674L433.796 218.646C442.282 207.092 448.884 195.858 453.194 183.278C454.81 178.577 457.142 173.251 459.902 167.702L459.908 167.688C471.128 145.028 489.047 118.973 490.466 119.315C492.218 119.746 490.976 131.46 488.273 146.864C485.584 162.274 486.332 181.476 472.182 200.74Z" fill="white" fill-opacity="0.8"/>
<path d="M485.203 135.51C485.203 135.51 484.128 138.588 482.247 143.974C480.325 149.329 477.544 157.078 474.267 166.204C472.582 170.789 470.752 175.77 468.816 181.033C466.853 186.387 463.964 191.682 460.62 196.862C453.896 207.219 445.343 217.137 437.929 227.722C430.562 238.332 424.403 249.837 418.066 260.311C411.818 270.834 405.34 280.345 399.377 288.085C393.527 295.825 388.555 302.401 385.12 306.941C381.64 311.458 379.652 314.039 379.652 314.039C379.652 314.039 381.476 311.336 384.668 306.602C387.89 301.916 392.557 295.129 398.05 287.142C403.817 279.234 409.787 269.594 415.868 259.019C421.968 248.469 428.096 236.923 435.553 226.069C443.151 215.338 451.704 205.488 458.498 195.459C461.85 190.431 464.794 185.377 466.851 180.264C468.943 175.073 470.924 170.16 472.747 165.638C476.433 156.661 479.563 149.038 481.726 143.77C483.938 138.514 485.203 135.51 485.203 135.51Z" fill="#5A5BB5"/>
<path d="M485.203 135.51C485.203 135.51 484.128 138.588 482.247 143.974C480.325 149.329 477.544 157.078 474.267 166.204C472.582 170.789 470.752 175.77 468.816 181.033C466.853 186.387 463.964 191.682 460.62 196.862C453.896 207.219 445.343 217.137 437.929 227.722C430.562 238.332 424.403 249.837 418.066 260.311C411.818 270.834 405.34 280.345 399.377 288.085C393.527 295.825 388.555 302.401 385.12 306.941C381.64 311.458 379.652 314.039 379.652 314.039C379.652 314.039 381.476 311.336 384.668 306.602C387.89 301.916 392.557 295.129 398.05 287.142C403.817 279.234 409.787 269.594 415.868 259.019C421.968 248.469 428.096 236.923 435.553 226.069C443.151 215.338 451.704 205.488 458.498 195.459C461.85 190.431 464.794 185.377 466.851 180.264C468.943 175.073 470.924 170.16 472.747 165.638C476.433 156.661 479.563 149.038 481.726 143.77C483.938 138.514 485.203 135.51 485.203 135.51Z" fill="white" fill-opacity="0.5"/>
<path d="M382.288 316.726L381.23 316.282C379.448 315.52 377.71 314.775 376.006 314.028C375.189 313.652 374.38 313.297 373.586 312.946C373.4 310.5 373.305 307.838 373.37 304.993C373.377 304.776 373.374 304.541 373.402 304.316C373.465 301.638 373.669 298.782 374.066 295.789C374.65 291.06 375.662 285.955 377.228 280.493C380.986 267.464 384.91 259.058 388.827 252.312L388.833 252.298C389.482 251.191 390.105 250.142 390.758 249.104C393.214 245.125 395.654 241.626 398.018 237.827C400.66 233.606 403.195 229.038 405.559 223.071C413.934 201.908 409.574 195.344 408.183 180.527C408.136 179.919 408.082 179.326 408.054 178.71L408.051 178.674C407.845 173.63 408.63 168.548 410.024 163.57C412.577 154.505 417.122 145.738 421.227 138.062C427.841 125.641 433.662 107.206 436.66 107.992C439.665 108.762 442.63 141.329 437.226 168.962C435.892 175.798 434.658 182.036 433.284 187.964C429.738 203.334 425.243 216.678 415.554 233.071C413.864 235.942 412.001 238.91 409.964 242.006C406.943 246.572 404.058 252.137 401.349 258.245C400.884 259.277 400.432 260.314 399.983 261.387C394.109 275.294 389.102 291.465 385.408 304.941L385.402 304.956C385.18 305.686 384.998 306.4 384.797 307.122C384.665 307.638 384.518 308.149 384.386 308.664C383.626 311.522 382.913 314.231 382.288 316.726Z" fill="#5A5BB5"/>
<path d="M382.288 316.726L381.23 316.282C379.448 315.52 377.71 314.775 376.006 314.028C375.189 313.652 374.38 313.297 373.586 312.946C373.4 310.5 373.305 307.838 373.37 304.993C373.377 304.776 373.374 304.541 373.402 304.316C373.465 301.638 373.669 298.782 374.066 295.789C374.65 291.06 375.662 285.955 377.228 280.493C380.986 267.464 384.91 259.058 388.827 252.312L388.833 252.298C389.482 251.191 390.105 250.142 390.758 249.104C393.214 245.125 395.654 241.626 398.018 237.827C400.66 233.606 403.195 229.038 405.559 223.071C413.934 201.908 409.574 195.344 408.183 180.527C408.136 179.919 408.082 179.326 408.054 178.71L408.051 178.674C407.845 173.63 408.63 168.548 410.024 163.57C412.577 154.505 417.122 145.738 421.227 138.062C427.841 125.641 433.662 107.206 436.66 107.992C439.665 108.762 442.63 141.329 437.226 168.962C435.892 175.798 434.658 182.036 433.284 187.964C429.738 203.334 425.243 216.678 415.554 233.071C413.864 235.942 412.001 238.91 409.964 242.006C406.943 246.572 404.058 252.137 401.349 258.245C400.884 259.277 400.432 260.314 399.983 261.387C394.109 275.294 389.102 291.465 385.408 304.941L385.402 304.956C385.18 305.686 384.998 306.4 384.797 307.122C384.665 307.638 384.518 308.149 384.386 308.664C383.626 311.522 382.913 314.231 382.288 316.726Z" fill="white" fill-opacity="0.8"/>
<path d="M433.511 127.228C433.511 127.228 432.496 130.011 431.132 134.994C429.726 139.962 428.05 147.157 426.718 155.877C426.026 160.232 425.557 164.99 425.318 170.022C425.094 175.056 424.967 180.471 424.493 186.012C423.604 197.095 421.855 209.019 417.664 220.334C415.571 225.946 412.521 231.367 409.217 236.124C405.992 240.966 402.854 245.726 399.958 250.419C394.175 259.803 389.401 268.939 386.019 277.09C382.687 285.25 380.375 292.269 379.185 297.293C378.452 299.773 378.127 301.78 377.791 303.125C377.488 304.478 377.328 305.201 377.328 305.201C377.328 305.201 377.439 304.47 377.647 303.099C377.888 301.735 378.075 299.698 378.633 297.167C379.601 292.078 381.375 284.843 384.505 276.49C387.681 268.166 392.075 258.681 397.773 249.103C400.591 244.299 403.7 239.457 406.886 234.588C410.171 229.758 412.924 224.79 414.956 219.307C419.058 208.423 420.844 196.729 421.958 185.783C422.519 180.287 422.809 174.993 423.211 169.888C423.632 164.783 424.293 159.988 425.118 155.608C426.726 146.834 428.963 139.74 430.596 134.828C432.308 129.933 433.511 127.228 433.511 127.228Z" fill="#5A5BB5"/>
<path d="M433.511 127.228C433.511 127.228 432.496 130.011 431.132 134.994C429.726 139.962 428.05 147.157 426.718 155.877C426.026 160.232 425.557 164.99 425.318 170.022C425.094 175.056 424.967 180.471 424.493 186.012C423.604 197.095 421.855 209.019 417.664 220.334C415.571 225.946 412.521 231.367 409.217 236.124C405.992 240.966 402.854 245.726 399.958 250.419C394.175 259.803 389.401 268.939 386.019 277.09C382.687 285.25 380.375 292.269 379.185 297.293C378.452 299.773 378.127 301.78 377.791 303.125C377.488 304.478 377.328 305.201 377.328 305.201C377.328 305.201 377.439 304.47 377.647 303.099C377.888 301.735 378.075 299.698 378.633 297.167C379.601 292.078 381.375 284.843 384.505 276.49C387.681 268.166 392.075 258.681 397.773 249.103C400.591 244.299 403.7 239.457 406.886 234.588C410.171 229.758 412.924 224.79 414.956 219.307C419.058 208.423 420.844 196.729 421.958 185.783C422.519 180.287 422.809 174.993 423.211 169.888C423.632 164.783 424.293 159.988 425.118 155.608C426.726 146.834 428.963 139.74 430.596 134.828C432.308 129.933 433.511 127.228 433.511 127.228Z" fill="white" fill-opacity="0.5"/>
<path d="M314.654 284.646C287.677 211.611 283.729 85.9392 283.729 85.9392L146.871 110.942C146.871 110.942 150.819 236.614 177.796 309.648L314.654 284.646Z" fill="#5A5BB5"/>
<path d="M314.654 284.646C287.677 211.611 283.729 85.9392 283.729 85.9392L146.871 110.942C146.871 110.942 150.819 236.614 177.796 309.648L314.654 284.646Z" fill="white" fill-opacity="0.8"/>
<path d="M163.721 161.405L271.524 142.177L271.337 138.728L163.5 157.962L163.721 161.405Z" fill="#5A5BB5"/>
<path d="M163.721 161.405L271.524 142.177L271.337 138.728L163.5 157.962L163.721 161.405Z" fill="white" fill-opacity="0.65"/>
<path d="M161.526 139.193L269.329 119.965L268.673 109.174L160.836 128.409L161.526 139.193Z" fill="#5A5BB5"/>
<path d="M161.526 139.193L269.329 119.965L268.673 109.174L160.836 128.409L161.526 139.193Z" fill="white" fill-opacity="0.65"/>
<path d="M164.671 176.048L272.474 156.82L272.287 153.371L164.451 172.606L164.671 176.048Z" fill="#5A5BB5"/>
<path d="M164.671 176.048L272.474 156.82L272.287 153.371L164.451 172.606L164.671 176.048Z" fill="white" fill-opacity="0.65"/>
<path d="M165.937 190.691L273.74 171.463L273.553 168.014L165.717 187.249L165.937 190.691Z" fill="#5A5BB5"/>
<path d="M165.937 190.691L273.74 171.463L273.553 168.014L165.717 187.249L165.937 190.691Z" fill="white" fill-opacity="0.65"/>
<path d="M168.787 205.334L276.59 186.106L276.403 182.658L168.566 201.892L168.787 205.334Z" fill="#5A5BB5"/>
<path d="M168.787 205.334L276.59 186.106L276.403 182.658L168.566 201.892L168.787 205.334Z" fill="white" fill-opacity="0.65"/>
<path d="M170.686 219.978L278.488 200.75L278.302 197.301L170.465 216.535L170.686 219.978Z" fill="#5A5BB5"/>
<path d="M170.686 219.978L278.488 200.75L278.302 197.301L170.465 216.535L170.686 219.978Z" fill="white" fill-opacity="0.65"/>
<path d="M173.535 234.621L281.338 215.393L281.151 211.944L173.314 231.178L173.535 234.621Z" fill="#5A5BB5"/>
<path d="M173.535 234.621L281.338 215.393L281.151 211.944L173.314 231.178L173.535 234.621Z" fill="white" fill-opacity="0.65"/>
<path d="M176.068 249.264L283.871 230.036L283.684 226.587L175.848 245.822L176.068 249.264Z" fill="#5A5BB5"/>
<path d="M176.068 249.264L283.871 230.036L283.684 226.587L175.848 245.822L176.068 249.264Z" fill="white" fill-opacity="0.65"/>
<path d="M184.616 278.55L292.42 259.322L292.233 255.874L184.396 275.108L184.616 278.55Z" fill="#5A5BB5"/>
<path d="M184.616 278.55L292.42 259.322L292.233 255.874L184.396 275.108L184.616 278.55Z" fill="white" fill-opacity="0.65"/>
<path d="M180.818 263.907L288.622 244.679L288.434 241.23L180.598 260.465L180.818 263.907Z" fill="#5A5BB5"/>
<path d="M180.818 263.907L288.622 244.679L288.434 241.23L180.598 260.465L180.818 263.907Z" fill="white" fill-opacity="0.65"/>
<path d="M193.739 192.229C193.576 193.318 192.864 193.937 191.515 193.734L189.492 193.43L190.024 189.885L192.047 190.189C193.396 190.391 193.9 191.157 193.739 192.229ZM187.904 187.516L186.092 199.586L188.513 199.95L189.219 195.246L190.361 195.418L192.317 200.521L195.119 200.942L192.965 195.614C194.981 195.386 196.017 194.021 196.237 192.55C196.541 190.527 195.34 188.632 192.435 188.196L187.904 187.516Z" fill="#5A5BB5"/>
<path d="M205.995 190.214L198.992 189.162L197.178 201.25L204.181 202.302L204.477 200.33L199.895 199.642L200.375 196.443L204.439 197.054L204.727 195.134L200.663 194.524L201.117 191.498L205.7 192.186L205.995 190.214Z" fill="#5A5BB5"/>
<path d="M211.517 199.725C211.374 200.676 210.834 201.214 209.934 201.078C209.018 200.941 208.645 200.248 208.781 199.226L206.359 198.862C205.993 201.301 207.379 202.906 209.645 203.246C211.876 203.58 213.597 202.477 213.956 200.09L215.227 191.617L212.789 191.25L211.517 199.725Z" fill="#5A5BB5"/>
<path d="M225.053 193.074L218.049 192.022L216.234 204.111L223.238 205.162L223.534 203.19L218.951 202.503L219.431 199.303L223.495 199.914L223.784 197.994L219.72 197.384L220.174 194.358L224.757 195.046L225.053 193.074Z" fill="#5A5BB5"/>
<path d="M225.754 199.351C225.212 202.966 227.476 205.905 230.952 206.426C233.632 206.829 236.024 205.738 237.212 203.37L234.427 202.952C233.68 204.042 232.556 204.457 231.26 204.262C229.15 203.946 227.879 202.163 228.244 199.725C228.613 197.27 230.349 195.956 232.459 196.273C233.756 196.467 234.708 197.194 235.104 198.438L237.888 198.856C237.447 196.261 235.484 194.498 232.803 194.096C229.327 193.574 226.297 195.737 225.754 199.351Z" fill="#5A5BB5"/>
<path d="M239.594 197.273L242.81 197.756L241.291 207.873L243.713 208.236L245.231 198.119L248.448 198.602L248.741 196.648L239.887 195.319L239.594 197.273Z" fill="#5A5BB5"/>
<path d="M257.514 197.946L250.51 196.894L248.695 208.983L255.699 210.034L255.995 208.062L251.412 207.375L251.893 204.175L255.957 204.786L256.245 202.866L252.181 202.256L252.635 199.23L257.218 199.918L257.514 197.946Z" fill="#5A5BB5"/>
<path d="M263.926 198.926L259.707 198.293L257.895 210.364L262.115 210.998C265.971 211.576 268.834 209.583 269.382 205.934C269.932 202.268 267.783 199.506 263.926 198.926ZM260.625 208.67L261.821 200.698L263.533 200.954C266.075 201.336 267.285 203.056 266.909 205.563C266.532 208.071 264.879 209.308 262.337 208.926L260.625 208.67Z" fill="#5A5BB5"/>
<path d="M273.727 221.229L273.832 220.525L173.624 205.485C172.271 205.282 171.3 204.115 171.3 202.79C171.3 202.655 171.311 202.519 171.331 202.382L174.341 182.329C174.542 180.976 175.71 180.005 177.035 180.005C177.169 180.005 177.306 180.015 177.444 180.036L277.652 195.077C279.005 195.278 279.976 196.446 279.976 197.77C279.976 197.906 279.967 198.042 279.946 198.179V198.18L276.935 218.232C276.735 219.585 275.567 220.556 274.242 220.556C274.107 220.555 273.971 220.546 273.832 220.525L273.727 221.229L273.621 221.933C273.83 221.964 274.037 221.979 274.242 221.979C276.266 221.979 278.033 220.502 278.343 218.443L281.353 198.391V198.392C281.384 198.183 281.4 197.975 281.4 197.77C281.4 195.747 279.922 193.979 277.863 193.669L177.655 178.628C177.447 178.597 177.239 178.582 177.035 178.582C175.011 178.582 173.243 180.059 172.933 182.118L169.923 202.17C169.892 202.378 169.877 202.586 169.877 202.79C169.877 204.814 171.355 206.582 173.414 206.892L273.621 221.933L273.727 221.229Z" fill="#5A5BB5"/>
<path d="M175.683 118.413C175.683 131.768 164.856 142.594 151.502 142.594C138.147 142.594 127.32 131.768 127.32 118.413C127.32 105.058 138.147 94.2321 151.502 94.2321C164.856 94.2321 175.683 105.058 175.683 118.413Z" fill="#5A5BB5"/>
<path d="M160.657 106.531L139.619 127.569L142.345 130.294L163.382 109.257" fill="white"/>
<path d="M139.619 109.257L160.657 130.294L163.382 127.569L142.345 106.531" fill="white"/>
<path d="M379.975 142.158C379.848 141.699 378.684 105.478 378.585 105.048L374.054 103.1C366.003 108.168 356.581 115.754 348.516 120.837L349.265 140.417C349.265 140.417 339.001 175.439 339.257 177.358C340.15 184.071 379.009 176.558 379.975 142.158Z" fill="#FFBE9D"/>
<path d="M333.484 105.894C336.849 120.553 342.766 135.243 356.976 133.031C366.909 131.486 376.465 117.686 378.586 105.048C379.678 98.5272 380.702 92.8328 380.666 88.5472C380.642 85.1592 380.475 83.0328 380.475 83.0328L378.018 75.6696L376.572 71.3584C376.572 71.3584 373.372 68.7752 369.801 65.8768C365.338 62.2368 358.499 67.5272 358.374 67.2768C358.193 66.8944 338.228 64.144 331.957 72.1464L331.924 72.1968C331.352 72.9256 330.913 73.6688 330.635 74.4232C330.404 75.0512 330.289 75.684 330.291 76.3216C330.301 77.552 330.351 79.3976 330.431 81.7304C330.489 82.7048 330.522 83.7704 330.597 84.9008C330.718 86.8048 330.876 88.8888 331.102 91.0896C331.566 95.692 332.316 100.83 333.484 105.894Z" fill="#FFBE9D"/>
<path d="M349.92 132.654C349.934 132.659 351.429 133.08 353.897 133.08C357.845 133.081 364.29 131.998 371.126 126.412L370.859 126.086C364.105 131.605 357.77 132.658 353.897 132.659C352.686 132.659 351.718 132.556 351.053 132.454C350.72 132.402 350.464 132.35 350.291 132.312C350.119 132.274 350.034 132.25 350.034 132.25L349.92 132.654Z" fill="#FFBE9D"/>
<path d="M349.92 132.654C349.934 132.659 351.429 133.08 353.897 133.08C357.845 133.081 364.29 131.998 371.126 126.412L370.859 126.086C364.105 131.605 357.77 132.658 353.897 132.659C352.686 132.659 351.718 132.556 351.053 132.454C350.72 132.402 350.464 132.35 350.291 132.312C350.119 132.274 350.034 132.25 350.034 132.25L349.92 132.654Z" fill="black" fill-opacity="0.3"/>
<path d="M381.334 88.3951C381.334 88.3951 383.666 56.2647 364.944 56.2935C364.944 56.2935 346.9 45.0831 332.966 57.6935C326.28 63.7455 327.514 77.7567 328.584 82.1903C329.256 84.9703 330.382 87.2807 330.75 87.1311C331.779 86.7135 331.879 83.9239 335.634 84.7783C350.873 88.2455 363.173 75.8271 367.434 78.3055C371.694 80.7839 378.358 106.831 378.358 106.831C378.358 106.831 378.954 94.9711 381.334 88.3951Z" fill="black"/>
<path d="M376.678 91.3767C376.678 91.3767 385.103 85.3079 385.225 94.0735C385.347 102.839 377.219 107.023 377.219 107.023L376.678 91.3767Z" fill="#FFBE9D"/>
<path d="M378.938 94.092C378.938 94.092 385.652 91.7184 379.215 101.444L378.938 94.092Z" fill="#FFBE9D"/>
<path d="M378.938 94.092C378.938 94.092 385.652 91.7184 379.215 101.444L378.938 94.092Z" fill="black" fill-opacity="0.3"/>
<path d="M339.929 102.351C340.294 103.616 341.186 104.469 341.922 104.256C342.659 104.043 342.96 102.846 342.594 101.581C342.229 100.316 341.336 99.4632 340.601 99.676C339.865 99.8888 339.564 101.086 339.929 102.351Z" fill="#FFBE9D"/>
<path d="M339.929 102.351C340.294 103.616 341.186 104.469 341.922 104.256C342.659 104.043 342.96 102.846 342.594 101.581C342.229 100.316 341.336 99.4632 340.601 99.676C339.865 99.8888 339.564 101.086 339.929 102.351Z" fill="black"/>
<path d="M356.109 99.6704C356.474 100.935 357.366 101.788 358.102 101.575C358.838 101.362 359.139 100.165 358.774 98.9C358.409 97.6352 357.516 96.7824 356.78 96.9952C356.044 97.208 355.743 98.4056 356.109 99.6704Z" fill="#FFBE9D"/>
<path d="M356.109 99.6704C356.474 100.935 357.366 101.788 358.102 101.575C358.838 101.362 359.139 100.165 358.774 98.9C358.409 97.6352 357.516 96.7824 356.78 96.9952C356.044 97.208 355.743 98.4056 356.109 99.6704Z" fill="black"/>
<path d="M341.988 94.18C341.988 94.18 337.782 91.4632 334.467 93.504L341.988 94.18Z" fill="#FFBE9D"/>
<path d="M341.988 94.18C341.988 94.18 337.782 91.4632 334.467 93.504L341.988 94.18Z" fill="black"/>
<path d="M362.372 90.3448C362.046 90.3256 356.858 89.7728 354.018 93.272L362.372 90.3448Z" fill="#FFBE9D"/>
<path d="M362.372 90.3448C362.046 90.3256 356.858 89.7728 354.018 93.272L362.372 90.3448Z" fill="black"/>
<path d="M348.717 107.504C347.986 108.066 347.498 109.082 347.492 110.006C347.492 110.466 347.619 110.914 347.933 111.248C348.245 111.583 348.73 111.781 349.371 111.779C349.921 111.778 350.593 111.639 351.415 111.324L351.264 110.931C350.475 111.234 349.849 111.358 349.371 111.358C348.81 111.357 348.461 111.195 348.239 110.961C348.019 110.726 347.913 110.392 347.913 110.006C347.907 109.234 348.362 108.294 348.971 107.838L348.717 107.504Z" fill="#FFBE9D"/>
<path d="M348.717 107.504C347.986 108.066 347.498 109.082 347.492 110.006C347.492 110.466 347.619 110.914 347.933 111.248C348.245 111.583 348.73 111.781 349.371 111.779C349.921 111.778 350.593 111.639 351.415 111.324L351.264 110.931C350.475 111.234 349.849 111.358 349.371 111.358C348.81 111.357 348.461 111.195 348.239 110.961C348.019 110.726 347.913 110.392 347.913 110.006C347.907 109.234 348.362 108.294 348.971 107.838L348.717 107.504Z" fill="black"/>
<path d="M296.312 135.747L282.254 132.401L319.186 95.7615L308.048 83.7439C308.048 83.7439 276.391 101.917 261.15 115.694C245.907 129.469 243.855 140.901 247.959 148.815C252.063 156.729 288.476 164.954 288.476 164.954L296.312 135.747Z" fill="#FFBE9D"/>
<path d="M347.048 138.359C347.048 138.359 294.103 134.441 293.224 134.441C292.344 134.441 279.028 156.73 280.787 168.161L330.909 185.455L347.048 138.359Z" fill="#5A5BB5"/>
<path d="M427.188 154.524C422.707 147.81 411.054 143.162 398.513 138.501C397.071 137.974 395.627 137.446 394.171 136.906C390.883 135.698 387.567 134.464 384.363 133.174C384.363 133.174 375.109 144.707 364.579 148.866C363.195 149.413 360.78 161.808 360.78 161.808C360.78 161.808 359.639 149.343 358.446 149.282C344.323 148.561 348.515 137.682 348.515 137.682L338.18 142.094L333.505 144.092L322.268 148.892C322.268 148.892 318.8 178.579 318.315 195.837C318.301 196.378 318.287 196.919 318.273 197.446C318.259 197.987 318.259 198.529 318.259 199.083C318.231 203.439 318.411 208.101 318.675 212.873C318.883 216.535 319.147 220.254 319.411 223.902C320.132 233.766 320.895 243.213 320.728 250.135C320.423 263.384 316.109 269.543 322.268 271.388C328.442 273.234 403.183 277.094 413.033 265.705C422.897 254.301 433.347 163.763 427.188 154.524Z" fill="#5A5BB5"/>
<path d="M413.033 265.705C413.033 265.705 421.826 295.284 422.226 321.666C422.626 348.047 419.076 353.971 419.076 353.971L315.5 354.443C315.5 354.443 317.549 297.304 323.945 271.722C323.945 271.722 371.862 274.898 413.033 265.705Z" fill="black"/>
<path d="M323.151 273.328C323.151 273.328 342.683 275.098 364.668 273.899C386.653 272.7 413.934 267.603 413.934 267.603C413.934 267.603 415.432 269.802 415.332 272.799C415.332 272.799 390.45 278.096 363.469 278.895C336.487 279.695 322.551 277.925 322.551 277.925C322.551 277.925 322.343 277.005 322.722 275.134C322.814 274.679 323.151 273.328 323.151 273.328Z" fill="black"/>
<path d="M323.151 273.328C323.151 273.328 342.683 275.098 364.668 273.899C386.653 272.7 413.934 267.603 413.934 267.603C413.934 267.603 415.432 269.802 415.332 272.799C415.332 272.799 390.45 278.096 363.469 278.895C336.487 279.695 322.551 277.925 322.551 277.925C322.551 277.925 322.343 277.005 322.722 275.134C322.814 274.679 323.151 273.328 323.151 273.328Z" fill="white" fill-opacity="0.2"/>
<path d="M329.766 280.496L327.053 280.173L327.951 272.631L330.664 272.954L329.766 280.496Z" fill="black"/>
<path d="M374.78 279.489L372.052 279.625L371.674 272.04L374.402 271.903L374.78 279.489Z" fill="black"/>
<path d="M393.368 277.89L390.64 278.026L390.262 270.441L392.99 270.305L393.368 277.89Z" fill="black"/>
<path d="M360.403 280.694V280.34H340.104V273.254H360.049V280.694H360.403H360.756V272.546H339.396V281.048H360.756V280.694H360.403Z" fill="black"/>
<path d="M360.403 280.694V280.34H340.104V273.254H360.049V280.694H360.403H360.756V272.546H339.396V281.048H360.756V280.694H360.403Z" fill="white" fill-opacity="0.5"/>
<path d="M319.536 181.374L322.623 164.158L322.242 164.089L319.154 181.305" fill="#5A5BB5"/>
<path d="M319.536 181.374L322.623 164.158L322.242 164.089L319.154 181.305" fill="black" fill-opacity="0.3"/>
<path d="M438.43 220.783C438.43 220.783 440.639 231.587 440.639 238.953C440.639 246.319 429.345 313.841 429.345 313.841L418.285 306.796C418.285 306.796 415.103 247.546 414.613 245.337C414.122 243.127 409.947 223.484 409.947 223.484L438.43 220.783Z" fill="#FFBE9D"/>
<path d="M427.189 154.524C427.189 154.524 432.048 158.664 435.362 176.71C438.676 194.757 442.728 222.748 442.728 222.748C442.728 222.748 418.052 230.114 408.108 228.272L394.48 176.71L427.189 154.524Z" fill="#5A5BB5"/>
<path d="M427.189 154.524C427.189 154.524 432.048 158.664 435.362 176.71C438.676 194.757 442.728 222.748 442.728 222.748C442.728 222.748 418.052 230.114 408.108 228.272L394.48 176.71L427.189 154.524Z" fill="#5A5BB5"/>
<path d="M407.715 226.043L404.232 186.625L403.846 186.659L407.328 226.078" fill="#5A5BB5"/>
<path d="M407.715 226.043L404.232 186.625L403.846 186.659L407.328 226.078" fill="black" fill-opacity="0.3"/>
<path d="M306.541 84.8601C306.541 84.8601 316.902 76.5985 319.394 75.5489C321.886 74.4993 326.476 71.6145 331.591 71.4833C336.706 71.3521 347.297 71.4833 346.51 75.6145C346.51 75.6145 349.953 79.0897 345.755 80.5321C345.755 80.5321 346.018 83.2865 343.264 83.9425C343.264 83.9425 343.264 85.7785 339.067 86.9593C334.87 88.1393 332.247 88.1393 330.149 89.8441C328.05 91.5497 322.673 97.1889 319.263 97.8449C315.852 98.5009 310.213 99.6809 310.213 99.6809L306.541 84.8601Z" fill="#FFBE9D"/>
<path d="M346.572 75.2711C346.561 75.2695 341.768 74.4111 336.64 74.4111C333.608 74.4127 330.462 74.7063 328.082 75.6855L328.348 76.3295C330.571 75.4095 333.656 75.1055 336.64 75.1079C339.166 75.1079 341.622 75.3199 343.444 75.5327C344.355 75.6391 345.108 75.7455 345.632 75.8255C346.156 75.9047 346.45 75.9575 346.45 75.9575L346.572 75.2711Z" fill="#FFBE9D"/>
<path d="M346.572 75.2711C346.561 75.2695 341.768 74.4111 336.64 74.4111C333.608 74.4127 330.462 74.7063 328.082 75.6855L328.348 76.3295C330.571 75.4095 333.656 75.1055 336.64 75.1079C339.166 75.1079 341.622 75.3199 343.444 75.5327C344.355 75.6391 345.108 75.7455 345.632 75.8255C346.156 75.9047 346.45 75.9575 346.45 75.9575L346.572 75.2711Z" fill="black" fill-opacity="0.3"/>
<path d="M345.835 80.1927C345.822 80.1911 339.408 78.6903 333.523 78.6887C331.712 78.6887 329.949 78.8303 328.426 79.2111L328.595 79.8871C330.034 79.5263 331.749 79.3847 333.523 79.3855C336.409 79.3855 339.452 79.7567 341.771 80.1287C342.93 80.3143 343.908 80.5007 344.595 80.6399C345.283 80.7791 345.677 80.8711 345.677 80.8711L345.835 80.1927Z" fill="#FFBE9D"/>
<path d="M345.835 80.1927C345.822 80.1911 339.408 78.6903 333.523 78.6887C331.712 78.6887 329.949 78.8303 328.426 79.2111L328.595 79.8871C330.034 79.5263 331.749 79.3847 333.523 79.3855C336.409 79.3855 339.452 79.7567 341.771 80.1287C342.93 80.3143 343.908 80.5007 344.595 80.6399C345.283 80.7791 345.677 80.8711 345.677 80.8711L345.835 80.1927Z" fill="black" fill-opacity="0.3"/>
<path d="M343.296 83.5953C343.29 83.5953 340.296 83.3145 336.832 83.3145C335.207 83.3145 333.48 83.3761 331.904 83.5585C330.328 83.7425 328.905 84.0417 327.865 84.5473L328.17 85.1737C329.08 84.7273 330.45 84.4273 331.984 84.2505C333.52 84.0729 335.225 84.0113 336.832 84.0113C338.545 84.0113 340.147 84.0809 341.319 84.1505C341.905 84.1849 342.384 84.2201 342.716 84.2457C343.048 84.2721 343.232 84.2889 343.232 84.2889L343.296 83.5953Z" fill="#FFBE9D"/>
<path d="M343.296 83.5953C343.29 83.5953 340.296 83.3145 336.832 83.3145C335.207 83.3145 333.48 83.3761 331.904 83.5585C330.328 83.7425 328.905 84.0417 327.865 84.5473L328.17 85.1737C329.08 84.7273 330.45 84.4273 331.984 84.2505C333.52 84.0729 335.225 84.0113 336.832 84.0113C338.545 84.0113 340.147 84.0809 341.319 84.1505C341.905 84.1849 342.384 84.2201 342.716 84.2457C343.048 84.2721 343.232 84.2889 343.232 84.2889L343.296 83.5953Z" fill="black" fill-opacity="0.3"/>
<path d="M348.812 121.136L348.837 121.112C349.118 120.838 351.713 118.522 355.05 118.533C356.058 118.533 357.138 118.737 358.268 119.268L358.626 118.507C357.384 117.922 356.173 117.691 355.05 117.691C353.062 117.693 351.362 118.406 350.158 119.111C348.953 119.818 348.238 120.52 348.221 120.537L348.812 121.136Z" fill="#FFBE9D"/>
<path d="M348.812 121.136L348.837 121.112C349.118 120.838 351.713 118.522 355.05 118.533C356.058 118.533 357.138 118.737 358.268 119.268L358.626 118.507C357.384 117.922 356.173 117.691 355.05 117.691C353.062 117.693 351.362 118.406 350.158 119.111C348.953 119.818 348.238 120.52 348.221 120.537L348.812 121.136Z" fill="black" fill-opacity="0.3"/>
<path d="M387.851 134.56C387.851 134.56 386.628 152.62 375.075 161.765C375.075 161.765 371.144 150.59 364.461 149.124C364.461 149.124 366.915 146.235 369.084 144.739C371.253 143.243 380.915 133.282 379.097 127.436C379.097 127.436 383.35 128.424 387.851 134.56Z" fill="#5A5BB5"/>
<path d="M349.126 132.166C349.126 132.166 350.927 139.23 352.352 142.238C353.348 144.342 358.447 149.282 358.447 149.282C358.447 149.282 347.242 152.351 345.945 157.574L343.17 138.122C343.17 138.122 345.327 133.115 349.126 132.166Z" fill="#5A5BB5"/>
<path d="M387.658 134.546C387.658 134.546 387.638 134.824 387.583 135.333C387.198 138.896 384.987 153.682 374.955 161.613L375.076 161.765L375.259 161.701C375.257 161.693 374.27 158.889 372.441 155.893C370.61 152.9 367.94 149.694 364.503 148.934L364.42 149.314C367.666 150.019 370.305 153.134 372.11 156.095C373.013 157.574 373.71 159.01 374.18 160.074C374.415 160.606 374.594 161.046 374.714 161.353C374.833 161.658 374.893 161.83 374.893 161.83L374.983 162.086L375.197 161.918C386.835 152.689 388.037 134.59 388.045 134.573L387.658 134.546Z" fill="#5A5BB5"/>
<path d="M387.658 134.546C387.658 134.546 387.638 134.824 387.583 135.333C387.198 138.896 384.987 153.682 374.955 161.613L375.076 161.765L375.259 161.701C375.257 161.693 374.27 158.889 372.441 155.893C370.61 152.9 367.94 149.694 364.503 148.934L364.42 149.314C367.666 150.019 370.305 153.134 372.11 156.095C373.013 157.574 373.71 159.01 374.18 160.074C374.415 160.606 374.594 161.046 374.714 161.353C374.833 161.658 374.893 161.83 374.893 161.83L374.983 162.086L375.197 161.918C386.835 152.689 388.037 134.59 388.045 134.573L387.658 134.546Z" fill="black" fill-opacity="0.3"/>
<path d="M358.396 149.095C358.389 149.097 355.58 149.866 352.599 151.294C351.108 152.009 349.574 152.888 348.323 153.926C347.072 154.962 346.098 156.161 345.757 157.526L345.946 157.574L346.138 157.546L343.363 138.094L342.979 138.149L345.894 158.585L346.135 157.62C346.443 156.375 347.355 155.231 348.57 154.224C350.391 152.714 352.878 151.519 354.906 150.709C355.919 150.304 356.819 149.994 357.464 149.785C358.11 149.576 358.499 149.47 358.499 149.47L358.396 149.095Z" fill="#5A5BB5"/>
<path d="M358.396 149.095C358.389 149.097 355.58 149.866 352.599 151.294C351.108 152.009 349.574 152.888 348.323 153.926C347.072 154.962 346.098 156.161 345.757 157.526L345.946 157.574L346.138 157.546L343.363 138.094L342.979 138.149L345.894 158.585L346.135 157.62C346.443 156.375 347.355 155.231 348.57 154.224C350.391 152.714 352.878 151.519 354.906 150.709C355.919 150.304 356.819 149.994 357.464 149.785C358.11 149.576 358.499 149.47 358.499 149.47L358.396 149.095Z" fill="black" fill-opacity="0.3"/>
<path d="M360.59 161.77C360.59 161.775 355.72 185.821 355.244 205.793C355.006 215.761 354.146 232.338 353.345 246.421C352.944 253.463 352.558 259.882 352.272 264.539C352.13 266.869 352.012 268.758 351.93 270.064C351.847 271.37 351.801 272.093 351.801 272.095L352.189 272.12C352.189 272.118 355.157 225.757 355.633 205.802C355.87 195.842 357.204 184.85 358.48 176.352C359.118 172.102 359.741 168.475 360.204 165.911C360.436 164.629 360.628 163.613 360.762 162.917C360.895 162.221 360.971 161.848 360.971 161.846L360.59 161.77Z" fill="#5A5BB5"/>
<path d="M360.59 161.77C360.59 161.775 355.72 185.821 355.244 205.793C355.006 215.761 354.146 232.338 353.345 246.421C352.944 253.463 352.558 259.882 352.272 264.539C352.13 266.869 352.012 268.758 351.93 270.064C351.847 271.37 351.801 272.093 351.801 272.095L352.189 272.12C352.189 272.118 355.157 225.757 355.633 205.802C355.87 195.842 357.204 184.85 358.48 176.352C359.118 172.102 359.741 168.475 360.204 165.911C360.436 164.629 360.628 163.613 360.762 162.917C360.895 162.221 360.971 161.848 360.971 161.846L360.59 161.77Z" fill="black" fill-opacity="0.3"/>
<path d="M407.521 226.06C407.521 226.06 430.634 224.952 442.506 219.57C442.506 219.57 443.931 224.478 443.139 227.96C443.139 227.96 420.026 234.767 408.47 233.026C408.47 233.026 407.046 230.018 407.521 226.06Z" fill="#5A5BB5"/>
<path d="M407.521 226.06C407.521 226.06 430.634 224.952 442.506 219.57C442.506 219.57 443.931 224.478 443.139 227.96C443.139 227.96 420.026 234.767 408.47 233.026C408.47 233.026 407.046 230.018 407.521 226.06Z" fill="black" fill-opacity="0.2"/>
<path d="M297.794 134.738C297.794 134.738 289.84 141.802 287.208 154.982C284.94 166.339 284.991 170.495 284.991 170.495C284.991 170.495 280.242 170.02 277.234 168.121C277.234 168.121 278.501 156.09 281.192 148.016C283.883 139.942 289.246 133.788 289.246 133.788C289.246 133.788 291.68 133.847 293.283 133.966C296.206 134.182 297.794 134.738 297.794 134.738Z" fill="#5A5BB5"/>
<path d="M297.794 134.738C297.794 134.738 289.84 141.802 287.208 154.982C284.94 166.339 284.991 170.495 284.991 170.495C284.991 170.495 280.242 170.02 277.234 168.121C277.234 168.121 278.501 156.09 281.192 148.016C283.883 139.942 289.246 133.788 289.246 133.788C289.246 133.788 291.68 133.847 293.283 133.966C296.206 134.182 297.794 134.738 297.794 134.738Z" fill="black" fill-opacity="0.2"/>
<path d="M430.615 304.827C430.615 304.827 434.036 317.542 433.684 320.36C433.331 323.178 429.354 331.631 427.851 332.58C426.348 333.529 422.422 334.623 419.126 334.594C415.832 334.564 413.007 332.904 413.192 332.266C413.376 331.627 415.49 330.163 417.273 330.371C417.273 330.371 414.418 329.086 415.162 327.841C415.905 326.596 418.141 328.163 420.067 328.412C421.992 328.661 425.282 326.845 425.784 324.839C426.287 322.834 424.871 317.892 424.871 317.892C424.871 317.892 420.036 316.322 418.231 314.285C416.492 312.323 416.855 308.05 418.018 304.467C419.18 300.886 430.615 304.827 430.615 304.827Z" fill="#FFBE9D"/>
<path d="M424.87 317.892C424.87 317.892 423.269 321.578 422.887 323.696C422.506 325.814 421.959 329.573 419.457 328.927C416.954 328.282 417.483 324.056 418.415 320.561C419.348 317.066 418.101 313.402 418.101 313.402L424.319 311.818L424.87 317.892Z" fill="#FFBE9D"/>
<path d="M417.225 330.577C417.233 330.578 419.298 331.055 421.381 331.056C422.198 331.055 423.02 330.982 423.729 330.771C424.435 330.559 425.043 330.203 425.385 329.618C426.771 327.23 426.947 326.101 426.952 326.07L426.534 326.007L426.526 326.047C426.481 326.265 426.213 327.349 425.019 329.405C424.756 329.861 424.258 330.171 423.608 330.366C422.96 330.561 422.173 330.634 421.381 330.634C420.371 330.634 419.352 330.516 418.589 330.399C418.206 330.34 417.889 330.282 417.667 330.238C417.444 330.194 417.319 330.166 417.319 330.166L417.225 330.577Z" fill="#FFBE9D"/>
<path d="M417.225 330.577C417.233 330.578 419.298 331.055 421.381 331.056C422.198 331.055 423.02 330.982 423.729 330.771C424.435 330.559 425.043 330.203 425.385 329.618C426.771 327.23 426.947 326.101 426.952 326.07L426.534 326.007L426.526 326.047C426.481 326.265 426.213 327.349 425.019 329.405C424.756 329.861 424.258 330.171 423.608 330.366C422.96 330.561 422.173 330.634 421.381 330.634C420.371 330.634 419.352 330.516 418.589 330.399C418.206 330.34 417.889 330.282 417.667 330.238C417.444 330.194 417.319 330.166 417.319 330.166L417.225 330.577Z" fill="black" fill-opacity="0.3"/>
<path d="M353.008 353.959L352.062 319.175L358.016 309.148L357.292 308.718L351.215 318.954L352.168 353.982L353.008 353.959Z" fill="black"/>
<path d="M353.008 353.959L352.062 319.175L358.016 309.148L357.292 308.718L351.215 318.954L352.168 353.982L353.008 353.959Z" fill="white" fill-opacity="0.2"/>
<path d="M352.015 318.877L347.898 310.645L347.146 311.021L351.262 319.253" fill="black"/>
<path d="M352.015 318.877L347.898 310.645L347.146 311.021L351.262 319.253" fill="white" fill-opacity="0.2"/>
</g>
<defs>
<clipPath id="clip0_17155_120678">
<rect width="600" height="400" fill="white"/>
</clipPath>
</defs>
</svg>
