<svg width="32" height="32" viewBox="0 0 32 32" fill="none" xmlns="http://www.w3.org/2000/svg">
<path d="M24.55 14.036C24.9975 13.5532 25.2906 12.9479 25.3918 12.2975C25.493 11.6471 25.3976 10.9813 25.1179 10.3854C24.8382 9.78955 24.387 9.2908 23.822 8.95308C23.257 8.61537 22.604 8.45408 21.9468 8.48989C21.2895 8.5257 20.6579 8.75698 20.133 9.15407C19.608 9.55117 19.2136 10.096 19.0003 10.7187C18.7871 11.3414 18.7646 12.0136 18.9358 12.6492C19.1071 13.2848 19.4642 13.8547 19.9615 14.286L16.7185 15.6445V5.37695C16.7185 5.24434 16.6658 5.11717 16.5721 5.0234C16.4783 4.92963 16.3511 4.87695 16.2185 4.87695H1.5C1.36739 4.87695 1.24021 4.92963 1.14645 5.0234C1.05268 5.11717 1 5.24434 1 5.37695V21.871C1 22.0036 1.05268 22.1307 1.14645 22.2245C1.24021 22.3183 1.36739 22.371 1.5 22.371H16.218C16.3506 22.371 16.4778 22.3183 16.5716 22.2245C16.6653 22.1307 16.718 22.0036 16.718 21.871V19.968L18.233 19.613V26.623C18.233 26.7556 18.2857 26.8827 18.3794 26.9765C18.4732 27.0703 18.6004 27.123 18.733 27.123H25.243C25.3756 27.123 25.5028 27.0703 25.5966 26.9765C25.6903 26.8827 25.743 26.7556 25.743 26.623V26.3355C25.9638 26.4255 26.2 26.472 26.4385 26.4725H26.5205C26.778 26.4608 27.0303 26.3957 27.2613 26.2813C27.4924 26.1669 27.6971 26.0057 27.8625 25.808L30.528 22.591C30.8576 22.1967 31.0267 21.6928 31.0014 21.1795C30.9761 20.6662 30.7583 20.1814 30.3915 19.8215L24.55 14.036ZM22.1265 9.49045C22.5825 9.49035 23.0283 9.62549 23.4075 9.87876C23.7867 10.132 24.0823 10.4921 24.2569 10.9133C24.4314 11.3346 24.4772 11.7982 24.3883 12.2454C24.2994 12.6927 24.0798 13.1035 23.7574 13.426C23.435 13.7485 23.0242 13.9681 22.577 14.0571C22.1297 14.1461 21.6661 14.1005 21.2448 13.926C20.8235 13.7515 20.4634 13.456 20.2101 13.0769C19.9567 12.6977 19.8215 12.252 19.8215 11.796C19.8222 11.1849 20.0651 10.599 20.4971 10.1668C20.9291 9.73461 21.5154 9.49138 22.1265 9.49045ZM2 21.371V5.87695H15.718V16.065L15.339 16.2235L12.561 15.0735C12.3226 14.975 12.0669 14.9251 11.809 14.9269C11.551 14.9286 11.296 14.9819 11.059 15.0836C10.8219 15.1853 10.6076 15.3333 10.4286 15.519C10.2495 15.7047 10.1094 15.9243 10.0165 16.165C9.83416 16.6413 9.84678 17.1704 10.0516 17.6375C10.2565 18.1047 10.6371 18.4723 11.111 18.661L14.094 19.8395C14.6109 20.0409 15.1637 20.1337 15.718 20.112V21.3705L2 21.371ZM29.758 21.95L27.094 25.166C27.0182 25.2574 26.924 25.3318 26.8175 25.3843C26.711 25.4369 26.5947 25.4664 26.476 25.471C26.3593 25.4771 26.2427 25.4586 26.1337 25.4165C26.0247 25.3745 25.9258 25.3099 25.8435 25.227C25.6847 25.0674 25.595 24.852 25.5935 24.627C25.5948 24.5015 25.6247 24.378 25.681 24.266C25.687 24.2545 25.693 24.243 25.6985 24.2315C25.7253 24.1774 25.7589 24.127 25.7985 24.0815L27.8195 21.7125C27.8636 21.6607 27.8966 21.6005 27.9166 21.5355C27.9366 21.4706 27.9432 21.4022 27.9359 21.3347C27.9286 21.2671 27.9076 21.2017 27.8741 21.1425C27.8407 21.0834 27.7956 21.0316 27.7415 20.9905L25.5 19.281C25.4255 19.2251 25.3369 19.1911 25.2442 19.1829C25.1514 19.1747 25.0582 19.1925 24.975 19.2344C24.8919 19.2763 24.8221 19.3406 24.7735 19.42C24.7249 19.4994 24.6994 19.5908 24.7 19.684L24.7425 23.9135C24.6453 24.1382 24.5951 24.3805 24.595 24.6255C24.5957 24.8741 24.6467 25.1201 24.745 25.3485V26.123H19.233V18.9825C19.233 18.9071 19.216 18.8327 19.1832 18.7648C19.1505 18.697 19.1028 18.6374 19.0437 18.5905C18.9847 18.5437 18.9158 18.5108 18.8422 18.4944C18.7687 18.4779 18.6924 18.4783 18.619 18.4955L16.283 19.043C15.6765 19.1865 15.0406 19.1399 14.4615 18.9095L11.4785 17.731C11.3595 17.6889 11.2503 17.6231 11.1575 17.5376C11.0646 17.4522 10.99 17.3488 10.9382 17.2338C10.8864 17.1187 10.8584 16.9943 10.856 16.8682C10.8535 16.742 10.8766 16.6166 10.9239 16.4997C10.9712 16.3827 11.0418 16.2765 11.1312 16.1875C11.2207 16.0985 11.3272 16.0285 11.4445 15.9818C11.5617 15.9351 11.6872 15.9127 11.8133 15.9158C11.9395 15.9189 12.0637 15.9475 12.1785 16L15.15 17.227C15.2109 17.2523 15.2763 17.2654 15.3422 17.2654C15.4082 17.2654 15.4736 17.2523 15.5345 17.227L16.408 16.861L16.418 16.857L21.05 14.9165C21.4939 15.0727 21.9662 15.1313 22.4348 15.0881C22.9034 15.045 23.3571 14.9011 23.765 14.6665L29.6875 20.53C29.8752 20.7147 29.9866 20.9632 29.9996 21.2262C30.0127 21.4892 29.9265 21.7475 29.758 21.95ZM25.708 20.695L26.716 21.462L25.728 22.6205L25.708 20.695Z" fill="black"/>
<path d="M3.4043 8.8385H7.2103C7.3429 8.8385 7.47008 8.78582 7.56385 8.69205C7.65762 8.59829 7.7103 8.47111 7.7103 8.3385C7.7103 8.20589 7.65762 8.07872 7.56385 7.98495C7.47008 7.89118 7.3429 7.8385 7.2103 7.8385H3.4043C3.27169 7.8385 3.14451 7.89118 3.05074 7.98495C2.95698 8.07872 2.9043 8.20589 2.9043 8.3385C2.9043 8.47111 2.95698 8.59829 3.05074 8.69205C3.14451 8.78582 3.27169 8.8385 3.4043 8.8385Z" fill="black"/>
<path d="M3.4043 11.274H13.1463C13.2789 11.274 13.4061 11.2214 13.4998 11.1276C13.5936 11.0338 13.6463 10.9067 13.6463 10.774C13.6463 10.6414 13.5936 10.5143 13.4998 10.4205C13.4061 10.3267 13.2789 10.274 13.1463 10.274H3.4043C3.27169 10.274 3.14451 10.3267 3.05074 10.4205C2.95698 10.5143 2.9043 10.6414 2.9043 10.774C2.9043 10.9067 2.95698 11.0338 3.05074 11.1276C3.14451 11.2214 3.27169 11.274 3.4043 11.274Z" fill="black"/>
<path d="M5.9623 12.7095H3.4043C3.27169 12.7095 3.14451 12.7622 3.05074 12.8559C2.95698 12.9497 2.9043 13.0769 2.9043 13.2095C2.9043 13.3421 2.95698 13.4693 3.05074 13.563C3.14451 13.6568 3.27169 13.7095 3.4043 13.7095H5.9623C6.09491 13.7095 6.22208 13.6568 6.31585 13.563C6.40962 13.4693 6.4623 13.3421 6.4623 13.2095C6.4623 13.0769 6.40962 12.9497 6.31585 12.8559C6.22208 12.7622 6.09491 12.7095 5.9623 12.7095Z" fill="black"/>
<path d="M10.1612 13.2095C10.1612 13.0769 10.1085 12.9497 10.0148 12.8559C9.921 12.7622 9.79383 12.7095 9.66122 12.7095H7.88672C7.75411 12.7095 7.62693 12.7622 7.53317 12.8559C7.4394 12.9497 7.38672 13.0769 7.38672 13.2095C7.38672 13.3421 7.4394 13.4693 7.53317 13.563C7.62693 13.6568 7.75411 13.7095 7.88672 13.7095H9.66122C9.79383 13.7095 9.921 13.6568 10.0148 13.563C10.1085 13.4693 10.1612 13.3421 10.1612 13.2095Z" fill="black"/>
</svg>
