<svg width="32" height="32" viewBox="0 0 32 32" fill="none" xmlns="http://www.w3.org/2000/svg">
<path d="M29.15 20.607C29.5341 20.2811 29.8086 19.845 29.9364 19.3578C30.0642 18.8707 30.0391 18.3559 29.8644 17.8835C29.6897 17.4111 29.3739 17.0039 28.9599 16.717C28.5459 16.4302 28.0537 16.2776 27.55 16.28C27.508 16.28 27.4685 16.2905 27.427 16.2925V6.172C27.427 6.03939 27.3743 5.91221 27.2806 5.81844C27.1868 5.72468 27.0596 5.672 26.927 5.672H5.071C4.93839 5.672 4.81122 5.72468 4.71745 5.81844C4.62368 5.91221 4.571 6.03939 4.571 6.172V16.2925C4.5295 16.2925 4.49 16.28 4.448 16.28C3.94433 16.2776 3.4521 16.4302 3.03809 16.717C2.62408 17.0039 2.30831 17.4111 2.13363 17.8835C1.95894 18.3559 1.93379 18.8707 2.06158 19.3578C2.18937 19.845 2.46393 20.2811 2.848 20.607C2.291 20.899 1.82442 21.3378 1.49871 21.8758C1.173 22.4138 1.00055 23.0306 1 23.6595V25.828C1 25.9606 1.05268 26.0878 1.14645 26.1815C1.24021 26.2753 1.36739 26.328 1.5 26.328H7.397C7.52961 26.328 7.65679 26.2753 7.75055 26.1815C7.84432 26.0878 7.897 25.9606 7.897 25.828V23.6595C7.89626 23.0304 7.72351 22.4134 7.39744 21.8754C7.07136 21.3374 6.60438 20.8988 6.047 20.607C6.39052 20.3121 6.64576 19.9279 6.7845 19.497H9.8135C9.95224 19.9279 10.2075 20.3121 10.551 20.607C9.99362 20.8988 9.52664 21.3374 9.20057 21.8754C8.87449 22.4134 8.70174 23.0304 8.701 23.6595V25.828C8.701 25.9606 8.75368 26.0878 8.84745 26.1815C8.94121 26.2753 9.06839 26.328 9.201 26.328H15.1C15.2326 26.328 15.3598 26.2753 15.4536 26.1815C15.5473 26.0878 15.6 25.9606 15.6 25.828V23.6595C15.5993 23.0304 15.4265 22.4134 15.1004 21.8754C14.7744 21.3374 14.3074 20.8988 13.75 20.607C14.0933 20.312 14.3484 19.9279 14.487 19.497H17.516C17.6546 19.9279 17.9097 20.312 18.253 20.607C17.6956 20.8988 17.2286 21.3374 16.9026 21.8754C16.5765 22.4134 16.4037 23.0304 16.403 23.6595V25.828C16.403 25.9606 16.4557 26.0878 16.5494 26.1815C16.6432 26.2753 16.7704 26.328 16.903 26.328H22.8C22.9326 26.328 23.0598 26.2753 23.1536 26.1815C23.2473 26.0878 23.3 25.9606 23.3 25.828V23.6595C23.2993 23.0304 23.1265 22.4134 22.8004 21.8754C22.4744 21.3374 22.0074 20.8988 21.45 20.607C21.7935 20.3121 22.0488 19.9279 22.1875 19.497H25.2165C25.3552 19.9279 25.6105 20.3121 25.954 20.607C25.3966 20.8988 24.9296 21.3374 24.6036 21.8754C24.2775 22.4134 24.1047 23.0304 24.104 23.6595V25.828C24.104 25.9606 24.1567 26.0878 24.2504 26.1815C24.3442 26.2753 24.4714 26.328 24.604 26.328H30.5C30.6326 26.328 30.7598 26.2753 30.8536 26.1815C30.9473 26.0878 31 25.9606 31 25.828V23.6595C30.9993 23.0304 30.8265 22.4134 30.5004 21.8754C30.1744 21.3374 29.7074 20.8988 29.15 20.607ZM5.571 6.672H26.429V16.563C26.0657 16.7501 25.7548 17.0251 25.5247 17.3628C25.2945 17.7005 25.1523 18.0904 25.111 18.497H22.291C22.2371 17.8869 21.9567 17.3191 21.505 16.9055C21.0532 16.4919 20.463 16.2625 19.8505 16.2625C19.238 16.2625 18.6478 16.4919 18.1961 16.9055C17.7443 17.3191 17.4639 17.8869 17.41 18.497H14.59C14.5361 17.8869 14.2557 17.3191 13.804 16.9055C13.3522 16.4919 12.762 16.2625 12.1495 16.2625C11.537 16.2625 10.9468 16.4919 10.4951 16.9055C10.0433 17.3191 9.76288 17.8869 9.709 18.497H6.889C6.8477 18.0904 6.70551 17.7005 6.47535 17.3628C6.24519 17.0251 5.93434 16.7501 5.571 16.563V6.672ZM6.897 23.6595V25.328H2V23.6595C1.98849 23.3307 2.0433 23.003 2.16117 22.6959C2.27904 22.3888 2.45754 22.1086 2.68604 21.8719C2.91454 21.6353 3.18836 21.4471 3.49116 21.3186C3.79396 21.19 4.11955 21.1238 4.4485 21.1238C4.77745 21.1238 5.10304 21.19 5.40584 21.3186C5.70864 21.4471 5.98246 21.6353 6.21096 21.8719C6.43946 22.1086 6.61796 22.3888 6.73583 22.6959C6.8537 23.003 6.90851 23.3307 6.897 23.6595ZM2.983 18.7455C2.983 18.4557 3.06891 18.1724 3.22988 17.9315C3.39084 17.6905 3.61963 17.5027 3.88733 17.3917C4.15503 17.2807 4.44962 17.2516 4.73385 17.308C5.01809 17.3645 5.27922 17.5039 5.48424 17.7087C5.68925 17.9135 5.82894 18.1745 5.88566 18.4587C5.94237 18.7429 5.91357 19.0375 5.80288 19.3053C5.69219 19.5731 5.50458 19.8021 5.26378 19.9633C5.02298 20.1245 4.73978 20.2107 4.45 20.211C4.06119 20.211 3.68828 20.0566 3.4132 19.7819C3.13813 19.5071 2.9834 19.1343 2.983 18.7455ZM14.6 23.6595V25.328H9.7V23.6595C9.68755 23.3302 9.74165 23.0018 9.85908 22.6939C9.97651 22.386 10.1548 22.1049 10.3834 21.8675C10.612 21.6302 10.8861 21.4413 11.1893 21.3124C11.4926 21.1834 11.8187 21.1169 12.1483 21.1169C12.4778 21.1169 12.8039 21.1834 13.1072 21.3124C13.4104 21.4413 13.6845 21.6302 13.9131 21.8675C14.1417 22.1049 14.32 22.386 14.4374 22.6939C14.5548 23.0018 14.609 23.3302 14.5965 23.6595H14.6ZM10.6865 18.7455C10.6865 18.4556 10.7725 18.1721 10.9336 17.9311C11.0947 17.6901 11.3237 17.5022 11.5916 17.3914C11.8595 17.2805 12.1543 17.2516 12.4386 17.3083C12.723 17.365 12.9841 17.5048 13.189 17.7099C13.3938 17.9151 13.5333 18.1764 13.5896 18.4608C13.6459 18.7452 13.6166 19.04 13.5054 19.3077C13.3941 19.5755 13.206 19.8042 12.9647 19.965C12.7235 20.1258 12.4399 20.2114 12.15 20.211C11.7614 20.2106 11.3888 20.0561 11.114 19.7814C10.8392 19.5066 10.6845 19.1341 10.684 18.7455H10.6865ZM22.3 23.6595V25.328H17.4025V23.6595C17.39 23.3302 17.4442 23.0018 17.5616 22.6939C17.679 22.386 17.8573 22.1049 18.0859 21.8675C18.3145 21.6302 18.5886 21.4413 18.8918 21.3124C19.1951 21.1834 19.5212 21.1169 19.8508 21.1169C20.1803 21.1169 20.5064 21.1834 20.8097 21.3124C21.1129 21.4413 21.387 21.6302 21.6156 21.8675C21.8442 22.1049 22.0225 22.386 22.1399 22.6939C22.2573 23.0018 22.3115 23.3302 22.299 23.6595H22.3ZM18.385 18.7455C18.385 18.4556 18.471 18.1723 18.632 17.9313C18.7931 17.6902 19.022 17.5024 19.2898 17.3915C19.5576 17.2806 19.8523 17.2516 20.1366 17.3082C20.4209 17.3648 20.682 17.5044 20.8869 17.7094C21.0919 17.9144 21.2314 18.1756 21.2879 18.4599C21.3444 18.7442 21.3153 19.0389 21.2043 19.3067C21.0933 19.5744 20.9054 19.8033 20.6643 19.9643C20.4233 20.1252 20.1399 20.2111 19.85 20.211C19.4616 20.2103 19.0893 20.0557 18.8146 19.781C18.54 19.5063 18.3855 19.1339 18.385 18.7455ZM26.085 18.7455C26.085 18.4556 26.171 18.1723 26.332 17.9313C26.4931 17.6902 26.722 17.5024 26.9898 17.3915C27.2576 17.2806 27.5523 17.2516 27.8366 17.3082C28.1209 17.3648 28.382 17.5044 28.5869 17.7094C28.7919 17.9144 28.9314 18.1756 28.9879 18.4599C29.0444 18.7442 29.0153 19.0389 28.9043 19.3067C28.7933 19.5744 28.6054 19.8033 28.3643 19.9643C28.1233 20.1252 27.8399 20.2111 27.55 20.211C27.1617 20.2101 26.7897 20.0553 26.5153 19.7806C26.2409 19.506 26.0865 19.1337 26.086 18.7455H26.085ZM30 25.328H25.103V23.6595C25.0915 23.3307 25.1463 23.003 25.2642 22.6959C25.382 22.3888 25.5605 22.1086 25.789 21.8719C26.0175 21.6353 26.2914 21.4471 26.5942 21.3186C26.897 21.19 27.2225 21.1238 27.5515 21.1238C27.8805 21.1238 28.206 21.19 28.5088 21.3186C28.8116 21.4471 29.0855 21.6353 29.314 21.8719C29.5425 22.1086 29.721 22.3888 29.8388 22.6959C29.9567 23.003 30.0115 23.3307 30 23.6595V25.328Z" fill="black"/>
<path d="M11.7578 8.8385H20.2408C20.3734 8.8385 20.5006 8.78582 20.5944 8.69205C20.6881 8.59829 20.7408 8.47111 20.7408 8.3385C20.7408 8.20589 20.6881 8.07872 20.5944 7.98495C20.5006 7.89118 20.3734 7.8385 20.2408 7.8385H11.7578C11.6252 7.8385 11.498 7.89118 11.4043 7.98495C11.3105 8.07872 11.2578 8.20589 11.2578 8.3385C11.2578 8.47111 11.3105 8.59829 11.4043 8.69205C11.498 8.78582 11.6252 8.8385 11.7578 8.8385Z" fill="black"/>
<path d="M7.39648 11.4196H14.241C14.3736 11.4196 14.5008 11.3669 14.5945 11.2731C14.6883 11.1793 14.741 11.0522 14.741 10.9196C14.741 10.7869 14.6883 10.6598 14.5945 10.566C14.5008 10.4722 14.3736 10.4196 14.241 10.4196H7.39648C7.26388 10.4196 7.1367 10.4722 7.04293 10.566C6.94916 10.6598 6.89648 10.7869 6.89648 10.9196C6.89648 11.0522 6.94916 11.1793 7.04293 11.2731C7.1367 11.3669 7.26388 11.4196 7.39648 11.4196Z" fill="black"/>
<path d="M7.39648 13.6455H10.1835C10.3161 13.6455 10.4433 13.5928 10.537 13.4991C10.6308 13.4053 10.6835 13.2781 10.6835 13.1455C10.6835 13.0129 10.6308 12.8857 10.537 12.792C10.4433 12.6982 10.3161 12.6455 10.1835 12.6455H7.39648C7.26388 12.6455 7.1367 12.6982 7.04293 12.792C6.94916 12.8857 6.89648 13.0129 6.89648 13.1455C6.89648 13.2781 6.94916 13.4053 7.04293 13.4991C7.1367 13.5928 7.26388 13.6455 7.39648 13.6455Z" fill="black"/>
<path d="M14.5646 12.6455H12.3066C12.174 12.6455 12.0469 12.6982 11.9531 12.792C11.8593 12.8857 11.8066 13.0129 11.8066 13.1455C11.8066 13.2781 11.8593 13.4053 11.9531 13.4991C12.0469 13.5928 12.174 13.6455 12.3066 13.6455H14.5646C14.6972 13.6455 14.8244 13.5928 14.9182 13.4991C15.012 13.4053 15.0646 13.2781 15.0646 13.1455C15.0646 13.0129 15.012 12.8857 14.9182 12.792C14.8244 12.6982 14.6972 12.6455 14.5646 12.6455Z" fill="black"/>
<path d="M7.39648 15.7419H10.1995C10.3321 15.7419 10.4593 15.6893 10.553 15.5955C10.6468 15.5017 10.6995 15.3746 10.6995 15.2419C10.6995 15.1093 10.6468 14.9822 10.553 14.8884C10.4593 14.7946 10.3321 14.7419 10.1995 14.7419H7.39648C7.26388 14.7419 7.1367 14.7946 7.04293 14.8884C6.94916 14.9822 6.89648 15.1093 6.89648 15.2419C6.89648 15.3746 6.94916 15.5017 7.04293 15.5955C7.1367 15.6893 7.26388 15.7419 7.39648 15.7419Z" fill="black"/>
</svg>
