<svg width="68" height="68" viewBox="0 0 68 68" fill="none" xmlns="http://www.w3.org/2000/svg">
<path d="M47.6708 8.84C47.6708 7.99317 47.3244 7.23623 46.7727 6.67162C46.221 6.1327 45.4512 5.78625 44.6172 5.78625C42.9236 5.78625 41.5508 7.14633 41.5508 8.84V9.90485H47.6708V8.84Z" fill="#010211"/>
<path d="M16.7635 23.0953C20.2714 23.0953 23.115 20.2516 23.115 16.744C23.115 13.236 20.2714 10.3925 16.7635 10.3925C13.2558 10.3925 10.4121 13.236 10.4121 16.744C10.4121 20.2516 13.2558 23.0953 16.7635 23.0953Z" fill="#010211"/>
<path d="M37.9591 19.412C37.9591 18.8859 37.8308 18.3599 37.5613 17.8852C36.7017 16.3328 34.7515 15.7938 33.2119 16.6535L21.7674 23.0941H20.9847C19.7787 23.9026 18.3289 24.3772 16.7636 24.3772C15.1983 24.3772 13.7485 23.9026 12.5425 23.0941H9.37336C6.53793 23.0941 4.22852 25.4036 4.22852 28.2391V41.7878C4.22852 43.1993 5.37034 44.341 6.78171 44.341C7.48736 44.341 8.12886 44.0588 8.59073 43.5969C9.0526 43.135 9.33491 42.4935 9.33491 41.7878V34.9749H10.6179V58.9418C10.6179 60.6353 12.0036 62.2135 13.6844 62.2135C14.6851 62.2135 15.5575 61.7517 16.122 61.0202V43.0066H17.4051V61.0202C17.9696 61.7388 18.8293 62.2007 19.8171 62.2135C21.5107 62.2262 22.8964 60.6866 22.8964 58.9931V29.6248L36.3168 22.2218C37.3688 21.6316 37.9591 20.5281 37.9591 19.412Z" fill="#010211"/>
<path d="M59.77 11.1879H29.4651C27.2455 11.1879 25.4492 12.9841 25.4492 15.2037V19.5532L32.57 15.5373C33.25 15.1524 34.0069 14.96 34.7768 14.96C36.3934 14.96 37.8945 15.8452 38.6771 17.2565C39.0492 17.898 39.2417 18.655 39.2417 19.4121C39.2417 21.0415 38.3564 22.5426 36.9451 23.338L25.4492 29.6762V40.5433C25.4492 42.7629 27.2455 44.5464 29.4651 44.5464H41.6108L36.9525 56.5084L38.1478 56.9745L42.9877 44.5464H43.9728V56.7415H45.2558V44.5464H46.241L51.0808 56.9745L52.2761 56.5084L47.6178 44.5464H59.77C61.9896 44.5464 63.773 42.7629 63.773 40.5433V15.2037C63.773 12.9841 61.9896 11.1879 59.77 11.1879ZM58.4067 39.4207H34.8313C34.4767 39.4207 34.1898 39.1338 34.1898 38.7792C34.1898 38.4246 34.4767 38.1377 34.8313 38.1377H58.4067C58.7614 38.1377 59.0483 38.4246 59.0483 38.7792C59.0483 39.1338 58.7614 39.4207 58.4067 39.4207ZM58.4067 33.9679H34.8313C34.4767 33.9679 34.1898 33.6809 34.1898 33.3264C34.1898 32.9718 34.4767 32.6849 34.8313 32.6849H58.4067C58.7614 32.6849 59.0483 32.9718 59.0483 33.3264C59.0483 33.6809 58.7614 33.9679 58.4067 33.9679ZM58.4067 28.515H34.8313C34.4767 28.515 34.1898 28.2281 34.1898 27.8735C34.1898 27.5189 34.4767 27.232 34.8313 27.232H58.4067C58.7614 27.232 59.0483 27.5189 59.0483 27.8735C59.0483 28.2281 58.7614 28.515 58.4067 28.515ZM58.4067 23.0622H44.0455C43.6909 23.0622 43.404 22.7753 43.404 22.4207C43.404 22.0661 43.6909 21.7792 44.0455 21.7792H58.4067C58.7614 21.7792 59.0483 22.0661 59.0483 22.4207C59.0483 22.7753 58.7614 23.0622 58.4067 23.0622ZM58.4067 17.6094H44.0455C43.6909 17.6094 43.404 17.3225 43.404 16.9679C43.404 16.6133 43.6909 16.3264 44.0455 16.3264H58.4067C58.7614 16.3264 59.0483 16.6133 59.0483 16.9679C59.0483 17.3225 58.7614 17.6094 58.4067 17.6094Z" fill="#010211"/>
</svg>
