<svg width="76" height="76" viewBox="0 0 76 76" fill="none" xmlns="http://www.w3.org/2000/svg">
<rect width="76" height="76" rx="8" fill="#F2F5F7"/>
<path d="M34.9836 16C30.1981 16 26.3047 20.1313 26.3047 25.2094C26.3047 30.2875 30.1981 34.4189 34.9836 34.4189C39.7691 34.4189 43.6625 30.2876 43.6625 25.2095C43.6625 20.1314 39.7692 16 34.9836 16Z" fill="#010211"/>
<path d="M48.1886 43.2291C45.3278 38.9758 40.4703 36.1719 34.9705 36.1719C26.1923 36.1719 19.0508 43.3135 19.0508 52.0916V54.6266H40.196C40.0878 54.0429 40.0327 53.4455 40.0327 52.8395C40.0327 50.2384 41.0461 47.7929 42.8849 45.9533C44.3453 44.4928 46.1892 43.5532 48.1886 43.2291Z" fill="#010211"/>
<path d="M49.7846 45.6797C49.7081 45.6797 49.6317 45.6805 49.5559 45.684C45.7075 45.8043 42.625 48.9616 42.625 52.8393C42.625 53.4565 42.7032 54.0557 42.8502 54.6264C43.6436 57.7157 46.4477 59.9989 49.7846 59.9989C53.7388 59.9989 56.9443 56.7934 56.9443 52.8392C56.9443 48.8851 53.7388 45.6797 49.7846 45.6797ZM53.7379 54.1286H51.074V56.7925H48.4952V54.1286H45.8313V51.5498H48.4952V48.8859H51.074V51.5498H53.7379V54.1286Z" fill="#010211"/>
</svg>
