<svg width="68" height="68" viewBox="0 0 68 68" fill="none" xmlns="http://www.w3.org/2000/svg">
<path d="M7.24033 53.99C7.97032 53.99 8.69032 54.11 9.38033 54.36V48.62C9.38033 47.71 10.1203 46.97 11.0203 46.97H30.0803C29.5603 46.19 29.2803 45.28 29.2803 44.34C29.2803 43.98 29.3203 43.64 29.4003 43.29C29.4103 43.25 29.4203 43.2 29.4403 43.16H10.0403C7.57031 43.16 5.57031 45.17 5.57031 47.64V54.22C5.60031 54.21 5.63033 54.2 5.66032 54.19C6.17032 54.06 6.70032 53.99 7.24033 53.99Z" fill="#010211"/>
<path d="M38.6995 43.2898C38.7795 43.6298 38.8195 43.9798 38.8195 44.3398C38.8195 45.2698 38.5395 46.1898 38.0195 46.9698H57.1195C58.0195 46.9698 58.7595 47.7098 58.7595 48.6198V54.2998H58.7695C59.3995 54.0898 60.0795 53.9898 60.7595 53.9898C61.3695 53.9898 61.9695 54.0698 62.5295 54.2398C62.5395 54.2398 62.5595 54.2498 62.5695 54.2498V47.6398C62.5695 45.1698 60.5695 43.1598 58.0995 43.1598H38.6595C38.6795 43.1998 38.6895 43.2498 38.6995 43.2898Z" fill="#010211"/>
<path d="M35.9702 39.9998V36.3898H32.1602V39.9698C32.7502 39.7198 33.4002 39.5798 34.0502 39.5798C34.7202 39.5798 35.3802 39.7198 35.9702 39.9998Z" fill="#010211"/>
<path d="M32.1602 48.7097V54.2697C32.1801 54.2597 32.1902 54.2597 32.2101 54.2497C32.8102 54.0697 33.4301 53.9797 34.0602 53.9797C34.7202 53.9797 35.3501 54.0797 35.9501 54.2797C35.9601 54.2797 35.9601 54.2797 35.9702 54.2897V48.6897C35.3902 48.9497 34.7202 49.0997 34.0502 49.0997C33.3902 49.0997 32.7601 48.9697 32.1602 48.7097Z" fill="#010211"/>
<path d="M38.0652 44.3396C38.0652 44.0356 38.0322 43.7466 37.9652 43.4576C37.6942 42.2546 36.8692 41.2306 35.7652 40.7226C34.7122 40.2086 33.4532 40.2016 32.3852 40.6886C31.2482 41.2006 30.4062 42.2366 30.1342 43.4566C30.0672 43.7476 30.0352 44.0366 30.0352 44.3396C30.0352 45.2366 30.3442 46.1216 30.9042 46.8296C31.2892 47.3256 31.8012 47.7266 32.3842 47.9916C32.9122 48.2326 33.4732 48.3546 34.0502 48.3546C34.6402 48.3546 35.2322 48.2166 35.7542 47.9616C36.3142 47.7096 36.7982 47.3296 37.1942 46.8326C37.7562 46.1216 38.0652 45.2356 38.0652 44.3396Z" fill="#010211"/>
<path d="M62.3097 54.9597C61.2897 54.6497 60.0797 54.6597 59.0097 55.0097C56.7197 55.7697 55.1797 57.8897 55.1797 60.2997C55.1797 63.3697 57.6797 65.8697 60.7397 65.8697C63.8097 65.8697 66.3197 63.3697 66.3197 60.2997C66.3197 57.8397 64.6697 55.6497 62.3097 54.9597Z" fill="#010211"/>
<path d="M9.13969 55.0701C8.08969 54.6901 6.92969 54.6301 5.84969 54.9201C3.39969 55.5501 1.67969 57.7701 1.67969 60.3001C1.67969 63.3701 4.17969 65.8701 7.24968 65.8701C10.3197 65.8701 12.8197 63.3701 12.8197 60.3001C12.8197 57.9601 11.3397 55.8601 9.13969 55.0701Z" fill="#010211"/>
<path d="M35.7202 54.99C34.7102 54.66 33.5302 54.64 32.4302 54.97C30.0702 55.69 28.4902 57.83 28.4902 60.3C28.4902 63.37 30.9802 65.87 34.0402 65.87C37.1202 65.87 39.6202 63.37 39.6202 60.3C39.6202 57.86 38.0502 55.72 35.7202 54.99Z" fill="#010211"/>
<path d="M34.0496 19.95C38.2996 19.95 41.7596 15.95 41.7596 11.04C41.7596 6.13 38.2996 2.13 34.0496 2.13C29.7996 2.13 26.3496 6.13 26.3496 11.04C26.3496 15.95 29.7996 19.95 34.0496 19.95Z" fill="#010211"/>
<path d="M21.0395 35.6448H47.0695C47.4545 35.6448 47.8255 35.4808 48.0865 35.1958C48.3455 34.9148 48.4755 34.5378 48.4435 34.1608L47.9635 27.3528C47.6905 23.6138 44.5435 20.6848 40.7995 20.6848H27.3095C23.5555 20.6848 20.4085 23.6138 20.1455 27.3528L19.6555 34.1638C19.6295 34.5448 19.7645 34.9248 20.0255 35.2048C20.2865 35.4838 20.6565 35.6448 21.0395 35.6448Z" fill="#010211"/>
</svg>
