<svg width="390" height="223" viewBox="0 0 390 223" fill="none" xmlns="http://www.w3.org/2000/svg">
<g clip-path="url(#clip0_17155_119640)">
<path fill-rule="evenodd" clip-rule="evenodd" d="M84.0359 66.71C84.0359 60.6516 84.0637 54.5858 84.0145 48.5307C84.0057 47.2964 84.1319 46.6922 85.6427 46.7087C93.0377 46.7988 100.422 46.7973 107.813 46.7155C109.264 46.7009 109.489 47.2 109.48 48.4873C109.439 60.6832 109.429 72.8776 109.489 85.0735C109.497 86.6247 109.075 87.0639 107.517 87.0381C100.348 86.9573 93.1775 86.9397 86.0127 87.0527C84.2283 87.0809 83.9829 86.4553 84.0009 84.8938C84.0914 78.8334 84.0359 72.7744 84.0359 66.71Z" fill="#5A5BB5"/>
<path fill-rule="evenodd" clip-rule="evenodd" d="M84.0359 66.71C84.0359 60.6516 84.0637 54.5858 84.0145 48.5307C84.0057 47.2964 84.1319 46.6922 85.6427 46.7087C93.0377 46.7988 100.422 46.7973 107.813 46.7155C109.264 46.7009 109.489 47.2 109.48 48.4873C109.439 60.6832 109.429 72.8776 109.489 85.0735C109.497 86.6247 109.075 87.0639 107.517 87.0381C100.348 86.9573 93.1775 86.9397 86.0127 87.0527C84.2283 87.0809 83.9829 86.4553 84.0009 84.8938C84.0914 78.8334 84.0359 72.7744 84.0359 66.71Z" fill="white" fill-opacity="0.88"/>
<path fill-rule="evenodd" clip-rule="evenodd" d="M120.895 84.5524C119.001 83.3634 117.354 81.6349 114.815 81.8764C113.843 81.9733 114.057 81.1675 114.051 80.6387C114.038 71.0945 114.04 61.5615 114.031 52.0256C114.031 51.3317 114.074 50.7616 114.83 50.3803C122.114 46.7067 125.274 39.4786 129.737 33.3023C134.51 26.7102 136.147 19.5659 135.022 11.6601C134.718 9.51387 135.718 8.55176 137.653 8.11306C139.981 7.58137 142.299 8.22602 143.096 9.825C145.058 13.7923 146.744 17.9163 147.256 22.3247C147.676 25.9433 146.38 29.4651 145.928 33.0433C145.596 35.6633 144.986 38.2507 144.489 40.9033C144.96 41.2456 145.487 41.2042 146.007 41.1633C146.192 41.1482 146.376 41.1336 146.556 41.1365C154.614 41.1492 162.671 41.1458 170.73 41.1458C174.125 41.1458 175.789 42.1201 176.259 44.3734C176.84 47.1819 175.355 50.0356 172.75 51.3595C172.149 51.6633 171.06 51.3892 170.985 52.3323C170.914 53.2939 172.035 53.1946 172.591 53.5827C175.507 55.5843 174.967 59.7103 171.591 62.0966C170.779 62.6663 169.205 62.4029 169.166 63.5938C169.147 64.5437 170.621 64.5325 171.287 65.2011C173.641 67.5275 172.471 71.8721 168.954 73.6269C168.502 73.8499 167.943 73.8922 167.538 74.1732C167.137 74.4429 166.745 74.7428 167.521 75.2935C171.011 77.7869 170.936 81.2575 167.422 83.7875C167.077 84.0358 166.725 84.2904 166.372 84.5417C165.095 85.478 163.587 85.4648 162.129 85.4692C149.493 85.495 136.858 85.4863 124.223 85.478C123.038 85.478 121.84 85.4415 120.895 84.5524Z" fill="white"/>
<path d="M121.273 83.1455C121.016 82.9731 120.758 82.7901 120.49 82.5997C119.369 81.8051 118.14 80.9335 116.59 80.6024L122.371 75.5357V82.0471L121.332 83.0866L121.273 83.1455ZM141.847 76.2685V58.468L156.497 45.6304H171.609L141.847 76.2685Z" fill="white"/>
<path d="M136.68 18.5198C136.838 16.247 136.742 13.8991 136.395 11.4651C136.229 10.2912 136.44 9.81307 137.959 9.46883C138.388 9.37096 138.816 9.32422 139.226 9.32422C140.449 9.32422 141.497 9.741 141.846 10.4417C142.141 11.0376 142.439 11.6545 142.733 12.2899L136.68 18.5198Z" fill="white"/>
<path d="M143.652 84.0956H141.855V81.7303L169.641 51.9189C169.621 52.0168 169.607 52.1205 169.598 52.2295C169.515 53.3513 170.12 53.957 170.7 54.2901L143.652 84.0956ZM171.127 50.3243L174.951 46.2207C174.737 47.8255 173.709 49.3033 172.146 50.1066C172.087 50.1232 171.948 50.1446 171.853 50.1592C171.69 50.1846 171.422 50.2264 171.127 50.3243Z" fill="white"/>
<path d="M136.155 26.1541H135.105C135.518 24.9909 135.852 23.8092 136.11 22.6056L143.689 14.4739C144.006 15.25 144.307 16.0485 144.581 16.868L136.155 26.1541Z" fill="white"/>
<path d="M115.441 80.4659C117.56 80.5165 119.111 81.6169 120.498 82.5995C120.889 82.877 121.259 83.1394 121.634 83.3751L121.749 83.4472L121.847 83.5397C122.389 84.0495 123.139 84.0874 124.222 84.0874L124.876 84.0879C137.085 84.0957 149.71 84.1035 162.126 84.0787H162.203C163.522 84.0753 164.661 84.0719 165.55 83.4204C165.82 83.2281 166.074 83.045 166.325 82.8643L166.61 82.6589C167.964 81.6836 168.709 80.5501 168.707 79.4672C168.705 78.1292 167.621 77.0741 166.712 76.4246C166.024 75.9363 165.677 75.3539 165.685 74.6961C165.696 73.7374 166.442 73.2349 166.76 73.0202C167.162 72.7407 167.596 72.6136 167.946 72.5119C168.098 72.4676 168.254 72.4213 168.339 72.3795C169.79 71.6559 170.841 70.2916 171.076 68.8217C171.173 68.2174 171.201 67.0718 170.309 66.19C170.225 66.1145 169.936 65.9957 169.744 65.9168C169.095 65.651 167.745 65.0969 167.775 63.5661C167.835 61.7353 169.488 61.321 170.194 61.1442C170.397 61.0931 170.704 61.0162 170.793 60.9578C172.242 59.9333 173.104 58.4897 173.095 57.0996C173.088 56.1277 172.645 55.3112 171.814 54.7366C171.759 54.7108 171.62 54.6665 171.527 54.6368C171.017 54.4747 169.468 53.982 169.598 52.2296C169.736 50.488 171.329 50.2406 171.853 50.1593C171.947 50.1447 172.087 50.1233 172.146 50.1067C174.21 49.0453 175.342 46.807 174.897 44.6549C174.674 43.5847 174.166 42.5359 170.729 42.5359L166.333 42.5364C159.74 42.5359 153.146 42.5374 146.554 42.5272C146.418 42.5257 146.274 42.5364 146.118 42.5491C145.498 42.5992 144.557 42.6737 143.67 42.0271L142.96 41.51L143.122 40.6472C143.276 39.8263 143.44 39.0117 143.604 38.2006C143.975 36.3659 144.325 34.6335 144.548 32.8685C144.704 31.6342 144.955 30.4131 145.197 29.2314C145.677 26.8943 146.131 24.6872 145.875 22.4854C145.352 17.9874 143.547 13.8731 141.849 10.4414C141.383 9.5066 139.674 9.07715 137.962 9.46862C136.443 9.81286 136.232 10.291 136.398 11.4649C137.599 19.9053 135.788 27.3154 130.863 34.1179C129.832 35.5445 128.846 37.069 127.892 38.5433C124.68 43.5097 121.359 48.645 115.456 51.622L115.437 51.6322C115.427 51.7086 115.421 51.8406 115.421 52.0256C115.425 55.8176 115.426 59.6095 115.428 63.402C115.431 69.0885 115.433 74.775 115.441 80.4659ZM143.131 86.8769C136.994 86.8769 130.885 86.873 124.874 86.8691L124.221 86.8686C123.098 86.8686 121.416 86.8686 120.049 85.6626C119.647 85.4055 119.262 85.1323 118.889 84.8684C117.567 83.9302 116.426 83.1224 114.946 83.2607C114.083 83.3483 113.547 83.0289 113.251 82.7475C112.591 82.1208 112.632 81.2809 112.654 80.8296C112.657 80.7687 112.661 80.7098 112.66 80.6548C112.652 74.8918 112.649 69.1474 112.647 63.4035C112.645 59.611 112.644 55.819 112.641 52.027C112.641 51.3444 112.641 49.9261 114.205 49.1383C119.433 46.5017 122.408 41.9025 125.557 37.033C126.53 35.5289 127.535 33.9738 128.609 32.4883C133.092 26.2968 134.739 19.5484 133.645 11.8559C133.378 9.97305 133.803 7.56046 137.344 6.75708C140.398 6.06081 143.275 7.06675 144.34 9.20472C146.04 12.6408 148.062 17.2152 148.637 22.1645C148.944 24.8099 148.424 27.3417 147.921 29.7908C147.678 30.9725 147.45 32.089 147.307 33.2176C147.071 35.0839 146.694 36.9483 146.33 38.7508C146.262 39.0867 146.194 39.4227 146.127 39.7596C146.268 39.7504 146.419 39.744 146.577 39.746C153.15 39.7567 159.742 39.7557 166.333 39.7552L170.729 39.7547C173.298 39.7547 176.808 40.2042 177.62 44.0891C178.31 47.4297 176.624 50.878 173.511 52.5305C175.022 53.6207 175.863 55.2328 175.876 57.0801C175.892 59.3797 174.59 61.6793 172.393 63.2321C172.106 63.4332 171.8 63.5661 171.506 63.6639C171.769 63.8047 172.034 63.9809 172.271 64.219C173.562 65.4947 174.13 67.3347 173.822 69.2604C173.443 71.6364 171.854 73.7335 169.574 74.8714C169.492 74.9118 169.41 74.9478 169.33 74.98C170.729 76.2917 171.485 77.8488 171.488 79.4619C171.492 81.4655 170.336 83.4029 168.234 84.9157L167.951 85.1201C167.695 85.3047 167.437 85.4907 167.178 85.6747C165.574 86.8506 163.787 86.8555 162.21 86.8594L162.132 86.8598C155.825 86.8725 149.463 86.8769 143.131 86.8769Z" fill="#5A5BB5"/>
<path d="M115.441 80.4659C117.56 80.5165 119.111 81.6169 120.498 82.5995C120.889 82.877 121.259 83.1394 121.634 83.3751L121.749 83.4472L121.847 83.5397C122.389 84.0495 123.139 84.0874 124.222 84.0874L124.876 84.0879C137.085 84.0957 149.71 84.1035 162.126 84.0787H162.203C163.522 84.0753 164.661 84.0719 165.55 83.4204C165.82 83.2281 166.074 83.045 166.325 82.8643L166.61 82.6589C167.964 81.6836 168.709 80.5501 168.707 79.4672C168.705 78.1292 167.621 77.0741 166.712 76.4246C166.024 75.9363 165.677 75.3539 165.685 74.6961C165.696 73.7374 166.442 73.2349 166.76 73.0202C167.162 72.7407 167.596 72.6136 167.946 72.5119C168.098 72.4676 168.254 72.4213 168.339 72.3795C169.79 71.6559 170.841 70.2916 171.076 68.8217C171.173 68.2174 171.201 67.0718 170.309 66.19C170.225 66.1145 169.936 65.9957 169.744 65.9168C169.095 65.651 167.745 65.0969 167.775 63.5661C167.835 61.7353 169.488 61.321 170.194 61.1442C170.397 61.0931 170.704 61.0162 170.793 60.9578C172.242 59.9333 173.104 58.4897 173.095 57.0996C173.088 56.1277 172.645 55.3112 171.814 54.7366C171.759 54.7108 171.62 54.6665 171.527 54.6368C171.017 54.4747 169.468 53.982 169.598 52.2296C169.736 50.488 171.329 50.2406 171.853 50.1593C171.947 50.1447 172.087 50.1233 172.146 50.1067C174.21 49.0453 175.342 46.807 174.897 44.6549C174.674 43.5847 174.166 42.5359 170.729 42.5359L166.333 42.5364C159.74 42.5359 153.146 42.5374 146.554 42.5272C146.418 42.5257 146.274 42.5364 146.118 42.5491C145.498 42.5992 144.557 42.6737 143.67 42.0271L142.96 41.51L143.122 40.6472C143.276 39.8263 143.44 39.0117 143.604 38.2006C143.975 36.3659 144.325 34.6335 144.548 32.8685C144.704 31.6342 144.955 30.4131 145.197 29.2314C145.677 26.8943 146.131 24.6872 145.875 22.4854C145.352 17.9874 143.547 13.8731 141.849 10.4414C141.383 9.5066 139.674 9.07715 137.962 9.46862C136.443 9.81286 136.232 10.291 136.398 11.4649C137.599 19.9053 135.788 27.3154 130.863 34.1179C129.832 35.5445 128.846 37.069 127.892 38.5433C124.68 43.5097 121.359 48.645 115.456 51.622L115.437 51.6322C115.427 51.7086 115.421 51.8406 115.421 52.0256C115.425 55.8176 115.426 59.6095 115.428 63.402C115.431 69.0885 115.433 74.775 115.441 80.4659ZM143.131 86.8769C136.994 86.8769 130.885 86.873 124.874 86.8691L124.221 86.8686C123.098 86.8686 121.416 86.8686 120.049 85.6626C119.647 85.4055 119.262 85.1323 118.889 84.8684C117.567 83.9302 116.426 83.1224 114.946 83.2607C114.083 83.3483 113.547 83.0289 113.251 82.7475C112.591 82.1208 112.632 81.2809 112.654 80.8296C112.657 80.7687 112.661 80.7098 112.66 80.6548C112.652 74.8918 112.649 69.1474 112.647 63.4035C112.645 59.611 112.644 55.819 112.641 52.027C112.641 51.3444 112.641 49.9261 114.205 49.1383C119.433 46.5017 122.408 41.9025 125.557 37.033C126.53 35.5289 127.535 33.9738 128.609 32.4883C133.092 26.2968 134.739 19.5484 133.645 11.8559C133.378 9.97305 133.803 7.56046 137.344 6.75708C140.398 6.06081 143.275 7.06675 144.34 9.20472C146.04 12.6408 148.062 17.2152 148.637 22.1645C148.944 24.8099 148.424 27.3417 147.921 29.7908C147.678 30.9725 147.45 32.089 147.307 33.2176C147.071 35.0839 146.694 36.9483 146.33 38.7508C146.262 39.0867 146.194 39.4227 146.127 39.7596C146.268 39.7504 146.419 39.744 146.577 39.746C153.15 39.7567 159.742 39.7557 166.333 39.7552L170.729 39.7547C173.298 39.7547 176.808 40.2042 177.62 44.0891C178.31 47.4297 176.624 50.878 173.511 52.5305C175.022 53.6207 175.863 55.2328 175.876 57.0801C175.892 59.3797 174.59 61.6793 172.393 63.2321C172.106 63.4332 171.8 63.5661 171.506 63.6639C171.769 63.8047 172.034 63.9809 172.271 64.219C173.562 65.4947 174.13 67.3347 173.822 69.2604C173.443 71.6364 171.854 73.7335 169.574 74.8714C169.492 74.9118 169.41 74.9478 169.33 74.98C170.729 76.2917 171.485 77.8488 171.488 79.4619C171.492 81.4655 170.336 83.4029 168.234 84.9157L167.951 85.1201C167.695 85.3047 167.437 85.4907 167.178 85.6747C165.574 86.8506 163.787 86.8555 162.21 86.8594L162.132 86.8598C155.825 86.8725 149.463 86.8769 143.131 86.8769Z" fill="white" fill-opacity="0.88"/>
<path fill-rule="evenodd" clip-rule="evenodd" d="M229.97 114.557C229.97 109.691 229.992 104.82 229.953 99.9578C229.946 98.9665 230.047 98.4815 231.26 98.4946C237.199 98.5672 243.129 98.5657 249.065 98.5C250.229 98.4883 250.409 98.889 250.403 99.9232C250.37 109.717 250.362 119.51 250.409 129.304C250.417 130.549 250.077 130.902 248.827 130.881C243.069 130.817 237.311 130.802 231.558 130.893C230.125 130.916 229.927 130.413 229.942 129.16C230.015 124.293 229.97 119.427 229.97 114.557Z" fill="#5A5BB5"/>
<path fill-rule="evenodd" clip-rule="evenodd" d="M229.97 114.557C229.97 109.691 229.992 104.82 229.953 99.9578C229.946 98.9665 230.047 98.4815 231.26 98.4946C237.199 98.5672 243.129 98.5657 249.065 98.5C250.229 98.4883 250.409 98.889 250.403 99.9232C250.37 109.717 250.362 119.51 250.409 129.304C250.417 130.549 250.077 130.902 248.827 130.881C243.069 130.817 237.311 130.802 231.558 130.893C230.125 130.916 229.927 130.413 229.942 129.16C230.015 124.293 229.97 119.427 229.97 114.557Z" fill="white" fill-opacity="0.88"/>
<path fill-rule="evenodd" clip-rule="evenodd" d="M259.567 132.886C258.046 131.931 256.723 130.543 254.684 130.737C253.903 130.815 254.075 130.167 254.07 129.743C254.06 122.079 254.062 114.423 254.055 106.765C254.055 106.208 254.089 105.749 254.696 105.444C260.546 102.494 263.083 96.6892 266.667 91.7291C270.5 86.4351 271.814 80.6979 270.911 74.3493C270.667 72.6256 271.47 71.8529 273.024 71.5009C274.894 71.0739 276.755 71.5915 277.395 72.8754C278.971 76.0612 280.325 79.3731 280.736 82.9138C281.073 85.8192 280.032 88.6476 279.669 91.5212C279.403 93.6246 278.913 95.7027 278.514 97.8329C278.891 98.108 279.315 98.0749 279.732 98.0418C279.881 98.0296 280.029 98.0179 280.174 98.0204C286.644 98.0301 293.114 98.0277 299.586 98.0277C302.313 98.0277 303.649 98.8101 304.027 100.62C304.493 102.875 303.301 105.167 301.209 106.23C300.725 106.474 299.851 106.254 299.791 107.011C299.734 107.784 300.634 107.704 301.081 108.015C303.423 109.623 302.989 112.936 300.278 114.852C299.626 115.31 298.362 115.098 298.33 116.055C298.315 116.818 299.498 116.809 300.034 117.345C301.924 119.214 300.985 122.703 298.16 124.112C297.797 124.291 297.348 124.325 297.023 124.551C296.701 124.767 296.387 125.008 297.009 125.45C299.812 127.452 299.752 130.24 296.93 132.271C296.653 132.471 296.371 132.675 296.087 132.877C295.061 133.629 293.85 133.619 292.679 133.622C282.532 133.642 272.385 133.636 262.239 133.629C261.288 133.629 260.325 133.6 259.567 132.886Z" fill="white"/>
<path d="M302.152 94.3913C301.489 94.144 300.644 94.0276 299.592 94.0276H292.277L292.278 94.0266H299.591C300.644 94.0266 301.489 94.1435 302.152 94.3913Z" fill="white"/>
<path d="M270.988 77.1555C271.279 74.9645 271.249 72.6989 270.914 70.3487C270.852 69.9105 270.858 69.5336 270.927 69.2098C270.858 69.5336 270.853 69.911 270.915 70.3492C271.249 72.6975 271.28 74.9625 270.991 77.1521L270.988 77.1555ZM272.316 67.7136C272.532 67.6293 272.769 67.5587 273.028 67.5003C273.459 67.4015 273.89 67.3533 274.306 67.3533C274.614 67.3533 274.914 67.3801 275.199 67.4317C274.914 67.3801 274.615 67.3538 274.307 67.3538C273.891 67.3538 273.459 67.402 273.028 67.5008C272.769 67.5592 272.531 67.6293 272.316 67.7136Z" fill="white"/>
<path d="M270.991 77.1524C271.279 74.9628 271.248 72.6977 270.914 70.3494C270.852 69.9112 270.858 69.5339 270.927 69.2101C271.083 68.4724 271.565 68.0079 272.316 67.7138C272.531 67.6296 272.768 67.5595 273.027 67.501C273.459 67.4022 273.89 67.354 274.307 67.354C274.614 67.354 274.913 67.3803 275.198 67.4319C276.195 67.614 277.015 68.1077 277.397 68.8751C277.581 69.2471 277.762 69.622 277.941 69.9993L270.991 77.1524Z" fill="white"/>
<path d="M299.94 103.485C299.838 103.375 299.78 103.226 299.796 103.011C299.809 102.845 299.861 102.726 299.94 102.639C299.861 102.726 299.809 102.846 299.796 103.012C299.78 103.226 299.838 103.375 299.94 103.485ZM300.988 102.31C301.068 102.29 301.145 102.264 301.213 102.23C303.213 101.214 304.39 99.0762 304.084 96.9202C304.391 99.0762 303.213 101.213 301.213 102.23C301.145 102.264 301.068 102.29 300.988 102.31Z" fill="white"/>
<path d="M266.871 87.4477C268.361 85.3345 269.455 83.1493 270.164 80.8828L270.168 80.8779C269.456 83.1459 268.363 85.3321 266.871 87.4477Z" fill="white"/>
<path d="M266.871 87.448V87.4475C268.363 85.332 269.456 83.1458 270.168 80.8778L278.708 71.7158C278.971 72.3361 279.219 72.9594 279.445 73.5918L266.871 87.448Z" fill="white"/>
<path d="M255.186 130.031C256.888 130.071 258.134 130.955 259.247 131.744C259.562 131.967 259.859 132.178 260.16 132.367L260.252 132.425L260.331 132.499C260.766 132.908 261.369 132.939 262.238 132.939L262.764 132.939C272.568 132.945 282.706 132.952 292.676 132.932L292.739 132.932C293.798 132.929 294.713 132.926 295.426 132.403C295.643 132.249 295.847 132.103 296.049 131.957L296.277 131.792C297.365 131.009 297.964 130.098 297.962 129.228C297.96 128.154 297.09 127.307 296.36 126.786C295.807 126.393 295.529 125.926 295.535 125.397C295.544 124.628 296.143 124.224 296.398 124.052C296.721 123.827 297.07 123.725 297.35 123.643C297.472 123.608 297.598 123.571 297.666 123.537C298.831 122.956 299.675 121.86 299.864 120.68C299.942 120.194 299.965 119.274 299.248 118.566C299.181 118.505 298.949 118.41 298.795 118.347C298.273 118.133 297.189 117.689 297.214 116.459C297.261 114.989 298.589 114.656 299.156 114.514C299.319 114.473 299.565 114.412 299.637 114.365C300.801 113.542 301.493 112.383 301.485 111.266C301.48 110.486 301.124 109.83 300.457 109.369C300.413 109.348 300.301 109.313 300.226 109.289C299.817 109.158 298.573 108.762 298.677 107.355C298.788 105.956 300.067 105.758 300.488 105.693C300.564 105.681 300.676 105.664 300.723 105.651C302.381 104.798 303.29 103.001 302.933 101.273C302.753 100.413 302.346 99.5708 299.585 99.5708L296.055 99.5713C290.76 99.5708 285.466 99.5718 280.171 99.5635C280.062 99.5625 279.947 99.5713 279.822 99.5815C279.323 99.6214 278.568 99.6813 277.856 99.1623L277.285 98.747L277.415 98.0536C277.539 97.3944 277.671 96.7405 277.802 96.089C278.1 94.6161 278.381 93.2246 278.561 91.8072C278.686 90.8163 278.887 89.8352 279.082 88.8868C279.468 87.0098 279.831 85.237 279.626 83.469C279.206 79.8572 277.757 76.5531 276.393 73.7973C276.019 73.0465 274.647 72.7017 273.271 73.0158C272.052 73.2923 271.882 73.6765 272.016 74.6191C272.98 81.3973 271.526 87.3477 267.571 92.8107C266.743 93.9564 265.951 95.1804 265.185 96.3646C262.606 100.353 259.939 104.477 255.199 106.867L255.183 106.876C255.175 106.937 255.171 107.043 255.171 107.192C255.173 110.236 255.175 113.282 255.176 116.327C255.178 120.894 255.18 125.461 255.186 130.031ZM277.423 135.179C272.495 135.179 267.588 135.176 262.762 135.172H262.237C261.336 135.172 259.984 135.172 258.886 134.204C258.564 133.998 258.255 133.778 257.955 133.566C256.893 132.813 255.977 132.164 254.789 132.275C254.096 132.345 253.665 132.089 253.427 131.863C252.898 131.359 252.931 130.685 252.948 130.323C252.951 130.274 252.954 130.226 252.953 130.182C252.947 125.555 252.945 120.941 252.943 116.328C252.941 113.283 252.94 110.238 252.938 107.193C252.938 106.644 252.938 105.506 254.194 104.873C258.392 102.756 260.781 99.062 263.31 95.1517C264.091 93.9437 264.899 92.6953 265.761 91.5019C269.361 86.5297 270.684 81.1105 269.805 74.9332C269.59 73.4209 269.932 71.4835 272.776 70.8384C275.228 70.2789 277.538 71.0872 278.394 72.804C279.759 75.5632 281.383 79.2369 281.845 83.2115C282.091 85.3358 281.673 87.3691 281.27 89.3357C281.075 90.2846 280.891 91.1815 280.776 92.0876C280.587 93.5863 280.284 95.0835 279.992 96.5311C279.937 96.8008 279.883 97.0706 279.829 97.3413C279.942 97.334 280.064 97.3286 280.19 97.3301C285.468 97.3389 290.763 97.3379 296.055 97.3379L299.585 97.3374C301.649 97.3374 304.467 97.6982 305.12 100.818C305.674 103.501 304.319 106.27 301.82 107.597C303.033 108.473 303.708 109.767 303.719 111.251C303.731 113.097 302.686 114.944 300.922 116.191C300.692 116.353 300.445 116.459 300.209 116.538C300.42 116.651 300.633 116.792 300.824 116.984C301.86 118.008 302.316 119.486 302.07 121.032C301.765 122.94 300.49 124.624 298.658 125.538C298.592 125.571 298.526 125.599 298.462 125.625C299.585 126.678 300.193 127.929 300.195 129.224C300.198 130.834 299.27 132.389 297.582 133.604L297.354 133.768C297.149 133.916 296.942 134.066 296.734 134.214C295.446 135.158 294.011 135.162 292.744 135.165H292.682C287.616 135.175 282.508 135.179 277.423 135.179Z" fill="#5A5BB5"/>
<path d="M255.186 130.031C256.888 130.071 258.134 130.955 259.247 131.744C259.562 131.967 259.859 132.178 260.16 132.367L260.252 132.425L260.331 132.499C260.766 132.908 261.369 132.939 262.238 132.939L262.764 132.939C272.568 132.945 282.706 132.952 292.676 132.932L292.739 132.932C293.798 132.929 294.713 132.926 295.426 132.403C295.643 132.249 295.847 132.103 296.049 131.957L296.277 131.792C297.365 131.009 297.964 130.098 297.962 129.228C297.96 128.154 297.09 127.307 296.36 126.786C295.807 126.393 295.529 125.926 295.535 125.397C295.544 124.628 296.143 124.224 296.398 124.052C296.721 123.827 297.07 123.725 297.35 123.643C297.472 123.608 297.598 123.571 297.666 123.537C298.831 122.956 299.675 121.86 299.864 120.68C299.942 120.194 299.965 119.274 299.248 118.566C299.181 118.505 298.949 118.41 298.795 118.347C298.273 118.133 297.189 117.689 297.214 116.459C297.261 114.989 298.589 114.656 299.156 114.514C299.319 114.473 299.565 114.412 299.637 114.365C300.801 113.542 301.493 112.383 301.485 111.266C301.48 110.486 301.124 109.83 300.457 109.369C300.413 109.348 300.301 109.313 300.226 109.289C299.817 109.158 298.573 108.762 298.677 107.355C298.788 105.956 300.067 105.758 300.488 105.693C300.564 105.681 300.676 105.664 300.723 105.651C302.381 104.798 303.29 103.001 302.933 101.273C302.753 100.413 302.346 99.5708 299.585 99.5708L296.055 99.5713C290.76 99.5708 285.466 99.5718 280.171 99.5635C280.062 99.5625 279.947 99.5713 279.822 99.5815C279.323 99.6214 278.568 99.6813 277.856 99.1623L277.285 98.747L277.415 98.0536C277.539 97.3944 277.671 96.7405 277.802 96.089C278.1 94.6161 278.381 93.2246 278.561 91.8072C278.686 90.8163 278.887 89.8352 279.082 88.8868C279.468 87.0098 279.831 85.237 279.626 83.469C279.206 79.8572 277.757 76.5531 276.393 73.7973C276.019 73.0465 274.647 72.7017 273.271 73.0158C272.052 73.2923 271.882 73.6765 272.016 74.6191C272.98 81.3973 271.526 87.3477 267.571 92.8107C266.743 93.9564 265.951 95.1804 265.185 96.3646C262.606 100.353 259.939 104.477 255.199 106.867L255.183 106.876C255.175 106.937 255.171 107.043 255.171 107.192C255.173 110.236 255.175 113.282 255.176 116.327C255.178 120.894 255.18 125.461 255.186 130.031ZM277.423 135.179C272.495 135.179 267.588 135.176 262.762 135.172H262.237C261.336 135.172 259.984 135.172 258.886 134.204C258.564 133.998 258.255 133.778 257.955 133.566C256.893 132.813 255.977 132.164 254.789 132.275C254.096 132.345 253.665 132.089 253.427 131.863C252.898 131.359 252.931 130.685 252.948 130.323C252.951 130.274 252.954 130.226 252.953 130.182C252.947 125.555 252.945 120.941 252.943 116.328C252.941 113.283 252.94 110.238 252.938 107.193C252.938 106.644 252.938 105.506 254.194 104.873C258.392 102.756 260.781 99.062 263.31 95.1517C264.091 93.9437 264.899 92.6953 265.761 91.5019C269.361 86.5297 270.684 81.1105 269.805 74.9332C269.59 73.4209 269.932 71.4835 272.776 70.8384C275.228 70.2789 277.538 71.0872 278.394 72.804C279.759 75.5632 281.383 79.2369 281.845 83.2115C282.091 85.3358 281.673 87.3691 281.27 89.3357C281.075 90.2846 280.891 91.1815 280.776 92.0876C280.587 93.5863 280.284 95.0835 279.992 96.5311C279.937 96.8008 279.883 97.0706 279.829 97.3413C279.942 97.334 280.064 97.3286 280.19 97.3301C285.468 97.3389 290.763 97.3379 296.055 97.3379L299.585 97.3374C301.649 97.3374 304.467 97.6982 305.12 100.818C305.674 103.501 304.319 106.27 301.82 107.597C303.033 108.473 303.708 109.767 303.719 111.251C303.731 113.097 302.686 114.944 300.922 116.191C300.692 116.353 300.445 116.459 300.209 116.538C300.42 116.651 300.633 116.792 300.824 116.984C301.86 118.008 302.316 119.486 302.07 121.032C301.765 122.94 300.49 124.624 298.658 125.538C298.592 125.571 298.526 125.599 298.462 125.625C299.585 126.678 300.193 127.929 300.195 129.224C300.198 130.834 299.27 132.389 297.582 133.604L297.354 133.768C297.149 133.916 296.942 134.066 296.734 134.214C295.446 135.158 294.011 135.162 292.744 135.165H292.682C287.616 135.175 282.508 135.179 277.423 135.179Z" fill="white" fill-opacity="0.88"/>
<path d="M96.0154 138.237C93.2936 127.521 99.7743 116.626 110.49 113.904C121.207 111.182 132.101 117.663 134.823 128.38C137.545 139.096 131.064 149.99 120.348 152.712C109.631 155.434 98.7372 148.953 96.0154 138.237Z" fill="#5A5BB5"/>
<path d="M96.0154 138.237C93.2936 127.521 99.7743 116.626 110.49 113.904C121.207 111.182 132.101 117.663 134.823 128.38C137.545 139.096 131.064 149.99 120.348 152.712C109.631 155.434 98.7372 148.953 96.0154 138.237Z" fill="white" fill-opacity="0.88"/>
<path d="M125.661 135.714C122.692 141.841 115.531 145.528 115.531 145.528C115.531 145.528 108.302 141.974 105.227 135.902C102.661 130.838 104.206 125.324 108.171 124.086C113.854 122.31 115.408 132.222 115.408 132.222C115.408 132.222 116.779 122.283 122.5 123.954C126.486 125.119 128.133 130.603 125.661 135.714Z" fill="white"/>
<path d="M207.855 25.0647C205.133 14.348 211.614 3.45413 222.33 0.732357C233.047 -1.9899 243.941 4.49122 246.662 15.2074C249.385 25.9241 242.904 36.8175 232.187 39.5397C221.471 42.2615 210.577 35.7808 207.855 25.0647Z" fill="#5A5BB5"/>
<path d="M207.855 25.0647C205.133 14.348 211.614 3.45413 222.33 0.732357C233.047 -1.9899 243.941 4.49122 246.662 15.2074C249.385 25.9241 242.904 36.8175 232.187 39.5397C221.471 42.2615 210.577 35.7808 207.855 25.0647Z" fill="white" fill-opacity="0.88"/>
<path d="M237.504 22.5425C234.536 28.6696 227.374 32.3559 227.374 32.3559C227.374 32.3559 220.146 28.802 217.071 22.7304C214.505 17.6657 216.05 12.152 220.015 10.9143C225.698 9.1386 227.252 19.0499 227.252 19.0499C227.252 19.0499 228.623 9.11133 234.343 10.7824C238.33 11.947 239.976 17.4315 237.504 22.5425Z" fill="white"/>
<path d="M259.152 188.916C257.013 180.494 262.106 171.932 270.529 169.792C278.951 167.653 287.513 172.747 289.652 181.169C291.792 189.592 286.698 198.153 278.276 200.293C269.853 202.432 261.291 197.338 259.152 188.916Z" fill="#5A5BB5"/>
<path d="M259.152 188.916C257.013 180.494 262.106 171.932 270.529 169.792C278.951 167.653 287.513 172.747 289.652 181.169C291.792 189.592 286.698 198.153 278.276 200.293C269.853 202.432 261.291 197.338 259.152 188.916Z" fill="white" fill-opacity="0.88"/>
<path d="M282.451 186.934C280.118 191.75 274.489 194.647 274.489 194.647C274.489 194.647 268.808 191.854 266.391 187.082C264.374 183.102 265.589 178.768 268.705 177.795C273.172 176.399 274.393 184.189 274.393 184.189C274.393 184.189 275.47 176.378 279.967 177.692C283.1 178.606 284.394 182.917 282.451 186.934Z" fill="white"/>
<path d="M141.851 151.171H247.392V45.6303H141.851V151.171ZM266.868 170.647H122.375V26.1543H266.868V170.647Z" fill="#5A5BB5"/>
<path d="M141.851 151.171H247.392V45.6303H141.851V151.171ZM266.868 170.647H122.375V26.1543H266.868V170.647Z" fill="black" fill-opacity="0.6"/>
<path d="M164.387 149.992L109.41 95.0156L130.068 74.3579L164.387 108.677L259.182 13.8816L279.839 34.5393L164.387 149.992Z" fill="#5A5BB5"/>
<path d="M142.867 87.1611H142.866L142.582 86.8772H142.583L142.867 87.1611Z" fill="white"/>
<path d="M142.589 86.8768H142.588L141.855 86.1445V86.1431L142.589 86.8768Z" fill="#DADBDB"/>
<path d="M141.851 86.1448L130.065 74.3579L122.375 82.047L130.064 74.3555L141.851 86.1433V86.1448Z" fill="black"/>
<path d="M142.867 87.1607H117.262L121.335 83.0863L122.374 82.0468L130.063 74.3577L141.85 86.1445L142.582 86.8768L142.867 87.1607Z" fill="#5A5BB5"/>
<path d="M223.655 87.1607H185.898L210.642 62.4165H251.951L244.203 70.165C243.137 67.7028 241.579 65.9197 239.376 64.9284C237.798 64.219 235.94 63.6498 234.045 63.6498C231.56 63.6498 229.012 64.6309 226.957 67.5635C224.04 71.7275 222.356 86.1821 223.544 87.078C223.581 87.1057 223.618 87.1335 223.655 87.1607Z" fill="#5A5BB5"/>
<path d="M161.833 106.125H161.832L151.953 96.2462H151.954L161.833 106.125Z" fill="white"/>
<path d="M161.836 106.126H120.524L110.645 96.2463H151.957L161.836 106.126Z" fill="#5A5BB5"/>
<path d="M201.411 106.125H166.938L176.817 96.2462H204.156C202.963 96.776 202.13 97.2132 201.832 97.501C200.656 98.6354 200.714 102.818 201.411 106.125Z" fill="#5A5BB5"/>
<path d="M276.393 31.095H241.969L251.848 21.2158H266.513L274.672 29.3748L276.393 31.095Z" fill="#5A5BB5"/>
<path d="M274.551 39.8202H233.242L236.222 36.8403H277.531L274.551 39.8202Z" fill="#5A5BB5"/>
<path d="M176.016 138.358L178.995 135.379H178.996L176.016 138.358Z" fill="white"/>
<path d="M176.017 138.358H152.753L149.773 135.379H178.997L176.017 138.358Z" fill="#5A5BB5"/>
<path d="M97.3672 220.993C159.674 220.695 229.569 220.692 291.876 220.993C229.569 221.293 159.674 221.291 97.3672 220.993Z" fill="black"/>
<path d="M152.491 203.749C153.711 204.462 191.255 212.31 192.876 211.705C193.492 211.478 194.954 206.077 196.535 199.5C196.877 198.08 197.221 196.611 197.562 195.118C199.788 185.425 201.923 175.087 201.923 175.087L176.823 169.765L173.153 189.941L172.344 194.37C172.344 194.37 156.625 197.794 154.919 198.649C153.22 199.506 151.271 203.035 152.491 203.749Z" fill="#FFBE9D"/>
<path d="M195.926 202.01C194.589 207.403 193.412 211.506 192.876 211.706C191.257 212.313 153.709 204.459 152.49 203.746C151.272 203.034 153.22 199.508 154.916 198.648C155.97 198.124 162.357 196.617 167.096 195.54C162.958 196.529 155.233 199.337 171.205 200.491C184.41 201.451 193.124 201.886 195.926 202.01Z" fill="black"/>
<path d="M195.926 202.01C194.589 207.403 193.412 211.506 192.876 211.706C191.257 212.313 153.709 204.459 152.49 203.746C151.272 203.034 153.22 199.508 154.916 198.648C155.97 198.124 162.357 196.617 167.096 195.54C162.958 196.529 155.233 199.337 171.205 200.491C184.41 201.451 193.124 201.886 195.926 202.01Z" fill="white" fill-opacity="0.1"/>
<path d="M186.38 222.95C187.741 223.329 226.047 221.351 227.459 220.352C227.998 219.976 227.094 211.571 226.693 210.092C225.334 205.082 218.291 183.018 218.291 183.018L192.663 184.267L203.188 208.823C203.188 208.823 188.861 216.139 187.429 217.401C186.004 218.662 185.019 222.572 186.38 222.95Z" fill="#FFBE9D"/>
<path d="M227.461 220.351C226.048 221.352 187.746 223.33 186.38 222.953C185.02 222.571 186.003 218.661 187.428 217.402C188.099 216.813 191.56 214.917 195.069 213.057C190.666 215.535 183.695 221.063 227.06 211.208C227.455 215.594 227.749 220.151 227.461 220.351Z" fill="black"/>
<path d="M227.461 220.351C226.048 221.352 187.746 223.33 186.38 222.953C185.02 222.571 186.003 218.661 187.428 217.402C188.099 216.813 191.56 214.917 195.069 213.057C190.666 215.535 183.695 221.063 227.06 211.208C227.455 215.594 227.749 220.151 227.461 220.351Z" fill="white" fill-opacity="0.1"/>
<path d="M245.8 147.191C241.211 152.304 230.112 151.915 221.654 151.528C216.041 151.27 211.592 151.013 210.98 152.363C209.63 155.348 227.134 203.283 227.134 203.283L199.123 206.303C199.123 206.303 174.942 153.363 183.585 138.068C188.254 129.807 208.827 133.101 221.242 131.589C224.986 131.133 226.745 123.41 226.745 123.41H248.929C248.929 123.41 254.526 137.471 245.8 147.191Z" fill="black"/>
<path d="M245.8 147.191C241.211 152.304 230.112 151.915 221.654 151.528C216.041 151.27 211.592 151.013 210.98 152.363C209.63 155.348 227.134 203.283 227.134 203.283L199.123 206.303C199.123 206.303 174.942 153.363 183.585 138.068C188.254 129.807 208.827 133.101 221.242 131.589C224.986 131.133 226.745 123.41 226.745 123.41H248.929C248.929 123.41 254.526 137.471 245.8 147.191Z" fill="white" fill-opacity="0.1"/>
<path d="M228.781 151.734C226.333 151.734 223.899 151.631 221.652 151.528C221.461 151.519 221.27 151.51 221.082 151.502C221.272 151.51 221.463 151.519 221.656 151.528C223.902 151.631 226.333 151.734 228.78 151.734C231.59 151.734 234.419 151.598 237.009 151.171C234.419 151.599 231.59 151.734 228.781 151.734ZM250.698 133.419C250.692 129.833 249.967 126.732 249.448 124.967C249.967 126.731 250.692 129.833 250.698 133.419Z" fill="black"/>
<path d="M204.465 132.135C208.65 132.065 212.928 132.116 216.788 131.939C212.928 132.117 208.651 132.066 204.465 132.135Z" fill="#DADBDB"/>
<path d="M228.782 151.734C226.335 151.734 223.903 151.631 221.657 151.528C221.465 151.519 221.274 151.511 221.084 151.502C219.059 151.408 217.203 151.322 215.646 151.322C215.388 151.322 215.138 151.324 214.897 151.329L191.375 133.329C195.132 132.445 199.741 132.213 204.468 132.135C208.654 132.066 212.931 132.117 216.791 131.94C218.356 131.868 219.853 131.76 221.246 131.591C224.99 131.134 226.748 123.412 226.748 123.412H248.932C248.932 123.412 249.159 123.98 249.449 124.967C249.969 126.732 250.693 129.833 250.7 133.419C250.707 137.805 249.638 142.917 245.801 147.19C243.851 149.363 240.726 150.543 237.128 151.151C237.089 151.158 237.05 151.164 237.01 151.171C234.421 151.598 231.591 151.734 228.782 151.734Z" fill="black"/>
<path d="M228.782 151.734C226.335 151.734 223.903 151.631 221.657 151.528C221.465 151.519 221.274 151.511 221.084 151.502C219.059 151.408 217.203 151.322 215.646 151.322C215.388 151.322 215.138 151.324 214.897 151.329L191.375 133.329C195.132 132.445 199.741 132.213 204.468 132.135C208.654 132.066 212.931 132.117 216.791 131.94C218.356 131.868 219.853 131.76 221.246 131.591C224.99 131.134 226.748 123.412 226.748 123.412H248.932C248.932 123.412 249.159 123.98 249.449 124.967C249.969 126.732 250.693 129.833 250.7 133.419C250.707 137.805 249.638 142.917 245.801 147.19C243.851 149.363 240.726 150.543 237.128 151.151C237.089 151.158 237.05 151.164 237.01 151.171C234.421 151.598 231.591 151.734 228.782 151.734Z" fill="white" fill-opacity="0.1"/>
<path d="M198.059 200.053C198.832 199.811 206.096 199.001 207.697 198.828C210.904 198.481 220.999 197.538 222.828 197.543C222.877 197.543 222.885 197.619 222.837 197.628C221.248 197.961 214.806 198.714 213.204 198.878C209.993 199.208 198.964 200.278 198.073 200.19C197.994 200.182 197.983 200.077 198.059 200.053Z" fill="black"/>
<path d="M198.059 200.053C198.832 199.811 206.096 199.001 207.697 198.828C210.904 198.481 220.999 197.538 222.828 197.543C222.877 197.543 222.885 197.619 222.837 197.628C221.248 197.961 214.806 198.714 213.204 198.878C209.993 199.208 198.964 200.278 198.073 200.19C197.994 200.182 197.983 200.077 198.059 200.053Z" fill="white" fill-opacity="0.2"/>
<path d="M207.584 149.556C209.384 148.66 223.038 149.103 232.834 148.186C236.027 147.887 239.228 147.206 241.664 145.114C243.858 143.23 245.269 140.621 246.025 137.933C246.966 134.586 246.869 131.095 246.708 127.666C246.669 126.822 246.61 125.98 246.557 125.137C246.554 125.088 246.641 125.078 246.647 125.127C247.392 131.268 247.962 138.129 243.968 143.451C242.212 145.791 239.742 147.369 236.827 148.136C230.918 149.691 208.704 149.305 207.921 149.904C206.987 150.619 221.349 194.341 221.633 195.173C221.686 195.33 221.412 195.436 221.347 195.28C219.93 191.924 206.017 150.336 207.584 149.556Z" fill="black"/>
<path d="M207.584 149.556C209.384 148.66 223.038 149.103 232.834 148.186C236.027 147.887 239.228 147.206 241.664 145.114C243.858 143.23 245.269 140.621 246.025 137.933C246.966 134.586 246.869 131.095 246.708 127.666C246.669 126.822 246.61 125.98 246.557 125.137C246.554 125.088 246.641 125.078 246.647 125.127C247.392 131.268 247.962 138.129 243.968 143.451C242.212 145.791 239.742 147.369 236.827 148.136C230.918 149.691 208.704 149.305 207.921 149.904C206.987 150.619 221.349 194.341 221.633 195.173C221.686 195.33 221.412 195.436 221.347 195.28C219.93 191.924 206.017 150.336 207.584 149.556Z" fill="white" fill-opacity="0.2"/>
<path d="M182.587 139.547C183.908 136.195 186.92 134.108 191.352 133.309C191.427 133.295 191.421 133.404 191.349 133.426C187.482 134.556 184.718 136.111 183.197 139.375C182.487 140.899 182.119 143.04 181.935 145.91C181.017 160.225 193.508 192.721 193.762 193.287C193.785 193.338 193.714 193.376 193.686 193.329C191.926 190.365 177.134 153.385 182.587 139.547Z" fill="black"/>
<path d="M170.5 187.797L193.666 193.169C193.666 193.169 176.932 143.226 184.792 136.783C186.97 134.997 191.72 134.373 197.365 136.811C205.792 140.45 215.547 147.872 224.743 150.586C233.356 153.128 243.579 150.79 247.098 146.917C254.49 138.781 248.93 123.404 248.93 123.404L218.427 122.259C218.427 122.259 218.882 122.629 217.427 123.92C217.427 123.92 199.497 119.855 191.706 124.615C177.654 133.2 170.5 187.797 170.5 187.797Z" fill="black"/>
<path d="M170.5 187.797L193.666 193.169C193.666 193.169 176.932 143.226 184.792 136.783C186.97 134.997 191.72 134.373 197.365 136.811C205.792 140.45 215.547 147.872 224.743 150.586C233.356 153.128 243.579 150.79 247.098 146.917C254.49 138.781 248.93 123.404 248.93 123.404L218.427 122.259C218.427 122.259 218.882 122.629 217.427 123.92C217.427 123.92 199.497 119.855 191.706 124.615C177.654 133.2 170.5 187.797 170.5 187.797Z" fill="white" fill-opacity="0.1"/>
<path d="M235.755 125.187C235.775 125.128 235.859 125.144 235.861 125.204C235.904 126.36 235.854 127.487 236.125 128.625C236.383 129.705 236.876 130.674 237.66 131.467C239.332 133.158 241.731 133.734 243.924 134.426C244.039 134.462 244.018 134.666 243.888 134.646C241.455 134.272 238.897 133.656 237.12 131.831C236.304 130.993 235.756 129.92 235.546 128.769C235.336 127.615 235.37 126.304 235.755 125.187Z" fill="black"/>
<path d="M235.755 125.187C235.775 125.128 235.859 125.144 235.861 125.204C235.904 126.36 235.854 127.487 236.125 128.625C236.383 129.705 236.876 130.674 237.66 131.467C239.332 133.158 241.731 133.734 243.924 134.426C244.039 134.462 244.018 134.666 243.888 134.646C241.455 134.272 238.897 133.656 237.12 131.831C236.304 130.993 235.756 129.92 235.546 128.769C235.336 127.615 235.37 126.304 235.755 125.187Z" fill="white" fill-opacity="0.2"/>
<path d="M185.319 135.829C188.58 133.783 193.678 135.337 196.118 136.272C196.17 136.292 196.146 136.374 196.093 136.355C193.849 135.548 188.261 134.325 185.275 136.441C178.373 141.33 187.61 174.767 193.667 193.169C193.761 193.456 193.533 193.38 193.406 193.103C192.407 190.922 184.6 167.668 182.563 152.284C182.25 149.919 180.617 138.779 185.319 135.829Z" fill="black"/>
<path d="M185.319 135.829C188.58 133.783 193.678 135.337 196.118 136.272C196.17 136.292 196.146 136.374 196.093 136.355C193.849 135.548 188.261 134.325 185.275 136.441C178.373 141.33 187.61 174.767 193.667 193.169C193.761 193.456 193.533 193.38 193.406 193.103C192.407 190.922 184.6 167.668 182.563 152.284C182.25 149.919 180.617 138.779 185.319 135.829Z" fill="white" fill-opacity="0.2"/>
<path d="M174.875 183.018C175.517 183.002 181.014 184.214 182.224 184.486C184.647 185.032 190.26 186.485 191.57 186.985L191.546 187.067C190.287 186.947 187.361 186.306 186.154 186.025C183.734 185.463 175.444 183.473 174.836 183.149C174.783 183.121 174.813 183.02 174.875 183.018Z" fill="black"/>
<path d="M174.875 183.018C175.517 183.002 181.014 184.214 182.224 184.486C184.647 185.032 190.26 186.485 191.57 186.985L191.546 187.067C190.287 186.947 187.361 186.306 186.154 186.025C183.734 185.463 175.444 183.473 174.836 183.149C174.783 183.121 174.813 183.02 174.875 183.018Z" fill="white" fill-opacity="0.2"/>
<path d="M186.359 134.961C188.554 133.76 191.166 133.565 193.602 133.865C196.185 134.183 198.64 135.1 201.002 136.18C205.964 138.45 210.69 141.221 215.658 143.478C220.598 145.721 225.871 147.477 231.315 147.645C235.968 147.788 241.858 146.969 244.85 142.782C249.46 136.333 246.774 125.213 246.721 124.494C246.717 124.438 246.792 124.442 246.806 124.495C250.382 138.164 245.781 143.471 242.675 145.704C240.209 147.476 236.665 147.923 234.325 148.121C228.909 148.578 223.481 147.252 218.462 145.253C213.317 143.204 208.493 140.446 203.564 137.925C198.839 135.507 193.572 133.014 188.175 134.399C187.565 134.555 186.962 134.771 186.38 135.013L186.359 134.961Z" fill="black"/>
<path d="M186.359 134.961C188.554 133.76 191.166 133.565 193.602 133.865C196.185 134.183 198.64 135.1 201.002 136.18C205.964 138.45 210.69 141.221 215.658 143.478C220.598 145.721 225.871 147.477 231.315 147.645C235.968 147.788 241.858 146.969 244.85 142.782C249.46 136.333 246.774 125.213 246.721 124.494C246.717 124.438 246.792 124.442 246.806 124.495C250.382 138.164 245.781 143.471 242.675 145.704C240.209 147.476 236.665 147.923 234.325 148.121C228.909 148.578 223.481 147.252 218.462 145.253C213.317 143.204 208.493 140.446 203.564 137.925C198.839 135.507 193.572 133.014 188.175 134.399C187.565 134.555 186.962 134.771 186.38 135.013L186.359 134.961Z" fill="white" fill-opacity="0.2"/>
<path d="M239.377 64.9284C245.267 67.5782 246.541 75.8837 246.151 87.7012C246.093 89.4969 230.894 92.6184 223.545 87.078C222.357 86.1821 224.041 71.7275 226.958 67.5635C230.578 62.3966 235.728 63.2876 239.377 64.9284Z" fill="black"/>
<path d="M239.539 65.0476C242.622 66.6154 244.602 69.7311 245.492 73.0045C246.14 75.3899 246.436 77.9451 246.713 80.3966C246.978 82.7508 247.147 85.177 246.825 87.5317C246.814 87.6159 246.694 87.6057 246.695 87.5215C246.756 83.0605 246.221 78.5732 245.308 74.2052C244.541 70.535 242.656 67.2538 239.421 65.275C239.298 65.2 239.407 64.9809 239.539 65.0476Z" fill="black"/>
<path d="M224.718 71.6223C225.799 67.8649 228.219 65.1777 231.852 63.9653L231.865 64.0067C227.935 65.5546 225.72 68.6629 224.715 72.7816C223.621 77.2626 223.173 81.8117 222.802 86.3992C222.794 86.5025 222.647 86.4888 222.648 86.3866C222.717 81.5098 223.368 76.3121 224.718 71.6223Z" fill="black"/>
<path d="M226.53 88.6438C221.284 89.8084 203.475 95.9176 201.833 97.501C199.878 99.3872 201.335 109.703 203.469 110.406C208.984 112.224 225.475 99.4826 231.749 93.097C234.816 89.9764 235.317 86.6933 226.53 88.6438Z" fill="#FFBE9D"/>
<path d="M231.492 93.3535C231.578 93.2669 231.663 93.1816 231.745 93.0974C232.748 92.0774 233.476 91.0398 233.695 90.1731H233.696C233.477 91.0398 232.748 92.0774 231.746 93.0974C231.663 93.1816 231.578 93.2669 231.492 93.3535Z" fill="#DADBDB"/>
<path d="M233.7 90.1727H233.699C234 88.9837 233.341 88.117 231.117 88.0605C233.343 88.1156 234.002 88.9827 233.7 90.1727Z" fill="black"/>
<path d="M224.137 99.8143L226.476 88.6575L226.527 88.6458C228.364 88.2373 229.795 88.0576 230.882 88.0576C230.961 88.0576 231.038 88.0586 231.113 88.0605C233.337 88.117 233.995 88.9837 233.695 90.1727C233.475 91.0394 232.747 92.077 231.745 93.097C231.662 93.1813 231.578 93.2665 231.491 93.3531C229.663 95.1824 227.054 97.4932 224.137 99.8143Z" fill="#FFBE9D"/>
<path d="M217.684 124.361L220.693 111.216C220.693 111.216 217.773 108.303 219.207 105.057C220.206 102.795 225.766 91.9703 229.628 89.2407C233.25 86.6806 237.185 87.6953 238.829 89.9828C242.04 94.451 242.666 102.776 244.581 111.658C244.581 111.658 249.216 117.178 250.387 124.773L217.684 124.361Z" fill="#5A5BB5"/>
<path d="M226.242 109.596C227.877 109.8 229.517 110.06 231.106 110.503C231.897 110.724 232.672 110.98 233.445 111.253C233.831 111.389 234.219 111.512 234.609 111.633C235.01 111.758 235.441 111.875 235.862 111.897L235.86 111.956C235.45 111.959 235.057 111.96 234.649 111.908C234.262 111.858 233.876 111.767 233.499 111.666C232.695 111.449 231.902 111.196 231.1 110.972C229.482 110.519 227.866 110.067 226.219 109.732C226.143 109.716 226.165 109.586 226.242 109.596Z" fill="#5A5BB5"/>
<path d="M226.242 109.596C227.877 109.8 229.517 110.06 231.106 110.503C231.897 110.724 232.672 110.98 233.445 111.253C233.831 111.389 234.219 111.512 234.609 111.633C235.01 111.758 235.441 111.875 235.862 111.897L235.86 111.956C235.45 111.959 235.057 111.96 234.649 111.908C234.262 111.858 233.876 111.767 233.499 111.666C232.695 111.449 231.902 111.196 231.1 110.972C229.482 110.519 227.866 110.067 226.219 109.732C226.143 109.716 226.165 109.586 226.242 109.596Z" fill="black" fill-opacity="0.2"/>
<path d="M222.149 110.966C223.5 110.857 224.877 110.812 226.232 110.857C226.913 110.88 227.588 110.942 228.265 111.022C228.588 111.06 228.911 111.104 229.232 111.152C229.587 111.205 229.934 111.306 230.288 111.354L230.287 111.412C229.951 111.377 229.608 111.398 229.27 111.383C228.931 111.368 228.592 111.35 228.253 111.334C227.574 111.303 226.896 111.28 226.217 111.242C224.859 111.167 223.505 111.106 222.146 111.078C222.072 111.076 222.08 110.972 222.149 110.966Z" fill="#5A5BB5"/>
<path d="M222.149 110.966C223.5 110.857 224.877 110.812 226.232 110.857C226.913 110.88 227.588 110.942 228.265 111.022C228.588 111.06 228.911 111.104 229.232 111.152C229.587 111.205 229.934 111.306 230.288 111.354L230.287 111.412C229.951 111.377 229.608 111.398 229.27 111.383C228.931 111.368 228.592 111.35 228.253 111.334C227.574 111.303 226.896 111.28 226.217 111.242C224.859 111.167 223.505 111.106 222.146 111.078C222.072 111.076 222.08 110.972 222.149 110.966Z" fill="black" fill-opacity="0.2"/>
<path d="M236.355 88.6541C236.175 89.2588 231.532 93.842 228.93 92.6491C227.967 92.2075 229.622 88.2962 229.622 88.2962L228.71 82.6886L235.914 78.6887C235.914 78.6887 236.427 88.397 236.355 88.6541Z" fill="#FFBE9D"/>
<path d="M236.093 82.3159C234.319 86.0626 231.146 87.0724 229.487 87.4536L228.711 82.6903L235.916 78.6895C235.916 78.6895 235.996 80.3274 236.093 82.3159Z" fill="black"/>
<path d="M223.74 71.9784C219.996 80.4982 224.677 83.7025 226.515 84.5078C228.184 85.2386 233.958 87.5149 238.562 79.4275C243.165 71.3396 240.387 66.9059 236.66 65.0323C232.931 63.1587 227.483 63.4581 223.74 71.9784Z" fill="#FFBE9D"/>
<path d="M226.817 70.7231C227.026 70.7888 227.231 70.8142 227.445 70.8575C227.687 70.9067 227.875 70.9705 228.112 70.8726C228.24 70.82 228.316 70.6316 228.276 70.503C228.184 70.2031 227.903 70.0692 227.615 69.9986C227.302 69.9217 227.04 69.9426 226.75 70.0804C226.468 70.2143 226.54 70.6364 226.817 70.7231Z" fill="black"/>
<path d="M232.554 73.3653C232.364 73.2533 232.209 73.1185 232.033 72.9885C231.835 72.8419 231.662 72.745 231.575 72.503C231.528 72.373 231.618 72.1904 231.74 72.134C232.024 72.001 232.312 72.1203 232.557 72.2873C232.824 72.4685 232.984 72.6764 233.076 72.9851C233.165 73.284 232.804 73.5133 232.554 73.3653Z" fill="black"/>
<path d="M230.38 74.9731L230.4 75.0447C230.111 75.609 229.875 76.3043 230.303 76.7396L230.283 76.7693C229.693 76.3808 230.015 75.4615 230.38 74.9731Z" fill="black"/>
<path d="M231.176 74.6173C232.13 74.9829 231.328 76.8653 230.443 76.5264C229.573 76.1924 230.376 74.31 231.176 74.6173Z" fill="black"/>
<path d="M231.501 74.8744C231.62 75.0507 231.701 75.3073 231.891 75.4115C232.11 75.5318 232.368 75.4086 232.598 75.283L232.621 75.3185C232.473 75.6817 232.177 75.9924 231.767 75.8809C231.394 75.7801 231.276 75.3526 231.341 74.9519C231.353 74.8774 231.453 74.8029 231.501 74.8744Z" fill="black"/>
<path d="M227 73.3416L226.933 73.3747C226.708 73.9672 226.349 74.608 225.739 74.5817L225.73 74.6163C226.414 74.7949 226.881 73.9395 227 73.3416Z" fill="black"/>
<path d="M226.729 72.5131C225.818 72.0491 224.958 73.9056 225.801 74.3351C226.632 74.7582 227.493 72.9021 226.729 72.5131Z" fill="black"/>
<path d="M226.286 72.4553C226.094 72.486 225.866 72.5974 225.685 72.5273C225.476 72.4465 225.419 72.1763 225.378 71.9236L225.34 71.9304C225.166 72.2805 225.112 72.7046 225.421 72.931C225.703 73.1374 226.073 72.9388 226.321 72.6242C226.367 72.5663 226.363 72.4431 226.286 72.4553Z" fill="black"/>
<path d="M228.172 79.7837C227.982 79.8786 227.775 80.0267 227.55 79.9746C227.334 79.9244 227.119 79.7506 226.95 79.6143L226.914 79.6367C226.996 79.9186 227.279 80.1698 227.574 80.2107C227.863 80.2506 228.074 80.0583 228.221 79.83L228.172 79.7837Z" fill="black"/>
<path d="M226.562 76.5713C226.562 76.5713 226.099 77.4078 225.938 77.8241C225.923 77.863 226.017 77.9205 226.155 77.9833L226.171 77.9901C226.862 78.3889 227.701 78.421 228.379 77.993C228.424 77.9633 228.388 77.9 228.34 77.9112C227.635 78.1026 226.988 77.9721 226.332 77.7316C226.347 77.605 227.172 76.3264 227.108 76.2957C226.888 76.1886 226.379 76.1701 226.079 76.1448C226.993 74.3754 228.183 72.7667 229.066 70.9914C229.097 70.9271 229.01 70.8712 228.968 70.9223C227.601 72.5203 226.505 74.5331 225.515 76.3361C225.389 76.5601 226.368 76.5781 226.562 76.5713Z" fill="black"/>
<path d="M226.348 77.8179C226.348 77.8179 226.474 78.5132 226.901 78.9514C227.058 79.114 227.25 79.2421 227.494 79.2907C227.994 79.393 228.206 78.9932 228.296 78.6071C228.372 78.2897 228.361 77.979 228.361 77.979C228.361 77.979 227.415 78.2644 226.348 77.8179Z" fill="black"/>
<path d="M226.898 78.9511C227.055 79.1138 227.248 79.2418 227.491 79.2905C227.992 79.3928 228.203 78.993 228.293 78.6069C227.795 78.4219 227.166 78.5115 226.898 78.9511Z" fill="#F493B6"/>
<path d="M237.48 81.2027C235.954 79.4567 236.748 77.4073 236.748 77.4073C234.808 75.3429 234.329 72.9205 234.277 72.6737C234.257 72.8782 234.113 74.3564 234.063 75.1121C228.996 71.6707 229.133 66.7023 229.133 66.7023C226.564 67.7068 225.707 68.6928 225.199 69.1495C225.199 69.1495 226.638 65.7471 229.368 64.2406C232.711 62.3957 235.387 64.1924 235.387 64.1924C235.387 64.1924 240.231 64.7888 241.978 69.8628C243.857 75.3326 237.48 81.2027 237.48 81.2027Z" fill="black"/>
<path d="M230.271 72.3663C230.934 73.2447 231.766 74.0057 232.648 74.6416L232.656 74.6304C231.293 73.511 230.254 72.0868 229.675 70.4124C229.43 69.7049 229.274 68.9746 229.211 68.2281C229.146 67.4481 229.143 66.5512 229.397 65.8043C229.416 65.7474 229.328 65.7172 229.309 65.7742C229.04 66.5639 228.8 67.2952 228.797 68.1395C228.794 68.9414 228.939 69.7526 229.224 70.502C229.48 71.1714 229.84 71.7937 230.271 72.3663Z" fill="black"/>
<path d="M236.674 79.2813C236.674 79.2813 239.636 77.3356 240.592 78.4969C241.548 79.6576 238.569 83.0026 236.919 82.9647C235.268 82.9262 235.273 81.3978 235.273 81.3978L236.674 79.2813Z" fill="#FFBE9D"/>
<path d="M239.708 79.4341L239.701 79.476C238.53 79.4823 237.627 80.2049 236.869 81.0253C237.317 80.7721 237.807 80.7307 238.164 81.2863L238.115 81.3296C237.738 81.0764 237.411 81.0292 237.001 81.2483C236.71 81.4041 236.457 81.6461 236.208 81.8598C236.124 81.9314 235.981 81.818 236.057 81.7284L236.074 81.7079C236.562 80.4128 238.277 79.0134 239.708 79.4341Z" fill="black"/>
<path d="M237.704 89.44C235.737 89.5938 233.953 97.4509 235.074 102.485C236.077 106.996 239.687 108.745 243.081 108.819C250.264 108.974 242.23 89.0865 237.704 89.44Z" fill="#FFBE9D"/>
<path d="M241.868 92.8444C249.524 104.505 255.665 118.26 253.325 122.471C250.718 127.162 240.988 114.756 240.579 114.051C239.798 112.703 238.373 107.398 236.939 97.5786C235.602 88.4185 239.522 89.2721 241.868 92.8444Z" fill="#FFBE9D"/>
<path d="M252.906 122.946C250.18 125.661 241.111 126.802 225.869 127.035C223.76 127.067 225.153 112.058 227.404 111.908C230.239 111.719 241.28 111.599 242.088 111.692C248.908 112.479 254.755 121.105 252.906 122.946Z" fill="#FFBE9D"/>
<path d="M231.427 112.361C231.427 112.361 230.48 112.251 225.574 110.861C222.182 109.9 213.304 109.726 207.312 117.619C205.016 120.643 206.136 123.575 209.079 120.856C211.151 118.942 212.423 117.437 213.275 117.002C213.275 117.002 212.617 121.271 214.414 123.013C215.217 123.792 217.458 125.867 219.433 127.233C219.433 127.233 219.846 126.883 220.306 126.364C220.306 126.364 222.641 128.484 225.873 127.035L231.427 112.361Z" fill="#FFBE9D"/>
<path d="M222.185 110.46C220.514 111.25 217.001 112.983 214.62 115.4C211.975 118.085 207.605 123.969 209.607 125.901C211.074 127.318 212.941 125.217 212.941 125.217C212.941 125.217 211.647 128.031 213.253 129.02C214.716 129.922 216.063 128.211 216.063 128.211C216.063 128.211 215.571 130.052 217.148 130.649C219.045 131.367 219.764 127.39 222.313 126.458C222.886 126.249 222.185 110.46 222.185 110.46Z" fill="#FFBE9D"/>
<path d="M217.927 117.721C216.477 118.721 213.768 121.838 212.922 125.142C212.903 125.217 212.95 125.272 212.982 125.208C214.685 121.766 216.928 118.904 217.953 117.746L217.927 117.721Z" fill="#FFBE9D"/>
<path d="M217.927 117.721C216.477 118.721 213.768 121.838 212.922 125.142C212.903 125.217 212.95 125.272 212.982 125.208C214.685 121.766 216.928 118.904 217.953 117.746L217.927 117.721Z" fill="black" fill-opacity="0.2"/>
<path d="M220.56 120.47C219.398 121.461 216.749 124.798 216.007 128.176C215.991 128.252 216.041 128.303 216.07 128.238C217.702 124.569 219.633 121.71 220.587 120.493L220.56 120.47Z" fill="#FFBE9D"/>
<path d="M220.56 120.47C219.398 121.461 216.749 124.798 216.007 128.176C215.991 128.252 216.041 128.303 216.07 128.238C217.702 124.569 219.633 121.71 220.587 120.493L220.56 120.47Z" fill="black" fill-opacity="0.2"/>
<path d="M248.064 114.267C247.443 113.832 245.58 112.424 243.024 111.841C240.795 111.333 236.996 111.454 235.476 111.635L235.473 111.689C236.851 111.812 240.416 111.769 242.798 112.281C245.289 112.815 247.42 113.948 248.033 114.31L248.064 114.267Z" fill="#FFBE9D"/>
<path d="M248.064 114.267C247.443 113.832 245.58 112.424 243.024 111.841C240.795 111.333 236.996 111.454 235.476 111.635L235.473 111.689C236.851 111.812 240.416 111.769 242.798 112.281C245.289 112.815 247.42 113.948 248.033 114.31L248.064 114.267Z" fill="black" fill-opacity="0.2"/>
<path d="M238.982 108.95C237.971 105.617 237.109 102.148 237.15 98.646C237.594 101.998 238.471 105.608 238.982 108.95Z" fill="#FFBE9D"/>
<path d="M238.982 108.95C237.971 105.617 237.109 102.148 237.15 98.646C237.594 101.998 238.471 105.608 238.982 108.95Z" fill="black" fill-opacity="0.2"/>
<path d="M236.398 99.8347C236.788 100.71 237.007 101.615 237.592 102.383C236.758 101.862 236.45 100.768 236.398 99.8347Z" fill="#FFBE9D"/>
<path d="M236.398 99.8347C236.788 100.71 237.007 101.615 237.592 102.383C236.758 101.862 236.45 100.768 236.398 99.8347Z" fill="black" fill-opacity="0.2"/>
<path d="M206.282 84.6739C205.621 82.9381 190.775 84.0336 191.394 86.696C193.67 96.4894 199.887 108.29 201.968 109.749C204.368 111.431 208.475 110.612 209.576 106.926C211.031 102.057 208.303 89.9781 206.282 84.6739Z" fill="#FFBE9D"/>
<path d="M209.756 101.165C209.994 95.5005 207.355 88.0022 207.353 87.9891C207.339 87.8829 207.188 87.8678 207.196 87.9277C207.331 89.0286 209.352 97.0181 209.601 101.144L209.756 101.165Z" fill="#FFBE9D"/>
<path d="M209.756 101.165C209.994 95.5005 207.355 88.0022 207.353 87.9891C207.339 87.8829 207.188 87.8678 207.196 87.9277C207.331 89.0286 209.352 97.0181 209.601 101.144L209.756 101.165Z" fill="black" fill-opacity="0.2"/>
<path d="M199.293 95.0334C200.98 95.2983 207.101 86.2133 206.282 84.6635C205.542 83.2651 204.158 78.9117 204.276 75.4625C204.37 72.565 204.841 68.2734 203.285 68.1649C201.016 67.9998 199.768 73.3542 199.239 76.4723C197.904 75.3895 196.652 74.5832 195.751 74.3806C192.758 73.7082 188.058 86.686 190.006 89.1225C191.884 91.4718 197.605 94.7686 199.293 95.0334Z" fill="#FFBE9D"/>
<path d="M200.15 76.3385C200.359 77.919 198.377 77.2597 198.377 77.2597C198.377 77.2597 201.001 78.8957 200.586 80.6081C200.182 82.2572 197.816 81.3769 197.645 81.3165C197.784 81.4042 200.155 82.9701 199.561 84.6479C198.942 86.391 196.719 85.0998 196.576 85.0155C196.68 85.1397 198.032 86.7995 197.291 87.9715C196.016 89.9843 192.442 85.8355 190.513 85.7731C190.513 85.7731 190.035 89.0295 190.001 89.1211C190.001 89.1211 186.52 85.2429 186.749 82.6468C186.87 81.2781 188.169 81.1208 188.169 81.1208C188.169 81.1208 186.909 79.9941 187.335 78.6586C187.555 77.9735 188.848 77.7169 188.848 77.7169C188.848 77.7169 187.876 76.7733 188.329 75.6086C188.688 74.6782 189.928 74.5657 189.928 74.5657C189.928 74.5657 189.415 73.2262 190.091 72.3946C191.449 70.7148 199.701 72.955 200.15 76.3385Z" fill="#FFBE9D"/>
<path d="M190.125 74.5174L190.128 74.4727C193.022 74.5472 196.178 75.5161 198.491 77.284C198.567 77.342 198.506 77.4905 198.411 77.4427C195.678 76.076 193.143 75.0813 190.125 74.5174Z" fill="#FFBE9D"/>
<path d="M190.125 74.5174L190.128 74.4727C193.022 74.5472 196.178 75.5161 198.491 77.284C198.567 77.342 198.506 77.4905 198.411 77.4427C195.678 76.076 193.143 75.0813 190.125 74.5174Z" fill="black" fill-opacity="0.2"/>
<path d="M188.812 77.6893L188.825 77.6304C191.806 77.7229 195.331 78.9119 197.758 81.2641C197.841 81.3449 197.835 81.5007 197.732 81.415C196 79.9733 191.532 78.183 188.812 77.6893Z" fill="#FFBE9D"/>
<path d="M188.812 77.6893L188.825 77.6304C191.806 77.7229 195.331 78.9119 197.758 81.2641C197.841 81.3449 197.835 81.5007 197.732 81.415C196 79.9733 191.532 78.183 188.812 77.6893Z" fill="black" fill-opacity="0.2"/>
<path d="M196.692 85.238C194.278 83.0727 191.413 81.8988 188.297 81.1164L188.311 81.0492C189.94 81.0166 191.874 81.7226 193.333 82.3989C194.73 83.0469 195.86 83.9126 196.768 85.1537C196.803 85.2019 196.744 85.2842 196.692 85.238Z" fill="#FFBE9D"/>
<path d="M196.692 85.238C194.278 83.0727 191.413 81.8988 188.297 81.1164L188.311 81.0492C189.94 81.0166 191.874 81.7226 193.333 82.3989C194.73 83.0469 195.86 83.9126 196.768 85.1537C196.803 85.2019 196.744 85.2842 196.692 85.238Z" fill="black" fill-opacity="0.2"/>
<path d="M198.431 77.2441C198.522 77.3143 198.32 77.3702 198.409 77.4428C198.783 77.7481 200.872 79.778 200.402 80.7045C200.023 81.4466 198.764 81.4519 198.279 81.2645L197.061 80.7927L198.041 81.6598C198.469 82.0382 198.868 82.4983 199.148 82.9925C199.428 83.4847 199.577 84.0505 199.405 84.535C199.235 85.0443 198.817 85.3695 198.289 85.3379C197.765 85.3281 197.195 85.0905 196.722 84.8008L195.402 83.9921L196.38 85.183C196.646 85.5058 196.889 85.8842 197.063 86.2683C197.235 86.6535 197.346 87.0712 197.277 87.4437C197.212 87.8094 196.945 88.1429 196.6 88.2296C196.239 88.3255 195.798 88.2179 195.392 88.0752C194.566 87.7738 193.793 87.2908 193.004 86.8507C192.609 86.6267 192.214 86.4013 191.807 86.1948C191.402 85.9976 190.976 85.7853 190.516 85.7732C190.968 85.8326 191.358 86.0838 191.747 86.3049C192.132 86.5391 192.507 86.7917 192.882 87.0454C193.634 87.5523 194.397 88.0538 195.258 88.4243C195.689 88.5918 196.164 88.7593 196.7 88.6546C197.252 88.5426 197.648 88.0514 197.744 87.5343C197.845 87.0065 197.702 86.5074 197.518 86.0687C197.322 85.6256 197.079 85.2308 196.775 84.8485L196.434 85.2308C196.989 85.5769 197.577 85.8486 198.278 85.8837C198.623 85.8993 199.007 85.8033 199.304 85.573C199.603 85.3432 199.792 85.0331 199.903 84.6995C200.13 84.0057 199.9 83.2914 199.578 82.7466C199.245 82.1867 198.827 81.7197 198.338 81.2995L198.1 81.6949C198.724 81.9125 200.132 82.0601 200.865 80.983C201.609 79.4371 198.943 77.5538 198.431 77.2441Z" fill="#FFBE9D"/>
<path d="M198.431 77.2441C198.522 77.3143 198.32 77.3702 198.409 77.4428C198.783 77.7481 200.872 79.778 200.402 80.7045C200.023 81.4466 198.764 81.4519 198.279 81.2645L197.061 80.7927L198.041 81.6598C198.469 82.0382 198.868 82.4983 199.148 82.9925C199.428 83.4847 199.577 84.0505 199.405 84.535C199.235 85.0443 198.817 85.3695 198.289 85.3379C197.765 85.3281 197.195 85.0905 196.722 84.8008L195.402 83.9921L196.38 85.183C196.646 85.5058 196.889 85.8842 197.063 86.2683C197.235 86.6535 197.346 87.0712 197.277 87.4437C197.212 87.8094 196.945 88.1429 196.6 88.2296C196.239 88.3255 195.798 88.2179 195.392 88.0752C194.566 87.7738 193.793 87.2908 193.004 86.8507C192.609 86.6267 192.214 86.4013 191.807 86.1948C191.402 85.9976 190.976 85.7853 190.516 85.7732C190.968 85.8326 191.358 86.0838 191.747 86.3049C192.132 86.5391 192.507 86.7917 192.882 87.0454C193.634 87.5523 194.397 88.0538 195.258 88.4243C195.689 88.5918 196.164 88.7593 196.7 88.6546C197.252 88.5426 197.648 88.0514 197.744 87.5343C197.845 87.0065 197.702 86.5074 197.518 86.0687C197.322 85.6256 197.079 85.2308 196.775 84.8485L196.434 85.2308C196.989 85.5769 197.577 85.8486 198.278 85.8837C198.623 85.8993 199.007 85.8033 199.304 85.573C199.603 85.3432 199.792 85.0331 199.903 84.6995C200.13 84.0057 199.9 83.2914 199.578 82.7466C199.245 82.1867 198.827 81.7197 198.338 81.2995L198.1 81.6949C198.724 81.9125 200.132 82.0601 200.865 80.983C201.609 79.4371 198.943 77.5538 198.431 77.2441Z" fill="black" fill-opacity="0.2"/>
<path d="M198.383 77.2598C198.729 77.2954 199.068 77.2973 199.361 77.234C199.654 77.1727 199.865 76.994 199.941 76.7593C200.023 76.5251 199.966 76.2106 199.878 75.9058C199.779 75.6 199.66 75.284 199.525 74.9622C199.8 75.1808 200.031 75.4525 200.199 75.7724C200.362 76.0874 200.491 76.4759 200.364 76.901C200.286 77.1065 200.156 77.2827 199.979 77.4049C199.798 77.5208 199.595 77.5754 199.403 77.5788C199.018 77.5914 198.672 77.4565 198.383 77.2598Z" fill="#FFBE9D"/>
<path d="M198.383 77.2598C198.729 77.2954 199.068 77.2973 199.361 77.234C199.654 77.1727 199.865 76.994 199.941 76.7593C200.023 76.5251 199.966 76.2106 199.878 75.9058C199.779 75.6 199.66 75.284 199.525 74.9622C199.8 75.1808 200.031 75.4525 200.199 75.7724C200.362 76.0874 200.491 76.4759 200.364 76.901C200.286 77.1065 200.156 77.2827 199.979 77.4049C199.798 77.5208 199.595 77.5754 199.403 77.5788C199.018 77.5914 198.672 77.4565 198.383 77.2598Z" fill="black" fill-opacity="0.2"/>
<path d="M277.91 57.4006C277.91 65.2995 271.503 71.7062 263.604 71.7062C260.412 71.7062 257.465 70.6593 255.082 68.8851L248.074 70.6744L250.992 64.149C249.908 62.1371 249.299 59.8356 249.299 57.4006C249.299 49.5021 255.706 43.0955 263.604 43.0955C271.503 43.0955 277.91 49.5021 277.91 57.4006Z" fill="white"/>
<path d="M277.914 57.4006C277.942 48.2299 269.042 41.277 260.165 43.6686C253.847 45.197 249.213 51.4454 249.548 57.926C249.633 60.0538 250.202 62.1581 251.202 64.0376L251.257 64.1403L251.21 64.2445L248.274 70.7616L248.025 70.4671L255.044 68.7172L255.125 68.6967C257.213 70.2967 259.756 71.2982 262.387 71.5383C270.661 72.3373 277.907 65.7037 277.914 57.4006ZM277.914 57.4006C277.973 65.7159 270.642 72.4614 262.367 71.7681C259.719 71.5655 257.132 70.6029 254.983 69.0244L255.129 69.0536L248.131 70.8814L247.703 70.9934L247.883 70.5869L250.782 64.0531L250.79 64.2601C248.651 60.3907 248.527 55.5309 250.338 51.5252C252.973 45.3986 260.102 41.8218 266.586 43.3229C273.052 44.6707 278.015 50.7958 277.914 57.4006Z" fill="#5A5BB5"/>
<path d="M277.914 57.4006C277.942 48.2299 269.042 41.277 260.165 43.6686C253.847 45.197 249.213 51.4454 249.548 57.926C249.633 60.0538 250.202 62.1581 251.202 64.0376L251.257 64.1403L251.21 64.2445L248.274 70.7616L248.025 70.4671L255.044 68.7172L255.125 68.6967C257.213 70.2967 259.756 71.2982 262.387 71.5383C270.661 72.3373 277.907 65.7037 277.914 57.4006ZM277.914 57.4006C277.973 65.7159 270.642 72.4614 262.367 71.7681C259.719 71.5655 257.132 70.6029 254.983 69.0244L255.129 69.0536L248.131 70.8814L247.703 70.9934L247.883 70.5869L250.782 64.0531L250.79 64.2601C248.651 60.3907 248.527 55.5309 250.338 51.5252C252.973 45.3986 260.102 41.8218 266.586 43.3229C273.052 44.6707 278.015 50.7958 277.914 57.4006Z" fill="white" fill-opacity="0.8"/>
<path d="M261.684 66.1609L255.273 59.671L257.427 57.5438L261.172 61.3338L268.953 49.1365L271.506 50.7647L261.684 66.1609Z" fill="#5A5BB5"/>
<path d="M261.684 66.1609L255.273 59.671L257.427 57.5438L261.172 61.3338L268.953 49.1365L271.506 50.7647L261.684 66.1609Z" fill="#5A5BB5"/>
<path d="M115.073 186.527C115.073 186.527 105.682 184.398 100.534 179.655C95.3869 174.913 92.5117 166.416 92.5117 166.416C92.5117 166.416 98.0395 167.429 103.044 169.183C103.884 170.081 105.484 171.934 106.23 173.688C106.23 173.688 106.388 171.835 106.255 170.467C107.593 171.084 108.76 171.766 109.599 172.497C113.868 176.232 115.073 186.527 115.073 186.527Z" fill="#5A5BB5"/>
<path d="M115.073 186.527C115.073 186.527 105.682 184.398 100.534 179.655C95.3869 174.913 92.5117 166.416 92.5117 166.416C92.5117 166.416 98.0395 167.429 103.044 169.183C103.884 170.081 105.484 171.934 106.23 173.688C106.23 173.688 106.388 171.835 106.255 170.467C107.593 171.084 108.76 171.766 109.599 172.497C113.868 176.232 115.073 186.527 115.073 186.527Z" fill="white" fill-opacity="0.57"/>
<path d="M98.375 170.545C97.095 169.66 95.7915 168.806 94.5168 167.911C94.4404 167.858 94.5124 167.737 94.5942 167.786C97.0146 169.232 99.3999 170.777 101.708 172.394C102.513 172.958 103.303 173.546 104.084 174.144C104.029 174.051 103.976 173.958 103.92 173.865C103.639 173.394 103.342 172.931 103.045 172.469C102.447 171.54 101.795 170.625 101.051 169.808L101.097 169.764C101.828 170.607 102.558 171.442 103.226 172.336C103.543 172.761 103.837 173.202 104.118 173.652C104.264 173.885 104.405 174.121 104.54 174.361C104.585 174.441 104.635 174.522 104.681 174.604C105.895 175.557 107.078 176.551 108.206 177.603C108.903 178.252 109.575 178.925 110.223 179.618C109.86 178.482 109.543 177.333 109.122 176.213L109.184 176.198C109.593 177.372 110.04 178.551 110.357 179.757C111.076 180.534 111.764 181.339 112.412 182.178C112.401 182.127 112.39 182.075 112.378 182.025C112.272 181.582 112.161 181.141 112.042 180.701C111.813 179.851 111.564 179.007 111.278 178.175C110.69 176.468 109.928 174.798 108.755 173.41L108.801 173.366C110.636 175.538 111.712 178.142 112.398 180.876C112.499 181.277 112.593 181.678 112.685 182.08C112.733 182.293 112.789 182.51 112.825 182.729C113.109 183.113 113.388 183.5 113.654 183.897C115.285 186.324 116.556 188.975 117.628 191.69C118.835 194.747 119.773 197.904 120.638 201.072C120.655 201.135 120.562 201.156 120.542 201.096C118.705 195.601 116.829 190.027 113.685 185.115C113.021 184.078 112.303 183.079 111.54 182.115C109.995 182.028 108.436 181.693 106.973 181.205C105.356 180.666 103.829 179.919 102.396 178.995C101.57 178.462 100.816 177.839 100.051 177.223L100.091 177.174C101.361 178.248 102.887 179.089 104.396 179.778C105.911 180.47 107.505 181.013 109.133 181.368C109.826 181.519 110.529 181.63 111.233 181.725C110.365 180.656 109.439 179.633 108.464 178.658C108.147 178.341 107.818 178.038 107.493 177.732C106.414 176.945 105.219 176.323 104.021 175.744C102.483 175 100.968 174.213 99.4447 173.438C98.5854 173.001 97.7318 172.553 96.8656 172.131L96.8992 172.076C98.4427 172.822 100.01 173.518 101.568 174.232C103.035 174.904 104.518 175.578 105.925 176.369C105.986 176.403 106.043 176.44 106.102 176.475C104.831 175.367 103.514 174.311 102.167 173.294C100.921 172.354 99.6585 171.433 98.375 170.545Z" fill="#5A5BB5"/>
<path d="M98.375 170.545C97.095 169.66 95.7915 168.806 94.5168 167.911C94.4404 167.858 94.5124 167.737 94.5942 167.786C97.0146 169.232 99.3999 170.777 101.708 172.394C102.513 172.958 103.303 173.546 104.084 174.144C104.029 174.051 103.976 173.958 103.92 173.865C103.639 173.394 103.342 172.931 103.045 172.469C102.447 171.54 101.795 170.625 101.051 169.808L101.097 169.764C101.828 170.607 102.558 171.442 103.226 172.336C103.543 172.761 103.837 173.202 104.118 173.652C104.264 173.885 104.405 174.121 104.54 174.361C104.585 174.441 104.635 174.522 104.681 174.604C105.895 175.557 107.078 176.551 108.206 177.603C108.903 178.252 109.575 178.925 110.223 179.618C109.86 178.482 109.543 177.333 109.122 176.213L109.184 176.198C109.593 177.372 110.04 178.551 110.357 179.757C111.076 180.534 111.764 181.339 112.412 182.178C112.401 182.127 112.39 182.075 112.378 182.025C112.272 181.582 112.161 181.141 112.042 180.701C111.813 179.851 111.564 179.007 111.278 178.175C110.69 176.468 109.928 174.798 108.755 173.41L108.801 173.366C110.636 175.538 111.712 178.142 112.398 180.876C112.499 181.277 112.593 181.678 112.685 182.08C112.733 182.293 112.789 182.51 112.825 182.729C113.109 183.113 113.388 183.5 113.654 183.897C115.285 186.324 116.556 188.975 117.628 191.69C118.835 194.747 119.773 197.904 120.638 201.072C120.655 201.135 120.562 201.156 120.542 201.096C118.705 195.601 116.829 190.027 113.685 185.115C113.021 184.078 112.303 183.079 111.54 182.115C109.995 182.028 108.436 181.693 106.973 181.205C105.356 180.666 103.829 179.919 102.396 178.995C101.57 178.462 100.816 177.839 100.051 177.223L100.091 177.174C101.361 178.248 102.887 179.089 104.396 179.778C105.911 180.47 107.505 181.013 109.133 181.368C109.826 181.519 110.529 181.63 111.233 181.725C110.365 180.656 109.439 179.633 108.464 178.658C108.147 178.341 107.818 178.038 107.493 177.732C106.414 176.945 105.219 176.323 104.021 175.744C102.483 175 100.968 174.213 99.4447 173.438C98.5854 173.001 97.7318 172.553 96.8656 172.131L96.8992 172.076C98.4427 172.822 100.01 173.518 101.568 174.232C103.035 174.904 104.518 175.578 105.925 176.369C105.986 176.403 106.043 176.44 106.102 176.475C104.831 175.367 103.514 174.311 102.167 173.294C100.921 172.354 99.6585 171.433 98.375 170.545Z" fill="white" fill-opacity="0.26"/>
<path d="M98.9052 175.387C99.6692 175.722 100.447 176.018 101.202 176.372C101.98 176.735 102.717 177.161 103.455 177.598L103.425 177.646C102.676 177.289 101.917 176.953 101.176 176.58C100.416 176.198 99.6653 175.789 98.8867 175.448L98.9052 175.387Z" fill="#5A5BB5"/>
<path d="M98.9052 175.387C99.6692 175.722 100.447 176.018 101.202 176.372C101.98 176.735 102.717 177.161 103.455 177.598L103.425 177.646C102.676 177.289 101.917 176.953 101.176 176.58C100.416 176.198 99.6653 175.789 98.8867 175.448L98.9052 175.387Z" fill="white" fill-opacity="0.26"/>
<path d="M145.581 139.2C145.581 139.2 142.944 142.22 142.774 147C142.744 147.842 142.876 149.016 142.974 150.396C139.473 152.266 136.846 155.634 136.846 155.634C138.835 154.439 141.565 153.956 143.039 154.151C142.988 155.059 142.881 156.002 142.68 156.957C142.029 156.92 140.774 157.007 138.697 157.745C138.697 157.745 140.735 157.694 142.288 158.459C140.615 163.785 135.638 169.256 121.898 171.58C121.898 171.58 119.247 162.251 124.331 152.243C128.448 144.145 145.581 139.2 145.581 139.2Z" fill="#5A5BB5"/>
<path d="M145.581 139.2C145.581 139.2 142.944 142.22 142.774 147C142.744 147.842 142.876 149.016 142.974 150.396C139.473 152.266 136.846 155.634 136.846 155.634C138.835 154.439 141.565 153.956 143.039 154.151C142.988 155.059 142.881 156.002 142.68 156.957C142.029 156.92 140.774 157.007 138.697 157.745C138.697 157.745 140.735 157.694 142.288 158.459C140.615 163.785 135.638 169.256 121.898 171.58C121.898 171.58 119.247 162.251 124.331 152.243C128.448 144.145 145.581 139.2 145.581 139.2Z" fill="white" fill-opacity="0.57"/>
<path d="M117.142 194.368C117.381 192.093 117.68 189.824 118.032 187.564C118.735 183.04 119.646 178.543 120.803 174.113C121.348 172.024 122.002 169.978 122.786 167.984C122.735 167.623 122.743 167.246 122.736 166.884C122.726 166.444 122.724 166.004 122.729 165.564C122.739 164.684 122.78 163.805 122.855 162.928C123.003 161.196 123.267 159.461 123.699 157.777C123.95 156.798 124.242 155.834 124.529 154.865L124.591 154.883C124.105 156.559 123.825 158.301 123.576 160.026C123.33 161.734 123.177 163.458 123.115 165.182C123.097 165.655 123.089 166.127 123.088 166.6C123.088 166.8 123.097 167.003 123.104 167.206C123.781 165.571 124.544 163.97 125.419 162.414C126.805 159.953 128.396 157.613 130.122 155.378C130.107 155.123 130.184 154.855 130.235 154.61C130.3 154.303 130.366 153.996 130.435 153.69C130.576 153.062 130.733 152.438 130.904 151.817C131.245 150.572 131.696 149.369 132.086 148.14L132.147 148.158C131.784 149.376 131.543 150.636 131.264 151.875C131.126 152.488 130.992 153.101 130.858 153.715C130.79 154.021 130.725 154.328 130.661 154.636L130.649 154.704C131.204 154.004 131.771 153.312 132.35 152.632C134.974 149.555 137.851 146.717 140.747 143.899C141.102 143.552 141.468 143.214 141.828 142.873L141.872 142.919C139.105 145.806 136.381 148.726 133.8 151.782C133.187 152.509 132.583 153.244 131.99 153.988C132.302 153.777 132.617 153.571 132.928 153.367C133.727 152.844 134.537 152.335 135.371 151.868C136.205 151.401 137.045 150.944 137.902 150.52C138.782 150.083 139.724 149.728 140.574 149.233L140.605 149.289C139.729 149.648 138.91 150.197 138.098 150.678C137.261 151.174 136.427 151.673 135.605 152.194C134.798 152.706 133.986 153.212 133.184 153.733C132.515 154.167 131.857 154.641 131.164 155.042C129.58 157.095 128.09 159.222 126.762 161.449C125.925 162.853 125.169 164.293 124.487 165.765C124.652 165.693 124.817 165.623 124.98 165.551C125.399 165.365 125.818 165.179 126.237 164.992C127.046 164.634 127.858 164.284 128.669 163.931C130.209 163.261 131.774 162.645 133.286 161.91C134.134 161.498 134.968 161.063 135.753 160.54L135.784 160.596C132.967 162.538 129.808 163.906 126.69 165.286L125.338 165.884C124.966 166.049 124.594 166.233 124.211 166.376C123.292 168.436 122.514 170.559 121.888 172.744C120.637 177.108 119.683 181.567 118.898 186.037C118.11 190.524 117.578 195.043 117.165 199.579C117.113 200.146 117.063 200.711 116.999 201.277C116.973 201.502 116.638 201.502 116.641 201.268C116.666 198.965 116.902 196.657 117.142 194.368Z" fill="#5A5BB5"/>
<path d="M117.142 194.368C117.381 192.093 117.68 189.824 118.032 187.564C118.735 183.04 119.646 178.543 120.803 174.113C121.348 172.024 122.002 169.978 122.786 167.984C122.735 167.623 122.743 167.246 122.736 166.884C122.726 166.444 122.724 166.004 122.729 165.564C122.739 164.684 122.78 163.805 122.855 162.928C123.003 161.196 123.267 159.461 123.699 157.777C123.95 156.798 124.242 155.834 124.529 154.865L124.591 154.883C124.105 156.559 123.825 158.301 123.576 160.026C123.33 161.734 123.177 163.458 123.115 165.182C123.097 165.655 123.089 166.127 123.088 166.6C123.088 166.8 123.097 167.003 123.104 167.206C123.781 165.571 124.544 163.97 125.419 162.414C126.805 159.953 128.396 157.613 130.122 155.378C130.107 155.123 130.184 154.855 130.235 154.61C130.3 154.303 130.366 153.996 130.435 153.69C130.576 153.062 130.733 152.438 130.904 151.817C131.245 150.572 131.696 149.369 132.086 148.14L132.147 148.158C131.784 149.376 131.543 150.636 131.264 151.875C131.126 152.488 130.992 153.101 130.858 153.715C130.79 154.021 130.725 154.328 130.661 154.636L130.649 154.704C131.204 154.004 131.771 153.312 132.35 152.632C134.974 149.555 137.851 146.717 140.747 143.899C141.102 143.552 141.468 143.214 141.828 142.873L141.872 142.919C139.105 145.806 136.381 148.726 133.8 151.782C133.187 152.509 132.583 153.244 131.99 153.988C132.302 153.777 132.617 153.571 132.928 153.367C133.727 152.844 134.537 152.335 135.371 151.868C136.205 151.401 137.045 150.944 137.902 150.52C138.782 150.083 139.724 149.728 140.574 149.233L140.605 149.289C139.729 149.648 138.91 150.197 138.098 150.678C137.261 151.174 136.427 151.673 135.605 152.194C134.798 152.706 133.986 153.212 133.184 153.733C132.515 154.167 131.857 154.641 131.164 155.042C129.58 157.095 128.09 159.222 126.762 161.449C125.925 162.853 125.169 164.293 124.487 165.765C124.652 165.693 124.817 165.623 124.98 165.551C125.399 165.365 125.818 165.179 126.237 164.992C127.046 164.634 127.858 164.284 128.669 163.931C130.209 163.261 131.774 162.645 133.286 161.91C134.134 161.498 134.968 161.063 135.753 160.54L135.784 160.596C132.967 162.538 129.808 163.906 126.69 165.286L125.338 165.884C124.966 166.049 124.594 166.233 124.211 166.376C123.292 168.436 122.514 170.559 121.888 172.744C120.637 177.108 119.683 181.567 118.898 186.037C118.11 190.524 117.578 195.043 117.165 199.579C117.113 200.146 117.063 200.711 116.999 201.277C116.973 201.502 116.638 201.502 116.641 201.268C116.666 198.965 116.902 196.657 117.142 194.368Z" fill="white" fill-opacity="0.26"/>
<path d="M125.501 156.422C125.753 155.025 126.125 153.659 126.502 152.292L126.563 152.31C126.215 153.653 125.966 155.021 125.714 156.384C125.457 157.772 125.23 159.168 125.034 160.566L124.996 160.565C125.087 159.174 125.254 157.794 125.501 156.422Z" fill="#5A5BB5"/>
<path d="M125.501 156.422C125.753 155.025 126.125 153.659 126.502 152.292L126.563 152.31C126.215 153.653 125.966 155.021 125.714 156.384C125.457 157.772 125.23 159.168 125.034 160.566L124.996 160.565C125.087 159.174 125.254 157.794 125.501 156.422Z" fill="white" fill-opacity="0.26"/>
<path d="M131.424 160.211C132.355 159.551 133.401 159.052 134.412 158.529C134.913 158.27 135.42 158.024 135.928 157.778C136.451 157.525 136.994 157.313 137.513 157.053L137.544 157.109C137.042 157.361 136.565 157.666 136.071 157.935C135.562 158.213 135.056 158.495 134.545 158.769C133.541 159.309 132.553 159.908 131.498 160.345C131.406 160.383 131.343 160.268 131.424 160.211Z" fill="#5A5BB5"/>
<path d="M131.424 160.211C132.355 159.551 133.401 159.052 134.412 158.529C134.913 158.27 135.42 158.024 135.928 157.778C136.451 157.525 136.994 157.313 137.513 157.053L137.544 157.109C137.042 157.361 136.565 157.666 136.071 157.935C135.562 158.213 135.056 158.495 134.545 158.769C133.541 159.309 132.553 159.908 131.498 160.345C131.406 160.383 131.343 160.268 131.424 160.211Z" fill="white" fill-opacity="0.26"/>
<path d="M114.565 170.171C112.928 169.72 105.744 167.5 102.222 162.354C98.4113 156.786 97.1799 147.297 97.082 146.462C97.2388 147.227 99.0316 155.521 104.948 159.385C107.248 160.888 109.509 162.256 111.314 163.955C111.715 164.461 112.088 164.991 112.434 165.546C113.339 166.996 114.02 168.558 114.565 170.171Z" fill="#DADBDB"/>
<path d="M106.883 155.244C108.412 156.717 109.559 158.449 110.086 160.521L110.059 160.531C109.406 158.601 108.329 156.7 106.84 155.293L106.883 155.244Z" fill="black"/>
<path d="M114.904 170.259C114.904 170.259 106.214 168.183 102.224 162.354C98.4132 156.786 97.1818 147.297 97.084 146.462L97.0742 146.403C97.0742 146.403 101.241 152.328 105.622 153.838C110.003 155.349 116.16 160.576 114.904 170.259Z" fill="#5A5BB5"/>
<path d="M114.904 170.259C114.904 170.259 106.214 168.183 102.224 162.354C98.4132 156.786 97.1818 147.297 97.084 146.462L97.0742 146.403C97.0742 146.403 101.241 152.328 105.622 153.838C110.003 155.349 116.16 160.576 114.904 170.259Z" fill="white" fill-opacity="0.57"/>
<path d="M98.6117 149.671C99.418 151.251 100.263 152.82 101.298 154.265C102.306 155.671 103.521 156.869 104.873 157.943C106.053 158.881 107.301 159.73 108.496 160.649L108.469 160.606C108.245 160.273 108.005 159.949 107.758 159.633C107.26 158.997 106.716 158.398 106.169 157.804C105.089 156.633 103.987 155.483 103.019 154.215C102.483 153.513 102.012 152.765 101.626 151.97L101.686 151.95C103.096 154.887 105.911 156.766 107.919 159.246C108.206 159.599 108.475 159.963 108.723 160.345C108.897 160.613 109.11 160.913 109.223 161.228C110.315 162.124 111.326 163.1 112.187 164.225C112.114 163.654 111.991 163.085 111.838 162.538C111.623 161.759 111.34 161.028 110.918 160.337L110.971 160.301C111.377 160.987 111.748 161.726 111.984 162.489C112.176 163.108 112.266 163.728 112.3 164.365L112.305 164.37C112.739 164.953 113.124 165.566 113.479 166.196C113.443 166.011 113.408 165.825 113.371 165.64C113.199 164.774 113.008 163.91 112.783 163.056C112.327 161.324 111.712 159.646 110.693 158.16L110.746 158.125C111.752 159.591 112.514 161.226 113.062 162.915C113.339 163.768 113.561 164.635 113.756 165.509C113.851 165.937 113.937 166.366 114.019 166.796C114.061 167.019 114.11 167.246 114.146 167.475C115.034 169.353 115.658 171.366 116.15 173.366C117.036 176.967 117.589 180.671 118.003 184.354C118.438 188.22 118.666 192.129 118.602 196.021C118.595 196.51 118.566 196.997 118.539 197.485C118.531 197.612 118.343 197.63 118.337 197.497C118.252 195.569 118.202 193.639 118.088 191.712C117.974 189.784 117.806 187.86 117.6 185.939C117.195 182.17 116.609 178.406 115.789 174.704C115.084 171.527 114.171 168.329 112.434 165.546C111.564 164.15 110.523 162.916 109.299 161.817C108.081 160.724 106.749 159.765 105.464 158.753C104.187 157.745 102.958 156.648 101.945 155.37C100.852 153.989 99.9906 152.442 99.1809 150.884C98.9764 150.49 98.766 150.099 98.5586 149.706L98.6117 149.671Z" fill="#5A5BB5"/>
<path d="M98.6117 149.671C99.418 151.251 100.263 152.82 101.298 154.265C102.306 155.671 103.521 156.869 104.873 157.943C106.053 158.881 107.301 159.73 108.496 160.649L108.469 160.606C108.245 160.273 108.005 159.949 107.758 159.633C107.26 158.997 106.716 158.398 106.169 157.804C105.089 156.633 103.987 155.483 103.019 154.215C102.483 153.513 102.012 152.765 101.626 151.97L101.686 151.95C103.096 154.887 105.911 156.766 107.919 159.246C108.206 159.599 108.475 159.963 108.723 160.345C108.897 160.613 109.11 160.913 109.223 161.228C110.315 162.124 111.326 163.1 112.187 164.225C112.114 163.654 111.991 163.085 111.838 162.538C111.623 161.759 111.34 161.028 110.918 160.337L110.971 160.301C111.377 160.987 111.748 161.726 111.984 162.489C112.176 163.108 112.266 163.728 112.3 164.365L112.305 164.37C112.739 164.953 113.124 165.566 113.479 166.196C113.443 166.011 113.408 165.825 113.371 165.64C113.199 164.774 113.008 163.91 112.783 163.056C112.327 161.324 111.712 159.646 110.693 158.16L110.746 158.125C111.752 159.591 112.514 161.226 113.062 162.915C113.339 163.768 113.561 164.635 113.756 165.509C113.851 165.937 113.937 166.366 114.019 166.796C114.061 167.019 114.11 167.246 114.146 167.475C115.034 169.353 115.658 171.366 116.15 173.366C117.036 176.967 117.589 180.671 118.003 184.354C118.438 188.22 118.666 192.129 118.602 196.021C118.595 196.51 118.566 196.997 118.539 197.485C118.531 197.612 118.343 197.63 118.337 197.497C118.252 195.569 118.202 193.639 118.088 191.712C117.974 189.784 117.806 187.86 117.6 185.939C117.195 182.17 116.609 178.406 115.789 174.704C115.084 171.527 114.171 168.329 112.434 165.546C111.564 164.15 110.523 162.916 109.299 161.817C108.081 160.724 106.749 159.765 105.464 158.753C104.187 157.745 102.958 156.648 101.945 155.37C100.852 153.989 99.9906 152.442 99.1809 150.884C98.9764 150.49 98.766 150.099 98.5586 149.706L98.6117 149.671Z" fill="white" fill-opacity="0.26"/>
<path d="M100.111 150.945C100.669 152.122 101.339 153.24 102.047 154.331L102.007 154.357C101.25 153.289 100.62 152.143 100.051 150.966L100.111 150.945Z" fill="#5A5BB5"/>
<path d="M100.111 150.945C100.669 152.122 101.339 153.24 102.047 154.331L102.007 154.357C101.25 153.289 100.62 152.143 100.051 150.966L100.111 150.945Z" fill="white" fill-opacity="0.26"/>
<path d="M146.79 166.416C146.79 166.416 146.928 178.766 139.544 182.33C135.034 184.511 131.801 184.25 128.824 183.988C126.928 183.822 125.136 183.655 123.184 184.12L123.192 184.114C123.387 183.819 126.968 178.672 132.664 177.255C138.522 175.794 145.014 171.562 146.79 166.416Z" fill="#5A5BB5"/>
<path d="M146.79 166.416C146.79 166.416 146.928 178.766 139.544 182.33C135.034 184.511 131.801 184.25 128.824 183.988C126.928 183.822 125.136 183.655 123.184 184.12L123.192 184.114C123.387 183.819 126.968 178.672 132.664 177.255C138.522 175.794 145.014 171.562 146.79 166.416Z" fill="white" fill-opacity="0.57"/>
<path d="M131.865 184.159C130.8 184.159 129.799 184.074 128.826 183.988C127.852 183.903 126.906 183.817 125.951 183.817C125.359 183.817 124.763 183.85 124.156 183.937C124.501 183.685 124.859 183.454 125.228 183.242C126.767 182.658 129.041 181.943 131.589 181.637C136.245 181.077 145.14 178.043 146.791 166.416C146.791 166.416 146.792 166.432 146.792 166.461C146.792 166.753 146.776 168.443 146.425 170.647C145.798 174.572 144.107 180.128 139.545 182.33C136.51 183.797 134.054 184.159 131.865 184.159Z" fill="#5A5BB5"/>
<path d="M131.865 184.159C130.8 184.159 129.799 184.074 128.826 183.988C127.852 183.903 126.906 183.817 125.951 183.817C125.359 183.817 124.763 183.85 124.156 183.937C124.501 183.685 124.859 183.454 125.228 183.242C126.767 182.658 129.041 181.943 131.589 181.637C136.245 181.077 145.14 178.043 146.791 166.416C146.791 166.416 146.792 166.432 146.792 166.461C146.792 166.753 146.776 168.443 146.425 170.647C145.798 174.572 144.107 180.128 139.545 182.33C136.51 183.797 134.054 184.159 131.865 184.159Z" fill="white" fill-opacity="0.57"/>
<path d="M122.697 184.34C123.578 183.546 124.564 182.863 125.634 182.351C125.792 182.275 125.956 182.213 126.116 182.145C126.194 182.047 126.277 181.953 126.364 181.862C126.585 181.631 126.816 181.41 127.059 181.202C127.523 180.803 128.017 180.44 128.545 180.13C129.768 179.411 131.108 178.908 132.359 178.239L132.39 178.295C131.772 178.617 131.173 178.971 130.572 179.322C129.987 179.664 129.388 179.989 128.819 180.356C128.308 180.687 127.816 181.051 127.358 181.452C127.228 181.565 127.103 181.689 126.978 181.815C127.793 181.536 128.63 181.322 129.474 181.152C130.825 180.879 132.192 180.685 133.542 180.398C134.205 180.256 134.859 180.08 135.501 179.869C136.114 179.376 136.725 178.885 137.305 178.35C138.007 177.704 138.65 177.002 139.214 176.234L139.269 176.267C138.358 177.444 137.38 178.628 136.241 179.608C136.559 179.487 136.875 179.358 137.186 179.217C139.695 178.077 141.927 176.266 143.478 173.981L143.532 174.015C142.18 175.972 140.465 177.647 138.442 178.902C137.428 179.531 136.358 180.045 135.225 180.424C133.924 180.859 132.575 181.116 131.229 181.369C129.911 181.616 128.587 181.867 127.315 182.3C126.138 182.7 125.029 183.28 124.033 184.026C122.133 185.45 120.663 187.397 119.609 189.513C118.212 192.317 117.543 195.45 117.172 198.542C117.156 198.675 116.952 198.675 116.961 198.537C117.308 193.346 118.696 187.945 122.697 184.34Z" fill="#5A5BB5"/>
<path d="M122.697 184.34C123.578 183.546 124.564 182.863 125.634 182.351C125.792 182.275 125.956 182.213 126.116 182.145C126.194 182.047 126.277 181.953 126.364 181.862C126.585 181.631 126.816 181.41 127.059 181.202C127.523 180.803 128.017 180.44 128.545 180.13C129.768 179.411 131.108 178.908 132.359 178.239L132.39 178.295C131.772 178.617 131.173 178.971 130.572 179.322C129.987 179.664 129.388 179.989 128.819 180.356C128.308 180.687 127.816 181.051 127.358 181.452C127.228 181.565 127.103 181.689 126.978 181.815C127.793 181.536 128.63 181.322 129.474 181.152C130.825 180.879 132.192 180.685 133.542 180.398C134.205 180.256 134.859 180.08 135.501 179.869C136.114 179.376 136.725 178.885 137.305 178.35C138.007 177.704 138.65 177.002 139.214 176.234L139.269 176.267C138.358 177.444 137.38 178.628 136.241 179.608C136.559 179.487 136.875 179.358 137.186 179.217C139.695 178.077 141.927 176.266 143.478 173.981L143.532 174.015C142.18 175.972 140.465 177.647 138.442 178.902C137.428 179.531 136.358 180.045 135.225 180.424C133.924 180.859 132.575 181.116 131.229 181.369C129.911 181.616 128.587 181.867 127.315 182.3C126.138 182.7 125.029 183.28 124.033 184.026C122.133 185.45 120.663 187.397 119.609 189.513C118.212 192.317 117.543 195.45 117.172 198.542C117.156 198.675 116.952 198.675 116.961 198.537C117.308 193.346 118.696 187.945 122.697 184.34Z" fill="white" fill-opacity="0.26"/>
<path d="M131.266 180.313C131.634 179.724 132.187 179.281 132.784 178.937C133.481 178.534 134.107 178.1 134.589 177.443L134.643 177.477C134.197 178.049 133.663 178.519 133.049 178.904C132.404 179.309 131.754 179.705 131.312 180.341L131.266 180.313Z" fill="#5A5BB5"/>
<path d="M131.266 180.313C131.634 179.724 132.187 179.281 132.784 178.937C133.481 178.534 134.107 178.1 134.589 177.443L134.643 177.477C134.197 178.049 133.663 178.519 133.049 178.904C132.404 179.309 131.754 179.705 131.312 180.341L131.266 180.313Z" fill="white" fill-opacity="0.26"/>
<path d="M127.351 193.454L125.985 220.993H110.495L109.129 193.454H127.351Z" fill="black"/>
<path d="M127.07 199.131L109.37 198.313L109.129 193.454H127.351L127.07 199.131Z" fill="black"/>
<path d="M128.437 190.62H108.043V197.098H128.437V190.62Z" fill="black"/>
<path d="M128.437 190.62H108.043V197.098H128.437V190.62Z" fill="white" fill-opacity="0.2"/>
</g>
<defs>
<clipPath id="clip0_17155_119640">
<rect width="221.539" height="223" fill="white" transform="translate(84)"/>
</clipPath>
</defs>
</svg>
