<svg width="20" height="20" viewBox="0 0 20 20" fill="none" xmlns="http://www.w3.org/2000/svg">
<path d="M10.0001 18.9584C5.05841 18.9584 1.04175 14.9417 1.04175 10.0001C1.04175 5.05841 5.05841 1.04175 10.0001 1.04175C14.9417 1.04175 18.9584 5.05841 18.9584 10.0001C18.9584 14.9417 14.9417 18.9584 10.0001 18.9584ZM10.0001 2.29175C5.75008 2.29175 2.29175 5.75008 2.29175 10.0001C2.29175 14.2501 5.75008 17.7084 10.0001 17.7084C14.2501 17.7084 17.7084 14.2501 17.7084 10.0001C17.7084 5.75008 14.2501 2.29175 10.0001 2.29175Z" fill="#010211"/>
<path d="M13.3334 10.625H6.66675C6.32508 10.625 6.04175 10.3417 6.04175 10C6.04175 9.65833 6.32508 9.375 6.66675 9.375H13.3334C13.6751 9.375 13.9584 9.65833 13.9584 10C13.9584 10.3417 13.6751 10.625 13.3334 10.625Z" fill="#010211"/>
<path d="M10 13.9584C9.65833 13.9584 9.375 13.6751 9.375 13.3334V6.66675C9.375 6.32508 9.65833 6.04175 10 6.04175C10.3417 6.04175 10.625 6.32508 10.625 6.66675V13.3334C10.625 13.6751 10.3417 13.9584 10 13.9584Z" fill="#010211"/>
</svg>
