<svg width="25" height="24" viewBox="0 0 25 24" fill="none" xmlns="http://www.w3.org/2000/svg">
<path fill-rule="evenodd" clip-rule="evenodd" d="M16.1849 3.83145C17.0598 2.81746 17.6495 1.40518 17.4881 0C16.2273 0.048 14.702 0.805376 13.798 1.81816C12.9863 2.71695 12.2776 4.15308 12.4681 5.53066C13.8745 5.63505 15.31 4.84662 16.1849 3.83145ZM19.3386 12.75C19.3738 16.3824 22.6634 17.5907 22.6998 17.6063C22.6731 17.6915 22.1744 19.3279 20.967 21.0199C19.9222 22.4815 18.8387 23.9372 17.1313 23.9684C15.4544 23.9984 14.9144 23.0156 12.996 23.0156C11.0787 23.0156 10.4793 23.937 8.89212 23.9982C7.24428 24.057 5.98837 22.4169 4.93632 20.9602C2.78369 17.9806 1.13948 12.5401 3.34794 8.86816C4.44488 7.04539 6.40458 5.88935 8.53294 5.86055C10.1505 5.83055 11.6782 6.90352 12.6671 6.90352C13.6561 6.90352 15.5126 5.61353 17.4638 5.80313C18.2805 5.83553 20.5739 6.11863 22.0458 8.18379C21.9268 8.25459 19.3095 9.71405 19.3386 12.75Z" fill="black"/>
</svg>
