<svg width="14" height="15" viewBox="0 0 14 15" fill="none" xmlns="http://www.w3.org/2000/svg">
<path d="M7.11645 10.805C6.70812 10.805 6.29395 10.6474 5.98478 10.3383C5.68145 10.0349 5.51228 9.63247 5.51228 9.20663C5.51228 8.7808 5.68145 8.37246 5.98478 8.07496L6.80727 7.25246C6.97643 7.0833 7.25643 7.0833 7.4256 7.25246C7.59477 7.42163 7.59477 7.70163 7.4256 7.87079L6.60311 8.6933C6.46311 8.8333 6.38728 9.01413 6.38728 9.20663C6.38728 9.39913 6.46311 9.58578 6.60311 9.71995C6.88895 10.0058 7.34979 10.0058 7.63563 9.71995L8.93061 8.42495C9.67144 7.68412 9.67144 6.48246 8.93061 5.74163C8.18977 5.0008 6.98812 5.0008 6.24729 5.74163L4.8356 7.15329C4.5381 7.45079 4.37478 7.84163 4.37478 8.2558C4.37478 8.66996 4.5381 9.06662 4.8356 9.35829C5.00476 9.52745 5.00476 9.80745 4.8356 9.97662C4.66643 10.1458 4.38643 10.1458 4.21726 9.97662C3.75643 9.51579 3.50562 8.90329 3.50562 8.24996C3.50562 7.59662 3.75643 6.98413 4.21726 6.5233L5.62896 5.11162C6.70812 4.03245 8.46977 4.03245 9.54894 5.11162C10.6281 6.19079 10.6281 7.95245 9.54894 9.03162L8.25396 10.3266C7.93896 10.6475 7.53062 10.805 7.11645 10.805Z" fill="#010211"/>
<path d="M8.75008 13.9372H5.25008C2.08258 13.9372 0.729248 12.5838 0.729248 9.41634V5.91634C0.729248 2.74884 2.08258 1.39551 5.25008 1.39551H8.75008C11.9176 1.39551 13.2709 2.74884 13.2709 5.91634V9.41634C13.2709 12.5838 11.9176 13.9372 8.75008 13.9372ZM5.25008 2.27051C2.56091 2.27051 1.60425 3.22717 1.60425 5.91634V9.41634C1.60425 12.1055 2.56091 13.0622 5.25008 13.0622H8.75008C11.4392 13.0622 12.3959 12.1055 12.3959 9.41634V5.91634C12.3959 3.22717 11.4392 2.27051 8.75008 2.27051H5.25008Z" fill="#010211"/>
</svg>
