<svg width="24" height="24" viewBox="0 0 24 24" fill="none" xmlns="http://www.w3.org/2000/svg">
<path fill-rule="evenodd" clip-rule="evenodd" d="M17.1178 1H6.89293C4.23769 1 2.06424 3.0667 2 5.5984V20.1273C2 21.2123 2.40685 22.1733 3.2848 22.6797C3.67024 22.8967 4.07709 22.9897 4.51606 22.9897C5.0728 22.9897 5.66167 22.8243 6.22912 22.5247L11.4004 19.7553C11.5289 19.6829 11.743 19.6313 12.0107 19.6313C12.2784 19.6313 12.4818 19.6829 12.5996 19.7553L17.7816 22.5247C18.7666 23.0517 19.848 23.1757 20.7152 22.6797C21.5931 22.1837 22 21.2226 22 20.1273V5.7224C22 3.1287 19.7944 1 17.1071 1H17.1178ZM20.4154 20.1376C20.4154 20.892 20.137 21.2433 19.9122 21.3673C19.6874 21.5016 19.2377 21.5636 18.5525 21.1916L14.4625 19.0009L13.3812 18.4223C12.9636 18.1949 12.4604 18.1019 12 18.1019C11.5396 18.1019 11.0471 18.1949 10.6188 18.4223L5.44754 21.1916C4.76231 21.5533 4.31263 21.4913 4.08779 21.3673C3.86296 21.233 3.58458 20.892 3.58458 20.1376V5.7224C3.58458 3.97604 5.0621 2.53969 6.88223 2.53969H17.1071C18.9165 2.53969 20.4047 3.97604 20.4047 5.7224V20.1376H20.4154Z" fill="#010211"/>
</svg>
