<svg width="25" height="24" viewBox="0 0 25 24" fill="none" xmlns="http://www.w3.org/2000/svg">
<path d="M1.0135 23.6483C0.459453 23.6483 0 23.1889 0 22.6348V7.77017C0 1.81079 1.81079 0 7.77017 0H17.2295C23.1889 0 24.9997 1.81079 24.9997 7.77017V21.2835C24.9997 21.4997 24.9997 21.7024 24.9862 21.9186C24.9456 22.4727 24.4456 22.9051 23.9051 22.8646C23.351 22.824 22.9186 22.3375 22.9592 21.7835C22.9727 21.6213 22.9727 21.4457 22.9727 21.2835V7.77017C22.9727 2.94591 22.0673 2.027 17.2295 2.027H7.77017C2.93239 2.027 2.027 2.94591 2.027 7.77017V22.6348C2.027 23.1889 1.56755 23.6483 1.0135 23.6483Z" fill="#4E4E59"/>
</svg>
