<svg width="17" height="16" viewBox="0 0 17 16" fill="none" xmlns="http://www.w3.org/2000/svg">
<path d="M2.8335 12.4999C2.56016 12.4999 2.3335 12.2733 2.3335 11.9999V4.66659C2.3335 1.72659 3.22683 0.833252 6.16683 0.833252H10.8335C13.7735 0.833252 14.6668 1.72659 14.6668 4.66659V11.3333C14.6668 11.4399 14.6668 11.5399 14.6602 11.6466C14.6402 11.9199 14.3935 12.1333 14.1268 12.1133C13.8535 12.0933 13.6402 11.8533 13.6602 11.5799C13.6668 11.4999 13.6668 11.4133 13.6668 11.3333V4.66659C13.6668 2.28659 13.2202 1.83325 10.8335 1.83325H6.16683C3.78016 1.83325 3.3335 2.28659 3.3335 4.66659V11.9999C3.3335 12.2733 3.10683 12.4999 2.8335 12.4999Z" fill="#4E4E59"/>
<mask id="path-2-inside-1_4246_1715" fill="white">
<path d="M11.8335 15.1667H5.16683C3.60683 15.1667 2.3335 13.8933 2.3335 12.3333V11.9C2.3335 10.5733 3.4135 9.5 4.7335 9.5H14.1668C14.4402 9.5 14.6668 9.72667 14.6668 10V12.3333C14.6668 13.8933 13.3935 15.1667 11.8335 15.1667ZM4.7335 10.5C3.96016 10.5 3.3335 11.1267 3.3335 11.9V12.3333C3.3335 13.3467 4.1535 14.1667 5.16683 14.1667H11.8335C12.8468 14.1667 13.6668 13.3467 13.6668 12.3333V10.5H4.7335Z"/>
</mask>
<path d="M11.8335 15.1667H5.16683C3.60683 15.1667 2.3335 13.8933 2.3335 12.3333V11.9C2.3335 10.5733 3.4135 9.5 4.7335 9.5H14.1668C14.4402 9.5 14.6668 9.72667 14.6668 10V12.3333C14.6668 13.8933 13.3935 15.1667 11.8335 15.1667ZM4.7335 10.5C3.96016 10.5 3.3335 11.1267 3.3335 11.9V12.3333C3.3335 13.3467 4.1535 14.1667 5.16683 14.1667H11.8335C12.8468 14.1667 13.6668 13.3467 13.6668 12.3333V10.5H4.7335Z" fill="#4E4E59"/>
<path d="M13.6668 10.5H14.6668V9.5H13.6668V10.5ZM11.8335 14.1667H5.16683V16.1667H11.8335V14.1667ZM5.16683 14.1667C4.15911 14.1667 3.3335 13.341 3.3335 12.3333H1.3335C1.3335 14.4456 3.05454 16.1667 5.16683 16.1667V14.1667ZM3.3335 12.3333V11.9H1.3335V12.3333H3.3335ZM3.3335 11.9C3.3335 11.1274 3.96397 10.5 4.7335 10.5V8.5C2.86302 8.5 1.3335 10.0192 1.3335 11.9H3.3335ZM4.7335 10.5H14.1668V8.5H4.7335V10.5ZM14.1668 10.5C13.8879 10.5 13.6668 10.279 13.6668 10H15.6668C15.6668 9.17438 14.9924 8.5 14.1668 8.5V10.5ZM13.6668 10V12.3333H15.6668V10H13.6668ZM13.6668 12.3333C13.6668 13.341 12.8412 14.1667 11.8335 14.1667V16.1667C13.9458 16.1667 15.6668 14.4456 15.6668 12.3333H13.6668ZM4.7335 9.5C3.40788 9.5 2.3335 10.5744 2.3335 11.9H4.3335C4.3335 11.679 4.51245 11.5 4.7335 11.5V9.5ZM2.3335 11.9V12.3333H4.3335V11.9H2.3335ZM2.3335 12.3333C2.3335 13.899 3.60121 15.1667 5.16683 15.1667V13.1667C4.70578 13.1667 4.3335 12.7944 4.3335 12.3333H2.3335ZM5.16683 15.1667H11.8335V13.1667H5.16683V15.1667ZM11.8335 15.1667C13.3991 15.1667 14.6668 13.899 14.6668 12.3333H12.6668C12.6668 12.7944 12.2945 13.1667 11.8335 13.1667V15.1667ZM14.6668 12.3333V10.5H12.6668V12.3333H14.6668ZM13.6668 9.5H4.7335V11.5H13.6668V9.5Z" fill="#4E4E59" mask="url(#path-2-inside-1_4246_1715)"/>
<path d="M11.1668 5.16675H5.8335C5.56016 5.16675 5.3335 4.94008 5.3335 4.66675C5.3335 4.39341 5.56016 4.16675 5.8335 4.16675H11.1668C11.4402 4.16675 11.6668 4.39341 11.6668 4.66675C11.6668 4.94008 11.4402 5.16675 11.1668 5.16675Z" fill="#4E4E59"/>
<path d="M9.16683 7.5H5.8335C5.56016 7.5 5.3335 7.27333 5.3335 7C5.3335 6.72667 5.56016 6.5 5.8335 6.5H9.16683C9.44016 6.5 9.66683 6.72667 9.66683 7C9.66683 7.27333 9.44016 7.5 9.16683 7.5Z" fill="#4E4E59"/>
</svg>
