<svg width="25" height="24" viewBox="0 0 25 24" fill="none" xmlns="http://www.w3.org/2000/svg">
<g id="vuesax/linear/shopping-cart">
<g id="shopping-cart">
<path id="Vector" d="M2.75 2H4.49001C5.57001 2 6.42 2.93 6.33 4L5.5 13.96C5.36 15.59 6.64999 16.99 8.28999 16.99H18.94C20.38 16.99 21.64 15.81 21.75 14.38L22.29 6.88C22.41 5.22 21.15 3.87 19.48 3.87H6.57001" stroke="#010211" stroke-width="1.5" stroke-miterlimit="10" stroke-linecap="round" stroke-linejoin="round"/>
<path id="Vector_2" d="M17 22C17.6904 22 18.25 21.4404 18.25 20.75C18.25 20.0596 17.6904 19.5 17 19.5C16.3096 19.5 15.75 20.0596 15.75 20.75C15.75 21.4404 16.3096 22 17 22Z" stroke="#010211" stroke-width="1.5" stroke-miterlimit="10" stroke-linecap="round" stroke-linejoin="round"/>
<path id="Vector_3" d="M9 22C9.69036 22 10.25 21.4404 10.25 20.75C10.25 20.0596 9.69036 19.5 9 19.5C8.30964 19.5 7.75 20.0596 7.75 20.75C7.75 21.4404 8.30964 22 9 22Z" stroke="#010211" stroke-width="1.5" stroke-miterlimit="10" stroke-linecap="round" stroke-linejoin="round"/>
<path id="Vector_4" d="M9.75 8H21.75" stroke="#010211" stroke-width="1.5" stroke-miterlimit="10" stroke-linecap="round" stroke-linejoin="round"/>
</g>
</g>
</svg>
