<svg width="16" height="16" viewBox="0 0 16 16" fill="none" xmlns="http://www.w3.org/2000/svg">
<path d="M14.6667 3.23329V11.16C14.6667 11.8066 14.14 12.4 13.4933 12.48L13.2867 12.5066C12.1933 12.6533 10.6533 13.1066 9.41333 13.6266C8.98 13.8066 8.5 13.48 8.5 13.0066V3.73329C8.5 3.48662 8.64 3.25995 8.86 3.13995C10.08 2.47995 11.9267 1.89329 13.18 1.78662H13.22C14.02 1.78662 14.6667 2.43329 14.6667 3.23329Z" fill="#010211"/>
<path d="M7.13999 3.13995C5.91999 2.47995 4.07333 1.89329 2.81999 1.78662H2.77333C1.97333 1.78662 1.32666 2.43329 1.32666 3.23329V11.16C1.32666 11.8066 1.85333 12.4 2.49999 12.48L2.70666 12.5066C3.79999 12.6533 5.33999 13.1066 6.57999 13.6266C7.01333 13.8066 7.49333 13.48 7.49333 13.0066V3.73329C7.49333 3.47995 7.35999 3.25995 7.13999 3.13995ZM3.33333 5.15995H4.83333C5.10666 5.15995 5.33333 5.38662 5.33333 5.65995C5.33333 5.93995 5.10666 6.15995 4.83333 6.15995H3.33333C3.05999 6.15995 2.83333 5.93995 2.83333 5.65995C2.83333 5.38662 3.05999 5.15995 3.33333 5.15995ZM5.33333 8.15995H3.33333C3.05999 8.15995 2.83333 7.93995 2.83333 7.65995C2.83333 7.38662 3.05999 7.15995 3.33333 7.15995H5.33333C5.60666 7.15995 5.83333 7.38662 5.83333 7.65995C5.83333 7.93995 5.60666 8.15995 5.33333 8.15995Z" fill="#010211"/>
</svg>
