<svg width="17" height="16" viewBox="0 0 17 16" fill="none" xmlns="http://www.w3.org/2000/svg">
<path d="M15.3333 11.16V3.1133C15.3333 2.3133 14.68 1.71996 13.8867 1.78663H13.8467C12.4467 1.90663 10.32 2.61996 9.13333 3.36663L9.02 3.43996C8.82667 3.55996 8.50667 3.55996 8.31333 3.43996L8.14667 3.33996C6.96 2.59996 4.84 1.8933 3.44 1.77996C2.64667 1.7133 2 2.3133 2 3.10663V11.16C2 11.8 2.52 12.4 3.16 12.48L3.35333 12.5066C4.8 12.7 7.03333 13.4333 8.31333 14.1333L8.34 14.1466C8.52 14.2466 8.80667 14.2466 8.98 14.1466C10.26 13.44 12.5 12.7 13.9533 12.5066L14.1733 12.48C14.8133 12.4 15.3333 11.8 15.3333 11.16Z" stroke="#5A5BB5" stroke-linecap="round" stroke-linejoin="round"/>
<path d="M8.6665 3.66016V13.6602" stroke="#5A5BB5" stroke-linecap="round" stroke-linejoin="round"/>
<path d="M5.83301 5.66016H4.33301" stroke="#5A5BB5" stroke-linecap="round" stroke-linejoin="round"/>
<path d="M6.33301 7.66016H4.33301" stroke="#5A5BB5" stroke-linecap="round" stroke-linejoin="round"/>
</svg>
