<svg width="16" height="16" viewBox="0 0 16 16" fill="none" xmlns="http://www.w3.org/2000/svg">
<path d="M7.99992 1.33325C4.32659 1.33325 1.33325 4.32659 1.33325 7.99992C1.33325 11.6733 4.32659 14.6666 7.99992 14.6666C11.6733 14.6666 14.6666 11.6733 14.6666 7.99992C14.6666 4.32659 11.6733 1.33325 7.99992 1.33325ZM10.8999 10.3799C10.8066 10.5399 10.6399 10.6266 10.4666 10.6266C10.3799 10.6266 10.2933 10.6066 10.2133 10.5533L8.14659 9.31992C7.63325 9.01325 7.25325 8.33992 7.25325 7.74659V5.01325C7.25325 4.73992 7.47992 4.51325 7.75325 4.51325C8.02659 4.51325 8.25325 4.73992 8.25325 5.01325V7.74659C8.25325 7.98659 8.45325 8.33992 8.65992 8.45992L10.7266 9.69325C10.9666 9.83325 11.0466 10.1399 10.8999 10.3799Z" fill="#010211"/>
</svg>
