<svg width="25" height="25" viewBox="0 0 25 25" fill="none" xmlns="http://www.w3.org/2000/svg">
<path d="M12.1021 23.25C6.17205 23.25 1.35205 18.43 1.35205 12.5C1.35205 6.57 6.17205 1.75 12.1021 1.75C18.0321 1.75 22.8521 6.57 22.8521 12.5C22.8521 18.43 18.0321 23.25 12.1021 23.25ZM12.1021 3.25C7.00205 3.25 2.85205 7.4 2.85205 12.5C2.85205 17.6 7.00205 21.75 12.1021 21.75C17.2021 21.75 21.3521 17.6 21.3521 12.5C21.3521 7.4 17.2021 3.25 12.1021 3.25Z" fill="#010211"/>
<path d="M9.27191 16.08C9.08191 16.08 8.89191 16.01 8.74191 15.86C8.45191 15.57 8.45191 15.09 8.74191 14.8L14.4019 9.13999C14.6919 8.84999 15.1719 8.84999 15.4619 9.13999C15.7519 9.42999 15.7519 9.90998 15.4619 10.2L9.80191 15.86C9.66191 16.01 9.46191 16.08 9.27191 16.08Z" fill="#010211"/>
<path d="M14.9319 16.08C14.7419 16.08 14.5519 16.01 14.4019 15.86L8.74191 10.2C8.45191 9.90998 8.45191 9.42999 8.74191 9.13999C9.03191 8.84999 9.51191 8.84999 9.80191 9.13999L15.4619 14.8C15.7519 15.09 15.7519 15.57 15.4619 15.86C15.3119 16.01 15.1219 16.08 14.9319 16.08Z" fill="#010211"/>
</svg>
