<svg width="48" height="48" viewBox="0 0 48 48" fill="none" xmlns="http://www.w3.org/2000/svg">
<path d="M33.5695 43.9833C33.4608 43.9833 33.3605 43.9415 33.2852 43.8662L28.9867 39.5686C28.8362 39.4181 28.8279 39.1756 28.97 39.0167L29.0704 38.908L28.9198 38.8913C25.9176 38.5903 24.0694 37.8796 21.3181 35.9565L21.2679 35.9231C21.2679 35.9231 21.0839 36.107 20.9836 36.199C20.7661 36.4164 20.4735 36.7174 20.3313 36.8261C19.7292 37.3027 18.9598 37.6204 17.973 37.8043L17.8308 37.8294L17.9395 37.9298C18.0148 37.9967 18.0566 38.1054 18.0566 38.214C18.0566 38.3227 18.0148 38.4314 17.9395 38.4983L13.6411 42.796C13.5658 42.8712 13.4655 42.913 13.3567 42.913C13.248 42.913 13.1477 42.8712 13.0724 42.796L4.11589 33.8495C4.05735 33.791 4.0239 33.7157 4.00717 33.6405C3.98208 33.5151 4.0239 33.3729 4.11589 33.2809L8.41435 28.9833C8.48961 28.908 8.58996 28.8662 8.69868 28.8662C8.79903 28.8662 8.89102 28.8997 8.96629 28.9666L9.07501 29.0585L9.09173 28.9164C9.17536 28.214 9.26735 27.5786 9.38443 26.9766C9.62695 25.3545 10.5134 23.4482 12.0187 21.3077L12.0521 21.2575L11.3915 20.597C10.6472 19.8528 10.3127 18.7575 10.1705 17.9632L10.1454 17.8211L10.0451 17.9214C9.96982 17.9967 9.86947 18.0385 9.76075 18.0385C9.65204 18.0385 9.55168 17.9967 9.47642 17.9214L5.18632 13.6405C5.11106 13.5652 5.06924 13.4649 5.06924 13.3562C5.06924 13.2475 5.11106 13.1472 5.18632 13.0719L14.1345 4.11706C14.2097 4.04181 14.3101 4 14.4188 4C14.5275 4 14.6279 4.04181 14.7031 4.11706L19.0016 8.41472C19.1521 8.55686 19.1605 8.81605 19.0183 8.96656L18.918 9.07525L19.0685 9.09197C22.0707 9.39298 23.9189 10.1037 26.6703 12.0268L26.7204 12.0602L27.3811 11.3997C28.1254 10.6555 29.2209 10.3211 30.0154 10.1789L30.1575 10.1538L30.0572 10.0535C29.9819 9.97826 29.9401 9.87793 29.9401 9.76923C29.9401 9.66054 29.9819 9.5602 30.0572 9.48495L34.3556 5.18729C34.4309 5.11204 34.5313 5.07023 34.64 5.07023C34.7487 5.07023 34.849 5.11204 34.9243 5.18729L43.8808 14.1421C44.0397 14.301 44.0397 14.5518 43.8808 14.7107L39.5824 19.0084C39.5071 19.0836 39.4068 19.1254 39.298 19.1254C39.1977 19.1254 39.1057 19.092 39.0304 19.0251L38.9217 18.9248L38.905 19.0753C38.6039 22.0853 37.8931 23.9331 35.9697 26.6756L35.9362 26.7258L36.5969 27.3863C37.3411 28.1304 37.6757 29.2258 37.8178 30.0201L37.8429 30.1622L37.9433 30.0619C38.0185 29.9866 38.1189 29.9448 38.2276 29.9448C38.3363 29.9448 38.4367 29.9866 38.5119 30.0619L42.8104 34.3595C42.9693 34.5184 42.9693 34.7692 42.8104 34.9281L33.8539 43.8829C33.7786 43.9582 33.6783 44 33.5695 44V43.9833ZM29.8397 39.2843L33.5612 43.005L41.949 34.6187L38.2192 30.8896L29.8314 39.2759L29.8397 39.2843ZM4.97725 33.5652L13.3651 41.9515L17.0949 38.2224L8.70704 29.8361L4.97725 33.5569V33.5652ZM21.8449 35.3462L21.9202 35.3963C24.8305 37.4281 26.6953 37.8963 29.7812 38.1722L37.0903 30.9064C37.0652 30.2542 36.8645 28.791 36.0282 27.9548L35.4428 27.3696L35.3926 27.4532C35.2923 27.612 35.1417 27.7124 34.9912 27.7124C34.941 27.7124 34.8909 27.704 34.849 27.6873C34.0211 27.4281 32.9423 26.4582 33.2016 25.1873L32.658 24.5936L32.6078 24.5435L32.5576 24.5936C31.5959 25.5552 30.4168 26.7508 29.2125 27.9716C27.6069 29.5936 25.9511 31.2742 24.6632 32.5535L24.613 32.6037L26.1016 34.0836C26.2187 34.2007 26.2521 34.3595 26.1852 34.5184C26.1183 34.6689 25.9762 34.7692 25.8173 34.7692L23.5677 34.3344C23.4924 34.3177 23.4088 34.2676 23.3335 34.2258C23.2666 34.1923 23.2081 34.1589 23.1412 34.1338L23.0994 34.1171L21.8617 35.3462H21.8449ZM13.0808 21.2324C11.5755 23.2809 10.6723 24.995 10.3211 26.4666C10.0953 27.4365 9.92801 28.5151 9.81093 29.7776L17.0782 37.0853C17.9813 37.0268 19.1939 36.8261 20.0302 36.0234L27.1971 28.8579C27.1971 28.8579 27.264 28.7826 27.2975 28.7324C27.5651 28.3645 27.5149 27.8378 27.1888 27.5201L27.0968 27.4281C26.9713 27.2943 26.8208 27.1438 26.6619 27.0769C26.5448 27.0268 26.411 26.9933 26.2772 26.9933C26.0514 26.9933 25.8423 27.0686 25.6751 27.2023C25.5915 27.2776 25.558 27.311 25.5246 27.3278L22.2213 30.6221C22.146 30.6973 22.0457 30.7391 21.9369 30.7391C21.8282 30.7391 21.7279 30.6973 21.6526 30.6221C21.5773 30.5468 21.5355 30.4465 21.5355 30.3378C21.5355 30.2291 21.5773 30.1288 21.6526 30.0535L27.3226 24.3846C27.5818 24.0167 27.5316 23.5234 27.2138 23.189L26.963 22.9381C26.7873 22.7625 26.5365 22.6706 26.2772 22.6706C26.0598 22.6706 25.8591 22.7458 25.7085 22.8712C25.6166 22.9548 25.5831 22.9883 25.5497 23.005L20.1473 28.398C20.072 28.4732 19.9717 28.5151 19.863 28.5151C19.7543 28.5151 19.6539 28.4732 19.5786 28.398C19.5034 28.3227 19.4616 28.2224 19.4616 28.1137C19.4616 28.005 19.5034 27.9047 19.5786 27.8294L26.4863 20.9231C26.6034 20.7391 26.6619 20.5385 26.6452 20.3462C26.6368 20.1204 26.5365 19.8946 26.3692 19.7274L26.2605 19.6187C26.1601 19.5184 26.0431 19.393 25.9594 19.3428C25.8173 19.2425 25.6333 19.1923 25.4493 19.1923C25.1984 19.1923 24.9475 19.2926 24.7803 19.4682L22.999 21.2492C22.999 21.2492 22.9405 21.2993 22.9154 21.3077L17.9897 26.2324C17.9144 26.3077 17.8141 26.3495 17.7054 26.3495C17.5967 26.3495 17.4963 26.3077 17.421 26.2324C17.3458 26.1572 17.304 26.0569 17.304 25.9482C17.304 25.8395 17.3458 25.7391 17.421 25.6639L22.5474 20.5385L22.5976 20.4549C22.7732 20.1288 22.7314 19.7191 22.5056 19.4264C22.4722 19.3763 22.3216 19.2341 22.2296 19.1421C22.1376 19.0502 22.0958 19.0167 22.0457 18.9833C21.8951 18.8746 21.7028 18.8161 21.5104 18.8161C21.2846 18.8161 21.0756 18.8913 20.9083 19.0251C20.8832 19.0418 20.8581 19.0669 20.8414 19.092L13.9087 26.0736C13.8334 26.1488 13.7331 26.1906 13.6243 26.1906C13.5574 26.1906 13.4905 26.1739 13.432 26.1405C13.2731 26.0569 13.1895 25.8813 13.2229 25.7057L13.6494 23.5318C13.6578 23.4649 13.6996 23.398 13.7331 23.3311C13.7582 23.2893 13.7832 23.2475 13.8 23.2057C13.892 23.0134 13.9421 22.8629 13.9756 22.6873C14.1261 21.9766 13.6578 21.4498 13.1644 21.1823L13.1059 21.1488L13.064 21.199L13.0808 21.2324ZM23.668 33.5318L24.5796 33.7074L24.0276 33.1639L23.6597 33.5318H23.668ZM30.2662 21.6171C30.4251 21.6171 30.5757 21.7174 30.6426 21.8763C30.7095 22.0268 30.676 22.1856 30.5506 22.311C29.9903 22.8545 28.8446 24.0251 27.8996 24.9783L26.6535 26.2324L26.779 26.2659C27.0549 26.3495 27.3058 26.5 27.5149 26.709L27.7658 26.9599C27.9665 27.1605 28.117 27.403 28.2006 27.6706L28.2341 27.7876L34.0713 21.9097C34.1466 21.8344 34.2469 21.7926 34.3473 21.7926C34.4727 21.7926 34.5898 21.8512 34.6734 21.9515C34.7487 22.0435 34.7738 22.1605 34.7487 22.2776L34.3222 24.4515C34.3138 24.4933 34.2971 24.5351 34.2804 24.5686C34.1215 24.8528 34.0379 25.0619 33.996 25.3043C33.879 25.9064 34.18 26.4415 34.8072 26.7926L34.8658 26.8261L34.9076 26.7759C35.9111 25.4465 37.2241 23.3311 37.6255 21.7341C37.9767 20.3378 38.1356 18.699 38.1774 18.2308L30.9018 10.9231C30.2495 10.9482 28.786 11.1488 27.9498 11.9849L21.87 18.0635L21.9955 18.097C22.2798 18.1806 22.5474 18.3311 22.7565 18.5401L22.8485 18.6321C22.9321 18.7157 23.0492 18.8328 23.0826 18.8746C23.2499 19.0585 23.367 19.2843 23.4422 19.51L23.4757 19.6271L25.6751 17.4281C25.7587 17.3528 25.8591 17.311 25.9594 17.311C26.1183 17.311 26.2688 17.4114 26.3358 17.5702C26.4027 17.7207 26.3692 17.8796 26.2438 18.005L25.8173 18.4314L25.9427 18.4649C26.227 18.5485 26.4863 18.699 26.7037 18.908L26.9546 19.1589C27.1553 19.3595 27.3058 19.6104 27.3895 19.8779L27.4229 19.995L27.841 19.5769C27.9247 19.5017 28.025 19.4599 28.1254 19.4599C28.2843 19.4599 28.4348 19.5602 28.5017 19.7191C28.5686 19.8696 28.5352 20.0284 28.4097 20.1538L28.2675 20.296C27.2138 21.3495 26.9797 21.6003 26.9462 21.6421L26.6953 21.893L26.8124 21.9264C27.4396 22.1187 28.0334 22.7124 28.2341 23.3395L28.2759 23.4565L29.9986 21.7341C30.0823 21.6589 30.1826 21.6171 30.283 21.6171H30.2662ZM14.2766 24.5769L14.8202 24.0251L14.4523 23.6572L14.2766 24.5686V24.5769ZM33.1681 23.9582L33.5361 24.3261L33.7117 23.4147L33.1681 23.9582ZM12.9971 20.2793C13.0473 20.2793 13.0975 20.2876 13.1477 20.3127C13.9672 20.5719 15.046 21.5418 14.7868 22.8127L15.3889 23.4565L15.4391 23.4064C16.2921 22.5535 17.5716 21.2575 18.8929 19.9197C20.5487 18.2391 22.2798 16.4916 23.3335 15.4465L23.3837 15.3963L21.8951 13.9164C21.778 13.7993 21.7446 13.6405 21.8115 13.4816C21.8784 13.3227 22.0206 13.2308 22.1795 13.2308H22.2631L24.4374 13.6656C24.5127 13.6823 24.5963 13.7241 24.6716 13.7659C24.7385 13.7993 24.8054 13.8328 24.8639 13.8579L26.1434 12.6371L26.0681 12.587C23.1579 10.5552 21.293 10.087 18.2071 9.81104L10.8981 17.0769C10.9232 17.7291 11.1239 19.1923 11.9602 20.0284L12.5456 20.6137L12.5957 20.5301C12.6961 20.3712 12.8466 20.2709 12.9971 20.2709V20.2793ZM30.9102 9.76087L39.298 18.1472L43.0195 14.4181L34.6316 6.03177L30.9018 9.76087H30.9102ZM6.03932 13.3562L9.76911 17.0853L18.157 8.699L14.4188 4.97826L6.03932 13.3562ZM23.9607 14.8194L24.3287 14.4515L23.4171 14.2759L23.9607 14.8194Z" fill="black"/>
</svg>
