<svg width="27" height="27" viewBox="0 0 27 27" fill="none" xmlns="http://www.w3.org/2000/svg">
<path d="M26.9602 22.046C26.9602 22.5321 26.8522 23.0316 26.6226 23.5176C26.3931 24.0036 26.0961 24.4626 25.7046 24.8946C25.0431 25.6236 24.3141 26.1501 23.4906 26.4876C22.6806 26.8252 21.803 27.0007 20.858 27.0007C19.481 27.0007 18.0094 26.6767 16.4569 26.0151C14.9044 25.3536 13.3518 24.4626 11.8128 23.3421C10.2603 22.208 8.78871 20.9525 7.38468 19.562C5.99415 18.1579 4.73862 16.6864 3.61809 15.1474C2.51106 13.6083 1.62004 12.0693 0.972024 10.5438C0.324008 9.00472 0 7.53318 0 6.12915C0 5.21113 0.162004 4.33361 0.486012 3.52359C0.81002 2.70007 1.32303 1.94405 2.03855 1.26903C2.90257 0.41851 3.84759 0 4.84662 0C5.22463 0 5.60264 0.0810021 5.94015 0.243006C6.29115 0.40501 6.60166 0.648016 6.84467 0.999024L9.97674 5.41363C10.2198 5.75114 10.3953 6.06165 10.5168 6.35866C10.6383 6.64216 10.7058 6.92567 10.7058 7.18218C10.7058 7.50618 10.6113 7.83019 10.4223 8.1407C10.2468 8.45121 9.99024 8.77521 9.66624 9.09922L8.64021 10.1657C8.49171 10.3143 8.42421 10.4898 8.42421 10.7058C8.42421 10.8138 8.43771 10.9083 8.46471 11.0163C8.50521 11.1243 8.54571 11.2053 8.57271 11.2863C8.81572 11.7318 9.23423 12.3123 9.82824 13.0143C10.4358 13.7163 11.0838 14.4319 11.7858 15.1474C12.5148 15.8629 13.2168 16.5244 13.9323 17.1319C14.6344 17.7259 15.2149 18.1309 15.6739 18.3739C15.7414 18.401 15.8224 18.4415 15.9169 18.482C16.0249 18.5225 16.1329 18.536 16.2544 18.536C16.4839 18.536 16.6594 18.455 16.8079 18.3064L17.8339 17.2939C18.1714 16.9564 18.4955 16.6999 18.806 16.5379C19.1165 16.3489 19.427 16.2544 19.7645 16.2544C20.021 16.2544 20.291 16.3084 20.588 16.4299C20.885 16.5514 21.1955 16.7269 21.533 16.9564L26.0016 20.129C26.3526 20.372 26.5956 20.6555 26.7442 20.993C26.8792 21.3305 26.9602 21.668 26.9602 22.046Z" fill="#5A5BB5"/>
</svg>
