<svg width="12" height="12" viewBox="0 0 12 12" fill="none" xmlns="http://www.w3.org/2000/svg">
<path d="M7.62581 12H4.37419C1.3471 12 0 10.6529 0 7.62581V4.37419C0 1.3471 1.3471 0 4.37419 0H7.62581C10.6529 0 12 1.3471 12 4.37419V7.62581C12 10.6529 10.6529 12 7.62581 12ZM4.37419 1.16129C1.97419 1.16129 1.16129 1.97419 1.16129 4.37419V7.62581C1.16129 10.0258 1.97419 10.8387 4.37419 10.8387H7.62581C10.0258 10.8387 10.8387 10.0258 10.8387 7.62581V4.37419C10.8387 1.97419 10.0258 1.16129 7.62581 1.16129H4.37419Z" fill="#010211"/>
</svg>
