<svg width="19" height="19" viewBox="0 0 19 19" fill="none" xmlns="http://www.w3.org/2000/svg">
<path d="M9.56351 18.9965C8.22118 18.9965 6.86934 18.4825 5.8507 17.4638L1.53813 13.1512C0.490923 12.104 -0.0612382 10.657 0.00540195 9.18139L0.233883 4.42138C0.338603 2.1461 2.13789 0.346811 4.42269 0.232571L9.18271 0.00409035C10.6583 -0.0530298 12.1054 0.489612 13.1526 1.53681L17.4651 5.84938C19.5119 7.89619 19.5119 11.2377 17.4651 13.2845L13.2858 17.4638C12.2577 18.4825 10.9153 18.9965 9.56351 18.9965ZM2.54725 12.1326L6.85982 16.4452C7.58334 17.1687 8.54486 17.5685 9.56351 17.5685C10.5821 17.5685 11.5437 17.1687 12.2672 16.4452L16.4465 12.2659C17.17 11.5424 17.5698 10.5808 17.5698 9.56219C17.5698 8.54355 17.17 7.58203 16.4465 6.85851L12.1339 2.54594C11.3723 1.78433 10.3156 1.37497 9.24935 1.43209L4.48933 1.66057C2.93757 1.72721 1.72853 2.93626 1.65237 4.4785L1.42389 9.23851C1.37629 10.3143 1.78565 11.371 2.54725 12.1326Z" fill="#010211"/>
</svg>
