<svg width="780" height="66" viewBox="0 0 780 66" fill="none" xmlns="http://www.w3.org/2000/svg">
<rect width="390" height="33" transform="scale(2)" fill="white"/>
<path d="M48.036 35.948C48.5773 35.948 49.1093 35.9013 49.632 35.808C50.1547 35.696 50.6027 35.5373 50.976 35.332C50.9947 35.1267 51.004 34.9493 51.004 34.8C51.004 34.6507 51.004 34.52 51.004 34.408C51.004 33.6613 50.948 32.9613 50.836 32.308C50.7427 31.636 50.5653 31.0573 50.304 30.572C50.0613 30.068 49.716 29.676 49.268 29.396C48.8387 29.0973 48.2973 28.948 47.644 28.948C47.1027 28.948 46.636 29.06 46.244 29.284C45.8707 29.508 45.5627 29.7973 45.32 30.152C45.0773 30.5067 44.9 30.8893 44.788 31.3C44.676 31.7107 44.62 32.112 44.62 32.504C44.62 33.6427 44.8907 34.5013 45.432 35.08C45.992 35.6587 46.86 35.948 48.036 35.948ZM50.696 37.992C50.248 38.1973 49.7533 38.356 49.212 38.468C48.6707 38.58 48.148 38.636 47.644 38.636C46.4867 38.636 45.4973 38.4867 44.676 38.188C43.8733 37.8707 43.2107 37.4413 42.688 36.9C42.184 36.34 41.8107 35.696 41.568 34.968C41.3253 34.24 41.204 33.456 41.204 32.616C41.204 31.888 41.3253 31.1507 41.568 30.404C41.8107 29.6387 42.1933 28.9387 42.716 28.304C43.2387 27.6693 43.9013 27.156 44.704 26.764C45.5067 26.3533 46.4587 26.148 47.56 26.148C49.8373 26.148 51.5547 26.8853 52.712 28.36C53.888 29.816 54.476 31.8787 54.476 34.548C54.476 38.3187 53.5053 41.1747 51.564 43.116C49.6227 45.0573 46.6453 46.0373 42.632 46.056L42.492 43.228C43.612 43.228 44.62 43.1347 45.516 42.948C46.4307 42.7613 47.224 42.4627 47.896 42.052C48.5867 41.6413 49.1653 41.1093 49.632 40.456C50.0987 39.784 50.4533 38.9627 50.696 37.992ZM61.8781 33.68C61.8781 34.3333 61.6541 34.8653 61.2061 35.276C60.7767 35.6867 60.2541 35.892 59.6381 35.892C59.0034 35.892 58.4714 35.6867 58.0421 35.276C57.6127 34.8653 57.3981 34.3333 57.3981 33.68C57.3981 33.0267 57.6127 32.4947 58.0421 32.084C58.4714 31.6547 59.0034 31.44 59.6381 31.44C60.2541 31.44 60.7767 31.6547 61.2061 32.084C61.6541 32.4947 61.8781 33.0267 61.8781 33.68ZM61.8781 44.152C61.8781 44.8053 61.6541 45.3373 61.2061 45.748C60.7767 46.1587 60.2541 46.364 59.6381 46.364C59.0034 46.364 58.4714 46.1587 58.0421 45.748C57.6127 45.3373 57.3981 44.8053 57.3981 44.152C57.3981 43.4987 57.6127 42.9667 58.0421 42.556C58.4714 42.1267 59.0034 41.912 59.6381 41.912C60.2541 41.912 60.7767 42.1267 61.2061 42.556C61.6541 42.9667 61.8781 43.4987 61.8781 44.152ZM72.7876 30.768C72.3396 31.3093 71.8729 31.888 71.3876 32.504C70.9209 33.12 70.4636 33.764 70.0156 34.436C69.5676 35.108 69.1382 35.7987 68.7276 36.508C68.3169 37.1987 67.9436 37.8893 67.6076 38.58H72.7876V30.768ZM76.0916 26.596V38.58H78.2756V41.352H76.0916V46H72.7876V41.352H64.2756V38.944C64.6489 38.1227 65.1436 37.18 65.7596 36.116C66.3942 35.052 67.0942 33.96 67.8596 32.84C68.6249 31.72 69.4369 30.6187 70.2956 29.536C71.1542 28.4533 72.0129 27.4733 72.8716 26.596H76.0916ZM81.7856 30.628C82.8683 30.1987 83.951 29.648 85.0336 28.976C86.135 28.304 87.1056 27.5107 87.9456 26.596H90.3256V46H86.9376V31.132C86.4336 31.524 85.799 31.9067 85.0336 32.28C84.2683 32.6533 83.531 32.9613 82.8216 33.204L81.7856 30.628Z" fill="black"/>
<path fill-rule="evenodd" clip-rule="evenodd" d="M615.945 22.25C615.945 21.0074 614.951 20 613.725 20H611.506C610.281 20 609.287 21.0074 609.287 22.25V41.75C609.287 42.9926 610.281 44 611.506 44H613.725C614.951 44 615.945 42.9926 615.945 41.75V22.25ZM600.481 24.8008H602.7C603.925 24.8008 604.919 25.8323 604.919 27.1048V41.6968C604.919 42.9692 603.925 44.0008 602.7 44.0008H600.481C599.255 44.0008 598.262 42.9692 598.262 41.6968V27.1048C598.262 25.8323 599.255 24.8008 600.481 24.8008ZM591.465 30H589.246C588.021 30 587.027 31.0447 587.027 32.3333V41.6667C587.027 42.9553 588.021 44 589.246 44H591.465C592.691 44 593.685 42.9553 593.685 41.6667V32.3333C593.685 31.0447 592.691 30 591.465 30ZM580.438 34.8008H578.219C576.994 34.8008 576 35.8305 576 37.1008V41.7008C576 42.971 576.994 44.0008 578.219 44.0008H580.438C581.664 44.0008 582.657 42.971 582.657 41.7008V37.1008C582.657 35.8305 581.664 34.8008 580.438 34.8008Z" fill="black"/>
<path fill-rule="evenodd" clip-rule="evenodd" d="M649.65 24.8412C654.824 24.8414 659.8 26.6514 663.55 29.8972C663.833 30.1477 664.284 30.1446 664.562 29.8901L667.262 27.4099C667.402 27.2808 667.481 27.106 667.48 26.9241C667.479 26.7421 667.398 26.5681 667.255 26.4406C657.413 17.8531 641.885 17.8531 632.042 26.4406C631.9 26.568 631.819 26.742 631.817 26.9239C631.816 27.1058 631.894 27.2808 632.035 27.4099L634.735 29.8901C635.013 30.145 635.465 30.1481 635.747 29.8972C639.498 26.6512 644.475 24.8412 649.65 24.8412ZM649.646 33.1255C652.47 33.1253 655.193 34.1298 657.286 35.9439C657.569 36.2013 658.015 36.1957 658.291 35.9313L660.969 33.3415C661.11 33.2057 661.188 33.0214 661.186 32.8299C661.184 32.6384 661.102 32.4557 660.958 32.3226C654.584 26.648 644.713 26.648 638.339 32.3226C638.195 32.4557 638.113 32.6385 638.111 32.8301C638.109 33.0216 638.187 33.2059 638.329 33.3415L641.006 35.9313C641.282 36.1957 641.728 36.2013 642.011 35.9439C644.103 34.131 646.824 33.1266 649.646 33.1255ZM654.893 38.6086C654.897 38.8154 654.82 39.0147 654.68 39.1596L650.152 43.9782C650.019 44.1198 649.838 44.1995 649.649 44.1995C649.46 44.1995 649.279 44.1198 649.146 43.9782L644.617 39.1596C644.477 39.0146 644.4 38.8152 644.404 38.6084C644.409 38.4016 644.494 38.2058 644.639 38.0672C647.531 35.488 651.767 35.488 654.659 38.0672C654.804 38.2059 654.889 38.4018 654.893 38.6086Z" fill="black"/>
<rect x="684.5" y="20.5" width="51.0113" height="25" rx="3.8" fill="black"/>
<rect x="684.5" y="20.5" width="51.0113" height="25" rx="3.8" fill="white" fill-opacity="0.8"/>
<rect x="684.5" y="20.5" width="51.0113" height="25" rx="3.8" stroke="black"/>
<rect x="684.5" y="20.5" width="51.0113" height="25" rx="3.8" stroke="white" stroke-opacity="0.7"/>
<path d="M737.237 29.332V37.332C738.912 36.6545 740 35.0783 740 33.332C740 31.5858 738.912 30.0096 737.237 29.332Z" fill="black"/>
<path d="M737.237 29.332V37.332C738.912 36.6545 740 35.0783 740 33.332C740 31.5858 738.912 30.0096 737.237 29.332Z" fill="white" fill-opacity="0.8"/>
<rect x="688" y="24" width="30" height="18" rx="2.5" fill="black"/>
</svg>
