<svg width="91" height="75" viewBox="0 0 91 75" fill="none" xmlns="http://www.w3.org/2000/svg"><mask id="a" style="mask-type:luminance" maskUnits="userSpaceOnUse" x="0" y="0" width="91" height="75"><path d="M90.5 0H.5v75h90z" fill="#fff"/></mask><g mask="url(#a)" fill="#01110F" fill-opacity=".1"><path d="M68.397 8.59a8.7 8.7 0 0 1-2.456 6.065 8.3 8.3 0 0 1-5.918 2.518H48.088a7.43 7.43 0 0 1 .64 7.606 7.2 7.2 0 0 1-2.617 2.924 6.97 6.97 0 0 1-3.725 1.081H7.603a7 7 0 0 1-5.02-2.13 7.37 7.37 0 0 1-2.08-5.146c0-1.93.749-3.78 2.08-5.144a7 7 0 0 1 5.02-2.131h5.979a8.7 8.7 0 0 1-1.978-4.4 8.8 8.8 0 0 1 .66-4.797 8.53 8.53 0 0 1 3.09-3.667A8.23 8.23 0 0 1 19.886 0h40.136a8.2 8.2 0 0 1 3.206.655 8.4 8.4 0 0 1 2.718 1.862 8.6 8.6 0 0 1 1.814 2.787 8.8 8.8 0 0 1 .636 3.286m12.927 43.846h-.88a7.17 7.17 0 0 1 1.02 4.535 7.1 7.1 0 0 1-1.966 4.196 7 7 0 0 1-1.69 1.274 6.55 6.55 0 0 1 2.978 3.109 6.77 6.77 0 0 1 .449 4.333 6.64 6.64 0 0 1-2.275 3.68A6.36 6.36 0 0 1 74.945 75h-16.44a6.35 6.35 0 0 1-3.589-1.116 6.6 6.6 0 0 1-2.38-2.97 6.8 6.8 0 0 1-.37-3.827 6.68 6.68 0 0 1 2.272-3.858H38.593a6.76 6.76 0 0 1-4.518-1.735 7.08 7.08 0 0 1-2.287-4.355 7.17 7.17 0 0 1 1.077-4.82 6.87 6.87 0 0 1 3.907-2.901 9.5 9.5 0 0 1-2.102-3.851H11.75a5.75 5.75 0 0 1-4.117-1.748 6.05 6.05 0 0 1-1.706-4.221 6.04 6.04 0 0 1 1.706-4.22 5.75 5.75 0 0 1 4.118-1.75h69.572c2.434 0 4.767.992 6.488 2.755a9.52 9.52 0 0 1 2.686 6.648 9.52 9.52 0 0 1-2.686 6.649 9.06 9.06 0 0 1-6.488 2.754"/></g><path d="M79.001 65.535c1.139 0 2.062-.946 2.062-2.112S80.14 61.31 79 61.31s-2.062.946-2.062 2.112.924 2.113 2.062 2.113" fill="#5A5BB5"/><path d="M18.184 9.543c1.708 0 3.092-1.42 3.092-3.17s-1.384-3.169-3.092-3.169-3.092 1.42-3.092 3.17 1.384 3.169 3.092 3.169" fill="#fff"/><path d="M18.184 9.015c1.423 0 2.577-1.183 2.577-2.641 0-1.46-1.154-2.642-2.577-2.642s-2.577 1.183-2.577 2.642 1.154 2.64 2.577 2.64Z" stroke="#5A5BB5" stroke-width="1.031"/><path d="M21.276 66.591c1.139 0 2.062-.946 2.062-2.113s-.923-2.113-2.062-2.113-2.061.946-2.061 2.113.923 2.113 2.061 2.113" fill="#fff"/><path d="M21.277 66.063c.854 0 1.546-.71 1.546-1.585s-.692-1.584-1.546-1.584-1.547.709-1.547 1.584.693 1.585 1.547 1.585Z" stroke="#5A5BB5" stroke-width="1.031"/><path d="M12.515 13.769c.854 0 1.546-.71 1.546-1.585S13.37 10.6 12.515 10.6s-1.546.71-1.546 1.584c0 .876.692 1.585 1.546 1.585m56.903 14.789L27.223 19.31a1.84 1.84 0 0 1-1.155-.82 1.92 1.92 0 0 1-.253-1.417l.743-3.56c.05-.242.146-.471.283-.675a1.9 1.9 0 0 1 .514-.512 1.8 1.8 0 0 1 1.384-.262l42.19 9.247c.477.105.894.4 1.16.819.265.42.356.93.255 1.419l-.743 3.559c-.102.489-.39.916-.799 1.188s-.907.367-1.384.262M43.712 9.052l-1.07 5.13 15.325 3.357 1.07-5.13z" fill="#5A5BB5"/><path d="M65.638 24.89a4.93 4.93 0 0 0-.653-3.636 4.72 4.72 0 0 0-2.97-2.099l5.376 1.18a4.72 4.72 0 0 1 2.97 2.098 4.93 4.93 0 0 1 .653 3.636l-.897 4.308v.008a1.24 1.24 0 0 1-.523.772 1.18 1.18 0 0 1-.902.166l-5.377-1.178h.009a1.17 1.17 0 0 0 .9-.175q.2-.134.334-.335.134-.202.183-.441z" fill="#5A5BB5"/><path opacity=".3" d="M65.638 24.89a4.93 4.93 0 0 0-.653-3.636 4.72 4.72 0 0 0-2.97-2.099l5.376 1.18a4.72 4.72 0 0 1 2.97 2.098 4.93 4.93 0 0 1 .653 3.636l-.897 4.308v.008a1.24 1.24 0 0 1-.523.772 1.18 1.18 0 0 1-.902.166l-5.377-1.178h.009a1.17 1.17 0 0 0 .9-.175q.2-.134.334-.335.134-.202.183-.441z" fill="#000"/><path d="m69.21 20.04-9.265-2.181.218-.973a5.48 5.48 0 0 0-.666-4.043 5.24 5.24 0 0 0-3.258-2.38l-9.437-2.224a5.13 5.13 0 0 0-3.944.684 5.37 5.37 0 0 0-2.323 3.339l-.219.973-9.264-2.183a5.16 5.16 0 0 0-3.972.687 5.4 5.4 0 0 0-2.337 3.363l-.899 4.015a1.3 1.3 0 0 0 .162.963c.176.287.456.49.778.566l33.357 7.858H25.863a1.22 1.22 0 0 0-.922.42 1.3 1.3 0 0 0-.32.98l3.638 39.138a5.06 5.06 0 0 0 1.58 3.254 4.83 4.83 0 0 0 3.311 1.305h28.71a4.83 4.83 0 0 0 3.31-1.305 5.06 5.06 0 0 0 1.581-3.254l3.505-37.685.515.12q.14.032.282.032c.281 0 .554-.1.774-.28s.374-.43.437-.712l.9-4.014a5.52 5.52 0 0 0-.673-4.069 5.28 5.28 0 0 0-3.277-2.397zm-4.948 48.758a2.5 2.5 0 0 1-.779 1.602 2.38 2.38 0 0 1-1.63.642H33.15a2.38 2.38 0 0 1-1.629-.642 2.5 2.5 0 0 1-.779-1.6l-3.505-37.736h40.536zM42.966 12.834a2.8 2.8 0 0 1 1.215-1.742 2.7 2.7 0 0 1 2.06-.36l9.44 2.218a2.75 2.75 0 0 1 1.703 1.246 2.86 2.86 0 0 1 .344 2.116l-.217.974-14.762-3.48zm27.76 13.1-.619 2.764L26.56 18.44l.619-2.764a2.84 2.84 0 0 1 1.228-1.768c.621-.4 1.372-.53 2.088-.362l27.677 6.52 10.484 2.47c.714.17 1.333.623 1.72 1.26.39.637.514 1.406.35 2.138M55.564 67.017l1.524-32.051a1.3 1.3 0 0 1 .408-.885 1.24 1.24 0 0 1 .899-.33 1.22 1.22 0 0 1 .863.417 1.3 1.3 0 0 1 .323.921L58.052 67.14a1.3 1.3 0 0 1-.385.864 1.23 1.23 0 0 1-.86.354h-.062a1.24 1.24 0 0 1-.863-.418 1.3 1.3 0 0 1-.322-.921m-18.604.123L35.43 35.091a1.3 1.3 0 0 1 .318-.93 1.25 1.25 0 0 1 .868-.424 1.22 1.22 0 0 1 .904.335 1.28 1.28 0 0 1 .404.894l1.523 32.05c.017.34-.1.671-.322.922a1.24 1.24 0 0 1-.863.42H38.2a1.24 1.24 0 0 1-.86-.355 1.3 1.3 0 0 1-.385-.864m9.3-.062V35.028c0-.339.131-.664.365-.904s.551-.375.882-.375.649.135.883.375.365.565.365.904v32.05c0 .34-.131.665-.365.905s-.552.375-.883.375-.648-.135-.882-.375a1.3 1.3 0 0 1-.365-.904z" fill="#010211"/></svg>