<svg width="17" height="16" viewBox="0 0 17 16" fill="none" xmlns="http://www.w3.org/2000/svg">
<g clip-path="url(#clip0_5583_5420)">
<path d="M8.56348 1.6665C8.81821 1.66651 9.08966 1.68395 9.44336 1.72705L9.82715 1.77881L9.8291 1.77979C10.0836 1.81625 10.3417 2.02304 10.4697 2.34424L10.5166 2.48877L10.541 2.59326L10.6006 2.85107H10.959C11.3967 2.89413 11.7959 2.93639 12.1172 2.98291L12.4141 3.03174L12.4189 3.03271C12.9038 3.11807 13.3086 3.51423 13.4102 3.98779L13.4268 4.0835V4.08643L13.4385 4.17432V4.17529C13.441 4.1985 13.4439 4.23235 13.4482 4.28467L13.4648 4.44971C13.4681 4.54382 13.4785 4.63531 13.4824 4.67041V4.67139L13.4834 4.67627C13.5087 4.87728 13.4413 5.08302 13.3008 5.23975C13.2145 5.33036 13.1039 5.39905 12.9883 5.43311L12.874 5.46533L12.6289 5.53467L12.6309 5.78955L12.6504 8.00342V8.0083C12.669 8.74013 12.6566 9.04473 12.5938 9.96338C12.5282 10.8133 12.4528 11.329 12.3555 11.8511L12.251 12.3872L12.25 12.3892C12.1691 12.805 11.9396 13.2244 11.6045 13.5708C11.3157 13.8638 10.9776 14.0586 10.6348 14.146L10.4922 14.1763L10.1943 14.2212L10.1895 14.2222C9.77771 14.2898 9.48561 14.3389 8.46289 14.3394L8.46191 14.3335C7.47322 14.3335 7.22617 14.2833 6.87695 14.2222H6.87598L6.54883 14.1704L6.54492 14.1694L6.39746 14.1411C6.10149 14.0689 5.80674 13.9125 5.54199 13.6831L5.41211 13.562C5.07534 13.2259 4.84924 12.8071 4.76172 12.3853H4.76074C4.64725 11.8095 4.55328 11.3524 4.47656 10.6919L4.40625 9.94971C4.34948 9.20565 4.32433 8.8175 4.32617 8.35693L4.33691 7.85693V7.84912L4.35645 5.77686L4.3584 5.52197L4.11328 5.45264L3.99902 5.42041H3.99805C3.91084 5.39461 3.82622 5.34922 3.75293 5.28955L3.68262 5.22412C3.54762 5.07157 3.48302 4.86568 3.50488 4.65674L3.50391 4.65576L3.52441 4.40674V4.40381C3.53049 4.30522 3.536 4.2222 3.54102 4.17236L3.55371 4.08252V4.08057C3.62308 3.56273 4.05059 3.11769 4.55957 3.02588L4.56055 3.02686C4.9636 2.9587 5.54358 2.88872 6.18945 2.84424H6.55469L6.6123 2.58252L6.63574 2.47705C6.73599 2.08032 7.03145 1.81465 7.32324 1.77295L7.32227 1.77197C7.87299 1.69578 8.22392 1.6665 8.56348 1.6665ZM8.5 5.3501C7.37379 5.3501 6.2336 5.3693 5.1123 5.41455H4.65039L4.64746 5.74463L4.62793 7.84033C4.60845 8.38888 4.61159 8.7146 4.64648 9.27197L4.69238 9.92334V9.92529C4.76007 10.7495 4.83599 11.257 4.93164 11.7661L5.03418 12.2876V12.2896C5.10728 12.6402 5.27295 12.9638 5.50293 13.2319L5.60547 13.3433L5.6084 13.3472C5.8758 13.6111 6.21647 13.8185 6.56738 13.8706V13.8696L6.89453 13.9214C7.18475 13.9721 7.39062 14.0029 7.86816 14.0181L8.45312 14.0288H8.45605C9.4593 14.0288 9.74372 13.9753 10.1572 13.9087L10.1562 13.9077L10.4414 13.8638L10.4453 13.8628C10.7475 13.8117 11.0509 13.6573 11.3027 13.436L11.4072 13.3374C11.6525 13.0886 11.84 12.7785 11.9355 12.4653L11.9707 12.3315L11.9727 12.3237C12.0877 11.7352 12.1712 11.3013 12.2412 10.6548L12.3076 9.92334V9.92139C12.3554 9.23735 12.3754 8.90394 12.374 8.47803L12.3652 8.00439L12.3467 5.75146L12.3438 5.42139H11.8828C10.7624 5.36971 9.62407 5.35017 8.5 5.3501ZM8.56348 1.97217C8.2239 1.97217 7.90096 1.99922 7.4043 2.06885H7.2168L7.11621 2.18701L7.07812 2.23193C6.97033 2.35554 6.90588 2.51068 6.89355 2.67529L6.86816 2.96436L6.86719 2.96729C6.86248 3.02557 6.82747 3.07227 6.78125 3.09326L6.73145 3.10498C6.01125 3.14396 5.39953 3.20492 4.97168 3.26123L4.60742 3.31494L4.60156 3.31592C4.40363 3.35302 4.22822 3.45963 4.09863 3.59229C4.00154 3.69169 3.91888 3.81776 3.87207 3.96045L3.83789 4.10791L3.82617 4.1958L3.82227 4.21924V4.2417C3.82225 4.24184 3.82223 4.24697 3.82129 4.25928C3.82027 4.27248 3.81934 4.28879 3.81738 4.30908C3.81368 4.34744 3.80825 4.40013 3.80469 4.45068L3.80371 4.4624V4.47412C3.8037 4.49581 3.80245 4.51879 3.80078 4.53857L3.79688 4.56982L3.79395 4.58447L3.79297 4.6001L3.77344 4.77979L3.73438 5.14795H4.30176C5.6375 5.07369 6.99785 5.04064 8.35449 5.03857L8.36035 5.04541H8.5C9.89648 5.04541 11.305 5.07748 12.6875 5.14795H13.2539L13.2139 4.77881L13.1943 4.60498H13.1934C13.1913 4.56084 13.1868 4.50597 13.1826 4.4624C13.1816 4.35821 13.1672 4.25465 13.1611 4.21143H13.1621L13.1494 4.11475L13.1152 3.96631C13.0684 3.82394 12.9855 3.69838 12.8887 3.59912C12.7915 3.4996 12.6682 3.41466 12.5293 3.36279L12.3848 3.32275L12.3789 3.32178L11.9766 3.26221C11.6823 3.22373 11.3397 3.18765 10.9775 3.15771L10.4229 3.11768H10.4209C10.372 3.11499 10.3227 3.08111 10.2988 3.03271L10.2842 2.97998V2.97803L10.2588 2.68213H10.2578C10.2516 2.54838 10.2048 2.42278 10.1338 2.31982L10.0498 2.21924L10.0117 2.18018L9.91406 2.08154H9.75195C9.24423 2.00567 8.90651 1.97217 8.56348 1.97217Z" stroke="#5A5BB5" stroke-width="0.666667"/>
<path d="M7.01611 7.99854C7.08739 7.99854 7.15858 8.0637 7.15869 8.14795V11.5454C7.15869 11.6333 7.09033 11.6948 7.01611 11.6948C6.94132 11.6948 6.87354 11.6327 6.87354 11.5454V8.14795C6.87364 8.0602 6.94197 7.99856 7.01611 7.99854Z" fill="#5A5BB5" stroke="#5A5BB5" stroke-width="0.666667"/>
<path d="M9.97758 12.0285C9.71123 12.0285 9.50195 11.8097 9.50195 11.5458V8.14815C9.50195 7.87788 9.71757 7.66553 9.97758 7.66553C10.2376 7.66553 10.4532 7.88432 10.4532 8.14815V11.5458C10.4532 11.8161 10.2376 12.0285 9.97758 12.0285Z" fill="#5A5BB5"/>
</g>
<defs>
<clipPath id="clip0_5583_5420">
<rect width="16" height="16" fill="white" transform="translate(0.5)"/>
</clipPath>
</defs>
</svg>
