<svg width="26" height="32" viewBox="0 0 26 32" fill="none" xmlns="http://www.w3.org/2000/svg">
<path d="M25.663 7.02913C25.6199 6.64035 25.5767 6.32846 25.5255 5.93906C25.3699 4.76211 24.3648 3.73643 23.1703 3.53079C22.0322 3.33703 20.1483 3.12514 17.9538 2.99576C17.9325 2.73199 17.9113 2.46822 17.8875 2.20383C17.7975 1.2169 17.1331 0.401223 16.3249 0.28309C13.666 -0.0919324 12.4497 -0.0919324 9.79078 0.268715C8.98198 0.383722 8.32007 1.19752 8.23194 2.18758C8.20944 2.44885 8.18881 2.71011 8.16943 2.97075C5.78241 3.10076 3.71729 3.32515 2.50159 3.53329C1.30589 3.73705 0.300203 4.76211 0.147069 5.93781C0.0964404 6.32721 0.0533129 6.6391 0.0101853 7.02788C-0.0960712 7.96543 0.642099 8.70798 1.61466 8.66298C9.0972 8.29796 16.5793 8.29796 24.061 8.66298C25.0311 8.70923 25.7693 7.96481 25.663 7.02913Z" fill="#DB3D26"/>
<path d="M23.4858 15.9694C23.4714 14.398 23.4352 12.9967 23.4146 12.7785C23.3208 11.7729 22.477 10.9447 21.4388 10.8216C19.7125 10.6184 16.0047 10.5397 12.3133 10.5459H12.2508C12.0745 10.5459 11.9061 10.5459 11.7457 10.5459C8.32364 10.559 5.00843 10.6303 3.40459 10.819C2.3639 10.9441 1.52197 11.7697 1.42884 12.776C1.41009 12.9792 1.37759 14.1036 1.36071 15.6337C1.29821 17.4007 1.33758 18.3014 1.52197 20.6659C1.74448 23.4042 2.022 24.7324 2.38765 26.5244C2.63766 27.7432 3.30833 28.9283 4.25214 29.8583C5.19595 30.7884 6.35414 31.4153 7.54984 31.5997L7.58672 31.6053C9.04431 31.8166 9.28057 31.9803 12.3289 32.0003C15.3766 31.9847 15.8722 31.8128 17.3292 31.6003L17.3654 31.5947C18.5611 31.4072 19.7243 30.7821 20.6575 29.8515C21.5907 28.9208 22.2632 27.737 22.5076 26.5188C22.8658 24.7274 23.1327 23.4011 23.3421 20.664C23.5033 18.4483 23.5364 17.7051 23.4858 15.9694ZM10.3369 24.5361C10.3146 24.8635 10.1753 25.1719 9.94438 25.4049C9.71348 25.638 9.40642 25.7802 9.07931 25.8056C8.67491 25.8337 8.68866 25.8331 8.56053 25.8306C8.38662 25.8248 8.21319 25.8089 8.04112 25.7831C7.70967 25.741 7.402 25.5887 7.16757 25.3506C6.93314 25.1125 6.78555 24.8026 6.74854 24.4705C6.70229 24.0611 6.63228 21.0953 6.62853 20.3284C6.62478 19.5615 6.62853 16.5963 6.67103 16.1875C6.7021 15.8565 6.84827 15.5468 7.08412 15.3125C7.31996 15.0781 7.63052 14.9339 7.96174 14.9049C8.13721 14.8832 8.31373 14.8708 8.49052 14.868C8.66729 14.8694 8.84384 14.8809 9.0193 14.9024C9.35123 14.9308 9.6625 15.0754 9.89835 15.3107C10.1342 15.546 10.2795 15.8569 10.3088 16.1888C10.3444 16.6007 10.375 19.5908 10.3788 20.364C10.3825 21.1372 10.3694 24.1267 10.3369 24.5361ZM18.058 24.468C18.0209 24.8 17.8732 25.1099 17.6388 25.348C17.4044 25.586 17.0968 25.7384 16.7654 25.7806C16.5933 25.8066 16.4199 25.8224 16.246 25.8281C16.0727 25.83 15.8995 25.8217 15.7272 25.8031C15.4001 25.7777 15.093 25.6355 14.8621 25.4024C14.6312 25.1694 14.4919 24.861 14.4696 24.5336C14.4371 24.1224 14.4265 21.1322 14.4278 20.359C14.429 19.5858 14.4621 16.5957 14.4978 16.1838C14.527 15.8519 14.6723 15.541 14.9082 15.3057C15.144 15.0704 15.4553 14.9258 15.7872 14.8974C15.9627 14.8764 16.1392 14.8649 16.316 14.863C16.4928 14.8653 16.6694 14.8776 16.8448 14.8999C17.176 14.9289 17.4866 15.0731 17.7224 15.3075C17.9582 15.5418 18.1044 15.8515 18.1355 16.1825C18.1749 16.5913 18.1886 19.5577 18.178 20.3234C18.1674 21.0891 18.1042 24.0586 18.058 24.468Z" fill="#DB3D26"/>
</svg>
