<svg width="12" height="12" viewBox="0 0 12 12" fill="none" xmlns="http://www.w3.org/2000/svg">
<path d="M11.559 5.34068L10.6724 4.45402C10.5207 4.30235 10.3982 4.00485 10.3982 3.79485V2.53485C10.3982 2.02152 9.97818 1.60152 9.46485 1.60152H8.21068C8.00068 1.60152 7.70318 1.47902 7.55152 1.32735L6.66485 0.440684C6.30318 0.0790169 5.70818 0.0790169 5.34652 0.440684L4.44818 1.32735C4.30235 1.47902 4.00485 1.60152 3.78902 1.60152H2.53485C2.02152 1.60152 1.60152 2.02152 1.60152 2.53485V3.78902C1.60152 3.99902 1.47902 4.29652 1.32735 4.44818L0.440684 5.33485C0.0790169 5.69652 0.0790169 6.29152 0.440684 6.65318L1.32735 7.53985C1.47902 7.69152 1.60152 7.98902 1.60152 8.19902V9.45318C1.60152 9.96652 2.02152 10.3865 2.53485 10.3865H3.78902C3.99902 10.3865 4.29652 10.509 4.44818 10.6607L5.33485 11.5474C5.69652 11.909 6.29152 11.909 6.65318 11.5474L7.53985 10.6607C7.69152 10.509 7.98902 10.3865 8.19902 10.3865H9.45318C9.96652 10.3865 10.3865 9.96652 10.3865 9.45318V8.19902C10.3865 7.98902 10.509 7.69152 10.6607 7.53985L11.5474 6.65318C11.9265 6.29735 11.9265 5.70235 11.559 5.34068ZM3.66652 4.24985C3.66652 3.92902 3.92902 3.66652 4.24985 3.66652C4.57068 3.66652 4.83318 3.92902 4.83318 4.24985C4.83318 4.57068 4.57652 4.83318 4.24985 4.83318C3.92902 4.83318 3.66652 4.57068 3.66652 4.24985ZM4.55902 8.05902C4.47152 8.14652 4.36068 8.18735 4.24985 8.18735C4.13902 8.18735 4.02818 8.14652 3.94068 8.05902C3.77152 7.88985 3.77152 7.60985 3.94068 7.44068L7.44068 3.94068C7.60985 3.77152 7.88985 3.77152 8.05902 3.94068C8.22818 4.10985 8.22818 4.38985 8.05902 4.55902L4.55902 8.05902ZM7.74985 8.33318C7.42318 8.33318 7.16068 8.07068 7.16068 7.74985C7.16068 7.42902 7.42318 7.16652 7.74402 7.16652C8.06485 7.16652 8.32735 7.42902 8.32735 7.74985C8.32735 8.07068 8.07068 8.33318 7.74985 8.33318Z" fill="#DB3D26"/>
</svg>
