<svg width="41" height="40" viewBox="0 0 41 40" fill="none" xmlns="http://www.w3.org/2000/svg">
<path d="M15.5001 29.5834C14.8167 29.5834 14.2501 29.0167 14.2501 28.3334V21.35L13.0501 22.55C12.5667 23.0334 11.7667 23.0334 11.2834 22.55C10.8001 22.0667 10.8001 21.2667 11.2834 20.7834L14.6167 17.45C14.9667 17.1 15.5167 16.9834 15.9834 17.1834C16.4501 17.3667 16.7501 17.8334 16.7501 18.3334V28.3334C16.7501 29.0167 16.1834 29.5834 15.5001 29.5834Z" fill="#010211"/>
<path d="M18.8336 22.9167C18.5169 22.9167 18.2002 22.8 17.9502 22.55L14.6169 19.2167C14.1336 18.7334 14.1336 17.9334 14.6169 17.45C15.1002 16.9667 15.9002 16.9667 16.3836 17.45L19.7169 20.7834C20.2002 21.2667 20.2002 22.0667 19.7169 22.55C19.4669 22.8 19.1502 22.9167 18.8336 22.9167Z" fill="#010211"/>
<path d="M25.5002 37.9167H15.5002C6.45016 37.9167 2.5835 34.05 2.5835 25V15C2.5835 5.95004 6.45016 2.08337 15.5002 2.08337H23.8335C24.5168 2.08337 25.0835 2.65004 25.0835 3.33337C25.0835 4.01671 24.5168 4.58337 23.8335 4.58337H15.5002C7.81683 4.58337 5.0835 7.31671 5.0835 15V25C5.0835 32.6834 7.81683 35.4167 15.5002 35.4167H25.5002C33.1835 35.4167 35.9168 32.6834 35.9168 25V16.6667C35.9168 15.9834 36.4835 15.4167 37.1668 15.4167C37.8502 15.4167 38.4168 15.9834 38.4168 16.6667V25C38.4168 34.05 34.5502 37.9167 25.5002 37.9167Z" fill="#010211"/>
<path d="M37.1668 17.9167H30.5002C24.8002 17.9167 22.5835 15.7 22.5835 10V3.33336C22.5835 2.83336 22.8835 2.36669 23.3502 2.18336C23.8168 1.98336 24.3502 2.10002 24.7168 2.45002L38.0502 15.7834C38.4002 16.1334 38.5168 16.6834 38.3168 17.15C38.1168 17.6167 37.6668 17.9167 37.1668 17.9167ZM25.0835 6.35002V10C25.0835 14.3 26.2002 15.4167 30.5002 15.4167H34.1502L25.0835 6.35002Z" fill="#010211"/>
</svg>
