<svg width="24" height="24" viewBox="0 0 24 24" fill="none" xmlns="http://www.w3.org/2000/svg">
<g clip-path="url(#clip0_6881_10352)">
<path d="M11.8059 23.9892C11.0362 23.9892 10.2766 23.9093 9.51693 23.7593C6.10846 23.0996 3.14979 20.9906 1.41057 17.9919C-0.348643 14.9933 -0.698486 11.3949 0.431007 8.10636C2.09026 3.25854 6.65821 0 11.7959 0C13.6651 0 15.4743 0.429807 17.1635 1.28942C21.3616 3.39847 23.9604 7.77651 23.7705 12.4644C23.5006 18.9315 18.253 23.9992 11.7959 23.9992L11.8059 23.9892ZM11.7859 1.63926C9.1271 1.63926 6.58824 2.63881 4.6691 4.46799C0.730873 8.18632 0.341048 14.3835 3.7795 18.5717C5.74862 20.9806 8.6773 22.36 11.8059 22.36C13.9549 22.36 16.024 21.6903 17.7932 20.4508C20.2821 18.6916 21.8914 15.8329 22.1213 12.8242C22.3712 9.64567 21.1717 6.56705 18.8427 4.40802C16.9136 2.61882 14.4147 1.63926 11.7959 1.63926H11.7859Z" fill="#010211"/>
<path d="M17.4878 5.42744C17.3278 5.29749 17.1179 5.21753 16.918 5.21753C16.8081 5.21753 16.7081 5.24752 16.6082 5.2875L9.02156 8.85589C8.83165 8.94585 8.68171 9.08579 8.61175 9.22573L5.09333 16.7723C4.9234 17.1122 4.98338 17.462 5.24326 17.7219C5.39319 17.8818 5.5931 17.9618 5.813 17.9618H5.823C5.94294 17.9618 6.06289 17.9318 6.19283 17.8818L13.6195 14.4134C13.8794 14.2835 14.0393 14.1235 14.1593 13.8736L17.6877 6.35702C17.8476 6.00717 17.7077 5.62735 17.4878 5.42744ZM7.51224 15.4429L9.59131 10.9949L11.9602 13.3739L7.51224 15.4429ZM13.1097 12.2244L10.7408 9.85545L15.2288 7.74639L13.1097 12.2244Z" fill="#010211"/>
</g>
<defs>
<clipPath id="clip0_6881_10352">
<rect width="24" height="24" fill="white"/>
</clipPath>
</defs>
</svg>
