<svg width="24" height="24" viewBox="0 0 24 24" fill="none" xmlns="http://www.w3.org/2000/svg">
<g clip-path="url(#clip0_6881_19023)">
<path d="M17.3814 1.28642C15.6825 0.432078 13.8756 0 12.0098 0C6.87399 0 2.30771 3.26023 0.648131 8.11129C-0.481165 11.401 -0.127646 15.0049 1.61049 18.0098C3.35844 21.0147 6.31425 23.126 9.72178 23.784C10.4779 23.9313 11.2537 24 12.0197 24C18.4616 24 23.7251 18.9329 23.9902 12.4615C24.1768 7.77741 21.5843 3.38789 17.3814 1.28642ZM18.3044 6.7365L14.7692 14.2586C14.6514 14.5139 14.4943 14.671 14.2291 14.7889L6.80525 18.2553C6.67759 18.3142 6.55975 18.3437 6.43209 18.3437C6.21605 18.3437 6.01965 18.2553 5.86253 18.0982C5.60721 17.8429 5.55811 17.4894 5.71523 17.1457L9.2406 9.61375C9.30934 9.46645 9.45664 9.31915 9.64322 9.23077L17.2341 5.66612C17.3323 5.61702 17.4305 5.59738 17.5385 5.59738C17.7447 5.59738 17.9509 5.67594 18.0982 5.81342C18.3241 6.00982 18.4714 6.3928 18.3044 6.7365Z" fill="#5A5BB5"/>
<path d="M12.5797 13.7577L8.14111 15.8297L10.2131 11.3911L12.5797 13.7577Z" fill="#5A5BB5"/>
<path d="M15.85 8.12109L13.7387 12.6088L11.3623 10.2324L15.85 8.12109Z" fill="#5A5BB5"/>
</g>
<defs>
<clipPath id="clip0_6881_19023">
<rect width="24" height="24" fill="white"/>
</clipPath>
</defs>
</svg>
