<svg width="20" height="20" viewBox="0 0 20 20" fill="none" xmlns="http://www.w3.org/2000/svg">
<path d="M7.01673 9.99993C7.01673 11.6499 8.35007 12.9833 10.0001 12.9833C11.6501 12.9833 12.9834 11.6499 12.9834 9.99993C12.9834 8.34993 11.6501 7.0166 10.0001 7.0166C8.35007 7.0166 7.01673 8.34993 7.01673 9.99993Z" stroke="#010211" stroke-width="1.25" stroke-linecap="round" stroke-linejoin="round"/>
<path d="M10.0001 16.8923C7.05846 16.8923 4.3168 15.1589 2.40846 12.1589C1.65846 10.9839 1.65846 9.00892 2.40846 7.83392C4.3168 4.83392 7.05846 3.10059 10.0001 3.10059C12.9418 3.10059 15.6835 4.83392 17.5918 7.83392C18.3418 9.00892 18.3418 10.9839 17.5918 12.1589C15.6835 15.1589 12.9418 16.8923 10.0001 16.8923Z" stroke="#010211" stroke-width="1.25" stroke-linecap="round" stroke-linejoin="round"/>
</svg>
