<svg width="201" height="201" viewBox="0 0 201 201" fill="none" xmlns="http://www.w3.org/2000/svg">
<g clip-path="url(#clip0_4132_19301)">
<path d="M182.733 100.5C182.733 123.205 173.513 143.783 158.648 158.648C143.783 173.513 123.205 182.733 100.5 182.733C77.7956 182.733 57.2199 173.513 42.355 158.648C27.4901 143.783 18.2705 123.205 18.2705 100.5C18.2705 77.7956 27.4901 57.2199 42.355 42.355C57.2199 27.4901 77.7981 18.2705 100.5 18.2705C123.202 18.2705 143.783 27.4901 158.648 42.355C173.513 57.2199 182.733 77.7981 182.733 100.5Z" fill="#FF270E"/>
<g style="mix-blend-mode:multiply" opacity="0.3">
<path d="M101.494 114.005L86.9947 99.5063L61.5204 124.981L36.046 99.5063L21.5469 114.005L47.0187 139.48L21.5469 164.954L36.046 179.453L61.5204 153.979L86.9947 179.453L101.494 164.954L76.0195 139.48L101.494 114.005Z" fill="white"/>
<path d="M102.75 112.749L88.2511 98.25L62.7767 123.722L37.3023 98.25L22.8032 112.749L48.2776 138.223L22.8032 163.698L37.3023 178.197L62.7767 152.723L88.2511 178.197L102.75 163.698L77.2758 138.223L102.75 112.749Z" fill="#FBF7F7"/>
<path d="M104.009 111.49L89.5099 96.9912L64.0355 122.466L38.5611 96.9912L24.062 111.49L49.5338 136.965L24.062 162.439L38.5611 176.938L64.0355 151.464L89.5099 176.938L104.009 162.439L78.5346 136.965L104.009 111.49Z" fill="#F7EFEF"/>
<path d="M105.265 110.234L90.7657 95.7354L65.2914 121.207L39.817 95.7354L25.3179 110.234L50.7922 135.709L25.3179 161.183L39.817 175.682L65.2914 150.208L90.7657 175.682L105.265 161.183L79.7905 135.709L105.265 110.234Z" fill="#F3E7E6"/>
<path d="M106.524 108.976L92.0245 94.4766L66.5501 119.951L41.0758 94.4766L26.5767 108.976L52.0485 134.45L26.5767 159.924L41.0758 174.424L66.5501 148.949L92.0245 174.424L106.524 159.924L81.0493 134.45L106.524 108.976Z" fill="#EFE0DE"/>
<path d="M107.78 107.719L93.2808 93.2202L67.8065 118.692L42.3321 93.2202L27.833 107.719L53.3074 133.194L27.833 158.668L42.3321 173.167L67.8065 147.693L93.2808 173.167L107.78 158.668L82.3056 133.194L107.78 107.719Z" fill="#EBD8D6"/>
<path d="M109.039 106.461L94.5396 91.9614L69.0653 117.436L43.5909 91.9614L29.0918 106.461L54.5636 131.935L29.0918 157.409L43.5909 171.908L69.0653 146.434L94.5396 171.908L109.039 157.409L83.5644 131.935L109.039 106.461Z" fill="#E6D0CE"/>
<path d="M110.295 105.205L95.7955 90.7056L70.3211 116.177L44.8468 90.7056L30.3477 105.205L55.822 130.679L30.3477 156.153L44.8468 170.653L70.3211 145.178L95.7955 170.653L110.295 156.153L84.8203 130.679L110.295 105.205Z" fill="#E2C8C5"/>
<path d="M111.553 103.946L97.0543 89.4468L71.5799 114.921L46.1056 89.4468L31.6064 103.946L57.0783 129.42L31.6064 154.895L46.1056 169.394L71.5799 143.919L97.0543 169.394L111.553 154.895L86.079 129.42L111.553 103.946Z" fill="#DEC0BD"/>
<path d="M112.81 102.69L98.3106 88.1904L72.8363 113.662L47.3619 88.1904L32.8628 102.69L58.3372 128.164L32.8628 153.638L47.3619 168.137L72.8363 142.663L98.3106 168.137L112.81 153.638L87.3354 128.164L112.81 102.69Z" fill="#DAB8B5"/>
<path d="M114.069 101.431L99.5694 86.9316L74.0951 112.406L48.6207 86.9316L34.1216 101.431L59.5934 126.905L34.1216 152.379L48.6207 166.879L74.0951 141.404L99.5694 166.879L114.069 152.379L88.5942 126.905L114.069 101.431Z" fill="#D6B1AD"/>
<path d="M115.324 100.175L100.825 85.6758L75.3509 111.148L49.8766 85.6758L35.3774 100.175L60.8518 125.649L35.3774 151.124L49.8766 165.623L75.3509 140.148L100.825 165.623L115.324 151.124L89.85 125.649L115.324 100.175Z" fill="#D2A9A5"/>
<path d="M116.583 98.9161L102.084 84.417L76.6097 109.891L51.1353 84.417L36.6362 98.9161L62.1081 124.39L36.6362 149.865L51.1353 164.364L76.6097 138.89L102.084 164.364L116.583 149.865L91.1088 124.39L116.583 98.9161Z" fill="#CEA19C"/>
<path d="M117.84 97.6598L103.34 83.1606L77.8661 108.632L52.3917 83.1606L37.8926 97.6598L63.3669 123.134L37.8926 148.608L52.3917 163.108L77.8661 137.633L103.34 163.108L117.84 148.608L92.3652 123.134L117.84 97.6598Z" fill="#CA9994"/>
<path d="M119.098 96.401L104.599 81.9019L79.1244 107.376L53.6501 81.9019L39.1484 96.401L64.6228 121.875L39.1484 147.35L53.6501 161.849L79.1244 136.374L104.599 161.849L119.098 147.35L93.6236 121.875L119.098 96.401Z" fill="#C6918C"/>
<path d="M120.354 95.1451L105.855 80.646L80.3807 106.118L54.9063 80.646L40.4072 95.1451L65.8816 120.619L40.4072 146.094L54.9063 160.593L80.3807 135.119L105.855 160.593L120.354 146.094L94.8798 120.619L120.354 95.1451Z" fill="#C28984"/>
<path d="M121.613 93.8863L107.114 79.3872L81.6396 104.862L56.1652 79.3872L41.6636 93.8863L67.1379 119.361L41.6636 144.835L56.1652 159.334L81.6396 133.86L107.114 159.334L121.613 144.835L96.1387 119.361L121.613 93.8863Z" fill="#BD827B"/>
<path d="M122.869 92.63L108.37 78.1309L82.8958 103.603L57.4215 78.1309L42.9224 92.63L68.3967 118.104L42.9224 143.579L57.4215 158.078L82.8958 132.603L108.37 158.078L122.869 143.579L97.395 118.104L122.869 92.63Z" fill="#B97A73"/>
<path d="M124.128 91.3712L109.629 76.8721L84.1547 102.346L58.6804 76.8721L44.1787 91.3712L69.6531 116.846L44.1787 142.32L58.6804 156.819L84.1547 131.345L109.629 156.819L124.128 142.32L98.6538 116.846L124.128 91.3712Z" fill="#B5726B"/>
<path d="M125.384 90.1153L110.885 75.6162L85.4105 101.088L59.9361 75.6162L45.437 90.1153L70.9114 115.59L45.437 141.064L59.9361 155.563L85.4105 130.089L110.885 155.563L125.384 141.064L99.9096 115.59L125.384 90.1153Z" fill="#B16A63"/>
<path d="M126.643 88.8565L112.144 74.3574L86.6694 99.8318L61.195 74.3574L46.6934 88.8565L72.1677 114.331L46.6934 139.805L61.195 154.304L86.6694 128.833L112.144 154.304L126.643 139.805L101.168 114.331L126.643 88.8565Z" fill="#AD625A"/>
<path d="M127.899 87.6002L113.4 73.1011L87.9256 98.5729L62.4513 73.1011L47.9521 87.6002L73.4265 113.075L47.9521 138.549L62.4513 153.048L87.9256 127.574L113.4 153.048L127.899 138.549L102.425 113.075L127.899 87.6002Z" fill="#A95A52"/>
<path d="M129.158 86.3414L114.656 71.8423L89.1845 97.3166L63.7101 71.8423L49.2085 86.3414L74.6829 111.816L49.2085 137.29L63.7101 151.789L89.1845 126.317L114.656 151.789L129.158 137.29L103.684 111.816L129.158 86.3414Z" fill="#A5534A"/>
<path d="M130.414 85.0855L115.915 70.5864L90.4403 96.0583L64.9659 70.5864L50.4668 85.0855L75.9412 110.56L50.4668 136.034L64.9659 150.533L90.4403 125.059L115.915 150.533L130.414 136.034L104.939 110.56L130.414 85.0855Z" fill="#A14B42"/>
<path d="M131.673 83.8268L117.171 69.3276L91.6991 94.802L66.2248 69.3276L51.7231 83.8268L77.1975 109.301L51.7231 134.775L66.2248 149.275L91.6991 123.803L117.171 149.275L131.673 134.775L106.198 109.301L131.673 83.8268Z" fill="#9D433A"/>
<path d="M132.929 82.5704L118.43 68.0713L92.9554 93.5431L67.4811 68.0713L52.9819 82.5704L78.4563 108.045L52.9819 133.519L67.4811 148.018L92.9554 122.544L118.43 148.018L132.929 133.519L107.455 108.045L132.929 82.5704Z" fill="#993B31"/>
<path d="M134.188 81.3116L119.686 66.8125L94.2143 92.2869L68.7399 66.8125L54.2383 81.3116L79.7126 106.786L54.2383 132.26L68.7399 146.759L94.2143 121.288L119.686 146.759L134.188 132.26L108.713 106.786L134.188 81.3116Z" fill="#943329"/>
<path d="M135.444 80.0558L120.944 65.5566L95.4701 91.031L69.9957 65.5566L55.4966 80.0558L80.9709 105.53L55.4966 131.004L69.9957 145.504L95.4701 120.029L120.944 145.504L135.444 131.004L109.969 105.53L135.444 80.0558Z" fill="#902B21"/>
<path d="M136.702 78.797L122.201 64.2979L96.7289 89.7722L71.2546 64.2979L56.7529 78.797L82.2273 104.271L56.7529 129.746L71.2546 144.245L96.7289 118.773L122.201 144.245L136.702 129.746L111.228 104.271L136.702 78.797Z" fill="#8C2419"/>
<path d="M137.959 77.5406L123.46 63.0415L97.9852 88.5159L72.5108 63.0415L58.0117 77.5406L83.4861 103.015L58.0117 128.489L72.5108 142.988L97.9852 117.514L123.46 142.988L137.959 128.489L112.484 103.015L137.959 77.5406Z" fill="#881C10"/>
<path d="M139.218 76.2818L124.716 61.7827L99.2441 87.2571L73.7697 61.7827L59.2681 76.2818L84.7424 101.756L59.2681 127.231L73.7697 141.73L99.2441 116.258L124.716 141.73L139.218 127.231L113.743 101.756L139.218 76.2818Z" fill="#841408"/>
<path d="M140.473 75.026L125.974 60.5269L100.5 86.0012L75.0255 60.5269L60.5264 75.026L86.0007 100.5L60.5264 125.975L75.0255 140.474L100.5 114.999L125.974 140.474L140.473 125.975L114.999 100.5L140.473 75.026Z" fill="#800C00"/>
</g>
<path d="M140.474 75.026L125.975 60.5269L100.5 86.0012L75.026 60.5269L60.5269 75.026L86.0012 100.5L60.5269 125.975L75.026 140.474L100.5 114.999L125.975 140.474L140.474 125.975L114.999 100.5L140.474 75.026Z" fill="white"/>
<path d="M100.5 201C73.6559 201 48.4187 190.547 29.4372 171.563C28.3474 170.473 27.283 169.361 26.2437 168.221C25.6434 167.565 25.6913 166.546 26.3471 165.948C27.0055 165.347 28.0221 165.395 28.6199 166.051C29.6263 167.154 30.6555 168.233 31.7099 169.288C50.0835 187.661 74.5136 197.781 100.497 197.781C117.426 197.781 134.109 193.357 148.742 184.987C149.517 184.546 150.498 184.816 150.939 185.585C151.381 186.357 151.113 187.341 150.341 187.782C135.222 196.429 117.988 201 100.5 201ZM174.701 167.481C174.322 167.481 173.944 167.348 173.636 167.08C172.97 166.493 172.905 165.476 173.493 164.808C189.155 147.037 197.779 124.199 197.779 100.5V100.21C197.779 99.3195 198.5 98.6006 199.388 98.6006C200.276 98.6006 200.997 99.3195 200.997 100.21V100.5C200.997 124.983 192.086 148.578 175.907 166.937C175.589 167.297 175.145 167.481 174.698 167.481H174.701ZM1.60933 102.18C0.721425 102.18 0 101.532 0 100.644C0 100.634 0 100.477 0 100.467C0 76.0699 8.87655 52.5152 24.9926 34.1743C25.5803 33.5059 26.5969 33.4403 27.2653 34.028C27.9338 34.6158 27.9993 35.6323 27.4116 36.3008C11.8102 54.0539 3.21866 76.8519 3.21866 100.5C3.21866 101.388 2.49724 102.182 1.60933 102.182V102.18ZM173.47 35.3649C173.033 35.3649 172.6 35.1884 172.282 34.8403C171.308 33.7758 170.309 32.7315 169.288 31.7099C150.914 13.3388 126.484 3.21866 100.5 3.21866H100.495C83.5213 3.21866 66.7974 7.66577 52.1343 16.0832C51.3624 16.5247 50.3786 16.2573 49.9372 15.4879C49.4958 14.7161 49.7606 13.7323 50.5325 13.2909C65.6824 4.59593 82.9588 0 100.495 0H100.5C127.344 0 152.581 10.4531 171.563 29.4371C172.617 30.4915 173.649 31.5686 174.655 32.6709C175.256 33.3268 175.21 34.3459 174.554 34.9437C174.247 35.2262 173.856 35.3649 173.47 35.3649Z" fill="#FF270E"/>
</g>
<defs>
<clipPath id="clip0_4132_19301">
<rect width="201" height="201" fill="white"/>
</clipPath>
</defs>
</svg>
