<svg width="27" height="26" viewBox="0 0 27 26" fill="none" xmlns="http://www.w3.org/2000/svg">
<path d="M20.2498 0H6.74992C2.69997 0 0 2.69997 0 6.74992V14.8498C0 18.8998 2.69997 21.5997 6.74992 21.5997V24.4752C6.74992 25.5552 7.9514 26.2032 8.84239 25.5957L14.8498 21.5997H20.2498C24.2997 21.5997 26.9997 18.8998 26.9997 14.8498V6.74992C26.9997 2.69997 24.2997 0 20.2498 0ZM13.4998 16.4293C12.9328 16.4293 12.4873 15.9703 12.4873 15.4168C12.4873 14.8633 12.9328 14.4043 13.4998 14.4043C14.0668 14.4043 14.5123 14.8633 14.5123 15.4168C14.5123 15.9703 14.0668 16.4293 13.4998 16.4293ZM15.2008 10.8269C14.6743 11.1779 14.5123 11.4074 14.5123 11.7854V12.0689C14.5123 12.6223 14.0533 13.0813 13.4998 13.0813C12.9463 13.0813 12.4873 12.6223 12.4873 12.0689V11.7854C12.4873 10.2194 13.6348 9.44988 14.0668 9.15289C14.5663 8.81539 14.7283 8.58589 14.7283 8.2349C14.7283 7.55991 14.1748 7.00641 13.4998 7.00641C12.8248 7.00641 12.2714 7.55991 12.2714 8.2349C12.2714 8.78839 11.8124 9.24739 11.2589 9.24739C10.7054 9.24739 10.2464 8.78839 10.2464 8.2349C10.2464 6.43942 11.7044 4.98144 13.4998 4.98144C15.2953 4.98144 16.7533 6.43942 16.7533 8.2349C16.7533 9.77388 15.6193 10.5434 15.2008 10.8269Z" fill="#5A5BB5"/>
</svg>
