<svg width="40" height="35" viewBox="0 0 40 35" fill="none" xmlns="http://www.w3.org/2000/svg">
<path d="M15.3188 35C12.2765 35 9.33444 34.1174 6.80194 32.4428L1.71185 33.7709C1.71185 33.7709 1.64498 33.7874 1.61155 33.7874C1.57812 33.7874 1.54469 33.7874 1.51125 33.7709C1.43603 33.7544 1.37752 33.7214 1.33573 33.6719C1.28559 33.6224 1.24379 33.5647 1.22708 33.4987C1.202 33.4327 1.202 33.3667 1.22708 33.3007L2.58109 28.3184C1.13514 26.1407 0.257538 23.6495 0.0485859 21.0676C-0.160367 18.494 0.307687 15.9038 1.39424 13.5612C2.48915 11.2185 4.17749 9.181 6.27537 7.65496C8.38162 6.12892 10.8723 5.1638 13.455 4.85034C13.5135 4.7761 13.5386 4.73486 13.572 4.71011C13.6639 4.60288 13.7475 4.52039 13.8478 4.42965C16.5391 1.77351 20.1248 0.206222 23.9277 0.0164977C24.1701 0.00824886 24.4208 0 24.6632 0C28.207 0 31.6673 1.22083 34.4004 3.43153C37.3425 5.81546 39.2732 9.181 39.8332 12.9095C40.3932 16.6297 39.5323 20.4077 37.4177 23.5341L38.755 28.5576C38.78 28.6236 38.78 28.6896 38.755 28.7473C38.7383 28.8133 38.7048 28.8793 38.6547 28.9288C38.5962 28.9866 38.5377 29.0196 38.4792 29.0278C38.4457 29.0278 38.4123 29.0361 38.3705 29.0361C38.3287 29.0361 38.2953 29.0361 38.2618 29.0278L33.2135 27.6915C31.2243 28.9783 28.9676 29.8115 26.6441 30.1167H26.619L26.5438 30.1414L26.4435 30.2486C26.3432 30.3559 26.2429 30.4631 26.1342 30.5621C23.6352 33.0368 20.3253 34.5876 16.7982 34.9258C16.2967 34.9753 15.7953 35 15.2938 35H15.3188ZM6.92731 31.618C6.98581 31.618 7.03596 31.6427 7.08611 31.684C9.50996 33.3337 12.3601 34.2081 15.3188 34.2081C15.7618 34.2081 16.2132 34.1916 16.6478 34.1504C20.0245 33.8452 23.2005 32.3769 25.5993 30.0094C25.7665 29.8444 25.9253 29.6795 26.0757 29.5062C27.9229 27.4853 29.1432 25.0189 29.6196 22.3792C30.096 19.7231 29.8118 17.0009 28.7838 14.5015C27.7641 12.0021 26.059 9.84091 23.8358 8.24888C21.6376 6.67334 19.0215 5.74122 16.2884 5.55975C15.9624 5.535 15.6365 5.52675 15.3105 5.52675C12.9201 5.52675 10.5464 6.12067 8.44012 7.24252C6.04135 8.51285 4.05212 10.4266 2.69811 12.7693C1.35245 15.1119 0.69216 17.7763 0.800815 20.4737C0.917829 23.1629 1.80379 25.7613 3.35004 27.9885C3.38347 28.0379 3.40019 28.0874 3.4169 28.1534C3.4169 28.2112 3.4169 28.2689 3.4169 28.3184L2.1799 32.8388L6.76014 31.618C6.76014 31.618 6.82701 31.6097 6.86044 31.6097H6.92731V31.618ZM15.3439 4.75136C18.0519 4.75136 20.7265 5.46901 23.0752 6.82182C25.5826 8.27363 27.622 10.3936 28.9593 12.959C30.2882 15.5079 30.8482 18.3785 30.5807 21.2574C30.3133 24.1115 29.2351 26.8254 27.4465 29.1185L27.3629 29.2258L27.4966 29.201C29.444 28.8216 31.2661 28.0627 32.9127 26.9491C32.9628 26.9078 33.013 26.8913 33.0631 26.8831C33.0965 26.8831 33.1216 26.8831 33.1467 26.8831C33.1968 26.8831 33.2136 26.8831 33.2386 26.8913L37.8189 28.1122L36.5902 23.5918C36.5819 23.5423 36.5735 23.4846 36.5902 23.4186C36.5902 23.3608 36.6153 23.3113 36.6571 23.2618C38.6965 20.3417 39.5574 16.7947 39.0977 13.2889C38.638 9.77492 36.8828 6.57436 34.1497 4.25642C31.5169 2.02098 28.1485 0.791893 24.6716 0.791893H24.3623C20.7683 0.874381 17.3499 2.26019 14.7421 4.68536L14.6418 4.7761H14.7756C14.9678 4.76785 15.1517 4.7596 15.3439 4.7596V4.75136Z" fill="black"/>
<path d="M28.1653 3.01175C28.1653 3.01175 28.0901 3.01175 28.0567 3.0035C26.9701 2.70654 25.8251 2.55806 24.68 2.55806C24.5797 2.55806 24.471 2.51681 24.3958 2.44257C24.3206 2.36833 24.2788 2.26935 24.2788 2.16211C24.2788 2.06312 24.3206 1.96414 24.3958 1.8899C24.471 1.81566 24.5797 1.77441 24.68 1.77441C25.9003 1.77441 27.1122 1.93114 28.2656 2.2446C28.3743 2.2776 28.4579 2.34359 28.508 2.43432C28.5582 2.52506 28.5749 2.6323 28.5414 2.72304C28.508 2.83027 28.4411 2.91276 28.3576 2.9705C28.2991 3.0035 28.2322 3.01999 28.157 3.01999L28.1653 3.01175Z" fill="black"/>
<path d="M35.3201 7.98467C35.2198 7.95993 35.1195 7.90218 35.061 7.81969C33.6819 5.9142 31.8013 4.42116 29.6032 3.51378C29.5112 3.48078 29.436 3.3983 29.3942 3.29931C29.3608 3.20032 29.3608 3.09309 29.3942 2.9941C29.436 2.89511 29.5112 2.82912 29.6115 2.78788C29.6617 2.76313 29.7118 2.75488 29.762 2.75488C29.8121 2.75488 29.8623 2.76313 29.9124 2.78788C31.5506 3.45604 33.0049 4.42941 34.2503 5.66674C34.7936 6.21116 35.2867 6.78034 35.6962 7.35776C35.7631 7.44025 35.7882 7.55573 35.7631 7.64647C35.7464 7.74545 35.6962 7.83619 35.6043 7.89394C35.5374 7.94343 35.4538 7.96817 35.3703 7.96817H35.3118L35.3201 7.98467Z" fill="black"/>
<path d="M23.2673 30.5452C23.2172 30.5452 23.1671 30.5205 23.1253 30.504C23.0751 30.471 23.0333 30.438 23.0082 30.405C22.9832 30.3638 22.9497 30.3225 22.9414 30.273C22.9247 30.207 22.9163 30.1575 22.9247 30.1163C22.9247 30.0586 22.9497 30.0091 22.9748 29.9678C22.9999 29.9266 23.0333 29.8853 23.0751 29.8606C23.5097 29.5224 23.936 29.1594 24.3372 28.7635C24.4124 28.6975 24.5127 28.6562 24.613 28.6562C24.7133 28.6562 24.8136 28.6975 24.8888 28.7717C24.964 28.846 25.0058 28.945 25.0058 29.0439C25.0058 29.1512 24.964 29.2502 24.8972 29.3244C24.4876 29.7286 24.0447 30.1163 23.5682 30.471C23.5348 30.504 23.4847 30.5287 23.4262 30.5452C23.4011 30.5452 23.376 30.5535 23.3426 30.5535H23.2757L23.2673 30.5452Z" fill="black"/>
<path d="M16.9905 33.1189C16.8902 33.1189 16.7983 33.0777 16.723 33.0199C16.6478 32.9622 16.606 32.8632 16.5977 32.756C16.5977 32.657 16.6227 32.558 16.6812 32.4837C16.7481 32.4013 16.8317 32.36 16.9403 32.3435C18.7624 32.1125 20.4675 31.5186 22.0054 30.5782C22.0639 30.537 22.1391 30.5205 22.2143 30.5205C22.2477 30.5205 22.2728 30.5205 22.2979 30.5288C22.3982 30.5535 22.4901 30.6112 22.5403 30.702C22.5988 30.7845 22.6155 30.8917 22.5904 30.9989C22.5737 31.0979 22.5068 31.1887 22.4149 31.2464C20.76 32.261 18.9463 32.8879 17.0323 33.1189H16.9738H16.9905Z" fill="black"/>
<path d="M8.83305 27.7411C8.65753 27.7411 8.47365 27.7081 8.28978 27.6339C8.09754 27.5596 7.93038 27.4524 7.77993 27.3039C7.62113 27.1472 7.49576 26.9409 7.40382 26.6935C7.33695 26.479 7.31188 26.2398 7.34531 25.9923C7.42053 25.4891 7.65456 25.0355 8.01396 24.6725L12.0426 20.6965V20.6058C11.5411 19.7067 11.2987 18.6838 11.3238 17.6362C11.3572 16.6051 11.6581 15.5987 12.193 14.7161C12.7363 13.8252 13.4969 13.0911 14.4079 12.5879C15.3189 12.0765 16.3553 11.8125 17.3918 11.8125C18.9882 11.8125 20.5511 12.4559 21.6878 13.5695C22.8245 14.6914 23.4597 16.2009 23.4681 17.8094C23.4681 18.8405 23.2006 19.8634 22.6908 20.7543C22.1809 21.6534 21.4371 22.4123 20.5344 22.9485C19.6401 23.4847 18.612 23.7734 17.5673 23.7981H17.4168C16.4139 23.7981 15.4276 23.5589 14.5584 23.097L14.5249 23.0805H14.4664L10.4462 27.0564C10.0283 27.4771 9.46827 27.7163 8.87484 27.7328H8.82469L8.83305 27.7411ZM8.59067 25.2334C8.35664 25.4562 8.19784 25.7614 8.13933 26.0913C8.12261 26.2068 8.13097 26.3305 8.15605 26.446C8.18948 26.5615 8.25634 26.6687 8.33157 26.7595C8.47365 26.8915 8.65753 26.9574 8.8832 26.9574C9.22588 26.9574 9.602 26.7925 9.88617 26.512L13.7727 22.6763C13.3046 22.2638 12.8867 21.8596 12.5524 21.3977L12.519 21.3482L8.59067 25.2252V25.2334ZM17.4085 12.6044C16.4974 12.6044 15.6031 12.8354 14.8091 13.2808C14.0234 13.718 13.3548 14.3614 12.8867 15.1286C12.4187 15.8874 12.1596 16.7618 12.1345 17.6692C12.1094 18.5683 12.3184 19.4592 12.7446 20.2511C12.7948 20.3418 12.8533 20.4408 12.9118 20.5316C13.3381 21.2245 13.9399 21.8184 14.6419 22.2391C14.7422 22.3051 14.8425 22.3628 14.9345 22.4123C15.6951 22.8083 16.5476 23.0145 17.4001 23.0145H17.5506C18.4699 22.9897 19.3559 22.734 20.1249 22.2721C20.9022 21.8101 21.5541 21.1585 21.9971 20.3748C22.4484 19.5912 22.6824 18.7086 22.6824 17.8177C22.6824 16.4484 22.1224 15.1038 21.1362 14.1387C20.1332 13.1488 18.8126 12.6044 17.4085 12.6044Z" fill="black"/>
<path d="M17.4085 21.85C16.8652 21.85 16.3387 21.751 15.8372 21.5448C15.0933 21.2395 14.4581 20.7199 13.9984 20.0517C13.5471 19.3753 13.3047 18.5917 13.3047 17.7998C13.3047 17.0079 13.5471 16.2325 13.9984 15.5561C14.4497 14.8879 15.085 14.3765 15.8372 14.063C16.3387 13.8568 16.8652 13.7578 17.4085 13.7578C17.676 13.7578 17.9434 13.7826 18.2025 13.8321C19.0049 13.9888 19.7321 14.3682 20.3004 14.9374C20.6933 15.3251 20.9941 15.7623 21.1947 16.2407C21.4037 16.7439 21.5123 17.2636 21.5123 17.7915C21.5123 18.3194 21.4037 18.8556 21.1947 19.3423C20.9941 19.829 20.6849 20.2827 20.3004 20.6539C19.7321 21.2148 18.9882 21.6107 18.2025 21.7592C17.9434 21.8087 17.676 21.8335 17.4085 21.8335V21.85ZM17.3918 14.5497C16.9572 14.5497 16.5393 14.6322 16.1381 14.7972C15.5363 15.0364 15.0181 15.4571 14.6503 15.9933C14.2826 16.5294 14.0903 17.1564 14.0903 17.7998C14.0903 18.4432 14.2826 19.0701 14.6503 19.6063C15.0181 20.1424 15.5279 20.5631 16.1381 20.8106C16.5476 20.9756 16.9655 21.0581 17.4002 21.0581C17.6175 21.0581 17.8264 21.0333 18.0354 20.9921C18.6789 20.8683 19.264 20.5549 19.7321 20.093C20.0413 19.7877 20.2837 19.4248 20.4425 19.0371C20.6097 18.6494 20.6933 18.2205 20.6933 17.7915C20.6933 17.3626 20.6097 16.9419 20.4425 16.5459C20.2837 16.1582 20.0413 15.7953 19.7321 15.4901C19.264 15.0364 18.6706 14.7229 18.0354 14.5992C17.8181 14.558 17.6008 14.5332 17.3834 14.5332L17.3918 14.5497Z" fill="black"/>
</svg>
