<svg width="200" height="200" viewBox="30 30 210 210" fill="none" xmlns="http://www.w3.org/2000/svg">
<path d="M48.23 79.89C48.23 70.52 50.97 62.52 56.72 56.77L66.72 66.77C55.59 77.86 65.31 112.34 97 144.06C128.69 175.78 163.19 185.49 174.31 174.38L184.31 184.38C165.55 203.14 122.82 189.83 87.05 154.05C62.24 129.23 48.23 101.07 48.23 79.89Z" fill="#009A46"/>
<path d="M111.29 193C101.92 193 93.92 190.26 88.16 184.51L98.16 174.51C109.27 185.62 143.75 175.9 175.47 144.19C207.19 112.48 216.89 78 205.78 66.89L215.78 56.89C234.55 75.65 221.23 118.38 185.45 154.15C160.63 179 132.47 193 111.29 193Z" fill="#FF5805"/>
<path d="M188.76 139.84C182.69 122.36 170.29 103.68 153.84 87.24C118.07 51.46 75.34 38.14 56.58 56.91C55.25 58.25 56.4 61.56 59.16 64.32C61.92 67.08 65.23 68.22 66.56 66.89C77.68 55.78 112.16 65.5 143.87 97.22C158.87 112.22 170.05 128.97 175.44 144.47C180.16 158.06 179.7 169.02 174.2 174.52C172.86 175.85 174.02 179.17 176.77 181.92C179.52 184.67 182.84 185.83 184.18 184.49C193.79 174.88 195.42 159 188.76 139.84Z" fill="#F5AFCB"/>
<path d="M215.76 56.91C206.13 47.28 190.27 45.65 171.09 52.32C153.62 58.38 134.93 70.79 118.49 87.23C82.72 123 69.4 165.73 88.16 184.5C89.5 185.83 92.81 184.68 95.57 181.93C98.33 179.18 99.48 175.86 98.14 174.52C87 163.41 96.75 128.93 128.47 97.21C143.47 82.21 160.22 71.03 175.72 65.64C189.31 60.93 200.27 61.38 205.78 66.88C207.11 68.21 210.43 67.06 213.18 64.3C215.93 61.54 217.09 58.24 215.76 56.91Z" fill="#FF9B00"/>
</svg>
