<svg width="14" height="14" viewBox="0 0 14 14" fill="none" xmlns="http://www.w3.org/2000/svg">
<path d="M3.80335 9.48498C3.69252 9.48498 3.58168 9.44415 3.49418 9.35665C3.32502 9.18748 3.32502 8.90748 3.49418 8.73832L5.27335 6.95915C5.44252 6.78998 5.72252 6.78998 5.89169 6.95915C6.06085 7.12832 6.06085 7.40832 5.89169 7.57748L4.11252 9.35665C4.02502 9.43832 3.91418 9.48498 3.80335 9.48498Z" fill="#010211"/>
<path d="M5.6001 9.50256C5.48926 9.50256 5.37843 9.46173 5.29093 9.37423L3.51176 7.59506C3.3426 7.4259 3.3426 7.1459 3.51176 6.97673C3.68093 6.80756 3.96093 6.80756 4.1301 6.97673L5.90926 8.7559C6.07843 8.92506 6.07843 9.20506 5.90926 9.37423C5.82176 9.46173 5.71093 9.50256 5.6001 9.50256Z" fill="#010211"/>
<path d="M7.89837 8.74992C7.57754 8.74992 7.3092 8.48742 7.3092 8.16659C7.3092 7.84575 7.56587 7.58325 7.8867 7.58325H7.89837C8.2192 7.58325 8.4817 7.84575 8.4817 8.16659C8.4817 8.48742 8.22504 8.74992 7.89837 8.74992Z" fill="#010211"/>
<path d="M10.1967 8.74992C9.87588 8.74992 9.60754 8.48742 9.60754 8.16659C9.60754 7.84575 9.86421 7.58325 10.185 7.58325H10.1967C10.5175 7.58325 10.78 7.84575 10.78 8.16659C10.78 8.48742 10.5175 8.74992 10.1967 8.74992Z" fill="#010211"/>
<path d="M9.04159 9.89906C8.72075 9.89906 8.45825 9.6424 8.45825 9.32156V9.3099C8.45825 8.98906 8.72075 8.72656 9.04159 8.72656C9.36242 8.72656 9.62492 8.98906 9.62492 9.3099C9.62492 9.63073 9.36825 9.89906 9.04159 9.89906Z" fill="#010211"/>
<path d="M9.04159 7.60072C8.72075 7.60072 8.45825 7.34406 8.45825 7.02322V7.01156C8.45825 6.69072 8.72075 6.42822 9.04159 6.42822C9.36242 6.42822 9.62492 6.69072 9.62492 7.01156C9.62492 7.33239 9.36825 7.60072 9.04159 7.60072Z" fill="#010211"/>
<path d="M8.75008 13.2708H5.25008C2.08258 13.2708 0.729248 11.9175 0.729248 8.75V7.58333C0.729248 4.41583 2.08258 3.0625 5.25008 3.0625H8.75008C11.9176 3.0625 13.2709 4.41583 13.2709 7.58333V8.75C13.2709 11.9175 11.9176 13.2708 8.75008 13.2708ZM5.25008 3.9375C2.56091 3.9375 1.60425 4.89417 1.60425 7.58333V8.75C1.60425 11.4392 2.56091 12.3958 5.25008 12.3958H8.75008C11.4392 12.3958 12.3959 11.4392 12.3959 8.75V7.58333C12.3959 4.89417 11.4392 3.9375 8.75008 3.9375H5.25008Z" fill="#010211"/>
<path d="M7.57756 3.93758H6.99422C6.43422 3.93758 5.97339 3.47675 5.97339 2.91675C5.97339 2.35675 6.42839 1.89591 6.98839 1.89591C7.08172 1.89591 7.14589 1.83175 7.15172 1.75008L7.15756 1.16091C7.16339 0.921748 7.35589 0.729248 7.59506 0.729248H7.60089C7.84006 0.735081 8.03839 0.933415 8.03256 1.17258L8.02672 1.76175C8.02089 2.31591 7.56006 2.77091 7.00589 2.77091C6.91256 2.77091 6.85422 2.83508 6.85422 2.91675C6.85422 2.99841 6.91839 3.06258 7.00006 3.06258H7.58339C7.82256 3.06258 8.02089 3.26091 8.02089 3.50008C8.02089 3.73925 7.81672 3.93758 7.57756 3.93758Z" fill="#010211"/>
</svg>
