<svg width="24" height="24" viewBox="0 0 24 24" fill="none" xmlns="http://www.w3.org/2000/svg">
<mask id="mask0_5378_19139" style="mask-type:luminance" maskUnits="userSpaceOnUse" x="2" y="2" width="20" height="20">
<path d="M21.7674 10.1818H12.2326V14.0455H17.7209C17.2093 16.5 15.0698 17.9091 12.2326 17.9091C8.88372 17.9091 6.18605 15.2727 6.18605 12C6.18605 8.72727 8.88372 6.09091 12.2326 6.09091C13.6744 6.09091 14.9767 6.59092 16 7.4091L18.9767 4.5C17.1628 2.95455 14.8372 2 12.2326 2C6.55814 2 2 6.45455 2 12C2 17.5455 6.55814 22 12.2326 22C17.3488 22 22 18.3636 22 12C22 11.4091 21.907 10.7727 21.7674 10.1818Z" fill="white"/>
</mask>
<g mask="url(#mask0_5378_19139)">
<path d="M1.06982 17.9091V6.09094L8.9768 12L1.06982 17.9091Z" fill="#E29512"/>
</g>
<mask id="mask1_5378_19139" style="mask-type:luminance" maskUnits="userSpaceOnUse" x="2" y="2" width="20" height="20">
<path d="M21.7674 10.1818H12.2326V14.0455H17.7209C17.2093 16.5 15.0698 17.9091 12.2326 17.9091C8.88372 17.9091 6.18605 15.2727 6.18605 12C6.18605 8.72727 8.88372 6.09091 12.2326 6.09091C13.6744 6.09091 14.9767 6.59092 16 7.4091L18.9767 4.5C17.1628 2.95455 14.8372 2 12.2326 2C6.55814 2 2 6.45455 2 12C2 17.5455 6.55814 22 12.2326 22C17.3488 22 22 18.3636 22 12C22 11.4091 21.907 10.7727 21.7674 10.1818Z" fill="white"/>
</mask>
<g mask="url(#mask1_5378_19139)">
<path d="M1.06982 6.09094L8.9768 12L12.2326 9.22732L23.3954 7.45458V1.09094H1.06982V6.09094Z" fill="#DB3D26"/>
</g>
<mask id="mask2_5378_19139" style="mask-type:luminance" maskUnits="userSpaceOnUse" x="2" y="2" width="20" height="20">
<path d="M21.7674 10.1818H12.2326V14.0455H17.7209C17.2093 16.5 15.0698 17.9091 12.2326 17.9091C8.88372 17.9091 6.18605 15.2727 6.18605 12C6.18605 8.72727 8.88372 6.09091 12.2326 6.09091C13.6744 6.09091 14.9767 6.59092 16 7.4091L18.9767 4.5C17.1628 2.95455 14.8372 2 12.2326 2C6.55814 2 2 6.45455 2 12C2 17.5455 6.55814 22 12.2326 22C17.3488 22 22 18.3636 22 12C22 11.4091 21.907 10.7727 21.7674 10.1818Z" fill="white"/>
</mask>
<g mask="url(#mask2_5378_19139)">
<path d="M1.06982 17.9091L15.0233 7.45458L18.6977 7.90912L23.3954 1.09094V22.9091H1.06982V17.9091Z" fill="#34A853"/>
</g>
<mask id="mask3_5378_19139" style="mask-type:luminance" maskUnits="userSpaceOnUse" x="2" y="2" width="20" height="20">
<path d="M21.7674 10.1818H12.2326V14.0455H17.7209C17.2093 16.5 15.0698 17.9091 12.2326 17.9091C8.88372 17.9091 6.18605 15.2727 6.18605 12C6.18605 8.72727 8.88372 6.09091 12.2326 6.09091C13.6744 6.09091 14.9767 6.59092 16 7.4091L18.9767 4.5C17.1628 2.95455 14.8372 2 12.2326 2C6.55814 2 2 6.45455 2 12C2 17.5455 6.55814 22 12.2326 22C17.3488 22 22 18.3636 22 12C22 11.4091 21.907 10.7727 21.7674 10.1818Z" fill="white"/>
</mask>
<g mask="url(#mask3_5378_19139)">
<path d="M23.3953 22.9091L8.97668 12L7.11621 10.6364L23.3953 6.09094V22.9091Z" fill="#4285F4"/>
</g>
</svg>
