<svg width="4" height="12" viewBox="0 0 4 12" fill="none" xmlns="http://www.w3.org/2000/svg">
<path d="M1.99987 4.53342C1.1932 4.53342 0.533203 5.19342 0.533203 6.00009C0.533203 6.80676 1.1932 7.46676 1.99987 7.46676C2.80654 7.46676 3.46654 6.80676 3.46654 6.00009C3.46654 5.19342 2.80654 4.53342 1.99987 4.53342ZM1.99987 0.133423C1.1932 0.133423 0.533203 0.793423 0.533203 1.60009C0.533203 2.40676 1.1932 3.06676 1.99987 3.06676C2.80654 3.06676 3.46654 2.40676 3.46654 1.60009C3.46654 0.793423 2.80654 0.133423 1.99987 0.133423ZM1.99987 8.93342C1.1932 8.93342 0.533203 9.59342 0.533203 10.4001C0.533203 11.2068 1.1932 11.8668 1.99987 11.8668C2.80654 11.8668 3.46654 11.2068 3.46654 10.4001C3.46654 9.59342 2.80654 8.93342 1.99987 8.93342Z" fill="black"/>
</svg>
