<svg width="24" height="27" viewBox="0 0 24 27" fill="none" xmlns="http://www.w3.org/2000/svg">
<path d="M20 0H4C1.78667 0 0 1.77333 0 3.96V18.5067C0 20.6933 1.78667 22.4667 4 22.4667H5.01333C6.08 22.4667 7.09333 22.88 7.84 23.6267L10.12 25.88C11.16 26.9067 12.8533 26.9067 13.8933 25.88L16.1733 23.6267C16.92 22.88 17.9467 22.4667 19 22.4667H20C22.2133 22.4667 24 20.6933 24 18.5067V3.96C24 1.77333 22.2133 0 20 0ZM12 5C13.72 5 15.1067 6.38667 15.1067 8.10667C15.1067 9.82667 13.72 11.2133 12 11.2133C10.28 11.2133 8.89333 9.81333 8.89333 8.10667C8.89333 6.38667 10.28 5 12 5ZM15.5733 17.4133H8.42667C7.34667 17.4133 6.72 16.2133 7.32 15.32C8.22667 13.9733 9.98667 13.0667 12 13.0667C14.0133 13.0667 15.7733 13.9733 16.68 15.32C17.28 16.2133 16.64 17.4133 15.5733 17.4133Z" fill="#5A5BB5"/>
</svg>
