<svg width="25" height="24" viewBox="0 0 25 24" fill="none" xmlns="http://www.w3.org/2000/svg">
<g id="vuesax/outline/home-2">
<g id="home-2">
<path id="Vector" d="M18.54 22.75H6.96C4.22 22.75 2 20.52 2 17.78V10.37C2 9.00997 2.84 7.29997 3.92 6.45997L9.31 2.25997C10.93 0.999974 13.52 0.939974 15.2 2.11997L21.38 6.44997C22.57 7.27997 23.5 9.05997 23.5 10.51V17.79C23.5 20.52 21.28 22.75 18.54 22.75ZM10.23 3.43997L4.84 7.63997C4.13 8.19997 3.5 9.46997 3.5 10.37V17.78C3.5 19.69 5.05 21.25 6.96 21.25H18.54C20.45 21.25 22 19.7 22 17.79V10.51C22 9.54997 21.31 8.21997 20.52 7.67997L14.34 3.34997C13.2 2.54997 11.32 2.58997 10.23 3.43997Z" fill="#010211"/>
<path id="Vector_2" d="M12.75 18.75C12.34 18.75 12 18.41 12 18V15C12 14.59 12.34 14.25 12.75 14.25C13.16 14.25 13.5 14.59 13.5 15V18C13.5 18.41 13.16 18.75 12.75 18.75Z" fill="#010211"/>
</g>
</g>
</svg>
