<svg width="15" height="15" viewBox="0 0 15 15" fill="none" xmlns="http://www.w3.org/2000/svg">
<path d="M7.1992 4.42627C6.46339 4.42627 5.75771 4.71857 5.23741 5.23887C4.71711 5.75917 4.4248 6.46485 4.4248 7.20067C4.4248 7.93649 4.71711 8.64217 5.23741 9.16247C5.75771 9.68277 6.46339 9.97507 7.1992 9.97507C7.93502 9.97507 8.6407 9.68277 9.161 9.16247C9.6813 8.64217 9.9736 7.93649 9.9736 7.20067C9.9736 6.46485 9.6813 5.75917 9.161 5.23887C8.6407 4.71857 7.93502 4.42627 7.1992 4.42627ZM7.1992 9.00247C6.72118 9.00247 6.26273 8.81257 5.92472 8.47456C5.5867 8.13654 5.3968 7.6781 5.3968 7.20007C5.3968 6.72204 5.5867 6.2636 5.92472 5.92558C6.26273 5.58757 6.72118 5.39767 7.1992 5.39767C7.67723 5.39767 8.13568 5.58757 8.47369 5.92558C8.81171 6.2636 9.00161 6.72204 9.00161 7.20007C9.00161 7.6781 8.81171 8.13654 8.47369 8.47456C8.13568 8.81257 7.67723 9.00247 7.1992 9.00247Z" fill="white"/>
<path d="M10.0833 4.97085C10.4405 4.97085 10.7301 4.68126 10.7301 4.32405C10.7301 3.96683 10.4405 3.67725 10.0833 3.67725C9.72611 3.67725 9.43652 3.96683 9.43652 4.32405C9.43652 4.68126 9.72611 4.97085 10.0833 4.97085Z" fill="white"/>
<path d="M12.3199 3.66682C12.181 3.30813 11.9687 2.98239 11.6967 2.71046C11.4246 2.43852 11.0988 2.22639 10.7401 2.08762C10.3203 1.93004 9.87678 1.84483 9.42847 1.83562C8.85067 1.81042 8.66767 1.80322 7.20247 1.80322C5.73727 1.80322 5.54947 1.80322 4.97647 1.83562C4.5285 1.84436 4.08532 1.92958 3.66607 2.08762C3.30723 2.22622 2.98133 2.4383 2.70927 2.71026C2.43721 2.98221 2.22501 3.30804 2.08627 3.66682C1.92865 4.08659 1.84364 4.53012 1.83487 4.97842C1.80907 5.55562 1.80127 5.73862 1.80127 7.20442C1.80127 8.66962 1.80127 8.85622 1.83487 9.43042C1.84387 9.87922 1.92847 10.322 2.08627 10.7426C2.2254 11.1013 2.43781 11.427 2.70993 11.6989C2.98206 11.9708 3.30791 12.183 3.66667 12.3218C4.08513 12.4857 4.52849 12.5771 4.97767 12.5918C5.55547 12.617 5.73847 12.6248 7.20367 12.6248C8.66887 12.6248 8.85667 12.6248 9.42967 12.5918C9.87793 12.5827 10.3214 12.4977 10.7413 12.3404C11.0999 12.2013 11.4256 11.989 11.6977 11.717C11.9697 11.445 12.182 11.1193 12.3211 10.7606C12.4789 10.3406 12.5635 9.89782 12.5725 9.44902C12.5983 8.87182 12.6061 8.68882 12.6061 7.22302C12.6061 5.75722 12.6061 5.57122 12.5725 4.99702C12.5655 4.54239 12.48 4.09237 12.3199 3.66682ZM11.5891 9.38602C11.5852 9.73181 11.5221 10.0744 11.4025 10.3988C11.3124 10.6321 11.1744 10.844 10.9975 11.0208C10.8206 11.1976 10.6086 11.3355 10.3753 11.4254C10.0544 11.5445 9.71549 11.6076 9.37327 11.612C8.80327 11.6384 8.64247 11.645 7.18087 11.645C5.71807 11.645 5.56867 11.645 4.98787 11.612C4.64583 11.6078 4.30706 11.5447 3.98647 11.4254C3.75228 11.336 3.53947 11.1984 3.3618 11.0216C3.18414 10.8448 3.04557 10.6326 2.95507 10.3988C2.83714 10.0779 2.77406 9.73933 2.76847 9.39742C2.74267 8.82742 2.73667 8.66662 2.73667 7.20502C2.73667 5.74282 2.73667 5.59342 2.76847 5.01202C2.77235 4.66644 2.83546 4.32407 2.95507 3.99982C3.13807 3.52642 3.51307 3.15382 3.98647 2.97262C4.30722 2.85391 4.64588 2.7908 4.98787 2.78602C5.55847 2.76022 5.71867 2.75302 7.18087 2.75302C8.64307 2.75302 8.79307 2.75302 9.37327 2.78602C9.71552 2.79014 10.0545 2.85327 10.3753 2.97262C10.6086 3.06279 10.8206 3.20074 10.9975 3.37764C11.1743 3.55454 11.3123 3.76647 11.4025 3.99982C11.5204 4.32079 11.5835 4.65932 11.5891 5.00122C11.6149 5.57182 11.6215 5.73202 11.6215 7.19422C11.6215 8.65582 11.6215 8.81302 11.5957 9.38662H11.5891V9.38602Z" fill="white"/>
</svg>
