<svg width="16" height="16" viewBox="0 0 16 16" fill="none" xmlns="http://www.w3.org/2000/svg">
<path d="M12.3334 2.73956L9.00677 1.49289C8.45344 1.28622 7.54677 1.28622 6.99344 1.49289L3.66677 2.73956C2.9001 3.02622 2.27344 3.93289 2.27344 4.74622V9.69956C2.27344 10.4862 2.79344 11.5196 3.42677 11.9929L6.29344 14.1329C7.23344 14.8396 8.7801 14.8396 9.7201 14.1329L12.5868 11.9929C13.2201 11.5196 13.7401 10.4862 13.7401 9.69956V4.74622C13.7268 3.93289 13.1001 3.02622 12.3334 2.73956ZM7.95344 4.68622C8.7401 4.68622 9.3801 5.32622 9.3801 6.11289C9.3801 6.88622 8.77344 7.50622 8.00677 7.53289H7.99344H7.9801C7.96677 7.53289 7.95344 7.53289 7.9401 7.53289C7.1401 7.50622 6.5401 6.88622 6.5401 6.11289C6.53344 5.32622 7.17344 4.68622 7.95344 4.68622ZM9.4601 10.9062C9.05344 11.1729 8.52677 11.3129 8.0001 11.3129C7.47344 11.3129 6.9401 11.1796 6.5401 10.9062C6.1601 10.6529 5.95344 10.3062 5.94677 9.92622C5.94677 9.55289 6.1601 9.19289 6.5401 8.93956C7.34677 8.40622 8.6601 8.40622 9.46677 8.93956C9.84677 9.19289 10.0601 9.53956 10.0601 9.91956C10.0534 10.2929 9.8401 10.6529 9.4601 10.9062Z" fill="#5A5BB5"/>
</svg>
