<svg width="27" height="27" viewBox="0 0 27 27" fill="none" xmlns="http://www.w3.org/2000/svg">
<path d="M9.48482 0C5.9551 0 3.08552 2.86958 3.08552 6.3993C3.08552 9.86166 5.79343 12.6639 9.32315 12.7851C9.43093 12.7717 9.5387 12.7717 9.61954 12.7851C9.64648 12.7851 9.65995 12.7851 9.6869 12.7851C9.70037 12.7851 9.70037 12.7851 9.71384 12.7851C13.1627 12.6639 15.8706 9.86166 15.8841 6.3993C15.8841 2.86958 13.0145 0 9.48482 0Z" fill="#5A5BB5"/>
<path d="M16.3283 16.3686C12.5696 13.8627 6.43972 13.8627 2.65402 16.3686C0.943055 17.5137 0 19.063 0 20.7201C0 22.3772 0.943055 23.913 2.64055 25.0447C4.52666 26.3111 7.00555 26.9443 9.48443 26.9443C11.9633 26.9443 14.4422 26.3111 16.3283 25.0447C18.0258 23.8995 18.9689 22.3637 18.9689 20.6932C18.9554 19.0361 18.0258 17.5002 16.3283 16.3686Z" fill="#5A5BB5"/>
<path d="M24.2906 7.19429C24.5061 9.8079 22.647 12.0982 20.0738 12.408C20.0603 12.408 20.0603 12.408 20.0468 12.408H20.0064C19.9256 12.408 19.8448 12.408 19.7774 12.435C18.4706 12.5023 17.2716 12.0847 16.3689 11.3168C17.7566 10.0773 18.5514 8.21818 18.3898 6.19735C18.2955 5.1061 17.9182 4.10916 17.3524 3.26041C17.8643 3.00444 18.4571 2.84277 19.0634 2.78888C21.7039 2.55985 24.0616 4.5268 24.2906 7.19429Z" fill="#5A5BB5"/>
<path d="M26.9849 19.6565C26.8771 20.9633 26.0418 22.095 24.6407 22.8629C23.2935 23.6038 21.596 23.9541 19.912 23.9137C20.882 23.038 21.4478 21.9468 21.5556 20.7881C21.6903 19.1176 20.8954 17.5144 19.3057 16.2345C18.4031 15.5205 17.3522 14.9547 16.2071 14.537C19.1845 13.6748 22.9297 14.2541 25.2335 16.1133C26.4729 17.1102 27.1061 18.3632 26.9849 19.6565Z" fill="#5A5BB5"/>
</svg>
