<svg width="16" height="16" viewBox="0 0 16 16" fill="none" xmlns="http://www.w3.org/2000/svg">
<path d="M7.99992 1.33325C4.31992 1.33325 1.33325 4.31992 1.33325 7.99992C1.33325 11.6799 4.31992 14.6666 7.99992 14.6666C11.6799 14.6666 14.6666 11.6799 14.6666 7.99992C14.6666 4.31992 11.6799 1.33325 7.99992 1.33325ZM11.3333 11.6466C10.1933 11.6466 9.12659 11.1533 8.27325 10.2399C7.30659 11.1133 6.04659 11.6466 4.66659 11.6466C4.39325 11.6466 4.16659 11.4199 4.16659 11.1466C4.16659 10.8733 4.39325 10.6466 4.66659 10.6466C6.97992 10.6466 8.89325 8.81325 9.13992 6.46659H7.99992H4.67325C4.39992 6.46659 4.17325 6.23992 4.17325 5.96659C4.17325 5.69325 4.39992 5.47325 4.67325 5.47325H7.49992V4.85325C7.49992 4.57992 7.72659 4.35325 7.99992 4.35325C8.27325 4.35325 8.49992 4.57992 8.49992 4.85325V5.47325H9.62659C9.63992 5.47325 9.65325 5.46659 9.66659 5.46659C9.67992 5.46659 9.69325 5.47325 9.70659 5.47325H11.3266C11.5999 5.47325 11.8266 5.69992 11.8266 5.97325C11.8266 6.24659 11.5999 6.47325 11.3266 6.47325H10.1399C10.0399 7.61325 9.61325 8.65992 8.95992 9.51325C9.62659 10.2533 10.4599 10.6533 11.3333 10.6533C11.6066 10.6533 11.8333 10.8799 11.8333 11.1533C11.8333 11.4266 11.6066 11.6466 11.3333 11.6466Z" fill="#010211"/>
</svg>
