<svg width="40" height="40" viewBox="0 0 40 40" fill="none" xmlns="http://www.w3.org/2000/svg">
<path d="M32.56 15.06V12.56C32.56 7.16 31.26 0 20 0C8.74 0 7.44 7.16 7.44 12.56V15.06C1.84 15.76 0 18.6 0 25.58V29.3C0 37.5 2.5 40 10.7 40H29.3C37.5 40 40 37.5 40 29.3V25.58C40 18.6 38.16 15.76 32.56 15.06ZM20 33.48C16.66 33.48 13.96 30.76 13.96 27.44C13.96 24.1 16.68 21.4 20 21.4C23.32 21.4 26.04 24.12 26.04 27.44C26.04 30.78 23.34 33.48 20 33.48ZM10.7 14.88C10.54 14.88 10.4 14.88 10.24 14.88V12.56C10.24 6.7 11.9 2.8 20 2.8C28.1 2.8 29.76 6.7 29.76 12.56V14.9C29.6 14.9 29.46 14.9 29.3 14.9H10.7V14.88Z" fill="#010211"/>
</svg>
