<svg width="91" height="76" viewBox="0 0 91 76" fill="none" xmlns="http://www.w3.org/2000/svg"><mask id="a" style="mask-type:luminance" maskUnits="userSpaceOnUse" x="0" y="0" width="90" height="73"><path d="M89.467.5H.499v72.158h88.968z" fill="#fff"/></mask><g mask="url(#a)" fill="#01110F" fill-opacity=".1"><path d="M67.617 8.765a8.26 8.26 0 0 1-2.428 5.835 8.3 8.3 0 0 1-5.85 2.422H47.54a6.99 6.99 0 0 1-1.954 10.13 7.03 7.03 0 0 1-3.682 1.041H7.52a7.03 7.03 0 0 1-4.962-2.05 6.99 6.99 0 0 1 0-9.9 7.03 7.03 0 0 1 4.962-2.05h5.91a8.25 8.25 0 0 1-1.302-8.848 8.27 8.27 0 0 1 3.053-3.527A8.3 8.3 0 0 1 19.663.5h39.676a8.3 8.3 0 0 1 5.855 2.422 8.26 8.26 0 0 1 2.423 5.843m12.778 42.184h-.87a6.754 6.754 0 0 1-.936 8.4 7 7 0 0 1-1.671 1.226 6.38 6.38 0 0 1 2.944 2.991 6.36 6.36 0 0 1-1.805 7.71 6.4 6.4 0 0 1-3.968 1.382H57.84a6.4 6.4 0 0 1-3.549-1.074 6.4 6.4 0 0 1-2.353-2.858 6.36 6.36 0 0 1 1.88-7.393H38.155a6.8 6.8 0 0 1-4.466-1.67 6.75 6.75 0 0 1-1.195-8.827 6.78 6.78 0 0 1 3.861-2.791 9.1 9.1 0 0 1-2.078-3.705H11.62a5.77 5.77 0 0 1-4.071-1.682 5.736 5.736 0 0 1 0-8.122 5.77 5.77 0 0 1 4.07-1.681h68.776a9.08 9.08 0 0 1 6.412 2.65 9.04 9.04 0 0 1 2.656 6.396c0 2.399-.955 4.7-2.656 6.396a9.08 9.08 0 0 1-6.413 2.65"/></g><mask id="b" style="mask-type:luminance" maskUnits="userSpaceOnUse" x="27" y="9" width="64" height="67"><path d="M90.5 9.433H27.326V75.5H90.5z" fill="#fff"/></mask><g mask="url(#b)"><path d="M52.842 34.153c.6 5.184.25 8.392.27 13.495.018 5.01-.288 10.102-.27 15.112 0 .784.27 2.55.27 3.335 0 .615-1.008 1.129-1.284 1.68-.316.635-1.896-.39-2.563-.635a1033 1033 0 0 1-20.534-7.82 20 20 0 0 1 0-3.127V52.94c0-2.127-.015-4.256.005-6.383.042-4.286-.006-8.576-.012-12.862 0-6.936.102-13.875.102-20.805.01-.312.083-.62.215-.903.638-1.176 2.343.054 3.201.372q6.595 2.455 13.198 4.892c1.251.465 2.51.915 3.763 1.377.77.283 1.853.386 2.421.988.85.896.266 2.834.204 3.896-.089 1.557 1.066 3.201 1.019 4.76-.047 1.384-.52 2.683-.54 4.065" fill="#5A5BB5"/><path d="m35.871 62.572-3.649-.9a5 5 0 0 1-2.473-1.74 4.97 4.97 0 0 1-1.012-2.844V13.36a2.27 2.27 0 0 1 .75-1.85 2.03 2.03 0 0 1 1.794-.278l1.152.285v44.611a7.95 7.95 0 0 0 3.438 6.444" fill="#5A5BB5"/><path opacity=".3" d="m35.871 62.572-3.649-.9a5 5 0 0 1-2.473-1.74 4.97 4.97 0 0 1-1.012-2.844V13.36a2.27 2.27 0 0 1 .75-1.85 2.03 2.03 0 0 1 1.794-.278l1.152.285v44.611a7.95 7.95 0 0 0 3.438 6.444" fill="#000"/><path d="M55.27 57.98h2.49c2.446.034 6.408.568 7.548-1.119a3.7 3.7 0 0 0 .357-2.23q.078-6.427.124-12.855.013-1.489 1.733-.953a.31.31 0 0 1 .22.295c.006 4.41-.128 8.896.068 13.32.096 2.21-.486 4.245-2.547 5.194a9 9 0 0 1-3.45.45q-3.802-.01-7.602.01a.306.306 0 0 0-.306.304 263 263 0 0 0-.006 4.384 7.1 7.1 0 0 1-.396 2.792c-1.196 2.656-3.674 1.742-5.898.791q-7.266-3.1-14.54-6.193c-4.052-1.713-5.735-3.31-5.74-7.926V15.661a10 10 0 0 1 .473-3.696c1.019-2.253 2.983-2.532 5.436-2.532h28.178c1.28-.079 2.563.067 3.792.43 2.118.926 2.695 2.99 2.614 5.226-.155 4.397-.08 8.828-.062 13.228a.3.3 0 0 1-.192.289c-1.34.542-1.84-.143-1.834-1.356q.038-6.47-.027-12.942c-.02-1.724-.91-2.842-2.678-2.852q-4.665-.02-29.265 0c-.046 0-.084.028-.084.063v.039a.07.07 0 0 0 .047.047q7.867 3.348 15.742 6.683c3.493 1.48 4.42 4.015 4.423 7.679v31.705a.313.313 0 0 0 .313.31zm-21.36 2.327a764 764 0 0 0 16.119 6.854c.524.214 1.282.248 1.528-.305a3.7 3.7 0 0 0 .322-1.536l-.095-28.658q.031-4.962.056-9.923a11.5 11.5 0 0 0-.474-3.913c-.889-2.072-2.184-2.38-4.612-3.419a3285 3285 0 0 0-16.61-7.071.31.31 0 0 0-.34.064.3.3 0 0 0-.08.14l-.189.684a3 3 0 0 0-.114.813q-.006 20.306 0 40.614c0 3.568 1.567 4.383 4.484 5.659" fill="#010211"/><path d="M86.365 33.174a206 206 0 0 0-7.616-7.652c-.911-.866-1.16-1.642.22-2.355a.31.31 0 0 1 .36.053q5.041 4.905 10.11 9.991c1.099 1.105 1.591 1.525.26 2.846q-4.79 4.716-9.566 9.43c-.885.875-1.599 1.055-2.288-.28a.31.31 0 0 1 .056-.363l8.672-8.691q.422-.422-.176-.422l-23.612.006a.31.31 0 0 1-.288-.203c-.49-1.27.015-1.83 1.23-1.825q11.209.023 22.417-.015.714 0 .223-.522" fill="#010211"/></g><path d="M78.1 63.552c1.125 0 2.038-.91 2.038-2.033a2.036 2.036 0 0 0-2.038-2.033c-1.126 0-2.038.91-2.038 2.033s.912 2.033 2.038 2.033" fill="#5A5BB5"/><path d="M17.98 9.682a3.053 3.053 0 0 0 3.057-3.05 3.053 3.053 0 0 0-3.057-3.049 3.053 3.053 0 0 0-3.057 3.05 3.053 3.053 0 0 0 3.057 3.049" fill="#fff"/><path d="M17.98 9.173a2.544 2.544 0 0 0 2.548-2.541A2.544 2.544 0 0 0 17.98 4.09a2.544 2.544 0 0 0-2.547 2.54 2.544 2.544 0 0 0 2.547 2.542Z" stroke="#5A5BB5" stroke-width="1.019"/><path d="M21.036 64.569c1.126 0 2.038-.91 2.038-2.033a2.035 2.035 0 0 0-2.038-2.033c-1.125 0-2.038.91-2.038 2.033s.913 2.033 2.038 2.033" fill="#fff"/><path d="M21.037 64.06c.844 0 1.528-.683 1.528-1.525s-.684-1.524-1.529-1.524a1.525 1.525 0 1 0 .001 3.049Z" stroke="#5A5BB5" stroke-width="1.019"/><path d="M12.375 13.748c.845 0 1.529-.683 1.529-1.525s-.684-1.525-1.529-1.525-1.528.683-1.528 1.525.684 1.524 1.528 1.524" fill="#5A5BB5"/></svg>