<svg width="16" height="16" viewBox="0 0 16 16" fill="none" xmlns="http://www.w3.org/2000/svg">
<path d="M8 9.99992C10.4853 9.99992 12.5 8.05982 12.5 5.66659C12.5 3.27335 10.4853 1.33325 8 1.33325C5.51472 1.33325 3.5 3.27335 3.5 5.66659C3.5 8.05982 5.51472 9.99992 8 9.99992Z" fill="#010211"/>
<path d="M10.5267 10.4066C10.7467 10.2933 11 10.46 11 10.7066V13.94C11 14.54 10.58 14.8333 10.06 14.5866L8.27333 13.74C8.12 13.6733 7.88 13.6733 7.72667 13.74L5.94 14.5866C5.42 14.8266 5 14.5333 5 13.9333L5.01333 10.7066C5.01333 10.46 5.27333 10.3 5.48667 10.4066C6.24 10.7866 7.09333 11 8 11C8.90667 11 9.76667 10.7866 10.5267 10.4066Z" fill="#010211"/>
</svg>
