<svg width="20" height="20" viewBox="0 0 20 20" fill="none" xmlns="http://www.w3.org/2000/svg">
<path d="M14.8917 18.2248C14.6334 18.2248 14.3751 18.1581 14.1417 18.0165L10.8001 16.0331C10.4501 16.0248 10.1001 15.9998 9.76673 15.9498C9.54173 15.9165 9.35006 15.7664 9.26673 15.5498C9.18339 15.3331 9.22506 15.0998 9.37506 14.9248C9.92506 14.2831 10.2084 13.5165 10.2084 12.6998C10.2084 10.6831 8.4334 9.04144 6.25006 9.04144C5.4334 9.04144 4.65006 9.26648 3.99172 9.69981C3.80839 9.81647 3.58339 9.83313 3.38339 9.74146C3.19173 9.6498 3.05007 9.46644 3.02507 9.24978C3.00007 9.01644 2.9834 8.78313 2.9834 8.54146C2.9834 4.40813 6.56673 1.0498 10.9667 1.0498C15.3667 1.0498 18.9501 4.40813 18.9501 8.54146C18.9501 10.8081 17.9001 12.8915 16.0501 14.3165L16.3334 16.5831C16.4001 17.1498 16.1501 17.6832 15.6751 17.9915C15.4417 18.1415 15.1667 18.2248 14.8917 18.2248ZM10.9584 14.7748C11.0751 14.7664 11.1917 14.7998 11.2917 14.8665L14.7834 16.9415C14.8751 16.9998 14.9501 16.9748 15.0001 16.9415C15.0417 16.9165 15.1084 16.8498 15.0917 16.7331L14.7667 14.0998C14.7417 13.8664 14.8417 13.6415 15.0251 13.5081C16.7251 12.3165 17.7001 10.4998 17.7001 8.52478C17.7001 5.08311 14.6834 2.28312 10.9667 2.28312C7.39173 2.28312 4.45839 4.88315 4.24173 8.14982C4.86673 7.90815 5.54173 7.77481 6.24173 7.77481C9.11673 7.77481 11.4501 9.97477 11.4501 12.6831C11.4584 13.4164 11.2834 14.1248 10.9584 14.7748Z" fill="#5A5BB5"/>
<path d="M3.81648 18.9582C3.59981 18.9582 3.39147 18.8999 3.19981 18.7749C2.82481 18.5332 2.62481 18.1165 2.67481 17.6749L2.84148 16.3915C1.71648 15.4748 1.0498 14.1165 1.0498 12.6915C1.0498 11.0665 1.89981 9.54984 3.32481 8.64151C4.18315 8.08318 5.1998 7.7832 6.25814 7.7832C9.13314 7.7832 11.4665 9.98316 11.4665 12.6915C11.4665 13.7915 11.0665 14.8749 10.3331 15.7332C9.39147 16.8749 7.98314 17.5415 6.43314 17.5915L4.39981 18.7998C4.21647 18.9082 4.01648 18.9582 3.81648 18.9582ZM6.24981 9.0332C5.43314 9.0332 4.6498 9.25818 3.99147 9.69152C2.9248 10.3749 2.29148 11.4915 2.29148 12.6915C2.29148 13.8498 2.85815 14.9082 3.85815 15.5915C4.04981 15.7249 4.14981 15.9498 4.12481 16.1832L3.94147 17.6082L5.93314 16.4249C6.03314 16.3665 6.14148 16.3332 6.24981 16.3332C7.47481 16.3332 8.63315 15.8082 9.36648 14.9165C9.91648 14.2665 10.2081 13.4998 10.2081 12.6832C10.2081 10.6748 8.43314 9.0332 6.24981 9.0332Z" fill="#5A5BB5"/>
</svg>
