<svg width="25" height="24" viewBox="0 0 25 24" fill="none" xmlns="http://www.w3.org/2000/svg">
<path d="M16.74 2H8.26C5.5 2 4.5 3 4.5 5.81V18.19C4.5 21 5.5 22 8.26 22H16.73C19.5 22 20.5 21 20.5 18.19V5.81C20.5 3 19.5 2 16.74 2ZM12.5 19.3C11.54 19.3 10.75 18.51 10.75 17.55C10.75 16.59 11.54 15.8 12.5 15.8C13.46 15.8 14.25 16.59 14.25 17.55C14.25 18.51 13.46 19.3 12.5 19.3ZM14.5 6.25H10.5C10.09 6.25 9.75 5.91 9.75 5.5C9.75 5.09 10.09 4.75 10.5 4.75H14.5C14.91 4.75 15.25 5.09 15.25 5.5C15.25 5.91 14.91 6.25 14.5 6.25Z" fill="#5A5BB5"/>
</svg>
