<svg width="24" height="24" viewBox="0 0 24 24" fill="none" xmlns="http://www.w3.org/2000/svg">
<path d="M11.2344 5.92V19.83C11.2344 20.54 10.5144 21.03 9.86438 20.76C8.00437 19.98 5.69438 19.3 4.05437 19.08L3.74437 19.04C2.77437 18.92 1.98438 18.03 1.98438 17.06V5.17C1.98437 3.97 2.95438 3 4.15438 3H4.22438C6.10437 3.16 8.87438 4.04 10.7044 5.03C11.0344 5.21 11.2344 5.54 11.2344 5.92Z" fill="#5A5BB5"/>
<path d="M21.9844 5.17V17.06C21.9844 18.03 21.1944 18.92 20.2244 19.04L19.9144 19.08C18.2744 19.3 15.9644 19.98 14.1044 20.76C13.4544 21.03 12.7344 20.54 12.7344 19.83V5.92C12.7344 5.55 12.9444 5.21 13.2744 5.03C13.7844 4.76 14.3644 4.49 14.9844 4.24H14.9944V7.35C14.9944 7.91 15.2844 8.16 15.6444 7.88L16.7644 7.03C16.8944 6.94 17.0844 6.94 17.2044 7.03L18.3244 7.88C18.6744 8.16 18.9744 7.91 18.9744 7.35H18.9844V3.1C19.2544 3.05 19.5144 3.02 19.7544 3H19.8144C21.0144 3 21.9844 3.97 21.9844 5.17Z" fill="#5A5BB5"/>
</svg>
