<svg width="25" height="24" viewBox="0 0 25 24" fill="none" xmlns="http://www.w3.org/2000/svg">
<g id="vuesax/outline/book-saved">
<g id="book-saved">
<path id="Vector" d="M12.2498 22.0795C11.9498 22.0795 11.6498 22.0095 11.3998 21.8695C9.52978 20.8495 6.24976 19.7695 4.18976 19.4995L3.89978 19.4595C2.58978 19.2995 1.50977 18.0695 1.50977 16.7395V4.6595C1.50977 3.8695 1.81977 3.14953 2.38977 2.62953C2.95977 2.10953 3.69974 1.85952 4.47974 1.92952C6.66974 2.10952 9.98975 3.20953 11.8698 4.37953L12.1097 4.51955C12.1797 4.54955 12.3298 4.55955 12.3898 4.51955L12.5497 4.41951C13.2197 3.99951 14.0597 3.5895 14.9797 3.2195C15.2097 3.1295 15.4697 3.15951 15.6797 3.29951C15.8897 3.43951 16.0098 3.66951 16.0098 3.91951V6.5995L16.8398 6.04951C17.0898 5.87951 17.4197 5.87951 17.6697 6.04951L18.4998 6.5995V2.77956C18.4998 2.41956 18.7597 2.1095 19.1097 2.0395C19.3997 1.9895 19.6898 1.94952 19.9498 1.92952C19.9698 1.92952 20.0498 1.92952 20.0698 1.92952C20.7998 1.86952 21.5497 2.11954 22.1097 2.63954C22.6797 3.15954 22.9897 3.87951 22.9897 4.66951V16.7395C22.9897 18.0795 21.9098 19.2995 20.5898 19.4595L20.2598 19.4995C18.1998 19.7695 14.8998 20.8595 13.0698 21.8695C12.8498 22.0095 12.5498 22.0795 12.2498 22.0795ZM4.22974 3.4095C3.90974 3.4095 3.61977 3.51951 3.38977 3.72951C3.13977 3.95951 2.99976 4.2895 2.99976 4.6595V16.7395C2.99976 17.3295 3.50977 17.8995 4.07977 17.9795L4.37976 18.0195C6.62976 18.3195 10.0798 19.4495 12.0798 20.5495C12.1698 20.5895 12.2997 20.5995 12.3497 20.5795C14.3597 19.4695 17.8198 18.3296 20.0798 18.0296L20.4197 17.9895C20.9897 17.9195 21.4998 17.3395 21.4998 16.7495V4.67952C21.4998 4.30952 21.3597 3.98953 21.1097 3.74953C20.8597 3.51953 20.5098 3.40952 20.1498 3.42952C20.1198 3.42952 20.0298 3.42952 20.0098 3.42952V7.99953C20.0098 8.27953 19.8597 8.5295 19.6097 8.6595C19.3597 8.7895 19.0698 8.77952 18.8398 8.61952L17.2598 7.56953L15.6797 8.61952C15.4497 8.76952 15.1597 8.7895 14.9097 8.6595C14.6697 8.5295 14.5098 8.27953 14.5098 7.99953V5.06953C14.0798 5.27953 13.6897 5.48953 13.3497 5.68953L13.1898 5.7895C12.6398 6.1295 11.8598 6.12951 11.3298 5.79951L11.0898 5.64955C9.39978 4.58955 6.31974 3.5695 4.35974 3.4095C4.30974 3.4095 4.26974 3.4095 4.22974 3.4095Z" fill="#010211"/>
<path id="Vector_2" d="M12.25 21.2402C11.84 21.2402 11.5 20.9002 11.5 20.4902V5.49023C11.5 5.08023 11.84 4.74023 12.25 4.74023C12.66 4.74023 13 5.08023 13 5.49023V20.4902C13 20.9102 12.66 21.2402 12.25 21.2402Z" fill="#010211"/>
<path id="Vector_3" d="M19.25 8.75048C19.1 8.75048 18.96 8.71047 18.83 8.62047L17.25 7.57048L15.67 8.62047C15.44 8.77047 15.15 8.79045 14.9 8.66045C14.66 8.53045 14.5 8.28048 14.5 8.00048V3.92046C14.5 3.61046 14.69 3.34045 14.97 3.22045C16.35 2.67045 17.86 2.24046 19.13 2.04046C19.35 2.00046 19.57 2.0705 19.74 2.2105C19.91 2.3505 20 2.56051 20 2.78051V8.00048C20 8.28048 19.85 8.53045 19.6 8.66045C19.49 8.72045 19.37 8.75048 19.25 8.75048ZM17.25 5.92046C17.39 5.92046 17.54 5.96046 17.67 6.05046L18.5 6.60045V3.69048C17.7 3.87048 16.83 4.13048 16 4.44048V6.60045L16.83 6.05046C16.96 5.96046 17.11 5.92046 17.25 5.92046Z" fill="#010211"/>
</g>
</g>
</svg>
