<svg width="14" height="15" viewBox="0 0 14 15" fill="none" xmlns="http://www.w3.org/2000/svg">
<path d="M9.33325 13.9372H4.66659C2.90492 13.9372 1.89575 12.928 1.89575 11.1663V5.47884C1.89575 3.64134 2.82909 2.70801 4.66659 2.70801C4.90575 2.70801 5.10409 2.90634 5.10409 3.14551C5.10409 3.37884 5.19742 3.60051 5.36075 3.76384C5.52409 3.92717 5.74575 4.02051 5.97908 4.02051H8.02075C8.50492 4.02051 8.89575 3.62967 8.89575 3.14551C8.89575 2.90634 9.09409 2.70801 9.33325 2.70801C11.1708 2.70801 12.1041 3.64134 12.1041 5.47884V11.1663C12.1041 12.928 11.0949 13.9372 9.33325 13.9372ZM4.2874 3.59468C3.36574 3.67051 2.77075 4.08467 2.77075 5.47884V11.1663C2.77075 12.4613 3.37159 13.0622 4.66659 13.0622H9.33325C10.6283 13.0622 11.2291 12.4613 11.2291 11.1663V5.47884C11.2291 4.08467 10.6341 3.67634 9.71243 3.59468C9.5141 4.34134 8.83158 4.89551 8.02075 4.89551H5.97908C5.51242 4.89551 5.07492 4.71467 4.74242 4.38217C4.52075 4.1605 4.36907 3.89218 4.2874 3.59468Z" fill="#010211"/>
<path d="M8.02067 4.89551H5.979C5.51234 4.89551 5.07484 4.71467 4.74234 4.38217C4.40984 4.04967 4.229 3.61217 4.229 3.14551C4.229 2.18301 5.0165 1.39551 5.979 1.39551H8.02067C8.48734 1.39551 8.92483 1.57634 9.25733 1.90884C9.58983 2.24134 9.77067 2.67884 9.77067 3.14551C9.77067 4.10801 8.98317 4.89551 8.02067 4.89551ZM5.979 2.27051C5.49484 2.27051 5.104 2.66134 5.104 3.14551C5.104 3.37884 5.19734 3.60051 5.36067 3.76384C5.52401 3.92717 5.74567 4.02051 5.979 4.02051H8.02067C8.50484 4.02051 8.89567 3.62967 8.89567 3.14551C8.89567 2.91217 8.80234 2.69051 8.639 2.52718C8.47567 2.36384 8.254 2.27051 8.02067 2.27051H5.979Z" fill="#010211"/>
<path d="M6.99984 8.6875H4.6665C4.42734 8.6875 4.229 8.48917 4.229 8.25C4.229 8.01083 4.42734 7.8125 4.6665 7.8125H6.99984C7.239 7.8125 7.43734 8.01083 7.43734 8.25C7.43734 8.48917 7.239 8.6875 6.99984 8.6875Z" fill="#010211"/>
<path d="M9.33317 11.021H4.6665C4.42734 11.021 4.229 10.8227 4.229 10.5835C4.229 10.3443 4.42734 10.146 4.6665 10.146H9.33317C9.57234 10.146 9.77067 10.3443 9.77067 10.5835C9.77067 10.8227 9.57234 11.021 9.33317 11.021Z" fill="#010211"/>
</svg>
