<svg width="36" height="37" viewBox="0 0 36 37" fill="none" xmlns="http://www.w3.org/2000/svg">
<path d="M17.7207 37C13.0252 37 8.32965 36.2544 3.87595 34.7631C2.18314 34.1787 0.893375 32.9897 0.329104 31.4379C-0.255319 29.8862 -0.0537939 28.1732 0.873222 26.6416L3.19076 22.7925C3.67442 21.9864 4.11778 20.3742 4.11778 19.427V13.603C4.11778 6.10621 10.224 0 17.7207 0C25.2175 0 31.3237 6.10621 31.3237 13.603V19.427C31.3237 20.354 31.767 21.9864 32.2507 22.8127L34.5481 26.6416C35.4146 28.0926 35.5759 29.8459 34.9914 31.4379C34.407 33.03 33.1374 34.2391 31.5454 34.7631C27.1118 36.2544 22.4163 37 17.7207 37ZM17.7207 3.02288C11.8967 3.02288 7.14066 7.75872 7.14066 13.603V19.427C7.14066 20.8982 6.53608 23.0746 5.79044 24.3442L3.4729 28.1934C3.02954 28.939 2.90863 29.725 3.17061 30.39C3.41244 31.0752 4.01702 31.5992 4.84327 31.8813C13.267 34.7026 22.1946 34.7026 30.6183 31.8813C31.3438 31.6395 31.9081 31.0953 32.1701 30.3698C32.4321 29.6444 32.3716 28.8584 31.9686 28.1934L29.651 24.3442C28.8852 23.0343 28.3008 20.878 28.3008 19.4069V13.603C28.3008 7.75872 23.565 3.02288 17.7207 3.02288Z" fill="#010211"/>
</svg>
