<svg width="390" height="561" viewBox="0 0 390 561" fill="none" xmlns="http://www.w3.org/2000/svg">
<path d="M398.012 80.1617C386.411 102.605 363.816 126.189 338.641 131.235C331.197 132.726 322.662 132.391 316.475 127.007C310.118 121.477 308.16 112.59 302.91 106.179C290.169 90.6217 268.154 92.8544 253.003 81.39C241.702 72.8365 236.251 57.677 237.083 43.5664C237.914 29.4558 244.306 16.377 252.72 5.4302C270.656 -17.907 299.136 -32.9742 328.607 -31.9509C358.079 -30.9277 387.583 -12.7325 400.474 14.872C410.499 36.3403 408.423 60.0208 398.011 80.1634L398.012 80.1617Z" fill="#5A5BB5" fill-opacity="0.1"/>
<path d="M43.8677 551.69C54.3759 543.577 64.4507 529.63 64.716 516.045C64.7941 512.028 63.828 507.61 60.4732 504.881C57.0277 502.077 52.258 501.875 48.4602 499.729C39.2446 494.521 38.3511 482.841 31.0245 476C25.5584 470.897 17.2259 469.452 10.0186 471.184C2.81128 472.916 -3.34647 477.452 -8.21578 482.845C-18.5965 494.342 -23.7279 510.572 -20.4606 525.838C-17.1932 541.104 -5.05787 554.806 10.3909 558.984C22.4055 562.232 34.4376 558.97 43.8685 551.689L43.8677 551.69Z" fill="#5A5BB5" fill-opacity="0.1"/>
<path d="M455.71 374.071C441.05 360.826 417.96 349.758 397.993 352.961C392.089 353.909 385.875 356.491 382.765 362.126C379.569 367.914 380.534 374.953 378.394 381.082C373.203 395.956 356.333 400.352 348.251 412.891C342.223 422.245 342.31 434.831 346.752 444.929C351.194 455.026 359.465 462.845 368.65 468.551C388.232 480.715 413.359 483.94 434.854 475.119C456.348 466.298 473.208 444.902 475.241 421.172C476.823 402.717 468.865 385.958 455.708 374.071L455.71 374.071Z" fill="#5A5BB5" fill-opacity="0.1"/>
</svg>
