<svg width="358" height="268" viewBox="0 0 358 268" fill="none" xmlns="http://www.w3.org/2000/svg">
<g clip-path="url(#clip0_1400_13991)">
<path d="M358 235.365H0V235.544H358V235.365Z" fill="#EBEBEB"/>
<path d="M322.128 246.885H298.415V247.064H322.128V246.885Z" fill="#EBEBEB"/>
<path d="M237.153 248.833H230.931V249.012H237.153V248.833Z" fill="#EBEBEB"/>
<path d="M297.699 240.241H283.958V240.42H297.699V240.241Z" fill="#EBEBEB"/>
<path d="M68.4856 241.444H37.5615V241.623H68.4856V241.444Z" fill="#EBEBEB"/>
<path d="M79.3975 241.444H74.8652V241.623H79.3975V241.444Z" fill="#EBEBEB"/>
<path d="M161.208 244.465H94.1328V244.644H161.208V244.465Z" fill="#EBEBEB"/>
<path d="M169.7 203.431H31.4399C29.1845 203.431 27.3516 201.598 27.3516 199.343V4.99897C27.3516 2.74357 29.1845 0.910614 31.4399 0.910614H169.7C171.955 0.910614 173.788 2.74357 173.788 4.99897V199.343C173.788 201.598 171.955 203.431 169.7 203.431ZM31.4399 1.08961C29.2848 1.08961 27.5306 2.84381 27.5306 4.99897V199.343C27.5306 201.498 29.2848 203.252 31.4399 203.252H169.7C171.855 203.252 173.609 201.498 173.609 199.343V4.99897C173.609 2.84381 171.855 1.08961 169.7 1.08961H31.4399Z" fill="#EBEBEB"/>
<path d="M324.57 203.431H186.311C184.055 203.431 182.222 201.598 182.222 199.343V4.99897C182.222 2.74357 184.055 0.910614 186.311 0.910614H324.57C326.826 0.910614 328.658 2.74357 328.658 4.99897V199.343C328.658 201.598 326.826 203.431 324.57 203.431ZM186.311 1.08961C184.155 1.08961 182.401 2.84381 182.401 4.99897V199.343C182.401 201.498 184.155 203.252 186.311 203.252H324.57C326.725 203.252 328.479 201.498 328.479 199.343V4.99897C328.479 2.84381 326.725 1.08961 324.57 1.08961H186.311Z" fill="#EBEBEB"/>
<path d="M201.239 197.811H249.992L249.992 31.6485H201.239L201.239 197.811Z" fill="#FAFAFA"/>
<path d="M200.108 37.5483L251.116 37.5483V29.3931L200.108 29.3931V37.5483Z" fill="#F0F0F0"/>
<path d="M200.108 42.5317L251.116 42.5317V38.4577L200.108 38.4577V42.5317Z" fill="#F0F0F0"/>
<path d="M200.108 48.5819L251.116 48.5819V44.5079L200.108 44.5079V48.5819Z" fill="#F0F0F0"/>
<path d="M200.108 54.6321L251.116 54.6321V50.5581L200.108 50.5581V54.6321Z" fill="#F0F0F0"/>
<path d="M200.108 60.6823L251.116 60.6823V56.6082L200.108 56.6082V60.6823Z" fill="#F0F0F0"/>
<path d="M200.108 66.7325H251.116V62.6584L200.108 62.6584V66.7325Z" fill="#F0F0F0"/>
<path d="M200.108 72.7899H251.116V68.7158H200.108V72.7899Z" fill="#F0F0F0"/>
<path d="M200.108 78.8401H251.116V74.766H200.108V78.8401Z" fill="#F0F0F0"/>
<path d="M200.108 84.8903H251.116V80.8162H200.108V84.8903Z" fill="#F0F0F0"/>
<path d="M200.108 90.9405H251.116V86.8664H200.108V90.9405Z" fill="#F0F0F0"/>
<path d="M200.108 96.9907H251.116V92.9166H200.108V96.9907Z" fill="#F0F0F0"/>
<path d="M200.108 103.034H251.116V98.9596H200.108V103.034Z" fill="#F0F0F0"/>
<path d="M200.108 109.091H251.116V105.017H200.108V109.091Z" fill="#F0F0F0"/>
<path d="M200.108 115.141H251.116V111.067H200.108V115.141Z" fill="#F0F0F0"/>
<path d="M200.108 121.191H251.116V117.117H200.108V121.191Z" fill="#F0F0F0"/>
<path d="M200.108 127.242H251.116V123.168H200.108V127.242Z" fill="#F0F0F0"/>
<path d="M200.108 133.292H251.116V129.218H200.108V133.292Z" fill="#F0F0F0"/>
<path d="M200.108 139.342H251.116V135.268H200.108V139.342Z" fill="#F0F0F0"/>
<path d="M200.108 145.399H251.116V141.325H200.108V145.399Z" fill="#F0F0F0"/>
<path d="M200.108 151.45H251.116V147.376H200.108V151.45Z" fill="#F0F0F0"/>
<path d="M200.108 157.5H251.116V153.426H200.108V157.5Z" fill="#F0F0F0"/>
<path d="M200.108 163.55H251.116V159.476H200.108V163.55Z" fill="#F0F0F0"/>
<path d="M200.108 169.6H251.116V165.526H200.108V169.6Z" fill="#F0F0F0"/>
<path d="M200.108 175.65H251.116V171.576H200.108V175.65Z" fill="#F0F0F0"/>
<path d="M200.108 181.701H251.116V177.627H200.108V181.701Z" fill="#F0F0F0"/>
<path d="M200.108 187.751H251.116V183.677H200.108V187.751Z" fill="#F0F0F0"/>
<path d="M200.108 193.801H251.116V189.727H200.108V193.801Z" fill="#F0F0F0"/>
<path d="M200.108 199.851H251.116V195.777H200.108V199.851Z" fill="#F0F0F0"/>
<path d="M262.17 197.811H310.923V31.6485H262.17V197.811Z" fill="#FAFAFA"/>
<path d="M261.04 37.5483L312.047 37.5483V29.3931L261.04 29.3931V37.5483Z" fill="#F0F0F0"/>
<path d="M261.04 42.5317L312.047 42.5317V38.4577L261.04 38.4577V42.5317Z" fill="#F0F0F0"/>
<path d="M261.04 48.5819L312.047 48.5819V44.5079L261.04 44.5079V48.5819Z" fill="#F0F0F0"/>
<path d="M261.04 54.6321L312.047 54.6321V50.5581L261.04 50.5581V54.6321Z" fill="#F0F0F0"/>
<path d="M261.04 60.6823L312.047 60.6823V56.6082L261.04 56.6082V60.6823Z" fill="#F0F0F0"/>
<path d="M261.04 66.7325H312.047V62.6584L261.04 62.6584V66.7325Z" fill="#F0F0F0"/>
<path d="M261.04 72.7899H312.047V68.7158H261.04V72.7899Z" fill="#F0F0F0"/>
<path d="M261.04 78.8401H312.047V74.766H261.04V78.8401Z" fill="#F0F0F0"/>
<path d="M261.04 84.8903H312.047V80.8162H261.04V84.8903Z" fill="#F0F0F0"/>
<path d="M261.04 90.9405H312.047V86.8664H261.04V90.9405Z" fill="#F0F0F0"/>
<path d="M261.04 96.9907H312.047V92.9166H261.04V96.9907Z" fill="#F0F0F0"/>
<path d="M261.04 103.034H312.047V98.9596H261.04V103.034Z" fill="#F0F0F0"/>
<path d="M261.04 109.091H312.047V105.017H261.04V109.091Z" fill="#F0F0F0"/>
<path d="M261.04 115.141H312.047V111.067H261.04V115.141Z" fill="#F0F0F0"/>
<path d="M261.04 121.191H312.047V117.117H261.04V121.191Z" fill="#F0F0F0"/>
<path d="M261.04 127.242H312.047V123.168H261.04V127.242Z" fill="#F0F0F0"/>
<path d="M261.04 133.292H312.047V129.218H261.04V133.292Z" fill="#F0F0F0"/>
<path d="M261.04 139.342H312.047V135.268H261.04V139.342Z" fill="#F0F0F0"/>
<path d="M261.04 145.399H312.047V141.325H261.04V145.399Z" fill="#F0F0F0"/>
<path d="M261.04 151.45H312.047V147.376H261.04V151.45Z" fill="#F0F0F0"/>
<path d="M261.04 157.5H312.047V153.426H261.04V157.5Z" fill="#F0F0F0"/>
<path d="M261.04 163.55H312.047V159.476H261.04V163.55Z" fill="#F0F0F0"/>
<path d="M261.04 169.6H312.047V165.526H261.04V169.6Z" fill="#F0F0F0"/>
<path d="M261.04 175.65H312.047V171.576H261.04V175.65Z" fill="#F0F0F0"/>
<path d="M261.04 181.701H312.047V177.627H261.04V181.701Z" fill="#F0F0F0"/>
<path d="M261.04 187.751H312.047V183.677H261.04V187.751Z" fill="#F0F0F0"/>
<path d="M261.04 193.801H312.047V189.727H261.04V193.801Z" fill="#F0F0F0"/>
<path d="M261.04 199.851H312.047V195.777H261.04V199.851Z" fill="#F0F0F0"/>
<path d="M110.65 198.835H159.403L159.403 32.6724H110.65L110.65 198.835Z" fill="#FAFAFA"/>
<path d="M109.52 38.5722L160.527 38.5722V30.417L109.52 30.417V38.5722Z" fill="#F0F0F0"/>
<path d="M109.52 40.2262L160.527 40.2262V39.4744L109.52 39.4744V40.2262Z" fill="#F0F0F0"/>
<path d="M109.52 41.9231L160.527 41.9231V41.1713L109.52 41.1713V41.9231Z" fill="#F0F0F0"/>
<path d="M109.52 43.6272L160.527 43.6272V42.8754L109.52 42.8754V43.6272Z" fill="#F0F0F0"/>
<path d="M109.52 45.3313L160.527 45.3313V44.5795L109.52 44.5795V45.3313Z" fill="#F0F0F0"/>
<path d="M109.52 47.0354L160.527 47.0354V46.2836L109.52 46.2836V47.0354Z" fill="#F0F0F0"/>
<path d="M109.52 48.7323L160.527 48.7323V47.9805L109.52 47.9805V48.7323Z" fill="#F0F0F0"/>
<path d="M109.52 50.4364L160.527 50.4364V49.6846L109.52 49.6846V50.4364Z" fill="#F0F0F0"/>
<path d="M109.52 52.1476L160.527 52.1476V51.3958L109.52 51.3958V52.1476Z" fill="#F0F0F0"/>
<path d="M109.52 53.8445L160.527 53.8445V53.0927L109.52 53.0927V53.8445Z" fill="#F0F0F0"/>
<path d="M109.52 55.5486L160.527 55.5486V54.7968L109.52 54.7968V55.5486Z" fill="#F0F0F0"/>
<path d="M109.52 57.2455L160.527 57.2455V56.4937L109.52 56.4937V57.2455Z" fill="#F0F0F0"/>
<path d="M109.52 58.9568L160.527 58.9568V58.205L109.52 58.205V58.9568Z" fill="#F0F0F0"/>
<path d="M109.52 60.6537L160.527 60.6537V59.9019L109.52 59.9019V60.6537Z" fill="#F0F0F0"/>
<path d="M109.52 62.3578L160.527 62.3578V61.606L109.52 61.606V62.3578Z" fill="#F0F0F0"/>
<path d="M109.52 64.0547H160.527V63.3029L109.52 63.3029V64.0547Z" fill="#F0F0F0"/>
<path d="M109.52 65.7588H160.527V65.007H109.52V65.7588Z" fill="#F0F0F0"/>
<path d="M109.52 67.4629H160.527V66.7111H109.52V67.4629Z" fill="#F0F0F0"/>
<path d="M109.52 69.1669H160.527V68.4151H109.52V69.1669Z" fill="#F0F0F0"/>
<path d="M49.7119 198.835H98.4644L98.4644 32.6724H49.7119L49.7119 198.835Z" fill="#FAFAFA"/>
<path d="M48.581 38.5722L99.5889 38.5722V30.417L48.581 30.417V38.5722Z" fill="#F0F0F0"/>
<path d="M48.581 40.2262L99.5889 40.2262V39.4744L48.581 39.4744V40.2262Z" fill="#F0F0F0"/>
<path d="M48.581 41.9231L99.5889 41.9231V41.1713L48.581 41.1713V41.9231Z" fill="#F0F0F0"/>
<path d="M48.581 43.6272L99.5889 43.6272V42.8754L48.581 42.8754V43.6272Z" fill="#F0F0F0"/>
<path d="M48.581 45.3313L99.5889 45.3313V44.5795L48.581 44.5795V45.3313Z" fill="#F0F0F0"/>
<path d="M48.581 47.0353L99.5889 47.0353V46.2835L48.581 46.2835V47.0353Z" fill="#F0F0F0"/>
<path d="M48.581 48.7323L99.5889 48.7323V47.9805L48.581 47.9805V48.7323Z" fill="#F0F0F0"/>
<path d="M48.581 50.4364L99.5889 50.4364V49.6846L48.581 49.6846V50.4364Z" fill="#F0F0F0"/>
<path d="M48.581 52.1476L99.5889 52.1476V51.3958L48.581 51.3958V52.1476Z" fill="#F0F0F0"/>
<path d="M48.581 53.8445L99.5889 53.8445V53.0927L48.581 53.0927V53.8445Z" fill="#F0F0F0"/>
<path d="M48.581 55.5486L99.5889 55.5486V54.7968L48.581 54.7968V55.5486Z" fill="#F0F0F0"/>
<path d="M48.581 57.2455L99.5889 57.2455V56.4937L48.581 56.4937V57.2455Z" fill="#F0F0F0"/>
<path d="M48.581 58.9568L99.5889 58.9568V58.205L48.581 58.205V58.9568Z" fill="#F0F0F0"/>
<path d="M48.581 60.6537L99.5889 60.6537V59.9019L48.581 59.9019V60.6537Z" fill="#F0F0F0"/>
<path d="M48.581 62.3578L99.5889 62.3578V61.606L48.581 61.606V62.3578Z" fill="#F0F0F0"/>
<path d="M48.581 64.0547H99.5889V63.3029L48.581 63.3029V64.0547Z" fill="#F0F0F0"/>
<path d="M48.581 65.7588H99.5889V65.007H48.581V65.7588Z" fill="#F0F0F0"/>
<path d="M48.581 67.4628H99.5889V66.711H48.581V67.4628Z" fill="#F0F0F0"/>
<path d="M48.581 69.1669H99.5889V68.4151H48.581V69.1669Z" fill="#F0F0F0"/>
<path d="M179.86 219.534C179.86 219.534 176.466 212.123 180.346 204.82C184.227 197.517 185.351 195.792 182.881 194.295C180.411 192.799 179.272 200.138 179.272 200.138C179.272 200.138 177.189 195.09 178.907 189.806C180.626 184.522 181.707 175.915 179.358 174.992C177.01 174.068 178.907 185.732 176.867 189.706C176.867 189.706 175.155 185.281 174.869 181.035C174.59 176.789 175.027 170.008 173.172 168.276C171.318 166.536 170.129 167.739 171.948 177.104C173.774 186.469 173.759 194.087 173.759 194.087C173.759 194.087 169.728 181.801 167.022 181.443C164.315 181.085 164.322 185.066 166.635 188.517C168.948 191.968 173.416 198.154 174.146 201.333C174.146 201.333 169.721 192.083 165.74 194.918C161.759 197.753 169.205 203.338 172.521 205.357C175.836 207.376 178.141 220.028 178.141 220.028L179.852 219.541L179.86 219.534Z" fill="#E0E0E0"/>
<path d="M177.182 222.577C177.182 222.577 180.49 215.116 176.523 207.87C172.557 200.625 171.411 198.92 173.867 197.388C176.323 195.856 177.547 203.181 177.547 203.181C177.547 203.181 179.573 198.097 177.783 192.842C176.001 187.586 174.819 178.994 177.153 178.035C179.495 177.075 177.733 188.768 179.817 192.713C179.817 192.713 181.478 188.259 181.707 184.013C181.936 179.767 181.414 172.994 183.254 171.226C185.087 169.457 186.297 170.646 184.578 180.04C182.867 189.433 182.967 197.045 182.967 197.045C182.967 197.045 186.848 184.701 189.547 184.3C192.247 183.899 192.29 187.88 190.02 191.367C187.743 194.854 183.354 201.104 182.659 204.298C182.659 204.298 186.97 194.982 190.986 197.761C194.996 200.539 187.621 206.231 184.335 208.3C181.048 210.369 178.893 223.05 178.893 223.05L177.182 222.584V222.577Z" fill="#EBEBEB"/>
<path d="M192.433 217.257H165.117L167.322 236.804H190.22L192.433 217.257Z" fill="#EBEBEB"/>
<path d="M179 267.699C255.671 267.699 317.825 264.071 317.825 259.594C317.825 255.118 255.671 251.489 179 251.489C102.329 251.489 40.1748 255.118 40.1748 259.594C40.1748 264.071 102.329 267.699 179 267.699Z" fill="#F5F5F5"/>
<path d="M278.281 178.378C278.281 178.378 260.56 174.791 243.454 176.531C226.349 178.264 251.502 200.617 251.502 200.617H255.032C255.032 200.617 241.7 186.448 242.445 182.918C243.19 179.388 276.756 184.042 276.756 184.042L278.274 178.378H278.281Z" fill="#263238"/>
<path opacity="0.2" d="M278.281 178.378C278.281 178.378 260.56 174.791 243.454 176.531C226.349 178.264 251.502 200.617 251.502 200.617H255.032C255.032 200.617 241.7 186.448 242.445 182.918C243.19 179.388 276.756 184.042 276.756 184.042L278.274 178.378H278.281Z" fill="white"/>
<path d="M271.887 199.844C271.887 199.844 280.185 170.316 281.56 132.927C281.725 128.466 285.405 124.936 289.873 124.936H304.78C309.362 124.936 313.078 128.631 313.1 133.213C313.157 146.796 312.212 177.276 304.551 199.844H271.887Z" fill="#263238"/>
<path opacity="0.4" d="M271.887 199.844C271.887 199.844 280.185 170.316 281.56 132.927C281.725 128.466 285.405 124.936 289.873 124.936H304.78C309.362 124.936 313.078 128.631 313.1 133.213C313.157 146.796 312.212 177.276 304.551 199.844H271.887Z" fill="white"/>
<path d="M267.534 196.056C269.954 186.892 275.41 163.192 276.562 131.881C276.741 127.041 280.729 123.218 285.577 123.218H301.744C306.706 123.218 310.744 127.227 310.766 132.189C310.83 146.917 309.799 177.018 301.493 201.484L270.727 200.352C268.536 200.274 266.982 198.183 267.541 196.056H267.534Z" fill="#5A5BB5"/>
<path opacity="0.2" d="M267.534 196.056C269.954 186.892 275.41 163.192 276.562 131.881C276.741 127.041 280.729 123.218 285.577 123.218H301.744C306.706 123.218 310.744 127.227 310.766 132.189C310.83 146.917 309.799 177.018 301.493 201.484L270.727 200.352C268.536 200.274 266.982 198.183 267.541 196.056H267.534Z" fill="black"/>
<path d="M299.539 200.553H244.858V192.011C244.858 190.035 246.461 188.431 248.438 188.431H295.959C297.935 188.431 299.539 190.035 299.539 192.011V200.553Z" fill="#5A5BB5"/>
<path d="M297.756 243.176L280.235 241.451V216.828H273.29V241.444L255.698 243.169C253.951 243.341 252.619 244.809 252.619 246.563V249.191H300.835V246.563C300.835 244.809 299.503 243.341 297.756 243.169V243.176Z" fill="#263238"/>
<path opacity="0.4" d="M297.756 243.176L280.235 241.451V216.828H273.29V241.444L255.698 243.169C253.951 243.341 252.619 244.809 252.619 246.563V249.191H300.835V246.563C300.835 244.809 299.503 243.341 297.756 243.169V243.176Z" fill="white"/>
<path d="M259.013 252.463C259.013 254.969 256.98 257.002 254.474 257.002C251.968 257.002 249.935 254.969 249.935 252.463C249.935 249.957 251.968 247.923 254.474 247.923C256.98 247.923 259.013 249.957 259.013 252.463Z" fill="#263238"/>
<path opacity="0.4" d="M254.474 254.854C253.157 254.854 252.083 253.78 252.083 252.463C252.083 251.145 253.157 250.071 254.474 250.071C255.791 250.071 256.865 251.145 256.865 252.463C256.865 253.78 255.791 254.854 254.474 254.854Z" fill="white"/>
<path d="M294.44 252.463C294.44 254.969 296.474 257.002 298.98 257.002C301.486 257.002 303.519 254.969 303.519 252.463C303.519 249.957 301.486 247.923 298.98 247.923C296.474 247.923 294.44 249.957 294.44 252.463Z" fill="#263238"/>
<path opacity="0.4" d="M298.98 254.854C297.663 254.854 296.589 253.78 296.589 252.463C296.589 251.145 297.663 250.071 298.98 250.071C300.298 250.071 301.372 251.145 301.372 252.463C301.372 253.78 300.298 254.854 298.98 254.854Z" fill="white"/>
<path d="M272.094 200.188H281.431V219.162C281.431 220.794 280.106 222.119 278.474 222.119H275.058C273.426 222.119 272.101 220.794 272.101 219.162V200.188H272.094Z" fill="#263238"/>
<path opacity="0.2" d="M272.094 200.188H281.431V219.162C281.431 220.794 280.106 222.119 278.474 222.119H275.058C273.426 222.119 272.101 220.794 272.101 219.162V200.188H272.094Z" fill="white"/>
<path d="M244.349 202.708H303.699C304.493 202.708 305.138 202.064 305.138 201.269V200.596C305.138 199.801 304.493 199.157 303.699 199.157H244.349C243.554 199.157 242.91 199.801 242.91 200.596V201.269C242.91 202.064 243.554 202.708 244.349 202.708Z" fill="#263238"/>
<g opacity="0.4">
<path d="M244.35 202.708H303.699C304.494 202.708 305.138 202.064 305.138 201.269V200.596C305.138 199.801 304.494 199.157 303.699 199.157H244.35C243.555 199.157 242.911 199.801 242.911 200.596V201.269C242.911 202.064 243.555 202.708 244.35 202.708Z" fill="white"/>
</g>
<path d="M309.785 178.378C309.785 178.378 292.064 174.791 274.958 176.531C257.853 178.264 283.006 200.617 283.006 200.617H286.536C286.536 200.617 273.204 186.448 273.949 182.918C274.693 179.388 308.26 184.042 308.26 184.042L309.777 178.378H309.785Z" fill="#263238"/>
<path opacity="0.4" d="M309.785 178.378C309.785 178.378 292.064 174.791 274.958 176.531C257.853 178.264 283.006 200.617 283.006 200.617H286.536C286.536 200.617 273.204 186.448 273.949 182.918C274.693 179.388 308.26 184.042 308.26 184.042L309.777 178.378H309.785Z" fill="white"/>
<path d="M91.1394 182.216V182.939H80.2275V182.388C80.2275 181.063 81.6023 179.975 83.3636 179.903L83.9436 179.882L87.6381 179.732C89.5427 179.653 91.1394 180.784 91.1394 182.216Z" fill="#263238"/>
<path opacity="0.2" d="M86.1131 182.216V182.939H80.2275V182.388C80.2275 181.063 81.6023 179.975 83.3636 179.903L83.9436 179.882C85.2037 180.226 86.1131 181.142 86.1131 182.216Z" fill="white"/>
<path d="M180.117 256.967H181.212C181.348 256.967 181.463 256.859 181.463 256.716L183.196 189.491H178.119L179.852 256.716C179.852 256.852 179.966 256.967 180.102 256.967H180.117Z" fill="#263238"/>
<path d="M219.268 256.967H221.802L214.642 189.491H209.566L219.268 256.967Z" fill="#263238"/>
<path d="M55.8336 256.967L65.5569 189.491H60.4876L53.3276 256.967H55.8336Z" fill="#263238"/>
<path d="M93.0012 256.967H95.9154H95.9225L96.9965 189.491H91.9272L93.0012 256.967Z" fill="#263238"/>
<g opacity="0.4">
<path d="M219.268 256.967H221.802L214.642 189.491H209.566L219.268 256.967Z" fill="white"/>
</g>
<path opacity="0.4" d="M93.0012 256.967H95.9154H95.9225L96.9965 189.491H91.9272L93.0012 256.967Z" fill="white"/>
<g opacity="0.2">
<path d="M180.117 256.967H181.212C181.348 256.967 181.463 256.859 181.463 256.716L183.196 189.491H178.119L179.852 256.716C179.852 256.852 179.966 256.967 180.102 256.967H180.117Z" fill="white"/>
</g>
<path opacity="0.2" d="M55.8336 256.967L65.5569 189.491H60.4876L53.3276 256.967H55.8336Z" fill="white"/>
<path d="M101.836 183.312H116.278L118.577 163.149C118.541 162.397 117.918 161.803 117.166 161.803H107.493C106.741 161.803 106.118 162.397 106.082 163.149L101.844 183.312H101.836Z" fill="#263238"/>
<path d="M79.7981 132.146H83.3996L87.4521 170.223H83.8507C83.2564 170.223 82.7194 169.736 82.6549 169.142L78.8315 133.227C78.7671 132.633 79.2038 132.146 79.7981 132.146Z" fill="#263238"/>
<path d="M85.376 170.23H139.405C140 170.23 140.436 169.743 140.372 169.149L136.549 133.235C136.484 132.64 135.947 132.153 135.353 132.153H81.3235C80.7292 132.153 80.2925 132.64 80.3569 133.235L84.1803 169.149C84.2448 169.743 84.7818 170.23 85.376 170.23Z" fill="#263238"/>
<path d="M101.199 183.312H119.15C119.529 183.312 119.837 183.004 119.837 182.624V182.431C119.837 182.051 119.529 181.744 119.15 181.744H101.199C100.82 181.744 100.512 182.051 100.512 182.431V182.624C100.512 183.004 100.82 183.312 101.199 183.312Z" fill="#263238"/>
<path opacity="0.2" d="M85.376 170.23H139.405C140 170.23 140.436 169.743 140.372 169.149L136.549 133.235C136.484 132.64 135.947 132.153 135.353 132.153H81.3235C80.7292 132.153 80.2925 132.64 80.3569 133.235L84.1803 169.149C84.2448 169.743 84.7818 170.23 85.376 170.23Z" fill="white"/>
<path d="M86.3852 166.715H137.336C137.858 166.715 138.238 166.292 138.181 165.77L134.844 134.43C134.787 133.908 134.321 133.485 133.799 133.485H82.8482C82.3255 133.485 81.946 133.908 82.0033 134.43L85.3398 165.77C85.3971 166.292 85.8625 166.715 86.3852 166.715Z" fill="#5A5BB5"/>
<path opacity="0.2" d="M101.199 183.312H119.15C119.529 183.312 119.837 183.004 119.837 182.624V182.431C119.837 182.051 119.529 181.744 119.15 181.744H101.199C100.82 181.744 100.512 182.051 100.512 182.431V182.624C100.512 183.004 100.82 183.312 101.199 183.312Z" fill="white"/>
<path opacity="0.2" d="M86.3852 166.715H137.336C137.858 166.715 138.238 166.292 138.181 165.77L134.844 134.43C134.787 133.908 134.321 133.485 133.799 133.485H82.8482C82.3255 133.485 81.946 133.908 82.0033 134.43L85.3398 165.77C85.3971 166.292 85.8625 166.715 86.3852 166.715Z" fill="black"/>
<path d="M101.536 182.861H88.9913H57.5518V189.491H88.9913H101.536H217.578V182.861H101.536Z" fill="#5A5BB5"/>
<path d="M134.078 181.665H135.424C135.567 181.665 135.682 181.55 135.682 181.407V179.982C135.682 179.839 135.567 179.724 135.424 179.724H134.458C134.343 179.724 134.236 179.803 134.207 179.918L133.828 181.343C133.785 181.507 133.906 181.665 134.078 181.665Z" fill="#5A5BB5"/>
<path d="M132.216 181.665H133.562C133.706 181.665 133.82 181.55 133.82 181.407V179.982C133.82 179.839 133.706 179.724 133.562 179.724H132.596C132.481 179.724 132.374 179.803 132.345 179.918L131.966 181.343C131.923 181.507 132.044 181.665 132.216 181.665Z" fill="#5A5BB5"/>
<path d="M130.355 181.665H131.701C131.844 181.665 131.959 181.55 131.959 181.407V179.982C131.959 179.839 131.844 179.724 131.701 179.724H130.734C130.62 179.724 130.513 179.803 130.484 179.918L130.104 181.343C130.061 181.507 130.183 181.665 130.355 181.665Z" fill="#5A5BB5"/>
<path d="M128.493 181.665H129.839C129.982 181.665 130.097 181.55 130.097 181.407V179.982C130.097 179.839 129.982 179.724 129.839 179.724H128.873C128.758 179.724 128.651 179.803 128.622 179.918L128.243 181.343C128.2 181.507 128.321 181.665 128.493 181.665Z" fill="#5A5BB5"/>
<path d="M126.631 181.665H127.977C128.121 181.665 128.235 181.55 128.235 181.407V179.982C128.235 179.839 128.121 179.724 127.977 179.724H127.011C126.896 179.724 126.789 179.803 126.76 179.918L126.381 181.343C126.338 181.507 126.46 181.665 126.631 181.665Z" fill="#5A5BB5"/>
<path d="M124.77 181.665H126.116C126.259 181.665 126.374 181.55 126.374 181.407V179.982C126.374 179.839 126.259 179.724 126.116 179.724H125.149C125.035 179.724 124.928 179.803 124.899 179.918L124.519 181.343C124.476 181.507 124.598 181.665 124.77 181.665Z" fill="#5A5BB5"/>
<path d="M122.909 181.665H124.255C124.398 181.665 124.513 181.55 124.513 181.407V179.982C124.513 179.839 124.398 179.724 124.255 179.724H123.288C123.174 179.724 123.066 179.803 123.038 179.918L122.658 181.343C122.615 181.507 122.737 181.665 122.909 181.665Z" fill="#5A5BB5"/>
<path d="M121.047 181.665H122.393C122.536 181.665 122.651 181.55 122.651 181.407V179.982C122.651 179.839 122.536 179.724 122.393 179.724H121.426C121.312 179.724 121.204 179.803 121.176 179.918L120.796 181.343C120.753 181.507 120.875 181.665 121.047 181.665Z" fill="#5A5BB5"/>
<path d="M119.185 181.665H120.531C120.674 181.665 120.789 181.55 120.789 181.407V179.982C120.789 179.839 120.674 179.724 120.531 179.724H119.565C119.45 179.724 119.343 179.803 119.314 179.918L118.934 181.343C118.891 181.507 119.013 181.665 119.185 181.665Z" fill="#5A5BB5"/>
<path d="M117.324 181.665H118.67C118.813 181.665 118.928 181.55 118.928 181.407V179.982C118.928 179.839 118.813 179.724 118.67 179.724H117.703C117.589 179.724 117.481 179.803 117.453 179.918L117.073 181.343C117.03 181.507 117.152 181.665 117.324 181.665Z" fill="#5A5BB5"/>
<path d="M115.462 181.665H116.808C116.952 181.665 117.066 181.55 117.066 181.407V179.982C117.066 179.839 116.952 179.724 116.808 179.724H115.842C115.727 179.724 115.62 179.803 115.591 179.918L115.212 181.343C115.169 181.507 115.291 181.665 115.462 181.665Z" fill="#5A5BB5"/>
<path d="M113.601 181.665H114.947C115.09 181.665 115.204 181.55 115.204 181.407V179.982C115.204 179.839 115.09 179.724 114.947 179.724H113.98C113.866 179.724 113.758 179.803 113.729 179.918L113.35 181.343C113.307 181.507 113.429 181.665 113.601 181.665Z" fill="#5A5BB5"/>
<path d="M111.739 181.665H113.085C113.228 181.665 113.343 181.55 113.343 181.407V179.982C113.343 179.839 113.228 179.724 113.085 179.724H112.118C112.004 179.724 111.896 179.803 111.868 179.918L111.488 181.343C111.445 181.507 111.567 181.665 111.739 181.665Z" fill="#5A5BB5"/>
<path d="M109.87 181.665H111.216C111.359 181.665 111.474 181.55 111.474 181.407V179.982C111.474 179.839 111.359 179.724 111.216 179.724H110.25C110.135 179.724 110.028 179.803 109.999 179.918L109.62 181.343C109.577 181.507 109.698 181.665 109.87 181.665Z" fill="#5A5BB5"/>
<path d="M108.008 181.665H109.354C109.498 181.665 109.612 181.55 109.612 181.407V179.982C109.612 179.839 109.498 179.724 109.354 179.724H108.388C108.273 179.724 108.166 179.803 108.137 179.918L107.758 181.343C107.715 181.507 107.836 181.665 108.008 181.665Z" fill="#5A5BB5"/>
<path d="M106.655 182.932H136.785V180.691H106.655V182.932Z" fill="#263238"/>
<path opacity="0.2" d="M106.655 182.932H136.785V180.691H106.655V182.932Z" fill="white"/>
<path opacity="0.2" d="M106.663 182.932H116.422V180.691H106.663V182.932Z" fill="white"/>
<path opacity="0.2" d="M88.9917 189.491L217.578 189.491V182.853L88.9917 182.853V189.491Z" fill="white"/>
<path d="M63.1867 246.184C63.6307 245.446 63.0077 244.329 62.1485 244.322C62.528 243.262 62.1485 241.981 61.2679 241.286C61.1533 241.2 61.0244 241.114 60.8884 241.114C60.738 241.114 60.602 241.207 60.4803 241.293C59.6712 241.873 58.8549 242.46 58.0459 243.04C57.8597 243.176 57.6664 243.312 57.5661 243.52C57.0721 244.487 58.8621 245.718 58.1246 246.513C57.9098 246.742 57.5733 246.785 57.3084 246.957C56.7284 247.322 56.6568 248.117 56.3919 248.74C56.127 249.363 55.1819 249.857 54.8239 249.277C55.0888 248.675 54.2869 248.16 53.6353 248.081C52.9909 248.002 52.2964 247.966 51.9384 247.358C51.0147 248.167 48.9383 245.904 48.9813 244.995C48.2223 245.052 47.6997 245.768 47.535 246.477C47.3631 247.215 47.4705 247.988 47.4562 248.747C47.4347 250.222 46.955 251.668 46.9837 253.143C47.0051 254.289 47.4491 255.563 48.5016 256.029C49.0099 256.251 49.5827 256.251 50.1341 256.251C54.1222 256.222 58.1175 256.2 62.1056 256.172C62.392 256.172 62.6927 256.172 62.9505 256.029C63.4875 255.749 63.602 255.041 63.6521 254.432C63.8669 251.833 64.0817 249.234 64.2965 246.628C63.9385 246.477 63.5734 246.334 63.2154 246.184H63.1867Z" fill="#5A5BB5"/>
<path opacity="0.3" d="M63.1867 246.184C63.6307 245.446 63.0077 244.329 62.1485 244.322C62.528 243.262 62.1485 241.981 61.2679 241.286C61.1533 241.2 61.0244 241.114 60.8884 241.114C60.738 241.114 60.602 241.207 60.4803 241.293C59.6712 241.873 58.8549 242.46 58.0459 243.04C57.8597 243.176 57.6664 243.312 57.5661 243.52C57.0721 244.487 58.8621 245.718 58.1246 246.513C57.9098 246.742 57.5733 246.785 57.3084 246.957C56.7284 247.322 56.6568 248.117 56.3919 248.74C56.127 249.363 55.1819 249.857 54.8239 249.277C55.0888 248.675 54.2869 248.16 53.6353 248.081C52.9909 248.002 52.2964 247.966 51.9384 247.358C51.0147 248.167 48.9383 245.904 48.9813 244.995C48.2223 245.052 47.6997 245.768 47.535 246.477C47.3631 247.215 47.4705 247.988 47.4562 248.747C47.4347 250.222 46.955 251.668 46.9837 253.143C47.0051 254.289 47.4491 255.563 48.5016 256.029C49.0099 256.251 49.5827 256.251 50.1341 256.251C54.1222 256.222 58.1175 256.2 62.1056 256.172C62.392 256.172 62.6927 256.172 62.9505 256.029C63.4875 255.749 63.602 255.041 63.6521 254.432C63.8669 251.833 64.0817 249.234 64.2965 246.628C63.9385 246.477 63.5734 246.334 63.2154 246.184H63.1867Z" fill="white"/>
<path d="M63.8816 233.532H45.3086L45.459 235.408L45.5664 236.747L45.8528 240.234L46.0174 242.238L46.2322 244.902L46.3253 246.048L46.354 246.391L46.4614 247.737L46.6117 249.577L46.7048 250.723L46.7979 251.883L46.9053 253.229L46.9912 254.246L47.0843 255.391L47.1201 255.885H64.168L64.211 255.391L64.3041 254.253L64.39 253.229L64.4974 251.883L64.5905 250.723L64.6836 249.577L64.8339 247.73L64.9413 246.391L64.97 246.048L65.063 244.902L65.2778 242.238L65.4425 240.241L65.7218 236.747L65.8292 235.408L65.9795 233.532H63.8888H63.8816ZM64.9986 234.763L64.6406 234.405H65.0272L64.9986 234.763ZM64.9055 235.902L64.8697 236.353L63.2086 238.014L61.304 236.109L63.0081 234.405H63.4091L64.9055 235.902ZM64.4258 241.845L63.2086 243.062L61.304 241.157L63.2086 239.253L64.526 240.57L64.4258 241.845ZM46.7549 240.57L48.0724 239.253L49.9769 241.157L48.0724 243.062L46.8623 241.845L46.7549 240.57ZM62.5928 238.63L60.6883 240.534L58.7837 238.63L60.6883 236.725L62.5928 238.63ZM59.6 234.405H61.7838L60.6954 235.494L59.6071 234.405H59.6ZM60.0654 241.157L58.1608 243.062L56.2562 241.157L58.1608 239.253L60.0654 241.157ZM53.7359 243.678L55.6405 241.773L57.545 243.678L55.6405 245.582L53.7359 243.678ZM55.0247 246.198L53.1202 248.102L51.2156 246.198L53.1202 244.293L55.0247 246.198ZM58.168 244.3L60.0725 246.205L58.168 248.11L56.2634 246.205L58.168 244.3ZM55.6405 240.541L53.7359 238.637L55.6405 236.732L57.545 238.637L55.6405 240.541ZM55.0247 241.157L53.1202 243.062L51.2156 241.157L53.1202 239.253L55.0247 241.157ZM50.5927 240.541L48.6881 238.637L50.5927 236.732L52.4972 238.637L50.5927 240.541ZM50.5927 241.773L52.4972 243.678L50.5927 245.582L48.6881 243.678L50.5927 241.773ZM52.4972 248.725L50.5927 250.63L48.6881 248.725L50.5927 246.821L52.4972 248.725ZM53.113 249.341L55.0176 251.246L53.113 253.15L51.2084 251.246L53.113 249.341ZM53.7359 248.725L55.6405 246.821L57.545 248.725L55.6405 250.63L53.7359 248.725ZM58.168 249.341L60.0725 251.246L58.168 253.15L56.2634 251.246L58.168 249.341ZM60.6883 251.869L62.5928 253.773L61.3542 255.012H60.0081L58.7766 253.773L60.6811 251.869H60.6883ZM58.7837 248.725L60.6883 246.821L62.5928 248.725L60.6883 250.63L58.7837 248.725ZM58.7837 243.678L60.6883 241.773L62.5928 243.678L60.6883 245.582L58.7837 243.678ZM60.0654 236.109L58.1608 238.014L56.2562 236.109L57.9603 234.405H58.3613L60.0654 236.109ZM55.6405 235.494L54.5522 234.405H56.7288L55.6405 235.494ZM55.0247 236.109L53.1202 238.014L51.2156 236.109L52.9197 234.405H53.3206L55.0247 236.109ZM51.681 234.405L50.5927 235.494L49.5044 234.405H51.681ZM48.2728 234.405L49.9769 236.109L48.0724 238.014L46.4112 236.353L46.3754 235.902L47.8647 234.405H48.2657H48.2728ZM46.6404 234.405L46.2895 234.756L46.2609 234.405H46.6475H46.6404ZM46.5186 237.699L47.4494 238.63L46.6547 239.425L46.5186 237.699ZM47.0413 244.093L46.9697 243.191L47.4566 243.678L47.0413 244.093ZM47.1344 245.238L48.0724 244.293L49.9769 246.198L48.0724 248.102L47.3062 247.336L47.1344 245.238ZM47.4136 248.768V248.682L47.4566 248.725L47.4136 248.761V248.768ZM47.7502 252.828L47.5067 249.907L48.0724 249.341L49.9769 251.246L48.0724 253.15L47.7502 252.828ZM47.922 255.005L47.8862 254.568L48.0724 254.382L48.6953 255.005H47.9292H47.922ZM48.6881 253.773L50.5927 251.869L52.4972 253.773L51.2657 255.012H49.9196L48.6881 253.773ZM52.4972 255.005L53.1202 254.382L53.7431 255.005H52.5044H52.4972ZM54.9674 255.005L53.7359 253.766L55.6405 251.861L57.545 253.766L56.3135 255.005H54.9674ZM57.545 255.005L58.168 254.382L58.7909 255.005H57.5522H57.545ZM63.359 255.005H62.5928L63.2158 254.382L63.4019 254.568L63.3661 255.005H63.359ZM63.538 252.828L63.2086 253.15L61.304 251.246L63.2086 249.341L63.7742 249.907L63.538 252.828ZM63.8745 248.682V248.768L63.8244 248.733L63.8745 248.682ZM63.9819 247.336L63.2086 248.102L61.304 246.198L63.2086 244.293L64.1537 245.238L63.9819 247.336ZM64.2468 244.1L63.8244 243.678L64.3184 243.191L64.2468 244.1ZM64.7623 237.692L64.6191 239.432L63.8172 238.63L64.7552 237.692H64.7623Z" fill="#5A5BB5"/>
<g opacity="0.6">
<path d="M63.8816 233.532H45.3086L45.459 235.408L45.5664 236.747L45.8528 240.234L46.0174 242.238L46.2322 244.902L46.3253 246.048L46.354 246.391L46.4614 247.737L46.6117 249.577L46.7048 250.723L46.7979 251.883L46.9053 253.229L46.9912 254.246L47.0843 255.391L47.1201 255.885H64.168L64.211 255.391L64.3041 254.253L64.39 253.229L64.4974 251.883L64.5905 250.723L64.6836 249.577L64.8339 247.73L64.9413 246.391L64.97 246.048L65.063 244.902L65.2778 242.238L65.4425 240.241L65.7218 236.747L65.8292 235.408L65.9795 233.532H63.8888H63.8816ZM64.9986 234.763L64.6406 234.405H65.0272L64.9986 234.763ZM64.9055 235.902L64.8697 236.353L63.2086 238.014L61.304 236.109L63.0081 234.405H63.4091L64.9055 235.902ZM64.4258 241.845L63.2086 243.062L61.304 241.157L63.2086 239.253L64.526 240.57L64.4258 241.845ZM46.7549 240.57L48.0724 239.253L49.9769 241.157L48.0724 243.062L46.8623 241.845L46.7549 240.57ZM62.5928 238.63L60.6883 240.534L58.7837 238.63L60.6883 236.725L62.5928 238.63ZM59.6 234.405H61.7838L60.6954 235.494L59.6071 234.405H59.6ZM60.0654 241.157L58.1608 243.062L56.2562 241.157L58.1608 239.253L60.0654 241.157ZM53.7359 243.678L55.6405 241.773L57.545 243.678L55.6405 245.582L53.7359 243.678ZM55.0247 246.198L53.1202 248.102L51.2156 246.198L53.1202 244.293L55.0247 246.198ZM58.168 244.3L60.0725 246.205L58.168 248.11L56.2634 246.205L58.168 244.3ZM55.6405 240.541L53.7359 238.637L55.6405 236.732L57.545 238.637L55.6405 240.541ZM55.0247 241.157L53.1202 243.062L51.2156 241.157L53.1202 239.253L55.0247 241.157ZM50.5927 240.541L48.6881 238.637L50.5927 236.732L52.4972 238.637L50.5927 240.541ZM50.5927 241.773L52.4972 243.678L50.5927 245.582L48.6881 243.678L50.5927 241.773ZM52.4972 248.725L50.5927 250.63L48.6881 248.725L50.5927 246.821L52.4972 248.725ZM53.113 249.341L55.0176 251.246L53.113 253.15L51.2084 251.246L53.113 249.341ZM53.7359 248.725L55.6405 246.821L57.545 248.725L55.6405 250.63L53.7359 248.725ZM58.168 249.341L60.0725 251.246L58.168 253.15L56.2634 251.246L58.168 249.341ZM60.6883 251.869L62.5928 253.773L61.3542 255.012H60.0081L58.7766 253.773L60.6811 251.869H60.6883ZM58.7837 248.725L60.6883 246.821L62.5928 248.725L60.6883 250.63L58.7837 248.725ZM58.7837 243.678L60.6883 241.773L62.5928 243.678L60.6883 245.582L58.7837 243.678ZM60.0654 236.109L58.1608 238.014L56.2562 236.109L57.9603 234.405H58.3613L60.0654 236.109ZM55.6405 235.494L54.5522 234.405H56.7288L55.6405 235.494ZM55.0247 236.109L53.1202 238.014L51.2156 236.109L52.9197 234.405H53.3206L55.0247 236.109ZM51.681 234.405L50.5927 235.494L49.5044 234.405H51.681ZM48.2728 234.405L49.9769 236.109L48.0724 238.014L46.4112 236.353L46.3754 235.902L47.8647 234.405H48.2657H48.2728ZM46.6404 234.405L46.2895 234.756L46.2609 234.405H46.6475H46.6404ZM46.5186 237.699L47.4494 238.63L46.6547 239.425L46.5186 237.699ZM47.0413 244.093L46.9697 243.191L47.4566 243.678L47.0413 244.093ZM47.1344 245.238L48.0724 244.293L49.9769 246.198L48.0724 248.102L47.3062 247.336L47.1344 245.238ZM47.4136 248.768V248.682L47.4566 248.725L47.4136 248.761V248.768ZM47.7502 252.828L47.5067 249.907L48.0724 249.341L49.9769 251.246L48.0724 253.15L47.7502 252.828ZM47.922 255.005L47.8862 254.568L48.0724 254.382L48.6953 255.005H47.9292H47.922ZM48.6881 253.773L50.5927 251.869L52.4972 253.773L51.2657 255.012H49.9196L48.6881 253.773ZM52.4972 255.005L53.1202 254.382L53.7431 255.005H52.5044H52.4972ZM54.9674 255.005L53.7359 253.766L55.6405 251.861L57.545 253.766L56.3135 255.005H54.9674ZM57.545 255.005L58.168 254.382L58.7909 255.005H57.5522H57.545ZM63.359 255.005H62.5928L63.2158 254.382L63.4019 254.568L63.3661 255.005H63.359ZM63.538 252.828L63.2086 253.15L61.304 251.246L63.2086 249.341L63.7742 249.907L63.538 252.828ZM63.8745 248.682V248.768L63.8244 248.733L63.8745 248.682ZM63.9819 247.336L63.2086 248.102L61.304 246.198L63.2086 244.293L64.1537 245.238L63.9819 247.336ZM64.2468 244.1L63.8244 243.678L64.3184 243.191L64.2468 244.1ZM64.7623 237.692L64.6191 239.432L63.8172 238.63L64.7552 237.692H64.7623Z" fill="white"/>
</g>
<path d="M45.2945 235.186H65.9869C66.6354 235.186 67.1611 234.66 67.1611 234.012V233.933C67.1611 233.284 66.6354 232.759 65.9869 232.759H45.2945C44.646 232.759 44.1203 233.284 44.1203 233.933V234.012C44.1203 234.66 44.646 235.186 45.2945 235.186Z" fill="#5A5BB5"/>
<path d="M64.3252 254.575H46.955C46.3065 254.575 45.7808 255.101 45.7808 255.749V255.828C45.7808 256.477 46.3065 257.002 46.955 257.002H64.3252C64.9737 257.002 65.4994 256.477 65.4994 255.828V255.749C65.4994 255.101 64.9737 254.575 64.3252 254.575Z" fill="#5A5BB5"/>
<path d="M172.937 58.1137L194.06 54.4575C195.498 54.2087 196.462 52.8414 196.213 51.4036L192.557 30.2806C192.308 28.8429 190.941 27.8791 189.503 28.1279L168.38 31.7841C166.942 32.033 165.978 33.4002 166.227 34.838L169.883 55.961C170.132 57.3988 171.5 58.3626 172.937 58.1137Z" fill="#5A5BB5"/>
<path d="M180.325 54.7395C180.325 54.7395 185.151 62.0427 193.306 63.1668C193.306 63.1668 188.602 61.4413 187.506 53.1571L180.325 54.7395Z" fill="#5A5BB5"/>
<path d="M187.298 41.114L183.89 41.5221C183.89 41.5221 182.773 39.2381 182.064 33.9755C182.064 33.9755 180.862 34.0041 180.317 34.2476C179.766 34.491 180.375 40.3837 180.375 40.3837C180.375 40.3837 174.196 40.8133 173.909 41.1212C173.723 41.3145 173.795 42.231 173.873 42.8754C173.916 43.2477 174.224 43.5413 174.604 43.5627L174.819 43.5771L175.914 49.3767C176 49.8206 176.415 50.1285 176.866 50.0712L182.58 49.3409C183.146 49.2693 183.675 49.0258 184.098 48.6463L184.664 48.138L188.215 47.9089L187.284 41.1212L187.298 41.114Z" fill="#5A5BB5"/>
<path opacity="0.7" d="M187.298 41.114L183.89 41.5221C183.89 41.5221 182.773 39.2381 182.064 33.9755C182.064 33.9755 180.862 34.0041 180.317 34.2476C179.766 34.491 180.375 40.3837 180.375 40.3837C180.375 40.3837 174.196 40.8133 173.909 41.1212C173.723 41.3145 173.795 42.231 173.873 42.8754C173.916 43.2477 174.224 43.5413 174.604 43.5627L174.819 43.5771L175.914 49.3767C176 49.8206 176.415 50.1285 176.866 50.0712L182.58 49.3409C183.146 49.2693 183.675 49.0258 184.098 48.6463L184.664 48.138L188.215 47.9089L187.284 41.1212L187.298 41.114Z" fill="white"/>
<path d="M199.435 83.0788C196.313 82.9571 184.156 102.762 184.156 102.762L175.893 101.201L174.125 105.425C174.125 105.425 181.571 109.055 184.571 109.377C187.571 109.7 199.027 93.7114 199.027 93.7114L199.442 83.0716L199.435 83.0788Z" fill="#5A5BB5"/>
<path opacity="0.2" d="M199.435 83.0716L199.02 93.7114C199.02 93.7114 198.74 94.098 198.261 94.7424C197.387 95.9381 195.819 98.036 194.036 100.277C190.549 104.645 186.232 109.556 184.564 109.377C181.571 109.055 174.117 105.425 174.117 105.425L175.893 101.201L184.156 102.762C184.156 102.762 196.32 82.9499 199.442 83.0716H199.435Z" fill="white"/>
<path opacity="0.2" d="M198.261 94.7496C197.387 95.9453 195.819 98.0432 194.036 100.284C194.101 96.0599 197.795 90.8116 197.795 90.8116C197.795 90.8116 198.053 92.53 198.261 94.7568V94.7496Z" fill="black"/>
<path d="M223.148 256.401H230.136C230.373 256.401 230.573 256.566 230.623 256.795L231.755 261.914C231.855 262.372 231.561 262.823 231.103 262.916C231.039 262.931 230.981 262.938 230.917 262.938C228.654 262.902 227.008 262.759 224.172 262.759C222.425 262.759 217.148 262.945 214.735 262.945C212.322 262.945 212.007 260.561 212.995 260.339C217.427 259.372 220.764 258.033 222.182 256.759C222.447 256.515 222.79 256.387 223.148 256.394V256.401Z" fill="#263238"/>
<path d="M193.52 256.215H200.509C200.745 256.215 200.945 256.379 200.995 256.609L202.127 261.728C202.227 262.186 201.933 262.637 201.475 262.73C201.411 262.745 201.353 262.752 201.289 262.752C199.026 262.716 197.387 262.573 194.544 262.573C192.797 262.573 187.52 262.759 185.107 262.759C182.694 262.759 182.379 260.375 183.368 260.153C187.8 259.186 191.136 257.847 192.554 256.573C192.819 256.329 193.162 256.2 193.52 256.208V256.215Z" fill="#263238"/>
<path d="M226.85 126.919H196.335C193.435 142.765 184.349 207.104 190.864 257.067H201.196C201.196 257.067 200.237 181.192 209.359 156.669C210.411 169.794 221.072 257.009 221.072 257.009H231.59C231.59 257.009 230.022 224.202 228.447 193.207C227.459 173.689 226.893 130.922 226.85 126.912V126.919Z" fill="#263238"/>
<path opacity="0.2" d="M209.359 156.669C208.013 160.285 206.896 164.796 205.95 169.872C205.098 158.194 208.514 145.808 208.514 145.808L209.366 156.669H209.359Z" fill="black"/>
<path d="M196.077 127.285H226.793V130.936L195.683 130.564L196.077 127.285Z" fill="black"/>
<path d="M216.92 125.638H215.824V132.132H216.92V125.638Z" fill="#263238"/>
<path d="M201.375 125.638H200.28V132.132H201.375V125.638Z" fill="#263238"/>
<path d="M210.082 126.64H204.396V130.736H210.082V126.64Z" fill="white"/>
<path d="M226.894 127.872C227.71 110.394 232.851 85.6564 232.851 85.6564C218.588 82.2196 199.435 83.0788 199.435 83.0788C195.705 96.425 195.776 117.962 196.099 127.872H226.894Z" fill="#5A5BB5"/>
<path opacity="0.2" d="M232.843 85.6492C232.843 85.6492 232.271 88.413 231.469 92.752C231.089 94.814 230.66 97.2484 230.216 99.9048C229.965 101.459 229.693 103.084 229.442 104.759C229.192 106.392 228.941 108.067 228.705 109.771C227.86 115.843 227.151 122.237 226.886 127.872H196.091C195.769 117.962 195.705 96.425 199.435 83.0716C199.435 83.0716 218.581 82.2124 232.843 85.6492Z" fill="white"/>
<path opacity="0.2" d="M231.476 92.7519C231.096 94.814 230.667 97.2484 230.223 99.9048C229.972 101.458 229.7 103.084 229.449 104.759C227.187 98.8236 231.039 90.8044 231.039 90.8044L231.476 92.7519Z" fill="black"/>
<path d="M209.574 85.3986L210.347 89.1863C210.347 89.1863 205.943 107.566 204.991 117.096L206.595 118.707L209.123 117.096C209.123 117.096 209.352 97.6852 211.578 89.5299L215.574 86.2578L212.43 85.2411L209.574 85.3986Z" fill="#263238"/>
<path d="M221.53 83.7232C218.888 86.1218 212.423 85.2339 212.423 85.2339C212.423 85.2339 208.385 84.1313 209.237 82.8711C211.614 82.4773 212.767 81.3675 213.239 79.9498C213.511 79.1193 213.554 78.1956 213.483 77.2362C213.447 76.735 213.375 76.2266 213.282 75.7183L221.28 69.797C220.234 73.7063 218.953 80.895 221.538 83.7232H221.53Z" fill="#EEC1BB"/>
<path opacity="0.2" d="M219.432 73.556C219.117 78.3532 215.172 79.6778 213.246 79.9427C213.518 79.1121 213.561 78.1885 213.49 77.229L219.44 73.556H219.432Z" fill="black"/>
<path d="M220.356 80.6802L212.716 84.1241L212.265 81.3604L209.459 82.3485C208.449 82.7065 207.819 83.7017 207.926 84.7685L208.241 87.7972L212.115 85.6779L214.048 88.413L223.227 83.9881L220.349 80.6802H220.356Z" fill="#5A5BB5"/>
<path opacity="0.3" d="M220.356 80.6802L212.716 84.1241L212.265 81.3604L209.459 82.3485C208.449 82.7065 207.819 83.7017 207.926 84.7685L208.241 87.7972L212.115 85.6779L214.048 88.413L223.227 83.9881L220.349 80.6802H220.356Z" fill="white"/>
<path d="M204.891 58.6918C204.891 58.6918 203.695 66.3888 207.776 69.3602C211.857 72.3316 211.9 57.9973 211.9 57.9973L204.898 58.6847L204.891 58.6918Z" fill="#263238"/>
<path d="M219.619 75.5178C217.629 78.3603 214.392 79.0978 211.586 78.2028C209.781 77.63 208.156 76.3699 207.153 74.5727C207.017 74.3364 206.896 74.0858 206.788 73.8352C204.791 69.1239 204.175 60.8899 209.158 57.8183C212.695 55.6059 217.371 56.6799 219.583 60.2241C220.22 61.2265 220.6 62.3721 220.707 63.5606C221.302 69.0667 221.91 72.2743 219.612 75.5178H219.619Z" fill="#EEC1BB"/>
<path d="M212.688 66.4747C212.796 66.9115 212.588 67.3196 212.294 67.3626C212.001 67.4127 211.707 67.0833 211.628 66.6466C211.55 66.2027 211.736 65.8017 212.022 65.7587C212.309 65.7086 212.609 66.0308 212.688 66.4747Z" fill="#263238"/>
<path d="M207.662 67.3196C207.769 67.7564 207.554 68.1645 207.268 68.2075C206.982 68.2576 206.681 67.9282 206.602 67.4915C206.523 67.0475 206.71 66.6466 206.996 66.6036C207.282 66.5607 207.583 66.8972 207.662 67.3196Z" fill="#263238"/>
<path d="M209.294 67.2695C208.994 68.7158 208.493 70.1192 207.805 71.4295C208.5 71.766 209.302 71.7803 210.01 71.4724L209.294 67.2695Z" fill="#D4827D"/>
<path d="M205.435 65.4795C205.528 65.5153 205.628 65.4938 205.707 65.4294C206.201 64.9711 206.881 64.7707 207.54 64.8924C207.683 64.9282 207.826 64.8494 207.862 64.7062C207.898 64.563 207.819 64.4198 207.676 64.384C206.845 64.2122 205.979 64.4485 205.356 65.0284C205.242 65.1215 205.227 65.2862 205.32 65.4007C205.349 65.4294 205.385 65.458 205.428 65.4723L205.435 65.4795Z" fill="#263238"/>
<path d="M213.339 64.2981C213.39 64.291 213.44 64.2623 213.475 64.2194C213.554 64.0976 213.511 63.933 213.39 63.8542C212.666 63.396 211.771 63.3243 210.984 63.6537C210.855 63.7181 210.798 63.8757 210.862 64.0046C210.926 64.1334 211.084 64.1836 211.213 64.1263C211.843 63.8828 212.552 63.9544 213.117 64.3196C213.189 64.3482 213.275 64.3411 213.339 64.2981Z" fill="#263238"/>
<path d="M215.566 57.4173V59.8732C216.404 60.2026 216.991 61.0403 216.741 62.0427C216.204 64.1764 217.736 67.1979 219.447 68.2719C219.447 68.2719 219.39 67.3841 220.163 67.5058C220.936 67.6275 221.273 72.2457 220.084 74.6157C220.084 74.6157 222.046 72.3674 222.712 67.3984C223.328 62.8016 223.027 59.0641 221.903 57.446L215.574 57.4245L215.566 57.4173Z" fill="#263238"/>
<path d="M223.851 67.6347C223.45 68.9736 222.54 70.0977 221.316 70.7636C219.684 71.6299 218.474 70.2695 218.588 68.5225C218.703 66.9688 219.676 64.5988 221.481 64.4699C223.285 64.3411 224.316 65.995 223.851 67.6418V67.6347Z" fill="#EEC1BB"/>
<path d="M210.59 72.8185C211.041 73.4342 211.614 74.6514 211.614 74.6514C211.735 74.6228 211.85 74.587 211.972 74.5512C213.583 74.0786 214.177 73.3268 214.342 72.6395C214.435 72.26 214.392 71.902 214.32 71.6156C214.241 71.2862 214.113 71.0714 214.113 71.0714C213.411 71.8304 211.943 72.3889 211.141 72.6538C210.812 72.7684 210.597 72.8256 210.597 72.8256L210.59 72.8185Z" fill="#263238"/>
<path d="M211.134 72.6466L211.449 73.1836C212.967 72.7326 213.969 72.217 214.313 71.6156C214.234 71.2862 214.105 71.0714 214.105 71.0714C213.404 71.8304 211.936 72.3889 211.134 72.6538V72.6466Z" fill="white"/>
<path d="M211.972 74.5512C213.583 74.0787 214.177 73.3269 214.342 72.6395C213.798 72.8185 213.168 73.1049 212.66 73.5202C212.273 73.8352 212.072 74.2075 211.972 74.5584V74.5512Z" fill="#DE5753"/>
<path d="M221.531 58.5773C221.531 58.5773 224.173 55.3553 217.836 53.3791C211.5 51.4029 202.227 57.2885 204.118 59.6155C206.008 61.9425 212.495 60.9687 212.495 60.9687C212.495 60.9687 210.819 60.7611 210.017 59.9305C210.017 59.9305 219.411 60.5534 221.538 58.5773H221.531Z" fill="#263238"/>
<path d="M232.843 85.6564C236.853 87.0168 239.602 111.991 239.559 114.16C239.509 116.33 233.359 117.268 232.851 112.743C232.342 108.218 230.223 98.5515 230.223 98.5515C230.223 98.5515 229.664 94.1839 230.223 91.5347C230.781 88.8855 232.851 85.6564 232.851 85.6564H232.843Z" fill="#5A5BB5"/>
<path opacity="0.2" d="M232.843 85.6564C236.853 87.0168 239.602 111.991 239.559 114.16C239.509 116.33 233.359 117.268 232.851 112.743C232.342 108.218 230.223 98.5515 230.223 98.5515C230.223 98.5515 229.664 94.1839 230.223 91.5347C230.781 88.8855 232.851 85.6564 232.851 85.6564H232.843Z" fill="white"/>
<path d="M264.424 113.521L124.263 98.3442L113.706 195.845L253.867 211.022L264.424 113.521Z" fill="#5A5BB5"/>
<path opacity="0.6" d="M264.424 113.521L124.263 98.3442L113.706 195.845L253.867 211.022L264.424 113.521Z" fill="white"/>
<path d="M250.653 207.301L260.494 116.414L127.473 102.01L117.631 192.897L250.653 207.301Z" stroke="#5A5BB5" stroke-width="0.716" stroke-miterlimit="10"/>
<path d="M261.584 122.094L262.35 115.005L255.269 114.239L254.968 116.996L132.768 103.778L133.069 101.022L125.988 100.256L125.214 107.337L128.05 107.645L119.408 187.55L116.572 187.25L115.806 194.331L122.895 195.097L123.188 192.34L245.388 205.565L245.087 208.321L252.176 209.088L252.942 201.999L250.106 201.691L258.756 121.786L261.584 122.094Z" stroke="#5A5BB5" stroke-width="0.716" stroke-miterlimit="10"/>
<path d="M129.102 104.143L130.728 104.322L130.549 105.948L128.923 105.769L129.102 104.143ZM128.465 103.356L128.386 104.065L128.207 105.69L128.128 106.399L128.837 106.478L130.463 106.657L131.171 106.735L131.25 106.027L131.429 104.401L131.508 103.692L130.799 103.614L129.174 103.435L128.465 103.356Z" fill="#5A5BB5"/>
<path d="M119.859 189.569L121.484 189.748L121.305 191.374L119.68 191.195L119.859 189.569ZM119.221 188.782L119.143 189.491L118.964 191.116L118.885 191.825L119.594 191.904L121.219 192.083L121.928 192.161L122.007 191.453L122.186 189.827L122.264 189.118L121.555 189.04L119.93 188.861L119.221 188.782Z" fill="#5A5BB5"/>
<path d="M256.851 117.962L258.476 118.141L258.297 119.767L256.672 119.588L256.851 117.962ZM256.213 117.175L256.135 117.884L255.956 119.509L255.877 120.218L256.586 120.296L258.211 120.475L258.92 120.554L258.999 119.845L259.178 118.22L259.256 117.511L258.548 117.432L256.922 117.253L256.213 117.175Z" fill="#5A5BB5"/>
<path d="M247.607 203.395L249.232 203.574L249.053 205.2L247.428 205.021L247.607 203.395ZM246.97 202.601L246.891 203.309L246.712 204.935L246.633 205.644L247.342 205.722L248.967 205.901L249.676 205.98L249.755 205.271L249.934 203.646L250.013 202.937L249.304 202.858L247.679 202.679L246.97 202.601Z" fill="#5A5BB5"/>
<path d="M155.3 119.251C155.515 117.282 157.169 116.029 159.195 116.244C160.269 116.358 161.15 116.845 161.68 117.626L160.806 118.284C160.384 117.712 159.818 117.397 159.131 117.325C157.77 117.175 156.675 118.027 156.532 119.387C156.389 120.74 157.269 121.807 158.637 121.958C159.324 122.029 159.947 121.843 160.477 121.363L161.186 122.201C160.498 122.853 159.532 123.139 158.451 123.017C156.439 122.802 155.085 121.213 155.3 119.251Z" fill="#5A5BB5"/>
<path d="M167.3 122.838L167.193 123.862L162.252 123.325L162.968 116.738L167.773 117.261L167.665 118.284L164.078 117.898L163.892 119.609L167.071 119.953L166.964 120.962L163.785 120.619L163.591 122.437L167.307 122.838H167.3Z" fill="#5A5BB5"/>
<path d="M172.857 124.478L171.719 122.401C171.633 122.401 171.547 122.394 171.461 122.38L169.972 122.222L169.764 124.141L168.54 124.005L169.256 117.418L171.962 117.712C173.695 117.898 174.669 118.9 174.511 120.354C174.404 121.349 173.816 122.029 172.886 122.28L174.167 124.607L172.85 124.464L172.857 124.478ZM171.805 118.75L170.373 118.592L170.086 121.22L171.518 121.378C172.592 121.492 173.201 121.063 173.287 120.239C173.373 119.409 172.871 118.872 171.805 118.757V118.75Z" fill="#5A5BB5"/>
<path d="M177.267 119.337L175.083 119.101L175.198 118.07L180.783 118.671L180.668 119.702L178.484 119.466L177.883 125.015L176.659 124.886L177.26 119.337H177.267Z" fill="#5A5BB5"/>
<path d="M181.706 118.771L182.931 118.9L182.215 125.487L180.99 125.359L181.706 118.771Z" fill="#5A5BB5"/>
<path d="M185.816 120.253L185.601 122.258L188.78 122.602L188.666 123.64L185.487 123.296L185.215 125.817L183.99 125.681L184.706 119.094L189.511 119.616L189.403 120.64L185.816 120.253Z" fill="#5A5BB5"/>
<path d="M190.699 119.745L191.924 119.881L191.208 126.468L189.983 126.332L190.699 119.745Z" fill="#5A5BB5"/>
<path d="M192.869 123.311C193.084 121.342 194.738 120.089 196.764 120.304C197.838 120.418 198.719 120.905 199.248 121.685L198.375 122.344C197.952 121.779 197.387 121.456 196.699 121.385C195.332 121.234 194.244 122.086 194.1 123.447C193.957 124.8 194.838 125.867 196.198 126.017C196.886 126.089 197.501 125.903 198.038 125.423L198.747 126.261C198.06 126.912 197.093 127.199 196.012 127.077C194 126.862 192.647 125.273 192.862 123.311H192.869Z" fill="#5A5BB5"/>
<path d="M204.118 126.318L200.824 125.96L200.008 127.413L198.748 127.277L202.421 121.012L203.624 121.141L205.886 128.051L204.604 127.915L204.11 126.318H204.118ZM203.817 125.316L202.886 122.301L201.339 125.044L203.817 125.308V125.316Z" fill="#5A5BB5"/>
<path d="M208.335 122.702L206.151 122.466L206.265 121.435L211.85 122.036L211.736 123.067L209.552 122.831L208.95 128.38L207.726 128.251L208.328 122.702H208.335Z" fill="#5A5BB5"/>
<path d="M212.767 122.137L213.991 122.273L213.275 128.86L212.051 128.731L212.767 122.144V122.137Z" fill="#5A5BB5"/>
<path d="M214.943 125.702C215.151 123.755 216.812 122.48 218.852 122.702C220.893 122.924 222.246 124.514 222.031 126.476C221.817 128.43 220.163 129.698 218.122 129.476C216.081 129.254 214.735 127.65 214.943 125.702ZM220.8 126.332C220.943 124.986 220.062 123.912 218.738 123.769C217.413 123.626 216.318 124.485 216.174 125.831C216.031 127.177 216.912 128.251 218.237 128.394C219.561 128.538 220.657 127.678 220.8 126.332Z" fill="#5A5BB5"/>
<path d="M229.542 123.948L228.826 130.535L227.817 130.428L224.666 125.573L224.187 130.034L222.977 129.905L223.693 123.318L224.702 123.425L227.853 128.28L228.332 123.819L229.542 123.948Z" fill="#5A5BB5"/>
<path opacity="0.6" d="M222.798 149.359L157.276 142.27C155.744 142.106 154.369 143.208 154.205 144.741C154.04 146.273 155.143 147.648 156.675 147.812L222.196 154.901C223.728 155.065 225.103 153.963 225.268 152.431C225.432 150.898 224.33 149.524 222.798 149.359Z" fill="white"/>
<path d="M238.729 163.385L138.718 152.567" stroke="#5A5BB5" stroke-width="0.716" stroke-linecap="round" stroke-linejoin="round"/>
<path d="M239.051 160.385L146.88 150.411" stroke="#5A5BB5" stroke-width="0.716" stroke-linecap="round" stroke-linejoin="round"/>
<path d="M199.199 162.283L138.375 155.703" stroke="#5A5BB5" stroke-width="0.716" stroke-linecap="round" stroke-linejoin="round"/>
<path d="M149.165 129.254L241.342 139.22" stroke="#5A5BB5" stroke-width="0.716" stroke-linecap="round" stroke-linejoin="round"/>
<path d="M141.009 131.402L241.013 142.22" stroke="#5A5BB5" stroke-width="0.716" stroke-linecap="round" stroke-linejoin="round"/>
<path d="M140.329 137.674L185.473 142.557" stroke="#5A5BB5" stroke-width="0.716" stroke-linecap="round" stroke-linejoin="round"/>
<path d="M140.666 134.538L240.676 145.356" stroke="#5A5BB5" stroke-width="0.716" stroke-linecap="round" stroke-linejoin="round"/>
<path d="M228.053 196.851L223.922 194.03L219.282 195.906L220.886 181.056L229.664 182.008L228.053 196.851Z" fill="#5A5BB5"/>
<path opacity="0.2" d="M228.053 196.851L223.922 194.03L219.282 195.906L220.886 181.056L229.664 182.008L228.053 196.851Z" fill="black"/>
<path d="M226.507 170.152L227.953 169.314L228.87 170.717L230.488 170.259L231.025 171.848L232.7 171.813L232.829 173.481L234.461 173.86L234.168 175.514L235.657 176.288L234.963 177.813L236.209 178.937L235.156 180.24L236.087 181.636L234.748 182.639L235.299 184.221L233.745 184.858L233.896 186.526L232.228 186.756L231.955 188.41L230.287 188.223L229.607 189.756L228.046 189.161L227.001 190.479L225.633 189.505L224.301 190.522L223.213 189.247L221.674 189.899L220.936 188.388L219.282 188.639L218.946 186.999L217.277 186.827L217.363 185.152L215.788 184.572L216.282 182.968L214.908 182.016L215.788 180.584L214.686 179.316L215.896 178.156L215.144 176.653L216.604 175.829L216.254 174.19L217.872 173.753L217.936 172.078L219.619 172.056L220.099 170.445L221.731 170.846L222.59 169.407L224.072 170.194L225.268 169.02L226.507 170.152Z" fill="#5A5BB5"/>
<path opacity="0.2" d="M226.291 172.106L227.451 171.433L228.182 172.557L229.47 172.192L229.9 173.459L231.239 173.431L231.339 174.763L232.649 175.07L232.413 176.388L233.602 177.004L233.043 178.221L234.046 179.116L233.201 180.161L233.945 181.271L232.871 182.073L233.315 183.34L232.077 183.849L232.191 185.18L230.867 185.367L230.645 186.684L229.313 186.534L228.776 187.758L227.523 187.285L226.692 188.338L225.597 187.557L224.53 188.374L223.664 187.35L222.432 187.873L221.845 186.67L220.52 186.87L220.255 185.553L218.924 185.417L218.988 184.078L217.735 183.619L218.136 182.338L217.033 181.579L217.735 180.433L216.854 179.424L217.821 178.493L217.227 177.297L218.387 176.638L218.107 175.328L219.403 174.977L219.454 173.638L220.792 173.624L221.179 172.342L222.475 172.658L223.17 171.512L224.351 172.142L225.303 171.204L226.291 172.106Z" fill="white"/>
<path d="M225.461 180.491L226.456 180.598L226.385 181.271L225.303 181.156L225.01 182.395L224.337 182.324L224.63 181.085L223.385 180.949L223.091 182.187L222.418 182.116L222.712 180.877L221.716 180.77L221.788 180.097L222.869 180.211L223.184 178.915L222.189 178.808L222.26 178.135L223.342 178.249L223.635 177.011L224.308 177.082L224.015 178.321L225.253 178.457L225.547 177.218L226.22 177.29L225.926 178.529L226.914 178.636L226.85 179.309L225.769 179.195L225.461 180.491ZM224.788 180.419L225.096 179.123L223.857 178.987L223.542 180.283L224.788 180.419Z" fill="#5A5BB5"/>
<path d="M229.335 177.627L228.776 182.803L227.817 182.696L228.289 178.328L227.194 178.207L227.28 177.405L229.335 177.627Z" fill="#5A5BB5"/>
<path d="M146.171 165.046C146.522 164.839 146.973 164.946 147.195 165.29C147.381 165.569 147.718 165.698 148.04 165.605C148.434 165.498 148.842 165.712 148.971 166.099C149.078 166.414 149.379 166.629 149.716 166.622C150.124 166.615 150.467 166.922 150.496 167.33C150.525 167.667 150.761 167.939 151.083 168.018C151.477 168.111 151.735 168.498 151.663 168.899C151.606 169.228 151.763 169.557 152.064 169.708C152.422 169.894 152.58 170.331 152.408 170.703C152.272 171.004 152.343 171.369 152.594 171.591C152.895 171.863 152.938 172.321 152.68 172.643C152.472 172.901 152.451 173.273 152.637 173.545C152.866 173.882 152.787 174.34 152.458 174.584C152.193 174.784 152.085 175.135 152.193 175.45C152.329 175.837 152.136 176.259 151.763 176.409C151.455 176.538 151.262 176.846 151.291 177.183C151.327 177.591 151.04 177.949 150.632 178.006C150.303 178.049 150.038 178.307 149.98 178.636C149.916 179.037 149.544 179.316 149.143 179.273C148.813 179.238 148.491 179.417 148.355 179.724C148.19 180.097 147.761 180.276 147.381 180.133C147.066 180.011 146.715 180.111 146.508 180.376C146.257 180.698 145.799 180.763 145.462 180.526C145.19 180.333 144.825 180.34 144.56 180.541C144.238 180.784 143.78 180.741 143.515 180.426C143.3 180.168 142.942 180.09 142.634 180.218C142.262 180.376 141.825 180.219 141.646 179.846C141.503 179.545 141.174 179.374 140.844 179.424C140.443 179.481 140.064 179.216 139.978 178.822C139.913 178.493 139.641 178.25 139.305 178.214C138.897 178.171 138.596 177.82 138.618 177.412C138.632 177.075 138.431 176.775 138.116 176.653C137.737 176.51 137.529 176.094 137.651 175.708C137.751 175.386 137.629 175.042 137.357 174.848C137.021 174.619 136.928 174.161 137.143 173.817C137.322 173.531 137.286 173.166 137.071 172.915C136.806 172.607 136.828 172.149 137.121 171.863C137.365 171.634 137.422 171.269 137.271 170.968C137.092 170.603 137.221 170.159 137.579 169.958C137.873 169.794 138.023 169.457 137.952 169.135C137.866 168.734 138.109 168.34 138.503 168.233C138.825 168.147 139.054 167.86 139.069 167.524C139.083 167.116 139.419 166.794 139.82 166.786C140.157 166.786 140.45 166.564 140.544 166.242C140.658 165.856 141.059 165.619 141.46 165.719C141.782 165.798 142.126 165.655 142.298 165.369C142.505 165.018 142.956 164.896 143.314 165.089C143.608 165.247 143.973 165.197 144.209 164.961C144.503 164.674 144.961 164.667 145.262 164.939C145.505 165.168 145.871 165.204 146.164 165.039L146.171 165.046Z" fill="#5A5BB5"/>
<path opacity="0.2" d="M144.882 179.366C148.528 179.366 151.484 176.411 151.484 172.765C151.484 169.119 148.528 166.163 144.882 166.163C141.236 166.163 138.281 169.119 138.281 172.765C138.281 176.411 141.236 179.366 144.882 179.366Z" fill="white"/>
<path d="M145.24 169.486L146.071 171.755L148.412 172.364L146.508 173.853L146.658 176.273L144.646 174.92L142.398 175.808L143.064 173.481L141.517 171.619L143.937 171.526L145.24 169.486Z" fill="#5A5BB5"/>
<path d="M174.128 181.604C177.575 178.829 178.12 173.786 175.346 170.339C172.571 166.892 167.528 166.346 164.081 169.121C160.634 171.895 160.089 176.939 162.863 180.386C165.637 183.833 170.681 184.378 174.128 181.604Z" fill="#5A5BB5"/>
<path opacity="0.2" d="M175.105 176.03C174.747 179.345 171.768 181.744 168.446 181.386C165.131 181.028 162.733 178.049 163.091 174.727C163.449 171.412 166.427 169.013 169.749 169.371C173.064 169.729 175.463 172.708 175.105 176.03Z" fill="white"/>
<g opacity="0.2">
<path d="M168.353 182.281C164.551 181.872 161.788 178.443 162.203 174.634C162.611 170.832 166.041 168.068 169.85 168.483C173.652 168.891 176.416 172.321 176 176.13C175.592 179.932 172.162 182.696 168.353 182.281ZM169.8 168.906C166.227 168.519 163.005 171.111 162.618 174.684C162.232 178.257 164.823 181.479 168.396 181.865C171.969 182.252 175.191 179.66 175.578 176.087C175.964 172.514 173.373 169.292 169.8 168.906Z" fill="white"/>
</g>
<path d="M170.372 175.658L169.363 172.944L167.795 175.378L165.282 172.722L165.89 177.505L167.387 177.662L168.69 177.806L168.983 177.834L170.287 177.977L171.783 178.142L173.394 173.603L170.372 175.658Z" fill="#5A5BB5"/>
<path d="M173.029 105.425L174.797 103.807L176.244 103.964L176.509 101.91L173.917 101.315C173.917 101.315 170.308 100.821 169.062 100.814C168.539 100.814 167.931 100.814 166.477 104.015C166.22 104.58 173.029 105.432 173.029 105.432V105.425Z" fill="#EEC1BB"/>
<path d="M231.476 109.936C231.476 109.936 232.371 108.06 232.851 107.645C233.33 107.229 237.698 108.189 238.421 108.79C239.144 109.392 238.808 110.731 238.808 110.731C238.808 110.731 237.59 112.635 236.76 112.535C235.929 112.435 231.705 112.22 231.476 111.912C231.247 111.597 231.476 109.943 231.476 109.943V109.936Z" fill="#EEC1BB"/>
</g>
<defs>
<clipPath id="clip0_1400_13991">
<rect width="358" height="266.789" fill="white" transform="translate(0 0.910614)"/>
</clipPath>
</defs>
</svg>
