<svg width="358" height="205" viewBox="0 0 358 205" fill="none" xmlns="http://www.w3.org/2000/svg">
<g clip-path="url(#clip0_1400_13071)">
<path d="M118.718 82.963C118.059 83.9655 117.615 85.0683 117.376 86.2093L115.562 86.3812V89.8901L117.376 90.0619C117.61 91.1981 118.054 92.3009 118.718 93.3083L117.563 94.7071L120.045 97.1895L121.443 96.0342C122.446 96.693 123.548 97.137 124.689 97.3757L124.861 99.1899H128.369L128.541 97.3757C129.677 97.137 130.78 96.6978 131.787 96.0342L133.186 97.1895L135.668 94.7071L134.513 93.3083C135.171 92.3057 135.615 91.2029 135.854 90.0619L137.668 89.8901V86.3812L135.854 86.2093C135.62 85.0731 135.176 83.9703 134.513 82.963L135.668 81.5642L133.186 79.0817L131.787 80.237C130.785 79.5782 129.677 79.1342 128.541 78.8955L128.369 77.0814H124.861L124.689 78.8955C123.553 79.1294 122.45 79.5734 121.443 80.237L120.045 79.0817L117.563 81.5642L118.718 82.963ZM129.968 84.7771C131.825 86.6342 131.825 89.6418 129.968 91.4941C128.112 93.3512 125.104 93.3512 123.248 91.4941C121.391 89.637 121.391 86.6294 123.248 84.7723C125.104 82.9152 128.112 82.9152 129.964 84.7723L129.968 84.7771Z" fill="#F5F5F5"/>
<path d="M206.704 90.2529C206.275 90.9069 205.984 91.6278 205.831 92.3678L204.652 92.4776V94.7644L205.831 94.8742C205.984 95.6141 206.275 96.335 206.704 96.989L205.95 97.9009L207.568 99.5193L208.48 98.765C209.134 99.1946 209.855 99.4859 210.595 99.6386L210.704 100.818H212.991L213.101 99.6386C213.841 99.4859 214.561 99.1946 215.215 98.765L216.127 99.5193L217.745 97.9009L216.991 96.989C217.421 96.335 217.712 95.6141 217.864 94.8742L219.043 94.7644V92.4776L217.864 92.3678C217.712 91.6278 217.421 90.9069 216.991 90.2529L217.745 89.3411L216.127 87.7227L215.215 88.477C214.561 88.0473 213.841 87.7561 213.101 87.6033L212.991 86.4241H210.704L210.595 87.6033C209.855 87.7561 209.134 88.0473 208.48 88.477L207.568 87.7227L205.95 89.3411L206.704 90.2529ZM214.031 91.4321C215.239 92.6399 215.239 94.602 214.031 95.8099C212.824 97.0177 210.862 97.0177 209.654 95.8099C208.447 94.602 208.447 92.6399 209.654 91.4321C210.862 90.2243 212.824 90.2243 214.031 91.4321Z" fill="#F5F5F5"/>
<path d="M220.9 107.406C220.456 108.079 220.16 108.819 220.003 109.583L218.786 109.697V112.051L220.003 112.166C220.16 112.93 220.461 113.669 220.9 114.343L220.122 115.283L221.788 116.949L222.728 116.171C223.401 116.615 224.141 116.911 224.905 117.069L225.02 118.286H227.373L227.487 117.069C228.251 116.911 228.991 116.61 229.664 116.171L230.604 116.949L232.27 115.283L231.492 114.343C231.936 113.669 232.232 112.93 232.39 112.166L233.607 112.051V109.697L232.39 109.583C232.232 108.819 231.931 108.079 231.492 107.406L232.27 106.465L230.604 104.799L229.664 105.578C228.991 105.134 228.251 104.838 227.487 104.68L227.373 103.463H225.02L224.905 104.68C224.141 104.838 223.401 105.138 222.728 105.578L221.788 104.799L220.122 106.465L220.9 107.406ZM228.452 108.623C229.697 109.869 229.697 111.889 228.452 113.135C227.206 114.381 225.187 114.381 223.941 113.135C222.695 111.889 222.695 109.869 223.941 108.623C225.187 107.377 227.206 107.377 228.452 108.623Z" fill="#E0E0E0"/>
<path d="M47.9146 117.436C46.874 119.021 46.1724 120.768 45.8 122.564L42.936 122.831V128.378L45.8 128.65C46.1724 130.45 46.874 132.193 47.9146 133.778L46.0864 135.988L50.0053 139.908L52.2154 138.079C53.8001 139.12 55.5472 139.822 57.342 140.194L57.6093 143.058H63.1559L63.428 140.194C65.2275 139.822 66.9698 139.12 68.5545 138.079L70.7646 139.908L74.6835 135.988L72.8553 133.778C73.8959 132.193 74.5976 130.445 74.9699 128.65L77.8339 128.378V122.831L74.9699 122.559C74.5976 120.759 73.8959 119.016 72.8553 117.431L74.6835 115.221L70.7646 111.302L68.5545 113.13C66.965 112.089 65.2227 111.388 63.428 111.015L63.1559 108.151H57.6093L57.342 111.015C55.5424 111.388 53.8001 112.089 52.2154 113.13L50.0053 111.302L46.0864 115.221L47.9146 117.431V117.436ZM65.6953 120.301C68.6261 123.232 68.6261 127.987 65.6953 130.918C62.7645 133.849 58.0102 133.849 55.0794 130.918C52.1486 127.987 52.1486 123.232 55.0794 120.301C58.0102 117.369 62.7645 117.369 65.6953 120.301Z" fill="#F5F5F5"/>
<path d="M279.183 120.41C278.515 121.432 278.061 122.554 277.823 123.709L275.98 123.881V127.447L277.823 127.619C278.061 128.775 278.515 129.896 279.183 130.918L278.009 132.341L280.529 134.861L281.951 133.687C282.973 134.355 284.095 134.809 285.25 135.048L285.422 136.89H288.987L289.159 135.048C290.314 134.809 291.436 134.355 292.458 133.687L293.88 134.861L296.4 132.341L295.226 130.918C295.894 129.896 296.348 128.775 296.586 127.619L298.429 127.447V123.881L296.586 123.709C296.348 122.554 295.894 121.432 295.226 120.41L296.4 118.988L293.88 116.467L292.458 117.641C291.436 116.973 290.314 116.52 289.159 116.281L288.987 114.438H285.422L285.25 116.281C284.095 116.52 282.973 116.973 281.951 117.641L280.529 116.467L278.009 118.988L279.183 120.41ZM290.62 122.253C292.505 124.139 292.505 127.199 290.62 129.085C288.734 130.971 285.675 130.971 283.789 129.085C281.904 127.199 281.904 124.139 283.789 122.253C285.675 120.367 288.73 120.367 290.62 122.253Z" fill="#F5F5F5"/>
<path d="M42.9937 149.174C42.4639 149.981 42.1107 150.864 41.9197 151.776L40.4639 151.914V154.731L41.9197 154.869C42.1107 155.781 42.4639 156.669 42.9937 157.471L42.0629 158.593L44.0534 160.584L45.1751 159.653C45.9818 160.183 46.8649 160.536 47.7766 160.727L47.915 162.183H50.7313L50.8697 160.727C51.7814 160.536 52.6693 160.183 53.4712 159.653L54.5929 160.584L56.5834 158.593L55.6526 157.471C56.1825 156.664 56.5357 155.781 56.7266 154.869L58.1825 154.731V151.914L56.7266 151.776C56.5357 150.864 56.1825 149.976 55.6526 149.174L56.5834 148.052L54.5929 146.061L53.4712 146.992C52.6645 146.462 51.7814 146.109 50.8697 145.918L50.7313 144.462H47.915L47.7766 145.918C46.8649 146.109 45.9771 146.462 45.1751 146.992L44.0534 146.061L42.0629 148.052L42.9937 149.174ZM52.0201 150.63C53.5094 152.119 53.5094 154.53 52.0201 156.02C50.5308 157.509 48.1155 157.509 46.631 156.02C45.1465 154.53 45.1417 152.119 46.631 150.63C48.1203 149.14 50.5308 149.14 52.0201 150.63Z" fill="#E0E0E0"/>
<path d="M224.642 85.1638C224.003 86.1424 223.569 87.2166 223.339 88.3242L221.573 88.4913V91.9095L223.339 92.0766C223.569 93.1841 224.003 94.2583 224.642 95.237L223.516 96.5976L225.931 99.0132L227.292 97.8865C228.27 98.5263 229.344 98.9607 230.452 99.1899L230.619 100.956H234.036L234.203 99.1899C235.311 98.9607 236.385 98.5263 237.363 97.8865L238.724 99.0132L241.139 96.5976L240.013 95.237C240.652 94.2583 241.087 93.1841 241.316 92.0766L243.082 91.9095V88.4913L241.321 88.3242C241.091 87.2166 240.657 86.1424 240.017 85.1638L241.144 83.8032L238.729 81.3875L237.368 82.5142C236.39 81.8745 235.316 81.44 234.208 81.2109L234.041 79.4445H230.623L230.456 81.2109C229.349 81.44 228.275 81.8745 227.296 82.5142L225.936 81.3875L223.521 83.8032L224.647 85.1638H224.642ZM235.597 86.9254C237.402 88.73 237.402 91.6612 235.597 93.4658C233.793 95.2704 230.862 95.2704 229.058 93.4658C227.254 91.6612 227.254 88.73 229.058 86.9254C230.862 85.1208 233.793 85.1208 235.597 86.9254Z" fill="#E0E0E0"/>
<path d="M79.0495 46.6892L34.0728 57.3808L41.7253 89.582L86.702 78.8904L79.0495 46.6892Z" fill="#E0E0E0"/>
<path d="M77.5882 48.3662L36.127 58.2222L43.1823 87.9107L84.6436 78.0547L77.5882 48.3662Z" fill="#FAFAFA"/>
<path d="M43.1841 87.9088L42.1196 83.4308C43.628 78.3846 48.5541 70.7367 50.683 70.1304C54.2153 69.123 61.3132 74.2408 61.3132 74.2408C61.3132 74.2408 68.3252 62.0002 70.583 60.926C74.1869 59.2169 82.144 67.5285 82.144 67.5285L84.6453 78.0505L43.1841 87.9088Z" fill="#EBEBEB"/>
<path d="M61.8766 62.1339C62.1869 64.1819 60.7788 66.0963 58.731 66.4066C56.6832 66.7169 54.7691 65.3086 54.4589 63.2605C54.1486 61.2125 55.5567 59.2981 57.6045 58.9878C59.6522 58.6775 61.5664 60.0858 61.8766 62.1339Z" fill="#EBEBEB"/>
<path d="M294.324 26.3378L237.65 24.0116L235.985 64.5901L292.659 66.9162L294.324 26.3378Z" fill="#E0E0E0"/>
<path d="M292.047 27.8306L239.799 25.6861L238.264 63.0973L290.512 65.2418L292.047 27.8306Z" fill="#FAFAFA"/>
<path d="M238.261 63.103L238.495 57.4601C241.956 52.0034 250.314 44.6085 253.03 44.5989C257.541 44.5846 264.219 52.9869 264.219 52.9869C264.219 52.9869 276.567 40.8608 279.593 40.3453C284.419 39.5241 291.049 51.9891 291.049 51.9891L290.505 65.2466L238.256 63.0982L238.261 63.103Z" fill="#EBEBEB"/>
<path d="M268.906 38.8749C268.591 41.3956 266.295 43.1906 263.77 42.8755C261.25 42.5604 259.455 40.2641 259.77 37.7387C260.085 35.218 262.381 33.4229 264.906 33.738C267.426 34.0531 269.221 36.3494 268.906 38.8749Z" fill="#EBEBEB"/>
<path d="M325.305 93.605L294.422 87.8526L290.305 109.963L321.187 115.715L325.305 93.605Z" fill="#E0E0E0"/>
<path d="M323.938 94.2439L295.467 88.9408L291.672 109.324L320.142 114.627L323.938 94.2439Z" fill="#FAFAFA"/>
<path d="M291.665 109.339L292.238 106.265C294.562 103.544 299.732 100.154 301.221 100.364C303.694 100.713 306.691 105.845 306.691 105.845C306.691 105.845 314.42 100.173 316.119 100.13C318.83 100.059 321.479 107.42 321.479 107.42L320.133 114.643L291.665 109.339Z" fill="#EBEBEB"/>
<path d="M310.376 98.4833C310.004 99.8439 308.605 100.641 307.245 100.269C305.889 99.8964 305.088 98.4976 305.46 97.1371C305.832 95.7765 307.231 94.9792 308.591 95.3516C309.952 95.7239 310.749 97.1227 310.376 98.4833Z" fill="#EBEBEB"/>
<path d="M167.601 17.7928C167.673 17.7928 167.73 17.85 167.725 17.9217C167.725 17.9646 167.701 18.0076 167.663 18.0315L156.618 23.851L156.093 24.1327L150.436 27.1069L130.975 27.7609C130.904 27.7609 130.847 27.7036 130.851 27.632C130.851 27.5891 130.875 27.5461 130.913 27.5222L147.902 18.5757C148.059 18.4898 148.231 18.4468 148.412 18.442L154.522 18.232L155.119 18.2129L167.601 17.7975V17.7928Z" fill="#E6E6E6"/>
<path d="M159.559 20.0556C159.172 19.4255 154.513 20.0795 148.962 21.5499C143.41 23.0203 139.043 24.7628 139.014 25.5028L141.296 34.1104C141.339 34.2727 141.501 34.3634 141.663 34.3252L161.635 29.0308C161.797 28.9926 161.893 28.8303 161.855 28.668L159.573 20.0604H159.554L159.559 20.0556Z" fill="#EBEBEB"/>
<path d="M157.878 26.8443L158.36 28.6632L158.217 28.7014L157.816 27.6081L158.002 28.7539L157.764 28.8159L157.358 27.7275L157.544 28.8732L157.305 28.9353L156.9 27.8468L157.091 28.9926L156.947 29.0308L156.465 27.2119C156.394 26.9254 156.499 26.6294 156.733 26.4528L154.551 18.2224L155.148 18.2033L157.296 26.3048C157.578 26.3525 157.807 26.5626 157.878 26.8395V26.8443Z" fill="#E0E0E0"/>
<path d="M321.594 138.585H235.316C233.774 138.585 232.519 137.33 232.519 135.788V10.0971C232.519 8.55513 233.774 7.29956 235.316 7.29956H321.594C323.136 7.29956 324.391 8.55513 324.391 10.0971V135.783C324.391 137.325 323.136 138.58 321.594 138.58V138.585ZM235.32 7.41891C233.846 7.41891 232.643 8.62197 232.643 10.0971V135.783C232.643 137.258 233.846 138.461 235.32 138.461H321.599C323.073 138.461 324.276 137.258 324.276 135.783V10.0971C324.276 8.62197 323.073 7.41891 321.599 7.41891H235.32Z" fill="#E0E0E0"/>
<path d="M222.108 138.585H135.83C134.288 138.585 133.033 137.33 133.033 135.788V10.0971C133.033 8.5551 134.288 7.29953 135.83 7.29953H222.108C223.65 7.29953 224.905 8.5551 224.905 10.0971V135.783C224.905 137.325 223.65 138.58 222.108 138.58V138.585ZM135.83 7.41888C134.355 7.41888 133.152 8.62193 133.152 10.0971V135.783C133.152 137.258 134.355 138.461 135.83 138.461H222.108C223.583 138.461 224.786 137.258 224.786 135.783V10.0971C224.786 8.62193 223.583 7.41888 222.108 7.41888H135.83Z" fill="#E0E0E0"/>
<path d="M122.679 138.585H36.4061C34.8643 138.585 33.6089 137.33 33.6089 135.788V10.0971C33.6089 8.55507 34.8643 7.2995 36.4061 7.2995H122.684C124.226 7.2995 125.481 8.55507 125.481 10.0971V135.783C125.481 137.325 124.226 138.58 122.684 138.58L122.679 138.585ZM36.4061 7.41885C34.9311 7.41885 33.7282 8.6219 33.7282 10.0971V135.783C33.7282 137.258 34.9311 138.461 36.4061 138.461H122.684C124.159 138.461 125.362 137.258 125.362 135.783V10.0971C125.362 8.6219 124.159 7.41885 122.684 7.41885H36.4061Z" fill="#E0E0E0"/>
<path d="M358 167.74H0V167.797H358V167.74Z" fill="#E0E0E0"/>
<path d="M338.601 181.761H312V181.962H338.601V181.761Z" fill="#EBEBEB"/>
<path d="M243.283 183.943H236.299V184.144H243.283V183.943Z" fill="#EBEBEB"/>
<path d="M54.0867 175.651H19.3989V175.851H54.0867V175.651Z" fill="#EBEBEB"/>
<path d="M66.3306 175.651H61.2422V175.851H66.3306V175.651Z" fill="#EBEBEB"/>
<path d="M158.093 179.045H82.8604V179.246H158.093V179.045Z" fill="#EBEBEB"/>
<path d="M343.666 197.583C343.666 199.344 269.087 200.772 177.091 200.772C85.0942 200.772 10.5156 199.344 10.5156 197.583C10.5156 195.821 85.0942 194.393 177.091 194.393C269.087 194.393 343.666 195.821 343.666 197.583Z" fill="#F5F5F5"/>
<path d="M50.2637 174.414L48.1587 174.118C48.531 171.492 50.7267 166.523 56.345 166.523C62.9942 166.523 66.3069 170.361 66.6363 174.175L64.5312 174.357C64.2878 171.507 61.6529 168.628 56.3402 168.628C51.0275 168.628 50.3162 174.18 50.2685 174.414H50.2637Z" fill="#263238"/>
<path d="M74.8995 172.562H40.6938C38.822 172.562 37.3047 174.079 37.3047 175.951V193.644C37.3047 195.516 38.822 197.034 40.6938 197.034H74.8995C76.7712 197.034 78.2885 195.516 78.2885 193.644V175.951C78.2885 174.079 76.7712 172.562 74.8995 172.562Z" fill="#263238"/>
<path opacity="0.2" d="M74.8995 172.562H40.6938C38.822 172.562 37.3047 174.079 37.3047 175.951V193.644C37.3047 195.516 38.822 197.034 40.6938 197.034H74.8995C76.7712 197.034 78.2885 195.516 78.2885 193.644V175.951C78.2885 174.079 76.7712 172.562 74.8995 172.562Z" fill="white"/>
<path d="M66.6509 197.411C37.6768 197.411 36.2734 177.536 36.2734 177.326L37.4525 175.025C37.5002 175.76 39.7818 195.291 66.6748 195.291C77.7442 195.291 87.2956 195.291 88.2646 193.186C89.1142 191.324 84.9662 186.545 78.3122 178.887V175.923C86.7896 185.686 91.5916 190.937 90.1835 194.035C88.6942 197.287 82.2931 197.411 66.6557 197.411H66.6509Z" fill="#263238"/>
<path d="M312.453 181.594H309.78V190.383H312.453V181.594Z" fill="#263238"/>
<path d="M311.083 183.007C306.925 183.007 302.834 181.981 299.168 180.014L300.433 177.661C311.469 183.556 325.193 179.394 331.088 168.356C333.957 162.985 334.544 156.683 332.715 150.873C331.999 148.572 330.911 146.4 329.503 144.448C327.484 141.641 324.849 139.335 321.799 137.697L323.059 135.344C324.462 136.098 325.799 136.981 327.04 137.984C328.797 139.402 330.353 141.049 331.67 142.882C333.25 145.068 334.462 147.493 335.264 150.067C339.47 163.41 332.066 177.637 318.725 181.843C316.252 182.621 313.675 183.017 311.083 183.017V183.007Z" fill="#263238"/>
<g opacity="0.3">
<path d="M311.083 183.007C306.925 183.007 302.834 181.981 299.168 180.014L300.433 177.661C311.469 183.556 325.193 179.394 331.088 168.356C333.957 162.985 334.544 156.683 332.715 150.873C331.999 148.572 330.911 146.4 329.503 144.448C327.484 141.641 324.849 139.335 321.799 137.697L323.059 135.344C324.462 136.098 325.799 136.981 327.04 137.984C328.797 139.402 330.353 141.049 331.67 142.882C333.25 145.068 334.462 147.493 335.264 150.067C339.47 163.41 332.066 177.637 318.725 181.843C316.252 182.621 313.675 183.017 311.083 183.017V183.007Z" fill="white"/>
</g>
<path d="M298.31 182.244C298.2 182.244 298.09 182.22 297.994 182.162C297.679 181.986 297.555 181.594 297.722 181.27L323.341 133.472C323.513 133.148 323.918 133.023 324.243 133.195C324.568 133.367 324.692 133.773 324.52 134.098L298.897 181.876C298.782 182.096 298.558 182.234 298.31 182.239V182.244Z" fill="#263238"/>
<g opacity="0.4">
<path d="M298.31 182.244C298.2 182.244 298.09 182.22 297.994 182.162C297.679 181.986 297.555 181.594 297.722 181.27L323.341 133.472C323.513 133.148 323.918 133.023 324.243 133.195C324.568 133.367 324.692 133.773 324.52 134.098L298.897 181.876C298.782 182.096 298.558 182.234 298.31 182.239V182.244Z" fill="white"/>
</g>
<path d="M306.233 189.734H315.999C316.653 189.734 317.183 190.264 317.183 190.918V193.1H305.049V190.918C305.049 190.264 305.579 189.734 306.228 189.734H306.233Z" fill="#263238"/>
<path d="M312.119 138.165C322.892 138.719 331.179 147.904 330.63 158.679C330.076 169.454 320.892 177.742 310.119 177.193C299.345 176.639 291.059 167.454 291.608 156.679C292.162 145.899 301.345 137.616 312.119 138.165Z" fill="#5A5BB5"/>
<path opacity="0.2" d="M330.625 158.679C330.076 169.444 320.902 177.727 310.138 177.178C299.374 176.629 291.092 167.454 291.641 156.688C292.19 145.923 301.364 137.64 312.128 138.189C313.861 138.28 315.57 138.595 317.221 139.139C319.197 139.783 321.054 140.748 322.725 141.989C327.995 145.875 330.964 152.143 330.63 158.684L330.625 158.679Z" fill="white"/>
<path opacity="0.5" d="M322.496 141.808C322.467 141.793 322.439 141.774 322.41 141.755C322.357 141.707 322.295 141.669 322.233 141.636C321.422 141.192 321.651 142.762 320.897 143.12C320.143 143.479 318.816 142.834 318.978 142.371C319.14 141.908 317.618 140.619 317.198 140.418C316.52 140.175 315.77 140.528 315.527 141.206C315.474 141.349 315.45 141.497 315.45 141.65C315.388 142.987 316.124 143.779 315.918 144.185C315.713 144.591 315.718 144.715 314.367 145.36C313.016 146.004 312.042 145.183 311.226 145.918C310.41 146.653 311.465 147.064 311.14 148.845C310.816 150.625 310.333 149.346 309.36 149.537C308.386 149.728 308.94 148.553 309.064 147.866C309.188 147.178 308.171 146.973 307.727 146.921C307.283 146.868 306.171 146.734 306.31 145.355C306.453 143.975 306.381 142.681 304.491 142.791C303.517 142.853 302.987 141.454 302.71 140.046C297.718 142.428 293.961 146.806 292.371 152.11C292.472 152.086 292.562 152.229 292.706 152.587C293.149 153.7 293.565 154.812 294.128 155.49C294.639 156.034 294.806 156.812 294.572 157.519C294.338 158.068 293.188 158.412 293.164 158.789C293.14 159.166 292.066 159.682 291.894 160.025C291.865 160.106 291.789 160.154 291.703 160.149C292.381 165.511 295.264 170.352 299.651 173.507C300.138 172.242 300.987 171.239 301.555 171.211C302.749 171.149 306.429 170.566 305.078 168.938C303.722 167.315 302.276 165.821 302.276 165.821C302.558 165.391 302.878 164.99 303.231 164.613C303.45 164.475 302.739 164.069 303.985 163.935C305.231 163.802 305.321 163.792 304.801 163.195C304.281 162.599 303.422 163.052 303.99 162.303C304.558 161.553 305.183 160.966 305.799 161.796C306.415 162.627 306.037 163.066 306.243 163.31C306.448 163.553 308.286 163.176 308.286 163.176C308.286 163.176 308.763 163.84 308.558 163.988C308.219 164.384 307.913 164.799 307.637 165.239C307.489 165.654 307.245 166.031 306.93 166.337C306.558 166.556 307.956 167.974 308.372 168.194C308.792 168.413 308.964 168.59 309.326 168.494C309.689 168.399 310.386 167.649 310.639 167.42C310.892 167.191 312.419 167.75 312.419 167.75C312.992 168.084 313.532 168.471 314.028 168.91C314.534 169.416 315.322 169.502 315.928 169.125C316.243 168.838 316.224 168.065 316.82 168.332C317.412 168.599 317.613 168.876 318.023 170.313C318.434 171.75 320.868 173.86 320.567 174.753C322.367 173.76 324 172.49 325.398 170.982C323.675 170.409 323.035 169.745 322.778 169.363C322.443 168.867 322.639 168.867 322.825 168.027C323.011 167.186 324.582 166.69 324.84 166.465C325.093 166.236 326.319 164.713 326.921 164.556C327.522 164.394 327.479 163.596 327.479 163.596C327.479 163.596 327.589 163.806 327.837 163.276C328.081 162.747 327.813 162.202 328.625 161.467C329.15 161.066 329.756 160.794 330.405 160.675C330.51 160.001 330.582 159.328 330.615 158.65C330.677 157.462 330.63 156.268 330.472 155.089L328.353 155.896C327.856 155.905 327.36 155.858 326.873 155.753C326.644 155.619 325.537 154.908 324.682 155.342C323.828 155.776 323.742 155.051 322.138 154.788C320.534 154.526 322.925 152.258 323.298 151.919C323.67 151.58 323.742 151.757 324.825 151.222C325.909 150.683 325.718 149.847 325.718 149.847C325.064 148.897 324.291 148.028 323.427 147.264C322.377 146.438 323.871 146.353 326.477 145.598C325.336 144.152 324 142.872 322.496 141.803V141.808ZM315.374 166.518C315.002 167.081 314.481 166.408 314.481 166.408C312.964 165.964 312.816 164.728 313.331 164.26C313.847 163.792 314.1 162.197 314.911 162.837C315.565 163.324 316.248 163.768 316.954 164.174C316.954 164.174 317.847 161.878 317.885 164.012C317.923 166.15 319.14 165.501 317.914 166.155C316.687 166.809 315.756 165.94 315.379 166.508L315.369 166.523L315.374 166.518ZM321.307 167.1C321.312 167.645 321.255 168.189 321.126 168.724L319.985 169.306C319.135 168.599 319.465 167.525 319.928 167.425C320.391 167.325 321.255 166.47 321.322 167.086L321.307 167.1ZM319.221 150.587C319.517 151.169 318.61 151.547 317.603 153.022C316.596 154.497 315.98 153.294 315.98 153.294C315.98 153.294 313.942 151.666 314.606 150.95C315.269 150.239 314.773 149.298 315.751 148.754C316.362 148.415 316.968 148.711 317.532 149.336C318.095 149.962 318.94 149.99 319.231 150.568L319.221 150.582V150.587Z" fill="white"/>
<path opacity="0.2" d="M317.221 139.134C317.503 145.011 315.617 151.356 311.489 156.808C306.916 162.842 300.543 166.518 294.19 167.444C288.815 158.082 292.047 146.133 301.402 140.757C306.209 137.998 311.956 137.406 317.221 139.134Z" fill="white"/>
<g opacity="0.3">
<path d="M306.233 189.734H315.999C316.653 189.734 317.183 190.264 317.183 190.918V193.1H305.049V190.918C305.049 190.264 305.579 189.734 306.228 189.734H306.233Z" fill="white"/>
</g>
<path d="M300.963 192.46H321.274C322.038 192.46 322.654 193.076 322.654 193.84V196.107H299.584V193.84C299.584 193.076 300.2 192.46 300.963 192.46Z" fill="#263238"/>
<g opacity="0.4">
<path d="M300.963 192.46H321.274C322.038 192.46 322.654 193.076 322.654 193.84V196.107H299.584V193.84C299.584 193.076 300.2 192.46 300.963 192.46Z" fill="white"/>
</g>
<path d="M301.221 64.8694C305.112 70.1543 303.985 77.5922 298.706 81.483C294.629 84.4907 289.274 84.4907 285.25 81.9079L281.813 82.8675L282.223 79.1199C282.185 79.0674 282.137 79.0197 282.099 78.9671C278.209 73.6823 279.336 66.2444 284.615 62.3535C289.899 58.4627 297.336 59.5894 301.226 64.8694H301.221Z" fill="#5A5BB5"/>
<path opacity="0.7" d="M301.221 64.8694C305.112 70.1543 303.985 77.5922 298.706 81.483C294.629 84.4907 289.274 84.4907 285.25 81.9079L281.813 82.8675L282.223 79.1199C282.185 79.0674 282.137 79.0197 282.099 78.9671C278.209 73.6823 279.336 66.2444 284.615 62.3535C289.899 58.4627 297.336 59.5894 301.226 64.8694H301.221Z" fill="white"/>
<path d="M301.99 63.7141C301.951 63.7141 301.913 63.695 301.889 63.6616C299.803 60.5967 296.109 58.6536 292.405 58.6536C292.305 58.6536 292.204 58.6536 292.099 58.6536C292.042 58.6584 291.98 58.6011 291.975 58.5391C291.975 58.4722 292.023 58.4197 292.09 58.4149C295.97 58.3004 299.899 60.3055 302.085 63.5231C302.123 63.5757 302.109 63.652 302.052 63.6902C302.033 63.7046 302.009 63.7093 301.985 63.7093L301.99 63.7141ZM288.639 59.0451C289.173 58.8398 289.756 58.7491 290.324 58.773C290.39 58.7778 290.448 58.7253 290.448 58.6584C290.448 58.5916 290.4 58.5391 290.333 58.5343C289.727 58.5056 289.116 58.6059 288.553 58.8255C288.491 58.8494 288.462 58.9162 288.486 58.9783C288.505 59.026 288.548 59.0547 288.596 59.0547C288.61 59.0547 288.624 59.0547 288.639 59.0451Z" fill="#5A5BB5"/>
<path opacity="0.7" d="M301.99 63.7141C301.951 63.7141 301.913 63.695 301.889 63.6616C299.803 60.5967 296.109 58.6536 292.405 58.6536C292.305 58.6536 292.204 58.6536 292.099 58.6536C292.042 58.6584 291.98 58.6011 291.975 58.5391C291.975 58.4722 292.023 58.4197 292.09 58.4149C295.97 58.3004 299.899 60.3055 302.085 63.5231C302.123 63.5757 302.109 63.652 302.052 63.6902C302.033 63.7046 302.009 63.7093 301.985 63.7093L301.99 63.7141ZM288.639 59.0451C289.173 58.8398 289.756 58.7491 290.324 58.773C290.39 58.7778 290.448 58.7253 290.448 58.6584C290.448 58.5916 290.4 58.5391 290.333 58.5343C289.727 58.5056 289.116 58.6059 288.553 58.8255C288.491 58.8494 288.462 58.9162 288.486 58.9783C288.505 59.026 288.548 59.0547 288.596 59.0547C288.61 59.0547 288.624 59.0547 288.639 59.0451Z" fill="white"/>
<path d="M288.973 71.5483C288.973 72.4315 288.257 73.1428 287.378 73.1428C286.5 73.1428 285.784 72.4267 285.784 71.5483C285.784 70.6699 286.5 69.9538 287.378 69.9538C288.257 69.9538 288.973 70.6699 288.973 71.5483Z" fill="#5A5BB5"/>
<path d="M292.262 73.1428C293.142 73.1428 293.856 72.4289 293.856 71.5483C293.856 70.6677 293.142 69.9538 292.262 69.9538C291.381 69.9538 290.667 70.6677 290.667 71.5483C290.667 72.4289 291.381 73.1428 292.262 73.1428Z" fill="#5A5BB5"/>
<path d="M297.145 73.1428C298.025 73.1428 298.739 72.4289 298.739 71.5483C298.739 70.6677 298.025 69.9538 297.145 69.9538C296.264 69.9538 295.55 70.6677 295.55 71.5483C295.55 72.4289 296.264 73.1428 297.145 73.1428Z" fill="#5A5BB5"/>
<path d="M121.467 54.8917C117.791 50.2227 110.894 49.3252 106.068 52.8819C102.34 55.6269 100.951 60.2243 102.197 64.3252L100.455 67.0368L103.887 67.6288C103.925 67.6766 103.953 67.7291 103.992 67.772C107.667 72.441 114.56 73.3385 119.39 69.7819C124.216 66.2253 125.147 59.5607 121.472 54.8917H121.467Z" fill="#5A5BB5"/>
<path opacity="0.7" d="M121.467 54.8917C117.791 50.2227 110.894 49.3252 106.068 52.8819C102.34 55.6269 100.951 60.2243 102.197 64.3252L100.455 67.0368L103.887 67.6288C103.925 67.6766 103.953 67.7291 103.992 67.772C107.667 72.441 114.56 73.3385 119.39 69.7819C124.216 66.2253 125.147 59.5607 121.472 54.8917H121.467Z" fill="white"/>
<path d="M124.717 64.4302C124.717 64.4302 124.693 64.4302 124.679 64.4254C124.617 64.4063 124.584 64.3347 124.603 64.2727C125.686 61.0407 124.942 57.2549 122.708 54.6291C122.665 54.5814 122.67 54.505 122.722 54.462C122.77 54.4191 122.846 54.4239 122.889 54.4764C125.176 57.1641 125.939 61.0406 124.827 64.349C124.813 64.3968 124.765 64.4302 124.713 64.4302H124.717ZM123.548 67.2898C123.887 66.8602 124.135 66.3541 124.269 65.829C124.283 65.7669 124.245 65.7001 124.183 65.6858C124.116 65.6667 124.054 65.7096 124.039 65.7717C123.915 66.2634 123.681 66.7408 123.362 67.1419C123.319 67.1944 123.328 67.2708 123.381 67.3089C123.405 67.328 123.428 67.3328 123.452 67.3328C123.486 67.3328 123.524 67.3185 123.548 67.2851V67.2898Z" fill="#5A5BB5"/>
<path opacity="0.7" d="M124.717 64.4302C124.717 64.4302 124.693 64.4302 124.679 64.4254C124.617 64.4063 124.584 64.3347 124.603 64.2727C125.686 61.0407 124.942 57.2549 122.708 54.6291C122.665 54.5814 122.67 54.505 122.722 54.462C122.77 54.4191 122.846 54.4239 122.889 54.4764C125.176 57.1641 125.939 61.0406 124.827 64.349C124.813 64.3968 124.765 64.4302 124.713 64.4302H124.717ZM123.548 67.2898C123.887 66.8602 124.135 66.3541 124.269 65.829C124.283 65.7669 124.245 65.7001 124.183 65.6858C124.116 65.6667 124.054 65.7096 124.039 65.7717C123.915 66.2634 123.681 66.7408 123.362 67.1419C123.319 67.1944 123.328 67.2708 123.381 67.3089C123.405 67.328 123.428 67.3328 123.452 67.3328C123.486 67.3328 123.524 67.3185 123.548 67.2851V67.2898Z" fill="white"/>
<path d="M115.347 61.0932C115.347 61.8809 116.006 62.5206 116.822 62.5206C117.638 62.5206 118.297 61.8809 118.297 61.0932C118.297 60.3055 117.638 59.6657 116.822 59.6657C116.006 59.6657 115.347 60.3055 115.347 61.0932Z" fill="#5A5BB5"/>
<path d="M110.832 61.0932C110.832 61.8809 111.491 62.5206 112.307 62.5206C113.123 62.5206 113.782 61.8809 113.782 61.0932C113.782 60.3055 113.123 59.6657 112.307 59.6657C111.491 59.6657 110.832 60.3055 110.832 61.0932Z" fill="#5A5BB5"/>
<path d="M106.316 61.0932C106.316 61.8809 106.975 62.5206 107.791 62.5206C108.608 62.5206 109.266 61.8809 109.266 61.0932C109.266 60.3055 108.608 59.6657 107.791 59.6657C106.975 59.6657 106.316 60.3055 106.316 61.0932Z" fill="#5A5BB5"/>
<path d="M203.311 9.9872C195.048 9.89171 188.27 16.5133 188.174 24.7771C188.122 29.2599 190.084 33.5327 193.521 36.4162C194.151 36.9366 195.12 37.5667 195.096 38.8748C195.096 38.913 195.163 42.145 195.163 42.145H210.9C210.9 42.145 210.967 38.7889 210.967 38.7507C210.967 37.6001 211.86 37.1036 212.514 36.5833C215.993 33.7905 218.046 29.5893 218.098 25.1256C218.194 16.8618 211.573 10.0827 203.311 9.9872Z" fill="#5A5BB5"/>
<path opacity="0.4" d="M203.311 9.9872C195.048 9.89171 188.27 16.5133 188.174 24.7771C188.122 29.2599 190.084 33.5327 193.521 36.4162C194.151 36.9366 195.12 37.5667 195.096 38.8748C195.096 38.913 195.163 42.145 195.163 42.145H210.9C210.9 42.145 210.967 38.7889 210.967 38.7507C210.967 37.6001 211.86 37.1036 212.514 36.5833C215.993 33.7905 218.046 29.5893 218.098 25.1256C218.194 16.8618 211.573 10.0827 203.311 9.9872Z" fill="white"/>
<path opacity="0.2" d="M210.747 16.4322C210.747 19.3443 207.339 21.7122 203.11 21.7122C198.881 21.7122 195.473 19.3443 195.473 16.4322C195.473 13.52 198.881 11.1473 203.11 11.1473C207.339 11.1473 210.747 13.5152 210.747 16.4322Z" fill="white"/>
<path d="M191.63 30.6969C190.308 28.4293 189.788 25.7463 190.174 23.1492C190.556 20.5521 191.826 18.1317 193.75 16.3414L193.912 16.5181C192.031 18.2701 190.785 20.6381 190.408 23.1826C190.031 25.7272 190.537 28.3529 191.836 30.5776L191.63 30.6969Z" fill="white"/>
<path d="M207.483 38.9464C206.719 36.9318 206.084 34.8646 205.578 32.7497C204.805 33.4276 203.96 33.7762 203.144 33.7332C202.485 33.6998 201.821 33.4229 201.144 32.893C201.043 34.941 200.7 36.9747 200.127 38.9416L199.669 38.808C200.27 36.7599 200.609 34.6355 200.685 32.5015C200.576 32.3965 200.466 32.2914 200.356 32.1721C198.681 30.4296 197.898 28.2669 198.261 26.3955C198.399 25.6842 198.829 24.9919 199.478 24.9919C200.07 25.0063 200.509 25.5887 200.709 26.6342C201.067 28.5009 201.22 30.4009 201.167 32.2962C201.864 32.9121 202.523 33.2271 203.168 33.2606C204.137 33.3083 204.958 32.702 205.454 32.2198C205.086 30.611 204.8 28.9783 204.59 27.3264C204.514 26.7297 204.456 26.1473 204.59 25.5792C204.747 24.8869 205.196 24.3618 205.731 24.2472C206.652 24.0467 207.401 25.0349 207.659 26.1091C208.17 28.2478 207.526 30.6874 206.027 32.3201C206.012 32.3344 206.003 32.3487 205.989 32.363C206.499 34.5495 207.148 36.6979 207.941 38.7793L207.492 38.9512L207.483 38.9464ZM199.459 25.4646C199.11 25.4646 198.829 25.9754 198.728 26.4814C198.394 28.2049 199.129 30.2052 200.695 31.8379C200.714 30.124 200.561 28.4054 200.237 26.7154C200.179 26.4242 199.96 25.4741 199.463 25.4598C199.463 25.4598 199.459 25.4598 199.454 25.4598L199.459 25.4646ZM205.955 24.7007C205.912 24.7007 205.869 24.7007 205.826 24.7151C205.425 24.801 205.148 25.2641 205.053 25.6842C204.938 26.1759 204.996 26.7106 205.063 27.2596C205.258 28.7825 205.521 30.2959 205.85 31.7854C207.096 30.2863 207.635 28.0855 207.191 26.2141C207.005 25.4359 206.504 24.696 205.955 24.696V24.7007Z" fill="#263238"/>
<path d="M211.936 41.195H194.203C193.781 41.195 193.439 41.537 193.439 41.9589V42.3312C193.439 42.7531 193.781 43.0951 194.203 43.0951H211.936C212.358 43.0951 212.7 42.7531 212.7 42.3312V41.9589C212.7 41.537 212.358 41.195 211.936 41.195Z" fill="#263238"/>
<path opacity="0.3" d="M211.936 41.195H194.203C193.781 41.195 193.439 41.537 193.439 41.9589V42.3312C193.439 42.7531 193.781 43.0951 194.203 43.0951H211.936C212.358 43.0951 212.7 42.7531 212.7 42.3312V41.9589C212.7 41.537 212.358 41.195 211.936 41.195Z" fill="white"/>
<path d="M211.621 42.9232H194.513C194.091 42.9232 193.75 43.2652 193.75 43.6871V43.9974C193.75 44.4192 194.091 44.7612 194.513 44.7612H211.621C212.043 44.7612 212.385 44.4192 212.385 43.9974V43.6871C212.385 43.2652 212.043 42.9232 211.621 42.9232Z" fill="#263238"/>
<path opacity="0.3" d="M211.621 42.9232H194.513C194.091 42.9232 193.75 43.2652 193.75 43.6871V43.9974C193.75 44.4192 194.091 44.7612 194.513 44.7612H211.621C212.043 44.7612 212.385 44.4192 212.385 43.9974V43.6871C212.385 43.2652 212.043 42.9232 211.621 42.9232Z" fill="white"/>
<path d="M197.158 47.3821C198.337 49.54 200.824 51.8172 203.277 51.674C205.735 51.5308 208.041 49.4397 208.957 47.1577L197.158 47.3821Z" fill="#263238"/>
<path d="M210.48 46.2364H195.649C195.228 46.2364 194.886 46.5784 194.886 47.0002V47.3105C194.886 47.7324 195.228 48.0744 195.649 48.0744H210.48C210.902 48.0744 211.244 47.7324 211.244 47.3105V47.0002C211.244 46.5784 210.902 46.2364 210.48 46.2364Z" fill="#263238"/>
<path opacity="0.3" d="M210.48 46.2364H195.649C195.228 46.2364 194.886 46.5784 194.886 47.0002V47.3105C194.886 47.7324 195.228 48.0744 195.649 48.0744H210.48C210.902 48.0744 211.244 47.7324 211.244 47.3105V47.0002C211.244 46.5784 210.902 46.2364 210.48 46.2364Z" fill="white"/>
<path d="M211.373 44.5511H194.766C194.344 44.5511 194.002 44.8931 194.002 45.315V45.6253C194.002 46.0472 194.344 46.3891 194.766 46.3891H211.373C211.794 46.3891 212.136 46.0472 212.136 45.6253V45.315C212.136 44.8931 211.794 44.5511 211.373 44.5511Z" fill="#263238"/>
<path opacity="0.3" d="M211.373 44.5511H194.766C194.344 44.5511 194.002 44.8931 194.002 45.315V45.6253C194.002 46.0472 194.344 46.3891 194.766 46.3891H211.373C211.794 46.3891 212.136 46.0472 212.136 45.6253V45.315C212.136 44.8931 211.794 44.5511 211.373 44.5511Z" fill="white"/>
<path d="M194.828 4.55912C195.964 5.69534 197.105 6.83633 198.241 7.97255C198.403 8.13486 198.656 7.88184 198.494 7.71952C197.358 6.58331 196.217 5.44231 195.081 4.3061C194.919 4.14378 194.666 4.3968 194.828 4.55912Z" fill="#263238"/>
<path d="M203.726 6.63106V0.171804C203.726 -0.0573493 203.368 -0.0573493 203.368 0.171804V6.62628C203.368 6.85544 203.726 6.85544 203.726 6.62628V6.63106Z" fill="#263238"/>
<path d="M208.456 8.24944C209.688 7.01774 210.914 5.79082 212.146 4.55912C212.308 4.3968 212.055 4.14378 211.893 4.3061C210.661 5.53779 209.435 6.76472 208.203 7.99642C208.041 8.15873 208.294 8.41176 208.456 8.24944Z" fill="#263238"/>
<path d="M282.782 174.056H75.1465V196.289H282.782V174.056Z" fill="#5A5BB5"/>
<path d="M146.484 176.381H75.1465V193.964H146.484V176.381Z" fill="white"/>
<path d="M75.1465 180.716C96.8461 180.482 121.185 180.482 142.885 180.716C121.185 180.95 96.8461 180.95 75.1465 180.716Z" fill="#263238"/>
<path d="M75.1465 182.802C96.8461 182.568 121.185 182.568 142.885 182.802C121.185 183.036 96.8461 183.036 75.1465 182.802Z" fill="#263238"/>
<path d="M75.1465 184.884C96.8461 184.65 121.185 184.65 142.885 184.884C121.185 185.118 96.8461 185.118 75.1465 184.884Z" fill="#263238"/>
<path d="M75.1465 186.97C96.8461 186.736 121.185 186.736 142.885 186.97C121.185 187.204 96.8461 187.204 75.1465 186.97Z" fill="#263238"/>
<path d="M75.1465 189.056C96.8461 188.822 121.185 188.822 142.885 189.056C121.185 189.29 96.8461 189.29 75.1465 189.056Z" fill="#263238"/>
<path d="M75.1465 191.142C96.8461 190.908 121.185 190.908 142.885 191.142C121.185 191.376 96.8461 191.376 75.1465 191.142Z" fill="#263238"/>
<path d="M75.1465 178.63C96.8461 178.396 121.185 178.396 142.885 178.63C121.185 178.864 96.8461 178.864 75.1465 178.63Z" fill="#263238"/>
<path opacity="0.3" d="M171.081 174.056H164.713V196.289H171.081V174.056Z" fill="white"/>
<path opacity="0.3" d="M268.204 174.056H261.836V196.289H268.204V174.056Z" fill="white"/>
<path opacity="0.2" d="M150.527 174.056H75.1465V196.289H150.527V174.056Z" fill="black"/>
<path d="M227.139 127.137H106.488V142.972H227.139V127.137Z" fill="#5A5BB5"/>
<path d="M157.31 128.794H106.488V141.321H157.31V128.794Z" fill="white"/>
<path d="M106.488 131.878C121.944 131.644 139.291 131.644 154.747 131.878C139.291 132.112 121.944 132.112 106.488 131.878Z" fill="#263238"/>
<path d="M106.488 133.362C121.944 133.128 139.291 133.128 154.747 133.362C139.291 133.596 121.944 133.596 106.488 133.362Z" fill="#263238"/>
<path d="M106.488 134.852C121.944 134.618 139.291 134.618 154.747 134.852C139.291 135.086 121.944 135.086 106.488 134.852Z" fill="#263238"/>
<path d="M106.488 136.337C121.944 136.103 139.291 136.103 154.747 136.337C139.291 136.57 121.944 136.57 106.488 136.337Z" fill="#263238"/>
<path d="M106.488 137.821C121.944 137.587 139.291 137.587 154.747 137.821C139.291 138.055 121.944 138.055 106.488 137.821Z" fill="#263238"/>
<path d="M106.488 139.306C121.944 139.072 139.291 139.072 154.747 139.306C139.291 139.54 121.944 139.54 106.488 139.306Z" fill="#263238"/>
<path d="M106.488 130.393C121.944 130.159 139.291 130.159 154.747 130.393C139.291 130.627 121.944 130.627 106.488 130.393Z" fill="#263238"/>
<path opacity="0.3" d="M222.237 127.137H217.697V142.972H222.237V127.137Z" fill="black"/>
<path opacity="0.3" d="M173.983 127.137H169.444V142.972H173.983V127.137Z" fill="black"/>
<path opacity="0.2" d="M160.193 127.137H106.488V142.972H160.193V127.137Z" fill="black"/>
<path opacity="0.3" d="M213.115 132.727H178.017V137.363H213.115V132.727Z" fill="black"/>
<path d="M231.822 164.742H62.4736V174.061H231.822V164.742Z" fill="#263238"/>
<path d="M133.63 165.945H62.4736V172.858H133.63V165.945Z" fill="white"/>
<path d="M62.96 167.315C84.6595 167.081 108.999 167.081 130.698 167.315C108.999 167.549 84.6595 167.549 62.96 167.315Z" fill="#263238"/>
<path d="M62.96 169.401C84.6595 169.167 108.999 169.167 130.698 169.401C108.999 169.635 84.6595 169.635 62.96 169.401Z" fill="#263238"/>
<path d="M62.96 171.483C84.6595 171.249 108.999 171.249 130.698 171.483C108.999 171.717 84.6595 171.717 62.96 171.483Z" fill="#263238"/>
<path opacity="0.3" d="M153.849 164.742H152.059V174.061H153.849V164.742Z" fill="white"/>
<path opacity="0.3" d="M157.181 164.742H155.391V174.061H157.181V164.742Z" fill="white"/>
<path opacity="0.3" d="M220.423 164.742H218.633V174.061H220.423V164.742Z" fill="white"/>
<path opacity="0.3" d="M223.755 164.742H221.965V174.061H223.755V164.742Z" fill="white"/>
<path opacity="0.2" d="M135.357 164.737H62.4639V174.056H135.357V164.737Z" fill="black"/>
<path d="M264.696 142.891H95.3472V152.21H264.696V142.891Z" fill="#263238"/>
<path d="M166.503 144.094H95.3472V151.007H166.503V144.094Z" fill="white"/>
<path d="M95.834 145.465C117.534 145.231 141.873 145.231 163.572 145.465C141.873 145.698 117.534 145.698 95.834 145.465Z" fill="#263238"/>
<path d="M95.834 147.551C117.534 147.317 141.873 147.317 163.572 147.551C141.873 147.785 117.534 147.785 95.834 147.551Z" fill="#263238"/>
<path d="M95.834 149.637C117.534 149.403 141.873 149.403 163.572 149.637C141.873 149.871 117.534 149.871 95.834 149.637Z" fill="#263238"/>
<path opacity="0.3" d="M186.723 142.891H184.933V152.21H186.723V142.891Z" fill="white"/>
<path opacity="0.3" d="M190.055 142.891H188.265V152.21H190.055V142.891Z" fill="white"/>
<path opacity="0.3" d="M253.301 142.891H251.511V152.21H253.301V142.891Z" fill="white"/>
<path opacity="0.3" d="M256.633 142.891H254.843V152.21H256.633V142.891Z" fill="white"/>
<path opacity="0.2" d="M168.231 142.887H95.3379V152.205H168.231V142.887Z" fill="black"/>
<path d="M69.4661 164.833L238.814 164.833V152.119L69.4661 152.119V164.833Z" fill="#5A5BB5"/>
<path opacity="0.4" d="M69.4661 164.833L238.814 164.833V152.119L69.4661 152.119V164.833Z" fill="white"/>
<path d="M167.663 163.63H238.819V153.58H167.663V163.63Z" fill="white"/>
<path d="M238.333 158.087C216.633 158.321 192.294 158.321 170.594 158.087C192.294 157.853 216.633 157.853 238.333 158.087Z" fill="#263238"/>
<path d="M238.333 160.173C216.633 160.407 192.294 160.407 170.594 160.173C192.294 159.939 216.633 159.939 238.333 160.173Z" fill="#263238"/>
<path d="M238.333 162.26C216.633 162.493 192.294 162.493 170.594 162.26C192.294 162.026 216.633 162.026 238.333 162.26Z" fill="#263238"/>
<path d="M238.333 155.924C216.633 156.158 192.294 156.158 170.594 155.924C192.294 155.69 216.633 155.69 238.333 155.924Z" fill="#263238"/>
<path opacity="0.2" d="M165.936 164.823H238.829V152.11H165.936V164.823Z" fill="black"/>
<path opacity="0.4" d="M151.42 155.924H84.6074V160.173H151.42V155.924Z" fill="white"/>
<path d="M266.271 152.535C266.271 152.535 216.571 142.423 214.528 152.778C211.612 167.554 247.512 176.376 266.462 175.216C285.412 174.051 266.271 152.54 266.271 152.54V152.535Z" fill="#263238"/>
<path opacity="0.2" d="M266.271 152.535C266.271 152.535 216.571 142.423 214.528 152.778C211.612 167.554 247.512 176.376 266.462 175.216C285.412 174.051 266.271 152.54 266.271 152.54V152.535Z" fill="black"/>
<path opacity="0.2" d="M230.815 155.471L254.428 169.521L251.464 174.008C251.464 174.008 253.163 176.376 256.047 168.867L241.426 159.81C241.426 159.81 245.903 159.228 245.77 158.531C245.545 157.385 235.621 155.48 231.092 154.626C230.858 154.549 230.605 154.678 230.528 154.912C230.452 155.146 230.581 155.399 230.815 155.476V155.471Z" fill="black"/>
<path opacity="0.2" d="M255.221 167.836L251.393 174.471C256.376 175.192 261.426 175.441 266.462 175.211C268.118 175.154 269.751 174.806 271.278 174.19L272.615 171.564L269.393 165.535L255.221 167.836Z" fill="black"/>
<path d="M247.468 165.472L257.975 171.707L256.275 176.768L244.008 171.683L247.468 165.472Z" fill="#EBB373"/>
<path d="M263.698 173.216L262.791 176.844C262.791 176.844 262.037 177.026 261.822 177.789C261.703 178.219 262.051 179.384 262.051 179.384L259.636 189.381C259.636 189.381 258.949 189.218 258.681 189.032C258.352 188.808 258.085 188.579 257.87 188.345C257.111 187.519 256.996 186.297 256.944 185.39C256.853 183.867 255.846 179.451 255.846 179.451C255.846 179.451 255.478 178.3 254.223 177.317C253.526 176.768 253.187 176.056 253.24 175.612C253.34 174.701 253.984 174.343 254.834 174.419L255.822 174.51C256.509 173.965 256.7 173.073 256.228 172.228C256.228 172.228 255.583 170.084 256.5 170.423C257.025 170.614 259.33 171.564 261.173 172.256C261.603 172.419 262.008 172.571 262.366 172.705C263.159 173.006 263.703 173.211 263.703 173.211L263.698 173.216Z" fill="#263238"/>
<path d="M256.29 181.814C256.261 181.761 256.27 181.69 256.318 181.647C256.523 181.446 256.786 181.298 257.077 181.227C257.235 181.189 257.311 181.437 257.154 181.475C256.891 181.537 256.662 181.666 256.48 181.843C256.418 181.9 256.328 181.89 256.285 181.819L256.29 181.814Z" fill="#5A5BB5"/>
<path d="M256.061 180.94C256.032 180.888 256.046 180.816 256.089 180.773C256.295 180.573 256.557 180.425 256.848 180.353C257.006 180.315 257.082 180.563 256.925 180.601C256.662 180.663 256.433 180.792 256.252 180.969C256.19 181.026 256.099 181.017 256.056 180.945L256.061 180.94Z" fill="#5A5BB5"/>
<path d="M255.865 180.052C255.836 180 255.846 179.928 255.893 179.885C256.099 179.685 256.361 179.537 256.652 179.465C256.81 179.427 256.886 179.675 256.729 179.713C256.466 179.775 256.237 179.904 256.056 180.081C255.994 180.138 255.903 180.129 255.86 180.057L255.865 180.052Z" fill="#5A5BB5"/>
<path opacity="0.2" d="M262.362 172.71C263.154 173.011 263.698 173.216 263.698 173.216L262.791 176.844C262.791 176.844 262.037 177.026 261.822 177.789C261.703 178.219 262.051 179.384 262.051 179.384L259.636 189.381C259.636 189.381 258.949 189.218 258.681 189.032C258.529 188.932 258.395 188.827 258.271 188.722L262.171 172.633C262.238 172.657 262.309 172.686 262.371 172.71H262.362Z" fill="white"/>
<path d="M254.466 180.807C254.213 180.807 253.97 180.74 253.779 180.611C253.626 180.511 253.474 180.324 253.512 180.119C253.55 179.919 253.736 179.804 253.894 179.742C254.204 179.618 254.571 179.584 254.982 179.647C255.34 179.699 255.688 179.818 256.027 179.928L256.132 179.966L256.046 180.033C255.846 180.186 255.163 180.692 254.801 180.768C254.691 180.792 254.581 180.807 254.471 180.807H254.466ZM254.586 179.737C254.347 179.737 254.128 179.775 253.932 179.852C253.832 179.89 253.655 179.985 253.626 180.138C253.598 180.286 253.722 180.429 253.841 180.511C254.089 180.678 254.428 180.73 254.767 180.654C255.068 180.587 255.636 180.186 255.875 180.005C255.574 179.904 255.268 179.809 254.958 179.761C254.829 179.742 254.705 179.732 254.581 179.732L254.586 179.737Z" fill="#5A5BB5"/>
<path d="M256.07 180.062L255.98 179.995C255.693 179.78 255.402 179.561 255.154 179.298C254.867 178.997 254.686 178.677 254.61 178.348C254.571 178.186 254.557 177.966 254.705 177.823C254.853 177.675 255.092 177.694 255.264 177.761C255.569 177.88 255.832 178.152 255.975 178.506C256.118 178.854 256.089 179.699 256.08 179.952V180.067L256.07 180.062ZM255.001 177.828C254.92 177.828 254.843 177.847 254.786 177.904C254.676 178.014 254.7 178.21 254.724 178.319C254.796 178.625 254.968 178.926 255.235 179.212C255.45 179.441 255.707 179.637 255.956 179.828C255.97 179.346 255.956 178.782 255.855 178.549C255.722 178.229 255.488 177.98 255.211 177.871C255.144 177.847 255.068 177.828 254.996 177.828H255.001Z" fill="#5A5BB5"/>
<path d="M244.953 121.728C244.953 121.728 243.621 137.831 243.168 138.704C241.626 141.664 230.982 146.973 230.982 146.973L225.444 145.985L221.597 149.393L224.256 151.356L227.273 150.114C228.948 150.363 230.638 150.458 232.328 150.406C235.168 150.32 249.335 146.777 251.507 142.891C253.679 139.005 253.65 120.936 253.65 120.936L244.948 121.728H244.953Z" fill="#EBB373"/>
<path d="M254.09 127.772C254.09 127.772 257.903 113.55 252.519 109.793C247.135 106.036 243.517 125.538 243.517 125.538L254.09 127.772Z" fill="#5A5BB5"/>
<path opacity="0.5" d="M254.09 127.772C254.09 127.772 257.903 113.55 252.519 109.793C247.135 106.036 243.517 125.538 243.517 125.538L254.09 127.772Z" fill="white"/>
<path d="M251.511 153.652L251.001 134.966L250.647 109.373L261.612 106.652L269.292 106.58L282.28 110.624L282.719 116.892C282.719 116.892 282.319 145.751 282.414 146.62C282.533 147.684 285.827 154.277 285.827 154.277C272.113 157.829 251.316 154.607 251.502 153.647L251.511 153.652Z" fill="#5A5BB5"/>
<path opacity="0.2" d="M250.924 127.104L250.738 115.961L248.781 126.65L250.924 127.104Z" fill="black"/>
<path opacity="0.2" d="M274.343 128.173C273.999 128.116 272.605 127.705 272.605 127.705L275.775 116.844L270.868 128.774L274.061 129.939L274.338 128.173H274.343Z" fill="black"/>
<path d="M275.56 119.298C275.56 119.298 273.407 137.196 271.908 138.905C269.378 141.798 256.653 149.647 256.653 149.647L250.123 147.57C249.664 147.436 249.168 147.532 248.805 147.823L244.485 151.327L244.92 151.671C245.106 151.819 245.373 151.843 245.583 151.728L246.261 151.365L245.516 152.139L245.765 152.334C246.013 152.53 246.352 152.597 246.657 152.501L248.619 151.914L246.834 153.179C247.249 153.509 247.822 153.614 248.337 153.451L251.201 152.544C253.187 152.936 255.201 153.165 257.225 153.227C260.634 153.337 276.538 147.245 279.412 143.049C282.285 138.848 284.873 121.685 284.873 121.685L275.56 119.293V119.298Z" fill="#EBB373"/>
<path d="M284.462 130.899C284.462 130.899 287.99 114.634 282.606 110.872C277.221 107.115 272.605 127.7 272.605 127.7L284.462 130.899Z" fill="#5A5BB5"/>
<path opacity="0.5" d="M284.462 130.899C284.462 130.899 287.99 114.634 282.606 110.872C277.221 107.115 272.605 127.7 272.605 127.7L284.462 130.899Z" fill="white"/>
<path d="M241.942 152.702L251.88 152.411L262.424 152.1C262.424 152.1 262.424 152.1 262.424 152.105C262.443 152.888 261.589 153.542 260.515 153.571L249.98 153.881L243.951 154.058C243.951 154.058 243.932 154.058 243.922 154.058L227.149 154.554C226.085 154.578 225.211 153.972 225.192 153.194L241.942 152.702Z" fill="#263238"/>
<path d="M226.843 154.483L245.555 153.929C245.879 153.919 246.132 153.7 246.123 153.437C246.123 153.389 246.109 153.342 246.089 153.294L237.202 134.451C236.977 133.911 236.338 133.558 235.626 133.577L216.901 134.131C216.585 134.14 216.333 134.355 216.342 134.608C216.342 134.661 216.356 134.713 216.38 134.766L225.268 153.609C225.497 154.144 226.132 154.497 226.843 154.483Z" fill="#263238"/>
<path opacity="0.7" d="M216.901 134.131L235.626 133.577C236.338 133.558 236.977 133.911 237.202 134.451L245.755 152.583L251.884 152.401L262.429 152.091C262.429 152.091 262.429 152.091 262.429 152.096C262.448 152.879 261.593 153.533 260.519 153.561L249.985 153.872L243.956 154.048C243.956 154.048 243.937 154.048 243.927 154.048L227.154 154.545C226.815 154.554 226.504 154.492 226.223 154.387C225.784 154.253 225.426 153.972 225.268 153.599L216.38 134.756C216.356 134.709 216.342 134.656 216.342 134.599C216.333 134.346 216.585 134.131 216.901 134.121V134.131Z" fill="white"/>
<path d="M228.447 143.965C228.877 144.868 229.717 145.474 230.323 145.326C230.93 145.178 231.068 144.343 230.648 143.436C230.228 142.528 229.383 141.936 228.772 142.084C228.166 142.232 228.003 143.039 228.443 143.965H228.447Z" fill="white"/>
<g opacity="0.3">
<path d="M246.094 152.578L245.75 152.587" stroke="black" stroke-width="0.599665" stroke-linecap="round" stroke-linejoin="round"/>
<path d="M237.201 134.456L245.755 152.587L244.886 152.611L235.626 133.577C236.337 133.558 236.977 133.911 237.201 134.451V134.456Z" fill="black"/>
</g>
<path d="M269.622 107.941C269.622 107.941 267.636 104.007 268.92 97.4951C268.133 97.1275 269.173 95.4996 269.14 94.8456L260.925 100.975C261.307 102.99 260.92 106.976 260.629 108.671L263.798 111.55L269.617 107.941H269.622Z" fill="#EBB373"/>
<path opacity="0.2" d="M261.144 102.183L265.908 101.801C265.106 103.214 264.538 104.456 261.054 104.599C261.054 104.599 261.025 102.856 261.144 102.178V102.183Z" fill="black"/>
<path d="M257.861 82.7863C256.395 84.5145 255.76 89.4986 259.097 89.3363C262.438 89.1787 260.376 79.8169 257.861 82.7863Z" fill="#263238"/>
<path d="M271.603 92.0575C269.755 97.2994 268.82 100.297 265.345 102.241C250.805 108.141 252.385 83.2351 263.631 81.8077C269.369 81.2348 273.45 86.8109 271.603 92.0575Z" fill="#EBB373"/>
<path d="M275.908 85.4073C275.154 80.2943 266.848 80.5521 264.362 81.4687C263.989 81.6072 267.731 85.0445 267.493 84.8678L269.345 86.1664C271.956 87.4888 267.245 91.6994 269.493 96.2634C274.462 95.6189 276.29 89.1358 275.908 85.4073Z" fill="#263238"/>
<path d="M272.443 97.1084C271.006 99.7866 265.794 100.493 267.149 96.3589C268.214 92.2914 274.529 92.3153 272.443 97.1084Z" fill="#EBB373"/>
<path d="M263.646 91.4416C263.288 92.7354 261.975 92.3344 262.357 91.0597C262.715 89.766 264.028 90.167 263.646 91.4416Z" fill="#263238"/>
<path d="M258.109 89.9999C257.751 91.2936 256.438 90.8926 256.82 89.618C257.178 88.3242 258.491 88.7252 258.109 89.9999Z" fill="#263238"/>
<path d="M259.97 90.1956C259.97 90.1956 257.469 92.4155 256.6 93.3656C257.163 94.2679 258.562 94.3252 258.562 94.3252L259.97 90.1956Z" fill="#E4873E"/>
<path d="M265.593 89.2313C265.502 89.2408 265.407 89.2026 265.345 89.1215C264.643 88.1619 263.664 88.1953 263.655 88.1953C262.595 87.4935 264.801 87.3407 265.774 88.8111C265.898 88.9687 265.789 89.2122 265.593 89.2313Z" fill="#263238"/>
<path opacity="0.2" d="M268.753 96.3064C268.753 96.3064 268.729 96.3064 268.715 96.3016C268.653 96.2825 268.62 96.2157 268.639 96.1536C268.892 95.3611 269.827 94.5877 270.605 94.5304C270.968 94.5066 271.445 94.6068 271.751 95.2322C271.78 95.2895 271.751 95.3611 271.698 95.3898C271.641 95.4184 271.569 95.3945 271.541 95.3372C271.34 94.9315 271.035 94.7405 270.624 94.7691C269.947 94.8169 269.092 95.5282 268.868 96.2252C268.853 96.2777 268.806 96.3064 268.753 96.3064Z" fill="black"/>
<path d="M256.433 87.0257C256.252 86.935 256.247 86.6485 256.433 86.553C257.717 85.8513 258.791 86.4337 258.844 86.4528C259.145 86.6103 258.896 87.0877 258.596 86.9254C258.452 86.6963 257.417 86.7201 256.438 87.0257H256.433Z" fill="#263238"/>
<path d="M273.765 93.5899C273.765 93.5899 270.08 88.3242 265.579 85.8703C260.595 83.1539 256.948 83.9607 256.948 83.9607C256.948 83.9607 256.094 83.1253 256.643 82.6526C257.192 82.18 257.703 82.5954 257.703 82.5954C257.703 82.5954 263.049 76.8999 269.426 78.7188C275.808 80.5378 277.932 84.4811 277.674 84.7675C276.362 86.2236 275.607 83.9655 275.607 83.9655C275.607 83.9655 277.159 86.0327 275.369 90.2624L274.839 91.919C274.839 91.919 275.278 93.8525 273.76 93.5947L273.765 93.5899Z" fill="#263238"/>
<path opacity="0.7" d="M273.765 93.5899C273.765 93.5899 270.08 88.3242 265.579 85.8703C260.595 83.1539 256.948 83.9607 256.948 83.9607C256.948 83.9607 256.094 83.1253 256.643 82.6526C257.192 82.18 257.703 82.5954 257.703 82.5954C257.703 82.5954 263.049 76.8999 269.426 78.7188C275.808 80.5378 277.932 84.4811 277.674 84.7675C276.362 86.2236 275.607 83.9655 275.607 83.9655C275.607 83.9655 277.159 86.0327 275.369 90.2624L274.839 91.919C274.839 91.919 275.278 93.8525 273.76 93.5947L273.765 93.5899Z" fill="white"/>
<path d="M265.474 85.6364C264.791 85.4073 264.285 84.7246 264.266 84.0037C264.252 83.5311 264.423 83.0775 264.548 82.6192C264.667 82.1609 264.734 81.6549 264.519 81.23C264.333 80.8719 263.946 80.6237 263.54 80.6094C263.135 80.5951 262.734 80.8147 262.524 81.1584C262.676 80.872 262.571 80.5091 262.361 80.2657C262.151 80.0222 261.851 79.8742 261.559 79.7357C261.039 79.4827 260.452 79.2201 259.894 79.3872C259.335 79.5543 258.987 80.1033 258.791 80.6523C258.543 81.3589 258.476 82.1514 258.729 82.8532C259.068 83.7984 259.941 84.4668 260.882 84.8105C261.822 85.1542 262.839 85.2115 263.841 85.2688" fill="#263238"/>
<path opacity="0.2" d="M275.813 84.3331C275.813 84.3331 275.087 81.9127 272.094 80.7001L275.813 84.3331Z" fill="black"/>
<path opacity="0.3" d="M274.491 91.814C272.691 88.2812 268.93 84.715 265.125 82.9391L265.178 82.8293C269.001 84.6148 272.787 88.2001 274.601 91.7567L274.496 91.8092L274.491 91.814Z" fill="black"/>
<path d="M258.987 96.3112C259.378 96.9986 259.717 97.7195 260.008 98.4547C260.142 98.426 260.285 98.4022 260.419 98.364C262.271 97.9486 262.996 97.1466 263.225 96.378C263.33 96.0008 263.35 95.6046 263.273 95.2179C263.235 94.9983 263.168 94.7882 263.073 94.5877C262.223 95.3945 260.528 95.9149 259.612 96.1536C259.211 96.2395 258.982 96.3064 258.982 96.3064L258.987 96.3112Z" fill="#263238"/>
<path d="M259.593 96.1441L259.913 96.7695C261.651 96.3732 262.825 95.8719 263.254 95.2084C263.216 94.9887 263.149 94.7787 263.054 94.5782C262.2 95.3945 260.51 95.9054 259.593 96.1441Z" fill="white"/>
<path d="M260.395 98.3544C262.247 97.9391 262.973 97.137 263.202 96.3684C262.5 96.5403 261.837 96.8315 261.24 97.2325C260.848 97.5094 260.553 97.9009 260.395 98.3496V98.3544Z" fill="#C15854"/>
<path d="M237.397 174.023L225.401 176.319L223.32 171.402L235.874 167.076L237.397 174.023Z" fill="#EBB373"/>
<path d="M220.118 178.983L218.39 175.665C218.39 175.665 218.833 175.025 218.49 174.314C218.294 173.913 217.263 173.273 217.263 173.273L212.447 164.183C212.447 164.183 213.067 163.849 213.392 163.811C213.783 163.759 214.137 163.754 214.456 163.787C215.569 163.902 216.466 164.742 217.11 165.386C218.184 166.465 221.869 169.105 221.869 169.105C221.869 169.105 222.905 169.721 224.495 169.626C225.383 169.573 226.103 169.884 226.361 170.251C226.891 171.001 226.647 171.698 225.96 172.204L225.158 172.791C225.005 173.655 225.454 174.452 226.366 174.767C226.366 174.767 228.27 175.942 227.363 176.3C226.843 176.5 224.49 177.322 222.647 178.023C222.218 178.186 221.812 178.343 221.454 178.477C220.662 178.778 220.122 178.983 220.122 178.983H220.118Z" fill="#263238"/>
<path d="M219.965 167.635C220.022 167.659 220.061 167.716 220.056 167.778C220.037 168.065 219.941 168.351 219.765 168.599C219.674 168.728 219.45 168.599 219.54 168.466C219.693 168.246 219.779 167.998 219.798 167.745C219.803 167.659 219.884 167.606 219.96 167.635H219.965Z" fill="#5A5BB5"/>
<path d="M220.714 168.136C220.771 168.16 220.81 168.217 220.805 168.28C220.786 168.566 220.69 168.852 220.514 169.101C220.423 169.23 220.199 169.101 220.289 168.967C220.442 168.747 220.528 168.499 220.547 168.246C220.552 168.16 220.633 168.108 220.709 168.136H220.714Z" fill="#5A5BB5"/>
<path d="M221.449 168.676C221.507 168.695 221.545 168.757 221.54 168.819C221.521 169.105 221.426 169.392 221.249 169.64C221.158 169.769 220.934 169.64 221.025 169.506C221.177 169.287 221.263 169.039 221.282 168.786C221.287 168.7 221.368 168.647 221.445 168.676H221.449Z" fill="#5A5BB5"/>
<path opacity="0.2" d="M218.49 174.314C218.294 173.913 217.263 173.273 217.263 173.273L212.447 164.184C212.447 164.184 213.067 163.849 213.392 163.811C213.573 163.787 213.745 163.778 213.907 163.773L221.655 178.401C221.588 178.424 221.516 178.453 221.454 178.477C220.662 178.778 220.118 178.983 220.118 178.983L218.39 175.665C218.39 175.665 218.833 175.025 218.49 174.314Z" fill="white"/>
<path d="M221.311 168.914L221.33 168.805C221.378 168.556 221.554 167.731 221.774 167.425C221.998 167.115 222.313 166.914 222.643 166.871C222.824 166.847 223.058 166.886 223.168 167.062C223.249 167.196 223.239 167.387 223.134 167.597C222.982 167.898 222.729 168.165 222.38 168.389C222.075 168.59 221.736 168.728 221.411 168.867L221.306 168.91L221.311 168.914ZM222.748 166.986C222.719 166.986 222.69 166.986 222.662 166.991C222.366 167.029 222.079 167.215 221.874 167.497C221.721 167.707 221.573 168.246 221.473 168.719C221.764 168.595 222.056 168.466 222.323 168.294C222.652 168.079 222.891 167.831 223.034 167.549C223.082 167.449 223.153 167.263 223.072 167.129C223.01 167.024 222.877 166.986 222.752 166.986H222.748Z" fill="#5A5BB5"/>
<path d="M223.029 170.055C222.819 170.055 222.605 170.003 222.395 169.903C222.06 169.74 221.516 169.086 221.359 168.891L221.287 168.805L221.397 168.795V168.852L221.402 168.795C221.755 168.766 222.118 168.733 222.48 168.766C222.896 168.805 223.239 168.924 223.516 169.12C223.707 169.253 223.807 169.416 223.793 169.578C223.779 169.788 223.588 169.931 223.416 169.993C223.292 170.036 223.158 170.06 223.025 170.06L223.029 170.055ZM221.526 168.905C221.836 169.277 222.218 169.683 222.447 169.798C222.757 169.95 223.101 169.979 223.378 169.879C223.516 169.826 223.669 169.721 223.679 169.569C223.688 169.411 223.54 169.282 223.449 169.215C223.192 169.034 222.867 168.919 222.471 168.886C222.156 168.857 221.836 168.876 221.521 168.905H221.526Z" fill="#5A5BB5"/>
<path d="M282.529 167.191C285.006 162.976 290.553 151.58 278.562 149.747C266.577 147.914 227.297 168.022 227.297 168.022L230.046 175.55L266.954 168.609C266.954 168.609 262.08 175.531 268.223 175.044C277.15 173.894 279.236 171.688 282.529 167.191Z" fill="#263238"/>
<path opacity="0.2" d="M266.08 168.838L276.156 165.339C276.156 165.339 267.774 170.81 264.662 171.526L266.075 168.838H266.08Z" fill="black"/>
<path d="M192.599 67.9248L196.208 63.7523L199.883 65.0508L197.377 69.9394L192.599 67.9248Z" fill="#EEC1BB"/>
<path d="M195.664 63.4037C195.664 63.4037 195.348 61.5132 196.289 60.2338C197.224 58.9544 197.635 57.6845 198.394 56.7822C199.158 55.8799 199.172 57.4744 199.01 58.3242C198.847 59.174 198.671 60.1383 199.329 60.1574C199.988 60.1765 204.976 57.4983 205.888 57.632C206.8 57.7609 206.127 58.4483 206.127 58.4483C206.127 58.4483 207.358 57.8325 207.735 58.2526C207.836 58.3624 207.883 58.7729 207.368 59.1453C206.208 59.976 203.678 61.5944 203.678 61.5944C203.821 61.4989 207.081 59.723 207.606 59.5225C208.289 59.2599 208.747 59.4843 208.886 59.8853C209.086 60.4582 205.115 62.7927 205.019 63.0075C205.019 63.0075 207.258 61.5848 207.941 61.962C208.623 62.3391 207.263 63.313 205.902 63.9384C204.652 64.5161 202.351 65.9722 201.024 66.4353C199.387 67.0034 198.165 67.0225 197.043 65.848C195.921 64.6736 195.664 63.4085 195.664 63.4085V63.4037Z" fill="#EEC1BB"/>
<path opacity="0.3" d="M203.134 60.272C203.134 60.272 203.096 60.2624 203.086 60.2433C203.067 60.2147 203.077 60.1765 203.105 60.1622C204.026 59.5559 204.986 58.9878 205.955 58.4722C205.984 58.4579 206.022 58.4722 206.036 58.496C206.05 58.5247 206.036 58.5629 206.012 58.5772C205.048 59.0928 204.089 59.6609 203.172 60.2624C203.162 60.2672 203.153 60.272 203.139 60.272H203.134Z" fill="black"/>
<path opacity="0.3" d="M204.193 63.6711C204.165 63.6711 204.141 63.652 204.136 63.6234C203.821 62.2532 203.086 60.9642 202.069 59.9951C202.045 59.9712 202.045 59.933 202.069 59.9092C202.093 59.8853 202.131 59.8853 202.155 59.9092C203.191 60.8926 203.94 62.2055 204.26 63.5995C204.27 63.6329 204.246 63.6616 204.217 63.6711C204.217 63.6711 204.208 63.6711 204.203 63.6711H204.193Z" fill="black"/>
<path opacity="0.3" d="M198.155 63.9671C198.155 63.9671 198.117 63.9575 198.103 63.9384C198.088 63.9098 198.098 63.8716 198.127 63.8573C198.614 63.5756 199 63.1077 199.196 62.5778C199.392 62.0479 199.392 61.4416 199.205 60.9117C199.196 60.8783 199.21 60.8448 199.244 60.8353C199.277 60.8258 199.31 60.8401 199.32 60.8735C199.516 61.4321 199.516 62.067 199.31 62.6208C199.11 63.1746 198.699 63.6663 198.189 63.9623C198.179 63.9671 198.17 63.9718 198.16 63.9718L198.155 63.9671Z" fill="black"/>
<path d="M208.332 135.811L210.198 130.221L196.695 122.688L193.764 131.166L208.332 135.811Z" fill="#EEC1BB"/>
<path d="M208.532 128.273L207.54 130.116C207.315 130.531 207.32 131.033 207.525 131.462C208.403 133.305 207.43 133.811 205.439 134.231C204.957 134.919 205.697 135.573 205.888 135.754L210.16 139.826C210.513 140.17 211.081 140.165 211.425 139.807C211.487 139.745 211.54 139.674 211.578 139.592C212.781 137.353 213.349 136.294 214.847 133.506L219.43 124.984C220.681 122.659 218.595 120.921 217.864 121.761C214.599 125.552 211.697 127.92 209.73 128.579C209.377 128.708 209.349 128.364 208.528 128.268L208.532 128.273Z" fill="#263238"/>
<path d="M212.108 125.036C212.075 124.769 211.912 124.53 211.674 124.401C211.554 124.316 211.397 124.306 211.268 124.378C210.547 124.736 210.385 127.619 210.375 127.949C210.37 127.982 210.38 128.015 210.404 128.044C210.447 128.092 210.518 128.097 210.566 128.054C211.005 127.557 211.392 127.022 211.717 126.445C211.993 126.029 212.132 125.538 212.108 125.041V125.036ZM211.368 124.612C211.421 124.578 211.492 124.588 211.54 124.626C211.707 124.726 211.822 124.898 211.855 125.089C211.965 125.824 211.115 126.999 210.623 127.61C210.714 126.426 210.972 124.812 211.368 124.612Z" fill="#5A5BB5"/>
<path d="M210.633 127.982C210.714 127.132 210.356 125.075 209.716 124.826C209.583 124.769 209.382 124.779 209.172 125.07C208.346 126.259 210.327 128.015 210.423 128.068C210.456 128.101 210.504 128.111 210.547 128.097C210.566 128.077 210.58 128.054 210.585 128.025L210.633 127.982ZM209.339 125.213C209.487 124.993 209.573 125.036 209.602 125.051C210.003 125.18 210.385 126.746 210.375 127.71C209.931 127.271 208.852 126.091 209.287 125.294L209.339 125.213Z" fill="#5A5BB5"/>
<path d="M210.814 129.982C210.771 129.982 210.733 129.958 210.709 129.92C210.332 129.257 210.265 128.431 210.533 127.71C210.556 127.648 210.623 127.614 210.685 127.638C210.747 127.662 210.776 127.729 210.757 127.791C210.513 128.445 210.576 129.195 210.914 129.801C210.948 129.858 210.929 129.93 210.871 129.963C210.852 129.973 210.833 129.978 210.814 129.978V129.982Z" fill="#5A5BB5"/>
<path d="M212.289 129.3C212.246 129.3 212.208 129.276 212.184 129.238C211.807 128.574 211.74 127.748 212.008 127.027C212.032 126.965 212.098 126.937 212.16 126.956C212.222 126.979 212.251 127.046 212.232 127.108C211.989 127.762 212.046 128.512 212.39 129.118C212.423 129.176 212.404 129.247 212.347 129.281C212.327 129.29 212.308 129.295 212.289 129.295V129.3Z" fill="#5A5BB5"/>
<path d="M213.783 128.264C213.74 128.264 213.702 128.24 213.678 128.202C213.301 127.538 213.234 126.712 213.502 125.991C213.526 125.929 213.592 125.896 213.655 125.92C213.717 125.944 213.745 126.01 213.726 126.072C213.483 126.726 213.545 127.476 213.884 128.082C213.917 128.14 213.898 128.211 213.841 128.245C213.822 128.254 213.803 128.259 213.783 128.259V128.264Z" fill="#5A5BB5"/>
<path opacity="0.3" d="M203.831 126.669L205.487 127.595L202.919 134.083L200.981 133.467L203.831 126.669Z" fill="black"/>
<path d="M166.303 98.321L173.038 102.441C181.687 102.871 210.919 103.109 211.005 113.512C213.874 125.772 187.405 124.602 169.806 124.774C169.687 124.774 169.587 124.845 169.515 124.96C169.358 125.204 167.653 126.077 165.472 126.426C162.785 126.851 156.641 127.228 152.694 126.602C145.882 125.523 143.92 119.055 145.224 109.955C145.758 106.217 147.825 103.181 148.45 98.5215L166.303 98.3258V98.321Z" fill="#263238"/>
<path opacity="0.2" d="M147.844 112.156L147.887 112.581C147.887 112.581 170.15 108.895 183.711 117.809C183.711 117.809 198.408 114.204 201.396 111.459C185.119 120.024 170.541 110.108 170.541 110.108L163.362 106.9C157.496 104.279 151.587 106.279 147.849 112.156H147.844Z" fill="black"/>
<path d="M173.047 126.578L175.62 131.878L190.542 127.824L186.713 119.709L173.047 126.578Z" fill="#EEC1BB"/>
<path d="M178.914 131.763L177.682 130.068C177.406 129.686 176.952 129.472 176.48 129.472C174.437 129.467 174.408 128.364 174.885 126.392C174.475 125.662 173.568 126.044 173.32 126.139L167.797 128.225C167.334 128.397 167.095 128.908 167.262 129.376C167.291 129.457 167.334 129.538 167.386 129.605C168.88 131.663 169.592 132.632 171.453 135.191L177.148 143.015C178.699 145.149 181.172 144.028 180.728 143.001C178.728 138.413 177.854 134.771 178.112 132.713C178.15 132.341 178.47 132.465 178.914 131.763Z" fill="#263238"/>
<path d="M180.275 136.389C180.532 136.475 180.814 136.432 181.038 136.274C181.167 136.203 181.244 136.064 181.234 135.921C181.225 135.119 178.695 133.72 178.408 133.568C178.38 133.549 178.341 133.544 178.308 133.553C178.246 133.572 178.213 133.634 178.227 133.697C178.48 134.308 178.8 134.885 179.177 135.429C179.43 135.859 179.816 136.193 180.275 136.389ZM180.981 135.907C180.981 135.969 180.952 136.026 180.895 136.055C180.728 136.16 180.528 136.193 180.342 136.141C179.63 135.921 178.943 134.647 178.604 133.94C179.63 134.537 180.976 135.468 180.986 135.912L180.981 135.907Z" fill="#5A5BB5"/>
<path d="M178.26 133.782C178.986 134.226 181 134.795 181.501 134.322C181.611 134.226 181.687 134.045 181.515 133.73C180.804 132.474 178.36 133.491 178.27 133.558C178.227 133.572 178.193 133.611 178.188 133.658C178.198 133.687 178.212 133.706 178.236 133.725L178.255 133.787L178.26 133.782ZM181.32 133.816C181.453 134.045 181.377 134.102 181.348 134.121C181.057 134.427 179.487 134.093 178.618 133.668C179.21 133.458 180.733 132.999 181.267 133.735L181.32 133.816Z" fill="#5A5BB5"/>
<path d="M178.46 134.012C178.427 134.012 178.398 133.997 178.374 133.973C177.892 133.472 177.191 133.2 176.499 133.248C176.432 133.257 176.374 133.2 176.37 133.138C176.37 133.071 176.413 133.014 176.479 133.009C177.243 132.952 178.016 133.257 178.546 133.811C178.594 133.859 178.589 133.935 178.546 133.978C178.522 134.002 178.494 134.012 178.465 134.012H178.46Z" fill="#5A5BB5"/>
<path d="M178.437 135.64C178.404 135.64 178.375 135.625 178.351 135.601C177.869 135.1 177.167 134.828 176.475 134.876C176.418 134.885 176.351 134.833 176.346 134.766C176.346 134.699 176.394 134.642 176.456 134.637C177.22 134.584 177.993 134.885 178.523 135.439C178.571 135.487 178.566 135.563 178.523 135.606C178.499 135.63 178.47 135.64 178.442 135.64H178.437Z" fill="#5A5BB5"/>
<path d="M178.723 137.43C178.69 137.43 178.661 137.415 178.637 137.392C178.155 136.89 177.453 136.618 176.761 136.666C176.704 136.676 176.637 136.623 176.632 136.556C176.632 136.489 176.675 136.432 176.742 136.427C177.506 136.37 178.279 136.676 178.809 137.229C178.857 137.277 178.852 137.353 178.809 137.396C178.785 137.42 178.756 137.43 178.728 137.43H178.723Z" fill="#5A5BB5"/>
<path d="M204.303 126.192C204.303 126.192 170.035 107.005 158.264 106.642C146.493 106.279 145.162 115.159 149.491 122C153.82 128.837 164.685 125.523 164.685 125.523C164.685 125.523 156.093 123.346 157.157 121.017C158.221 118.687 161.396 122.301 161.396 122.301C161.396 122.301 182.217 130.851 200.795 133.883L204.308 126.192H204.303Z" fill="#263238"/>
<path opacity="0.2" d="M186.647 116.691L197.678 123.06L198.843 122.936L188.399 116.357L186.647 116.691Z" fill="black"/>
<path opacity="0.2" d="M169.143 125.232C169.143 125.232 158.026 120.821 158.15 120.821C158.274 120.821 165.157 125.982 167.41 125.958L169.143 125.232Z" fill="black"/>
<path d="M171.501 65.1749C171.501 65.1749 172.842 64.8646 177.759 70.5982C181.095 74.489 186.165 77.3535 186.165 77.3535C186.599 76.4178 194.26 65.1749 194.26 65.1749L199.134 67.9439C199.134 67.9439 191.978 86.448 187.324 87.1784C182.67 87.9041 171.825 78.5517 171.825 78.5517L171.496 65.1797L171.501 65.1749Z" fill="#5A5BB5"/>
<path d="M144.752 71.9779C146.871 78.3465 146.971 92.7354 146.222 100.684H172.442C176.575 84.8248 172.995 73.5486 172.642 69.8344C172.203 65.3134 171.506 65.1415 171.506 65.1415C171.506 65.1415 166.604 64.6641 162.336 64.6975C159.033 64.8217 155.74 65.1797 152.489 65.7669C150.069 66.1727 147.673 66.7122 145.31 67.3805C144.298 67.667 143.711 68.722 143.997 69.7389C144.007 69.7723 144.016 69.801 144.026 69.8344C144.279 70.5457 144.522 71.2761 144.752 71.9827V71.9779Z" fill="#5A5BB5"/>
<path opacity="0.2" d="M146.217 100.684C146.842 93.2796 151.644 84.7389 150.89 77.3487C153.119 80.5186 153.859 86.7392 154.766 93.6854C155.062 95.9483 163.272 98.235 163.659 100.574L146.217 100.684Z" fill="black"/>
<path d="M150.365 66.6119C149.143 68.3592 164.174 71.1711 164.174 71.1711C164.174 71.1711 172.971 65.4614 162.699 64.5734C160.603 64.3872 152.298 63.8668 150.365 66.6119Z" fill="#CD877B"/>
<path d="M164.666 74.4079C164.666 74.4079 172.766 67.7243 168.575 63.7189C164.384 59.7182 144.651 57.928 146.322 67.0416C146.322 67.0416 148.861 66.2921 151.424 68.7364C156.828 73.9066 164.67 74.4079 164.67 74.4079H164.666Z" fill="#5A5BB5"/>
<path opacity="0.2" d="M163.988 72.484C163.988 72.484 168.575 68.9225 166.957 65.7096C165.343 62.5015 155.802 58.983 148.961 63.4085C150.599 64.2488 152.126 65.2991 153.491 66.5307C156.203 68.8509 163.983 72.4792 163.983 72.4792L163.988 72.484Z" fill="black"/>
<path opacity="0.2" d="M162.246 72.9375C162.246 73.1905 162.045 73.4006 161.792 73.4006C161.539 73.4006 161.329 73.2001 161.329 72.9471C161.329 72.694 161.53 72.484 161.783 72.484C161.783 72.484 161.792 72.484 161.797 72.484C162.045 72.484 162.246 72.6893 162.25 72.9375H162.246Z" fill="black"/>
<path opacity="0.2" d="M166.818 71.6199C166.818 71.8681 166.623 72.0734 166.375 72.0782C166.375 72.0782 166.375 72.0782 166.37 72.0782C166.117 72.1068 165.888 71.9302 165.859 71.6772C165.83 71.4241 166.007 71.195 166.26 71.1664C166.298 71.1664 166.332 71.1664 166.37 71.1664C166.618 71.1664 166.823 71.3669 166.823 71.6199H166.818Z" fill="black"/>
<path d="M171.076 76.2077C171.076 76.4607 170.876 76.6708 170.623 76.6708C170.37 76.6708 170.16 76.4703 170.16 76.2172C170.16 75.9642 170.36 75.7542 170.613 75.7542C170.613 75.7542 170.613 75.7542 170.618 75.7542C170.871 75.7542 171.071 75.9547 171.076 76.2077Z" fill="#263238"/>
<path d="M161.21 78.547C161.21 78.7952 161.009 79.0005 160.756 79.0005C160.508 79.0005 160.303 78.8 160.303 78.547C160.303 78.294 160.503 78.0934 160.756 78.0934C161.004 78.0934 161.21 78.294 161.21 78.547Z" fill="#263238"/>
<path d="M170.513 76.3987C170.513 76.3987 168.737 76.16 168.432 73.8923C168.394 72.7943 167.496 71.9254 166.398 71.9302C166.308 71.9302 166.226 71.8633 166.226 71.7726C166.217 71.6867 166.284 71.6055 166.374 71.6008C166.374 71.6008 166.384 71.6008 166.389 71.6008C167.649 71.6008 168.694 72.589 168.766 73.8493C169.033 75.8449 170.542 76.0693 170.551 76.074C170.642 76.0836 170.704 76.1647 170.699 76.2554C170.685 76.3461 170.604 76.4082 170.513 76.4034V76.3987Z" fill="#263238"/>
<path d="M160.756 78.547C160.666 78.547 160.594 78.4754 160.589 78.3894C160.551 77.2246 160.981 76.0884 161.778 75.2386C162.093 74.9617 162.274 74.5702 162.289 74.1549C162.255 73.7396 162.074 73.3433 161.783 73.0473C161.706 72.9948 161.692 72.8898 161.744 72.8134C161.797 72.737 161.902 72.7227 161.978 72.7752C161.993 72.7847 162.002 72.7943 162.012 72.8086C162.37 73.1619 162.589 73.6345 162.623 74.1358C162.613 74.6418 162.394 75.124 162.016 75.463C161.291 76.2459 160.895 77.2867 160.919 78.356C160.919 78.4467 160.857 78.5231 160.766 78.5374L160.752 78.5518L160.756 78.547Z" fill="#263238"/>
<path d="M178.38 112.906L179.697 113.144C179.697 113.144 179.33 111.96 184.003 110.409C188.676 108.857 193.325 108.017 193.325 108.017C193.325 108.017 184.881 107.592 184.661 107.592C184.442 107.592 176.628 110.366 176.628 110.366L178.38 112.901V112.906Z" fill="#5A5BB5"/>
<path d="M175.038 104.284C175.272 104.284 193.329 108.017 193.329 108.017C193.329 108.017 180.775 107.559 178.384 112.906L163.768 106.905C163.768 106.905 167.864 104.179 175.038 104.289V104.284Z" fill="#EBEBEB"/>
<path d="M205.487 104.284V105.072C205.487 105.072 197.378 104.131 193.325 108.022L193.105 106.155L198.48 103.687L205.487 104.284Z" fill="#5A5BB5"/>
<path d="M189.081 100.636C189.081 100.636 179.286 98.0441 175.683 104.408L193.325 108.022C193.325 108.022 194.141 103.171 205.487 104.284L189.081 100.636Z" fill="#EBEBEB"/>
<path d="M144.532 67.7863C144.116 67.9343 141.429 70.1829 141.558 75.4534C141.749 83.1778 143.648 99.1803 144.532 100.684C145.415 102.188 168.79 108.738 169.138 109.12C169.486 109.502 170.699 105.038 170.699 105.038L152.699 93.6186C152.699 93.6186 151.634 77.5301 151.209 75.1192C150.785 72.7083 149.558 65.9817 144.532 67.7863Z" fill="#5A5BB5"/>
<path d="M170.494 105.768L171.501 106.222C171.501 106.222 176.265 105.845 177.472 107.048C178.68 108.251 179.358 113.746 179.358 113.746L169.138 109.12L170.494 105.768Z" fill="#EEC1BB"/>
<path d="M154.007 67.1276C154.007 67.1276 156.178 68.5645 159.243 70.4264C159.882 70.8131 163.138 72.2501 163.849 72.484L165.167 71.3526C165.233 71.1521 165.272 70.9372 165.291 70.7176C165.424 69.2377 164.942 67.2708 163.644 66.5499C162.178 65.7383 161.41 64.9602 161.415 63.5279C161.405 62.7164 161.558 61.857 161.758 61.0073L160.116 60.358L153.906 55.8752C155.061 59.0642 156.484 64.7119 154.007 67.1228V67.1276Z" fill="#EEC1BB"/>
<path opacity="0.2" d="M161.42 63.843C159.811 63.2176 157.959 61.9812 157.864 60.2243C157.83 59.4844 157.869 58.773 157.974 58.3052L161.597 61.7425C161.458 62.4156 161.439 62.85 161.42 63.8383V63.843Z" fill="black"/>
<path d="M151.868 49.9983C153.276 55.3787 153.758 57.6797 157.057 60.0763C162.016 63.6807 168.298 61.1457 168.518 55.541C168.718 50.4996 166.379 42.5461 160.632 41.1425C154.971 39.758 150.455 44.618 151.868 49.9983Z" fill="#EEC1BB"/>
<path d="M159.53 50.5665C159.654 51.1393 160.045 51.5642 160.403 51.5117C160.766 51.4592 160.957 50.9532 160.833 50.3803C160.709 49.8074 160.317 49.3825 159.959 49.435C159.596 49.4875 159.405 49.9936 159.53 50.5665Z" fill="#263238"/>
<path d="M165.071 49.6117C165.19 50.1654 165.582 50.576 165.94 50.5235C166.298 50.471 166.494 49.9793 166.374 49.4207C166.255 48.8669 165.864 48.4563 165.506 48.5089C165.148 48.5614 164.952 49.0531 165.071 49.6117Z" fill="#263238"/>
<path d="M157.763 48.7762C157.835 48.7762 157.901 48.7428 157.949 48.6807C158.66 47.7594 159.653 47.8787 159.667 47.8787C159.815 47.8978 159.944 47.7928 159.954 47.6448C159.963 47.4968 159.849 47.3631 159.696 47.3392C159.644 47.3345 158.398 47.1865 157.515 48.3275C157.429 48.442 157.453 48.6139 157.572 48.7094C157.629 48.7571 157.701 48.7762 157.768 48.7714L157.763 48.7762Z" fill="#263238"/>
<path d="M165.983 46.6422C166.035 46.6136 166.073 46.5658 166.088 46.5038C166.116 46.3701 166.03 46.2269 165.892 46.1744C164.527 45.6779 163.691 46.3701 163.653 46.3987C163.553 46.4847 163.553 46.6422 163.653 46.7568C163.754 46.8714 163.911 46.8952 164.011 46.8093C164.045 46.7807 164.703 46.2603 165.787 46.6518C165.859 46.6756 165.925 46.6709 165.983 46.6422Z" fill="#263238"/>
<path d="M163.114 49.6642C163.114 49.6642 164.308 51.569 165.487 52.6813C165.692 52.8771 165.644 53.2208 165.396 53.3592C164.761 53.7221 163.935 53.6266 163.935 53.6266L163.114 49.6642Z" fill="#D4827D"/>
<path d="M159.759 49.4923L160.962 48.9862C160.962 48.9862 160.432 50.0365 159.759 49.4923Z" fill="#263238"/>
<path d="M165.319 48.5661L166.522 48.0601C166.522 48.0601 165.992 49.1103 165.319 48.5661Z" fill="#263238"/>
<path d="M154.212 57.1546C135.897 45.8115 156.369 38.1062 156.369 38.1062C164.594 32.344 164.88 41.1043 164.88 41.1043C169 45.4057 163.167 49.1676 163.167 49.1676C165.625 45.6301 161.82 43.52 161.82 43.52C162.403 48.2224 157.82 50.0651 157.82 50.0651C159.615 45.8258 158.47 43.6298 158.47 43.6298C157.157 51.187 153.376 52.7052 153.376 52.7052L154.212 57.1546Z" fill="#263238"/>
<path d="M150.957 54.7294C151.787 55.7414 152.952 56.2714 153.954 56.3525C155.463 56.4766 155.821 54.0228 155.086 52.6574C154.422 51.4257 152.861 50.8003 151.501 51.3207C150.159 51.8315 150.007 53.574 150.957 54.7294Z" fill="#EEC1BB"/>
<path opacity="0.2" d="M154.57 53.9798C154.517 53.9798 154.47 53.9416 154.455 53.8891C154.346 53.4595 154.121 53.0584 153.801 52.7386C153.596 52.5285 153.262 52.2707 152.852 52.2278C152.479 52.1896 152.107 52.3614 151.964 52.6431C151.935 52.7004 151.864 52.7243 151.801 52.6956C151.744 52.667 151.72 52.5954 151.749 52.5333C151.94 52.1657 152.403 51.9365 152.875 51.9891C153.358 52.0416 153.739 52.3328 153.973 52.5715C154.322 52.9248 154.565 53.3592 154.685 53.8318C154.699 53.8939 154.661 53.9607 154.599 53.9751C154.589 53.9751 154.58 53.9751 154.57 53.9751V53.9798Z" fill="black"/>
<path d="M163.84 55.6078C163.43 56.1377 163.052 56.701 162.723 57.2882C162.613 57.2501 162.499 57.2071 162.389 57.1641C160.885 56.5912 160.37 55.8274 160.27 55.1543C160.227 54.8248 160.26 54.4859 160.37 54.1708C160.427 53.9942 160.508 53.8223 160.613 53.6648C161.229 54.4477 162.589 55.0874 163.329 55.4025C163.654 55.5219 163.84 55.6078 163.84 55.6078Z" fill="#263238"/>
<path d="M163.353 55.393L163.009 55.8799C161.596 55.3357 160.675 54.7723 160.394 54.1613C160.451 53.9846 160.532 53.8128 160.637 53.6552C161.258 54.4429 162.613 55.0779 163.353 55.393Z" fill="white"/>
<path d="M162.408 57.1546C160.904 56.5817 160.389 55.8179 160.289 55.1447C160.857 55.3739 161.382 55.6985 161.835 56.1091C162.131 56.3907 162.332 56.7536 162.408 57.1498V57.1546Z" fill="#C15854"/>
<path d="M123.739 169.817L129.873 181.036L135.229 179.441L130.365 166.422L123.739 169.817Z" fill="#895555"/>
<path d="M131.243 187.08L135.071 186.263C135.071 186.263 135.291 185.48 136.097 185.285C136.551 185.175 137.754 185.581 137.754 185.581L148.303 183.418C148.303 183.418 148.155 182.692 147.973 182.406C147.754 182.053 147.52 181.766 147.281 181.528C146.446 180.706 145.171 180.539 144.222 180.449C142.632 180.296 138.05 179.083 138.05 179.083C138.05 179.083 136.861 178.658 135.878 177.307C135.329 176.558 134.599 176.176 134.131 176.214C133.176 176.286 132.775 176.944 132.823 177.837L132.88 178.873C132.283 179.575 131.343 179.737 130.479 179.217C130.479 179.217 128.26 178.463 128.579 179.432C128.761 179.986 129.668 182.435 130.326 184.387C130.479 184.841 130.627 185.275 130.751 185.652C131.033 186.493 131.229 187.07 131.229 187.07L131.243 187.08Z" fill="#263238"/>
<path d="M140.508 179.647C140.451 179.613 140.379 179.623 140.331 179.67C140.112 179.881 139.95 180.143 139.864 180.453C139.821 180.616 140.078 180.706 140.121 180.544C140.198 180.272 140.341 180.038 140.532 179.857C140.594 179.795 140.589 179.699 140.513 179.651L140.508 179.647Z" fill="#5A5BB5"/>
<path d="M139.606 179.374C139.548 179.341 139.477 179.351 139.429 179.398C139.21 179.608 139.047 179.871 138.961 180.181C138.918 180.344 139.176 180.434 139.219 180.272C139.295 180 139.439 179.766 139.63 179.585C139.692 179.522 139.687 179.427 139.611 179.379L139.606 179.374Z" fill="#5A5BB5"/>
<path d="M138.68 179.141C138.623 179.107 138.551 179.117 138.503 179.164C138.284 179.374 138.121 179.637 138.036 179.947C137.993 180.11 138.25 180.2 138.293 180.038C138.37 179.766 138.513 179.532 138.704 179.351C138.766 179.289 138.761 179.193 138.685 179.145L138.68 179.141Z" fill="#5A5BB5"/>
<path opacity="0.2" d="M136.097 185.285C136.551 185.175 137.753 185.581 137.753 185.581L148.303 183.418C148.303 183.418 148.155 182.692 147.973 182.406C147.873 182.244 147.768 182.1 147.663 181.962L130.689 185.447C130.713 185.514 130.737 185.59 130.761 185.657C131.042 186.497 131.238 187.075 131.238 187.075L135.066 186.259C135.066 186.259 135.286 185.476 136.092 185.28L136.097 185.285Z" fill="white"/>
<path d="M138.585 179.408L138.551 179.298C138.446 178.94 138.336 178.572 138.293 178.195C138.246 177.766 138.293 177.384 138.432 177.059C138.532 176.835 138.675 176.701 138.838 176.677C139.052 176.648 139.238 176.811 139.339 176.973C139.52 177.269 139.568 177.656 139.468 178.042C139.372 178.42 138.818 179.117 138.651 179.317L138.58 179.403L138.585 179.408ZM138.89 176.792C138.89 176.792 138.866 176.792 138.857 176.792C138.69 176.816 138.589 176.997 138.542 177.102C138.408 177.403 138.365 177.766 138.413 178.176C138.451 178.506 138.542 178.835 138.637 179.15C138.952 178.754 139.291 178.272 139.358 178.009C139.449 177.656 139.406 177.298 139.243 177.035C139.167 176.911 139.038 176.792 138.895 176.792H138.89Z" fill="#5A5BB5"/>
<path d="M138.465 179.351C138.126 179.351 137.377 179.331 137.057 179.188C136.694 179.026 136.422 178.744 136.307 178.42C136.245 178.238 136.231 177.99 136.389 177.842C136.508 177.727 136.704 177.699 136.942 177.761C137.281 177.852 137.606 178.052 137.916 178.362C138.183 178.634 138.403 178.95 138.613 179.255L138.675 179.346H138.56C138.532 179.346 138.498 179.346 138.46 179.346L138.465 179.351ZM136.708 177.847C136.622 177.847 136.537 177.866 136.47 177.928C136.35 178.038 136.365 178.233 136.417 178.381C136.522 178.677 136.77 178.93 137.105 179.083C137.353 179.193 137.94 179.236 138.446 179.236C138.255 178.964 138.059 178.687 137.825 178.453C137.534 178.162 137.224 177.966 136.909 177.885C136.856 177.871 136.785 177.856 136.708 177.856V177.847Z" fill="#5A5BB5"/>
<path d="M98.383 178.042L95.5811 190.522L100.655 192.861L105.596 179.871L98.383 178.042Z" fill="#895555"/>
<path d="M92.6167 195.964L96.0296 197.883C96.0296 197.883 96.7122 197.439 97.4473 197.826C97.8626 198.041 98.4974 199.144 98.4974 199.144L107.844 204.486C107.844 204.486 108.211 203.846 108.268 203.507C108.335 203.097 108.354 202.729 108.331 202.395C108.245 201.225 107.4 200.256 106.746 199.564C105.653 198.404 103.013 194.46 103.013 194.46C103.013 194.46 102.402 193.353 102.555 191.691C102.641 190.765 102.34 190.001 101.963 189.715C101.194 189.137 100.459 189.366 99.9104 190.073L99.2707 190.889C98.359 191.023 97.5428 190.527 97.2421 189.562C97.2421 189.562 96.0726 187.528 95.6716 188.469C95.4425 189.004 94.5069 191.443 93.7098 193.348C93.5236 193.792 93.347 194.212 93.1943 194.58C92.8506 195.396 92.6167 195.959 92.6167 195.959V195.964Z" fill="#263238"/>
<path d="M104.483 196.499C104.464 196.437 104.402 196.399 104.335 196.399C104.035 196.413 103.734 196.504 103.467 196.675C103.328 196.766 103.462 197.005 103.6 196.914C103.839 196.761 104.101 196.68 104.364 196.666C104.455 196.666 104.512 196.585 104.483 196.499Z" fill="#5A5BB5"/>
<path d="M103.982 195.702C103.963 195.64 103.901 195.601 103.834 195.601C103.534 195.616 103.233 195.706 102.966 195.878C102.827 195.969 102.961 196.208 103.099 196.117C103.338 195.964 103.596 195.883 103.863 195.869C103.954 195.869 104.011 195.788 103.982 195.702Z" fill="#5A5BB5"/>
<path d="M103.448 194.914C103.429 194.852 103.366 194.814 103.3 194.814C102.999 194.828 102.698 194.919 102.431 195.09C102.292 195.181 102.426 195.42 102.565 195.329C102.803 195.176 103.061 195.095 103.328 195.081C103.419 195.081 103.476 195 103.448 194.914Z" fill="#5A5BB5"/>
<path opacity="0.2" d="M97.4477 197.826C97.863 198.041 98.4978 199.144 98.4978 199.144L107.844 204.486C107.844 204.486 108.212 203.846 108.269 203.507C108.297 203.316 108.317 203.14 108.326 202.968L93.2758 194.374C93.2472 194.441 93.2185 194.518 93.1899 194.58C92.8462 195.396 92.6123 195.959 92.6123 195.959L96.0252 197.879C96.0252 197.879 96.7078 197.435 97.4429 197.821L97.4477 197.826Z" fill="white"/>
<path d="M103.195 195.048L103.243 194.947C103.4 194.608 103.558 194.26 103.777 193.95C104.025 193.591 104.312 193.338 104.632 193.19C104.851 193.09 105.052 193.081 105.19 193.171C105.371 193.291 105.405 193.539 105.371 193.725C105.314 194.064 105.095 194.389 104.765 194.613C104.441 194.833 103.567 194.99 103.309 195.033L103.2 195.052L103.195 195.048ZM104.961 193.224C104.856 193.224 104.751 193.262 104.684 193.296C104.383 193.434 104.116 193.677 103.877 194.016C103.686 194.288 103.539 194.594 103.4 194.895C103.901 194.804 104.474 194.666 104.698 194.513C104.999 194.308 105.204 194.012 105.257 193.706C105.281 193.553 105.262 193.358 105.128 193.272C105.08 193.238 105.023 193.229 104.966 193.229L104.961 193.224Z" fill="#5A5BB5"/>
<path d="M103.304 195.067L103.218 194.995C103.018 194.823 102.354 194.236 102.192 193.878C102.03 193.515 102.006 193.124 102.135 192.804C102.207 192.627 102.359 192.431 102.579 192.427H102.593C102.755 192.427 102.918 192.536 103.047 192.732C103.242 193.023 103.352 193.391 103.381 193.825C103.405 194.207 103.362 194.589 103.314 194.957L103.3 195.067H103.304ZM102.598 192.546H102.588C102.426 192.551 102.307 192.708 102.249 192.851C102.135 193.143 102.154 193.501 102.302 193.83C102.412 194.078 102.832 194.494 103.209 194.833C103.247 194.503 103.281 194.164 103.261 193.835C103.238 193.424 103.133 193.076 102.951 192.799C102.889 192.703 102.76 192.546 102.598 192.546Z" fill="#5A5BB5"/>
<path d="M103.281 96.5212C103.281 96.5212 105.052 112.285 105.524 113.13C107.123 115.99 117.725 120.893 117.725 120.893L123.128 119.761L126.999 122.993L124.446 124.993L121.448 123.862C119.815 124.153 118.154 124.301 116.493 124.296C113.701 124.296 100.24 120.883 97.9966 117.131C95.7483 113.378 94.7173 95.996 94.7173 95.996L103.281 96.5212Z" fill="#895555"/>
<path d="M94.4931 102.718C94.4931 102.718 90.3403 88.8732 95.5146 85.0301C100.689 81.187 104.803 100.221 104.803 100.221L94.4931 102.718Z" fill="#5A5BB5"/>
<path d="M97.7673 128.039L97.7291 109.693L97.3329 84.5718L87.013 83.0966L78.2205 83.0155L66.3254 86.7153L66.0771 92.8786C66.0771 92.8786 67.3039 121.184 67.2371 122.038C67.1512 123.084 66.8886 130.851 66.8886 130.851C80.4497 133.94 97.9821 128.98 97.7673 128.044V128.039Z" fill="#5A5BB5"/>
<path opacity="0.2" d="M97.5767 101.973L97.0229 90.1383L99.6674 101.467L97.5767 101.973Z" fill="black"/>
<path opacity="0.2" d="M74.6312 103.697C74.9653 103.63 76.655 103.076 76.655 103.076L72.8984 92.6208L78.0584 104.183L74.9557 105.42L74.6312 103.692V103.697Z" fill="black"/>
<path d="M73.1756 95.0269C73.1756 95.0269 75.8057 112.528 77.3236 114.161C79.8916 116.925 92.603 124.258 92.603 124.258L98.9468 122.034C99.3907 121.886 99.8824 121.967 100.245 122.244L104.584 125.557L104.169 125.905C103.992 126.058 103.73 126.087 103.52 125.982L102.847 125.647L103.601 126.387L103.362 126.588C103.123 126.788 102.794 126.86 102.489 126.779L100.551 126.259L102.341 127.452C101.94 127.791 101.386 127.906 100.875 127.762L98.0351 126.956C96.0971 127.4 94.1257 127.681 92.14 127.801C88.7987 128.006 73.018 122.492 70.0729 118.453C67.1325 114.414 64.0967 97.6478 64.0967 97.6478L73.166 95.0316L73.1756 95.0269Z" fill="#895555"/>
<path d="M64.7789 106.666C64.7789 106.666 60.8456 90.8067 66.0199 86.9636C71.1942 83.1205 76.3208 103.186 76.3208 103.186L64.7789 106.666Z" fill="#5A5BB5"/>
<path d="M107.133 126.827H87.0181C87.0181 126.827 87.0181 126.827 87.0181 126.831C87.0228 127.6 87.882 128.221 88.9322 128.216H105.2C105.2 128.216 105.219 128.216 105.228 128.216H121.701C122.746 128.206 123.587 127.586 123.582 126.827H107.133Z" fill="#263238"/>
<path d="M122.002 128.14H103.624C103.309 128.14 103.051 127.93 103.056 127.676C103.056 127.629 103.066 127.581 103.085 127.538L111.262 108.79C111.467 108.256 112.083 107.888 112.78 107.888H131.166C131.477 107.888 131.73 108.089 131.73 108.342C131.73 108.394 131.72 108.447 131.696 108.494L123.519 127.242C123.309 127.777 122.698 128.14 122.002 128.144V128.14Z" fill="#263238"/>
<path opacity="0.7" d="M131.167 107.883H112.78C112.083 107.883 111.467 108.251 111.262 108.786L103.395 126.827H87.0181C87.0181 126.827 87.0181 126.827 87.0181 126.831C87.0228 127.6 87.882 128.221 88.9322 128.216H105.2C105.2 128.216 105.219 128.216 105.228 128.216H121.701C122.03 128.216 122.336 128.144 122.608 128.035C123.038 127.891 123.377 127.605 123.525 127.233L131.701 108.485C131.725 108.437 131.735 108.385 131.735 108.332C131.735 108.084 131.482 107.879 131.171 107.879L131.167 107.883Z" fill="white"/>
<path d="M120.121 117.866C119.725 118.763 118.918 119.384 118.317 119.255C117.715 119.126 117.558 118.31 117.94 117.408C118.326 116.505 119.138 115.904 119.739 116.028C120.341 116.152 120.517 116.94 120.116 117.866H120.121Z" fill="white"/>
<g opacity="0.3">
<path d="M111.257 108.79L103.391 126.831H104.24L112.775 107.888C112.078 107.888 111.462 108.256 111.257 108.79Z" fill="black"/>
</g>
<path d="M92.3878 61.246L92.9701 61.5849C93.6479 61.5993 94.2876 62.1101 94.4451 62.7737C94.6026 63.4325 94.2685 64.182 93.6718 64.5066C93.5811 64.5544 93.4761 64.6069 93.4475 64.7024C93.395 64.8599 93.562 64.9888 93.6813 65.0986C94.2923 65.6285 94.216 66.674 93.667 67.266C93.1181 67.858 92.2446 68.049 91.4427 67.9821C91.2326 65.7097 92.5835 63.5136 92.3878 61.246Z" fill="#263238"/>
<path d="M75.1036 67.6384C74.2397 67.6813 73.3757 67.1467 73.0272 66.3542C72.9318 66.1346 72.8697 65.8911 72.9079 65.6572C73.0177 65.0174 73.748 64.7262 74.3733 64.5496C73.6764 64.3777 73.2086 63.6855 73.075 62.9837C73.0129 62.6638 73.0081 62.3201 73.1132 62.0098C73.2898 61.4847 73.7576 61.1027 74.2683 60.8975C74.779 60.6922 75.3375 60.6349 75.8865 60.5824L79.0512 70.6269C78.3447 70.7845 77.6096 70.8799 76.8984 70.7606C76.1824 70.6412 75.4855 70.2736 75.0893 69.6721C74.6931 69.0658 74.6549 68.2065 75.1036 67.6384Z" fill="#263238"/>
<path d="M76.8745 83.4356C79.7958 80.9436 79.6574 74.0308 79.1323 70.2737L87.4618 77.492C87.2613 77.9169 87.0894 78.3561 86.951 78.8048C86.6694 79.6069 86.5978 80.4662 86.7458 81.3016C86.8937 81.9939 87.667 83.9178 87.667 83.9178C87.667 83.9178 88.0823 86.0709 82.4211 85.9659C79.9294 86.1903 76.8841 83.4356 76.8841 83.4356H76.8745Z" fill="#895555"/>
<path opacity="0.2" d="M80.6262 74.0977C80.1298 78.485 84.5212 80.6094 86.7456 81.3112C86.5976 80.4758 86.6692 79.6164 86.9509 78.8144L80.6262 74.0977Z" fill="black"/>
<path d="M77.705 66.9939C78.7313 72.1785 79.2038 75.1193 82.2826 77.43C86.908 80.9007 93.0894 77.7355 93.6813 72.3361C94.2112 67.4761 92.4403 59.8186 86.8937 58.4675C81.4282 57.1356 76.6787 61.8141 77.705 66.9987V66.9939Z" fill="#895555"/>
<path d="M76.1871 60.7972C76.5404 57.823 83.9629 56.8396 86.235 58.0426C86.5739 58.224 82.4641 60.9357 82.717 60.8068L80.7409 61.7711C80.4115 61.7425 79.8339 62.1865 79.6382 63.189C79.6382 63.189 80.9461 71.1712 78.9175 73.7921C76.9222 73.1429 76.3876 69.9825 75.5427 68.1683C74.2826 65.4662 72.6692 61.4752 76.1919 60.802L76.1871 60.7972Z" fill="#263238"/>
<path d="M76.1634 71.6247C76.7744 72.9137 77.9391 73.8017 79.0752 74.1836C80.784 74.7517 81.1563 72.971 80.784 71.3431C80.4499 69.8774 79.7625 68.1302 78.0012 68.2686C76.2637 68.4023 75.4665 70.1543 76.1634 71.6295V71.6247Z" fill="#895555"/>
<path d="M84.9416 67.2565C85.0132 67.7912 85.3617 68.1827 85.7244 68.1349C86.0824 68.0872 86.3163 67.6098 86.2447 67.0751C86.1731 66.5404 85.8247 66.1489 85.4619 66.1967C85.1039 66.2444 84.87 66.7218 84.9416 67.2565Z" fill="#263238"/>
<path d="M90.3542 66.9462C90.4258 67.4809 90.7743 67.8724 91.137 67.8246C91.4998 67.7769 91.7289 67.2995 91.6573 66.7648C91.5857 66.2301 91.2373 65.8386 90.8745 65.8864C90.5165 65.9341 90.2826 66.4115 90.3542 66.9462Z" fill="#263238"/>
<path d="M89.2231 66.8555C89.2231 66.8555 91.3186 69.2902 92.0251 70.2975C91.3473 71.0662 89.9869 70.9277 89.9869 70.9277L89.2231 66.8555Z" fill="#6D3939"/>
<path d="M83.925 65.1655C84.0109 65.1893 84.1111 65.1655 84.178 65.0986C84.9942 64.2918 85.9346 64.4589 85.9441 64.4589C86.0825 64.4876 86.221 64.3968 86.2496 64.2584C86.2782 64.12 86.1875 63.991 86.0491 63.9624C86.0014 63.9529 84.8224 63.7428 83.8056 64.7453C83.7054 64.8456 83.7054 65.0031 83.8056 65.1034C83.8391 65.1368 83.8772 65.1559 83.9202 65.1655H83.925Z" fill="#263238"/>
<path opacity="0.2" d="M79.8627 71.3908C79.8102 71.3908 79.7625 71.3526 79.7481 71.3001C79.6384 70.8752 79.4188 70.4885 79.1085 70.1735C78.908 69.9682 78.5787 69.7152 78.1777 69.6722C77.8149 69.634 77.4474 69.8059 77.309 70.078C77.2803 70.1353 77.2087 70.1591 77.1467 70.1305C77.0894 70.1018 77.0655 70.0302 77.0942 69.9682C77.2803 69.6053 77.7386 69.3857 78.2016 69.4335C78.6789 69.486 79.0512 69.7724 79.2804 70.0064C79.6193 70.3501 79.8627 70.7798 79.982 71.2428C79.9964 71.3049 79.9582 71.3717 79.8961 71.3861C79.8866 71.3861 79.877 71.3861 79.8675 71.3861L79.8627 71.3908Z" fill="black"/>
<path d="M93.0989 64.3634C93.1466 64.3491 93.1896 64.3157 93.2182 64.2775C93.3042 64.1677 93.2851 64.0054 93.1705 63.9242C92.0297 63.084 90.9079 63.485 90.8554 63.4946C90.7218 63.5423 90.6502 63.6903 90.6979 63.8192C90.7457 63.9481 90.8936 64.0149 91.0273 63.972C91.075 63.9529 91.9438 63.6569 92.8602 64.33C92.9318 64.3825 93.0225 64.3921 93.1037 64.3634H93.0989Z" fill="#263238"/>
<path d="M74.445 58.4246C74.7171 57.1642 76.3018 56.7155 77.5572 56.8253C77.3281 55.3501 79.2136 54.2759 80.4642 54.1757C81.7721 54.0707 82.2971 54.5242 82.2971 54.5242C82.1969 54.5576 82.6074 53.746 82.8795 53.4118C83.8819 52.1801 85.6289 51.6502 87.1277 52.1133C88.6266 52.5812 89.7913 54.0181 89.9631 55.6127C90.6791 54.7247 92.1254 54.591 92.9846 55.3405C93.8438 56.0901 93.9488 57.5748 93.2042 58.4389C94.1636 58.3912 95.0753 59.2791 95.0753 60.2626C95.0753 61.2508 94.1589 62.1292 93.1994 62.0719C93.2663 63.1747 93.3044 64.5544 93.3713 65.6572L91.4047 61.7998C90.598 61.6184 90.4118 61.289 90.1588 60.4869C89.7101 61.585 88.8032 61.5993 87.6433 61.6852C86.4833 61.7712 85.2996 61.141 84.6981 60.1193C84.2256 61.2651 83.185 62.2104 81.9725 62.3154C80.7601 62.4204 79.4761 61.5181 79.3377 60.2769C78.7458 61.4131 77.2804 61.9764 76.1013 61.5277C74.9223 61.0789 74.1729 59.6706 74.445 58.4102V58.4246Z" fill="#263238"/>
<path d="M89.7864 72.7037C89.3377 73.2813 88.9368 73.8876 88.5788 74.5226C88.4594 74.4796 88.3353 74.4366 88.216 74.3889C86.5883 73.7683 86.0346 72.9424 85.92 72.2167C85.8723 71.8587 85.9105 71.4958 86.025 71.1521C86.0871 70.9564 86.1778 70.775 86.2875 70.6031C86.9558 71.4481 88.426 72.1451 89.2279 72.4841C89.5811 72.613 89.7769 72.7084 89.7769 72.7084L89.7864 72.7037Z" fill="#263238"/>
<path d="M89.2516 72.4697L88.8793 72.9949C87.3518 72.4077 86.3494 71.7918 86.0439 71.1378C86.106 70.9421 86.1967 70.7606 86.3065 70.5888C86.9795 71.4433 88.4449 72.1308 89.2469 72.4697H89.2516Z" fill="white"/>
<path d="M88.2349 74.3746C86.6072 73.7539 86.0535 72.928 85.939 72.2024C86.5547 72.4506 87.118 72.8039 87.6096 73.2479C87.9294 73.5487 88.1442 73.9449 88.2302 74.3746H88.2349Z" fill="#C15854"/>
<path d="M118.169 145.889C117.968 147.89 117.534 150.625 117.013 152.563C115.596 158.044 113.978 163.315 111.939 168.762C108.001 179.518 104.822 189.5 104.822 189.5L94.8222 186.502C94.8222 186.502 101.433 155.38 105.892 152.196H78.5499C78.0392 152.196 77.5284 152.162 77.0225 152.091C81.7337 151.48 89.0704 148.577 95.8819 145.675C101.896 143.101 107.524 140.533 110.574 139.564C114.307 141.158 118.46 142.753 118.173 145.889H118.169Z" fill="#263238"/>
<path opacity="0.6" d="M110.579 139.592C107.524 140.585 101.896 143.135 95.8869 145.703C89.0753 148.606 81.7387 151.508 77.0274 152.119C69.0941 151.06 66.1108 141.607 74.4069 130.703C79.7912 130.703 85.2041 135.845 85.2041 135.845C85.2041 135.845 101.486 135.764 110.579 139.592Z" fill="black"/>
<path d="M132.842 173.082L126.231 177.088C126.231 177.088 120.713 165.501 115.438 152.43C115.959 150.487 116.326 148.51 116.527 146.51C116.813 143.373 114.321 141.163 110.589 139.602C107.534 140.595 101.906 143.144 95.8964 145.713C89.0848 148.615 81.7482 151.518 77.037 152.129C76.4976 152.201 75.9534 152.239 75.4045 152.248C66.3542 152.248 63.2325 144.314 66.8841 130.851C72.2684 130.851 81.4905 130.269 81.4905 130.269C81.4905 130.269 99.2855 125.991 112.088 127.447C118.322 128.183 123.367 132.856 124.575 139.02C127.873 155.361 132.837 173.082 132.837 173.082H132.842Z" fill="#263238"/>
<path d="M133.887 173.569L126.231 177.088C126.231 177.088 120.713 165.501 115.438 152.43C115.959 150.487 116.326 148.51 116.527 146.51C116.813 143.373 114.321 141.163 110.589 139.602C107.534 140.595 101.906 143.144 95.8964 145.713C89.0848 148.615 81.7482 151.518 77.037 152.129C76.4976 152.201 75.9534 152.239 75.4045 152.248C66.3542 152.248 63.2325 144.314 66.8841 130.851C72.2684 130.851 81.4905 130.269 81.4905 130.269C81.4905 130.269 99.2855 125.991 112.088 127.447C118.322 128.183 123.367 132.856 124.575 139.02C127.873 155.361 133.883 173.569 133.883 173.569H133.887Z" fill="#263238"/>
<path opacity="0.2" d="M118.169 145.889C117.968 147.89 117.534 150.625 117.013 152.563C115.596 158.044 113.978 163.315 111.939 168.762C108.001 179.518 104.822 189.5 104.822 189.5L94.8222 186.502C94.8222 186.502 101.433 155.38 105.892 152.196H78.5499C78.0392 152.196 77.5284 152.162 77.0225 152.091C81.7337 151.48 89.0704 148.577 95.8819 145.675C101.896 143.101 107.524 140.533 110.574 139.564C114.307 141.158 118.46 142.753 118.173 145.889H118.169Z" fill="black"/>
<path d="M87.6674 112.987C89.0093 112.987 90.097 109.518 90.097 105.239C90.097 100.959 89.0093 97.4903 87.6674 97.4903C86.3256 97.4903 85.2378 100.959 85.2378 105.239C85.2378 109.518 86.3256 112.987 87.6674 112.987Z" fill="white"/>
</g>
<defs>
<clipPath id="clip0_1400_13071">
<rect width="358" height="204.486" fill="white"/>
</clipPath>
</defs>
</svg>
