<svg width="72" height="31" viewBox="0 0 72 31" fill="none" xmlns="http://www.w3.org/2000/svg">
<path d="M45.7883 8.00049H41.432C41.1346 8.00049 40.8811 8.21816 40.8346 8.51394L39.0729 19.7413C39.0379 19.9628 39.2086 20.1625 39.4309 20.1625H41.6664C41.874 20.1625 42.0517 20.0102 42.0842 19.8027L42.5841 16.6202C42.63 16.3238 42.8841 16.1062 43.1815 16.1062H44.5598C47.4296 16.1062 49.0849 14.7105 49.518 11.9448C49.7135 10.7348 49.5256 9.78411 48.962 9.11829C48.3436 8.38717 47.2462 8.00049 45.7883 8.00049ZM46.2909 12.101C46.0533 13.6721 44.8591 13.6721 43.7038 13.6721H43.0472L43.5089 10.738C43.5363 10.5607 43.6879 10.4301 43.8668 10.4301H44.1681C44.954 10.4301 45.6966 10.4301 46.08 10.8808C46.3087 11.1497 46.3781 11.5492 46.2909 12.101Z" fill="#179BD7"/>
<path d="M58.8076 12.0507H56.723C56.5441 12.0507 56.3918 12.1813 56.3651 12.3586L56.2727 12.9451L56.1263 12.7325C55.6747 12.0737 54.6684 11.8535 53.6634 11.8535C51.3585 11.8535 49.3905 13.6083 49.007 16.0699C48.8083 17.2978 49.0905 18.472 49.7834 19.2908C50.4203 20.0437 51.3285 20.3574 52.4106 20.3574C54.2678 20.3574 55.2977 19.157 55.2977 19.157L55.2047 19.7396C55.1696 19.9624 55.3403 20.1621 55.5639 20.1621H57.4421C57.7395 20.1621 57.993 19.9445 58.0395 19.6481L59.1674 12.472C59.2018 12.2511 59.0311 12.0507 58.8076 12.0507ZM55.9002 16.1314C55.7002 17.3292 54.7531 18.1333 53.5468 18.1333C52.9424 18.1333 52.4571 17.9381 52.1463 17.568C51.838 17.2005 51.7221 16.6775 51.8189 16.0949C52.0081 14.9073 52.9685 14.077 54.1563 14.077C54.7486 14.077 55.2301 14.2748 55.5473 14.648C55.8664 15.0251 55.9925 15.5514 55.9002 16.1314Z" fill="#179BD7"/>
<path d="M61.2669 8.30858L59.4792 19.7414C59.4442 19.9629 59.6148 20.1627 59.8371 20.1627H61.6344C61.9331 20.1627 62.1866 19.945 62.2325 19.6486L63.9954 8.4219C64.0304 8.20039 63.8597 8 63.6375 8H61.6249C61.4472 8.00064 61.2943 8.13124 61.2669 8.30858Z" fill="#179BD7"/>
<path d="M14.72 8.00049H10.3643C10.0662 8.00049 9.81272 8.21816 9.76622 8.51394L8.00457 19.7413C7.96954 19.9628 8.14023 20.1625 8.36378 20.1625H10.4432C10.7413 20.1625 10.9948 19.9449 11.0413 19.6484L11.5164 16.6202C11.5623 16.3238 11.8164 16.1062 12.1138 16.1062H13.4927C16.3619 16.1062 18.0178 14.7105 18.4503 11.9448C18.6452 10.7348 18.4586 9.78411 17.8949 9.11829C17.2758 8.38717 16.1778 8.00049 14.72 8.00049ZM15.2225 12.101C14.9843 13.6721 13.7901 13.6721 12.6354 13.6721H11.9782L12.4393 10.738C12.4667 10.5607 12.6195 10.4301 12.7978 10.4301H13.0991C13.8857 10.4301 14.6276 10.4301 15.011 10.8808C15.2397 11.1497 15.3098 11.5492 15.2225 12.101Z" fill="#253B80"/>
<path d="M27.7405 12.0507H25.6546C25.477 12.0507 25.3235 12.1813 25.2961 12.3586L25.2037 12.9451L25.0579 12.7325C24.6063 12.0737 23.5994 11.8535 22.5944 11.8535C20.2894 11.8535 18.3208 13.6083 17.9374 16.0699C17.738 17.2978 18.0215 18.472 18.7144 19.2908C19.35 20.0437 20.2595 20.3574 21.3416 20.3574C23.1988 20.3574 24.2286 19.157 24.2286 19.157L24.1357 19.7396C24.1006 19.9624 24.2713 20.1621 24.4936 20.1621H26.3724C26.6711 20.1621 26.9233 19.9445 26.9705 19.6481L28.0978 12.472C28.1334 12.2511 27.9634 12.0507 27.7405 12.0507ZM24.8331 16.1314C24.6318 17.3292 23.686 18.1333 22.4797 18.1333C21.874 18.1333 21.39 17.9381 21.0792 17.568C20.7709 17.2005 20.6538 16.6775 20.7518 16.0949C20.9397 14.9073 21.9014 14.077 23.0892 14.077C23.6816 14.077 24.163 14.2748 24.4802 14.648C24.798 15.0251 24.9241 15.5514 24.8331 16.1314Z" fill="#253B80"/>
<path d="M38.849 12.0503H36.753C36.553 12.0503 36.3651 12.1502 36.2517 12.3173L33.3609 16.5977L32.1355 12.4844C32.0584 12.227 31.8221 12.0503 31.5546 12.0503H29.4949C29.2446 12.0503 29.0707 12.2961 29.1504 12.533L31.4591 19.3435L29.2886 22.4236C29.1179 22.6662 29.2898 22.9998 29.5847 22.9998H31.6782C31.8769 22.9998 32.0629 22.9025 32.1756 22.7386L39.1471 12.6233C39.3139 12.3813 39.1426 12.0503 38.849 12.0503Z" fill="#253B80"/>
</svg>
