<svg width="512" height="512" viewBox="0 0 512 512" fill="none" xmlns="http://www.w3.org/2000/svg">
<g opacity="0.3">
<path d="M391.833 438.302L391.662 438.4C391.223 438.659 390.778 438.914 390.339 439.163C363.071 454.795 331.984 463.053 300.339 463.053C263.347 463.053 227.787 451.993 197.499 431.074L197.055 430.764L219.76 400.748C243.544 416.945 271.402 425.504 300.339 425.504C324.061 425.504 347.39 419.642 368.125 408.503C369.193 407.928 370.262 407.34 371.316 406.737L391.833 438.302Z" fill="#5A5BB5"/>
<path d="M206.655 390.666L184.228 420.964C143.171 386.645 119.676 336.558 119.676 283.119C119.676 281.499 119.699 279.875 119.747 278.25C124.427 274.267 130.355 269.987 137.739 265.905C144.542 262.143 151.978 258.89 159.934 256.183C158.237 265.025 157.377 274.051 157.377 283.119C157.377 324.557 175.294 363.57 206.655 390.666Z" fill="#5A5BB5"/>
<path d="M481 283.12C481 314.939 474.741 343.401 462.398 367.719C449.837 392.471 430.918 413.051 406.156 428.899L406.075 428.951L405.286 429.403L385.176 397.73C421.586 370.949 443.294 328.169 443.294 283.12C443.294 204.609 379.162 140.736 300.338 140.736C271.562 140.736 244.191 149.065 220.615 164.909C221.717 156.806 223.773 149.131 226.766 141.97C231.162 131.447 237.7 121.851 246.195 113.447L249.192 110.485C265.686 105.636 282.804 103.188 300.338 103.188C324.727 103.188 348.387 107.948 370.658 117.331C392.172 126.39 411.493 139.366 428.086 155.888C444.675 172.414 457.703 191.657 466.799 213.079C476.22 235.265 481 258.83 481 283.12Z" fill="#5A5BB5"/>
<path d="M201.705 178.472C201.553 204.316 209.136 223.875 209.217 224.068L211.089 228.828L205.969 229.2C190.907 230.292 176.645 232.693 163.574 236.328C151.041 239.831 139.412 244.516 129.021 250.26C102.562 264.889 91.4525 282.295 89.4953 285.638C89.259 286.038 89.1408 286.269 89.1124 286.316L85.2927 293.784L82.2152 285.996L70.9971 257.501L163.21 187.282L202.901 80.0264L237.283 97.0469L233.539 100.752C223.351 110.823 215.49 122.378 210.181 135.09C204.645 148.325 201.795 162.921 201.705 178.472Z" fill="#5A5BB5"/>
<path d="M91.0662 112.632L194.974 48.9473L146.046 177.644L31 251.541L91.0662 112.632Z" fill="#5A5BB5"/>
<path d="M300.338 381.965C251.381 381.965 211.548 342.293 211.548 293.529C211.548 244.765 251.381 205.098 300.338 205.098C349.295 205.098 389.128 244.77 389.128 293.529C389.128 342.288 349.295 381.965 300.338 381.965Z" fill="#5A5BB5"/>
<path d="M78.1603 276.377C78.945 277.968 79.7959 279.748 78.9545 281.391C77.7206 280.35 77.4937 278.877 76.5766 277.846C75.702 276.862 75.0165 275.689 73.6598 275.096C74.8416 277.398 77.0115 279.31 77.0068 281.9C76.9264 282.742 76.3449 283.095 75.5507 282.714C75.078 282.413 75.026 282.394 74.2413 282.041C74.142 282.723 74.3216 283.265 74.3831 283.919C74.4587 286.937 68.3793 280.365 67.6135 279.197C68.5258 281.043 69.7644 283.058 71.0928 284.767C71.4237 285.191 71.7594 285.596 72.0997 285.972C70.8848 286.062 70.3412 286.019 69.6321 285.605C64.2003 281.01 58.4423 274.432 58.2863 267.158C56.2914 265.472 52.9255 264.418 53.6346 261.456C53.8993 260.486 53.5069 259.742 52.8876 258.965C48.7795 253.833 44.4776 248.847 40.6201 243.522C40.0433 242.726 39.9819 242.679 39.4004 241.653C41.003 240.438 41.9154 239.751 44.1041 238.216C44.2743 238.658 45.2151 240.452 45.7635 241.14C46.5529 242.566 55.6342 254.295 58.2107 257.2C58.726 257.256 59.4209 257.317 60.1064 257.416C62.4559 257.821 62.6875 260.787 63.2879 262.699C69.7597 264.964 74.8416 270.331 78.165 276.377H78.1603Z" fill="#5A5BB5"/>
</g>
</svg>
