<svg width="24" height="27" viewBox="0 0 24 27" fill="none" xmlns="http://www.w3.org/2000/svg">
<path d="M24.0002 12.2728V6.36033C24.0002 5.25594 23.1652 4.00341 22.1282 3.58589L14.6264 0.515157C12.9429 -0.171719 11.0439 -0.171719 9.36036 0.515157L1.8586 3.58589C0.835025 4.00341 0 5.25594 0 6.36033V12.2728C0 18.8588 4.78119 25.0272 11.3132 26.8319C11.7577 26.9531 12.2425 26.9531 12.687 26.8319C19.219 25.0272 24.0002 18.8588 24.0002 12.2728ZM13.0102 14.6298V18.1719C13.0102 18.7241 12.5523 19.182 12.0001 19.182C11.4479 19.182 10.99 18.7241 10.99 18.1719V14.6298C9.62973 14.1988 8.63308 12.9328 8.63308 11.4378C8.63308 9.57922 10.1415 8.07079 12.0001 8.07079C13.8587 8.07079 15.3672 9.57922 15.3672 11.4378C15.3672 12.9463 14.3705 14.1988 13.0102 14.6298Z" fill="#5A5BB5"/>
</svg>
