<svg width="52" height="34" viewBox="0 0 52 34" fill="none" xmlns="http://www.w3.org/2000/svg">
<path d="M8.036 19.948C8.57733 19.948 9.10933 19.9013 9.632 19.808C10.1547 19.696 10.6027 19.5373 10.976 19.332C10.9947 19.1267 11.004 18.9493 11.004 18.8C11.004 18.6507 11.004 18.52 11.004 18.408C11.004 17.6613 10.948 16.9613 10.836 16.308C10.7427 15.636 10.5653 15.0573 10.304 14.572C10.0613 14.068 9.716 13.676 9.268 13.396C8.83867 13.0973 8.29733 12.948 7.644 12.948C7.10267 12.948 6.636 13.06 6.244 13.284C5.87067 13.508 5.56267 13.7973 5.32 14.152C5.07733 14.5067 4.9 14.8893 4.788 15.3C4.676 15.7107 4.62 16.112 4.62 16.504C4.62 17.6427 4.89067 18.5013 5.432 19.08C5.992 19.6587 6.86 19.948 8.036 19.948ZM10.696 21.992C10.248 22.1973 9.75333 22.356 9.212 22.468C8.67067 22.58 8.148 22.636 7.644 22.636C6.48667 22.636 5.49733 22.4867 4.676 22.188C3.87333 21.8707 3.21067 21.4413 2.688 20.9C2.184 20.34 1.81067 19.696 1.568 18.968C1.32533 18.24 1.204 17.456 1.204 16.616C1.204 15.888 1.32533 15.1507 1.568 14.404C1.81067 13.6387 2.19333 12.9387 2.716 12.304C3.23867 11.6693 3.90133 11.156 4.704 10.764C5.50667 10.3533 6.45867 10.148 7.56 10.148C9.83733 10.148 11.5547 10.8853 12.712 12.36C13.888 13.816 14.476 15.8787 14.476 18.548C14.476 22.3187 13.5053 25.1747 11.564 27.116C9.62267 29.0573 6.64533 30.0373 2.632 30.056L2.492 27.228C3.612 27.228 4.62 27.1347 5.516 26.948C6.43067 26.7613 7.224 26.4627 7.896 26.052C8.58667 25.6413 9.16533 25.1093 9.632 24.456C10.0987 23.784 10.4533 22.9627 10.696 21.992ZM21.8781 17.68C21.8781 18.3333 21.6541 18.8653 21.2061 19.276C20.7767 19.6867 20.2541 19.892 19.6381 19.892C19.0034 19.892 18.4714 19.6867 18.0421 19.276C17.6127 18.8653 17.3981 18.3333 17.3981 17.68C17.3981 17.0267 17.6127 16.4947 18.0421 16.084C18.4714 15.6547 19.0034 15.44 19.6381 15.44C20.2541 15.44 20.7767 15.6547 21.2061 16.084C21.6541 16.4947 21.8781 17.0267 21.8781 17.68ZM21.8781 28.152C21.8781 28.8053 21.6541 29.3373 21.2061 29.748C20.7767 30.1587 20.2541 30.364 19.6381 30.364C19.0034 30.364 18.4714 30.1587 18.0421 29.748C17.6127 29.3373 17.3981 28.8053 17.3981 28.152C17.3981 27.4987 17.6127 26.9667 18.0421 26.556C18.4714 26.1267 19.0034 25.912 19.6381 25.912C20.2541 25.912 20.7767 26.1267 21.2061 26.556C21.6541 26.9667 21.8781 27.4987 21.8781 28.152ZM32.7876 14.768C32.3396 15.3093 31.8729 15.888 31.3876 16.504C30.9209 17.12 30.4636 17.764 30.0156 18.436C29.5676 19.108 29.1382 19.7987 28.7276 20.508C28.3169 21.1987 27.9436 21.8893 27.6076 22.58H32.7876V14.768ZM36.0916 10.596V22.58H38.2756V25.352H36.0916V30H32.7876V25.352H24.2756V22.944C24.6489 22.1227 25.1436 21.18 25.7596 20.116C26.3942 19.052 27.0942 17.96 27.8596 16.84C28.6249 15.72 29.4369 14.6187 30.2956 13.536C31.1542 12.4533 32.0129 11.4733 32.8716 10.596H36.0916ZM41.7856 14.628C42.8683 14.1987 43.951 13.648 45.0336 12.976C46.135 12.304 47.1056 11.5107 47.9456 10.596H50.3256V30H46.9376V15.132C46.4336 15.524 45.799 15.9067 45.0336 16.28C44.2683 16.6533 43.531 16.9613 42.8216 17.204L41.7856 14.628Z" fill="black"/>
</svg>
