<svg width="56" height="56" viewBox="0 0 56 56" fill="none" xmlns="http://www.w3.org/2000/svg">
<path d="M56 28C56 36.8806 51.8659 44.7953 45.4174 49.9245C40.6365 53.7283 34.5843 56 28 56C21.4157 56 15.3632 53.7281 10.5826 49.9245C4.13413 44.7953 0 36.8806 0 28C0 12.5364 12.5364 0 28 0C43.4636 0 56 12.5364 56 28Z" fill="#5A5BB5" fill-opacity="0.2"/>
<path d="M27.9998 36.9259C34.0098 36.9259 38.8819 32.0538 38.8819 26.0437C38.8819 20.0337 34.0098 15.1616 27.9998 15.1616C21.9898 15.1616 17.1177 20.0337 17.1177 26.0437C17.1177 32.0538 21.9898 36.9259 27.9998 36.9259Z" fill="#5A5BB5"/>
<path d="M45.4174 49.9245C40.6365 53.7283 34.5843 56 28 56C21.4156 56 15.3632 53.7281 10.5825 49.9245C14.0831 44.7818 20.5734 41.3275 28 41.3275C35.4265 41.3275 41.9168 44.7818 45.4174 49.9245Z" fill="#5A5BB5"/>
</svg>
