<svg width="25" height="24" viewBox="0 0 25 24" fill="none" xmlns="http://www.w3.org/2000/svg">
<path d="M12.4101 10.87C12.3101 10.86 12.1901 10.86 12.0801 10.87C9.70006 10.79 7.81006 8.84 7.81006 6.44C7.81006 3.99 9.79006 2 12.2501 2C14.7001 2 16.6901 3.99 16.6901 6.44C16.6801 8.84 14.7901 10.79 12.4101 10.87Z" stroke="#010211" stroke-width="1.5" stroke-linecap="round" stroke-linejoin="round"/>
<path d="M7.41021 14.56C4.99021 16.18 4.99021 18.82 7.41021 20.43C10.1602 22.27 14.6702 22.27 17.4202 20.43C19.8402 18.81 19.8402 16.17 17.4202 14.56C14.6802 12.73 10.1702 12.73 7.41021 14.56Z" stroke="#010211" stroke-width="1.5" stroke-linecap="round" stroke-linejoin="round"/>
</svg>
