<svg width="27" height="27" viewBox="0 0 27 27" fill="none" xmlns="http://www.w3.org/2000/svg">
<path d="M15.8321 1.93364L18.2078 6.68506C18.5318 7.34648 19.3957 7.9809 20.1246 8.10239L24.4306 8.8178C27.1842 9.27674 27.8322 11.2745 25.8479 13.2453L22.5003 16.5928C21.9334 17.1598 21.6229 18.2531 21.7984 19.0361L22.7568 23.18C23.5127 26.4601 21.7714 27.729 18.8693 26.0147L14.8332 23.6255C14.1043 23.1935 12.903 23.1935 12.1606 23.6255L8.12457 26.0147C5.23592 27.729 3.48113 26.4466 4.23704 23.18L5.19542 19.0361C5.3709 18.2531 5.06044 17.1598 4.49351 16.5928L1.14592 13.2453C-0.824841 11.2745 -0.190418 9.27674 2.56325 8.8178L6.86922 8.10239C7.58463 7.9809 8.44853 7.34648 8.77249 6.68506L11.1482 1.93364C12.444 -0.644546 14.5498 -0.644546 15.8321 1.93364Z" fill="#5A5BB5"/>
</svg>
