<svg width="16" height="16" viewBox="0 0 16 16" fill="none" xmlns="http://www.w3.org/2000/svg">
<path d="M14.6665 8.4134V9.78673C14.6665 10.1601 14.3598 10.4667 13.9798 10.4667H12.6932C11.9732 10.4667 11.3132 9.94006 11.2532 9.22006C11.2132 8.80006 11.3732 8.40673 11.6532 8.1334C11.8998 7.88006 12.2398 7.7334 12.6132 7.7334H13.9798C14.3598 7.7334 14.6665 8.04006 14.6665 8.4134Z" fill="#5A5BB5"/>
<path d="M10.2535 9.30628C10.1935 8.60628 10.4468 7.91961 10.9535 7.41961C11.3802 6.98628 11.9735 6.73294 12.6135 6.73294H12.9935C13.1802 6.73294 13.3335 6.57961 13.3068 6.39294C13.1268 5.09961 12.0068 4.09961 10.6668 4.09961H4.00016C2.52683 4.09961 1.3335 5.29294 1.3335 6.76628V11.4329C1.3335 12.9063 2.52683 14.0996 4.00016 14.0996H10.6668C12.0135 14.0996 13.1268 13.0996 13.3068 11.8063C13.3335 11.6196 13.1802 11.4663 12.9935 11.4663H12.6935C11.4268 11.4663 10.3602 10.5196 10.2535 9.30628ZM8.66683 7.93294H4.66683C4.3935 7.93294 4.16683 7.71294 4.16683 7.43294C4.16683 7.15294 4.3935 6.93294 4.66683 6.93294H8.66683C8.94016 6.93294 9.16683 7.15961 9.16683 7.43294C9.16683 7.70628 8.94016 7.93294 8.66683 7.93294Z" fill="#5A5BB5"/>
<path d="M9.47311 2.65372C9.64644 2.83372 9.49311 3.10039 9.23978 3.10039H4.01978C3.29311 3.10039 2.61311 3.31372 2.04644 3.68039C1.78644 3.84706 1.43311 3.66706 1.55978 3.38039C1.93311 2.50706 2.80644 1.90039 3.81311 1.90039H7.55978C8.33311 1.90039 9.01978 2.17372 9.47311 2.65372Z" fill="#5A5BB5"/>
</svg>