<svg width="11" height="14" viewBox="0 0 11 14" fill="none" xmlns="http://www.w3.org/2000/svg">
<path d="M5.57108 0.343782C5.83405 0.343786 6.11428 0.361789 6.47942 0.406287L6.87563 0.45972L6.87765 0.460728C7.14036 0.498375 7.40682 0.711855 7.539 1.04344L7.58739 1.19265L7.61259 1.30052L7.67409 1.56668H8.04408C8.49591 1.61113 8.9081 1.65475 9.23976 1.70278L9.54624 1.75318L9.55128 1.75419C10.0518 1.84231 10.4697 2.25129 10.5746 2.74017L10.5917 2.83897V2.84199L10.6038 2.93273V2.93374C10.6064 2.9577 10.6094 2.99264 10.6139 3.04665L10.631 3.21703C10.6343 3.31419 10.6452 3.40864 10.6492 3.44487V3.44588L10.6502 3.45092C10.6763 3.65844 10.6068 3.87083 10.4616 4.03263C10.3726 4.12617 10.2584 4.19709 10.139 4.23224L10.0211 4.26551L9.76803 4.33709L9.77005 4.60022L9.79021 6.88571V6.89075C9.80947 7.64626 9.79663 7.96071 9.73174 8.90908C9.66409 9.78653 9.58618 10.3188 9.48575 10.8578L9.37788 11.4113L9.37687 11.4133C9.29337 11.8426 9.05642 12.2756 8.71048 12.6332C8.41233 12.9357 8.06334 13.1368 7.70938 13.227L7.56218 13.2583L7.2547 13.3046L7.24966 13.3057C6.82459 13.3754 6.52305 13.4262 5.46723 13.4266L5.46623 13.4206C4.44554 13.4206 4.1905 13.3687 3.82999 13.3057H3.82898L3.49125 13.2522L3.48721 13.2512L3.33498 13.222C3.02944 13.1474 2.72515 12.9859 2.45184 12.7492L2.31775 12.6241C1.97008 12.2772 1.73668 11.8448 1.64632 11.4093H1.64531C1.52815 10.815 1.43113 10.343 1.35194 9.66117L1.27935 8.89497C1.22075 8.12684 1.19478 7.72613 1.19668 7.25066L1.20777 6.73449V6.72642L1.22794 4.58711L1.22995 4.32398L0.976904 4.25241L0.85895 4.21914H0.857942C0.767914 4.1925 0.680554 4.14564 0.604894 4.08404L0.532307 4.0165C0.392941 3.85901 0.326253 3.64646 0.348822 3.43076L0.347814 3.42975L0.368985 3.17267V3.16965C0.375256 3.06786 0.380944 2.98216 0.386124 2.93071L0.39923 2.83796V2.83595C0.470839 2.30135 0.912187 1.84192 1.43763 1.74714L1.43864 1.74814C1.85474 1.67778 2.45348 1.60554 3.12025 1.55962H3.4973L3.55678 1.28943L3.58097 1.18055C3.68447 0.770982 3.98948 0.496723 4.29072 0.453671L4.28971 0.452662C4.85825 0.374009 5.22054 0.343782 5.57108 0.343782ZM5.50554 4.14655C4.3429 4.14655 3.16583 4.16637 2.00825 4.21309H1.53139L1.52837 4.55384L1.5082 6.71735C1.48809 7.28364 1.49134 7.61991 1.52736 8.19531L1.57474 8.86775V8.86976C1.64462 9.72062 1.72299 10.2445 1.82174 10.7701L1.9276 11.3085V11.3105C2.00306 11.6725 2.17409 12.0066 2.41151 12.2834L2.51737 12.3983L2.52039 12.4023C2.79645 12.6749 3.14814 12.8889 3.5104 12.9427V12.9417L3.84813 12.9951C4.14774 13.0475 4.36027 13.0793 4.85327 13.095L5.45715 13.106H5.46018C6.49588 13.106 6.7895 13.0508 7.21639 12.982L7.21538 12.981L7.50976 12.9357L7.51379 12.9347C7.82579 12.8819 8.13896 12.7226 8.39896 12.4941L8.50683 12.3923C8.76 12.1354 8.95358 11.8152 9.05224 11.492L9.08853 11.3539L9.09055 11.3458C9.20932 10.7382 9.2955 10.2903 9.36779 9.62286L9.43635 8.86775V8.86573C9.4857 8.15956 9.50637 7.81537 9.5049 7.37568L9.49583 6.88672L9.47667 4.5609L9.47365 4.22014H8.9978C7.84115 4.1668 6.66598 4.14662 5.50554 4.14655ZM5.57108 0.659335C5.22052 0.659335 4.88713 0.68726 4.37439 0.759142H4.18083L4.07699 0.881129L4.03767 0.927504C3.92638 1.05511 3.85985 1.21527 3.84713 1.38521L3.82091 1.68362L3.81991 1.68665C3.81504 1.74682 3.77891 1.79503 3.73119 1.8167L3.67977 1.8288C2.93628 1.86904 2.30476 1.93197 1.86307 1.9901L1.48703 2.04555L1.48098 2.04656C1.27664 2.08486 1.09556 2.19492 0.961782 2.33187C0.861553 2.43449 0.776218 2.56464 0.727889 2.71194L0.692604 2.86417L0.680506 2.95491L0.676473 2.9791V3.00229C0.676453 3.00244 0.67644 3.00773 0.675465 3.02044C0.674418 3.03407 0.673457 3.0509 0.671432 3.07185C0.667606 3.11145 0.662 3.16585 0.658326 3.21804L0.657318 3.23013V3.24223C0.657307 3.26463 0.656019 3.28835 0.654294 3.30877L0.650261 3.34103L0.647237 3.35615L0.646229 3.37228L0.626065 3.55779L0.585739 3.93786H1.17148C2.55043 3.8612 3.95479 3.82708 5.35533 3.82495L5.36138 3.832H5.50554C6.94721 3.832 8.40124 3.86512 9.82852 3.93786H10.4133L10.3719 3.55678L10.3518 3.37733H10.3507C10.3486 3.33176 10.344 3.27512 10.3397 3.23013C10.3386 3.12257 10.3238 3.01566 10.3175 2.97104H10.3185L10.3054 2.87123L10.2701 2.71799C10.2218 2.57102 10.1362 2.44139 10.0362 2.33892C9.93584 2.23618 9.80856 2.1485 9.6652 2.09495L9.51599 2.05362L9.50994 2.05261L9.09458 1.99111C8.79075 1.95139 8.43708 1.91414 8.06324 1.88324L7.49061 1.8419H7.48859C7.43809 1.83913 7.38721 1.80415 7.36257 1.75419L7.34745 1.69975V1.69774L7.32124 1.39226H7.32023C7.31387 1.25419 7.26549 1.12452 7.19219 1.01824L7.10549 0.914398L7.06617 0.874072L6.96536 0.772248H6.798C6.27385 0.693924 5.92521 0.659341 5.57108 0.659335Z" stroke="#5A5BB5" stroke-width="0.666667"/>
</svg>
