<svg width="27" height="27" viewBox="0 0 27 27" fill="none" xmlns="http://www.w3.org/2000/svg">
<path d="M13.4995 7.76372C10.948 7.76372 10.462 8.83021 10.462 10.8012V11.6382H16.537V10.8012C16.537 8.83021 16.051 7.76372 13.4995 7.76372Z" fill="#5A5BB5"/>
<path d="M13.4994 17.6866C14.3195 17.6866 14.9844 17.0218 14.9844 16.2016C14.9844 15.3815 14.3195 14.7167 13.4994 14.7167C12.6792 14.7167 12.0144 15.3815 12.0144 16.2016C12.0144 17.0218 12.6792 17.6866 13.4994 17.6866Z" fill="#5A5BB5"/>
<path d="M13.4998 0C6.04793 0 0 6.04793 0 13.4998C0 20.9517 6.04793 26.9997 13.4998 26.9997C20.9517 26.9997 26.9997 20.9517 26.9997 13.4998C26.9997 6.04793 20.9517 0 13.4998 0ZM20.7627 16.8748C20.7627 19.8448 19.8448 20.7627 16.8748 20.7627H10.1249C7.15491 20.7627 6.23692 19.8448 6.23692 16.8748V15.5248C6.23692 13.2163 6.79042 12.1499 8.4374 11.7854V10.7999C8.4374 9.54438 8.4374 5.73743 13.4998 5.73743C18.5623 5.73743 18.5623 9.54438 18.5623 10.7999V11.7854C20.2093 12.1499 20.7627 13.2163 20.7627 15.5248V16.8748Z" fill="#5A5BB5"/>
</svg>
