<svg width="32" height="29" viewBox="0 0 32 29" fill="none" xmlns="http://www.w3.org/2000/svg">
<g clip-path="url(#clip0_0_17)">
<path fill-rule="evenodd" clip-rule="evenodd" d="M26.6284 17.9772C24.7893 17.9772 23.1644 18.9039 22.1957 20.3153L13.361 16.3056C13.5445 15.6888 13.6427 15.0355 13.6427 14.3597C13.6427 13.6839 13.5445 13.0306 13.361 12.4138L22.1957 8.40411C23.1644 9.81555 24.7893 10.7422 26.6284 10.7422C29.5927 10.7422 32 8.33578 32 5.37155C32 2.40732 29.5927 0 26.6284 0C23.6642 0 21.2578 2.40732 21.2578 5.37155C21.2578 5.83392 21.3168 6.28319 21.4263 6.71093L12.5907 10.7206C11.3814 8.80845 9.24835 7.53833 6.82137 7.53833C3.05595 7.53833 0 10.5952 0 14.3597C0 18.1242 3.05595 21.1811 6.82137 21.1811C9.24835 21.1811 11.3814 19.911 12.5907 17.9988L21.4263 22.0085C21.3168 22.4362 21.2578 22.8855 21.2578 23.3479C21.2578 26.3121 23.6642 28.7194 26.6284 28.7194C29.5927 28.7194 32 26.3121 32 23.3479C32 20.3836 29.5927 17.9772 26.6284 17.9772ZM26.6284 1.85978C28.5659 1.85978 30.1393 3.43315 30.1393 5.37155C30.1393 7.30995 28.5659 8.88239 26.6284 8.88239C24.691 8.88239 23.1176 7.30902 23.1176 5.37155C23.1176 3.43409 24.691 1.85978 26.6284 1.85978ZM6.82137 19.3213C4.08272 19.3213 1.85978 17.0984 1.85978 14.3597C1.85978 11.621 4.08272 9.39811 6.82137 9.39811C9.56003 9.39811 11.783 11.621 11.783 14.3597C11.783 17.0984 9.56003 19.3213 6.82137 19.3213ZM26.6284 26.8596C24.691 26.8596 23.1176 25.2863 23.1176 23.3479C23.1176 21.4095 24.691 19.837 26.6284 19.837C28.5659 19.837 30.1393 21.4104 30.1393 23.3479C30.1393 25.2853 28.5659 26.8596 26.6284 26.8596Z" fill="#5A5BB5"/>
</g>
<defs>
<clipPath id="clip0_0_17">
<rect width="16" height="14.3597" fill="white" transform="scale(2)"/>
</clipPath>
</defs>
</svg>
