<svg width="48" height="48" viewBox="0 0 48 48" fill="none" xmlns="http://www.w3.org/2000/svg">
<path d="M30.9945 22.6428C30.9444 22.6428 30.8943 22.6261 30.8359 22.6094C30.7941 22.5927 30.7524 22.5593 30.719 22.5258L29.2409 21.0468C29.1741 20.98 29.1323 20.8797 29.1323 20.7711C29.1323 20.6708 29.1741 20.5789 29.2492 20.5037C29.316 20.4369 29.4079 20.3951 29.5248 20.3867C29.6167 20.3867 29.7252 20.4285 29.8004 20.4953L31.2701 21.9744C31.3119 22.0078 31.3453 22.0496 31.3536 22.0913C31.3787 22.1498 31.3954 22.2 31.3954 22.2501C31.3954 22.3086 31.387 22.3587 31.3703 22.4005C31.3453 22.4423 31.3202 22.4924 31.2868 22.5258C31.2534 22.5593 31.2117 22.5927 31.1616 22.6178C31.1198 22.6345 31.0697 22.6428 31.0112 22.6428H30.9945Z" fill="black"/>
<path d="M31.9716 15.239C31.8714 15.239 31.7712 15.1972 31.696 15.122C31.6209 15.0468 31.5791 14.9549 31.5791 14.8546C31.5791 14.7544 31.6209 14.6541 31.696 14.5789C31.7712 14.5037 31.8714 14.4619 31.9716 14.4619H34.0509C34.1511 14.4619 34.2513 14.5037 34.3265 14.5789C34.4016 14.6541 34.4434 14.7544 34.4434 14.8546C34.4434 14.9549 34.4016 15.0468 34.3265 15.122C34.2513 15.1972 34.1511 15.239 34.0509 15.239H31.9716Z" fill="black"/>
<path d="M29.5165 9.31514C29.4079 9.31514 29.3077 9.27336 29.2409 9.20651C29.1741 9.13966 29.1323 9.03939 29.1323 8.93076C29.1323 8.82214 29.1741 8.72186 29.2409 8.65502L30.719 7.17601C30.7941 7.10916 30.8943 7.06738 30.9945 7.06738C31.0947 7.06738 31.1866 7.10916 31.2618 7.18437C31.3286 7.25121 31.3703 7.35149 31.3703 7.45176C31.3703 7.55203 31.3369 7.6523 31.2618 7.7275L29.792 9.20651C29.7252 9.27336 29.625 9.31514 29.5165 9.31514Z" fill="black"/>
<path d="M23.596 6.8661C23.4958 6.8661 23.404 6.82432 23.3288 6.74911C23.2537 6.67391 23.2119 6.57364 23.2119 6.47337V4.38437C23.2119 4.2841 23.2537 4.19219 23.3288 4.11698C23.404 4.04178 23.4958 4 23.596 4C23.6963 4 23.7965 4.04178 23.8716 4.11698C23.9468 4.19219 23.9885 4.2841 23.9885 4.38437V6.47337C23.9885 6.57364 23.9468 6.67391 23.8716 6.74911C23.7965 6.82432 23.6963 6.8661 23.596 6.8661Z" fill="black"/>
<path d="M17.5912 9.22322C17.5244 9.22322 17.4826 9.21487 17.4409 9.19815C17.3824 9.17309 17.3407 9.14802 17.3073 9.10624L15.9294 7.7275C15.9294 7.7275 15.8626 7.6523 15.8376 7.60216C15.8209 7.56038 15.8125 7.51025 15.8125 7.45176C15.8125 7.39327 15.8209 7.34313 15.8376 7.30135C15.8543 7.25957 15.8793 7.21779 15.9127 7.17601C15.9545 7.14259 15.9962 7.10916 16.0463 7.09245C16.0881 7.07574 16.1382 7.06738 16.1966 7.06738C16.2467 7.06738 16.3052 7.08409 16.3469 7.10081C16.3971 7.11752 16.4388 7.15094 16.4722 7.18437L17.8501 8.57146C17.8918 8.61324 17.9169 8.65502 17.9336 8.6968C17.9503 8.73858 17.9586 8.78036 17.9586 8.8472C17.9586 8.90569 17.9503 8.94747 17.9336 8.98925C17.9169 9.04775 17.8918 9.08953 17.8501 9.12295C17.8083 9.16473 17.7666 9.1898 17.7248 9.19815C17.6664 9.22322 17.633 9.23158 17.5996 9.23158H17.5745L17.5912 9.22322Z" fill="black"/>
<path d="M13.1405 15.239C13.0403 15.239 12.9401 15.1972 12.8649 15.122C12.7898 15.0468 12.7563 14.9549 12.7563 14.8546C12.7563 14.746 12.7898 14.6541 12.8649 14.5789C12.9401 14.5037 13.0403 14.4619 13.1405 14.4619H15.0946C15.1948 14.4619 15.295 14.5037 15.3701 14.5789C15.4453 14.6541 15.4787 14.746 15.4787 14.8546C15.4787 14.9549 15.4453 15.0552 15.3701 15.122C15.295 15.1889 15.1948 15.239 15.0946 15.239H13.1405Z" fill="black"/>
<path d="M16.2054 22.6342C16.0969 22.6342 15.9967 22.5925 15.9298 22.5256C15.863 22.4588 15.8213 22.3585 15.8213 22.2499C15.8213 22.1412 15.863 22.041 15.9298 21.9741L17.3077 20.5954C17.3829 20.5285 17.4831 20.4951 17.5833 20.4951C17.6752 20.4951 17.7754 20.5369 17.8422 20.6037C17.9173 20.6789 17.9591 20.7709 17.9591 20.8711C17.9591 20.9714 17.9257 21.0717 17.8589 21.1385L16.481 22.5256C16.4142 22.5925 16.314 22.6342 16.2054 22.6342Z" fill="black"/>
<path d="M23.596 25.7006C23.4958 25.7006 23.404 25.6588 23.3288 25.5836C23.2537 25.5084 23.2119 25.4165 23.2119 25.3162V23.3609C23.2119 23.2607 23.2537 23.1604 23.3288 23.0852C23.3956 23.0183 23.4875 22.9766 23.596 22.9766C23.7046 22.9766 23.8048 23.0183 23.8716 23.0852C23.9468 23.1604 23.9885 23.2607 23.9885 23.3609V25.3162C23.9885 25.4165 23.9468 25.5084 23.8716 25.5836C23.7965 25.6588 23.6963 25.7006 23.596 25.7006Z" fill="black"/>
<path d="M23.5959 21.9904C22.9446 21.9904 22.335 21.7397 21.8757 21.2801C21.4164 20.8206 21.1659 20.2106 21.1659 19.5588V17.8041C21.1492 17.0102 20.8235 16.2498 20.264 15.6984C19.6293 15.0382 19.2034 14.211 19.0364 13.3169C18.8778 12.4061 18.9863 11.487 19.3454 10.6514C19.7045 9.8074 20.3057 9.09714 21.0657 8.59579C21.8256 8.10278 22.7024 7.84375 23.5959 7.84375C24.5563 7.84375 25.4414 8.12785 26.193 8.63757C26.9529 9.14728 27.5375 9.86589 27.8882 10.7182C28.2389 11.5705 28.3224 12.498 28.1471 13.3921C27.9717 14.2946 27.5375 15.1134 26.8861 15.7485C26.335 16.3334 26.026 17.1356 26.0427 17.9294V19.5588C26.0427 20.1939 25.7838 20.8206 25.3245 21.2801C24.8652 21.7397 24.2556 21.9904 23.6043 21.9904H23.5959ZM21.9425 19.5588C21.9425 20.0017 22.1178 20.4195 22.4268 20.7286C22.7358 21.0378 23.1617 21.2216 23.5959 21.2216C24.0302 21.2216 24.4644 21.0378 24.7734 20.7286C25.0907 20.4195 25.2577 20.0017 25.2577 19.5588V19.2496H21.9425V19.5588ZM23.6043 8.6125C23.1951 8.6125 22.8026 8.67099 22.4268 8.79633C21.9091 8.95509 21.4247 9.2392 21.0239 9.60686C20.6314 9.95781 20.3141 10.3756 20.097 10.8435C19.8799 11.3031 19.7629 11.8045 19.7295 12.3393C19.7128 12.8657 19.7963 13.3754 19.9801 13.8684C20.1721 14.3614 20.4477 14.7959 20.8151 15.1636C21.5166 15.8655 21.9174 16.8097 21.9341 17.8041V18.4809H23.2034V13.9352H21.5416C21.4414 13.9352 21.3412 13.8935 21.2661 13.8183C21.1993 13.7514 21.1575 13.6595 21.1575 13.5509C21.1575 13.4422 21.1909 13.3503 21.2661 13.2751C21.3412 13.1999 21.4414 13.1581 21.5416 13.1581H25.6335C25.7337 13.1581 25.8339 13.1999 25.9091 13.2751C25.9842 13.3503 26.026 13.4506 26.026 13.5509C26.026 13.6511 25.9842 13.7431 25.9091 13.8183C25.8339 13.8935 25.7337 13.9352 25.6335 13.9352H23.9801V18.4725H25.2494V17.9294C25.2494 16.9016 25.6252 15.9323 26.3266 15.2054C26.7275 14.7959 27.0281 14.3196 27.2285 13.7765C27.4206 13.225 27.4874 12.6568 27.4289 12.1053C27.3371 11.2112 26.9529 10.409 26.335 9.78233C25.7254 9.15564 24.907 8.74619 24.0302 8.63757C23.8882 8.62085 23.7379 8.6125 23.5959 8.6125H23.6043Z" fill="black"/>
<path d="M9.98423 43.9918C9.88402 43.9918 9.78381 43.95 9.70866 43.8748C9.64185 43.808 9.6001 43.7077 9.6001 43.6074V29.8452C9.6001 29.7365 9.64185 29.6363 9.70866 29.5694C9.77546 29.5026 9.87567 29.4608 9.98423 29.4608H11.621V28.1155C11.621 28.0486 11.6377 27.9818 11.6627 27.94C11.6961 27.8731 11.7379 27.8314 11.7963 27.7979C13.5834 26.6365 15.646 26.0181 17.7671 26.0098C19.8381 26.0098 21.8339 26.578 23.5625 27.6559C25.3663 26.578 27.3705 26.0098 29.408 26.0098H29.5416C31.6293 26.0348 33.6502 26.6532 35.4039 27.7979C35.454 27.8314 35.4957 27.8815 35.5375 27.9483C35.5625 27.9985 35.5792 28.057 35.5792 28.1238V29.4691H37.216C37.3162 29.4691 37.4164 29.5026 37.4832 29.5778C37.5583 29.653 37.6001 29.7532 37.6001 29.8535V43.6158C37.6001 43.7161 37.5583 43.808 37.4832 43.8832C37.408 43.9584 37.3162 44.0002 37.216 44.0002H9.98423V43.9918ZM29.3663 40.6995C27.454 40.7079 25.5917 41.251 23.9717 42.2621L23.9467 43.2147H36.8235V30.2295H35.5792V42.0114C35.5792 42.1201 35.5375 42.2203 35.4707 42.2872C35.4039 42.354 35.3036 42.3958 35.1951 42.3958C35.0949 42.3958 35.0114 42.3791 34.9362 42.3373C33.2744 41.2678 31.3621 40.6995 29.3997 40.6995H29.3663ZM10.3767 43.2147H23.17V42.2621C21.55 41.2176 19.7045 40.6995 17.8172 40.6995C15.813 40.7079 13.9091 41.2761 12.2556 42.3373C12.2055 42.3624 12.1304 42.3875 12.0552 42.3875C11.9801 42.3875 11.9132 42.3707 11.8464 42.3457C11.8047 42.3123 11.7379 42.2705 11.6961 42.212C11.6544 42.1535 11.6293 42.0866 11.621 42.0114V30.2379H10.3767V43.2231V43.2147ZM29.3997 39.9224C31.2535 39.9224 33.0907 40.3987 34.7191 41.3012L34.811 41.3513V28.3661C33.1742 27.3133 31.312 26.7785 29.408 26.7785C27.4707 26.7869 25.6252 27.3217 24.0218 28.316L23.9968 41.343L24.0886 41.2928C25.7087 40.4071 27.5375 39.9308 29.383 39.9224H29.4164H29.3997ZM17.8005 39.9224C19.6627 39.9224 21.4999 40.3987 23.1283 41.3012L23.2201 41.3513V28.3661C21.575 27.3133 19.7128 26.7785 17.8089 26.7785C15.8798 26.7869 14.0343 27.3217 12.431 28.316L12.4059 41.343L12.4895 41.2928C14.1095 40.4071 15.9383 39.9308 17.7755 39.9224H17.8089H17.8005Z" fill="black"/>
<path d="M26.2352 30.2297C26.1266 30.2297 26.0264 30.1879 25.9596 30.1211C25.8928 30.0542 25.8511 29.9539 25.8511 29.8453C25.8511 29.7367 25.8928 29.6364 25.9596 29.5696C26.0264 29.5027 26.1266 29.4609 26.2352 29.4609H32.5567C32.6653 29.4609 32.7655 29.5027 32.8323 29.5696C32.8991 29.6364 32.9408 29.7367 32.9408 29.8453C32.9408 29.9539 32.8991 30.0542 32.8323 30.1211C32.7655 30.1879 32.6653 30.2297 32.5567 30.2297H26.2352Z" fill="black"/>
<path d="M27.7962 32.2102C27.6877 32.2102 27.5875 32.1684 27.5207 32.1015C27.4539 32.0347 27.4121 31.9344 27.4121 31.8258C27.4121 31.7172 27.4539 31.6169 27.5207 31.55C27.5875 31.4832 27.6877 31.4414 27.7962 31.4414H30.9946C31.0948 31.4414 31.195 31.4748 31.2618 31.55C31.337 31.6169 31.3787 31.7172 31.3787 31.8258C31.3787 31.9344 31.337 32.0347 31.2618 32.1015C31.1866 32.1767 31.0948 32.2102 30.9946 32.2102H27.7962Z" fill="black"/>
<path d="M33.4081 36.6555C33.3079 36.6555 33.2077 36.6137 33.1325 36.5385C33.0574 36.4633 33.0156 36.363 33.0156 36.2628V34.1988C33.0156 34.0986 33.0574 33.9983 33.1325 33.9231C33.1993 33.8562 33.2996 33.8145 33.4081 33.8145C33.5167 33.8145 33.6169 33.8562 33.6837 33.9231C33.7505 33.9899 33.7922 34.0902 33.7922 34.1988V36.2628C33.7922 36.3714 33.7505 36.4716 33.6837 36.5385C33.6085 36.6137 33.5083 36.6555 33.4081 36.6555Z" fill="black"/>
<path d="M33.4077 39.5797C33.3659 39.5797 33.3242 39.5796 33.2741 39.5546C32.0298 39.1284 30.7271 38.9112 29.3993 38.9112C29.2908 38.9112 29.1989 38.8778 29.1237 38.8025C29.0486 38.7273 29.0068 38.6271 29.0068 38.5268C29.0068 38.4265 29.0486 38.3263 29.1237 38.2511C29.1989 38.1758 29.2991 38.1341 29.3993 38.1341C30.5851 38.1341 31.7793 38.3012 32.94 38.6438L33.0152 38.6689V37.967C33.0152 37.8667 33.0569 37.7664 33.1321 37.6912C33.2073 37.616 33.3075 37.5742 33.4077 37.5742C33.5079 37.5742 33.6081 37.616 33.6832 37.6912C33.7501 37.758 33.7918 37.8583 33.7918 37.967V39.2036C33.7918 39.3123 33.7501 39.4125 33.6832 39.4794C33.6164 39.5462 33.5162 39.588 33.4077 39.588V39.5797Z" fill="black"/>
<path d="M15.9887 36.656C15.8885 36.656 15.7883 36.6142 15.7131 36.539C15.6379 36.4638 15.5962 36.3636 15.5962 36.2633C15.5962 36.163 15.6379 36.0627 15.7131 35.9875C15.7799 35.9207 15.8801 35.8789 15.9887 35.8789H19.1787C19.2872 35.8789 19.3791 35.9123 19.4542 35.9875C19.5294 36.0627 19.5711 36.163 19.5711 36.2633C19.5711 36.3636 19.5294 36.4638 19.4542 36.539C19.3791 36.6142 19.2789 36.656 19.1787 36.656H15.9887Z" fill="black"/>
<path d="M14.4272 34.6672C14.3186 34.6672 14.2267 34.6338 14.1516 34.5586C14.0764 34.4834 14.0347 34.3831 14.0347 34.2828C14.0347 34.1825 14.0764 34.0823 14.1516 34.0071C14.2267 33.9402 14.3186 33.8984 14.4272 33.8984H20.7487C20.8489 33.8984 20.9491 33.9319 21.0159 34.0071C21.091 34.0823 21.1328 34.1825 21.1328 34.2828C21.1328 34.3831 21.091 34.4834 21.0159 34.5586C20.9491 34.6254 20.8572 34.6672 20.7487 34.6672H14.4272Z" fill="black"/>
<path d="M15.529 32.2017C15.3119 32.2017 15.1532 32.1683 14.9946 32.1181C14.8192 32.0513 14.6605 31.951 14.5269 31.8257C14.4017 31.7087 14.2931 31.5499 14.2179 31.3661C14.1428 31.1906 14.1094 31.0068 14.1094 30.8313C14.1094 30.6558 14.1511 30.472 14.2179 30.2882C14.2931 30.1127 14.3933 29.9707 14.5269 29.8453C14.6689 29.7116 14.8275 29.6113 14.9946 29.5445C15.1449 29.4944 15.3035 29.4609 15.4705 29.4609H20.0634C20.2889 29.4609 20.4476 29.486 20.5895 29.5445C20.7566 29.603 20.9236 29.7116 21.0655 29.8453C21.1991 29.979 21.3077 30.1378 21.3745 30.2965C21.4497 30.4804 21.4831 30.6642 21.4831 30.8397C21.4831 31.0151 21.4413 31.2073 21.3745 31.3745C21.3077 31.5416 21.1908 31.7003 21.0572 31.834C20.9236 31.9594 20.7649 32.0513 20.5895 32.1181C20.4309 32.1766 20.2639 32.21 20.1052 32.21H15.5206L15.529 32.2017ZM15.4956 30.238C15.4371 30.238 15.3703 30.2464 15.3119 30.2715C15.2367 30.2965 15.1616 30.3467 15.1031 30.4052C15.0447 30.4553 14.9946 30.5138 14.9611 30.5973C14.9277 30.6809 14.911 30.7645 14.911 30.8397C14.911 30.9149 14.9277 30.9817 14.9528 31.0653C14.9946 31.1572 15.0363 31.2157 15.1031 31.2742C15.1532 31.316 15.2117 31.3577 15.3035 31.3912C15.3787 31.4162 15.4622 31.4246 15.5457 31.4246H20.0551C20.147 31.4246 20.2221 31.4079 20.2889 31.3912C20.3724 31.3661 20.4309 31.3243 20.4977 31.2742C20.5561 31.2157 20.6146 31.1488 20.6396 31.0653C20.6814 30.9901 20.6814 30.9065 20.6814 30.8397C20.6814 30.7728 20.6814 30.6809 20.6313 30.5973C20.6062 30.5221 20.5478 30.4553 20.4977 30.4052C20.4392 30.355 20.3724 30.3049 20.2806 30.2715C20.2305 30.2548 20.1637 30.238 20.0968 30.238H15.4789H15.4956Z" fill="black"/>
</svg>
