<svg width="16" height="16" viewBox="0 0 16 16" fill="none" xmlns="http://www.w3.org/2000/svg">
<g clip-path="url(#clip0_3366_15733)">
<path fill-rule="evenodd" clip-rule="evenodd" d="M15.0699 12.3404C15.0699 13.3096 14.2832 14.0963 13.3145 14.0963C12.3458 14.0963 11.5591 13.3096 11.5591 12.3404C11.5591 11.3712 12.3458 10.585 13.3145 10.585C14.2832 10.585 15.0699 11.3716 15.0699 12.3404Z" fill="#5A5BB5"/>
<path fill-rule="evenodd" clip-rule="evenodd" d="M15.0699 3.35257C15.0699 4.3213 14.2832 5.10798 13.3145 5.10798C12.3458 5.10798 11.5591 4.3213 11.5591 3.35257C11.5591 2.38383 12.3458 1.59668 13.3145 1.59668C14.2832 1.59668 15.0699 2.38337 15.0699 3.35257Z" fill="#5A5BB5"/>
<path fill-rule="evenodd" clip-rule="evenodd" d="M5.89177 7.84701C5.89177 9.21634 4.7803 10.3278 3.41097 10.3278C2.04164 10.3278 0.930176 9.21634 0.930176 7.84701C0.930176 6.47768 2.04164 5.36621 3.41097 5.36621C4.7803 5.36621 5.89177 6.47768 5.89177 7.84701Z" fill="#5A5BB5"/>
<path fill-rule="evenodd" clip-rule="evenodd" d="M13.3142 9.65561C12.3946 9.65561 11.5822 10.1189 11.0978 10.8246L6.68051 8.81979C6.77224 8.51139 6.82137 8.18473 6.82137 7.84685C6.82137 7.50896 6.77224 7.1823 6.68051 6.8739L11.0978 4.86905C11.5822 5.57477 12.3946 6.03808 13.3142 6.03808C14.7963 6.03808 16 4.83488 16 3.35277C16 1.87065 14.7963 0.666992 13.3142 0.666992C11.8321 0.666992 10.6289 1.87065 10.6289 3.35277C10.6289 3.58395 10.6584 3.80859 10.7132 4.02246L6.29536 6.02731C5.69072 5.07122 4.62418 4.43616 3.41069 4.43616C1.52798 4.43616 0 5.9646 0 7.84685C0 9.72909 1.52798 11.2575 3.41069 11.2575C4.62418 11.2575 5.69072 10.6225 6.29536 9.66638L10.7132 11.6712C10.6584 11.8851 10.6289 12.1097 10.6289 12.3409C10.6289 13.823 11.8321 15.0267 13.3142 15.0267C14.7963 15.0267 16 13.823 16 12.3409C16 10.8588 14.7963 9.65561 13.3142 9.65561ZM13.3142 1.59688C14.283 1.59688 15.0696 2.38357 15.0696 3.35277C15.0696 4.32197 14.283 5.10819 13.3142 5.10819C12.3455 5.10819 11.5588 4.3215 11.5588 3.35277C11.5588 2.38404 12.3455 1.59688 13.3142 1.59688ZM3.41069 10.3276C2.04136 10.3276 0.92989 9.21617 0.92989 7.84685C0.92989 6.47752 2.04136 5.36605 3.41069 5.36605C4.78002 5.36605 5.89149 6.47752 5.89149 7.84685C5.89149 9.21617 4.78002 10.3276 3.41069 10.3276ZM13.3142 14.0968C12.3455 14.0968 11.5588 13.3101 11.5588 12.3409C11.5588 11.3717 12.3455 10.5855 13.3142 10.5855C14.283 10.5855 15.0696 11.3722 15.0696 12.3409C15.0696 13.3097 14.283 14.0968 13.3142 14.0968Z" fill="#5A5BB5"/>
</g>
<defs>
<clipPath id="clip0_3366_15733">
<rect width="16" height="14.3597" fill="white" transform="translate(0 0.666992)"/>
</clipPath>
</defs>
</svg>
