<svg width="158" height="229" viewBox="0 0 158 229" fill="none" xmlns="http://www.w3.org/2000/svg">
<rect width="158" height="169" rx="40" fill="white"/>
<rect x="1.5" y="1.5" width="155" height="166" rx="38.5" stroke="#5A5BB5" stroke-opacity="0.4" stroke-width="3"/>
<g clip-path="url(#clip0_282_10327)">
<path d="M90.6251 139C80.925 139 71.6005 136.089 63.6583 130.583L62.8228 130.004L68.6564 122.025L69.4498 122.569C75.6963 126.852 83.0175 129.116 90.6238 129.116C97.2782 129.116 103.813 127.35 109.524 124.01L110.374 123.513L115.432 132.004L114.572 132.51C107.339 136.754 99.0583 138.999 90.6238 138.999L90.6251 139Z" fill="#5A5BB5"/>
<path d="M60.7215 128.373C49.6194 119.329 43.2515 105.941 43.2515 91.6391C43.2515 89.8186 43.3568 87.9831 43.5638 86.1812L43.6172 85.7226L44.0027 85.4673C44.7353 84.9827 45.5088 84.5143 46.3034 84.0731C48.3649 82.9304 50.6272 81.9464 53.0284 81.1495L54.7502 80.5782L54.3015 82.3355C53.5292 85.3595 53.1375 88.49 53.1375 91.6379C53.1375 102.824 58.0799 113.34 66.6977 120.489L67.2804 121.014L66.725 121.718L61.5446 129.041L60.7215 128.37V128.373Z" fill="#5A5BB5"/>
<path d="M111.918 122.505L112.701 121.933C122.351 114.893 128.113 103.568 128.113 91.6392C128.113 70.9734 111.296 54.1607 90.6262 54.1607C82.2662 54.1607 74.3586 56.8513 67.7564 61.9424L65.9316 63.3491L66.1647 61.0576C66.4486 58.2616 67.1093 55.602 68.1295 53.1531C68.7307 51.7106 69.4683 50.3126 70.3236 49.0001L70.4798 48.761L70.7389 48.6407C76.9941 45.7457 83.6856 44.2771 90.6275 44.2771C97.0227 44.2771 103.227 45.53 109.067 48C114.708 50.3857 119.775 53.8001 124.125 58.1501C128.474 62.4989 131.891 67.564 134.277 73.2042C136.748 79.0439 138.001 85.2467 138.001 91.6404C138.001 100.016 136.36 107.507 133.123 113.909C129.829 120.423 124.868 125.841 118.375 130.012L118.354 130.026L117.501 130.514L111.919 122.506L111.918 122.505Z" fill="#5A5BB5"/>
<path d="M33.4294 92.3964L30.4878 84.896L54.6679 66.4126L65.0758 38.1808L74.0929 42.661L73.1099 43.6363C70.4385 46.2885 68.3782 49.3298 66.9849 52.6759C65.5345 56.1597 64.787 60.0016 64.7622 64.0939C64.7225 70.8978 66.7121 76.0447 66.732 76.0955L67.2241 77.3485L65.8816 77.4464C61.9321 77.7339 58.1922 78.3659 54.7646 79.3239C51.4771 80.2448 48.4289 81.4791 45.7042 82.9911C38.766 86.8405 35.8529 91.4235 35.3397 92.3034C35.2789 92.4075 35.2467 92.4695 35.2393 92.4819L34.2377 94.4474L33.4307 92.3976L33.4294 92.3964Z" fill="#5A5BB5"/>
<path d="M63.7706 64.0877C63.7297 71.1605 65.8085 76.4574 65.8085 76.4574C61.5219 76.7697 57.7695 77.4538 54.4969 78.3685C50.8301 79.3959 47.7633 80.7133 45.222 82.1236C38.1277 86.0597 35.1129 90.722 34.4819 91.8027C34.3939 91.9527 34.353 92.0345 34.353 92.0345L31.6841 85.2294L48.3843 72.4631L55.4985 67.0249L58.8902 57.8241L65.6238 39.5602L72.4108 42.9324C69.4257 45.8956 67.4014 49.0931 66.0688 52.2943C64.3693 56.3754 63.7916 60.4651 63.7706 64.0877Z" fill="#5A5BB5"/>
<path d="M35.7507 46.7631L62.9977 30L50.1675 63.8757L20 83.327L35.7507 46.7631Z" fill="#5A5BB5"/>
<path d="M90.6259 117.658C77.7883 117.658 67.3433 107.215 67.3433 94.3793C67.3433 81.5436 77.7883 71.1023 90.6259 71.1023C103.463 71.1023 113.909 81.5448 113.909 94.3793C113.909 107.214 103.463 117.658 90.6259 117.658Z" fill="#5A5BB5"/>
<path d="M32.3663 89.8644C32.5721 90.2833 32.7952 90.7518 32.5746 91.1843C32.251 90.9104 32.1915 90.5225 31.9511 90.2511C31.7217 89.9921 31.542 89.6835 31.1862 89.5273C31.4961 90.1334 32.0651 90.6365 32.0639 91.3182C32.0428 91.54 31.8903 91.633 31.6821 91.5326C31.5581 91.4533 31.5445 91.4483 31.3387 91.3554C31.3126 91.5351 31.3598 91.6776 31.3759 91.8498C31.3957 92.6443 29.8015 90.9142 29.6007 90.6068C29.84 91.0926 30.1648 91.623 30.5131 92.0729C30.5999 92.1845 30.6879 92.291 30.7771 92.3902C30.4585 92.4137 30.316 92.4026 30.13 92.2935C28.7057 91.0839 27.1959 89.3526 27.1549 87.4378C26.6318 86.9942 25.7492 86.7166 25.9352 85.937C26.0046 85.6817 25.9017 85.4859 25.7393 85.2814C24.6621 83.9305 23.534 82.6181 22.5225 81.2164C22.3712 81.007 22.3551 80.9946 22.2026 80.7244C22.6229 80.4047 22.8621 80.2237 23.4361 79.8197C23.4807 79.9362 23.7274 80.4084 23.8712 80.5893C24.0782 80.9648 26.4595 84.052 27.1351 84.8167C27.2702 84.8315 27.4525 84.8476 27.6322 84.8737C28.2483 84.9803 28.309 85.761 28.4665 86.2642C30.1635 86.8603 31.4961 88.2731 32.3676 89.8644H32.3663Z" fill="#5A5BB5"/>
</g>
<path d="M36.3276 221.352C34.4761 221.352 32.8823 220.977 31.5464 220.227C30.2183 219.469 29.1948 218.398 28.4761 217.016C27.7573 215.625 27.3979 213.98 27.3979 212.082C27.3979 210.23 27.7573 208.605 28.4761 207.207C29.1948 205.809 30.2065 204.719 31.5112 203.937C32.8237 203.156 34.3628 202.766 36.1284 202.766C37.3159 202.766 38.4214 202.957 39.4448 203.34C40.4761 203.715 41.3745 204.281 42.1401 205.039C42.9136 205.797 43.5151 206.75 43.9448 207.898C44.3745 209.039 44.5894 210.375 44.5894 211.906V213.277H29.3901V210.184H39.8901C39.8901 209.465 39.7339 208.828 39.4214 208.273C39.1089 207.719 38.6753 207.285 38.1206 206.973C37.5737 206.652 36.937 206.492 36.2104 206.492C35.4526 206.492 34.7808 206.668 34.1948 207.02C33.6167 207.363 33.1636 207.828 32.8354 208.414C32.5073 208.992 32.3394 209.637 32.3315 210.348V213.289C32.3315 214.18 32.4956 214.949 32.8237 215.598C33.1597 216.246 33.6323 216.746 34.2417 217.098C34.8511 217.449 35.5737 217.625 36.4097 217.625C36.9644 217.625 37.4722 217.547 37.9331 217.391C38.394 217.234 38.7886 217 39.1167 216.687C39.4448 216.375 39.6948 215.992 39.8667 215.539L44.4839 215.844C44.2495 216.953 43.769 217.922 43.0425 218.75C42.3237 219.57 41.394 220.211 40.2534 220.672C39.1206 221.125 37.812 221.352 36.3276 221.352ZM59.062 209.164V213.125H48.1167V209.164H59.062ZM63.4097 221V197H68.4839V216.816H78.773V221H63.4097ZM82.1333 197H88.3911L95.0005 213.125H95.2817L101.891 197H108.149V221H103.227V205.379H103.028L96.8169 220.883H93.4653L87.2544 205.32H87.0552V221H82.1333V197ZM125.349 203.902C125.255 202.957 124.853 202.223 124.142 201.699C123.431 201.176 122.466 200.914 121.248 200.914C120.419 200.914 119.72 201.031 119.15 201.266C118.58 201.492 118.142 201.809 117.837 202.215C117.541 202.621 117.392 203.082 117.392 203.598C117.376 204.027 117.466 204.402 117.662 204.723C117.865 205.043 118.142 205.32 118.494 205.555C118.845 205.781 119.251 205.98 119.712 206.152C120.173 206.316 120.666 206.457 121.189 206.574L123.345 207.09C124.392 207.324 125.353 207.637 126.228 208.027C127.103 208.418 127.861 208.898 128.501 209.469C129.142 210.039 129.638 210.711 129.99 211.484C130.349 212.258 130.533 213.145 130.541 214.145C130.533 215.613 130.158 216.887 129.416 217.965C128.681 219.035 127.619 219.867 126.228 220.461C124.845 221.047 123.177 221.34 121.224 221.34C119.287 221.34 117.599 221.043 116.162 220.449C114.732 219.855 113.615 218.977 112.81 217.812C112.013 216.641 111.595 215.191 111.556 213.465H116.466C116.521 214.27 116.751 214.941 117.158 215.48C117.572 216.012 118.123 216.414 118.81 216.687C119.505 216.953 120.291 217.086 121.166 217.086C122.025 217.086 122.771 216.961 123.404 216.711C124.044 216.461 124.541 216.113 124.892 215.668C125.244 215.223 125.419 214.711 125.419 214.133C125.419 213.594 125.259 213.141 124.939 212.773C124.626 212.406 124.166 212.094 123.556 211.836C122.955 211.578 122.216 211.344 121.341 211.133L118.728 210.477C116.705 209.984 115.107 209.215 113.935 208.168C112.763 207.121 112.181 205.711 112.189 203.937C112.181 202.484 112.568 201.215 113.349 200.129C114.138 199.043 115.22 198.195 116.595 197.586C117.97 196.977 119.533 196.672 121.283 196.672C123.064 196.672 124.619 196.977 125.947 197.586C127.283 198.195 128.322 199.043 129.064 200.129C129.806 201.215 130.189 202.473 130.212 203.902H125.349Z" fill="white"/>
<defs>
<clipPath id="clip0_282_10327">
<rect width="118" height="109" fill="white" transform="translate(20 30)"/>
</clipPath>
</defs>
</svg>
