<svg width="30" height="29" viewBox="0 0 30 29" fill="none" xmlns="http://www.w3.org/2000/svg">
<path d="M13.3925 0.997161L9.73213 8.41885L1.54283 9.61193C1.20966 9.65905 0.89645 9.79891 0.63898 10.0155C0.38151 10.2322 0.190156 10.5169 0.0867735 10.8371C-0.0166091 11.1573 -0.027853 11.5001 0.0543262 11.8264C0.136505 12.1527 0.308795 12.4493 0.551517 12.6824L6.47308 18.4548L5.07164 26.609C5.01508 26.9387 5.05192 27.2776 5.17799 27.5874C5.30406 27.8972 5.51433 28.1655 5.785 28.362C6.05566 28.5585 6.37593 28.6753 6.70955 28.6992C7.04316 28.7231 7.37681 28.6532 7.67274 28.4973L14.9979 24.6461L22.3231 28.4973C22.6191 28.6523 22.9525 28.7216 23.2858 28.6973C23.619 28.673 23.9389 28.5561 24.2092 28.3598C24.4796 28.1635 24.6898 27.8956 24.8162 27.5862C24.9425 27.2769 24.9799 26.9385 24.9242 26.609L23.5272 18.446L29.4487 12.6736C29.6914 12.4406 29.8637 12.1439 29.9459 11.8176C30.0281 11.4914 30.0169 11.1485 29.9135 10.8283C29.8101 10.5081 29.6187 10.2234 29.3613 10.0068C29.1038 9.79014 28.7906 9.65027 28.4574 9.60316L20.2703 8.41885L16.6099 0.997161C16.4612 0.697687 16.2318 0.44568 15.9476 0.269509C15.6633 0.093339 15.3356 0 15.0012 0C14.6668 0 14.3391 0.093339 14.0549 0.269509C13.7707 0.44568 13.5413 0.697687 13.3925 0.997161Z" fill="#E29512"/>
</svg>
