<svg width="16" height="15" viewBox="0 0 16 15" fill="none" xmlns="http://www.w3.org/2000/svg">
<path d="M8.86829 1.08312L10.199 3.74461C10.3805 4.1151 10.8644 4.47046 11.2727 4.53851L13.6847 4.93925C15.2271 5.19632 15.5901 6.31536 14.4786 7.41927L12.6034 9.29441C12.2859 9.61197 12.112 10.2244 12.2103 10.663L12.7471 12.9842C13.1705 14.8215 12.1952 15.5323 10.5695 14.572L8.30878 13.2337C7.90048 12.9918 7.22755 12.9918 6.81169 13.2337L4.55094 14.572C2.93288 15.5323 1.94994 14.814 2.37336 12.9842L2.91019 10.663C3.00849 10.2244 2.83458 9.61197 2.51702 9.29441L0.641881 7.41927C-0.462031 6.31536 -0.106662 5.19632 1.43579 4.93925L3.84776 4.53851C4.2485 4.47046 4.7324 4.1151 4.91387 3.74461L6.24461 1.08312C6.97047 -0.36104 8.14999 -0.36104 8.86829 1.08312Z" fill="#E29512"/>
</svg>
