<svg width="108" height="108" viewBox="0 0 108 108" fill="none" xmlns="http://www.w3.org/2000/svg">
<path fill-rule="evenodd" clip-rule="evenodd" d="M46.4745 34.253C46.4745 29.9406 50.0659 28.0032 55.8624 28.0032C65.4679 28.2093 74.8937 30.6269 83.3959 35.0654V9.504C74.6482 6.1013 65.3211 4.40372 55.9254 4.50421C33.4954 4.50421 18.5 16.1287 18.5 35.7529C18.5 66.1266 60.5878 61.1893 60.5878 74.3138C60.5878 79.3761 56.1144 81.001 50.0029 81.001C39.2363 80.4121 28.7545 77.3528 19.3821 72.0639V98.2503C28.9322 102.344 39.2212 104.47 49.6248 104.5C72.6219 104.5 88.4994 93.2505 88.4994 73.2513C88.6884 40.6902 46.4745 46.5649 46.4745 34.253Z" fill="#6772E5"/>
</svg>
