<svg width="201" height="201" viewBox="0 0 201 201" fill="none" xmlns="http://www.w3.org/2000/svg">
<g clip-path="url(#clip0_4132_19205)">
<path d="M182.73 100.5C182.73 123.205 173.51 143.78 158.645 158.645C143.78 173.51 123.202 182.73 100.497 182.73C77.7927 182.73 57.2169 173.51 42.3521 158.645C27.4872 143.78 18.2676 123.202 18.2676 100.5C18.2676 77.7977 27.4872 57.2169 42.3521 42.3521C57.2169 27.4872 77.7952 18.2676 100.497 18.2676C123.2 18.2676 143.78 27.4872 158.645 42.3521C173.51 57.2169 182.73 77.7952 182.73 100.5Z" fill="#64D90B"/>
<g style="mix-blend-mode:multiply" opacity="0.3">
<path d="M98.2876 98.6382L45.6059 151.322L24.7477 130.464L10.2485 144.963L45.6059 180.321L112.789 113.137L98.2876 98.6382Z" fill="white"/>
<path d="M99.5464 97.3823L46.8623 150.064L26.0065 129.208L11.5049 143.707L46.8623 179.065L114.046 111.881L99.5464 97.3823Z" fill="#F9FCF7"/>
<path d="M100.803 96.1235L48.1211 148.808L27.2628 127.949L12.7637 142.449L48.1211 177.806L115.304 110.623L100.803 96.1235Z" fill="#F3F8EF"/>
<path d="M102.061 94.8672L49.3769 147.549L28.5212 126.693L14.0195 141.192L49.3769 176.55L116.56 109.366L102.061 94.8672Z" fill="#EDF5E6"/>
<path d="M103.317 93.6084L50.6357 146.293L29.7774 125.434L15.2783 139.933L50.6357 175.291L117.819 108.108L103.317 93.6084Z" fill="#E7F2DE"/>
<path d="M104.576 92.3525L51.892 145.034L31.0363 124.178L16.5347 138.678L51.892 174.035L119.075 106.852L104.576 92.3525Z" fill="#E1EFD6"/>
<path d="M105.832 91.0938L53.1508 143.778L32.2926 122.92L17.7935 137.419L53.1508 172.776L120.334 105.593L105.832 91.0938Z" fill="#DAEBCE"/>
<path d="M107.091 89.8374L54.4067 142.519L33.551 121.663L19.0493 136.162L54.4067 171.52L121.59 104.337L107.091 89.8374Z" fill="#D4E8C5"/>
<path d="M108.347 88.5786L55.6655 141.263L34.8072 120.405L20.3081 134.904L55.6655 170.261L122.849 103.078L108.347 88.5786Z" fill="#CEE5BD"/>
<path d="M109.606 87.3228L56.9218 140.004L36.0636 119.149L21.5645 133.648L56.9218 169.005L124.105 101.822L109.606 87.3228Z" fill="#C8E1B5"/>
<path d="M110.862 86.064L58.1806 138.748L37.3224 117.89L22.8232 132.389L58.1806 167.746L125.364 100.563L110.862 86.064Z" fill="#C2DEAD"/>
<path d="M112.121 84.8076L59.4365 137.489L38.5782 116.634L24.0791 131.133L59.4365 166.49L126.62 99.3067L112.121 84.8076Z" fill="#BCDBA5"/>
<path d="M113.377 83.5488L60.6953 136.233L39.837 115.375L25.3379 129.874L60.6953 165.231L127.879 98.048L113.377 83.5488Z" fill="#B6D89C"/>
<path d="M114.636 82.293L61.9516 134.975L41.0934 114.119L26.5942 128.618L61.9516 163.975L129.135 96.7921L114.636 82.293Z" fill="#B0D494"/>
<path d="M115.892 81.0342L63.2104 133.718L42.3521 112.86L27.853 127.359L63.2104 162.717L130.394 95.5358L115.892 81.0342Z" fill="#AAD18C"/>
<path d="M117.15 79.7778L64.4663 132.459L43.608 111.604L29.1089 126.103L64.4663 161.46L131.65 94.277L117.15 79.7778Z" fill="#A4CE84"/>
<path d="M118.407 78.519L65.7251 131.203L44.8668 110.345L30.3677 124.844L65.7251 160.201L132.908 93.0207L118.407 78.519Z" fill="#9DCA7B"/>
<path d="M119.666 77.2632L66.9814 129.945L46.1231 109.089L31.624 123.588L66.9814 158.946L134.165 91.7623L119.666 77.2632Z" fill="#97C773"/>
<path d="M120.922 76.0044L68.2402 128.689L47.3819 107.83L32.8828 122.329L68.2402 157.687L135.423 90.506L120.922 76.0044Z" fill="#91C46B"/>
<path d="M122.18 74.748L69.4961 127.43L48.6378 106.574L34.1387 121.073L69.4961 156.43L136.679 89.2472L122.18 74.748Z" fill="#8BC063"/>
<path d="M123.437 73.4893L70.7548 126.173L49.8966 105.315L35.3975 119.814L70.7548 155.172L137.938 87.9909L123.437 73.4893Z" fill="#85BD5A"/>
<path d="M124.695 72.2334L72.0112 124.915L51.1529 104.059L36.6538 118.558L72.0112 153.916L139.194 86.7325L124.695 72.2334Z" fill="#7FBA52"/>
<path d="M125.952 70.9746L73.27 123.659L52.4117 102.801L37.9126 117.3L73.27 152.657L140.453 85.4762L125.952 70.9746Z" fill="#79B74A"/>
<path d="M127.21 69.7183L74.5258 122.4L53.6676 101.544L39.1685 116.043L74.5258 151.401L141.709 84.2174L127.21 69.7183Z" fill="#73B342"/>
<path d="M128.466 68.4595L75.7846 121.144L54.9264 100.285L40.4272 114.785L75.7846 150.142L142.968 82.9611L128.466 68.4595Z" fill="#6DB03A"/>
<path d="M129.725 67.2036L77.041 119.885L56.1827 99.0295L41.6836 113.529L77.041 148.886L144.224 81.7027L129.725 67.2036Z" fill="#67AD31"/>
<path d="M130.981 65.9448L78.2998 118.629L57.4415 97.7708L42.9424 112.27L78.2998 147.627L145.483 80.4465L130.981 65.9448Z" fill="#60A929"/>
<path d="M132.24 64.6885L79.5556 117.37L58.6974 96.5144L44.1982 111.014L79.5556 146.371L146.739 79.1876L132.24 64.6885Z" fill="#5AA621"/>
<path d="M133.496 63.4297L80.8144 116.114L59.9562 95.2556L45.457 109.755L80.8144 145.112L147.998 77.9313L133.496 63.4297Z" fill="#54A319"/>
<path d="M134.755 62.1738L82.0708 114.855L61.2125 93.9998L46.7134 108.499L82.0708 143.856L149.254 76.6729L134.755 62.1738Z" fill="#4EA010"/>
<path d="M136.011 60.915L83.3295 113.599L62.4713 92.741L47.9722 107.24L83.3295 142.597L150.513 75.4167L136.011 60.915Z" fill="#489C08"/>
<path d="M137.27 59.6587L84.5854 112.34L63.7271 91.4846L49.228 105.984L84.5854 141.341L151.769 74.1578L137.27 59.6587Z" fill="#429900"/>
</g>
<path d="M137.27 59.6587L84.5859 112.34L63.7276 91.4846L49.2285 105.984L84.5859 141.341L151.769 74.1578L137.27 59.6587Z" fill="white"/>
<path d="M100.505 201H100.5C73.6559 201 48.4187 190.547 29.4371 171.563C28.3474 170.473 27.283 169.358 26.2437 168.221C25.6434 167.565 25.6913 166.546 26.3471 165.948C27.003 165.347 28.022 165.395 28.6199 166.051C29.6263 167.154 30.6555 168.233 31.7124 169.288C50.086 187.661 74.5161 197.781 100.5 197.781H100.505C117.431 197.781 134.112 193.357 148.742 184.987C149.514 184.546 150.498 184.816 150.939 185.585C151.381 186.357 151.113 187.341 150.341 187.782C135.224 196.429 117.991 201 100.505 201ZM174.698 167.481C174.32 167.481 173.942 167.35 173.634 167.08C172.968 166.493 172.902 165.476 173.49 164.808C189.152 147.037 197.779 124.199 197.779 100.5V100.21C197.779 99.322 198.5 98.6006 199.388 98.6006C200.276 98.6006 200.997 99.322 200.997 100.21V100.5C200.997 124.983 192.086 148.578 175.907 166.937C175.589 167.297 175.145 167.481 174.698 167.481ZM1.60933 102.18C0.721425 102.18 0 101.532 0 100.644V100.5C0 76.0699 8.87655 52.5152 24.9926 34.1718C25.5803 33.5059 26.5969 33.4378 27.2653 34.0255C27.9338 34.6132 27.9993 35.6298 27.4116 36.2982C11.8102 54.0513 3.21866 76.8544 3.21866 100.5C3.21866 101.388 2.49724 102.18 1.60933 102.18ZM173.47 35.3649C173.033 35.3649 172.6 35.1884 172.284 34.8428C171.308 33.7758 170.309 32.7315 169.288 31.7099C150.914 13.3388 126.484 3.21866 100.5 3.21866H100.495C83.5188 3.21866 66.7974 7.66577 52.1343 16.0807C51.3649 16.5221 50.3786 16.2548 49.9372 15.4854C49.4958 14.7135 49.7606 13.7298 50.5325 13.2883C65.6799 4.59593 82.9588 0 100.495 0H100.5C127.344 0 152.581 10.4531 171.563 29.4371C172.617 30.4915 173.649 31.5712 174.655 32.6709C175.256 33.3268 175.21 34.3459 174.554 34.9437C174.244 35.2262 173.856 35.3675 173.467 35.3675L173.47 35.3649Z" fill="#64D90B"/>
</g>
<defs>
<clipPath id="clip0_4132_19205">
<rect width="201" height="201" fill="white"/>
</clipPath>
</defs>
</svg>
