<svg width="50" height="50" viewBox="0 0 50 50" fill="none" xmlns="http://www.w3.org/2000/svg">
<path d="M35.475 0H14.525C5.425 0 0 5.425 0 14.525V35.475C0 42.5 3.225 47.325 8.9 49.15C10.55 49.725 12.45 50 14.525 50H35.475C37.55 50 39.45 49.725 41.1 49.15C46.775 47.325 50 42.5 50 35.475V14.525C50 5.425 44.575 0 35.475 0ZM46.25 35.475C46.25 40.825 44.15 44.2 39.925 45.6C37.5 40.825 31.75 37.425 25 37.425C18.25 37.425 12.525 40.8 10.075 45.6H10.05C5.875 44.25 3.75 40.85 3.75 35.5V14.525C3.75 7.475 7.475 3.75 14.525 3.75H35.475C42.525 3.75 46.25 7.475 46.25 14.525V35.475Z" fill="#5A5BB5"/>
<path d="M24.9998 15C20.0498 15 16.0498 19 16.0498 23.95C16.0498 28.9 20.0498 32.925 24.9998 32.925C29.9498 32.925 33.9498 28.9 33.9498 23.95C33.9498 19 29.9498 15 24.9998 15Z" fill="#5A5BB5"/>
</svg>
