<svg width="22" height="22" viewBox="0 0 22 22" fill="none" xmlns="http://www.w3.org/2000/svg">
<path d="M10.8966 19.8432C9.62373 19.8432 8.34179 19.3557 7.37581 18.3897L3.28623 14.3001C2.29318 13.307 1.76956 11.9348 1.83276 10.5355L2.04943 6.02163C2.14873 3.86399 3.85498 2.15774 6.02165 2.0494L10.5355 1.83274C11.9348 1.77857 13.3071 2.29315 14.3001 3.28621L18.3897 7.37579C20.3307 9.31676 20.3307 12.4855 18.3897 14.4265L14.4265 18.3897C13.4515 19.3557 12.1786 19.8432 10.8966 19.8432ZM4.24318 13.3341L8.33276 17.4237C9.01887 18.1098 9.93068 18.489 10.8966 18.489C11.8626 18.489 12.7744 18.1098 13.4605 17.4237L17.4237 13.4605C18.1098 12.7744 18.489 11.8626 18.489 10.8966C18.489 9.93065 18.1098 9.01885 17.4237 8.33274L13.3341 4.24315C12.6119 3.52093 11.6098 3.13274 10.5987 3.1869L6.08484 3.40357C4.61331 3.46676 3.46679 4.61329 3.39456 6.07579L3.1779 10.5897C3.13276 11.6098 3.52095 12.6119 4.24318 13.3341Z" fill="#010211"/>
<path d="M8.57636 11.5104C6.96039 11.5104 5.64233 10.1923 5.64233 8.57636C5.64233 6.96039 6.96039 5.64233 8.57636 5.64233C10.1923 5.64233 11.5104 6.96039 11.5104 8.57636C11.5104 10.1923 10.1923 11.5104 8.57636 11.5104ZM8.57636 6.9965C7.7097 6.9965 6.9965 7.7097 6.9965 8.57636C6.9965 9.44303 7.7097 10.1562 8.57636 10.1562C9.44303 10.1562 10.1562 9.44303 10.1562 8.57636C10.1562 7.7097 9.44303 6.9965 8.57636 6.9965Z" fill="#010211"/>
</svg>
