<svg width="16" height="16" viewBox="0 0 16 16" fill="none" xmlns="http://www.w3.org/2000/svg">
<path d="M8.00622 11.3331C7.43956 11.3331 6.86622 11.1864 6.41956 10.8998L2.40622 8.27978C1.65956 7.79311 1.21289 6.97311 1.21289 6.07978C1.21289 5.18645 1.65956 4.36645 2.40622 3.87978L6.42622 1.26645C7.31956 0.686446 8.71289 0.686446 9.59956 1.27311L13.5929 3.89311C14.3329 4.37978 14.7796 5.19978 14.7796 6.08645C14.7796 6.97311 14.3329 7.79311 13.5929 8.27978L9.59956 10.8998C9.15289 11.1931 8.57956 11.3331 8.00622 11.3331ZM8.00622 1.83311C7.62622 1.83311 7.24622 1.91978 6.97289 2.10645L2.95956 4.71978C2.49289 5.02645 2.21956 5.51978 2.21956 6.07978C2.21956 6.63978 2.48622 7.13311 2.95956 7.43978L6.97289 10.0598C7.52622 10.4198 8.49956 10.4198 9.05289 10.0598L13.0462 7.43978C13.5129 7.13311 13.7796 6.63978 13.7796 6.07978C13.7796 5.51978 13.5129 5.02645 13.0462 4.71978L9.05289 2.09978C8.77289 1.92645 8.39289 1.83311 8.00622 1.83311Z" fill="#5A5BB5"/>
<path d="M8.00045 15.1666C7.70711 15.1666 7.40711 15.1266 7.16711 15.0466L5.04045 14.34C4.03378 14.0066 3.24045 12.9066 3.24711 11.8466L3.25378 8.71997C3.25378 8.44664 3.48045 8.21997 3.75378 8.21997C4.02711 8.21997 4.25378 8.44664 4.25378 8.71997L4.24711 11.8466C4.24711 12.4733 4.76711 13.1933 5.36045 13.3933L7.48711 14.1C7.75378 14.1866 8.24711 14.1866 8.51378 14.1L10.6404 13.3933C11.2338 13.1933 11.7538 12.4733 11.7538 11.8533V8.75997C11.7538 8.48664 11.9804 8.25997 12.2538 8.25997C12.5271 8.25997 12.7538 8.48664 12.7538 8.75997V11.8533C12.7538 12.9133 11.9671 14.0066 10.9604 14.3466L8.83378 15.0533C8.59378 15.1266 8.29378 15.1666 8.00045 15.1666Z" fill="#5A5BB5"/>
<path d="M14.2666 10.5C13.9933 10.5 13.7666 10.2733 13.7666 10V6C13.7666 5.72667 13.9933 5.5 14.2666 5.5C14.5399 5.5 14.7666 5.72667 14.7666 6V10C14.7666 10.2733 14.5399 10.5 14.2666 10.5Z" fill="#5A5BB5"/>
</svg>
