<svg width="28" height="22" viewBox="0 0 28 22" fill="none" xmlns="http://www.w3.org/2000/svg">
<path d="M14.0204 21.6721C12.8509 21.6721 11.6676 21.3694 10.7458 20.7778L2.46286 15.3705C0.921852 14.3661 0 12.6738 0 10.83C0 8.98634 0.921852 7.29399 2.46286 6.28958L10.7595 0.896061C12.6032 -0.30097 15.4789 -0.30097 17.3088 0.90982L25.5504 6.3171C27.0777 7.32151 27.9995 9.01386 27.9995 10.8438C27.9995 12.6738 27.0777 14.3661 25.5504 15.3705L17.3088 20.7778C16.3869 21.3832 15.2037 21.6721 14.0204 21.6721ZM14.0204 2.06557C13.2361 2.06557 12.4519 2.24444 11.8878 2.62969L3.60485 8.02321C2.64172 8.65613 2.07761 9.67429 2.07761 10.83C2.07761 11.9858 2.62797 13.004 3.60485 13.6369L11.8878 19.0442C13.0298 19.7871 15.0386 19.7871 16.1806 19.0442L24.4222 13.6369C25.3853 13.004 25.9357 11.9858 25.9357 10.83C25.9357 9.67429 25.3853 8.65613 24.4222 8.02321L16.1806 2.61593C15.6027 2.2582 14.8184 2.06557 14.0204 2.06557Z" fill="#4E4E59"/>
</svg>
