<svg width="24" height="27" viewBox="0 0 24 27" fill="none" xmlns="http://www.w3.org/2000/svg">
<path d="M14.9302 0H8.58554C7.18161 0 6.03417 1.13394 6.03417 2.53788V3.80681C6.03417 5.21075 7.16811 6.34469 8.57204 6.34469H14.9302C16.3342 6.34469 17.4681 5.21075 17.4681 3.80681V2.53788C17.4816 1.13394 16.3342 0 14.9302 0Z" fill="#5A5BB5"/>
<path d="M18.8316 3.80745C18.8316 5.95384 17.0767 7.70876 14.9303 7.70876H8.58558C6.43919 7.70876 4.68427 5.95384 4.68427 3.80745C4.68427 3.05148 3.87431 2.57901 3.19934 2.92999C1.29594 3.94244 0 5.95384 0 8.26223V20.9651C0 24.2859 2.71337 26.9993 6.03421 26.9993H17.4816C20.8025 26.9993 23.5159 24.2859 23.5159 20.9651V8.26223C23.5159 5.95384 22.2199 3.94244 20.3165 2.92999C19.6415 2.57901 18.8316 3.05148 18.8316 3.80745ZM12.2709 20.1821H6.35819C5.80472 20.1821 5.34574 19.7232 5.34574 19.1697C5.34574 18.6162 5.80472 18.1572 6.35819 18.1572H12.2709C12.8244 18.1572 13.2834 18.6162 13.2834 19.1697C13.2834 19.7232 12.8244 20.1821 12.2709 20.1821ZM15.8077 14.7824H6.35819C5.80472 14.7824 5.34574 14.3234 5.34574 13.77C5.34574 13.2165 5.80472 12.7575 6.35819 12.7575H15.8077C16.3612 12.7575 16.8202 13.2165 16.8202 13.77C16.8202 14.3234 16.3612 14.7824 15.8077 14.7824Z" fill="#5A5BB5"/>
</svg>
