<svg width="16" height="16" viewBox="0 0 16 16" fill="none" xmlns="http://www.w3.org/2000/svg">
<path d="M9.65558 10.5496C11.4847 10.5496 12.9674 9.03667 12.9674 7.17033C12.9674 5.30398 11.4847 3.79102 9.65558 3.79102C7.82651 3.79102 6.34375 5.30398 6.34375 7.17033C6.34375 9.03667 7.82651 10.5496 9.65558 10.5496Z" fill="#5A5BB5"/>
<path d="M13.0341 11.0994C12.9111 11.0994 12.7929 11.0511 12.6982 10.9594L12.6367 10.8966C12.4522 10.7083 12.4522 10.4042 12.6367 10.2159C12.8212 10.0277 13.1193 10.0277 13.3038 10.2159L13.3653 10.2787C13.5498 10.467 13.5498 10.7711 13.3653 10.9594C13.2754 11.0511 13.1572 11.0994 13.0341 11.0994ZM14.3873 7.65248H14.3494C14.0892 7.65248 13.8763 7.43524 13.8763 7.16972C13.8763 6.9042 14.0892 6.68696 14.3494 6.68696C14.6096 6.68696 14.8415 6.9042 14.8415 7.16972C14.8415 7.43524 14.6475 7.65248 14.3873 7.65248ZM12.9726 4.26834C12.8496 4.26834 12.7313 4.22006 12.6367 4.12834C12.4522 3.94006 12.4522 3.63593 12.6367 3.44765L12.6982 3.38489C12.8827 3.19662 13.1808 3.19662 13.3653 3.38489C13.5498 3.57317 13.5498 3.87731 13.3653 4.06558L13.3038 4.12834C13.2139 4.22006 13.0956 4.26834 12.9726 4.26834ZM6.33952 4.26834C6.21651 4.26834 6.09823 4.22006 6.0036 4.12834L5.9421 4.06075C5.75758 3.87248 5.75758 3.56834 5.9421 3.38006C6.12661 3.19179 6.42468 3.19179 6.60919 3.38006L6.6707 3.44282C6.85522 3.6311 6.85522 3.93524 6.6707 4.12351C6.58081 4.22006 6.4578 4.26834 6.33952 4.26834ZM9.65608 2.8442C9.39586 2.8442 9.18296 2.64627 9.18296 2.38075V2.34213C9.18296 2.07662 9.39586 1.85938 9.65608 1.85938C9.91629 1.85938 10.1292 2.07662 10.1292 2.34213C10.1292 2.60765 9.91629 2.8442 9.65608 2.8442Z" fill="#5A5BB5"/>
<path d="M10.8535 11.4814C10.7778 11.351 10.5649 11.1483 10.0351 11.2448C9.74172 11.2979 9.44366 11.3221 9.14559 11.3076C8.04323 11.2593 7.04495 10.7427 6.34946 9.94619C5.73441 9.24619 5.35591 8.33378 5.35118 7.34895C5.35118 6.79861 5.45527 6.26757 5.66817 5.7655C5.87634 5.27792 5.72968 5.02206 5.62559 4.91585C5.51677 4.80481 5.26129 4.65033 4.75978 4.86275C2.82473 5.69309 1.62774 7.6724 1.76968 9.79171C1.91161 11.7855 3.28366 13.4896 5.10043 14.1317C5.5357 14.2862 5.99462 14.3779 6.46774 14.3972C6.54344 14.4021 6.61914 14.4069 6.69484 14.4069C8.27978 14.4069 9.76538 13.6441 10.7022 12.3455C11.0191 11.8965 10.934 11.6117 10.8535 11.4814Z" fill="#5A5BB5"/>
</svg>
