<svg width="23" height="27" viewBox="0 0 23 27" fill="none" xmlns="http://www.w3.org/2000/svg">
<path d="M16.593 0H6.37776C1.27015 0 0 1.36473 0 6.81015V22.0249C0 25.6191 1.97278 26.4704 4.36444 23.9031L4.37795 23.8896C5.48596 22.714 7.17498 22.8086 8.13435 24.0923L9.49908 25.9164C10.5936 27.3622 12.3637 27.3622 13.4582 25.9164L14.8229 24.0923C15.7958 22.7951 17.4848 22.7005 18.5928 23.8896C20.998 26.4569 22.9572 25.6056 22.9572 22.0114V6.81015C22.9708 1.36473 21.7006 0 16.593 0ZM15.2012 11.8232H7.76952C7.21552 11.8232 6.7561 11.3638 6.7561 10.8098C6.7561 10.2558 7.21552 9.79635 7.76952 9.79635H15.2012C15.7552 9.79635 16.2146 10.2558 16.2146 10.8098C16.2146 11.3638 15.7552 11.8232 15.2012 11.8232Z" fill="#5A5BB5"/>
</svg>
