<svg width="14" height="15" viewBox="0 0 14 15" fill="none" xmlns="http://www.w3.org/2000/svg">
<path d="M6.27666 10.2157C6.03166 10.2157 5.80416 10.1573 5.59999 10.0407C5.13332 9.77235 4.86499 9.22401 4.86499 8.52985V6.80318C4.86499 6.11485 5.13332 5.56068 5.59999 5.29235C6.06666 5.02401 6.67332 5.06485 7.27416 5.41485L8.77332 6.27818C9.36832 6.62235 9.71249 7.12985 9.71249 7.66651C9.71249 8.20318 9.36832 8.71068 8.77332 9.05485L7.27416 9.91818C6.93582 10.1165 6.59166 10.2157 6.27666 10.2157ZM6.28249 5.99235C6.18916 5.99235 6.10749 6.00985 6.04332 6.05068C5.85666 6.16151 5.74582 6.43568 5.74582 6.80318V8.52985C5.74582 8.89735 5.85082 9.17151 6.04332 9.28235C6.22999 9.39318 6.52166 9.34651 6.84249 9.15985L8.34166 8.29651C8.66249 8.10985 8.84332 7.88235 8.84332 7.66651C8.84332 7.45068 8.66249 7.21735 8.34166 7.03651L6.84249 6.17318C6.63249 6.05068 6.43999 5.99235 6.28249 5.99235Z" fill="#5A5BB5"/>
<path d="M7.00008 13.9372C3.54091 13.9372 0.729248 11.1255 0.729248 7.66634C0.729248 4.20717 3.54091 1.39551 7.00008 1.39551C10.4592 1.39551 13.2709 4.20717 13.2709 7.66634C13.2709 11.1255 10.4592 13.9372 7.00008 13.9372ZM7.00008 2.27051C4.02508 2.27051 1.60425 4.69134 1.60425 7.66634C1.60425 10.6413 4.02508 13.0622 7.00008 13.0622C9.97508 13.0622 12.3959 10.6413 12.3959 7.66634C12.3959 4.69134 9.97508 2.27051 7.00008 2.27051Z" fill="#5A5BB5"/>
</svg>
