<svg width="16" height="16" viewBox="0 0 16 16" fill="none" xmlns="http://www.w3.org/2000/svg">
<path d="M14.6665 7.31379V8.68712C14.6665 9.05379 14.3732 9.35379 13.9998 9.36712H12.6932C11.9732 9.36712 11.3132 8.84046 11.2532 8.12046C11.2132 7.70046 11.3732 7.30712 11.6532 7.03379C11.8998 6.78046 12.2398 6.63379 12.6132 6.63379H13.9998C14.3732 6.64712 14.6665 6.94712 14.6665 7.31379Z" fill="#5A5BB5"/>
<path d="M13.6468 10.3663H12.6935C11.4268 10.3663 10.3602 9.41301 10.2535 8.19967C10.1935 7.50634 10.4468 6.81301 10.9535 6.31967C11.3802 5.87967 11.9735 5.63301 12.6135 5.63301H13.6468C13.8402 5.63301 14.0002 5.47301 13.9802 5.27967C13.8335 3.65967 12.7602 2.55301 11.1668 2.36634C11.0068 2.33967 10.8402 2.33301 10.6668 2.33301H4.66683C4.48016 2.33301 4.30016 2.34634 4.12683 2.37301C2.42683 2.58634 1.3335 3.85301 1.3335 5.66634V10.333C1.3335 12.173 2.82683 13.6663 4.66683 13.6663H10.6668C12.5335 13.6663 13.8202 12.4997 13.9802 10.7197C14.0002 10.5263 13.8402 10.3663 13.6468 10.3663ZM8.66683 6.49967H4.66683C4.3935 6.49967 4.16683 6.27301 4.16683 5.99967C4.16683 5.72634 4.3935 5.49967 4.66683 5.49967H8.66683C8.94016 5.49967 9.16683 5.72634 9.16683 5.99967C9.16683 6.27301 8.94016 6.49967 8.66683 6.49967Z" fill="#5A5BB5"/>
</svg>
