<svg width="38" height="35" viewBox="0 0 38 35" fill="none" xmlns="http://www.w3.org/2000/svg">
<path d="M37.0314 25.8345L23.7068 2.77404C23.2195 1.9306 22.5187 1.23035 21.6747 0.743433C20.8307 0.256483 19.8733 0 18.8988 0C17.9242 0 16.9667 0.256483 16.1228 0.743433C15.2788 1.23035 14.578 1.9306 14.0907 2.77404L0.7661 25.8345C0.26469 26.6731 0 27.6318 0 28.6089C0 29.5858 0.26469 30.5445 0.7661 31.3831C1.24753 32.2293 1.94573 32.9323 2.7887 33.4198C3.63168 33.9073 4.58913 34.1619 5.563 34.1575H32.2122C33.1905 34.1691 34.154 33.9178 35.0017 33.4298C35.8495 32.9417 36.5506 32.2348 37.0314 31.3831C37.5222 30.5409 37.7807 29.5835 37.7807 28.6089C37.7807 27.6341 37.5222 26.6767 37.0314 25.8345ZM19.998 12.6287C19.998 12.923 19.881 13.2052 19.6727 13.4134C19.4645 13.6214 19.1821 13.7384 18.8876 13.7384C18.5932 13.7384 18.3108 13.6214 18.1025 13.4134C17.8943 13.2052 17.7773 12.923 17.7773 12.6287C17.7824 12.336 17.9011 12.0565 18.1083 11.8495C18.3154 11.6424 18.5948 11.5241 18.8876 11.519C19.1814 11.519 19.4632 11.6353 19.6713 11.8424C19.8795 12.0496 19.9968 12.3305 19.998 12.624V12.6287ZM17.7773 17.0899C17.7773 16.7955 17.8943 16.5131 18.1025 16.3049C18.3108 16.0969 18.5932 15.9801 18.8876 15.9801C19.1821 15.9801 19.4645 16.0969 19.6727 16.3049C19.881 16.5131 19.998 16.7955 19.998 17.0899V25.9678C19.998 26.2621 19.881 26.5443 19.6727 26.7524C19.4645 26.9605 19.1821 27.0775 18.8876 27.0775C18.5946 27.0729 18.3146 26.9544 18.1074 26.7473C17.9002 26.5401 17.7819 26.2606 17.7773 25.9678V17.0899Z" fill="#DB3D26"/>
</svg>
