<svg width="11" height="11" viewBox="0 0 11 11" fill="none" xmlns="http://www.w3.org/2000/svg">
<path fill-rule="evenodd" clip-rule="evenodd" d="M9.35265 1.59877C8.84768 1.09047 8.24686 0.687434 7.58501 0.413001C6.92316 0.138569 6.21344 -0.00180351 5.49695 1.74928e-05C2.49254 1.74928e-05 0.0467542 2.4452 0.0455398 5.45082C0.0455398 6.41141 0.296312 7.34892 0.772961 8.17592L0 11L2.88965 10.2416C3.68896 10.6767 4.58445 10.9049 5.49452 10.9053H5.49695C8.50075 10.9053 10.9465 8.46009 10.9478 5.45446C10.9498 4.73827 10.8099 4.02876 10.5361 3.36696C10.2623 2.70516 9.86009 2.10418 9.35265 1.59877ZM5.49695 9.98536H5.49513C4.68362 9.98545 3.88705 9.76711 3.189 9.35327L3.02384 9.25491L1.30912 9.70484L1.76633 8.03323L1.65886 7.862C1.20516 7.13969 0.964977 6.3038 0.96605 5.45082C0.967264 2.95281 2.99955 0.920527 5.49877 0.920527C6.09398 0.919205 6.68353 1.03594 7.23332 1.26399C7.78311 1.49203 8.28221 1.82685 8.70173 2.24907C9.1235 2.66928 9.45781 3.16891 9.68532 3.71909C9.91284 4.26928 10.029 4.8591 10.0272 5.45446C10.026 7.95247 7.99374 9.98536 5.49695 9.98536ZM7.9822 6.59174C7.84559 6.52313 7.17645 6.19403 7.05137 6.14849C6.9269 6.10295 6.83642 6.08048 6.74535 6.21649C6.65427 6.35251 6.39317 6.65914 6.31363 6.75022C6.23409 6.8413 6.15454 6.85223 6.01853 6.78422C5.88252 6.71622 5.44352 6.57231 4.92315 6.10841C4.51815 5.74713 4.24491 5.30145 4.16537 5.16483C4.08582 5.02821 4.15687 4.95474 4.22548 4.88673C4.28681 4.82601 4.36149 4.72765 4.4295 4.64811C4.4975 4.56856 4.51997 4.51209 4.56551 4.42102C4.61105 4.32994 4.58858 4.25039 4.55397 4.18239C4.51997 4.11377 4.24734 3.44343 4.13379 3.1708C4.02389 2.90667 3.91156 2.94188 3.82777 2.93824C3.74098 2.93469 3.65413 2.93307 3.56728 2.93338C3.49821 2.93514 3.43026 2.95115 3.36767 2.98041C3.30508 3.00967 3.24921 3.05154 3.20357 3.1034C3.07849 3.24002 2.72692 3.56912 2.72692 4.23946C2.72692 4.90981 3.2151 5.55769 3.28311 5.64877C3.35112 5.73985 4.2437 7.11515 5.60989 7.70534C5.93535 7.8456 6.18915 7.9294 6.38649 7.99254C6.71256 8.09638 7.00948 8.0812 7.24446 8.04659C7.50616 8.00772 8.05021 7.71748 8.16376 7.39931C8.2773 7.08114 8.2773 6.80851 8.2433 6.75144C8.2093 6.69436 8.11761 6.65975 7.9822 6.59174Z" fill="white"/>
</svg>
