<svg width="27" height="30" viewBox="0 0 27 30" fill="none" xmlns="http://www.w3.org/2000/svg">
<path fill-rule="evenodd" clip-rule="evenodd" d="M26.9997 6.37816V25.8337C26.9997 27.3131 26.4504 28.611 25.2652 29.2809C24.0945 29.9509 22.6346 29.7834 21.3049 29.0716L14.3092 25.3312C14.1503 25.2335 13.8756 25.1637 13.5143 25.1637C13.1529 25.1637 12.8639 25.2335 12.6904 25.3312L5.70924 29.0716C4.94319 29.4763 4.14824 29.6996 3.39664 29.6996C2.80403 29.6996 2.25479 29.574 1.73445 29.2809C0.549244 28.5971 0 27.2991 0 25.8337V6.21068C0.0867227 2.79132 3.02084 0 6.60538 0H20.3943C24.0222 0 26.9997 2.87506 26.9997 6.37816Z" fill="#5A5BB5"/>
</svg>
