<svg width="13" height="9" viewBox="0 0 13 9" fill="none" xmlns="http://www.w3.org/2000/svg">
<path d="M12.5937 1.415C12.5205 1.14357 12.3775 0.896023 12.179 0.697013C11.9804 0.498003 11.7332 0.354467 11.4619 0.280692C10.4561 0.00450088 6.43204 4.87927e-06 6.43204 4.87927e-06C6.43204 4.87927e-06 2.40864 -0.00449138 1.40215 0.259496C1.13105 0.336666 0.88434 0.482232 0.685703 0.682219C0.487067 0.882205 0.343175 1.1299 0.267842 1.40151C0.00257028 2.40736 9.41069e-07 4.49357 9.41069e-07 4.49357C9.41069e-07 4.49357 -0.00256827 6.59005 0.260777 7.58562C0.408507 8.13608 0.842062 8.57092 1.39316 8.71929C2.40929 8.99548 6.4224 8.99998 6.4224 8.99998C6.4224 8.99998 10.4464 9.00447 11.4523 8.74113C11.7237 8.66748 11.9711 8.52428 12.1702 8.32567C12.3692 8.12707 12.513 7.87995 12.5872 7.60875C12.8532 6.60354 12.8551 4.51798 12.8551 4.51798C12.8551 4.51798 12.8679 2.42085 12.5937 1.415ZM5.14486 6.42626L5.14807 2.57244L8.49255 4.50256L5.14486 6.42626Z" fill="white"/>
</svg>
