<svg width="183" height="180" viewBox="0 0 183 180" fill="none" xmlns="http://www.w3.org/2000/svg">
<path d="M183.001 121.112H112.797V80.4023H183.001V121.112ZM113.225 120.683H182.572V80.8316H113.225V120.683Z" fill="#E0E0E0"/>
<path d="M168.518 102.109H122.199V103.47H168.518V102.109Z" fill="#F0F0F0"/>
<path d="M171.709 107.183H122.199V108.668H171.709V107.183Z" fill="#F0F0F0"/>
<path d="M171.709 112.316H122.199V113.802H171.709V112.316Z" fill="#F0F0F0"/>
<path d="M138.387 94.7393H122.199V98.272H138.387V94.7393Z" fill="#F0F0F0"/>
<path d="M182.786 80.6167H113.023V87.0983H182.786V80.6167Z" fill="#E0E0E0"/>
<path d="M177.416 86.1282C177.326 86.0424 178.226 84.9564 179.421 83.703C180.616 82.4496 181.666 81.501 181.751 81.5825C181.837 81.6641 180.942 82.7544 179.747 84.0121C178.552 85.2697 177.502 86.2141 177.416 86.1282Z" fill="white"/>
<path d="M181.763 86.1283C181.677 86.2141 180.632 85.2698 179.433 84.0121C178.233 82.7544 177.338 81.6684 177.428 81.5826C177.518 81.4967 178.559 82.4411 179.758 83.703C180.958 84.965 181.844 86.0424 181.763 86.1283Z" fill="white"/>
<path d="M96.6104 0H26.8477V40.2847H96.6104V0Z" fill="#E6E6E6"/>
<path d="M82.3498 21.4966H36.0312V22.8573H82.3498V21.4966Z" fill="#F0F0F0"/>
<path d="M85.5411 26.5703H36.0312V28.0555H85.5411V26.5703Z" fill="#F0F0F0"/>
<path d="M85.5411 31.7041H36.0312V33.1893H85.5411V31.7041Z" fill="#F0F0F0"/>
<path d="M52.219 14.1265H36.0312V17.6592H52.219V14.1265Z" fill="#F0F0F0"/>
<path d="M96.6104 0H26.8477V6.48161H96.6104V0Z" fill="#E0E0E0"/>
<path d="M91.0101 5.48139C90.9202 5.39983 91.8197 4.30955 93.0148 3.05615C94.21 1.80275 95.2594 0.854118 95.3451 0.939967C95.4308 1.02582 94.5355 2.11181 93.3404 3.36521C92.1453 4.6186 91.0958 5.55865 91.0101 5.48139Z" fill="white"/>
<path d="M95.3451 5.48141C95.2595 5.56726 94.2143 4.62292 93.0149 3.36523C91.8155 2.10754 90.9202 1.02584 91.0101 0.939989C91.1001 0.85414 92.141 1.79848 93.3404 3.05617C94.5398 4.31386 95.4351 5.39985 95.3451 5.48141Z" fill="white"/>
<path d="M70.1911 74.8351H0V34.1211H70.1911V74.8351ZM0.42836 74.4058H69.7627V34.5503H0.42836V74.4058Z" fill="#E0E0E0"/>
<path d="M55.7131 55.832H9.39453V57.1927H55.7131V55.832Z" fill="#F0F0F0"/>
<path d="M58.9044 60.9058H9.39453V62.3909H58.9044V60.9058Z" fill="#F0F0F0"/>
<path d="M58.9044 66.0396H9.39453V67.5247H58.9044V66.0396Z" fill="#F0F0F0"/>
<path d="M25.5823 48.4619H9.39453V51.9946H25.5823V48.4619Z" fill="#F0F0F0"/>
<path d="M69.9775 34.3354H0.214844V40.8171H69.9775V34.3354Z" fill="#E0E0E0"/>
<path d="M151.198 84.1621H68.8242V158.061H151.198V84.1621Z" fill="#E6E6E6"/>
<path d="M72.9657 60.8843H8.4375V128.066H72.9657V60.8843Z" fill="#F0F0F0"/>
<path d="M72.9657 60.8843H8.4375V68.2029H72.9657V60.8843Z" fill="#E0E0E0"/>
<path d="M13.7684 64.4683C13.7567 64.7337 13.6674 64.9898 13.5117 65.2048C13.356 65.4198 13.1407 65.5843 12.8926 65.6778C12.6444 65.7713 12.3744 65.7897 12.1159 65.7308C11.8574 65.6719 11.6218 65.5382 11.4385 65.3463C11.2551 65.1544 11.132 64.9128 11.0845 64.6515C11.0369 64.3901 11.067 64.1205 11.171 63.8762C11.2749 63.6318 11.4482 63.4234 11.6694 63.2768C11.8905 63.1303 12.1497 63.052 12.4148 63.0518C12.7814 63.0608 13.1296 63.2148 13.3832 63.4802C13.6368 63.7456 13.7753 64.1009 13.7684 64.4683Z" fill="white"/>
<path d="M19.2615 64.4683C19.2506 64.7349 19.1617 64.9925 19.0058 65.2089C18.8499 65.4253 18.634 65.5909 18.3848 65.6853C18.1357 65.7797 17.8644 65.7985 17.6047 65.7395C17.3449 65.6805 17.1082 65.5463 16.924 65.3536C16.7398 65.1608 16.6163 64.918 16.5687 64.6554C16.5211 64.3928 16.5517 64.122 16.6566 63.8767C16.7614 63.6314 16.936 63.4224 17.1585 63.2757C17.381 63.129 17.6416 63.0511 17.9079 63.0518C18.2745 63.0608 18.6227 63.2148 18.8763 63.4802C19.1299 63.7456 19.2684 64.1009 19.2615 64.4683Z" fill="white"/>
<path d="M24.7576 64.4683C24.7467 64.7349 24.6578 64.9925 24.5019 65.2089C24.346 65.4253 24.1301 65.5909 23.8809 65.6853C23.6318 65.7797 23.3605 65.7985 23.1008 65.7395C22.841 65.6805 22.6043 65.5463 22.4201 65.3536C22.2359 65.1608 22.1123 64.918 22.0648 64.6554C22.0172 64.3928 22.0478 64.122 22.1527 63.8767C22.2575 63.6314 22.4321 63.4224 22.6546 63.2757C22.8771 63.129 23.1377 63.0511 23.404 63.0518C23.7706 63.0608 24.1188 63.2148 24.3724 63.4802C24.626 63.7456 24.7645 64.1009 24.7576 64.4683Z" fill="white"/>
<path d="M173.784 14.6929H91.4102V96.9621H173.784V14.6929Z" fill="#F0F0F0"/>
<path d="M173.784 14.6929H91.4102V24.3294H173.784V14.6929Z" fill="#E0E0E0"/>
<path d="M98.4302 19.4151C98.4151 19.7654 98.2977 20.1036 98.0924 20.3876C97.8872 20.6716 97.6032 20.889 97.2758 21.0127C96.9484 21.1364 96.5919 21.161 96.2506 21.0834C95.9093 21.0059 95.5983 20.8296 95.3562 20.5765C95.114 20.3233 94.9514 20.0045 94.8885 19.6596C94.8256 19.3146 94.8652 18.9588 95.0023 18.6362C95.1395 18.3136 95.3682 18.0384 95.6601 17.845C95.9519 17.6515 96.294 17.5482 96.644 17.5479C97.1276 17.5591 97.5871 17.7619 97.9219 18.1119C98.2566 18.4618 98.4394 18.9304 98.4302 19.4151Z" fill="white"/>
<path d="M105.139 18.1532C105.377 18.4116 105.533 18.7343 105.589 19.0812C105.645 19.428 105.597 19.7836 105.453 20.1036C105.308 20.4237 105.073 20.6941 104.776 20.881C104.479 21.068 104.134 21.1633 103.784 21.1551C103.433 21.1469 103.093 21.0356 102.805 20.8349C102.517 20.6343 102.295 20.3532 102.165 20.0268C102.036 19.7003 102.005 19.3429 102.077 18.999C102.149 18.6552 102.32 18.3401 102.569 18.0931C102.918 17.7602 103.385 17.5796 103.867 17.5908C104.348 17.6021 104.806 17.8043 105.139 18.1532Z" fill="white"/>
<path d="M112.899 19.4151C112.884 19.7654 112.766 20.1036 112.561 20.3876C112.356 20.6716 112.072 20.889 111.745 21.0127C111.417 21.1364 111.061 21.161 110.719 21.0834C110.378 21.0059 110.067 20.8296 109.825 20.5765C109.583 20.3233 109.42 20.0045 109.357 19.6596C109.294 19.3146 109.334 18.9588 109.471 18.6362C109.608 18.3136 109.837 18.0384 110.129 17.845C110.421 17.6515 110.763 17.5482 111.113 17.5479C111.596 17.5591 112.056 17.7619 112.391 18.1119C112.725 18.4618 112.908 18.9304 112.899 19.4151Z" fill="white"/>
<path d="M155.989 179.889C155.989 179.949 126.244 180.001 89.5636 180.001C52.8832 180.001 23.125 179.949 23.125 179.889C23.125 179.828 52.866 179.777 89.5636 179.777C126.261 179.777 155.989 179.833 155.989 179.889Z" fill="#263238"/>
<path d="M127.009 127.34C120.391 122.709 118.892 114.111 119.153 106.38C119.196 105.092 119.054 103.727 119.667 102.598C120.279 101.469 121.71 100.693 122.862 101.233C123.818 101.684 124.233 102.8 124.769 103.723C125.483 104.952 126.53 105.954 127.789 106.612C128.607 107.041 129.622 107.299 130.432 106.852C131.545 106.238 131.674 104.706 131.665 103.418C131.665 101.023 131.651 98.6307 131.622 96.2412C131.545 94.9582 131.676 93.671 132.008 92.4295C132.406 91.2105 133.293 90.0816 134.505 89.7382C135.718 89.3948 137.23 90.103 137.504 91.3564C137.551 91.8873 137.564 92.4207 137.542 92.9532C137.577 93.4898 137.825 94.0778 138.326 94.2409C138.827 94.4041 139.35 94.0306 139.736 93.6529C141.055 92.3651 141.954 90.6868 142.79 89.0299C143.625 87.373 144.443 85.6689 145.643 84.2567C146.842 82.8445 148.5 81.7241 150.355 81.6168C152.209 81.5095 154.141 82.6513 154.604 84.4541C155.067 86.257 154.017 88.0984 152.89 89.5622C151.19 91.7349 149.187 93.6504 146.941 95.2497C146.502 95.4895 146.152 95.8642 145.942 96.3185C145.664 97.177 146.474 98.0355 147.318 98.3059C148.273 98.6236 149.309 98.5248 150.316 98.645C151.323 98.7652 152.394 99.203 152.775 100.147C153.297 101.461 152.201 102.834 151.126 103.736C148.967 105.539 146.515 106.957 143.878 107.93C142.935 108.273 141.946 108.578 141.183 109.239C140.421 109.9 139.967 111.055 140.425 111.96C140.884 112.866 142.062 113.154 143.051 112.969C144.041 112.784 144.919 112.252 145.861 111.896C147.622 111.231 149.892 111.351 151.001 112.875C151.345 113.399 151.563 113.997 151.637 114.62C151.711 115.244 151.64 115.876 151.43 116.467C151.001 117.644 150.341 118.723 149.489 119.639C146.684 122.998 143.038 125.551 138.926 127.035C134.844 128.452 131.061 128.838 127.005 127.349" fill="#5A5BB5"/>
<path d="M152.72 82.6768C152.72 82.6768 152.682 82.7197 152.596 82.7969L152.215 83.136C151.881 83.4365 151.388 83.8744 150.767 84.4538C149.006 86.0923 147.371 87.8615 145.875 89.7464C144.92 90.9354 143.93 92.2833 142.877 93.747C141.823 95.2107 140.735 96.7904 139.655 98.4687C138.504 100.239 137.451 102.07 136.498 103.954C136.001 104.937 135.564 105.963 135.115 107.011L133.787 110.209C132.036 114.237 130.512 118.36 129.22 122.558C128.18 125.993 127.463 129.518 127.079 133.087C126.83 135.496 126.789 137.922 126.959 140.337C127.027 141.196 127.092 141.853 127.151 142.299C127.177 142.514 127.194 142.685 127.211 142.81V142.986C127.193 142.93 127.18 142.872 127.173 142.814C127.151 142.69 127.126 142.522 127.091 142.308C127.014 141.878 126.933 141.2 126.856 140.342C126.649 137.922 126.664 135.488 126.899 133.07C127.259 129.486 127.961 125.944 128.993 122.494C130.274 118.283 131.794 114.15 133.547 110.114L134.909 106.929C135.359 105.886 135.8 104.852 136.301 103.864C137.26 101.974 138.323 100.138 139.484 98.3657C140.581 96.6487 141.686 95.0948 142.727 93.644C143.768 92.1931 144.774 90.8367 145.725 89.652C147.236 87.7721 148.893 86.0153 150.681 84.398C151.315 83.8271 151.821 83.3979 152.163 83.1103L152.562 82.7884C152.611 82.7458 152.664 82.7084 152.72 82.6768Z" fill="#010211"/>
<path d="M136.356 103.856C136.295 103.679 136.254 103.497 136.232 103.311C136.163 102.955 136.086 102.453 135.996 101.8C135.812 100.512 135.623 98.7481 135.422 96.7951C135.221 94.842 134.994 93.0735 134.805 91.7987C134.707 91.1634 134.621 90.6526 134.561 90.2963C134.514 90.1139 134.49 89.9266 134.488 89.7383C134.562 89.9102 134.615 90.0904 134.647 90.2748C134.741 90.6268 134.848 91.1333 134.968 91.7729C135.212 93.0606 135.452 94.812 135.653 96.7693C135.855 98.7267 136.026 100.444 136.159 101.779C136.223 102.38 136.279 102.89 136.322 103.298C136.355 103.482 136.366 103.669 136.356 103.856Z" fill="#010211"/>
<path d="M152.841 100.774C152.633 100.82 152.421 100.846 152.207 100.851C151.779 100.89 151.171 100.942 150.417 101.027C148.909 101.191 146.836 101.491 144.561 101.92C142.286 102.35 140.243 102.835 138.774 103.208C138.041 103.397 137.45 103.569 137.061 103.684C136.852 103.759 136.637 103.81 136.418 103.839C136.616 103.739 136.822 103.657 137.035 103.594C137.437 103.453 138.02 103.255 138.748 103.045C140.209 102.616 142.252 102.105 144.535 101.667C146.469 101.296 148.421 101.024 150.382 100.851C151.141 100.787 151.753 100.761 152.182 100.753C152.402 100.738 152.623 100.745 152.841 100.774Z" fill="#010211"/>
<path d="M129.203 122.194C129.157 122.132 129.12 122.064 129.091 121.992L128.809 121.395C128.565 120.876 128.235 120.108 127.841 119.167C127.044 117.279 126.029 114.635 124.949 111.699C123.87 108.763 122.876 106.118 122.122 104.208C121.754 103.281 121.45 102.521 121.222 101.955L120.983 101.341C120.949 101.27 120.926 101.195 120.914 101.118C120.96 101.18 120.997 101.248 121.025 101.319L121.308 101.916C121.548 102.435 121.882 103.204 122.276 104.144C123.073 106.033 124.088 108.677 125.168 111.613C126.247 114.549 127.241 117.193 127.995 119.103C128.363 120.03 128.667 120.79 128.89 121.357C128.989 121.601 129.07 121.786 129.134 121.97C129.168 122.041 129.191 122.116 129.203 122.194Z" fill="#010211"/>
<path d="M151.084 115.124C151.016 115.163 150.942 115.193 150.866 115.214L150.232 115.428L147.889 116.188C145.91 116.832 143.177 117.751 140.178 118.764C137.18 119.777 134.434 120.678 132.442 121.279C131.448 121.584 130.639 121.815 130.077 121.97L129.431 122.137C129.355 122.161 129.278 122.177 129.199 122.185C129.268 122.145 129.341 122.115 129.418 122.094L130.052 121.88L132.395 121.12C134.374 120.476 137.107 119.558 140.105 118.545C143.104 117.532 145.845 116.63 147.837 116.029C148.835 115.724 149.641 115.493 150.206 115.338L150.853 115.171C150.928 115.147 151.006 115.131 151.084 115.124Z" fill="#010211"/>
<path d="M142.156 11.0016L139.95 11.7914L139.004 8.9026C137.264 3.57566 131.721 0.74693 126.628 2.54547C121.535 4.34401 118.823 10.186 120.563 15.513L121.509 18.4018L119.295 19.1959C118.45 19.5241 117.764 20.1658 117.38 20.9876C116.995 21.8094 116.942 22.7481 117.23 23.6086L123.368 42.4052C123.496 42.8312 123.707 43.2271 123.991 43.5695C124.274 43.9119 124.623 44.1938 125.017 44.3984C125.411 44.603 125.842 44.7262 126.284 44.7606C126.726 44.795 127.171 44.74 127.592 44.5987L150.454 36.4044C151.309 36.0767 152.005 35.4293 152.394 34.5984C152.783 33.7674 152.835 32.8176 152.54 31.9488L146.397 13.1521C146.266 12.7274 146.052 12.3334 145.766 11.9936C145.479 11.6538 145.128 11.3753 144.732 11.1746C144.337 10.9739 143.904 10.8551 143.462 10.8254C143.019 10.7957 142.575 10.8556 142.156 11.0016ZM124.731 14.0063C124.262 12.6213 124.346 11.1081 124.965 9.78378C125.585 8.45951 126.692 7.42691 128.055 6.90232C128.727 6.67165 129.44 6.57916 130.149 6.63034C130.858 6.68153 131.55 6.87535 132.183 7.20024C132.816 7.52514 133.377 7.97444 133.832 8.52136C134.288 9.06827 134.629 9.70158 134.836 10.3835L135.778 13.2723L125.673 16.8952L124.731 14.0063ZM137.581 30.6868L139.149 35.4858C139.178 35.582 139.169 35.6857 139.123 35.7752C139.078 35.8647 139 35.9333 138.905 35.9666L136.708 36.7521C136.62 36.7764 136.527 36.7658 136.447 36.7226C136.367 36.6794 136.307 36.6069 136.279 36.5203L134.699 31.7428C133.827 31.6952 132.991 31.3819 132.302 30.8449C131.613 30.3079 131.104 29.5728 130.843 28.7381C130.471 27.6344 130.539 26.4292 131.033 25.3746C131.527 24.3201 132.409 23.498 133.495 23.0806C134.031 22.8971 134.598 22.8236 135.163 22.8645C135.728 22.9054 136.279 23.0598 136.783 23.3186C137.287 23.5773 137.734 23.9351 138.097 24.3706C138.46 24.8062 138.732 25.3105 138.896 25.8535C139.172 26.7015 139.195 27.6117 138.962 28.4724C138.729 29.3332 138.251 30.1072 137.586 30.6997L137.581 30.6868Z" fill="#5A5BB5"/>
<path d="M139.851 11.7398C139.851 11.7999 135.76 13.3409 130.671 15.1738C125.582 17.0067 121.432 18.479 121.41 18.436C121.389 18.3931 125.501 16.8392 130.594 15.0021C135.687 13.1649 139.83 11.684 139.851 11.7398Z" fill="#010211"/>
<path d="M144.711 12.5298C144.73 12.567 144.746 12.6058 144.758 12.6457C144.792 12.7315 144.831 12.8431 144.882 12.9805C144.994 13.2938 145.148 13.7274 145.341 14.2682L146.986 19.0672C147.671 21.1018 148.489 23.5142 149.397 26.1927C149.826 27.5362 150.331 28.9356 150.802 30.4079C151.054 31.1666 151.163 31.9657 151.123 32.7644C151.087 33.1798 150.969 33.5839 150.777 33.9535C150.571 34.3218 150.296 34.6468 149.967 34.9107C149.305 35.3948 148.571 35.77 147.791 36.0224L145.585 36.8165L141.408 38.3146L134.336 40.8386L129.56 42.5212L128.275 42.9504L127.932 43.062C127.895 43.0784 127.856 43.0885 127.816 43.0921C127.816 43.0921 127.851 43.0921 127.923 43.0406L128.258 42.9075L129.543 42.4225L134.293 40.6711L141.353 38.0957L145.521 36.5847L147.727 35.7863C148.484 35.5442 149.197 35.1803 149.838 34.7089C150.144 34.4641 150.4 34.1624 150.592 33.8204C150.774 33.4786 150.883 33.1031 150.914 32.7172C150.953 31.9477 150.848 31.1775 150.605 30.4465C150.143 28.9871 149.654 27.5749 149.213 26.2313C148.322 23.5485 147.5 21.1276 146.848 19.093C146.197 17.0583 145.649 15.4229 145.272 14.2725C145.092 13.7102 144.955 13.2724 144.844 12.9547L144.741 12.6113C144.728 12.5853 144.718 12.558 144.711 12.5298Z" fill="#010211"/>
<path d="M132.648 6.61083C132.648 6.61083 132.421 6.49923 132.001 6.32753C131.403 6.09714 130.77 5.96944 130.129 5.94979C129.179 5.91716 128.234 6.09602 127.362 6.47347C126.301 6.94349 125.394 7.70372 124.745 8.66692C124.091 9.62737 123.74 10.7624 123.738 11.9249C123.747 12.8777 123.891 13.8244 124.166 14.7365C124.389 15.5177 124.62 16.1401 124.775 16.5736C124.865 16.7938 124.94 17.0205 124.997 17.2518C124.876 17.046 124.774 16.8289 124.693 16.6037C124.517 16.1744 124.265 15.5649 124.016 14.7794C123.711 13.8577 123.545 12.8957 123.524 11.9249C123.512 10.7185 123.871 9.53767 124.552 8.54244C125.224 7.54406 126.168 6.76032 127.272 6.28461C128.171 5.90508 129.146 5.73766 130.12 5.79527C130.775 5.8287 131.418 5.98143 132.018 6.24597C132.178 6.32013 132.333 6.40622 132.481 6.50352C132.542 6.53035 132.598 6.56655 132.648 6.61083Z" fill="#010211"/>
<path d="M132.844 23.4068C132.913 23.3653 132.984 23.3294 133.059 23.2995C133.273 23.2026 133.495 23.1236 133.723 23.0634C134.084 22.9567 134.456 22.8933 134.832 22.8746C135.343 22.847 135.855 22.9244 136.336 23.1021C137.432 23.4884 138.439 24.6087 138.936 26.1068C139.174 26.9107 139.174 27.7667 138.936 28.5707C138.671 29.4432 138.198 30.2376 137.556 30.8843L137.582 30.7684C138.152 32.3352 138.773 34.035 139.415 35.8078L139.454 35.9151L139.347 35.9537L138.366 36.2799L136.224 36.9968L136.117 37.0311L136.083 36.9238C135.496 35.1467 134.853 33.4898 134.369 31.863L134.464 31.936C133.626 31.8663 132.828 31.5513 132.168 31.0302C131.57 30.5693 131.081 29.9833 130.733 29.3133C130.419 28.719 130.262 28.0539 130.279 27.3817C130.298 26.6946 130.47 26.0205 130.78 25.4075C131.09 24.7946 131.532 24.2579 132.073 23.8361C132.296 23.6548 132.546 23.5099 132.814 23.4068C132.572 23.5507 132.338 23.7069 132.112 23.8747C131.517 24.379 131.061 25.0278 130.788 25.7591C130.554 26.3105 130.444 26.9071 130.467 27.506C130.49 28.1049 130.645 28.6913 130.921 29.2231C131.263 29.8678 131.741 30.4302 132.322 30.8714C132.952 31.3667 133.713 31.6652 134.511 31.7299H134.584L134.605 31.7943C135.076 33.3911 135.723 35.0609 136.318 36.8465L136.177 36.7779L138.319 36.061L139.295 35.7305L139.227 35.8764C138.589 34.1036 137.972 32.3995 137.406 30.8328V30.7684L137.458 30.7169C138.081 30.097 138.545 29.3357 138.811 28.4977C139.039 27.7287 139.039 26.9102 138.811 26.1411C138.345 24.6989 137.381 23.6043 136.336 23.218C135.873 23.0392 135.379 22.956 134.883 22.9733C134.513 22.9818 134.145 23.0322 133.787 23.1235C133.149 23.2824 132.849 23.4283 132.844 23.4068Z" fill="#010211"/>
<path d="M119.602 147.347L76.8131 147.15C74.3421 147.136 71.9775 146.14 70.2387 144.381C68.4998 142.622 67.5289 140.243 67.5391 137.767L67.9932 30.279C67.9983 29.0523 68.2445 27.8385 68.7179 26.7072C69.1914 25.5759 69.8827 24.5491 70.7523 23.6857C71.6219 22.8222 72.6529 22.1389 73.7862 21.675C74.9195 21.211 76.1329 20.9754 77.3572 20.9816L120.142 21.179C122.613 21.1915 124.978 22.1863 126.717 23.9448C128.457 25.7034 129.429 28.0819 129.42 30.558L128.966 138.041C128.961 139.268 128.715 140.483 128.241 141.614C127.768 142.746 127.077 143.773 126.207 144.638C125.338 145.502 124.307 146.186 123.174 146.651C122.04 147.116 120.827 147.352 119.602 147.347Z" fill="#455A64"/>
<path d="M120.077 24.8746H111.784C111.513 24.8796 111.246 24.938 110.998 25.0464C110.75 25.1549 110.526 25.3112 110.338 25.5065C110.15 25.7018 110.002 25.9323 109.904 26.1848C109.805 26.4372 109.757 26.7067 109.762 26.9779V28.4845C109.767 28.7555 109.718 29.0248 109.62 29.277C109.521 29.5292 109.373 29.7594 109.185 29.9544C108.997 30.1493 108.773 30.3053 108.525 30.4132C108.277 30.5212 108.01 30.5791 107.74 30.5835L91.5735 30.5106C91.0266 30.496 90.5078 30.2644 90.1311 29.8669C89.7545 29.4693 89.5507 28.9381 89.5645 28.3901V26.8834C89.5783 26.3361 89.3751 25.8056 88.9993 25.4082C88.6235 25.0107 88.1059 24.7787 87.5597 24.763H84.6426L77.3819 24.7286C75.6549 24.7183 73.9942 25.3942 72.7635 26.6082C71.5327 27.8222 70.8321 29.4755 70.8151 31.206L70.3868 136.122C70.3828 136.981 70.5477 137.832 70.8719 138.626C71.1961 139.421 71.6734 140.144 72.2764 140.754C72.8794 141.364 73.5964 141.848 74.3864 142.181C75.1764 142.513 76.024 142.686 76.8807 142.69L119.58 142.887C120.437 142.891 121.287 142.726 122.08 142.401C122.874 142.076 123.596 141.597 124.205 140.992C124.814 140.388 125.298 139.669 125.629 138.877C125.961 138.084 126.134 137.235 126.138 136.375L126.566 31.4592C126.576 29.7238 125.899 28.0554 124.682 26.8206C123.465 25.5859 121.808 24.8859 120.077 24.8746Z" fill="white"/>
<path d="M114.333 128.89L82.5834 128.752C82.2535 128.752 81.988 128.392 81.9922 127.954L82.0265 119.631C82.0265 119.202 82.2964 118.833 82.6262 118.833L114.376 118.978C114.559 119.01 114.723 119.111 114.833 119.261C114.943 119.41 114.991 119.597 114.967 119.781L114.937 128.096C114.937 128.538 114.663 128.894 114.333 128.89Z" fill="#5A5BB5"/>
<path d="M88.9157 55.7161L77.8984 55.666L77.8893 57.692L88.9066 57.7421L88.9157 55.7161Z" fill="#5A5BB5"/>
<path opacity="0.1" d="M88.9157 55.7161L77.8984 55.666L77.8893 57.692L88.9066 57.7421L88.9157 55.7161Z" fill="black"/>
<path d="M121.213 68.1557C121.3 68.1469 121.385 68.1267 121.466 68.0956C121.585 68.0491 121.688 67.9701 121.763 67.8676C121.839 67.7651 121.885 67.6433 121.894 67.5161C121.894 66.8336 121.894 65.8377 121.894 64.5586C121.894 63.919 121.894 63.2022 121.894 62.4123C121.894 62.2192 121.894 62.0174 121.894 61.8157C121.922 61.6199 121.88 61.4206 121.774 61.2534C121.715 61.1732 121.639 61.1078 121.55 61.0624C121.462 61.017 121.364 60.9927 121.265 60.9915H120.596H114.407L78.5786 60.8585C78.4869 60.8569 78.3961 60.8776 78.3141 60.9187C78.2321 60.9598 78.1612 61.0201 78.1074 61.0946C78.0039 61.2625 77.9644 61.4621 77.996 61.6569C77.996 62.0861 77.996 62.5154 77.996 62.9446C77.996 63.8031 77.996 64.6616 77.996 65.5201C77.996 65.9493 77.996 66.3786 77.996 66.8078C77.9782 67.0077 77.9782 67.2088 77.996 67.4088C78.0185 67.4945 78.0603 67.5739 78.1183 67.6408C78.1762 67.7078 78.2487 67.7606 78.3301 67.7951C78.4145 67.8288 78.5049 67.8448 78.5957 67.8423H80.7761L90.2899 67.8938L106.396 67.9925L117.255 68.0784L120.207 68.1127H120.973C121.149 68.1127 121.235 68.1127 121.235 68.1127H120.973H120.207H117.255H106.396L90.2899 68.0612L80.7761 68.0226H78.5957C78.4757 68.0275 78.356 68.007 78.2445 67.9625C78.1317 67.9143 78.0314 67.8408 77.9512 67.7479C77.871 67.6549 77.8131 67.5448 77.7818 67.4259C77.757 67.3133 77.7484 67.1977 77.7561 67.0825V66.7649C77.7561 66.3357 77.7561 65.9064 77.7561 65.4772C77.7561 64.6187 77.7561 63.7602 77.7561 62.9017C77.7561 62.4724 77.7561 62.0432 77.7561 61.6139C77.748 61.4996 77.748 61.3849 77.7561 61.2705C77.7722 61.1443 77.8209 61.0244 77.8975 60.9229C77.9714 60.8192 78.0692 60.7351 78.1826 60.6775C78.2959 60.62 78.4215 60.5908 78.5486 60.5923L114.377 60.7898L120.566 60.8327H121.235C121.352 60.8328 121.468 60.8613 121.573 60.9159C121.677 60.9704 121.767 61.0494 121.834 61.1461C121.955 61.3327 122.004 61.557 121.971 61.7771C121.971 61.9788 121.971 62.1806 121.971 62.3737C121.971 63.1549 121.971 63.8718 121.971 64.5199C121.971 65.8077 121.941 66.7949 121.933 67.4817C121.922 67.6138 121.875 67.7401 121.795 67.8458C121.715 67.9515 121.607 68.0322 121.483 68.0784C121.402 68.1287 121.309 68.1555 121.213 68.1557Z" fill="#E0E0E0"/>
<path d="M101.357 63.0127H81.207V64.9057H101.357V63.0127Z" fill="#5A5BB5"/>
<path opacity="0.2" d="M101.357 63.0127H81.207V64.9057H101.357V63.0127Z" fill="white"/>
<path d="M88.8415 74.1985L77.8242 74.1484L77.815 76.1745L88.8324 76.2246L88.8415 74.1985Z" fill="#5A5BB5"/>
<path opacity="0.1" d="M88.8415 74.1985L77.8242 74.1484L77.815 76.1745L88.8324 76.2246L88.8415 74.1985Z" fill="black"/>
<path d="M120.936 86.6387C121.023 86.628 121.109 86.6122 121.193 86.5914C121.313 86.5533 121.423 86.4899 121.516 86.4054C121.609 86.321 121.683 86.2176 121.733 86.1021C121.801 85.9288 121.827 85.7422 121.81 85.557C121.81 85.3509 121.81 85.1277 121.81 84.8787C121.81 84.3808 121.81 83.8142 121.81 83.1618V80.4361C121.831 80.2387 121.787 80.04 121.686 79.8694C121.58 79.6945 121.414 79.5646 121.219 79.5046C121.006 79.4664 120.788 79.4549 120.572 79.4702H114.408L78.7043 79.3372C78.5123 79.3376 78.3269 79.408 78.1827 79.5351C78.0385 79.6622 77.9453 79.8375 77.9204 80.0283C77.9204 80.4361 77.9204 80.8868 77.9204 81.316C77.9204 82.1745 77.9204 83.033 77.9204 83.8915C77.9204 84.3207 77.9204 84.75 77.9204 85.1792C77.9044 85.3798 77.9131 85.5816 77.9461 85.7802C77.9996 85.9542 78.1097 86.1053 78.2588 86.2094C78.417 86.31 78.6029 86.3581 78.79 86.3468H79.3854H80.6234L90.103 86.394L106.154 86.4927L116.974 86.5786L119.917 86.6129H116.974H106.154L90.0944 86.5957L80.6148 86.5614H78.7514C78.5197 86.5752 78.2898 86.5134 78.096 86.3854C77.9011 86.2501 77.7589 86.0514 77.6934 85.8231C77.655 85.605 77.6435 85.383 77.6591 85.162C77.6591 84.7328 77.6591 84.3036 77.6591 83.8743C77.6591 83.0158 77.6591 82.1573 77.6591 81.2988C77.6591 80.8696 77.6591 80.4403 77.6591 80.0111C77.6904 79.7656 77.8098 79.54 77.9951 79.3765C78.1804 79.2129 78.4188 79.1227 78.6658 79.1226L114.37 79.32L120.534 79.3672C120.763 79.3531 120.994 79.369 121.219 79.4144C121.442 79.4873 121.629 79.6402 121.746 79.8437C121.857 80.0328 121.905 80.2522 121.883 80.4704C121.883 80.6721 121.883 80.8696 121.883 81.067C121.883 81.844 121.883 82.5565 121.883 83.2133C121.883 83.87 121.883 84.4237 121.883 84.9303C121.883 85.1749 121.883 85.4024 121.883 85.6128C121.899 85.8047 121.868 85.9976 121.793 86.1751C121.737 86.2935 121.657 86.3985 121.557 86.483C121.457 86.5674 121.341 86.6293 121.215 86.6644C121.121 86.6722 121.027 86.6634 120.936 86.6387Z" fill="#E0E0E0"/>
<path d="M88.7556 93.4842L77.7383 93.4341L77.7291 95.4601L88.7464 95.5102L88.7556 93.4842Z" fill="#5A5BB5"/>
<path opacity="0.1" d="M88.7556 93.4842L77.7383 93.4341L77.7291 95.4601L88.7464 95.5102L88.7556 93.4842Z" fill="black"/>
<path d="M120.847 105.916C120.934 105.906 121.019 105.89 121.104 105.869C121.223 105.831 121.333 105.768 121.426 105.685C121.519 105.601 121.593 105.498 121.644 105.384C121.711 105.211 121.737 105.024 121.721 104.839C121.721 104.628 121.721 104.409 121.721 104.156C121.721 103.663 121.721 103.092 121.721 102.439V99.7135C121.741 99.5162 121.698 99.3175 121.597 99.1469C121.488 98.9752 121.323 98.8474 121.13 98.7864C120.917 98.7467 120.699 98.7337 120.483 98.7477H114.319L78.615 98.6147C78.4229 98.6151 78.2376 98.6854 78.0934 98.8126C77.9492 98.9397 77.856 99.1149 77.8311 99.3057C77.8311 99.735 77.8311 100.164 77.8311 100.593C77.8311 101.452 77.8311 102.31 77.8311 103.169C77.8311 103.598 77.8311 104.027 77.8311 104.457C77.8151 104.656 77.8238 104.856 77.8568 105.053C77.9081 105.228 78.0186 105.38 78.1695 105.483C78.3267 105.585 78.5133 105.634 78.7006 105.62H80.564L90.0436 105.671L106.094 105.77L116.915 105.856L119.857 105.89H116.915H106.094L90.0436 105.843L80.564 105.805H78.7006C78.4688 105.82 78.2382 105.758 78.0453 105.629C77.8503 105.493 77.7081 105.295 77.6426 105.066C77.6042 104.848 77.5927 104.626 77.6083 104.405C77.6083 103.976 77.6083 103.547 77.6083 103.117C77.6083 102.259 77.6083 101.4 77.6083 100.542C77.6083 100.113 77.6083 99.6835 77.6083 99.2328C77.6386 98.9877 77.7572 98.7621 77.9418 98.5985C78.1264 98.4349 78.3642 98.3445 78.6107 98.3442L114.314 98.5417L120.479 98.5889C120.708 98.5748 120.939 98.5907 121.164 98.6361C121.387 98.709 121.574 98.8619 121.691 99.0654C121.802 99.2544 121.85 99.4739 121.828 99.6921C121.828 99.8938 121.828 100.096 121.828 100.289C121.828 101.066 121.828 101.778 121.828 102.435C121.828 103.092 121.828 103.645 121.828 104.152C121.828 104.397 121.828 104.624 121.828 104.834C121.844 105.026 121.813 105.22 121.738 105.397C121.682 105.515 121.602 105.62 121.502 105.705C121.402 105.789 121.286 105.851 121.16 105.886C121.059 105.921 120.952 105.931 120.847 105.916Z" fill="#E0E0E0"/>
<path d="M100.927 82.0316L80.7773 81.9399L80.7688 83.8329L100.919 83.9245L100.927 82.0316Z" fill="#5A5BB5"/>
<path opacity="0.2" d="M100.927 82.0316L80.7773 81.9399L80.7688 83.8329L100.919 83.9245L100.927 82.0316Z" fill="white"/>
<path d="M82.5984 102.414C82.5858 102.586 82.5228 102.752 82.4174 102.889C82.312 103.026 82.1687 103.129 82.0053 103.185C81.8419 103.242 81.6656 103.249 81.4983 103.205C81.331 103.162 81.18 103.071 81.0641 102.942C80.9482 102.814 80.8724 102.654 80.8462 102.483C80.8199 102.312 80.8444 102.137 80.9166 101.98C80.9887 101.822 81.1054 101.69 81.2521 101.598C81.3987 101.507 81.569 101.461 81.7417 101.465C81.9803 101.478 82.2041 101.586 82.3645 101.763C82.5249 101.941 82.6089 102.175 82.5984 102.414Z" fill="#5A5BB5"/>
<path d="M85.3291 102.426C85.3375 102.547 85.321 102.669 85.2806 102.783C85.2402 102.897 85.1767 103.002 85.0941 103.091C85.0116 103.18 84.9117 103.25 84.8007 103.299C84.6896 103.347 84.5699 103.372 84.4488 103.372C84.3278 103.372 84.208 103.347 84.097 103.299C83.986 103.25 83.8861 103.18 83.8035 103.091C83.7209 103.002 83.6575 102.897 83.617 102.783C83.5766 102.669 83.5601 102.547 83.5685 102.426C83.5601 102.305 83.5766 102.184 83.617 102.069C83.6575 101.955 83.7209 101.85 83.8035 101.762C83.8861 101.673 83.986 101.602 84.097 101.554C84.208 101.505 84.3278 101.48 84.4488 101.48C84.5699 101.48 84.6896 101.505 84.8007 101.554C84.9117 101.602 85.0116 101.673 85.0941 101.762C85.1767 101.85 85.2402 101.955 85.2806 102.069C85.321 102.184 85.3375 102.305 85.3291 102.426Z" fill="#5A5BB5"/>
<path d="M88.0633 102.439C88.0506 102.612 87.9877 102.777 87.8822 102.914C87.7768 103.051 87.6335 103.154 87.4701 103.211C87.3067 103.267 87.1305 103.274 86.9631 103.231C86.7958 103.188 86.6449 103.096 86.5289 102.968C86.413 102.839 86.3372 102.68 86.311 102.509C86.2848 102.338 86.3093 102.162 86.3814 102.005C86.4536 101.848 86.5702 101.715 86.7169 101.624C86.8636 101.532 87.0338 101.486 87.2065 101.491C87.4448 101.505 87.6679 101.612 87.8281 101.79C87.9882 101.967 88.0727 102.2 88.0633 102.439Z" fill="#5A5BB5"/>
<path d="M90.7898 102.452C90.7772 102.625 90.7142 102.79 90.6088 102.927C90.5034 103.064 90.3601 103.168 90.1967 103.224C90.0333 103.28 89.857 103.287 89.6897 103.244C89.5224 103.201 89.3714 103.109 89.2555 102.981C89.1396 102.853 89.0638 102.693 89.0376 102.522C89.0113 102.351 89.0358 102.176 89.108 102.018C89.1801 101.861 89.2968 101.728 89.4435 101.637C89.5901 101.545 89.7604 101.499 89.9331 101.504C90.1714 101.518 90.3945 101.626 90.5546 101.803C90.7148 101.98 90.7992 102.213 90.7898 102.452Z" fill="#5A5BB5"/>
<path d="M93.5206 102.461C93.5088 102.634 93.4465 102.799 93.3415 102.937C93.2365 103.075 93.0935 103.179 92.9301 103.236C92.7667 103.292 92.5903 103.3 92.4227 103.257C92.255 103.215 92.1036 103.123 91.9873 102.995C91.8709 102.867 91.7948 102.707 91.7683 102.536C91.7417 102.365 91.766 102.189 91.8381 102.032C91.9102 101.874 92.0269 101.741 92.1737 101.65C92.3205 101.558 92.491 101.512 92.6639 101.516C92.9014 101.531 93.1238 101.638 93.2839 101.814C93.4439 101.99 93.5288 102.223 93.5206 102.461Z" fill="#5A5BB5"/>
<path d="M96.2511 102.474C96.2394 102.646 96.1778 102.811 96.0738 102.948C95.9698 103.085 95.828 103.189 95.6659 103.247C95.5037 103.305 95.3283 103.313 95.1611 103.272C94.994 103.232 94.8424 103.143 94.7251 103.016C94.6078 102.89 94.5299 102.732 94.5009 102.563C94.4719 102.393 94.4931 102.218 94.562 102.06C94.6308 101.902 94.7443 101.767 94.8884 101.673C95.0324 101.579 95.2009 101.529 95.3729 101.529C95.6142 101.538 95.8421 101.643 96.0067 101.82C96.1713 101.997 96.2592 102.232 96.2511 102.474Z" fill="#5A5BB5"/>
<path d="M98.9814 102.487C98.9899 102.608 98.9734 102.729 98.9329 102.844C98.8925 102.958 98.8291 103.063 98.7465 103.151C98.6639 103.24 98.564 103.311 98.453 103.359C98.342 103.408 98.2222 103.433 98.1012 103.433C97.9801 103.433 97.8603 103.408 97.7493 103.359C97.6383 103.311 97.5384 103.24 97.4558 103.151C97.3733 103.063 97.3098 102.958 97.2694 102.844C97.229 102.729 97.2125 102.608 97.2209 102.487C97.2125 102.366 97.229 102.244 97.2694 102.13C97.3098 102.016 97.3733 101.911 97.4558 101.822C97.5384 101.733 97.6383 101.663 97.7493 101.614C97.8603 101.566 97.9801 101.541 98.1012 101.541C98.2222 101.541 98.342 101.566 98.453 101.614C98.564 101.663 98.6639 101.733 98.7465 101.822C98.8291 101.911 98.8925 102.016 98.9329 102.13C98.9734 102.244 98.9899 102.366 98.9814 102.487Z" fill="#5A5BB5"/>
<path d="M101.708 102.5C101.696 102.672 101.635 102.836 101.531 102.974C101.427 103.111 101.285 103.215 101.123 103.273C100.961 103.33 100.785 103.339 100.618 103.298C100.451 103.257 100.299 103.168 100.182 103.042C100.065 102.916 99.9869 102.758 99.9579 102.588C99.9289 102.418 99.9502 102.244 100.019 102.086C100.088 101.928 100.201 101.793 100.345 101.699C100.489 101.605 100.658 101.555 100.83 101.555C101.071 101.564 101.299 101.669 101.464 101.846C101.628 102.023 101.716 102.258 101.708 102.5Z" fill="#5A5BB5"/>
<path d="M104.439 102.513C104.427 102.685 104.364 102.851 104.259 102.989C104.155 103.127 104.011 103.23 103.848 103.287C103.685 103.344 103.508 103.352 103.341 103.309C103.173 103.266 103.022 103.175 102.905 103.047C102.789 102.919 102.713 102.759 102.686 102.588C102.66 102.416 102.684 102.241 102.756 102.084C102.828 101.926 102.945 101.793 103.092 101.702C103.238 101.61 103.409 101.564 103.582 101.568C103.819 101.583 104.042 101.689 104.202 101.866C104.362 102.042 104.447 102.274 104.439 102.513Z" fill="#5A5BB5"/>
<g opacity="0.2">
<path d="M82.5984 102.414C82.5858 102.586 82.5228 102.752 82.4174 102.889C82.312 103.026 82.1687 103.129 82.0053 103.185C81.8419 103.242 81.6656 103.249 81.4983 103.205C81.331 103.162 81.18 103.071 81.0641 102.942C80.9482 102.814 80.8724 102.654 80.8462 102.483C80.8199 102.312 80.8444 102.137 80.9166 101.98C80.9887 101.822 81.1054 101.69 81.2521 101.598C81.3987 101.507 81.569 101.461 81.7417 101.465C81.9803 101.478 82.2041 101.586 82.3645 101.763C82.5249 101.941 82.6089 102.175 82.5984 102.414Z" fill="white"/>
<path d="M85.3291 102.427C85.3375 102.548 85.321 102.669 85.2806 102.784C85.2402 102.898 85.1767 103.003 85.0941 103.091C85.0116 103.18 84.9117 103.251 84.8007 103.299C84.6896 103.348 84.5699 103.373 84.4488 103.373C84.3278 103.373 84.208 103.348 84.097 103.299C83.986 103.251 83.8861 103.18 83.8035 103.091C83.7209 103.003 83.6575 102.898 83.617 102.784C83.5766 102.669 83.5601 102.548 83.5685 102.427C83.5601 102.306 83.5766 102.184 83.617 102.07C83.6575 101.956 83.7209 101.851 83.8035 101.762C83.8861 101.673 83.986 101.603 84.097 101.554C84.208 101.506 84.3278 101.481 84.4488 101.481C84.5699 101.481 84.6896 101.506 84.8007 101.554C84.9117 101.603 85.0116 101.673 85.0941 101.762C85.1767 101.851 85.2402 101.956 85.2806 102.07C85.321 102.184 85.3375 102.306 85.3291 102.427Z" fill="white"/>
<path d="M88.0594 102.44C88.0467 102.612 87.9838 102.777 87.8783 102.915C87.7729 103.052 87.6296 103.155 87.4662 103.211C87.3028 103.267 87.1266 103.274 86.9592 103.231C86.7919 103.188 86.6409 103.097 86.525 102.968C86.4091 102.84 86.3333 102.68 86.3071 102.509C86.2809 102.338 86.3054 102.163 86.3775 102.006C86.4497 101.848 86.5663 101.716 86.713 101.624C86.8597 101.533 87.0299 101.486 87.2026 101.491C87.4409 101.505 87.664 101.613 87.8242 101.79C87.9843 101.968 88.0687 102.201 88.0594 102.44Z" fill="white"/>
<path d="M90.7898 102.452C90.7772 102.625 90.7142 102.79 90.6088 102.927C90.5034 103.064 90.3601 103.168 90.1967 103.224C90.0333 103.28 89.857 103.287 89.6897 103.244C89.5224 103.201 89.3714 103.109 89.2555 102.981C89.1396 102.853 89.0638 102.693 89.0376 102.522C89.0113 102.351 89.0358 102.176 89.108 102.018C89.1801 101.861 89.2968 101.728 89.4435 101.637C89.5901 101.545 89.7604 101.499 89.9331 101.504C90.1714 101.518 90.3945 101.626 90.5546 101.803C90.7148 101.98 90.7992 102.213 90.7898 102.452Z" fill="white"/>
<path d="M93.5167 102.461C93.5049 102.634 93.4426 102.8 93.3376 102.938C93.2326 103.075 93.0896 103.179 92.9262 103.236C92.7628 103.293 92.5864 103.301 92.4188 103.258C92.2511 103.215 92.0997 103.124 91.9834 102.996C91.867 102.867 91.7909 102.708 91.7643 102.536C91.7378 102.365 91.7621 102.19 91.8342 102.032C91.9063 101.875 92.023 101.742 92.1698 101.65C92.3166 101.559 92.4871 101.512 92.66 101.517C92.8974 101.531 93.1199 101.638 93.28 101.815C93.44 101.991 93.5249 102.223 93.5167 102.461Z" fill="white"/>
<path d="M96.2511 102.474C96.2394 102.646 96.1778 102.811 96.0738 102.948C95.9698 103.086 95.828 103.19 95.6659 103.247C95.5037 103.305 95.3283 103.314 95.1611 103.273C94.994 103.232 94.8424 103.143 94.7251 103.017C94.6078 102.891 94.5299 102.733 94.5009 102.563C94.4719 102.393 94.4931 102.218 94.562 102.06C94.6308 101.902 94.7443 101.768 94.8884 101.674C95.0324 101.579 95.2009 101.529 95.3729 101.53C95.6142 101.539 95.8421 101.643 96.0067 101.82C96.1713 101.997 96.2592 102.232 96.2511 102.474Z" fill="white"/>
<path d="M98.9775 102.487C98.986 102.608 98.9695 102.729 98.929 102.844C98.8886 102.958 98.8252 103.063 98.7426 103.151C98.66 103.24 98.5601 103.311 98.4491 103.359C98.3381 103.408 98.2183 103.433 98.0973 103.433C97.9762 103.433 97.8564 103.408 97.7454 103.359C97.6344 103.311 97.5345 103.24 97.4519 103.151C97.3694 103.063 97.3059 102.958 97.2655 102.844C97.2251 102.729 97.2086 102.608 97.217 102.487C97.2086 102.366 97.2251 102.244 97.2655 102.13C97.3059 102.016 97.3694 101.911 97.4519 101.822C97.5345 101.733 97.6344 101.663 97.7454 101.614C97.8564 101.566 97.9762 101.541 98.0973 101.541C98.2183 101.541 98.3381 101.566 98.4491 101.614C98.5601 101.663 98.66 101.733 98.7426 101.822C98.8252 101.911 98.8886 102.016 98.929 102.13C98.9695 102.244 98.986 102.366 98.9775 102.487Z" fill="white"/>
<path d="M101.708 102.5C101.696 102.672 101.635 102.837 101.531 102.974C101.427 103.112 101.285 103.216 101.123 103.273C100.961 103.331 100.785 103.34 100.618 103.299C100.451 103.258 100.299 103.169 100.182 103.043C100.065 102.917 99.9869 102.759 99.9579 102.589C99.9289 102.419 99.9502 102.244 100.019 102.086C100.088 101.928 100.201 101.794 100.345 101.699C100.489 101.605 100.658 101.555 100.83 101.556C101.071 101.565 101.299 101.669 101.464 101.846C101.628 102.023 101.716 102.258 101.708 102.5Z" fill="white"/>
<path d="M104.435 102.513C104.423 102.685 104.361 102.851 104.256 102.989C104.151 103.127 104.008 103.23 103.844 103.287C103.681 103.344 103.504 103.352 103.337 103.309C103.169 103.266 103.018 103.175 102.901 103.047C102.785 102.919 102.709 102.759 102.682 102.588C102.656 102.416 102.68 102.241 102.752 102.084C102.824 101.926 102.941 101.793 103.088 101.702C103.235 101.61 103.405 101.564 103.578 101.568C103.815 101.583 104.038 101.689 104.198 101.866C104.358 102.042 104.443 102.274 104.435 102.513Z" fill="white"/>
</g>
<path d="M100.56 40.5462C100.858 40.4148 101.11 40.1987 101.286 39.9247C101.462 39.6507 101.554 39.331 101.55 39.0052C101.561 38.7934 101.529 38.5815 101.455 38.3826C101.382 38.1836 101.269 38.0016 101.124 37.8478C100.978 37.694 100.802 37.5715 100.608 37.4877C100.414 37.404 100.204 37.3608 99.9924 37.3608C99.7808 37.3608 99.5714 37.404 99.3769 37.4877C99.1825 37.5715 99.0071 37.694 98.8614 37.8478C98.7157 38.0016 98.6028 38.1836 98.5296 38.3826C98.4563 38.5815 98.4243 38.7934 98.4354 39.0052C98.4288 39.3342 98.5197 39.6578 98.6966 39.9352C98.8735 40.2125 99.1284 40.4311 99.4292 40.5633C97.0303 40.9239 97.1374 43.5337 97.1374 43.5337L102.809 43.5595C102.809 43.5595 102.942 40.9024 100.56 40.5462Z" fill="#5A5BB5"/>
<path opacity="0.1" d="M100.56 40.5462C100.858 40.4148 101.11 40.1987 101.286 39.9247C101.462 39.6507 101.554 39.331 101.55 39.0052C101.561 38.7934 101.529 38.5815 101.455 38.3826C101.382 38.1836 101.269 38.0016 101.124 37.8478C100.978 37.694 100.802 37.5715 100.608 37.4877C100.414 37.404 100.204 37.3608 99.9924 37.3608C99.7808 37.3608 99.5714 37.404 99.3769 37.4877C99.1825 37.5715 99.0071 37.694 98.8614 37.8478C98.7157 38.0016 98.6028 38.1836 98.5296 38.3826C98.4563 38.5815 98.4243 38.7934 98.4354 39.0052C98.4288 39.3342 98.5197 39.6578 98.6966 39.9352C98.8735 40.2125 99.1284 40.4311 99.4292 40.5633C97.0303 40.9239 97.1374 43.5337 97.1374 43.5337L102.809 43.5595C102.809 43.5595 102.942 40.9024 100.56 40.5462Z" fill="black"/>
<path d="M109.777 45.2428L89.5625 45.1509L89.5515 47.5718L109.766 47.6637L109.777 45.2428Z" fill="#5A5BB5"/>
<path opacity="0.2" d="M109.777 45.2428L89.5625 45.1509L89.5515 47.5718L109.766 47.6637L109.777 45.2428Z" fill="white"/>
<path d="M35.4649 57.7891H35.2636L34.681 57.832C34.3658 57.851 34.0522 57.8926 33.7429 57.9565C33.5426 57.9847 33.3438 58.0234 33.1475 58.0724L32.4835 58.257C31.3534 58.6044 30.2872 59.1335 29.3265 59.8237C28.0572 60.7469 26.9974 61.9289 26.2166 63.292C25.7577 64.0778 25.3926 64.9148 25.1286 65.7859C24.8512 66.7327 24.6915 67.7102 24.6531 68.6962C24.6276 69.2142 24.6362 69.7333 24.6788 70.2501C24.6788 70.5119 24.7516 70.7738 24.7859 71.0399C24.8147 71.3082 24.8649 71.5737 24.9358 71.834C25.321 73.5565 26.1026 75.1649 27.2182 76.531C28.3338 77.897 29.7525 78.983 31.3612 79.7021C32.5256 80.2055 33.7735 80.4865 35.0408 80.5305C36.3498 80.6027 37.6601 80.4145 38.8961 79.9768L39.273 79.8352H39.3244L39.3673 79.8609L44.7689 82.6081L44.6104 82.7455C44.0321 80.9512 43.4753 79.2128 42.9355 77.543V77.4786L42.9826 77.4314C44.293 76.1089 45.2657 74.4892 45.8184 72.7097C46.3189 71.0828 46.465 69.3672 46.2467 67.6789C46.0526 66.1785 45.5712 64.7297 44.8289 63.4122C44.189 62.2804 43.3636 61.2647 42.3872 60.4075C41.5817 59.729 40.6901 59.1604 39.7357 58.7163C39.0135 58.4042 38.2614 58.1668 37.4911 58.008L36.6343 57.8664L36.0132 57.8191L35.6363 57.7934H35.5078C35.5505 57.7886 35.5936 57.7886 35.6363 57.7934H36.0175L36.6386 57.8191L37.4953 57.9436C38.2753 58.0908 39.0376 58.3196 39.7699 58.6261C40.7408 59.0649 41.6484 59.6323 42.4686 60.3131C43.4629 61.1664 44.3059 62.1824 44.9617 63.3178C45.725 64.6495 46.2212 66.1178 46.4224 67.6403C46.6588 69.3547 46.5229 71.1 46.024 72.7569C45.4677 74.5734 44.48 76.2275 43.1454 77.5773L43.1711 77.4657C43.7109 79.1355 44.272 80.8739 44.8546 82.6639L44.936 82.9257L44.6918 82.8013L39.2902 80.0584H39.3844L38.9989 80.2C37.7391 80.6443 36.4046 80.8368 35.0708 80.7666C33.7762 80.7172 32.5021 80.4261 31.3141 79.9081C29.048 78.9356 27.1625 77.2453 25.9468 75.0963C25.3873 74.1038 24.9787 73.0332 24.7345 71.9199C24.6676 71.6529 24.6176 71.3819 24.5846 71.1086C24.5503 70.8382 24.4946 70.572 24.4818 70.3059C24.3658 68.7786 24.5269 67.2429 24.9573 65.7731C25.2278 64.8899 25.6031 64.0426 26.0753 63.2491C26.8746 61.8736 27.9566 60.6841 29.2494 59.7593C30.2259 59.0674 31.3101 58.5423 32.4578 58.2055L33.1304 58.0338C33.3283 57.9878 33.5285 57.9519 33.7301 57.9265C34.0426 57.8685 34.3591 57.834 34.6767 57.8234L35.2636 57.802C35.3303 57.793 35.3976 57.7887 35.4649 57.7891Z" fill="#5A5BB5"/>
<path d="M37.9046 67.7994H37.1121L35.3987 65.387V63.8031C35.3987 63.8031 34.1736 63.7258 34.3192 65.7991C34.4649 67.8724 34.3192 67.3444 34.3192 67.3444C34.3192 67.3444 31.7191 67.3444 31.5049 67.5805C31.2907 67.8166 31.2779 70.3319 31.2479 71.7356C31.2315 72.0739 31.3284 72.4081 31.5232 72.685C31.718 72.9618 31.9995 73.1655 32.3231 73.2637C32.4138 73.2889 32.5074 73.3019 32.6015 73.3023C33.2526 73.3023 36.5638 72.7743 36.5638 72.7743H37.9303L37.9046 67.7994Z" fill="#5A5BB5"/>
<path d="M40.174 67.374L39.6857 72.7997H38.332V67.4856L40.174 67.374Z" fill="#5A5BB5"/>
<path d="M56.3178 177.832V174.162L49.751 174.115L49.6953 179.665L50.1023 179.695C51.9142 179.811 59.3206 179.983 60.5371 179.605C61.8907 179.184 56.3178 177.832 56.3178 177.832Z" fill="#5A5BB5"/>
<path d="M60.6933 179.262C60.6933 179.322 58.2345 179.374 55.206 179.374C52.1775 179.374 49.7188 179.322 49.7188 179.262C49.7188 179.202 52.1775 179.15 55.206 179.15C58.2345 179.15 60.6933 179.202 60.6933 179.262Z" fill="#263238"/>
<path d="M56.4316 178.583C56.3759 178.553 56.4316 178.36 56.5644 178.154C56.6972 177.948 56.8771 177.862 56.9199 177.905C56.9628 177.948 56.8728 178.111 56.7443 178.287C56.6158 178.463 56.4873 178.613 56.4316 178.583Z" fill="#263238"/>
<path d="M56.8539 178.824C56.7939 178.824 56.8239 178.583 56.9524 178.356C57.0809 178.128 57.2523 177.991 57.2994 178.025C57.3465 178.06 57.2694 178.253 57.1495 178.455C57.0295 178.656 56.9096 178.845 56.8539 178.824Z" fill="#263238"/>
<path d="M51.695 179.244C51.6693 179.244 51.5708 179.167 51.4295 179.004C51.2569 178.794 51.0647 178.601 50.8554 178.429C50.6497 178.264 50.4046 178.156 50.1444 178.115C49.943 178.089 49.8145 178.115 49.8017 178.089C49.7888 178.064 49.9131 177.974 50.1487 177.956C50.4596 177.95 50.7629 178.053 51.0054 178.248C51.2326 178.434 51.4242 178.659 51.5708 178.914C51.6693 179.102 51.7207 179.227 51.695 179.244Z" fill="#263238"/>
<path d="M56.4547 177.892C56.4847 177.944 56.3733 178.073 56.1848 178.142C55.9963 178.211 55.8293 178.185 55.8207 178.142C55.8121 178.099 55.9449 178.008 56.1077 177.948C56.2705 177.888 56.4204 177.841 56.4547 177.892Z" fill="#263238"/>
<path d="M56.3508 177.536C56.3508 177.601 56.1794 177.652 55.9567 177.656C55.7339 177.661 55.5583 177.609 55.5626 177.549C55.5669 177.489 55.7425 177.433 55.9567 177.428C56.1708 177.424 56.3422 177.476 56.3508 177.536Z" fill="#263238"/>
<path d="M72.4896 177.832V174.162L65.9229 174.115L65.8672 179.609L66.2741 179.639C68.0861 179.755 75.4967 179.983 76.709 179.605C78.0626 179.184 72.4896 177.832 72.4896 177.832Z" fill="#5A5BB5"/>
<path d="M76.8609 179.271C76.8609 179.331 74.4064 179.382 71.3736 179.382C68.3408 179.382 65.8906 179.331 65.8906 179.271C65.8906 179.21 68.3451 179.159 71.3736 179.159C74.4021 179.159 76.8609 179.21 76.8609 179.271Z" fill="#263238"/>
<path d="M72.6056 178.583C72.5542 178.553 72.6056 178.36 72.7384 178.154C72.8711 177.948 73.0511 177.862 73.0939 177.905C73.1367 177.948 73.0468 178.111 72.9183 178.287C72.7898 178.463 72.6612 178.613 72.6056 178.583Z" fill="#263238"/>
<path d="M73.0237 178.824C72.968 178.824 72.9937 178.583 73.1265 178.356C73.2593 178.128 73.4264 177.991 73.4735 178.025C73.5206 178.06 73.4392 178.253 73.3193 178.455C73.1993 178.656 73.0837 178.845 73.0237 178.824Z" fill="#263238"/>
<path d="M67.8669 179.244C67.8412 179.244 67.747 179.167 67.6013 179.004C67.4288 178.794 67.2366 178.601 67.0273 178.429C66.8216 178.264 66.5765 178.156 66.3163 178.115C66.1192 178.089 65.9864 178.115 65.9736 178.089C65.9607 178.064 66.0849 177.974 66.3205 177.956C66.6315 177.95 66.9348 178.053 67.1773 178.248C67.4056 178.433 67.5974 178.658 67.7427 178.914C67.8412 179.102 67.8926 179.227 67.8669 179.244Z" fill="#263238"/>
<path d="M72.6266 177.892C72.6565 177.944 72.5452 178.073 72.3567 178.142C72.1682 178.211 72.0011 178.185 71.9926 178.142C71.984 178.099 72.1168 178.008 72.2796 177.948C72.4424 177.888 72.5923 177.841 72.6266 177.892Z" fill="#263238"/>
<path d="M72.5301 177.536C72.5301 177.601 72.3587 177.652 72.136 177.656C71.9132 177.661 71.7419 177.609 71.7462 177.549C71.7505 177.489 71.9218 177.433 72.136 177.428C72.3502 177.424 72.5301 177.476 72.5301 177.536Z" fill="#263238"/>
<path d="M96.6822 68.8463C96.5108 68.6703 96.0867 68.7561 96.0867 68.7561C96.1292 68.509 96.1292 68.2564 96.0867 68.0093C96.0096 67.7689 95.4699 67.8161 95.4699 67.8161C95.445 67.6137 95.445 67.409 95.4699 67.2066C95.4742 67.1617 95.4646 67.1166 95.4423 67.0774C95.4201 67.0382 95.3863 67.0069 95.3457 66.9877C95.0903 66.8833 94.816 66.8336 94.5404 66.8417C94.2105 66.6056 95.547 64.7298 96.0439 64.1289C96.5408 63.5279 96.4508 63.0601 96.0096 63.0601C95.7055 63.0601 94.1463 64.8629 93.6665 65.4681C93.1867 66.0734 91.9145 67.756 91.8717 66.4125C91.8288 65.0689 91.2891 64.0559 90.9507 63.8842C90.6123 63.7125 90.2525 64.116 90.4367 64.4894C90.5985 64.9137 90.6994 65.3588 90.7365 65.8115C90.783 66.1721 90.7671 66.5381 90.6894 66.8932C90.5474 67.5541 90.354 68.2028 90.1111 68.8334H90.0768C90.0768 68.8334 80.73 77.8175 80.0532 78.4571C79.4492 79.0323 67.3009 77.7746 64.8636 77.5171C64.0353 77.3956 63.199 77.3382 62.3619 77.3454C61.3039 77.3926 61.1154 77.5428 60.0616 77.5557C57.4004 77.5853 54.7454 77.8192 52.1199 78.2554C50.931 78.4579 49.8205 78.9837 48.9095 79.7755C47.9985 80.5673 47.322 81.5946 46.9538 82.7453C44.4993 90.4288 38.9392 108.616 37.9583 118.832C37.217 120.179 36.5478 121.565 35.9535 122.983C35.2639 124.863 35.4309 124.927 35.6623 124.97C36.2877 125.086 36.9987 121.712 37.2643 122.528C37.5299 123.343 35.915 126.55 36.5704 126.644C37.4271 126.764 38.1082 123.21 38.1896 122.927C38.271 122.644 38.6951 122.734 38.6179 123C38.4937 123.378 37.29 127.383 38.1296 127.511C38.5922 127.58 38.6436 126.734 38.6436 126.734C38.6436 126.734 39.5004 122.901 39.8902 122.978C40.28 123.056 39.8645 125.318 39.6674 126.073C39.4704 126.829 39.7445 127.211 40.1472 127.026C40.4213 126.898 41.0767 124.601 41.2566 123.854C41.4366 123.107 41.8863 121.038 42.4903 122.236C43.0943 123.434 44.011 124.129 44.388 124.146C44.4729 124.136 44.553 124.101 44.6179 124.045C44.6827 123.99 44.7295 123.916 44.7521 123.833C44.7746 123.75 44.772 123.663 44.7445 123.582C44.717 123.501 44.666 123.429 44.5978 123.378C44.2736 123.06 43.9953 122.699 43.7711 122.305C43.5713 121.997 43.4263 121.657 43.3428 121.3C43.1701 120.588 43.0697 119.86 43.0429 119.128L42.9744 118.699C43.9339 113.939 46.6968 99.9666 50.6848 91.0426L52.3212 94.4165L53.0323 96.9147L48.6716 107.702L67.271 107.457L64.4952 96.7516L67.8664 85.5912C71.5117 85.6727 80.8714 85.8101 82.4306 85.1018C84.3925 84.2433 94.5404 71.4003 94.5404 71.4003C95.2018 70.8852 95.8353 70.335 96.438 69.752C96.438 69.752 97.0548 69.2326 96.6822 68.8463Z" fill="#FFBE9D"/>
<path d="M47.8539 99.7309C48.3937 97.8851 51.1652 88.7593 51.1652 88.7593C51.1652 88.7593 52.5273 96.1982 52.1675 97.0953C51.8365 97.8633 51.4455 98.6039 50.9981 99.3102C47.8539 104.105 48.2652 106.504 48.2652 106.504L67.2629 105.925C67.3058 103.264 65.7337 97.0738 65.4081 96.0866C65.0826 95.0993 66.1663 91.8671 66.1663 91.8671C66.1663 91.8671 68.3081 89.6822 68.231 88.5576C68.1903 87.5474 68.0657 86.5423 67.8583 85.5529L79.4241 85.9821L79.06 78.1269L62.4482 76.4614C61.8699 78.0969 56.6396 77.2942 56.6396 77.2942C50.9938 77.483 50.6426 78.5218 48.2951 80.3504C45.9477 82.179 42.0625 97.8722 42.0625 97.8722L47.8539 99.7309Z" fill="#5A5BB5"/>
<path d="M59.0849 97.8724C58.7556 97.9314 58.4203 97.9487 58.0868 97.9239C57.4657 97.9239 56.6132 97.881 55.6751 97.7866C54.737 97.6922 53.8889 97.5591 53.2849 97.4389C52.9518 97.3959 52.6253 97.3123 52.3125 97.1899C52.6474 97.1901 52.9816 97.2217 53.3106 97.2844C53.9189 97.3616 54.7627 97.4689 55.6965 97.5634C56.6304 97.6578 57.4785 97.7222 58.0911 97.7651C58.425 97.7694 58.7577 97.8053 59.0849 97.8724Z" fill="#263238"/>
<path d="M60.3869 96.2539C60.0576 96.4156 59.7093 96.5353 59.3503 96.6102C57.6413 97.0602 55.8781 97.2697 54.1115 97.2326C53.7459 97.2445 53.3803 97.2099 53.0234 97.1296C53.3842 97.0839 53.7479 97.0653 54.1115 97.0738C54.784 97.0523 55.7093 97.0051 56.7287 96.8849C57.7482 96.7647 58.6564 96.593 59.2989 96.4557C59.6558 96.3602 60.0196 96.2927 60.3869 96.2539Z" fill="#263238"/>
<path d="M66.7802 89.0342C66.7716 89.3614 66.727 89.6868 66.6475 90.0043C66.5361 90.6009 66.3647 91.4165 66.1463 92.3093C65.9278 93.2022 65.7179 94.0263 65.5294 94.5843C65.4536 94.9037 65.3415 95.2134 65.1953 95.5072C65.2192 95.181 65.2795 94.8584 65.3752 94.5457C65.538 93.8761 65.7222 93.1034 65.9278 92.2578C66.1334 91.4122 66.3305 90.6396 66.4932 89.9699C66.5512 89.6476 66.6476 89.3335 66.7802 89.0342Z" fill="#263238"/>
<path d="M48.0535 98.6362C47.0625 98.4828 46.0845 98.2547 45.1278 97.9537C44.1503 97.7246 43.191 97.4233 42.2578 97.0522C43.2483 97.2081 44.2262 97.4362 45.1835 97.7347C46.1613 97.963 47.1207 98.2643 48.0535 98.6362Z" fill="#263238"/>
<path d="M68.0628 85.4585C67.9012 85.4864 67.736 85.4864 67.5744 85.4585C67.127 85.4125 66.6876 85.3071 66.2679 85.1451C65.5672 84.8813 64.9293 84.4734 64.3951 83.9478C63.861 83.4222 63.4426 82.7905 63.1666 82.0932C62.8616 81.3261 62.7313 80.5005 62.7854 79.6765C62.8045 78.9969 63.0073 78.3353 63.3722 77.7621C63.6289 77.376 64.0123 77.092 64.456 76.9594C64.5745 76.9266 64.6971 76.9107 64.8201 76.9122C64.9057 76.9122 64.9486 76.9122 64.9486 76.9122C64.9486 76.9122 64.7687 76.9122 64.4817 77.0281C64.0746 77.1788 63.7294 77.4613 63.5007 77.8308C62.9181 78.7494 62.7554 80.4277 63.3765 81.9945C63.6656 82.7332 64.1181 83.3966 64.7001 83.9347C65.177 84.375 65.7262 84.7293 66.3236 84.982C66.8842 85.204 67.4674 85.3638 68.0628 85.4585Z" fill="#263238"/>
<path d="M78.0479 85.8275C77.9407 84.5112 77.9064 83.19 77.9451 81.8699C77.9115 80.5509 77.9515 79.231 78.065 77.9165C78.1722 79.2314 78.2066 80.5512 78.1678 81.8699C78.2038 83.1903 78.1638 84.5117 78.0479 85.8275Z" fill="#263238"/>
<path d="M62.3361 76.9418C62.3832 75.9845 62.4817 74.9028 62.4817 74.9028C62.4817 74.9028 64.8463 74.641 64.9876 72.1943C65.129 69.7476 64.9876 64.103 64.9876 64.103L60.704 61.9053L55.9492 65.6526L56.6817 77.8861L61.0424 78.1651C61.3757 78.1743 61.6991 78.0508 61.9416 77.8214C62.1841 77.5921 62.326 77.2757 62.3361 76.9418Z" fill="#FFBE9D"/>
<path d="M62.7611 70.259C62.7611 70.259 62.7611 70.3063 62.7226 70.3621C62.6907 70.4025 62.6495 70.4346 62.6025 70.4556C62.5555 70.4765 62.5041 70.4857 62.4527 70.4823C62.1786 70.4823 61.913 70.1646 61.8188 69.7955C61.774 69.6165 61.774 69.4293 61.8188 69.2503C61.8275 69.1722 61.8557 69.0975 61.9005 69.0331C61.9454 68.9686 62.0056 68.9164 62.0758 68.8812C62.1334 68.8573 62.1981 68.8573 62.2557 68.8812C62.2984 68.9024 62.333 68.9371 62.3542 68.9799C62.3842 69.0529 62.3542 69.1001 62.3542 69.0958C62.3542 69.0915 62.3542 69.0529 62.3114 69.0099C62.289 68.9792 62.256 68.9578 62.2189 68.9499C62.1817 68.942 62.143 68.9481 62.11 68.967C62.0575 68.9989 62.0138 69.0435 61.9831 69.0968C61.9524 69.1501 61.9357 69.2103 61.9344 69.2718C61.8983 69.4314 61.8983 69.5972 61.9344 69.7568C62.0201 70.0916 62.2514 70.3621 62.457 70.3878C62.4972 70.3933 62.5382 70.3904 62.5772 70.3793C62.6163 70.3682 62.6526 70.3492 62.684 70.3234C62.7354 70.2891 62.7526 70.2548 62.7611 70.259Z" fill="#EB996E"/>
<path d="M66.4581 62.7812C66.1282 61.6566 64.9331 61.0986 63.8451 60.7895C62.1873 60.3173 60.3968 60.1113 58.7776 60.7079C57.1584 61.3046 55.2136 62.352 55.2136 64.1419C54.2584 64.0647 53.71 64.9017 53.3331 65.9405C53.0921 66.5733 52.9477 67.239 52.9047 67.915C52.7848 70.2587 52.1294 73.4952 50.613 75.2122C49.7563 76.1694 48.5697 76.8304 48.0814 78.0237C47.653 79.0582 47.8758 80.2859 47.4774 81.3332C47.1219 82.2561 46.338 82.9128 45.764 83.7155C45.1792 84.6261 44.835 85.6708 44.7638 86.7513C44.6927 87.8318 44.8968 88.9127 45.357 89.8924C45.8206 90.847 46.4732 91.697 47.2752 92.3907C48.0772 93.0844 49.0117 93.6072 50.0219 93.9273C52.0228 94.5373 54.1565 94.5582 56.1688 93.9874C57.6791 93.6255 59.088 92.9255 60.2897 91.9399C61.5192 90.9338 62.3637 89.5325 62.6799 87.9737C62.984 86.2223 62.4957 84.441 62.1316 82.6982C60.9922 77.191 61.3177 76.9034 62.757 71.7911C62.7913 71.7009 62.8084 71.6065 62.8341 71.5164C62.8598 71.4262 62.8727 71.3833 62.8898 71.3146C62.9307 71.1125 62.9522 70.907 62.9541 70.7008C62.7438 70.7791 62.5157 70.7957 62.2964 70.7486C62.0771 70.7014 61.8758 70.5925 61.7161 70.4347C61.5561 70.2664 61.4445 70.0578 61.3932 69.8311C61.3419 69.6043 61.3529 69.3679 61.4248 69.1469C61.5259 68.9052 61.6765 68.6875 61.8669 68.5078C62.0572 68.3281 62.2832 68.1905 62.53 68.1039C63.0055 67.9064 63.5152 67.8034 63.9821 67.5845C64.9716 67.1123 65.657 66.1336 66.1239 65.1077C66.5078 64.3967 66.6263 63.5719 66.4581 62.7812Z" fill="#263238"/>
<path d="M62.9323 70.3745C63.0228 70.5085 63.0976 70.6526 63.1551 70.8038C63.2836 71.0742 63.4549 71.4562 63.6434 71.8983L63.6777 71.9799H63.5877L63.1594 72.0185C62.8638 72.0185 62.6153 72.0743 62.3241 72.07C62.2987 72.0643 62.2752 72.0523 62.2557 72.035C62.2362 72.0177 62.2214 71.9958 62.2127 71.9713C62.1999 71.9323 62.1999 71.8902 62.2127 71.8511C62.2226 71.7933 62.2355 71.736 62.2512 71.6794L62.3283 71.3747C62.3671 71.1713 62.4274 70.9728 62.5083 70.7823C62.5003 70.9895 62.4701 71.1953 62.4183 71.3961L62.3583 71.7009C62.3369 71.8039 62.2984 71.9627 62.3583 71.9498C62.5725 71.9498 62.8766 71.9026 63.1594 71.8855L63.5877 71.8468L63.532 71.9413C63.3478 71.512 63.1936 71.1085 63.1037 70.8295C63.0248 70.687 62.967 70.5337 62.9323 70.3745Z" fill="#5A5BB5"/>
<path d="M48.2646 106.504L67.2623 105.925L75.5297 138.264L74.009 175.36H63.964L65.1934 139.054L57.847 116.54L58.9779 176.798L48.8257 176.948L47.7591 120.309C47.712 118.733 47.198 115.184 47.3907 113.621L48.2646 106.504Z" fill="#263238"/>
<path d="M60.3738 116.999C60.0628 117.019 59.7506 117 59.4442 116.943C58.8702 116.875 58.0863 116.755 57.2253 116.583C56.3643 116.411 55.5933 116.214 55.0364 116.055C54.7387 115.989 54.4508 115.885 54.1797 115.746C54.1797 115.681 55.5761 116.016 57.2896 116.364C59.003 116.712 60.3823 116.935 60.3738 116.999Z" fill="#455A64"/>
<path d="M73.9072 173.325C73.9072 173.385 71.6326 173.437 68.8268 173.437C66.0211 173.437 63.7422 173.385 63.7422 173.325C63.7422 173.265 66.0168 173.213 68.8268 173.213C71.6369 173.213 73.9072 173.261 73.9072 173.325Z" fill="#455A64"/>
<path d="M58.8886 175.231C58.8886 175.296 56.6782 175.343 53.9539 175.343C51.2295 175.343 49.0234 175.296 49.0234 175.231C49.0234 175.167 51.2338 175.12 53.9539 175.12C56.674 175.12 58.8886 175.171 58.8886 175.231Z" fill="#455A64"/>
<path d="M57.5768 175.077C57.5169 175.077 57.2513 161.912 56.9814 145.673C56.7116 129.435 56.5531 116.261 56.6088 116.261C56.6644 116.261 56.9386 129.422 57.2042 145.669C57.4698 161.916 57.6411 175.077 57.5768 175.077Z" fill="#455A64"/>
<path d="M72.5565 173.325C72.5518 173.267 72.5518 173.208 72.5565 173.149V172.634C72.5565 172.17 72.5908 171.505 72.6165 170.659C72.6764 168.943 72.7621 166.449 72.8692 163.392C73.1005 157.246 73.4261 148.772 73.7816 139.419C73.7816 139.329 73.7816 139.243 73.7816 139.166V139.196C71.5327 130.182 69.498 122 68.0202 116.081L66.3067 109.08C66.1097 108.26 65.9598 107.62 65.8527 107.174C65.8013 106.964 65.767 106.801 65.737 106.676C65.7203 106.62 65.7103 106.563 65.707 106.504C65.7293 106.558 65.7465 106.615 65.7584 106.672C65.7927 106.792 65.8355 106.955 65.8955 107.161C66.0112 107.59 66.1782 108.243 66.3924 109.058C66.8208 110.715 67.4248 113.102 68.1787 116.042C69.6694 121.957 71.7255 130.117 74.0044 139.144V139.174C74.0044 139.252 74.0044 139.342 74.0044 139.428C73.6231 148.781 73.2761 157.25 73.0234 163.397C72.8906 166.457 72.7792 168.934 72.7021 170.659C72.6593 171.518 72.625 172.17 72.6036 172.634C72.6036 172.853 72.5779 173.025 72.5736 173.149C72.5743 173.208 72.5685 173.267 72.5565 173.325Z" fill="#455A64"/>
<path d="M69.2808 138.41C68.5593 138.648 67.816 138.813 67.0619 138.904C66.1366 139.063 65.3484 139.174 64.9929 139.191V139.106C65.1086 139.14 65.1685 139.161 65.1685 139.179C65.1685 139.196 65.0957 139.179 64.9758 139.179H64.7188L64.9758 139.101C65.3099 139.003 66.0981 138.839 67.0233 138.672C67.7654 138.511 68.5215 138.423 69.2808 138.41Z" fill="#455A64"/>
<path d="M69.1056 139.642C68.4374 139.673 67.7679 139.643 67.1052 139.552C66.436 139.538 65.7695 139.465 65.1133 139.333C66.452 139.223 67.7996 139.328 69.1056 139.642Z" fill="#455A64"/>
<path opacity="0.2" d="M48.1836 107.187C48.4086 107.476 48.692 107.715 49.0153 107.887C49.3386 108.06 49.6945 108.162 50.0598 108.187C50.8249 108.278 51.5989 108.263 52.3601 108.144C57.2648 107.599 62.4608 107.097 67.2627 105.925C61.0472 106.272 54.4805 106.157 48.265 106.504L48.2007 107.037" fill="#010211"/>
<g opacity="0.2">
<path d="M54.5859 115.965L58.0899 129.589L57.8458 116.54L54.5859 115.965Z" fill="#010211"/>
</g>
</svg>
