<svg width="300" height="195" viewBox="0 0 300 195" fill="none" xmlns="http://www.w3.org/2000/svg">
<g clip-path="url(#clip0_11892_31178)">
<path d="M155.856 0.267578L32.9023 79.0167L49.6537 194.605H242.999L267.101 95.2229L155.856 0.267578Z" fill="#F6F5FA"/>
<path opacity="0.1" d="M155.856 0.267578L32.9023 79.0158L49.6546 194.604H242.999L267.101 95.222L155.856 0.267578Z" fill="#5A5BB5"/>
<path fill-rule="evenodd" clip-rule="evenodd" d="M119.181 83.2823C119.184 82.8511 119.101 82.4237 118.938 82.0244C118.775 81.6251 118.534 81.2618 118.23 80.9552C117.926 80.6486 117.564 80.4047 117.166 80.2375C116.767 80.0702 116.34 79.9829 115.907 79.9805H58.178C57.7437 79.979 57.3133 80.0628 56.9115 80.2271C56.5097 80.3914 56.1443 80.633 55.8361 80.9381C55.528 81.2433 55.2831 81.6059 55.1155 82.0054C54.9479 82.4049 54.8609 82.8334 54.8594 83.2664V119.604C54.862 120.48 55.2126 121.32 55.8346 121.939C56.4566 122.558 57.2993 122.905 58.178 122.906H115.87C116.304 122.907 116.734 122.822 117.135 122.656C117.537 122.491 117.902 122.249 118.209 121.943C118.516 121.637 118.76 121.274 118.927 120.874C119.093 120.475 119.179 120.046 119.18 119.613V83.2823H119.181Z" fill="#010211"/>
<path fill-rule="evenodd" clip-rule="evenodd" d="M111.694 56.4542C111.694 56.094 111.623 55.7374 111.485 55.4047C111.347 55.0719 111.144 54.7695 110.889 54.5148C110.634 54.26 110.331 54.0579 109.997 53.92C109.663 53.7821 109.306 53.7111 108.944 53.7109H65.3843C64.6536 53.7102 63.9526 53.9988 63.4352 54.5132C62.9178 55.0275 62.6264 55.7257 62.625 56.4542V85.4333L84.3223 101.747C85.1393 102.363 86.1354 102.696 87.1595 102.696C88.1836 102.696 89.1798 102.363 89.9967 101.747L111.694 85.4333V56.4542Z" fill="#F2F5F7"/>
<path fill-rule="evenodd" clip-rule="evenodd" d="M112.096 56.4556C112.094 55.6219 111.761 54.8228 111.169 54.2339C110.577 53.6449 109.775 53.3142 108.939 53.3145H65.3832C64.9694 53.3138 64.5595 53.3943 64.1769 53.5516C63.7943 53.7089 63.4465 53.9397 63.1534 54.231C62.8602 54.5223 62.6275 54.8683 62.4685 55.2492C62.3095 55.6302 62.2273 56.0386 62.2266 56.4512V85.4348C62.2257 85.4964 62.2401 85.5574 62.2686 85.6121C62.297 85.6669 62.3385 85.7139 62.3894 85.7489C62.3894 85.7489 77.6178 97.2133 84.0797 102.063C84.9651 102.733 86.0461 103.095 87.1576 103.095C88.2691 103.095 89.35 102.733 90.2355 102.063C96.6956 97.2097 111.933 85.7489 111.933 85.7489C111.984 85.7139 112.025 85.6669 112.054 85.6121C112.082 85.5574 112.096 85.4964 112.096 85.4348V56.4556ZM111.299 56.4556V85.238C109.673 86.4574 95.8363 96.8683 89.7647 101.432C89.0138 101.994 88.1004 102.298 87.1616 102.298C86.2227 102.298 85.3093 101.994 84.5585 101.432L63.0239 85.238V56.4556C63.0256 55.8313 63.275 55.233 63.7178 54.7916C64.1606 54.3501 64.7606 54.1014 65.3868 54.0998H108.943C109.569 54.1021 110.168 54.3513 110.609 54.7928C111.051 55.2343 111.299 55.8322 111.299 56.4556Z" fill="#010211"/>
<path fill-rule="evenodd" clip-rule="evenodd" d="M55.7976 80.8068C55.7976 80.8068 76.3569 96.2674 84.0586 102.049C84.9509 102.721 86.0382 103.084 87.156 103.084C88.2738 103.084 89.3611 102.721 90.2533 102.049C97.9427 96.2674 118.514 80.8068 118.514 80.8068C118.595 80.7412 118.648 80.647 118.662 80.5436C118.676 80.4402 118.649 80.3354 118.588 80.2509C118.524 80.1671 118.43 80.1119 118.325 80.0975C118.22 80.0831 118.114 80.1107 118.03 80.1741C118.03 80.1741 97.471 95.6365 89.779 101.417C89.0231 101.986 88.1018 102.294 87.1547 102.294C86.2076 102.294 85.2862 101.986 84.5303 101.417C76.8383 95.6365 56.2799 80.1741 56.2799 80.1741C56.1954 80.1154 56.0915 80.0914 55.9897 80.1073C55.888 80.1232 55.7963 80.1777 55.7339 80.2594C55.6715 80.341 55.6432 80.4436 55.6549 80.5456C55.6666 80.6477 55.7183 80.7412 55.7976 80.8068Z" fill="#F2F5F7"/>
<path fill-rule="evenodd" clip-rule="evenodd" d="M70.2928 63.9728H87.6866C87.7922 63.9728 87.8935 63.931 87.9682 63.8565C88.0428 63.7821 88.0848 63.6811 88.0848 63.5758C88.0848 63.4705 88.0428 63.3695 87.9682 63.295C87.8935 63.2205 87.7922 63.1787 87.6866 63.1787H70.2928C70.1871 63.1787 70.0859 63.2205 70.0112 63.295C69.9365 63.3695 69.8945 63.4705 69.8945 63.5758C69.8945 63.6811 69.9365 63.7821 70.0112 63.8565C70.0859 63.931 70.1871 63.9728 70.2928 63.9728Z" fill="#5A5BB5"/>
<path fill-rule="evenodd" clip-rule="evenodd" d="M70.2681 70.9437H103.726C103.832 70.9437 103.935 70.9014 104.01 70.8262C104.086 70.751 104.128 70.649 104.128 70.5426C104.128 70.4363 104.086 70.3343 104.01 70.2591C103.935 70.1839 103.832 70.1416 103.726 70.1416H70.2655C70.1588 70.1416 70.0565 70.1839 69.9811 70.2591C69.9057 70.3343 69.8633 70.4363 69.8633 70.5426C69.8633 70.649 69.9057 70.751 69.9811 70.8262C70.0565 70.9014 70.1588 70.9437 70.2655 70.9437" fill="#5A5BB5"/>
<path fill-rule="evenodd" clip-rule="evenodd" d="M70.2693 77.9236H103.727C103.781 77.9261 103.836 77.9177 103.887 77.8986C103.938 77.8796 103.984 77.8505 104.024 77.813C104.063 77.7755 104.094 77.7305 104.116 77.6805C104.137 77.6306 104.148 77.5769 104.148 77.5226C104.148 77.4683 104.137 77.4145 104.116 77.3646C104.094 77.3147 104.063 77.2696 104.024 77.2321C103.984 77.1946 103.938 77.1655 103.887 77.1465C103.836 77.1275 103.781 77.119 103.727 77.1215H70.2666C70.1632 77.1264 70.0656 77.1707 69.9942 77.2454C69.9227 77.3201 69.8828 77.4194 69.8828 77.5226C69.8828 77.6258 69.9227 77.725 69.9942 77.7997C70.0656 77.8744 70.1632 77.9188 70.2666 77.9236" fill="#5A5BB5"/>
<path fill-rule="evenodd" clip-rule="evenodd" d="M70.2716 84.89H103.729C103.836 84.89 103.938 84.8478 104.013 84.7727C104.089 84.6976 104.131 84.5957 104.131 84.4895C104.131 84.3832 104.089 84.2813 104.013 84.2062C103.938 84.1311 103.836 84.0889 103.729 84.0889H70.269C70.1624 84.0889 70.0602 84.1311 69.9849 84.2062C69.9095 84.2813 69.8672 84.3832 69.8672 84.4895C69.8672 84.5957 69.9095 84.6976 69.9849 84.7727C70.0602 84.8478 70.1624 84.89 70.269 84.89" fill="#5A5BB5"/>
<path fill-rule="evenodd" clip-rule="evenodd" d="M113.974 106.643L115.716 109.769C115.741 109.814 115.775 109.855 115.815 109.887C115.856 109.92 115.903 109.944 115.953 109.958C116.003 109.973 116.055 109.978 116.107 109.972C116.159 109.966 116.209 109.951 116.254 109.926C116.3 109.901 116.34 109.867 116.373 109.826C116.406 109.786 116.43 109.739 116.444 109.69C116.459 109.64 116.464 109.587 116.458 109.536C116.452 109.484 116.437 109.434 116.412 109.389L114.671 106.254C114.619 106.163 114.534 106.095 114.433 106.066C114.332 106.037 114.224 106.048 114.131 106.097C114.038 106.149 113.97 106.236 113.941 106.338C113.912 106.441 113.924 106.55 113.975 106.644" fill="#010211"/>
<path fill-rule="evenodd" clip-rule="evenodd" d="M60.6821 51.3822L49.8033 40.5399C49.7664 40.5031 49.7226 40.4739 49.6744 40.454C49.6262 40.4341 49.5745 40.4238 49.5224 40.4238C49.4702 40.4238 49.4185 40.4341 49.3703 40.454C49.3221 40.4739 49.2783 40.5031 49.2414 40.5399C49.2045 40.5767 49.1752 40.6203 49.1552 40.6684C49.1353 40.7165 49.125 40.768 49.125 40.82C49.125 40.872 49.1353 40.9236 49.1552 40.9716C49.1752 41.0197 49.2045 41.0634 49.2414 41.1002L60.1193 51.9425C60.1562 51.9793 60.2 52.0085 60.2482 52.0284C60.2964 52.0483 60.3481 52.0586 60.4002 52.0586C60.4524 52.0586 60.5041 52.0483 60.5523 52.0284C60.6005 52.0085 60.6443 51.9793 60.6812 51.9425C60.7181 51.9057 60.7474 51.8621 60.7673 51.814C60.7873 51.7659 60.7976 51.7144 60.7976 51.6624C60.7976 51.6103 60.7873 51.5588 60.7673 51.5108C60.7474 51.4627 60.719 51.419 60.6821 51.3822Z" fill="#5A5BB5"/>
<path fill-rule="evenodd" clip-rule="evenodd" d="M65.3772 46.5907L63.2268 38.5877C63.1968 38.4894 63.1297 38.4065 63.0396 38.3565C62.9495 38.3066 62.8434 38.2935 62.7439 38.3201C62.6443 38.3467 62.5589 38.4108 62.5059 38.4989C62.4528 38.5871 62.4362 38.6923 62.4595 38.7924L64.61 46.7954C64.6399 46.8937 64.707 46.9767 64.7971 47.0266C64.8872 47.0765 64.9933 47.0896 65.0929 47.063C65.1925 47.0365 65.2778 46.9723 65.3309 46.8842C65.3839 46.7961 65.4005 46.6908 65.3772 46.5907Z" fill="#5A5BB5"/>
<path fill-rule="evenodd" clip-rule="evenodd" d="M55.5153 55.8557L46.8427 53.5386C46.7423 53.5153 46.6367 53.5319 46.5483 53.5848C46.4599 53.6377 46.3956 53.7228 46.369 53.8221C46.3423 53.9214 46.3554 54.0271 46.4055 54.117C46.4556 54.2068 46.5388 54.2737 46.6374 54.3036L55.31 56.6207C55.3603 56.6371 55.4133 56.6434 55.4661 56.6391C55.5188 56.6349 55.5702 56.6201 55.6172 56.5958C55.6641 56.5715 55.7057 56.538 55.7396 56.4974C55.7734 56.4568 55.7987 56.4099 55.8141 56.3594C55.8295 56.3089 55.8346 56.2559 55.8292 56.2034C55.8237 56.1509 55.8078 56.1 55.7823 56.0538C55.7569 56.0075 55.7224 55.9668 55.681 55.9339C55.6395 55.9011 55.5919 55.8769 55.5409 55.8627L55.5153 55.8557Z" fill="#5A5BB5"/>
<path fill-rule="evenodd" clip-rule="evenodd" d="M175.024 73.2797C175.826 73.3821 176.628 73.45 177.423 73.4924C177.474 73.4961 177.525 73.4897 177.574 73.4737C177.622 73.4576 177.667 73.4321 177.706 73.3987C177.745 73.3652 177.777 73.3245 177.8 73.2788C177.823 73.2331 177.837 73.1834 177.84 73.1324V73.1183C177.845 73.0135 177.808 72.9112 177.738 72.8333C177.667 72.7554 177.569 72.7082 177.464 72.7018C176.687 72.6674 175.912 72.5915 175.118 72.4971C175.068 72.4893 175.016 72.4916 174.966 72.5038C174.917 72.516 174.87 72.5378 174.829 72.5681C174.788 72.5984 174.753 72.6364 174.727 72.6801C174.701 72.7238 174.683 72.7723 174.676 72.8227V72.8377C174.664 72.9429 174.695 73.0484 174.761 73.1311C174.828 73.2137 174.924 73.2669 175.03 73.2789M182.247 73.3812C183.058 73.293 183.86 73.1853 184.636 73.0406C184.739 73.0237 184.831 72.9668 184.892 72.8823C184.953 72.7978 184.978 72.6926 184.962 72.5897V72.5818C184.941 72.4793 184.882 72.3887 184.796 72.3285C184.711 72.2684 184.605 72.2435 184.501 72.2589C183.734 72.4036 182.958 72.5141 182.172 72.5906C182.068 72.6018 181.972 72.6535 181.906 72.7346C181.84 72.8158 181.808 72.9197 181.818 73.0238C181.833 73.1265 181.886 73.2199 181.967 73.2853C182.047 73.3507 182.15 73.3834 182.254 73.3768M168.006 71.6077C168.773 71.8794 169.542 72.1177 170.307 72.3303C170.408 72.3549 170.515 72.3394 170.606 72.2871C170.696 72.2348 170.763 72.1498 170.792 72.0497C170.819 71.9493 170.806 71.8421 170.754 71.7516C170.703 71.6611 170.617 71.5947 170.516 71.5671H170.509C169.769 71.3633 169.017 71.1259 168.267 70.8612C168.167 70.828 168.059 70.8352 167.965 70.8813C167.871 70.9274 167.799 71.0086 167.764 71.1074C167.746 71.1551 167.738 71.2058 167.74 71.2566C167.742 71.3075 167.754 71.3575 167.775 71.4038C167.796 71.4501 167.826 71.4918 167.863 71.5265C167.901 71.5611 167.945 71.5881 167.993 71.6059H168.002M189.303 71.8106C190.07 71.5459 190.821 71.2494 191.555 70.9344C191.604 70.9132 191.647 70.8828 191.683 70.8448C191.72 70.8068 191.748 70.7621 191.767 70.7131C191.786 70.6642 191.795 70.612 191.794 70.5595C191.793 70.507 191.781 70.4553 191.76 70.4072C191.739 70.3592 191.708 70.3158 191.67 70.2796C191.632 70.2433 191.587 70.2149 191.538 70.1959C191.489 70.1769 191.437 70.1678 191.384 70.169C191.332 70.1702 191.28 70.1818 191.231 70.203C190.523 70.518 189.789 70.8065 189.047 71.0624C188.997 71.0798 188.951 71.1068 188.912 71.1419C188.873 71.1769 188.841 71.2194 188.818 71.2667C188.795 71.3141 188.782 71.3655 188.779 71.4179C188.776 71.4704 188.784 71.5228 188.801 71.5724C188.818 71.6208 188.845 71.6654 188.879 71.7037C188.914 71.7419 188.955 71.773 189.002 71.7952C189.048 71.8174 189.098 71.8303 189.15 71.8331C189.201 71.8359 189.253 71.8285 189.301 71.8115M161.449 68.605C162.157 69.0136 162.865 69.3877 163.573 69.7362C163.618 69.7601 163.667 69.775 163.718 69.7799C163.769 69.7849 163.82 69.7798 163.869 69.7649C163.918 69.7501 163.963 69.7258 164.003 69.6935C164.042 69.6612 164.075 69.6214 164.099 69.5765L164.104 69.5659C164.15 69.4711 164.157 69.3624 164.124 69.2626C164.091 69.1627 164.02 69.0795 163.927 69.0303C163.234 68.6897 162.544 68.3156 161.846 67.9247C161.801 67.8979 161.752 67.8799 161.701 67.8719C161.65 67.8639 161.598 67.8661 161.548 67.8782C161.497 67.8903 161.45 67.9122 161.408 67.9426C161.366 67.973 161.331 68.0113 161.304 68.0553C161.277 68.0994 161.259 68.1482 161.251 68.1992C161.243 68.2502 161.245 68.3022 161.257 68.3524C161.269 68.4025 161.291 68.4498 161.322 68.4915C161.352 68.5331 161.391 68.5684 161.435 68.5953L161.453 68.605M195.805 68.6562C196.488 68.215 197.144 67.7465 197.777 67.2612C197.822 67.2312 197.861 67.192 197.891 67.1462C197.921 67.1003 197.941 67.0488 197.949 66.995C197.958 66.9411 197.956 66.886 197.942 66.8331C197.928 66.7803 197.904 66.7308 197.87 66.6879C197.836 66.6451 197.793 66.6096 197.745 66.5839C197.697 66.5582 197.644 66.5428 197.589 66.5386C197.535 66.5345 197.48 66.5416 197.428 66.5597C197.376 66.5778 197.329 66.6063 197.289 66.6436C196.675 67.1112 196.034 67.5621 195.37 67.9874C195.28 68.0437 195.216 68.1333 195.192 68.2367C195.169 68.34 195.187 68.4485 195.243 68.5384C195.3 68.6283 195.39 68.6921 195.493 68.7158C195.597 68.7396 195.706 68.7213 195.796 68.665L195.804 68.6597M155.48 64.6539C156.034 65.0191 156.589 65.4109 157.143 65.8194C157.237 65.8786 157.32 65.9465 157.417 66.0065C157.459 66.0366 157.507 66.0582 157.557 66.07C157.608 66.0818 157.66 66.0836 157.711 66.0753C157.762 66.067 157.811 66.0487 157.855 66.0215C157.899 65.9944 157.937 65.9588 157.967 65.9169C157.998 65.8751 158.019 65.8276 158.031 65.7774C158.043 65.7272 158.045 65.6751 158.036 65.6242C158.028 65.5733 158.01 65.5245 157.982 65.4806C157.955 65.4368 157.919 65.3987 157.877 65.3686C157.789 65.3006 157.707 65.2406 157.621 65.1727C157.049 64.7556 156.481 64.3644 155.916 63.9991C155.828 63.9416 155.722 63.9209 155.62 63.9415C155.517 63.9622 155.427 64.0226 155.37 64.1094C155.312 64.1963 155.291 64.3024 155.312 64.4045C155.332 64.5066 155.393 64.5963 155.48 64.6539ZM201.34 64.0247C201.895 63.4289 202.418 62.8165 202.909 62.1877C202.971 62.1037 202.997 61.9994 202.983 61.8964C202.969 61.7934 202.916 61.6999 202.834 61.6353C202.793 61.6033 202.746 61.5795 202.696 61.5655C202.646 61.5515 202.594 61.5474 202.542 61.5536C202.491 61.5597 202.441 61.5759 202.396 61.6013C202.35 61.6267 202.31 61.6607 202.278 61.7015C201.8 62.3139 201.298 62.9094 200.761 63.4874C200.69 63.5656 200.654 63.6681 200.658 63.773C200.663 63.8779 200.709 63.9768 200.785 64.0486C200.823 64.0832 200.868 64.1099 200.916 64.1274C200.965 64.1448 201.016 64.1526 201.068 64.1502C201.119 64.1478 201.17 64.1354 201.216 64.1135C201.263 64.0917 201.305 64.0609 201.339 64.023M122.136 63.708C122.786 63.2824 123.461 62.8961 124.157 62.5512C124.204 62.5281 124.245 62.496 124.279 62.4567C124.313 62.4175 124.339 62.3719 124.355 62.3226C124.371 62.2733 124.377 62.2213 124.373 62.1697C124.368 62.118 124.354 62.0678 124.33 62.0218V62.0174C124.281 61.9243 124.197 61.8539 124.097 61.8209C123.997 61.788 123.888 61.7952 123.793 61.8409C123.067 62.2048 122.363 62.6108 121.685 63.0568C121.643 63.0848 121.606 63.1208 121.578 63.1629C121.549 63.205 121.53 63.2523 121.519 63.302C121.509 63.3518 121.509 63.4031 121.519 63.4529C121.529 63.5027 121.548 63.5501 121.577 63.5924L121.583 63.6012C121.64 63.6875 121.729 63.7477 121.83 63.7686C121.932 63.7894 122.038 63.7692 122.124 63.7124L122.138 63.7036M149.223 61.3733C149.939 61.6538 150.655 61.9777 151.381 62.3262C151.476 62.373 151.586 62.3802 151.686 62.3463C151.787 62.3124 151.869 62.2401 151.916 62.1453C151.963 62.0505 151.971 61.9411 151.937 61.8409C151.903 61.7408 151.83 61.6583 151.735 61.6115C150.993 61.2586 150.25 60.9312 149.523 60.6409C149.475 60.6214 149.425 60.6113 149.374 60.6112C149.323 60.6112 149.272 60.6211 149.225 60.6405C149.178 60.66 149.135 60.6885 149.099 60.7244C149.063 60.7603 149.034 60.803 149.015 60.85V60.8624C148.975 60.9585 148.976 61.0661 149.016 61.1617C149.057 61.2573 149.133 61.3331 149.23 61.3724M128.508 60.76C129.216 60.5306 129.967 60.3091 130.769 60.1133C130.871 60.0868 130.96 60.021 131.014 59.9301C131.068 59.8393 131.084 59.7307 131.059 59.628C131.033 59.5268 130.969 59.4397 130.879 59.3856C130.79 59.3314 130.683 59.3145 130.581 59.3386C129.754 59.5424 128.988 59.7718 128.261 60.0021C128.211 60.0183 128.165 60.0442 128.125 60.0782C128.085 60.1122 128.052 60.1537 128.028 60.2003C127.981 60.2945 127.972 60.4038 128.005 60.5041C128.038 60.6045 128.109 60.6878 128.204 60.7356C128.298 60.7834 128.408 60.7928 128.508 60.76ZM142.439 59.5238C143.198 59.6341 143.965 59.7788 144.75 59.965C144.853 59.9886 144.961 59.9705 145.051 59.9148C145.14 59.859 145.204 59.7702 145.228 59.6677C145.25 59.5653 145.231 59.4586 145.175 59.3698C145.12 59.281 145.032 59.217 144.931 59.1912C144.129 59.0041 143.338 58.8594 142.558 58.7403C142.506 58.7287 142.453 58.7275 142.4 58.7369C142.348 58.7464 142.298 58.7661 142.254 58.7951C142.209 58.824 142.171 58.8616 142.141 58.9055C142.111 58.9495 142.091 58.9989 142.081 59.0509C142.071 59.1029 142.071 59.1564 142.082 59.2083C142.093 59.2601 142.114 59.3093 142.144 59.3528C142.175 59.3963 142.213 59.4333 142.258 59.4616C142.303 59.49 142.353 59.509 142.406 59.5177C142.417 59.5204 142.427 59.523 142.439 59.5238ZM135.404 59.3306C136.163 59.2627 136.948 59.2203 137.758 59.2115C137.862 59.207 137.961 59.1633 138.034 59.089C138.107 59.0148 138.149 58.9157 138.151 58.8118C138.149 58.7071 138.106 58.6073 138.031 58.5341C137.956 58.4609 137.855 58.4202 137.75 58.4209C136.923 58.4297 136.112 58.4721 135.336 58.54C135.233 58.549 135.138 58.5982 135.072 58.6767C135.006 58.7553 134.973 58.8568 134.982 58.9591V58.9733C134.993 59.0758 135.044 59.17 135.123 59.2359C135.203 59.3017 135.305 59.3341 135.408 59.3262" fill="#010211"/>
<path fill-rule="evenodd" clip-rule="evenodd" d="M125.128 187.414C125.904 187.459 126.705 187.483 127.525 187.491C127.576 187.492 127.628 187.483 127.676 187.464C127.724 187.446 127.768 187.418 127.805 187.382C127.842 187.346 127.872 187.304 127.893 187.257C127.914 187.21 127.925 187.159 127.926 187.107V187.101C127.926 186.996 127.886 186.896 127.812 186.821C127.738 186.746 127.638 186.703 127.533 186.702C126.722 186.692 125.94 186.667 125.17 186.625C125.065 186.619 124.962 186.656 124.884 186.726C124.805 186.795 124.758 186.893 124.751 186.998C124.743 187.1 124.776 187.201 124.842 187.279C124.909 187.357 125.003 187.406 125.105 187.414H125.126M132.317 187.326C133.102 187.267 133.895 187.19 134.706 187.097C134.758 187.092 134.809 187.076 134.855 187.051C134.901 187.026 134.942 186.993 134.975 186.952C135.007 186.911 135.032 186.865 135.047 186.815C135.061 186.764 135.066 186.712 135.06 186.66V186.656C135.048 186.55 134.995 186.454 134.912 186.388C134.829 186.322 134.723 186.291 134.618 186.303C133.824 186.396 133.039 186.473 132.263 186.532C132.159 186.539 132.061 186.588 131.992 186.666C131.924 186.745 131.889 186.847 131.896 186.951V186.958C131.906 187.062 131.956 187.159 132.035 187.227C132.115 187.295 132.218 187.33 132.322 187.324M117.986 186.49C118.754 186.65 119.547 186.796 120.358 186.924C120.462 186.939 120.567 186.912 120.652 186.85C120.737 186.788 120.793 186.695 120.81 186.591C120.826 186.488 120.8 186.383 120.738 186.299C120.676 186.215 120.583 186.158 120.48 186.142C119.678 186.014 118.91 185.877 118.151 185.716C118.048 185.695 117.941 185.716 117.853 185.773C117.765 185.83 117.704 185.92 117.681 186.022C117.671 186.073 117.67 186.125 117.679 186.176C117.688 186.227 117.708 186.275 117.736 186.318C117.764 186.362 117.8 186.399 117.843 186.429C117.885 186.458 117.933 186.479 117.984 186.49M139.455 186.379C140.223 186.235 141.008 186.072 141.801 185.895C141.902 185.874 141.99 185.814 142.046 185.728C142.102 185.642 142.122 185.537 142.101 185.436V185.427C142.079 185.324 142.017 185.235 141.929 185.178C141.842 185.12 141.735 185.1 141.632 185.12C140.847 185.297 140.071 185.451 139.303 185.597C139.252 185.606 139.203 185.626 139.16 185.654C139.116 185.682 139.079 185.718 139.049 185.761C139.02 185.804 138.999 185.852 138.989 185.902C138.978 185.953 138.977 186.005 138.987 186.056C139.006 186.16 139.067 186.253 139.155 186.314C139.242 186.374 139.35 186.397 139.455 186.379ZM111.074 184.437C111.808 184.728 112.559 184.999 113.343 185.254C113.393 185.271 113.445 185.277 113.496 185.273C113.548 185.269 113.599 185.255 113.645 185.232C113.691 185.209 113.732 185.176 113.766 185.137C113.8 185.098 113.826 185.053 113.842 185.003C113.858 184.954 113.865 184.902 113.861 184.851C113.857 184.799 113.843 184.749 113.819 184.703C113.796 184.657 113.764 184.616 113.725 184.582C113.685 184.548 113.64 184.522 113.59 184.506C112.822 184.252 112.081 183.988 111.373 183.699C111.273 183.662 111.163 183.665 111.066 183.708C110.968 183.751 110.892 183.83 110.852 183.928C110.833 183.976 110.824 184.027 110.824 184.078C110.825 184.13 110.836 184.18 110.856 184.228C110.876 184.275 110.906 184.318 110.943 184.353C110.979 184.389 111.023 184.418 111.071 184.437M146.438 184.752L148.739 184.135C148.789 184.122 148.836 184.099 148.877 184.068C148.918 184.037 148.953 183.998 148.979 183.953C149.005 183.909 149.022 183.86 149.029 183.808C149.036 183.757 149.033 183.705 149.02 183.656V183.651C148.992 183.55 148.926 183.464 148.835 183.411C148.744 183.358 148.636 183.343 148.535 183.37C147.758 183.582 146.991 183.786 146.234 183.982C146.132 184.01 146.045 184.076 145.992 184.167C145.939 184.258 145.925 184.367 145.951 184.468C145.979 184.57 146.046 184.657 146.137 184.711C146.228 184.765 146.336 184.781 146.439 184.757M153.342 182.852C154.094 182.639 154.861 182.418 155.628 182.195C155.73 182.166 155.816 182.098 155.867 182.006C155.919 181.913 155.931 181.804 155.902 181.703C155.873 181.602 155.804 181.516 155.712 181.465C155.619 181.414 155.51 181.401 155.408 181.43C154.639 181.652 153.881 181.872 153.121 182.094C153.022 182.12 152.937 182.185 152.885 182.273C152.833 182.362 152.819 182.468 152.845 182.567V182.577C152.874 182.678 152.941 182.764 153.032 182.816C153.124 182.867 153.232 182.881 153.334 182.853H153.338M104.638 181.202C105.295 181.619 105.986 182.019 106.711 182.419C106.804 182.466 106.912 182.477 107.012 182.447C107.112 182.417 107.197 182.349 107.248 182.258C107.273 182.213 107.29 182.164 107.296 182.113C107.303 182.062 107.299 182.01 107.285 181.961C107.271 181.911 107.248 181.865 107.216 181.824C107.184 181.783 107.145 181.75 107.1 181.724H107.095C106.378 181.334 105.704 180.942 105.059 180.535C104.97 180.48 104.862 180.462 104.76 180.486C104.658 180.51 104.569 180.574 104.513 180.663C104.457 180.749 104.438 180.854 104.46 180.955C104.482 181.056 104.543 181.143 104.63 181.199L104.642 181.206M160.209 180.853C160.959 180.632 161.728 180.402 162.486 180.172C162.588 180.144 162.674 180.076 162.725 179.984C162.777 179.892 162.79 179.784 162.761 179.682C162.728 179.584 162.659 179.501 162.567 179.452C162.475 179.403 162.367 179.391 162.266 179.418C161.499 179.647 160.74 179.869 159.98 180.099C159.882 180.125 159.798 180.189 159.748 180.277C159.697 180.364 159.683 180.468 159.709 180.566L159.714 180.582C159.728 180.633 159.752 180.68 159.785 180.721C159.817 180.762 159.857 180.796 159.903 180.821C159.948 180.847 159.999 180.863 160.05 180.869C160.102 180.875 160.155 180.871 160.205 180.857M167.056 178.827C167.815 178.598 168.575 178.376 169.343 178.146C169.392 178.131 169.439 178.106 169.479 178.074C169.519 178.041 169.553 178 169.577 177.954C169.602 177.908 169.617 177.858 169.622 177.807C169.627 177.755 169.622 177.703 169.607 177.653C169.592 177.603 169.567 177.557 169.534 177.517C169.501 177.477 169.461 177.443 169.415 177.419C169.369 177.394 169.318 177.379 169.267 177.374C169.215 177.369 169.162 177.374 169.112 177.389C168.353 177.62 167.585 177.841 166.826 178.07C166.725 178.101 166.641 178.17 166.591 178.262C166.541 178.355 166.531 178.463 166.561 178.564C166.592 178.664 166.661 178.748 166.754 178.798C166.846 178.847 166.955 178.858 167.056 178.827ZM98.9142 176.821C99.4682 177.339 100.065 177.874 100.722 178.409C100.804 178.472 100.907 178.5 101.01 178.488C101.112 178.477 101.206 178.426 101.272 178.347C101.338 178.268 101.371 178.167 101.364 178.064C101.357 177.962 101.31 177.866 101.234 177.797C100.585 177.267 99.9948 176.752 99.4638 176.249C99.3887 176.177 99.2881 176.138 99.1839 176.14C99.0797 176.141 98.9805 176.184 98.908 176.259L98.901 176.267C98.8656 176.303 98.8377 176.345 98.8188 176.392C98.8 176.439 98.7905 176.489 98.791 176.539C98.7915 176.589 98.8019 176.639 98.8217 176.685C98.8415 176.731 98.8702 176.773 98.9063 176.809L98.9178 176.819M173.918 176.809L176.204 176.146C176.306 176.118 176.391 176.051 176.443 175.96C176.494 175.868 176.507 175.761 176.479 175.66C176.451 175.559 176.383 175.474 176.292 175.422C176.2 175.371 176.092 175.358 175.991 175.386H175.982C175.215 175.608 174.456 175.82 173.697 176.043C173.596 176.073 173.511 176.142 173.46 176.234C173.409 176.326 173.396 176.434 173.423 176.536C173.438 176.586 173.462 176.633 173.494 176.674C173.527 176.715 173.568 176.749 173.613 176.774C173.659 176.799 173.71 176.815 173.762 176.821C173.814 176.827 173.867 176.822 173.917 176.808M180.784 174.851C181.551 174.638 182.312 174.433 183.079 174.222C183.18 174.195 183.267 174.13 183.32 174.04C183.373 173.951 183.388 173.843 183.362 173.742C183.333 173.642 183.266 173.556 183.175 173.504C183.084 173.451 182.976 173.436 182.874 173.461L180.574 174.1C180.475 174.125 180.39 174.188 180.337 174.275C180.285 174.362 180.269 174.467 180.294 174.566L180.299 174.583C180.313 174.633 180.335 174.679 180.367 174.719C180.398 174.76 180.437 174.794 180.482 174.819C180.526 174.845 180.575 174.861 180.626 174.868C180.677 174.875 180.728 174.871 180.778 174.858H180.787M94.2381 171.319C94.6647 172.01 95.1347 172.672 95.6452 173.303C95.7125 173.385 95.8092 173.436 95.9145 173.447C96.0198 173.458 96.1252 173.428 96.208 173.362C96.2483 173.33 96.2819 173.29 96.3067 173.245C96.3315 173.2 96.3472 173.15 96.3528 173.099C96.3584 173.048 96.3538 172.996 96.3393 172.947C96.3248 172.898 96.3006 172.852 96.2682 172.812C95.7816 172.209 95.3316 171.578 94.9204 170.922C94.8941 170.877 94.8592 170.838 94.8177 170.807C94.7763 170.775 94.7291 170.753 94.6788 170.74C94.6285 170.727 94.5761 170.724 94.5246 170.731C94.4732 170.738 94.4236 170.755 94.3788 170.781C94.334 170.807 94.2948 170.842 94.2635 170.884C94.2322 170.925 94.2094 170.972 94.1963 171.022C94.1832 171.072 94.1802 171.125 94.1874 171.176C94.1946 171.227 94.2118 171.277 94.2381 171.321M187.689 173.014L189.99 172.429C190.092 172.404 190.179 172.34 190.234 172.252C190.288 172.163 190.305 172.056 190.281 171.955C190.254 171.853 190.189 171.765 190.098 171.71C190.007 171.656 189.899 171.64 189.796 171.664C189.029 171.852 188.258 172.048 187.484 172.252C187.383 172.277 187.297 172.341 187.243 172.43C187.19 172.519 187.173 172.625 187.198 172.726V172.738C187.227 172.839 187.293 172.924 187.384 172.976C187.474 173.028 187.582 173.043 187.683 173.018M194.599 171.321C195.376 171.145 196.15 170.968 196.92 170.792C196.971 170.782 197.019 170.762 197.062 170.733C197.105 170.704 197.142 170.667 197.171 170.624C197.199 170.581 197.219 170.533 197.229 170.483C197.239 170.432 197.239 170.38 197.228 170.329V170.323C197.204 170.22 197.141 170.131 197.051 170.074C196.962 170.017 196.854 169.996 196.751 170.017C195.983 170.187 195.206 170.37 194.421 170.547C194.37 170.558 194.322 170.58 194.28 170.61C194.237 170.64 194.201 170.678 194.173 170.722C194.145 170.766 194.127 170.815 194.118 170.867C194.109 170.918 194.111 170.97 194.122 171.021C194.134 171.072 194.155 171.12 194.186 171.162C194.216 171.205 194.254 171.241 194.298 171.269C194.343 171.296 194.392 171.315 194.443 171.324C194.495 171.333 194.547 171.331 194.598 171.319M236.756 169.56C237.508 169.807 238.241 170.089 238.958 170.384C239.005 170.406 239.056 170.418 239.108 170.421C239.159 170.423 239.211 170.415 239.26 170.397C239.308 170.38 239.353 170.353 239.391 170.318C239.429 170.283 239.46 170.241 239.482 170.194C239.504 170.147 239.516 170.097 239.518 170.045C239.521 169.994 239.513 169.942 239.495 169.894C239.477 169.845 239.45 169.801 239.415 169.763C239.38 169.725 239.338 169.694 239.291 169.672L239.266 169.662C238.541 169.347 237.781 169.067 237.013 168.812C236.965 168.794 236.914 168.787 236.862 168.789C236.811 168.792 236.761 168.804 236.714 168.826C236.668 168.848 236.626 168.879 236.592 168.917C236.557 168.955 236.531 168.999 236.513 169.047V169.059C236.481 169.158 236.49 169.266 236.536 169.359C236.582 169.453 236.663 169.525 236.761 169.56M201.582 169.832C202.367 169.679 203.142 169.535 203.919 169.398C204.023 169.38 204.115 169.321 204.176 169.235C204.237 169.149 204.261 169.042 204.243 168.938C204.225 168.835 204.166 168.742 204.08 168.682C203.993 168.621 203.886 168.597 203.782 168.615C202.997 168.761 202.22 168.905 201.436 169.056C201.386 169.065 201.338 169.083 201.294 169.11C201.251 169.137 201.214 169.172 201.184 169.214C201.154 169.256 201.133 169.303 201.122 169.352C201.111 169.402 201.109 169.453 201.118 169.504V169.515C201.138 169.617 201.198 169.707 201.284 169.766C201.371 169.825 201.477 169.847 201.58 169.828M208.609 168.629C209.405 168.511 210.188 168.409 210.963 168.306C211.014 168.3 211.064 168.283 211.109 168.257C211.154 168.231 211.194 168.197 211.226 168.156C211.257 168.115 211.281 168.068 211.294 168.018C211.308 167.968 211.311 167.916 211.304 167.864C211.298 167.813 211.281 167.763 211.255 167.718C211.229 167.673 211.195 167.634 211.154 167.602C211.112 167.571 211.065 167.547 211.015 167.534C210.965 167.52 210.913 167.517 210.861 167.524C210.076 167.617 209.29 167.728 208.497 167.847C208.446 167.853 208.396 167.87 208.351 167.895C208.306 167.921 208.267 167.955 208.235 167.996C208.203 168.037 208.18 168.084 208.166 168.134C208.153 168.184 208.149 168.236 208.156 168.288C208.171 168.393 208.227 168.488 208.312 168.551C208.397 168.615 208.504 168.644 208.609 168.629ZM229.866 167.999C230.663 168.11 231.437 168.238 232.204 168.382C232.255 168.392 232.308 168.391 232.358 168.381C232.409 168.37 232.457 168.35 232.5 168.321C232.542 168.292 232.579 168.254 232.607 168.211C232.636 168.168 232.655 168.12 232.665 168.069C232.684 167.965 232.661 167.858 232.602 167.77C232.543 167.683 232.451 167.622 232.348 167.6C231.573 167.457 230.779 167.329 229.977 167.217C229.874 167.204 229.769 167.232 229.687 167.295C229.604 167.358 229.549 167.451 229.535 167.554C229.52 167.657 229.546 167.761 229.608 167.845C229.67 167.928 229.763 167.984 229.866 168M215.689 167.813C216.485 167.746 217.275 167.695 218.05 167.652C218.155 167.647 218.254 167.6 218.324 167.521C218.395 167.443 218.431 167.34 218.426 167.235C218.424 167.184 218.412 167.134 218.391 167.087C218.37 167.041 218.34 166.999 218.303 166.964C218.266 166.929 218.222 166.902 218.174 166.884C218.126 166.866 218.075 166.858 218.024 166.859H218.007C217.222 166.903 216.42 166.953 215.618 167.022C215.513 167.03 215.415 167.079 215.347 167.158C215.278 167.238 215.244 167.341 215.251 167.446C215.261 167.552 215.313 167.649 215.394 167.718C215.475 167.786 215.581 167.82 215.687 167.811M222.792 167.532C223.589 167.532 224.379 167.557 225.156 167.592C225.261 167.596 225.364 167.558 225.442 167.487C225.52 167.415 225.566 167.316 225.57 167.211C225.575 167.106 225.537 167.003 225.465 166.925C225.394 166.848 225.294 166.802 225.189 166.797C224.404 166.763 223.602 166.738 222.793 166.738C222.742 166.738 222.692 166.747 222.644 166.766C222.597 166.784 222.554 166.812 222.517 166.848C222.481 166.883 222.452 166.925 222.432 166.972C222.411 167.019 222.401 167.069 222.4 167.119V167.13C222.4 167.235 222.441 167.336 222.514 167.41C222.588 167.485 222.688 167.528 222.793 167.53" fill="#5A5BB5"/>
<path fill-rule="evenodd" clip-rule="evenodd" d="M119.788 168.221C119.344 168.222 118.91 168.354 118.541 168.601C118.172 168.848 117.885 169.198 117.716 169.608C117.547 170.018 117.503 170.468 117.591 170.902C117.678 171.337 117.893 171.735 118.208 172.048C118.523 172.361 118.923 172.573 119.359 172.659C119.795 172.745 120.246 172.7 120.657 172.529C121.067 172.359 121.417 172.072 121.664 171.703C121.91 171.335 122.041 170.901 122.041 170.458C122.04 170.164 121.982 169.872 121.868 169.601C121.755 169.329 121.589 169.082 121.38 168.874C121.171 168.666 120.922 168.502 120.649 168.389C120.376 168.277 120.084 168.22 119.788 168.221ZM119.788 169.015C120.076 169.014 120.357 169.098 120.597 169.257C120.836 169.416 121.023 169.642 121.134 169.906C121.245 170.171 121.274 170.463 121.219 170.744C121.163 171.025 121.025 171.284 120.823 171.487C120.62 171.69 120.361 171.829 120.079 171.886C119.797 171.942 119.505 171.914 119.239 171.805C118.973 171.696 118.745 171.511 118.585 171.273C118.425 171.035 118.339 170.755 118.338 170.468V170.461C118.338 170.078 118.491 169.71 118.763 169.439C119.035 169.168 119.404 169.015 119.788 169.015Z" fill="#5A5BB5"/>
<path fill-rule="evenodd" clip-rule="evenodd" d="M219.902 107.12C219.556 107.12 219.218 107.222 218.93 107.413C218.643 107.605 218.418 107.877 218.286 108.196C218.153 108.514 218.118 108.865 218.186 109.203C218.253 109.541 218.419 109.852 218.664 110.096C218.908 110.34 219.22 110.506 219.559 110.574C219.898 110.641 220.25 110.607 220.569 110.475C220.889 110.343 221.162 110.12 221.354 109.833C221.547 109.546 221.65 109.209 221.65 108.865C221.65 108.636 221.605 108.409 221.517 108.198C221.429 107.986 221.301 107.794 221.138 107.632C220.976 107.47 220.784 107.342 220.572 107.254C220.36 107.166 220.132 107.121 219.903 107.121L219.902 107.12ZM219.902 107.914C220.156 107.915 220.399 108.017 220.579 108.196C220.758 108.376 220.858 108.619 220.858 108.872C220.857 109.126 220.756 109.369 220.576 109.548C220.396 109.727 220.152 109.827 219.898 109.827C219.644 109.827 219.401 109.727 219.221 109.548C219.041 109.369 218.94 109.126 218.939 108.872C218.939 108.619 219.039 108.376 219.218 108.196C219.397 108.017 219.641 107.915 219.895 107.914H219.902Z" fill="#010211"/>
<path fill-rule="evenodd" clip-rule="evenodd" d="M207.377 89.875L217.888 85.022C217.982 84.9753 218.055 84.8944 218.091 84.796C218.128 84.6976 218.125 84.5891 218.084 84.4926C218.063 84.4453 218.032 84.4026 217.995 84.3669C217.957 84.3312 217.913 84.3034 217.864 84.2848C217.816 84.2663 217.764 84.2575 217.712 84.2589C217.66 84.2604 217.609 84.272 217.562 84.2932H217.553L207.044 89.1461C206.997 89.168 206.955 89.1989 206.92 89.2371C206.885 89.2752 206.858 89.3199 206.84 89.3685C206.822 89.4171 206.814 89.4686 206.817 89.5203C206.819 89.5719 206.832 89.6226 206.854 89.6694V89.6755C206.896 89.7683 206.974 89.8405 207.069 89.8764C207.165 89.9122 207.271 89.9089 207.364 89.867H207.373" fill="#5A5BB5"/>
<path fill-rule="evenodd" clip-rule="evenodd" d="M81.1223 148.262C81.0558 148.224 80.9796 148.207 80.9031 148.212C80.8266 148.217 80.7532 148.244 80.6923 148.29C80.6313 148.337 80.5855 148.4 80.5604 148.472C80.5354 148.545 80.5323 148.623 80.5515 148.697L85.6055 169.622C85.6208 169.68 85.6494 169.735 85.6892 169.781C85.7289 169.827 85.7787 169.863 85.8347 169.886C85.891 169.912 85.9527 169.923 86.0143 169.919C86.076 169.915 86.1358 169.897 86.1887 169.865L95.2073 164.678L103.914 161.441C103.985 161.415 104.046 161.369 104.091 161.308C104.136 161.248 104.162 161.176 104.167 161.101C104.173 161.025 104.158 160.95 104.122 160.883C104.087 160.816 104.033 160.761 103.967 160.724L81.1223 148.262ZM81.5303 149.385C81.5303 149.385 98.9374 158.885 102.821 161.006L94.8984 163.944C94.8771 163.951 94.8571 163.961 94.8391 163.975L86.2551 168.916L81.5303 149.385Z" fill="#010211"/>
<path fill-rule="evenodd" clip-rule="evenodd" d="M213.484 42.7627C213.503 42.6883 213.499 42.61 213.474 42.5375C213.449 42.4649 213.403 42.4013 213.342 42.3544C213.281 42.3075 213.208 42.2794 213.131 42.2736C213.055 42.2678 212.978 42.2844 212.91 42.3215L193.69 52.8074C193.625 52.8465 193.571 52.9023 193.535 52.9691C193.499 53.0358 193.482 53.111 193.485 53.1868C193.492 53.263 193.521 53.3356 193.568 53.3961C193.615 53.4567 193.678 53.5028 193.75 53.5292L201.069 56.2451L208.648 60.6083C208.702 60.6394 208.761 60.6577 208.823 60.662C208.884 60.6663 208.946 60.6564 209.002 60.633C209.059 60.6085 209.109 60.571 209.148 60.5234C209.187 60.4758 209.214 60.4196 209.227 60.3595L213.484 42.7627ZM212.505 43.4465L208.579 59.6571L201.434 55.5427C201.415 55.5286 201.394 55.5181 201.371 55.5118L194.837 53.088L212.505 43.4465Z" fill="#5A5BB5"/>
<path fill-rule="evenodd" clip-rule="evenodd" d="M95.137 164.007L81.5742 148.736C81.5408 148.697 81.5002 148.665 81.4544 148.642C81.4087 148.619 81.3589 148.605 81.3078 148.601C81.2567 148.597 81.2053 148.603 81.1565 148.619C81.1078 148.635 81.0627 148.66 81.0237 148.693H81.0184C80.9391 148.763 80.8906 148.861 80.8837 148.967C80.8767 149.072 80.9118 149.176 80.9813 149.255L94.5423 164.526C94.5761 164.565 94.6171 164.596 94.6631 164.619C94.7091 164.641 94.7591 164.655 94.8102 164.658C94.8613 164.661 94.9126 164.654 94.9611 164.638C95.0096 164.621 95.0543 164.595 95.0928 164.562L95.0981 164.557C95.1766 164.492 95.2261 164.399 95.2357 164.298C95.2454 164.197 95.2143 164.096 95.1494 164.018L95.1352 164.002" fill="#010211"/>
<path fill-rule="evenodd" clip-rule="evenodd" d="M201.699 56.1017L213.102 43.2538C213.172 43.1756 213.208 43.0731 213.202 42.9685C213.197 42.8639 213.15 42.7657 213.072 42.6952C212.993 42.6269 212.889 42.5926 212.784 42.5995C212.679 42.6064 212.581 42.6541 212.511 42.7323L201.095 55.5802C201.025 55.6593 200.99 55.7627 200.997 55.8676C201.004 55.9725 201.052 56.0704 201.132 56.1396C201.211 56.2089 201.315 56.2439 201.42 56.237C201.525 56.23 201.623 56.1817 201.693 56.1026" fill="#5A5BB5"/>
<path fill-rule="evenodd" clip-rule="evenodd" d="M94.3336 164.354L92.0132 169.082L90.2938 167.007C90.2261 166.926 90.1295 166.874 90.0244 166.863C89.9193 166.852 89.814 166.883 89.7309 166.948C89.6905 166.981 89.657 167.022 89.6324 167.068C89.6078 167.114 89.5926 167.164 89.5877 167.216C89.5828 167.268 89.5882 167.321 89.6037 167.371C89.6191 167.421 89.6443 167.467 89.6778 167.507L91.7893 170.057C91.8324 170.107 91.8872 170.146 91.9489 170.171C92.0106 170.195 92.0774 170.204 92.1433 170.196C92.2091 170.19 92.2722 170.167 92.3266 170.129C92.3811 170.092 92.4252 170.041 92.4548 169.982L95.0407 164.699C95.0865 164.606 95.0936 164.499 95.0604 164.401C95.0273 164.303 94.9566 164.222 94.8637 164.175C94.7696 164.129 94.6613 164.122 94.562 164.155C94.4626 164.188 94.3803 164.259 94.3327 164.352" fill="#010211"/>
<path fill-rule="evenodd" clip-rule="evenodd" d="M201.166 56.2388L203.348 60.677C203.378 60.7357 203.423 60.7861 203.477 60.8239C203.531 60.8617 203.594 60.8858 203.66 60.8941C203.726 60.9027 203.794 60.894 203.856 60.869C203.918 60.8439 203.972 60.8033 204.014 60.7511L205.79 58.607C205.856 58.5265 205.888 58.4231 205.877 58.3195C205.867 58.216 205.816 58.1207 205.735 58.0547C205.697 58.0216 205.652 57.9964 205.603 57.9807C205.555 57.9649 205.503 57.9588 205.453 57.9627C205.402 57.9667 205.352 57.9806 205.307 58.0036C205.261 58.0266 205.221 58.0584 205.187 58.097L205.181 58.1041L203.79 59.7806L201.883 55.8982C201.862 55.8496 201.832 55.8057 201.794 55.7689C201.755 55.7322 201.71 55.7034 201.661 55.6843C201.611 55.6651 201.559 55.656 201.506 55.6574C201.453 55.6588 201.4 55.6707 201.352 55.6925C201.304 55.7142 201.26 55.7454 201.224 55.7841C201.188 55.8228 201.16 55.8683 201.142 55.9179C201.123 55.9675 201.115 56.0203 201.118 56.0731C201.12 56.126 201.133 56.1778 201.156 56.2256L201.165 56.2459" fill="#5A5BB5"/>
<path fill-rule="evenodd" clip-rule="evenodd" d="M240.274 124.365C240.195 124.071 240.058 123.795 239.872 123.553C239.686 123.311 239.454 123.108 239.189 122.955C238.925 122.802 238.632 122.703 238.329 122.664C238.026 122.624 237.718 122.644 237.422 122.723H237.417L217.383 128.074C217.088 128.153 216.811 128.289 216.568 128.475C216.325 128.66 216.122 128.892 215.968 129.156C215.815 129.42 215.716 129.712 215.676 130.014C215.636 130.317 215.656 130.624 215.736 130.919L218.929 142.806C219.09 143.401 219.481 143.908 220.016 144.216C220.551 144.524 221.187 144.608 221.784 144.449C226.458 143.199 237.148 140.344 241.818 139.095C242.114 139.016 242.391 138.88 242.633 138.694C242.876 138.509 243.08 138.278 243.233 138.014C243.386 137.75 243.486 137.458 243.526 137.156C243.566 136.854 243.546 136.546 243.468 136.252C242.628 133.123 241.114 127.492 240.274 124.362" fill="#010211"/>
<path fill-rule="evenodd" clip-rule="evenodd" d="M215.696 129.321C215.696 129.321 224.382 132.825 228.093 134.319C228.646 134.544 229.259 134.582 229.837 134.427C230.414 134.273 230.926 133.935 231.293 133.464C233.748 130.331 239.484 123.005 239.484 123.005C239.548 122.924 239.577 122.82 239.565 122.717C239.552 122.614 239.499 122.52 239.417 122.456C239.334 122.391 239.228 122.362 239.123 122.375C239.019 122.387 238.923 122.441 238.857 122.523L230.671 132.979C230.41 133.314 230.046 133.555 229.634 133.665C229.223 133.774 228.787 133.747 228.393 133.587L215.999 128.589C215.901 128.55 215.793 128.552 215.696 128.592C215.599 128.633 215.523 128.71 215.483 128.807C215.463 128.854 215.453 128.906 215.453 128.957C215.453 129.009 215.464 129.06 215.483 129.107C215.503 129.155 215.532 129.198 215.569 129.235C215.606 129.271 215.649 129.3 215.697 129.319H215.701" fill="#F2F5F7"/>
<path fill-rule="evenodd" clip-rule="evenodd" d="M145.406 79.5596C145.406 79.5596 146.454 85.5728 147.641 88.2437C147.641 88.2437 145.705 94.1555 149.789 92.9299C149.789 92.9299 153.106 102.353 161.951 97.9399L163.517 102.6L180.37 99.6005L176.604 90.3887L168.084 75.4258L145.406 79.5596Z" fill="#F2F5F7"/>
<path fill-rule="evenodd" clip-rule="evenodd" d="M145.326 79.1686C145.224 79.1893 145.134 79.2489 145.075 79.3346C145.016 79.4204 144.992 79.5257 145.009 79.6283C145.009 79.6283 146.047 85.5057 147.222 88.2701C146.952 89.1733 146.807 90.1089 146.79 91.0512C146.719 91.4132 146.746 91.7875 146.868 92.1358C146.989 92.4841 147.202 92.7939 147.483 93.0335C147.764 93.2732 148.104 93.434 148.468 93.4997C148.832 93.5653 149.207 93.5334 149.555 93.4071C150.031 94.5215 151.799 98.0836 155.307 99.1821C157.452 99.7802 159.746 99.5335 161.714 98.493L163.14 102.728C163.17 102.819 163.232 102.895 163.315 102.944C163.397 102.992 163.494 103.01 163.588 102.993L180.441 99.9824C180.5 99.9732 180.556 99.9508 180.605 99.9169C180.654 99.883 180.695 99.8384 180.724 99.7865C180.75 99.7341 180.766 99.6768 180.769 99.6181C180.772 99.5594 180.762 99.5008 180.741 99.4459L176.974 90.2342C176.964 90.2211 176.956 90.2069 176.949 90.1918L168.43 75.2307C168.389 75.1597 168.328 75.1029 168.254 75.0679C168.18 75.0328 168.096 75.0213 168.016 75.0348L145.326 79.1686ZM145.863 79.8745L167.88 75.8686C167.88 75.8686 175.879 89.928 176.242 90.558L179.814 99.2933L163.784 102.15L162.332 97.8127C162.313 97.7587 162.283 97.7094 162.244 97.6682C162.205 97.6271 162.157 97.5951 162.103 97.5745C162.051 97.5527 161.995 97.5423 161.939 97.5438C161.883 97.5453 161.827 97.5588 161.777 97.5833C159.242 98.8504 157.182 98.9439 155.546 98.4251C151.709 97.2259 150.169 92.8027 150.169 92.8027C150.136 92.7051 150.066 92.6244 149.973 92.5783C149.881 92.5322 149.774 92.5244 149.676 92.5565C149.442 92.6551 149.191 92.7067 148.937 92.7082C148.684 92.7097 148.432 92.6612 148.197 92.5654C147.971 92.386 147.796 92.1517 147.688 91.8852C147.579 91.6186 147.541 91.3287 147.578 91.0433C147.6 90.1339 147.748 89.232 148.02 88.3636C148.051 88.272 148.048 88.1723 148.01 88.083C147.051 85.4169 146.333 82.6707 145.863 79.8771" fill="#010211"/>
<path fill-rule="evenodd" clip-rule="evenodd" d="M167.394 80.3553C165.854 81.2499 164.496 82.4235 163.389 83.8159C163.322 83.8978 163.292 84.0025 163.303 84.107C163.314 84.2115 163.367 84.3072 163.449 84.3731C163.531 84.439 163.636 84.4696 163.741 84.4583C163.846 84.4469 163.942 84.3945 164.008 84.3126C165.048 83.0033 166.324 81.8996 167.772 81.0585C167.864 81.01 167.933 80.9273 167.965 80.8282C167.996 80.7291 167.987 80.6217 167.94 80.5291C167.89 80.4358 167.805 80.3659 167.704 80.3345C167.603 80.3031 167.493 80.3128 167.399 80.3615" fill="#010211"/>
<path fill-rule="evenodd" clip-rule="evenodd" d="M167.348 83.3845C166.642 82.9514 165.896 82.5867 165.12 82.2957C165.071 82.2792 165.019 82.2727 164.967 82.2764C164.915 82.2801 164.864 82.294 164.818 82.3173C164.771 82.3406 164.73 82.3728 164.696 82.4121C164.662 82.4514 164.636 82.497 164.62 82.5463V82.5516C164.588 82.652 164.598 82.7606 164.647 82.8539C164.695 82.9472 164.779 83.0177 164.879 83.0501C165.594 83.3184 166.281 83.6562 166.929 84.0586C166.974 84.0861 167.023 84.1047 167.074 84.1132C167.126 84.1217 167.179 84.12 167.23 84.1082C167.28 84.0964 167.328 84.0747 167.371 84.0444C167.413 84.0141 167.449 83.9758 167.477 83.9316C167.505 83.8874 167.523 83.8382 167.532 83.7868C167.54 83.7354 167.539 83.6829 167.527 83.6322C167.515 83.5814 167.493 83.5335 167.463 83.4912C167.432 83.4489 167.394 83.4129 167.35 83.3854" fill="#010211"/>
<path fill-rule="evenodd" clip-rule="evenodd" d="M161.748 80.53C162.011 82.0316 162.108 83.5575 162.037 85.0803C162.034 85.1165 162.022 85.1514 162.001 85.1813C161.98 85.2112 161.952 85.2351 161.919 85.2506C161.885 85.2662 161.847 85.2712 161.811 85.2651C161.774 85.2589 161.74 85.2419 161.713 85.2162C160.48 83.9968 159.436 82.6009 158.616 81.0744C158.616 81.0744 150.051 82.2991 145.512 79.9856L145.803 81.415C144.716 80.79 143.855 79.8377 143.345 78.6947C142.834 77.5518 142.7 76.277 142.961 75.0532L141.246 76.8559C141.246 76.8559 142.611 60.287 158.615 57.0717C171.482 54.4953 176.811 62.3853 176.811 62.3853C176.811 62.3853 186.881 67.2285 183.736 77.4012C181.041 86.1197 179.771 87.4459 177.542 92.4303L175.408 92.8388L168.347 85.7535C169.18 85.0649 169.721 84.0878 169.861 83.0182C170.001 81.9487 169.731 80.8657 169.104 79.9865C167.919 78.0894 164.335 77.3244 161.743 80.5309" fill="#010211"/>
<path fill-rule="evenodd" clip-rule="evenodd" d="M149.034 83.0742C149.654 82.4231 150.436 81.9463 151.299 81.6916C151.399 81.6574 151.481 81.5856 151.527 81.4916C151.574 81.3977 151.582 81.2891 151.549 81.1895C151.533 81.1407 151.507 81.0956 151.474 81.0566C151.44 81.0177 151.399 80.9858 151.353 80.9627C151.307 80.9396 151.257 80.9257 151.205 80.922C151.154 80.9182 151.102 80.9246 151.053 80.9407H151.046C150.039 81.239 149.131 81.8037 148.42 82.5748C148.354 82.6572 148.323 82.7623 148.334 82.8671C148.346 82.9719 148.398 83.068 148.481 83.1342C148.521 83.1663 148.567 83.1902 148.617 83.2045C148.666 83.2187 148.718 83.2231 148.77 83.2174C148.821 83.2117 148.871 83.1959 148.916 83.171C148.961 83.1462 149.001 83.1127 149.033 83.0725" fill="#010211"/>
<path fill-rule="evenodd" clip-rule="evenodd" d="M157.413 90.6724C157.292 91.5349 156.866 92.3257 156.21 92.9014C155.555 93.4772 154.715 93.7999 153.841 93.8109C153.739 93.8221 153.644 93.8708 153.575 93.9477C153.506 94.0247 153.468 94.1243 153.469 94.2274C153.472 94.3301 153.517 94.4271 153.592 94.4972C153.667 94.5673 153.768 94.6049 153.871 94.6015H153.893C154.954 94.5836 155.973 94.1861 156.764 93.4816C157.556 92.777 158.067 91.8123 158.205 90.7633C158.215 90.6583 158.183 90.5537 158.117 90.4714C158.051 90.3891 157.956 90.3356 157.851 90.3221C157.747 90.3122 157.642 90.3437 157.561 90.4097C157.479 90.4757 157.427 90.571 157.416 90.675" fill="#010211"/>
<path d="M151.194 86.4319C151.415 86.402 151.621 86.3077 151.788 86.1608C151.954 86.0139 152.074 85.8211 152.13 85.6067C152.187 85.3923 152.179 85.1659 152.106 84.9562C152.034 84.7465 151.901 84.5629 151.724 84.4285C151.547 84.2942 151.335 84.2151 151.113 84.2014C150.891 84.1876 150.67 84.2398 150.477 84.3512C150.285 84.4627 150.13 84.6285 150.032 84.8277C149.935 85.0268 149.898 85.2504 149.928 85.4702C149.948 85.6163 149.996 85.7571 150.07 85.8845C150.145 86.0119 150.244 86.1235 150.361 86.2128C150.479 86.3022 150.613 86.3675 150.756 86.4051C150.899 86.4427 151.048 86.4518 151.194 86.4319Z" fill="#010211"/>
<path fill-rule="evenodd" clip-rule="evenodd" d="M157.391 194.608L153.184 140.381V115.202L181.207 111.46L199.018 118.971C202.235 119.293 212.66 159.6 216.318 194.608H157.391Z" fill="#F2F5F7"/>
<path fill-rule="evenodd" clip-rule="evenodd" d="M156.988 194.634C156.998 194.734 157.044 194.826 157.118 194.893C157.192 194.961 157.289 194.999 157.389 195H216.317C216.373 195.001 216.429 194.99 216.48 194.968C216.531 194.946 216.578 194.914 216.616 194.873C216.653 194.832 216.682 194.783 216.7 194.73C216.717 194.677 216.724 194.621 216.718 194.566C213.785 166.516 206.507 135.078 202.071 123.46C201.568 121.952 200.862 120.518 199.972 119.199C199.769 118.904 199.471 118.688 199.128 118.586L181.358 111.092C181.293 111.067 181.223 111.058 181.154 111.067L153.131 114.809C153.035 114.821 152.946 114.867 152.881 114.939C152.816 115.011 152.779 115.104 152.777 115.201V140.378C152.777 140.387 152.781 140.396 152.787 140.402L156.988 194.634ZM157.755 194.208C157.389 189.522 153.652 141.339 153.583 140.362V115.55C156.663 115.134 179.398 112.097 181.155 111.868C182.578 112.472 198.854 119.327 198.854 119.327C198.893 119.343 198.932 119.354 198.973 119.36C199.046 119.384 199.111 119.429 199.161 119.488C199.322 119.644 199.465 119.818 199.586 120.007C200.288 121.192 200.87 122.443 201.326 123.743C205.729 135.267 212.919 166.354 215.878 194.209L157.755 194.208Z" fill="#010211"/>
<path fill-rule="evenodd" clip-rule="evenodd" d="M155.164 108.847C155.123 107.58 155.398 106.322 155.962 105.186C156.526 104.049 157.363 103.069 158.398 102.332C161.938 99.9418 183.751 93.7927 193.611 97.5012C197.304 98.8874 198.141 102.451 199.524 107.632C200.249 110.362 199.779 111.221 201.913 115.108C204.048 118.994 200.651 122.414 196.214 122.397C186.961 122.272 177.794 120.613 169.087 117.489C157.801 113.245 155.387 115.32 152.871 116.613C152.871 116.613 151.037 111.203 155.165 108.848" fill="#5A5BB5"/>
<path fill-rule="evenodd" clip-rule="evenodd" d="M156.868 109.005C158.768 108.598 160.727 108.55 162.644 108.862C162.746 108.884 162.852 108.866 162.939 108.811C163.027 108.756 163.089 108.668 163.113 108.567C163.139 108.469 163.125 108.364 163.074 108.276C163.023 108.188 162.939 108.123 162.84 108.097L162.815 108.092C160.785 107.758 158.71 107.803 156.696 108.225C156.594 108.25 156.506 108.314 156.451 108.403C156.396 108.492 156.377 108.598 156.4 108.7C156.421 108.802 156.481 108.891 156.567 108.948C156.653 109.006 156.759 109.027 156.86 109.007H156.868" fill="#010211"/>
<path fill-rule="evenodd" clip-rule="evenodd" d="M198.88 111.685C198.88 111.685 194.676 113.956 184.619 111.656C184.569 111.643 184.518 111.64 184.468 111.647C184.418 111.654 184.369 111.671 184.325 111.697C184.282 111.722 184.243 111.756 184.213 111.797C184.182 111.837 184.16 111.883 184.147 111.932L184.142 111.951C184.12 112.053 184.138 112.159 184.193 112.248C184.248 112.337 184.336 112.401 184.438 112.425C194.895 114.808 199.261 112.378 199.261 112.378C199.347 112.324 199.409 112.24 199.434 112.142C199.46 112.044 199.447 111.94 199.398 111.852C199.349 111.763 199.269 111.697 199.172 111.665C199.076 111.634 198.971 111.642 198.88 111.685Z" fill="#010211"/>
<path fill-rule="evenodd" clip-rule="evenodd" d="M43.4842 195.002H250.614C250.72 195.002 250.821 194.96 250.896 194.886C250.971 194.811 251.012 194.71 251.012 194.605C251.012 194.5 250.971 194.399 250.896 194.324C250.821 194.25 250.72 194.208 250.614 194.208H43.4842C43.3786 194.208 43.2773 194.25 43.2026 194.324C43.1279 194.399 43.0859 194.5 43.0859 194.605C43.0859 194.71 43.1279 194.811 43.2026 194.886C43.2773 194.96 43.3786 195.002 43.4842 195.002Z" fill="#010211"/>
<path fill-rule="evenodd" clip-rule="evenodd" d="M120.783 116.531C120.009 114.886 119.404 113.168 118.978 111.402C118.633 109.571 117.8 107.867 116.567 106.468C115.709 105.613 114.28 106.468 114.28 106.468C114.28 106.468 109.93 100.589 108.108 98.1223C107.896 97.8405 107.582 97.6528 107.233 97.5995C106.884 97.5462 106.528 97.6316 106.241 97.8373C105.95 98.0536 105.749 98.37 105.678 98.7254C105.607 99.0807 105.671 99.4497 105.857 99.7608C107.295 102.156 110.529 107.51 110.529 107.51C109.984 107.708 109.483 108.013 109.057 108.405C108.631 108.798 108.287 109.272 108.046 109.798C108.046 109.798 106.108 110.814 106.01 112.631C105.621 113.056 105.341 113.569 105.194 114.126C105.048 114.683 105.04 115.267 105.171 115.828C105.613 117.769 108.047 119.435 109.414 120.246C110.413 120.917 111.307 121.73 112.069 122.661L116.24 121.414L120.783 116.531Z" fill="#F2F5F7"/>
<path fill-rule="evenodd" clip-rule="evenodd" d="M121.07 116.799C121.126 116.743 121.163 116.671 121.176 116.593C121.189 116.514 121.177 116.434 121.142 116.363C120.381 114.753 119.788 113.07 119.372 111.339C119.01 109.425 118.137 107.643 116.844 106.183C116.649 105.994 116.413 105.852 116.154 105.769C115.896 105.685 115.621 105.662 115.352 105.702C115.026 105.74 114.706 105.827 114.406 105.96L108.421 97.8911C108.152 97.5243 107.748 97.2789 107.298 97.2089C106.848 97.1389 106.389 97.2501 106.021 97.5179L106.009 97.5258C105.636 97.7977 105.379 98.1991 105.288 98.6509C105.197 99.1027 105.279 99.572 105.518 99.9664L109.958 107.332C108.981 107.782 108.191 108.556 107.725 109.523C107.184 109.835 106.715 110.258 106.352 110.765C105.988 111.272 105.738 111.851 105.617 112.462C105.22 112.935 104.938 113.493 104.794 114.093C104.65 114.693 104.647 115.318 104.786 115.918C105.036 116.808 105.517 117.615 106.18 118.259C107.083 119.166 108.101 119.95 109.208 120.593C110.171 121.234 111.032 122.015 111.763 122.909C111.812 122.97 111.878 123.016 111.953 123.04C112.028 123.063 112.108 123.065 112.183 123.043L116.355 121.797C116.421 121.773 116.481 121.737 116.532 121.69L121.07 116.799ZM120.311 116.446L116.026 121.062L112.212 122.202C111.459 121.321 110.587 120.549 109.621 119.908C108.575 119.304 107.611 118.567 106.754 117.716C106.192 117.172 105.783 116.491 105.567 115.74C105.452 115.245 105.458 114.729 105.584 114.236C105.71 113.744 105.952 113.288 106.291 112.908C106.359 112.838 106.4 112.747 106.406 112.649C106.495 112.119 106.707 111.616 107.025 111.182C107.343 110.748 107.758 110.393 108.237 110.147C108.283 110.125 108.323 110.094 108.355 110.056C108.388 110.018 108.411 109.973 108.425 109.925C108.643 109.454 108.952 109.031 109.335 108.681C109.719 108.331 110.168 108.06 110.658 107.886C110.713 107.866 110.764 107.834 110.805 107.792C110.847 107.751 110.879 107.701 110.899 107.646C110.922 107.591 110.932 107.532 110.927 107.473C110.922 107.414 110.904 107.357 110.873 107.307L106.201 99.5579C106.064 99.3322 106.017 99.0638 106.068 98.8052C106.119 98.5465 106.266 98.3162 106.478 98.1593C106.679 98.0137 106.929 97.9527 107.175 97.9893C107.421 98.0259 107.642 98.1574 107.791 98.3552L113.964 106.701C114.022 106.782 114.109 106.839 114.208 106.859C114.307 106.879 114.409 106.86 114.495 106.807C114.786 106.64 115.108 106.531 115.442 106.487C115.594 106.462 115.749 106.473 115.896 106.517C116.043 106.562 116.178 106.64 116.291 106.745C117.47 108.083 118.265 109.714 118.591 111.465C118.992 113.183 119.569 114.854 120.315 116.452" fill="#010211"/>
<path fill-rule="evenodd" clip-rule="evenodd" d="M125.247 119.939C125.778 119.935 126.304 120.041 126.792 120.25C127.28 120.46 127.718 120.768 128.079 121.156C130.528 123.495 135.441 128.725 143.417 139.469C143.417 139.469 148.825 121.105 152.758 116.792C156.691 112.479 172.131 118.707 168.293 135.498C164.454 152.289 158.148 167.784 147.546 168.031C136.943 168.278 129.503 158.429 121.75 147.532C113.997 136.634 112.759 130.138 113.535 127.902C113.563 127.815 113.597 127.73 113.638 127.648C113.424 127.214 112.691 126.049 112.085 124.912C111.815 124.397 111.715 123.81 111.798 123.235C111.881 122.66 112.143 122.125 112.547 121.706C114.774 119.436 117.434 117.632 120.369 116.399C120.761 116.237 121.194 116.203 121.606 116.302C122.018 116.402 122.389 116.629 122.663 116.951C123.704 118.15 125.248 119.947 125.248 119.947" fill="#F2F5F7"/>
<path fill-rule="evenodd" clip-rule="evenodd" d="M125.435 119.548C125.059 119.114 123.842 117.686 122.957 116.683C122.625 116.302 122.183 116.034 121.691 115.916C121.199 115.798 120.682 115.837 120.213 116.027C117.227 117.283 114.521 119.119 112.254 121.429C111.791 121.906 111.492 122.516 111.398 123.173C111.305 123.83 111.422 124.5 111.734 125.086C112.271 126.115 112.919 127.153 113.201 127.662C113.175 127.731 113.158 127.766 113.158 127.774C112.835 128.719 112.826 130.37 113.474 132.75C114.412 136.178 116.733 141.17 121.425 147.761C125.319 153.238 129.136 158.443 133.308 162.255C137.539 166.115 142.146 168.548 147.556 168.432C151.916 168.33 155.584 165.744 158.646 161.542C163.15 155.385 166.375 145.722 168.687 135.592C171.43 123.54 164.457 116.821 158.673 115.386C156.087 114.74 153.723 115.157 152.461 116.533C151.268 117.842 149.919 120.445 148.64 123.439C146.209 129.139 143.965 136.292 143.265 138.605C135.545 128.262 130.769 123.177 128.354 120.88C127.979 120.478 127.528 120.154 127.027 119.927C126.525 119.7 125.984 119.574 125.434 119.556M124.948 120.203C124.984 120.245 125.028 120.279 125.078 120.302C125.128 120.326 125.183 120.338 125.238 120.339C125.72 120.338 126.197 120.437 126.638 120.629C127.08 120.821 127.477 121.102 127.804 121.454C130.244 123.784 135.141 129.007 143.091 139.719C143.136 139.778 143.197 139.823 143.266 139.85C143.335 139.877 143.411 139.885 143.484 139.872C143.556 139.858 143.624 139.824 143.678 139.775C143.732 139.725 143.771 139.661 143.79 139.59C143.79 139.59 146.435 130.617 149.371 123.762C150.61 120.863 151.886 118.344 153.046 117.078C154.147 115.869 156.219 115.597 158.471 116.159C163.982 117.527 170.526 123.957 167.907 135.424C165.62 145.443 162.455 154.994 158.003 161.092C155.102 165.063 151.655 167.547 147.527 167.649C142.332 167.77 137.912 165.395 133.843 161.679C129.706 157.902 125.927 152.739 122.073 147.312C117.458 140.832 115.164 135.924 114.242 132.548C113.645 130.396 113.612 128.889 113.91 128.04C113.936 127.962 113.967 127.885 114.004 127.811C114.043 127.706 114.04 127.59 113.995 127.488C113.781 127.047 113.048 125.879 112.434 124.731C112.205 124.292 112.119 123.791 112.19 123.301C112.26 122.81 112.483 122.354 112.827 121.996C115.016 119.761 117.633 117.986 120.521 116.774C120.836 116.646 121.183 116.619 121.514 116.698C121.845 116.777 122.142 116.958 122.364 117.215C123.404 118.415 124.949 120.208 124.949 120.208" fill="#010211"/>
<path fill-rule="evenodd" clip-rule="evenodd" d="M143.077 139.667C145.072 143.232 146.527 147.073 147.395 151.063C147.405 151.113 147.425 151.161 147.454 151.204C147.483 151.247 147.52 151.284 147.563 151.313C147.606 151.342 147.654 151.362 147.705 151.372C147.756 151.382 147.808 151.382 147.859 151.372C147.909 151.362 147.958 151.342 148.001 151.313C148.044 151.285 148.081 151.248 148.11 151.205C148.138 151.162 148.159 151.114 148.169 151.063C148.179 151.013 148.179 150.961 148.169 150.91C147.289 146.831 145.804 142.906 143.764 139.263C143.738 139.218 143.703 139.179 143.662 139.147C143.62 139.116 143.573 139.093 143.522 139.079C143.42 139.053 143.312 139.067 143.221 139.12C143.13 139.173 143.063 139.26 143.036 139.362C143.01 139.464 143.025 139.572 143.078 139.663" fill="#010211"/>
<path fill-rule="evenodd" clip-rule="evenodd" d="M115.582 127.036C115.582 127.036 120.425 122.388 123.635 121.408C123.736 121.378 123.82 121.309 123.87 121.216C123.92 121.124 123.931 121.016 123.901 120.915C123.869 120.815 123.799 120.732 123.707 120.682C123.614 120.633 123.506 120.622 123.405 120.65C120.069 121.666 115.025 126.467 115.025 126.467C114.951 126.54 114.908 126.64 114.906 126.745C114.904 126.85 114.944 126.951 115.016 127.027C115.052 127.065 115.094 127.095 115.142 127.116C115.189 127.137 115.241 127.148 115.293 127.149C115.345 127.15 115.396 127.141 115.445 127.123C115.493 127.104 115.537 127.076 115.575 127.04" fill="#010211"/>
</g>
<defs>
<clipPath id="clip0_11892_31178">
<rect width="300" height="195" fill="white"/>
</clipPath>
</defs>
</svg>
