<svg width="512" height="512" viewBox="0 0 512 512" fill="none" xmlns="http://www.w3.org/2000/svg">
<g opacity="0.3">
<path d="M343.626 301.962L343.516 302.026C343.233 302.193 342.946 302.357 342.662 302.518C325.072 312.602 305.017 317.93 284.603 317.93C260.739 317.93 237.8 310.795 218.26 297.3L217.974 297.099L232.621 277.736C247.964 288.185 265.936 293.707 284.603 293.707C299.906 293.707 314.956 289.925 328.332 282.739C329.021 282.368 329.71 281.989 330.391 281.6L343.626 301.962Z" fill="#5A5BB5"/>
<path d="M224.167 271.234L209.699 290.779C183.213 268.64 168.056 236.328 168.056 201.854C168.056 200.809 168.071 199.762 168.101 198.714C171.121 196.144 174.945 193.383 179.708 190.75C184.097 188.323 188.894 186.224 194.027 184.478C192.932 190.182 192.377 196.004 192.377 201.854C192.377 228.586 203.935 253.754 224.167 271.234Z" fill="#5A5BB5"/>
<path d="M401.149 201.855C401.149 222.381 397.111 240.742 389.149 256.43C381.046 272.398 368.841 285.674 352.867 295.898L352.815 295.931L352.306 296.223L339.332 275.79C362.821 258.514 376.825 230.916 376.825 201.855C376.825 151.207 335.453 110.002 284.603 110.002C266.04 110.002 248.382 115.375 233.173 125.596C233.884 120.369 235.211 115.418 237.141 110.798C239.977 104.01 244.195 97.8194 249.675 92.3977L251.609 90.4872C262.249 87.3587 273.292 85.7793 284.603 85.7793C300.336 85.7793 315.6 88.8501 329.967 94.9035C343.846 100.747 356.31 109.118 367.014 119.776C377.715 130.438 386.12 142.851 391.988 156.671C398.066 170.983 401.149 186.185 401.149 201.855Z" fill="#5A5BB5"/>
<path d="M220.974 134.346C220.876 151.018 225.768 163.635 225.82 163.76L227.027 166.831L223.724 167.071C214.008 167.775 204.807 169.324 196.375 171.669C188.29 173.929 180.788 176.951 174.085 180.657C157.016 190.094 149.849 201.323 148.587 203.479C148.434 203.737 148.358 203.886 148.34 203.917L145.876 208.734L143.89 203.71L136.653 185.328L196.14 140.029L221.745 70.8379L243.925 81.8179L241.51 84.2083C234.938 90.7052 229.866 98.1589 226.442 106.36C222.87 114.898 221.032 124.314 220.974 134.346Z" fill="#5A5BB5"/>
<path d="M149.6 91.8714L216.632 50.7881L185.068 133.811L110.851 181.483L149.6 91.8714Z" fill="#5A5BB5"/>
<path d="M284.602 265.62C253.02 265.62 227.323 240.027 227.323 208.569C227.323 177.111 253.02 151.521 284.602 151.521C316.184 151.521 341.881 177.114 341.881 208.569C341.881 240.024 316.184 265.62 284.602 265.62Z" fill="#5A5BB5"/>
<path d="M141.274 197.505C141.78 198.531 142.329 199.679 141.787 200.739C140.991 200.068 140.844 199.117 140.253 198.452C139.688 197.817 139.246 197.061 138.371 196.678C139.133 198.164 140.533 199.397 140.53 201.067C140.478 201.611 140.103 201.839 139.591 201.593C139.286 201.398 139.252 201.386 138.746 201.158C138.682 201.599 138.798 201.948 138.838 202.37C138.886 204.317 134.964 200.077 134.47 199.324C135.059 200.515 135.858 201.815 136.715 202.917C136.928 203.19 137.145 203.452 137.365 203.695C136.581 203.752 136.23 203.725 135.773 203.458C132.269 200.493 128.554 196.25 128.453 191.557C127.166 190.47 124.995 189.79 125.453 187.879C125.623 187.253 125.37 186.774 124.971 186.272C122.321 182.962 119.545 179.745 117.057 176.31C116.685 175.797 116.645 175.766 116.27 175.104C117.304 174.32 117.892 173.877 119.304 172.887C119.414 173.172 120.021 174.329 120.375 174.773C120.884 175.693 126.743 183.259 128.405 185.133C128.737 185.17 129.185 185.209 129.628 185.273C131.143 185.534 131.293 187.448 131.68 188.681C135.855 190.142 139.133 193.605 141.277 197.505H141.274Z" fill="#5A5BB5"/>
<path d="M70.5699 460.627C62.5582 460.627 55.5724 458.971 49.6125 455.657C43.7503 452.246 39.1582 447.471 35.8363 441.331C32.6121 435.191 31 427.98 31 419.696C31 411.412 32.6121 404.249 35.8363 398.207C39.1582 392.067 43.7503 387.291 49.6125 383.881C55.4747 380.47 62.4117 378.764 70.4233 378.764C78.2396 378.764 85.03 380.47 90.7945 383.881C96.559 387.291 101.005 392.164 104.131 398.499C107.355 404.834 108.967 412.387 108.967 421.158V425.543H53.7161C54.0092 431.78 55.6701 436.41 58.6989 439.431C61.8254 442.452 65.929 443.962 71.0096 443.962C74.7223 443.962 77.8 443.183 80.2425 441.623C82.7828 440.064 84.5904 437.676 85.6651 434.46L107.795 435.776C105.743 443.573 101.395 449.664 94.7515 454.049C88.1077 458.435 80.0471 460.627 70.5699 460.627ZM53.7161 412.094H86.3979C86.1048 406.344 84.4926 402.056 81.5615 399.23C78.7281 396.404 75.0154 394.991 70.4233 394.991C65.8313 394.991 62.0208 396.501 58.992 399.522C56.0609 402.446 54.3023 406.637 53.7161 412.094Z" fill="#5A5BB5"/>
<path d="M119.735 425.251V407.27H170.003V425.251H119.735Z" fill="#5A5BB5"/>
<path d="M186.269 458.873V355.082H208.546V452.88L196.235 440.162H256.469V458.873H186.269Z" fill="#5A5BB5"/>
<path d="M267.848 458.873V355.082H297.599L324.125 430.66L350.505 355.082H380.256V458.873H357.979V391.628L333.505 458.581H314.453L290.124 391.628V458.873H267.848Z" fill="#5A5BB5"/>
<path d="M440.844 461.212C431.855 461.212 424.137 459.702 417.688 456.68C411.24 453.659 406.208 449.42 402.593 443.962C398.978 438.505 396.926 432.073 396.438 424.666L418.861 423.643C419.447 427.736 420.619 431.244 422.378 434.168C424.234 436.994 426.677 439.138 429.706 440.6C432.832 442.062 436.643 442.793 441.137 442.793C444.85 442.793 447.976 442.354 450.517 441.477C453.154 440.6 455.157 439.285 456.525 437.53C457.893 435.679 458.577 433.437 458.577 430.806C458.577 428.369 457.991 426.274 456.818 424.52C455.646 422.668 453.399 421.011 450.077 419.55C446.755 417.99 441.87 416.48 435.421 415.018C426.53 412.971 419.349 410.681 413.878 408.147C408.504 405.613 404.596 402.446 402.153 398.645C399.711 394.747 398.489 389.874 398.489 384.027C398.489 377.789 400.004 372.332 403.033 367.654C406.159 362.976 410.654 359.321 416.516 356.69C422.378 354.059 429.364 352.743 437.473 352.743C446.071 352.743 453.35 354.254 459.31 357.275C465.27 360.296 469.911 364.438 473.233 369.701C476.652 374.963 478.704 381.006 479.388 387.827L457.111 388.997C456.818 385.391 455.841 382.272 454.18 379.641C452.519 376.912 450.272 374.817 447.439 373.355C444.605 371.893 441.186 371.162 437.18 371.162C432.099 371.162 428.094 372.283 425.162 374.525C422.329 376.766 420.912 379.69 420.912 383.296C420.912 385.83 421.547 387.974 422.818 389.728C424.185 391.385 426.384 392.847 429.413 394.113C432.539 395.38 436.936 396.599 442.603 397.768C452.275 399.717 459.896 402.202 465.465 405.223C471.132 408.147 475.138 411.656 477.483 415.749C479.828 419.842 481 424.52 481 429.783C481 436.215 479.339 441.818 476.017 446.594C472.793 451.272 468.152 454.878 462.094 457.411C456.134 459.945 449.051 461.212 440.844 461.212Z" fill="#5A5BB5"/>
</g>
</svg>
