<svg width="280" height="274" viewBox="0 0 280 274" fill="none" xmlns="http://www.w3.org/2000/svg">
<g clip-path="url(#clip0_3805_20826)">
<g opacity="0.1">
<path d="M25.3115 274C28.4334 267.939 0.478592 219.643 0.0302833 207.444C-1.3172 170.831 42.7323 170.539 46.5827 140.638C50.0334 113.841 5.18028 81.4936 32.9208 56.1485C56.67 34.4489 83.1185 43.4849 110.845 36.0081C127.381 31.5496 128.648 16.2365 141.712 7.51716C170.025 -11.3789 231.832 8.09394 247.974 35.5169C263.457 61.8196 229.709 84.9877 238.36 110.182C245.316 130.442 267.457 140.43 268.72 163.725C269.725 182.265 251.007 194.899 253.54 213.339C256.968 238.301 301.693 244.638 266.696 273.758" fill="url(#paint0_linear_3805_20826)"/>
<path d="M25.3115 274C28.4334 267.939 0.478592 219.643 0.0302833 207.444C-1.3172 170.831 42.7323 170.539 46.5827 140.638C50.0334 113.841 5.18028 81.4936 32.9208 56.1485C56.67 34.4489 83.1185 43.4849 110.845 36.0081C127.381 31.5496 128.648 16.2365 141.712 7.51716C170.025 -11.3789 231.832 8.09394 247.974 35.5169C263.457 61.8196 229.709 84.9877 238.36 110.182C245.316 130.442 267.457 140.43 268.72 163.725C269.725 182.265 251.007 194.899 253.54 213.339C256.968 238.301 301.693 244.638 266.696 273.758" fill="url(#paint1_linear_3805_20826)" fill-opacity="0.28"/>
</g>
<rect x="46.3696" y="270.815" width="185.423" height="3.17105" rx="1.58552" fill="#548DC2"/>
<g clip-path="url(#clip1_3805_20826)">
<path d="M122.514 191.172C122.514 180.896 130.829 172.564 141.086 172.564C151.344 172.564 159.658 180.896 159.658 191.172C159.658 201.449 151.343 209.781 141.086 209.781C130.83 209.781 122.514 201.45 122.514 191.172Z" fill="#5A5BB5"/>
<path d="M122.514 191.172C122.514 180.896 130.829 172.564 141.086 172.564C151.344 172.564 159.658 180.896 159.658 191.172C159.658 201.449 151.343 209.781 141.086 209.781C130.83 209.781 122.514 201.45 122.514 191.172Z" fill="black" fill-opacity="0.2"/>
<path d="M120.338 191.172C120.338 180.896 128.653 172.564 138.91 172.564C149.167 172.564 157.483 180.896 157.483 191.172C157.483 201.449 149.168 209.781 138.91 209.781C128.653 209.781 120.338 201.45 120.338 191.172Z" fill="#5A5BB5"/>
<path d="M120.338 191.172C120.338 180.896 128.653 172.564 138.91 172.564C149.167 172.564 157.483 180.896 157.483 191.172C157.483 201.449 149.168 209.781 138.91 209.781C128.653 209.781 120.338 201.45 120.338 191.172Z" fill="white" fill-opacity="0.46"/>
<path d="M141.074 79.1377C97.0543 79.1377 57.811 105.224 40.2369 144.853C38.5225 148.718 40.2651 153.24 44.1236 154.958C47.9813 156.675 52.4944 154.929 54.208 151.064C69.3519 116.915 103.152 94.4436 141.074 94.4436C178.996 94.4436 212.825 116.918 227.968 151.064C229.681 154.929 234.195 156.675 238.053 154.958C241.91 153.24 243.653 148.718 241.939 144.853C224.365 105.226 185.096 79.1377 141.074 79.1377Z" fill="#5A5BB5"/>
<path d="M141.074 79.1377C97.0543 79.1377 57.811 105.224 40.2369 144.853C38.5225 148.718 40.2651 153.24 44.1236 154.958C47.9813 156.675 52.4944 154.929 54.208 151.064C69.3519 116.915 103.152 94.4436 141.074 94.4436C178.996 94.4436 212.825 116.918 227.968 151.064C229.681 154.929 234.195 156.675 238.053 154.958C241.91 153.24 243.653 148.718 241.939 144.853C224.365 105.226 185.096 79.1377 141.074 79.1377Z" fill="black" fill-opacity="0.2"/>
<path d="M141.074 79.1377C97.0543 79.1377 57.811 105.224 40.2369 144.853C38.5225 148.718 40.2651 153.24 44.1236 154.958C47.9813 156.675 52.4944 154.929 54.208 151.064C69.3519 116.915 103.152 94.4436 141.074 94.4436C178.996 94.4436 212.825 116.918 227.968 151.064C229.681 154.929 234.195 156.675 238.053 154.958C241.91 153.24 243.653 148.718 241.939 144.853C224.365 105.226 185.096 79.1377 141.074 79.1377Z" fill="#5A5BB5"/>
<path d="M141.074 79.1377C97.0543 79.1377 57.811 105.224 40.2369 144.853C38.5225 148.718 40.2651 153.24 44.1236 154.958C47.9813 156.675 52.4944 154.929 54.208 151.064C69.3519 116.915 103.152 94.4436 141.074 94.4436C178.996 94.4436 212.825 116.918 227.968 151.064C229.681 154.929 234.195 156.675 238.053 154.958C241.91 153.24 243.653 148.718 241.939 144.853C224.365 105.226 185.096 79.1377 141.074 79.1377Z" fill="black" fill-opacity="0.2"/>
<path d="M138.898 79.1377C94.878 79.1377 55.6355 105.224 38.0607 144.853C36.347 148.718 38.0897 153.24 41.9474 154.958C45.8051 156.675 50.3189 154.929 52.0326 151.064C67.1765 116.915 100.977 94.4436 138.898 94.4436C176.819 94.4436 210.649 116.918 225.791 151.064C227.506 154.929 232.019 156.675 235.877 154.958C239.734 153.24 241.478 148.718 239.763 144.853C222.19 105.226 182.921 79.1377 138.898 79.1377Z" fill="#5A5BB5"/>
<path d="M138.898 79.1377C94.878 79.1377 55.6355 105.224 38.0607 144.853C36.347 148.718 38.0897 153.24 41.9474 154.958C45.8051 156.675 50.3189 154.929 52.0326 151.064C67.1765 116.915 100.977 94.4436 138.898 94.4436C176.819 94.4436 210.649 116.918 225.791 151.064C227.506 154.929 232.019 156.675 235.877 154.958C239.734 153.24 241.478 148.718 239.763 144.853C222.19 105.226 182.921 79.1377 138.898 79.1377Z" fill="white" fill-opacity="0.46"/>
<path d="M141.089 112.807C109.673 112.807 81.6583 131.425 69.1163 159.705C67.4026 163.57 69.1312 168.092 72.9889 169.81C76.8466 171.528 81.3737 169.795 83.0882 165.93C93.1993 143.131 115.772 128.127 141.089 128.127C166.405 128.127 188.979 143.133 199.088 165.93C200.803 169.795 205.316 171.528 209.173 169.81C213.031 168.092 214.774 163.57 213.06 159.705C200.52 131.426 172.505 112.806 141.089 112.807Z" fill="#5A5BB5"/>
<path d="M141.089 112.807C109.673 112.807 81.6583 131.425 69.1163 159.705C67.4026 163.57 69.1312 168.092 72.9889 169.81C76.8466 171.528 81.3737 169.795 83.0882 165.93C93.1993 143.131 115.772 128.127 141.089 128.127C166.405 128.127 188.979 143.133 199.088 165.93C200.803 169.795 205.316 171.528 209.173 169.81C213.031 168.092 214.774 163.57 213.06 159.705C200.52 131.426 172.505 112.806 141.089 112.807Z" fill="black" fill-opacity="0.2"/>
<path d="M141.089 112.807C109.673 112.807 81.6583 131.425 69.1163 159.705C67.4026 163.57 69.1312 168.092 72.9889 169.81C76.8466 171.528 81.3737 169.795 83.0882 165.93C93.1993 143.131 115.772 128.127 141.089 128.127C166.405 128.127 188.979 143.133 199.088 165.93C200.803 169.795 205.316 171.528 209.173 169.81C213.031 168.092 214.774 163.57 213.06 159.705C200.52 131.426 172.505 112.806 141.089 112.807Z" fill="#5A5BB5"/>
<path d="M141.089 112.807C109.673 112.807 81.6583 131.425 69.1163 159.705C67.4026 163.57 69.1312 168.092 72.9889 169.81C76.8466 171.528 81.3737 169.795 83.0882 165.93C93.1993 143.131 115.772 128.127 141.089 128.127C166.405 128.127 188.979 143.133 199.088 165.93C200.803 169.795 205.316 171.528 209.173 169.81C213.031 168.092 214.774 163.57 213.06 159.705C200.52 131.426 172.505 112.806 141.089 112.807Z" fill="black" fill-opacity="0.2"/>
<path d="M138.912 112.807C107.497 112.807 79.4817 131.425 66.9405 159.705C65.226 163.57 66.9546 168.092 70.8131 169.81C74.6708 171.528 79.1979 169.795 80.9124 165.93C91.0227 143.131 113.596 128.127 138.912 128.127C164.228 128.127 186.803 143.133 196.912 165.93C198.626 169.795 203.14 171.528 206.997 169.81C210.855 168.092 212.598 163.57 210.884 159.705C198.343 131.426 170.329 112.806 138.912 112.807Z" fill="#5A5BB5"/>
<path d="M138.912 112.807C107.497 112.807 79.4817 131.425 66.9405 159.705C65.226 163.57 66.9546 168.092 70.8131 169.81C74.6708 171.528 79.1979 169.795 80.9124 165.93C91.0227 143.131 113.596 128.127 138.912 128.127C164.228 128.127 186.803 143.133 196.912 165.93C198.626 169.795 203.14 171.528 206.997 169.81C210.855 168.092 212.598 163.57 210.884 159.705C198.343 131.426 170.329 112.806 138.912 112.807Z" fill="white" fill-opacity="0.46"/>
<path d="M141.088 148.775C121.038 148.775 103.163 160.658 95.1588 178.705C93.4451 182.571 95.1737 187.106 99.0314 188.824C102.889 190.541 107.402 188.795 109.117 184.93C114.689 172.364 127.137 164.095 141.088 164.095C155.04 164.095 167.474 172.365 173.046 184.93C174.759 188.795 179.287 190.541 183.145 188.824C187.003 187.106 188.731 182.571 187.017 178.705C179.014 160.658 161.139 148.775 141.088 148.775Z" fill="#5A5BB5"/>
<path d="M141.088 148.775C121.038 148.775 103.163 160.658 95.1588 178.705C93.4451 182.571 95.1737 187.106 99.0314 188.824C102.889 190.541 107.402 188.795 109.117 184.93C114.689 172.364 127.137 164.095 141.088 164.095C155.04 164.095 167.474 172.365 173.046 184.93C174.759 188.795 179.287 190.541 183.145 188.824C187.003 187.106 188.731 182.571 187.017 178.705C179.014 160.658 161.139 148.775 141.088 148.775Z" fill="black" fill-opacity="0.2"/>
<path d="M138.912 148.775C118.862 148.775 100.987 160.658 92.9834 178.705C91.269 182.571 92.9976 187.106 96.8553 188.824C100.713 190.541 105.227 188.795 106.94 184.93C112.513 172.364 124.961 164.095 138.912 164.095C152.863 164.095 165.297 172.365 170.87 184.93C172.584 188.795 177.111 190.541 180.969 188.824C184.827 187.106 186.555 182.571 184.842 178.705C176.838 160.658 158.963 148.775 138.912 148.775Z" fill="#6394C2"/>
<path d="M138.912 148.775C118.862 148.775 100.987 160.658 92.9834 178.705C91.269 182.571 92.9976 187.106 96.8553 188.824C100.713 190.541 105.227 188.795 106.94 184.93C112.513 172.364 124.961 164.095 138.912 164.095C152.863 164.095 165.297 172.365 170.87 184.93C172.584 188.795 177.111 190.541 180.969 188.824C184.827 187.106 186.555 182.571 184.842 178.705C176.838 160.658 158.963 148.775 138.912 148.775Z" fill="#5A5BB5"/>
<path d="M138.912 148.775C118.862 148.775 100.987 160.658 92.9834 178.705C91.269 182.571 92.9976 187.106 96.8553 188.824C100.713 190.541 105.227 188.795 106.94 184.93C112.513 172.364 124.961 164.095 138.912 164.095C152.863 164.095 165.297 172.365 170.87 184.93C172.584 188.795 177.111 190.541 180.969 188.824C184.827 187.106 186.555 182.571 184.842 178.705C176.838 160.658 158.963 148.775 138.912 148.775Z" fill="white" fill-opacity="0.46"/>
<path d="M235.257 112.808C235.257 125.91 224.612 136.531 211.48 136.531H211.475C198.343 136.531 187.698 125.91 187.698 112.808C187.698 99.7069 198.343 89.0869 211.475 89.0869H211.48C218.047 89.0869 223.991 91.7416 228.292 96.0353C232.596 100.326 235.257 106.259 235.257 112.808Z" fill="#5A5BB5"/>
<path d="M235.257 112.808C235.257 125.91 224.612 136.531 211.48 136.531H211.475C198.343 136.531 187.698 125.91 187.698 112.808C187.698 99.7069 198.343 89.0869 211.475 89.0869H211.48C218.047 89.0869 223.991 91.7416 228.292 96.0353C232.596 100.326 235.257 106.259 235.257 112.808Z" fill="white" fill-opacity="0.17"/>
<path d="M217.647 112.815L226.089 121.272L219.826 127.543L211.383 119.085L202.94 127.543L196.675 121.272L205.122 112.815L196.675 104.353L202.94 98.082L211.383 106.54L219.826 98.082L226.089 104.353L217.647 112.815Z" fill="white"/>
</g>
<g clip-path="url(#clip2_3805_20826)">
<path d="M226.39 200.407C226.39 200.407 221.18 198.575 218.526 205.941C217.652 208.364 216.288 216.244 215.808 219.603C213.874 233.167 216.716 254.801 216.716 254.801H219.681C219.681 254.801 215.57 233.13 216.756 219.548C217.15 215.032 218.226 208.827 219.198 205.941C221.339 199.585 226.39 200.407 226.39 200.407Z" fill="#7BBE70"/>
<path d="M224.554 200.384C224.976 200.415 224.328 200.287 223.802 199.593C221.325 196.333 223.475 192.345 227.046 191.36C227.657 191.191 228.492 191.138 229.459 191.208C229.526 191.213 228.535 192.299 228.002 193.496C227.306 195.063 227.01 196.839 227.01 196.839C227.01 196.839 227.826 195.068 228.827 193.697C229.829 192.325 230.971 191.347 231.016 191.353C232.699 191.574 233.892 192.068 235.75 193.002C235.878 193.066 235.744 193.509 235.744 193.509C235.744 193.509 236.537 193.423 236.736 193.541C237.66 194.089 238.536 194.738 239.309 195.493C243.548 199.632 245.284 206.336 245.284 206.336C245.284 206.336 241.711 202.51 236.583 203.078C235.856 203.158 235.356 203.122 234.758 203.389C234.703 203.413 232.98 203.203 231.64 202.591C230.302 201.98 229.252 201.17 229.252 201.17C229.252 201.17 230.223 202.501 231.301 203.219C232.378 203.938 233.599 204.023 233.56 204.045C231.069 205.42 229.962 207.878 227.388 208.573C227.274 208.604 226.352 208.163 226.352 208.163C226.352 208.163 226.804 208.696 226.683 208.71C226.102 208.781 225.47 208.755 224.77 208.604C219.649 207.497 220.839 200.108 224.554 200.384Z" fill="#85C67A"/>
<path d="M224.687 200.382L224.345 200.128C224.296 200.16 225.578 200.552 226.952 199.609C229.467 197.879 233.061 195.916 235.938 196.995C240.465 198.692 245.284 206.335 245.284 206.335C245.284 206.335 240.89 198.984 235.623 197.567C230.356 196.15 226.47 202.114 224.274 200.378L224.687 200.382Z" fill="#C3EDBC"/>
<path d="M226.39 200.407C225.705 200.636 225.246 202.747 226.201 204.355C227.156 205.964 230.212 206.84 230.212 206.84C230.212 206.84 227.31 205.763 226.523 204.074C225.736 202.384 226.388 200.861 226.872 200.182L226.39 200.407Z" fill="#C3EDBC"/>
<path d="M229.665 197.951C229.665 197.951 229.834 195.146 230.964 193.723C232.095 192.299 234.187 192.259 234.187 192.259C234.187 192.259 232.289 192.579 231.318 193.934C230.348 195.288 230.305 197.675 230.305 197.675L229.665 197.951Z" fill="#C3EDBC"/>
<path d="M239.392 210.778L234.318 208.204C234.318 208.204 224.752 202.499 220.687 213.843C216.623 225.188 218.07 254.801 218.07 254.801H220.004C220.004 254.801 218.501 225.913 221.8 214.618C225.098 203.322 233.53 208.728 233.53 208.728L239.392 210.778Z" fill="#72B068"/>
<path d="M232.504 209.713C231.673 210.177 227.251 214.731 228.571 217.7C230.407 221.833 233.097 219.145 233.097 219.145C233.097 219.145 233.239 221.219 234.644 221.503C236.277 221.833 236.654 220.922 239.394 221.175L232.504 209.713Z" fill="#5B9651"/>
<path d="M236.828 206.873C241.665 204.878 245.032 206.146 248.351 210.138C248.548 210.375 245.654 210.859 245.654 210.859C245.654 210.859 249.269 211.31 249.433 211.535C249.725 211.938 250.018 212.361 250.313 212.804C254.327 218.837 254.421 225.901 254.251 230.595C254.248 230.662 250.289 228.907 245.745 226.433C245.421 226.256 244.659 222.023 244.659 222.023C244.659 222.023 244.004 225.465 243.622 225.246C241.856 224.231 240.082 223.136 238.482 222.023C237.533 221.362 237.905 218.514 236.118 216.548C234.332 214.582 232.093 215.646 231.335 214.158C229.529 210.614 234.614 207.786 236.828 206.873Z" fill="#85C67A"/>
<path d="M234.76 207.911C234.76 207.911 239.888 210.151 244.761 215.822C249.634 221.493 254.251 230.595 254.251 230.595C254.251 230.595 249.236 221.769 244.056 216.303C238.875 210.836 233.529 208.728 233.529 208.728L234.76 207.911Z" fill="#C3EDBC"/>
<path d="M240.902 213.357C240.902 213.357 239.743 213.949 238.718 215.797C237.694 217.645 237.859 220.798 237.859 220.798C237.859 220.798 237.855 217.709 239.078 216.03C240.3 214.351 241.693 214.031 241.693 214.031L240.902 213.357Z" fill="#C3EDBC"/>
<path d="M245.499 216.707L246.085 217.451C246.085 217.451 246.553 216.681 248.02 216.262C249.489 215.843 251.959 215.774 251.959 215.774C251.959 215.774 249.533 215.508 247.918 215.741C246.303 215.975 245.499 216.707 245.499 216.707Z" fill="#C3EDBC"/>
<path d="M247.977 221.033L248.554 221.817C248.554 221.817 247.668 222.154 246.967 223.308C246.264 224.462 245.746 226.433 245.746 226.433C245.746 226.433 245.936 224.476 246.494 223.126C247.052 221.777 247.977 221.033 247.977 221.033Z" fill="#C3EDBC"/>
<path d="M206.264 211.553C206.264 211.553 208.814 213.177 211.584 216.18C214.94 219.818 218.961 224.995 220.331 230.096C222.832 239.407 221.247 254.801 221.247 254.801H218.505C218.505 254.801 220.956 239.941 219.183 230.595C218.214 225.485 214.511 220.171 211.355 216.405C208.739 213.283 206.264 211.553 206.264 211.553Z" fill="#81C476"/>
<path d="M201.117 209.423C207.881 211.344 212.453 215.792 211.673 217.973C210.818 220.365 208.496 222.13 206.282 223.179C201.271 225.551 200.531 222.365 199.437 218.732C199.35 218.443 199.929 217.695 199.929 217.695C199.929 217.695 199.062 217.537 199.008 217.376C198.905 217.076 198.618 216.43 198.5 216.134C198.427 215.95 199.351 216.151 199.351 216.151C199.351 216.151 198.298 215.607 198.218 215.449C197.519 214.062 196.533 212.854 194.957 212.163C193.92 211.707 192.921 211.356 191.98 211.085C191.768 211.023 191.631 210.501 191.631 210.501C191.631 210.501 191.161 210.864 191.065 210.84C187.261 209.91 184.618 210.292 184.618 210.292C184.618 210.292 194.353 207.502 201.117 209.423Z" fill="#85C67A"/>
<path d="M191.021 210.833C191.16 210.872 191.702 210.333 191.702 210.333C191.702 210.333 191.824 211.038 191.98 211.085C193.411 211.51 195.017 212.028 196.099 212.821C197.36 213.744 197.92 214.902 197.92 214.902C197.92 214.902 194.387 212.685 191.464 211.974C188.541 211.261 184.618 210.292 184.618 210.292C184.618 210.292 187.555 209.86 191.021 210.833Z" fill="#5B9651"/>
<path d="M193.604 208.807C189.936 209.024 186.643 209.774 185.287 210.116C185.287 210.116 184.613 210.292 184.618 210.292C184.799 210.251 195.649 207.835 202.141 210.088C208.664 212.352 211.733 217.372 211.755 217.408C211.702 215.095 207.339 211.189 201.117 209.423C198.792 208.762 196.116 208.659 193.604 208.807Z" fill="#C3EDBC"/>
<path d="M209.241 213.615C209.481 215.191 209.186 216.857 208.284 218.319C206.573 221.095 203.23 222.243 200.262 221.29C200.263 221.291 200.263 221.292 200.263 221.292C200.31 221.414 200.362 221.527 200.412 221.643C203.457 222.792 206.984 221.664 208.758 218.786C209.668 217.31 209.961 215.628 209.708 214.039C209.559 213.898 209.405 213.756 209.241 213.615Z" fill="#C3EDBC"/>
<path d="M203.276 210.148C203.669 211.286 203.691 212.56 203.245 213.778C202.54 215.703 200.857 216.984 198.965 217.266C198.979 217.302 198.998 217.347 199.007 217.377C199.012 217.39 199.025 217.404 199.04 217.418C199.044 217.421 199.049 217.426 199.054 217.429C199.063 217.436 199.074 217.442 199.085 217.448C199.103 217.459 199.123 217.469 199.146 217.479C199.202 217.505 199.267 217.53 199.341 217.553C199.343 217.553 199.345 217.554 199.347 217.554C201.259 217.29 202.966 216.003 203.678 214.06C204.141 212.796 204.102 211.472 203.665 210.303C203.537 210.25 203.407 210.199 203.276 210.148Z" fill="#C3EDBC"/>
<path d="M195.749 208.748C195.725 208.845 195.702 208.941 195.671 209.037C195.324 210.136 194.658 211.045 193.809 211.697C193.981 211.762 194.156 211.828 194.331 211.9H194.332C195.145 211.253 195.781 210.365 196.117 209.298C196.174 209.119 196.22 208.938 196.257 208.757C196.088 208.752 195.919 208.75 195.749 208.748Z" fill="#C3EDBC"/>
<path d="M210.618 248.851V259.769C210.618 264.374 214.344 268.108 218.939 268.108C223.535 268.108 227.261 264.374 227.261 259.769V248.851H210.618Z" fill="#C1C1C1"/>
<path d="M226.716 269.435C225.779 268.672 222.531 268.108 218.667 268.108C214.803 268.108 211.555 268.672 210.618 269.435H226.716Z" fill="#C1C1C1"/>
<path d="M210.618 253.461V258.156H227.261V253.461H210.618Z" fill="#303030"/>
<path d="M211.397 255.795L212.483 253.443L213.569 255.795L212.483 258.148L211.397 255.795Z" fill="#5E5E5E"/>
<path d="M210.618 254.107V257.481L211.397 255.794L210.618 254.107Z" fill="#5E5E5E"/>
<path d="M213.569 255.803L214.655 253.451L215.741 255.803L214.655 258.155L213.569 255.803Z" fill="#5E5E5E"/>
<path d="M215.741 255.803L216.827 253.451L217.913 255.803L216.827 258.155L215.741 255.803Z" fill="#5E5E5E"/>
<path d="M217.913 255.803L218.999 253.451L220.084 255.803L218.999 258.155L217.913 255.803Z" fill="#5E5E5E"/>
<path d="M220.084 255.795L221.17 253.443L222.256 255.795L221.17 258.148L220.084 255.795Z" fill="#5E5E5E"/>
<path d="M222.257 255.803L223.343 253.451L224.429 255.803L223.343 258.155L222.257 255.803Z" fill="#5E5E5E"/>
<path d="M224.429 255.803L225.515 253.451L226.601 255.803L225.515 258.155L224.429 255.803Z" fill="#5E5E5E"/>
<path d="M227.261 254.107L226.539 255.672L226.482 255.794L226.542 255.927L227.261 257.481V254.107Z" fill="#5E5E5E"/>
<path d="M209.81 248.143H228.187V248.85C228.187 249.24 227.872 249.557 227.482 249.557H210.516C210.126 249.557 209.81 249.24 209.81 248.85V248.143Z" fill="#8B8B8B"/>
<path d="M209.478 270.849H227.856V270.142C227.856 269.751 227.539 269.435 227.15 269.435H210.183C209.794 269.435 209.478 269.751 209.478 270.142V270.849Z" fill="#8B8B8B"/>
<path d="M214.974 267.62H222.359C222.628 267.62 222.845 267.838 222.845 268.107C222.845 268.377 222.628 268.594 222.359 268.594H214.974C214.705 268.594 214.488 268.376 214.488 268.107C214.488 267.839 214.705 267.62 214.974 267.62Z" fill="#8B8B8B"/>
</g>
<g clip-path="url(#clip3_3805_20826)">
<path d="M53.3906 260.276L54.1848 263.976L59.1314 263.688L58.9361 259.678L53.3906 260.276Z" fill="#F7D2AD"/>
<path d="M53.0336 151.789L52.0947 153.653L45.7283 158.218L47.0486 186.286L44.2012 201.316C44.2012 201.316 56.7748 203.485 63.6298 203.805C70.4841 204.124 71.6191 202.592 71.6191 202.592L70.8877 159.107L65.0022 155.796L63.7883 153.918L53.0336 151.789Z" fill="#5A5BB5"/>
<path d="M53.0336 151.789L52.0947 153.653L45.7283 158.218L47.0486 186.286L44.2012 201.316C44.2012 201.316 56.7748 203.485 63.6298 203.805C70.4841 204.124 71.6191 202.592 71.6191 202.592L70.8877 159.107L65.0022 155.796L63.7883 153.918L53.0336 151.789Z" fill="white" fill-opacity="0.45"/>
<path d="M63.7879 153.918L63.6294 157.881L67.9778 202.422L73.4214 201.556L70.8873 159.107L65.0018 155.796L63.7879 153.918Z" fill="#5A5BB5"/>
<path d="M63.7879 153.918L63.6294 157.881L64.6235 157.373L65.6198 158.602L65.6367 156.154L65.0018 155.796L63.7879 153.918Z" fill="#5A5BB5"/>
<path d="M63.7879 153.918L63.6294 157.881L64.6235 157.373L65.6198 158.602L65.6367 156.154L65.0018 155.796L63.7879 153.918Z" fill="black" fill-opacity="0.2"/>
<path d="M61.2502 266.937L59.0652 261.403L56.5433 260.418L53.6454 261.557L53.1055 269.503C53.1055 269.503 53.6477 266.732 55.2069 265.701C56.767 264.67 61.2502 266.937 61.2502 266.937Z" fill="black"/>
<path d="M62.0559 269.503C62.0559 267.026 60.0517 265.019 57.5803 265.019C55.1089 265.019 53.1055 267.026 53.1055 269.503C53.1055 271.98 62.0559 271.98 62.0559 269.503Z" fill="black"/>
<path d="M62.0559 269.503C62.0559 267.026 60.0517 265.019 57.5803 265.019C55.1089 265.019 53.1055 267.026 53.1055 269.503C53.1055 271.98 62.0559 271.98 62.0559 269.503Z" fill="white" fill-opacity="0.2"/>
<path d="M61.9486 268.54C61.9493 268.545 61.9509 268.549 61.9516 268.554L61.9555 269.939C61.9555 269.939 61.6568 270.276 61.1889 270.655C59.0422 271.834 53.6277 271.527 53.1613 269.747L53.1406 269.146C53.1437 269.106 53.1498 269.067 53.1544 269.027C53.1812 269.034 55.3907 269.623 57.5802 269.503C59.7812 269.383 61.944 268.542 61.9486 268.54Z" fill="#1C1A1A"/>
<path d="M48.6441 202.035L55.2448 214.106L60.2703 218.036L65.6373 231.12L47.8101 251.459L55.2448 258.322C55.2448 258.322 75.1215 238.396 77.3677 233.607C80.2297 227.505 71.6193 202.592 71.6193 202.592L48.6441 202.035Z" fill="#0C2F51"/>
<path d="M63.6911 202.401L57.8263 232.087L59.4376 259.625L52.1659 260.409L48.4225 229.027L44.2012 201.317L63.6911 202.401Z" fill="#0C2F51"/>
<path d="M47.8095 251.458L44.0622 256.053C44.0622 256.053 42.8108 259.902 44.2008 260.91C45.5908 261.919 48.8219 261.326 48.8219 261.326L51.7459 256.892L51.5552 254.916L47.8095 251.458Z" fill="#F7D2AD"/>
<path d="M50.6715 261.249L49.6223 260.088C49.6223 260.088 48.2361 261.574 46.8821 261.291C45.5281 261.008 45.1229 260.32 44.2055 258.955C43.288 257.591 44.0623 256.053 44.0623 256.053L39.5361 260.706C39.5361 260.706 40.557 262.595 42.1737 264.319C43.2918 265.512 44.58 266.259 45.3711 267.296C47.3048 269.833 47.2734 270.854 47.2734 270.854L55.821 271.361C55.821 271.361 56.5661 269.16 55.5438 268.059C54.5214 266.958 52.2422 266.987 52.2422 266.987L50.6715 261.249Z" fill="black"/>
<path d="M40.4467 259.77L39.5361 260.705C39.5361 260.705 40.472 262.36 41.8306 263.94C42.601 264.838 43.602 265.586 44.413 266.305C46.7297 268.36 47.2734 270.854 47.2734 270.854L55.821 271.36C55.821 271.36 55.9251 271.01 56.0117 270.552C56.0982 270.094 56.0752 269.481 56.0752 269.481L48.7101 268.942C48.7101 268.942 47.2658 266.545 45.8597 265.016C44.4544 263.486 44.3081 263.976 43.0866 262.824C41.8651 261.672 40.4467 259.77 40.4467 259.77Z" fill="#363636"/>
<path d="M61.487 154.261L62.3547 155.301L61.533 158.218L55.7593 153.907L56.7472 152.151C56.7472 152.151 53.3209 150.19 53.2198 146.188C53.1187 142.184 54.9536 139.597 59.044 139.231C63.1344 138.864 65.9389 141.32 65.9389 141.32L61.487 154.261Z" fill="#F7D2AD"/>
<path d="M62.5652 155.043L61.9618 156.695C61.9618 156.695 59.9208 154.531 59.119 153.304C58.3164 152.078 58.6549 149.83 58.6549 149.83L59.0271 149.357L62.5652 155.043Z" fill="#ECC7A3"/>
<path d="M57.2676 145.159C57.3181 143.816 58.8713 144.803 59.3622 144.057C60.3922 142.495 61.0011 140.093 63.1133 140.173C66.2333 140.291 69.0516 144.263 67.3499 148.805C65.8902 152.699 63.8508 155.174 60.9207 154.093C59.3132 153.5 58.908 148.574 58.5243 147.536C58.1399 146.497 57.2324 146.084 57.2676 145.159Z" fill="#F7D2AD"/>
<path d="M61.3161 144.151L59.8763 147.041L59.1732 144.942C59.1732 144.942 57.2119 144.112 57.47 145.568C57.5688 146.123 58.3408 146.417 58.6555 147.201C59.1656 148.474 58.9427 149.479 58.9427 149.479L56.5763 152.37C56.5763 152.37 49.1545 146.698 54.8095 139.153C54.9488 138.967 55.0568 138.76 55.2215 138.618C58.258 135.987 60.4139 137.148 64.9232 138.119C70.2013 139.254 71.226 138.791 71.226 138.791C71.226 138.791 71.3386 144.487 67.7032 144.587C64.3679 144.678 61.3161 144.151 61.3161 144.151Z" fill="black"/>
<path d="M60.0433 146.705C60.0433 146.705 59.8671 148.857 60.3887 150.317C60.9094 151.777 61.9617 152.881 61.9617 152.881L64.6644 153.335L63.8786 156.585L60.9209 154.093C60.9209 154.093 59.8219 152.78 59.5018 150.897C59.1825 149.014 59.6435 146.562 59.6435 146.562" fill="black"/>
<path d="M45.7284 158.218L52.0949 153.653L53.0338 151.789L57.9107 155.578L61.2589 166.219L60.9802 182.09C60.9802 182.09 64.8362 198.584 63.5335 201.131L44.9036 205.926C44.9036 205.926 43.4784 202.455 43.5458 199.186C43.6109 196.031 45.1617 193.183 45.4987 187.377C46.1849 175.558 45.7284 158.218 45.7284 158.218Z" fill="#5A5BB5"/>
<path d="M48.0789 164.912L49.9935 170.366L49.8243 175.647L45.2238 186.479C45.2238 186.479 45.387 188.394 44.9688 191.739C44.5514 195.085 43.4777 196.749 43.552 199.861C43.6263 202.973 44.9037 205.926 44.9037 205.926L52.579 203.95C52.579 203.95 47.8024 200.752 47.5145 196.414C47.2265 192.077 51.4279 186.601 51.4279 186.601L52.3385 173.317L48.0789 164.912Z" fill="#5A5BB5"/>
<path d="M48.0789 164.912L49.9935 170.366L49.8243 175.647L45.2238 186.479C45.2238 186.479 45.387 188.394 44.9688 191.739C44.5514 195.085 43.4777 196.749 43.552 199.861C43.6263 202.973 44.9037 205.926 44.9037 205.926L52.579 203.95C52.579 203.95 47.8024 200.752 47.5145 196.414C47.2265 192.077 51.4279 186.601 51.4279 186.601L52.3385 173.317L48.0789 164.912Z" fill="black" fill-opacity="0.2"/>
<path d="M53.0336 151.789L52.0947 153.653L56.2272 159.587L56.9992 156.496L58.3945 157.117L57.9105 155.578L53.0336 151.789Z" fill="#5A5BB5"/>
<path d="M53.0336 151.789L52.0947 153.653L56.2272 159.587L56.9992 156.496L58.3945 157.117L57.9105 155.578L53.0336 151.789Z" fill="black" fill-opacity="0.2"/>
<path d="M45.7283 158.218C45.7283 158.218 41.6816 159.753 41.0497 166.534C40.5343 172.057 40.5987 181.732 42.9069 185.263C45.0382 188.523 53.8393 184.409 53.8393 184.409L53.0535 180.316L52.9356 175.415L49.824 175.647L49.9932 170.366L45.7283 158.218Z" fill="#5A5BB5"/>
<path d="M49.8234 175.648L52.9351 175.416L53.053 180.317L53.6948 183.661L52.7199 184.887L49.3762 186.165C49.3762 186.165 47.4064 182.133 47.5183 179.504C47.6301 176.874 49.8234 175.648 49.8234 175.648Z" fill="#5A5BB5"/>
<path d="M49.8234 175.648L52.9351 175.416L53.053 180.317L53.6948 183.661L52.7199 184.887L49.3762 186.165C49.3762 186.165 47.4064 182.133 47.5183 179.504C47.6301 176.874 49.8234 175.648 49.8234 175.648Z" fill="black" fill-opacity="0.5"/>
<path d="M70.8882 159.107C70.8882 159.107 77.564 172.264 79.1845 177.377C79.569 178.588 72.0339 178.311 72.0339 178.311L70.8882 159.107Z" fill="#5A5BB5"/>
<path d="M77.2789 175.816C77.2789 175.816 78.5655 177.743 77.9497 179.755C77.334 181.766 76.3805 182.453 74.7883 183.21C73.1962 183.967 72.2871 182.569 72.2871 182.569L72.4196 184.787C72.4196 184.787 74.7309 186.92 76.4173 186.559C78.1044 186.199 79.3543 182.644 79.3543 182.644C79.3543 182.644 79.8728 179.527 79.3543 177.82C78.8351 176.113 77.2789 175.816 77.2789 175.816Z" fill="#5A5BB5"/>
<path d="M77.2789 175.816C77.2789 175.816 78.5655 177.743 77.9497 179.755C77.334 181.766 76.3805 182.453 74.7883 183.21C73.1962 183.967 72.2871 182.569 72.2871 182.569L72.4196 184.787C72.4196 184.787 74.7309 186.92 76.4173 186.559C78.1044 186.199 79.3543 182.644 79.3543 182.644C79.3543 182.644 79.8728 179.527 79.3543 177.82C78.8351 176.113 77.2789 175.816 77.2789 175.816Z" fill="black" fill-opacity="0.5"/>
<path d="M68.8989 169.292L72.0335 159.421L76.7902 159.587L77.3676 159.752L73.739 169.942L69.4764 169.458L68.8989 169.292Z" fill="#303030"/>
<path d="M69.4766 169.458L72.6104 159.587L77.3678 159.753L74.3167 170.108L69.4766 169.458Z" fill="#8B8B8B"/>
<path d="M72.7081 160.298C72.751 160.163 72.8958 160.089 73.0298 160.133L73.245 160.203C73.379 160.246 73.4525 160.391 73.4089 160.526L72.9509 161.942C72.9073 162.076 72.7625 162.15 72.6285 162.106L72.4133 162.036C72.2793 161.992 72.2058 161.848 72.2494 161.713L72.7081 160.298Z" fill="black"/>
<path d="M51.4543 176.343L62.072 169.89L64.9554 166.361L67.9827 164.385L68.8987 165.274L70.7015 164.534L73.133 164.912C73.133 164.912 73.4876 165.58 72.9553 165.847C72.4231 166.114 71.0032 165.981 71.0032 165.981L69.3674 167.143L73.4217 167.855C73.4217 167.855 73.9486 168.591 72.9377 168.899C71.9276 169.207 69.3796 169.086 69.3796 169.086L73.3972 169.449L73.4348 170.944L69.3199 171.01L71.6197 171.382L70.6662 172.238L69.6025 172.404C69.6025 172.404 68.5533 173.357 67.1219 173.829C65.6906 174.301 63.8763 174.291 63.8763 174.291L53.6952 183.66C53.6952 183.66 51.4252 182.619 50.8646 180.789C50.3048 178.96 51.4543 176.343 51.4543 176.343Z" fill="#F7D2AD"/>
<path d="M77.2793 175.815L75.5355 173.045L75.851 168.29C75.851 168.29 75.5087 167.116 74.7834 167.008C74.0076 166.893 72.5663 166.847 72.5663 166.847L70.7429 167.038C70.7429 167.038 70.3255 167.501 70.3385 167.891C70.3523 168.282 70.8876 168.406 70.8876 168.406L73.1958 168.314L74.1914 168.67L73.8391 169.292L70.5338 169.08C70.5338 169.08 69.7771 169.584 69.7572 170.062C69.7381 170.54 70.4564 170.991 70.4564 170.991L74.0505 171.067L74.5744 171.215L70.7436 171.24C70.7436 171.24 70.0184 171.4 69.99 171.648C69.9088 172.356 70.909 172.02 70.909 172.02L72.2876 172.368L71.7185 173.026L72.2876 182.568C72.2876 182.568 74.4426 185.554 77.7978 181.305C79.73 178.856 77.2793 175.815 77.2793 175.815Z" fill="#F7D2AD"/>
<path d="M60.4459 218.823L62.6591 207.621L63.6907 218.631L68.5255 230.862L58.3498 241.041L58.2456 239.255L65.6367 231.12L60.4459 218.823Z" fill="#092541"/>
<path d="M50.7088 248.19L47.8101 251.459L48.5767 252.166L50.865 249.502L50.7088 248.19Z" fill="#092541"/>
</g>
<rect x="46.3696" y="270.817" width="185.423" height="3.17105" rx="1.58552" fill="#5A5BB5"/>
<rect x="46.3696" y="270.817" width="185.423" height="3.17105" rx="1.58552" fill="white" fill-opacity="0.8"/>
<g clip-path="url(#clip4_3805_20826)">
<path d="M123.944 94.7334L123.575 101.436L117.457 108.031L117.022 106.098L119.152 96.0592L123.944 94.7334Z" fill="#F7D2AD"/>
<path d="M125.488 101.973C125.488 101.973 125.622 100.33 125.213 99.6237C124.804 98.9179 123.852 99.1482 123.852 99.1482C123.852 99.1482 121.277 103.152 119.57 104.889C117.861 106.626 117.022 106.098 117.022 106.098C117.022 106.098 115.546 106.108 114.99 106.499C114.435 106.89 114.799 107.661 114.799 107.661L116.375 108.332L120.082 108.251L122.546 104.213L125.488 101.973Z" fill="#303030"/>
<path d="M125.503 102.14L124.75 105.043L124.17 109.372H123.407C123.407 109.372 123.841 103.312 123.049 104.194C121.853 105.527 121.654 108.604 120.599 109.168C119.69 109.655 115.086 109.372 115.086 109.372L114.799 107.659C114.799 107.659 117.175 108.554 119.167 107.604C121.159 106.654 120.769 105.247 122.502 103.716C124.235 102.185 125.503 102.14 125.503 102.14Z" fill="black"/>
<path d="M126.671 94.7334L126.301 101.436L120.183 108.031L119.749 106.098L121.879 96.0592L126.671 94.7334Z" fill="#F7D2AD"/>
<path d="M128.216 101.973C128.216 101.973 128.35 100.33 127.94 99.6237C127.531 98.9179 126.579 99.1482 126.579 99.1482C126.579 99.1482 124.004 103.152 122.297 104.889C120.589 106.626 119.749 106.098 119.749 106.098C119.749 106.098 118.274 106.108 117.718 106.499C117.162 106.89 117.526 107.661 117.526 107.661L119.103 108.332L122.809 108.251L125.273 104.213L128.216 101.973Z" fill="#303030"/>
<path d="M128.229 102.14L127.477 105.043L126.897 109.372H126.135C126.135 109.372 126.567 103.312 125.776 104.194C124.579 105.527 124.381 108.604 123.326 109.168C122.417 109.655 117.813 109.372 117.813 109.372L117.525 107.659C117.525 107.659 119.902 108.554 121.894 107.604C123.887 106.654 123.496 105.247 125.229 103.716C126.961 102.185 128.229 102.14 128.229 102.14Z" fill="black"/>
<path d="M137.843 69.6846C137.843 69.6846 123.676 72.2587 120.096 75.7387C117.668 78.0994 118.881 97.3311 118.881 97.3311L123.392 97.5333L125.51 81.702L137.843 69.6846Z" fill="#201F1F"/>
<path d="M152.934 62.6152C152.934 62.6152 159.824 77.3096 152.315 78.7185C140.068 81.0172 128.06 80.479 128.06 80.479L126.977 97.3494L121.546 97.6255C121.546 97.6255 118.189 79.0947 119.148 76.696C120.096 74.3241 139.503 69.2351 139.503 69.2351L139.401 65.8607L152.934 62.6152Z" fill="#303030"/>
<path d="M135.251 53.3594L139.815 57.4917C139.815 57.4917 139.723 56.5048 139.633 55.7771C139.542 55.0501 139.454 54.583 139.454 54.583L138.165 53.5446L135.251 53.3594Z" fill="#EBC6A0"/>
<path d="M151.26 37.126C151.26 37.126 154.692 41.4253 154.692 44.8166V75.0006L144.788 71.3029L139.665 68.9063C139.665 68.9063 140.559 61.6729 139.49 54.76C138.569 48.8088 137.106 50.1296 138.165 45.7218C139.224 41.3133 143.728 37.1274 143.728 37.1274H151.26V37.126Z" fill="#5A5BB5"/>
<path d="M153.62 43.2512C153.62 43.2512 154.874 51.4842 154.67 55.4433C154.466 59.4031 154.692 59.4679 154.692 59.4679V74.9991L149.099 72.9111C149.099 72.9111 153.202 71.7347 153.202 68.9048C153.202 62.3012 151.429 61.8018 151.111 61.7736C146.994 61.4094 139.562 55.3834 139.562 55.3834L139.438 54.5691L139.672 50.9559L146.438 52.8474L147.399 43.6943C147.399 43.2547 153.62 41.5295 153.62 43.2505V43.2512Z" fill="#5A5BB5"/>
<path d="M143.77 38.9668L140.515 42.0115C140.515 42.0115 140.605 41.3817 140.62 40.7928C140.636 40.2031 140.577 39.6544 140.577 39.6544C140.577 39.6544 138.193 41.798 137.807 47.7916C137.42 53.7851 138.9 56.3628 138.629 62.86C138.358 69.3579 134.803 69.9307 134.548 70.3653C134.293 70.7993 140.112 69.1142 140.112 69.1142C140.112 69.1142 140.119 64.6233 140.143 63.4588C140.275 57.2631 139.022 53.571 139.816 47.7761C140.842 40.2912 143.77 38.9675 143.77 38.9675V38.9668Z" fill="#5A5BB5"/>
<path d="M143.77 38.9668L140.515 42.0115C140.515 42.0115 140.605 41.3817 140.62 40.7928C140.636 40.2031 140.577 39.6544 140.577 39.6544C140.577 39.6544 138.193 41.798 137.807 47.7916C137.42 53.7851 138.9 56.3628 138.629 62.86C138.358 69.3579 134.803 69.9307 134.548 70.3653C134.293 70.7993 140.112 69.1142 140.112 69.1142C140.112 69.1142 140.119 64.6233 140.143 63.4588C140.275 57.2631 139.022 53.571 139.816 47.7761C140.842 40.2912 143.77 38.9675 143.77 38.9675V38.9668Z" fill="black" fill-opacity="0.3"/>
<path d="M151.26 37.126L143.777 42.0128C143.777 42.0128 142.208 46.272 142.25 50.2261C142.292 54.1803 143.944 57.8294 143.944 57.8294C143.944 57.8294 144.968 62.7007 144.227 66.695C143.486 70.69 140.943 73.5121 140.979 73.808C141.014 74.0813 146.633 79.8269 151.47 79.9833C155.765 80.122 159.513 79.4317 159.513 79.4317C159.513 79.4317 155.991 53.1764 155.134 46.515C154.275 39.8536 151.26 37.126 151.26 37.126Z" fill="#5A5BB5"/>
<path d="M151.26 37.126L143.777 42.0128C143.777 42.0128 142.208 46.272 142.25 50.2261C142.292 54.1803 143.944 57.8294 143.944 57.8294C143.944 57.8294 144.968 62.7007 144.227 66.695C143.486 70.69 140.943 73.5121 140.979 73.808C141.014 74.0813 146.633 79.8269 151.47 79.9833C155.765 80.122 159.513 79.4317 159.513 79.4317C159.513 79.4317 155.991 53.1764 155.134 46.515C154.275 39.8536 151.26 37.126 151.26 37.126Z" fill="black" fill-opacity="0.3"/>
<g opacity="0.3">
<path d="M153.114 40.6885C153.114 40.6885 154.2 62.7881 154.692 75.0007C154.866 79.3113 151.554 79.9861 151.554 79.9861C151.554 79.9861 154.179 80.1559 156.16 80.0016C158.141 79.8473 159.512 79.4317 159.512 79.4317L155.432 49.1589L153.114 40.6892V40.6885Z" fill="#5A5BB5"/>
<path d="M153.114 40.6885C153.114 40.6885 154.2 62.7881 154.692 75.0007C154.866 79.3113 151.554 79.9861 151.554 79.9861C151.554 79.9861 154.179 80.1559 156.16 80.0016C158.141 79.8473 159.512 79.4317 159.512 79.4317L155.432 49.1589L153.114 40.6892V40.6885Z" fill="black" fill-opacity="0.8"/>
</g>
<path d="M154.692 53.9017C154.692 53.9017 155.178 61.0808 151.046 60.9914C146.914 60.9026 138.165 53.5445 138.165 53.5445L139.672 50.957L147.399 54.6223V53.9017H154.692Z" fill="#F7D2AD"/>
<path d="M129.493 42.3955L130.296 42.9471C130.395 42.9471 130.522 43.0154 130.578 43.0993L136.786 50.8772C136.786 50.8772 136.085 51.4788 135.988 51.4528L134.019 50.9244C133.922 50.8984 133.799 50.8089 133.745 50.7244L128.807 43.0964C128.752 43.0119 129.493 42.3962 129.493 42.3962V42.3955Z" fill="#565C63"/>
<path d="M129.586 42.3613L130.992 42.3649C131.092 42.3649 131.218 42.4332 131.274 42.517L136.76 50.7656C136.815 50.8494 136.781 50.8959 136.684 50.8698L134.715 50.3415C134.619 50.3154 134.496 50.2259 134.442 50.1414L129.503 42.5135C129.449 42.429 129.486 42.3606 129.586 42.3613Z" fill="#6C737A"/>
<path d="M151.046 40.1387C153.06 40.1387 154.692 41.5342 154.692 43.2552C154.692 43.2552 155.509 48.6218 155.717 52.7732C155.766 53.7637 156.336 54.6618 156.297 55.4248C156.093 59.3845 153.877 59.0936 153.877 59.0936L147.399 53.901C147.399 53.901 146.542 52.8542 146.542 51.8461C146.542 50.838 147.399 49.8694 147.399 49.8694V43.2552C147.399 41.5335 149.031 40.1387 151.046 40.1387Z" fill="#5A5BB5"/>
<path d="M139.672 50.9575L136.462 48.2213L133.719 47.0209C133.719 47.0209 133.528 47.6726 134.099 48.215C134.669 48.7567 135.9 49.2717 135.9 49.2717L133.505 48.8751C133.505 48.8751 132.532 46.3489 132.161 47.0209C131.79 47.6937 132.019 51.5654 132.019 51.5654L134.62 53.3195L138.165 53.545L139.554 52.7771L139.672 50.9575Z" fill="#F7D2AD"/>
<path d="M130.382 45.5283L131.02 46.5132L132.161 47.0204C132.161 47.0204 131.945 47.9207 131.949 49.0577C131.953 50.27 132.019 51.5648 132.019 51.5648C132.019 51.5648 130.171 49.8185 129.762 48.3088C129.353 46.7999 130.382 45.5283 130.382 45.5283Z" fill="#EBC6A0"/>
<path d="M143.563 23.2078C143.563 23.2078 138.629 22.3547 137.695 28.1876C137.348 30.3496 138.264 32.9779 139.477 35.5999C141.113 39.1342 140.143 43.2933 140.143 43.2933L144.775 38.1022L143.563 23.2078Z" fill="#303030"/>
<path d="M138.697 30.8698C138.322 27.7701 139.534 25.4053 141.338 25.4053C143.141 25.4053 144.603 27.9364 144.603 31.0593C144.603 34.1822 144.008 36.5118 142.204 36.5118C140.401 36.5118 139.089 34.1096 138.697 30.8705V30.8698Z" fill="#F7D2AD"/>
<path d="M142.204 36.5116L143.889 36.289L144.226 37.3781L143.77 38.9673L143.473 40.5185L148.887 37.8937L148.245 35.3084L148.016 31.2119L144.543 32.1503C144.543 32.1503 144.208 33.7564 143.919 34.5201C143.513 35.5986 142.204 36.5116 142.204 36.5116Z" fill="#F7D2AD"/>
<path d="M142.822 36.4302L143.889 36.2893L144.227 37.3784L145.546 33.8223C145.546 33.8223 144.907 34.9769 144.227 35.6292C143.545 36.2815 142.822 36.4309 142.822 36.4309V36.4302Z" fill="#EECAA7"/>
<path d="M143.562 23.2078L141.337 25.4058C141.337 25.4058 144.099 28.8576 144.542 32.1503C144.985 35.4436 143.363 43.2934 143.363 43.2934C143.363 43.2934 146.475 42.4262 148.158 41.3512C149.287 40.6306 149.266 38.3101 150.257 38.2164C152.726 37.9825 153.652 41.0765 153.652 41.0765C153.652 41.0765 155.764 38.9673 152.794 33.822C151.496 31.5747 149.719 26.6865 149.124 25.4058C147.448 21.801 143.562 23.2078 143.562 23.2078Z" fill="#303030"/>
<path d="M147.398 49.8692C147.398 49.8692 150.062 49.8544 152.119 50.2257C154.171 50.5962 155.618 51.3507 155.625 51.3535C155.661 51.8347 155.694 52.313 155.717 52.7737C155.75 53.4267 155.998 54.0347 156.16 54.5954C156.16 54.5954 154.861 52.8413 152.637 51.4521C150.412 50.0637 147.398 49.8692 147.398 49.8692Z" fill="#5A5BB5"/>
<path d="M147.398 49.8692C147.398 49.8692 150.062 49.8544 152.119 50.2257C154.171 50.5962 155.618 51.3507 155.625 51.3535C155.661 51.8347 155.694 52.313 155.717 52.7737C155.75 53.4267 155.998 54.0347 156.16 54.5954C156.16 54.5954 154.861 52.8413 152.637 51.4521C150.412 50.0637 147.398 49.8692 147.398 49.8692Z" fill="black" fill-opacity="0.2"/>
<path d="M146.713 52.6982C146.713 52.6982 146.832 53.0096 147.003 53.3104C147.174 53.6112 147.398 53.9015 147.398 53.9015L153.876 59.094C153.876 59.094 154.124 59.1701 154.385 59.0983C154.645 59.0271 154.917 58.808 154.917 58.808C154.917 58.808 152.78 56.6052 150.729 55.0779C148.678 53.5506 146.713 52.6982 146.713 52.6982Z" fill="#5A5BB5"/>
<path d="M146.713 52.6982C146.713 52.6982 146.832 53.0096 147.003 53.3104C147.174 53.6112 147.398 53.9015 147.398 53.9015L153.876 59.094C153.876 59.094 154.124 59.1701 154.385 59.0983C154.645 59.0271 154.917 58.808 154.917 58.808C154.917 58.808 152.78 56.6052 150.729 55.0779C148.678 53.5506 146.713 52.6982 146.713 52.6982Z" fill="black" fill-opacity="0.2"/>
</g>
</g>
<defs>
<linearGradient id="paint0_linear_3805_20826" x1="140" y1="0" x2="140" y2="274" gradientUnits="userSpaceOnUse">
<stop stop-color="white"/>
<stop offset="0.5" stop-color="#5A5BB5"/>
<stop offset="1" stop-color="#5A5BB5"/>
</linearGradient>
<linearGradient id="paint1_linear_3805_20826" x1="140" y1="0" x2="140" y2="274" gradientUnits="userSpaceOnUse">
<stop stop-color="white" stop-opacity="0"/>
<stop offset="1" stop-color="white"/>
</linearGradient>
<clipPath id="clip0_3805_20826">
<rect width="280" height="274" fill="white"/>
</clipPath>
<clipPath id="clip1_3805_20826">
<rect width="205.197" height="130.64" fill="white" transform="translate(37.4014 79.1396)"/>
</clipPath>
<clipPath id="clip2_3805_20826">
<rect width="69.68" height="79.6716" fill="white" transform="translate(184.618 191.178)"/>
</clipPath>
<clipPath id="clip3_3805_20826">
<rect width="40.0489" height="134.355" fill="white" transform="translate(39.5361 137.007)"/>
</clipPath>
<clipPath id="clip4_3805_20826">
<rect width="44.8309" height="86.5177" fill="white" transform="translate(114.682 22.9365)"/>
</clipPath>
</defs>
</svg>
