<svg width="280" height="274" viewBox="0 0 280 274" fill="none" xmlns="http://www.w3.org/2000/svg">
<g clip-path="url(#clip0_3805_20342)">
<g opacity="0.1">
<path d="M26.08 273.486C29.202 267.425 1.24715 219.129 0.798838 206.93C-0.54865 170.317 43.5009 170.026 47.3512 140.124C50.8019 113.328 5.94884 80.9799 33.6893 55.6348C57.4386 33.9352 83.8871 42.9712 111.614 35.4944C128.149 31.0359 129.416 15.7229 142.481 7.00349C170.793 -11.8926 232.6 7.58027 248.743 35.0032C264.225 61.3059 230.477 84.474 239.128 109.669C246.084 129.929 268.226 139.916 269.489 163.211C270.494 181.751 251.776 194.385 254.308 212.825C257.737 237.787 302.461 244.124 267.465 273.244" fill="url(#paint0_linear_3805_20342)"/>
<path d="M26.08 273.486C29.202 267.425 1.24715 219.129 0.798838 206.93C-0.54865 170.317 43.5009 170.026 47.3512 140.124C50.8019 113.328 5.94884 80.9799 33.6893 55.6348C57.4386 33.9352 83.8871 42.9712 111.614 35.4944C128.149 31.0359 129.416 15.7229 142.481 7.00349C170.793 -11.8926 232.6 7.58027 248.743 35.0032C264.225 61.3059 230.477 84.474 239.128 109.669C246.084 129.929 268.226 139.916 269.489 163.211C270.494 181.751 251.776 194.385 254.308 212.825C257.737 237.787 302.461 244.124 267.465 273.244" fill="url(#paint1_linear_3805_20342)" fill-opacity="0.28"/>
</g>
<rect x="32.1929" y="270.849" width="234.06" height="3.17105" rx="1.58552" fill="#5A5BB5"/>
<rect x="32.1929" y="270.849" width="234.06" height="3.17105" rx="1.58552" fill="white" fill-opacity="0.8"/>
<g clip-path="url(#clip1_3805_20342)">
<path d="M250.262 135H63.0509C61.3659 135 60 136.366 60 138.051V249.718C60 251.403 61.3659 252.769 63.0509 252.769H250.262C251.947 252.769 253.313 251.403 253.313 249.718V138.051C253.313 136.366 251.947 135 250.262 135Z" fill="#5A5BB5"/>
<path d="M246.252 140.297H67.0605V247.471H246.252V140.297Z" fill="white"/>
<path d="M182.226 252.73H131.088V265.374H182.226V252.73Z" fill="#5A5BB5"/>
<path d="M117.378 264.264H195.935C197.255 264.264 198.328 265.336 198.328 266.657V270.82H114.985V266.657C114.985 265.336 116.058 264.264 117.378 264.264Z" fill="#5A5BB5"/>
<path opacity="0.15" d="M182.226 252.731H131.088V264.598H182.226V252.731Z" fill="black"/>
<path d="M156.094 251.863C157.011 251.863 157.755 251.112 157.755 250.186C157.755 249.26 157.011 248.509 156.094 248.509C155.177 248.509 154.433 249.26 154.433 250.186C154.433 251.112 155.177 251.863 156.094 251.863Z" fill="url(#paint2_radial_3805_20342)"/>
<path d="M136.805 196.537L131.756 196.538L131.758 205.414L119.526 205.418L119.524 196.542L101.239 196.548L101.236 187.453L120.296 159.565L131.744 159.562L131.753 187.287L136.803 187.286L136.805 196.537V196.537ZM119.522 187.29L119.519 181.958C119.519 180.955 119.555 179.601 119.628 177.897C119.7 176.193 119.758 175.299 119.8 175.215H119.455C118.744 176.826 117.94 178.331 117.042 179.732L111.963 187.292L119.522 187.29V187.29Z" fill="#5A5BB5"/>
<path d="M173.151 182.537C173.154 190.65 171.796 196.594 169.08 200.368C166.362 204.143 162.203 206.031 156.599 206.033C151.121 206.035 146.99 204.066 144.208 200.125C141.426 196.185 140.034 190.325 140.031 182.547C140.029 174.392 141.386 168.413 144.103 164.606C146.819 160.8 150.98 158.896 156.583 158.894C162.041 158.892 166.165 160.871 168.958 164.833C171.75 168.795 173.148 174.695 173.151 182.536L173.151 182.537ZM152.358 182.544C152.359 187.729 152.684 191.294 153.334 193.238C153.982 195.183 155.07 196.154 156.596 196.154C158.143 196.154 159.236 195.149 159.873 193.143C160.51 191.135 160.827 187.601 160.825 182.542C160.824 177.461 160.498 173.901 159.85 171.862C159.2 169.824 158.113 168.805 156.587 168.805C155.06 168.805 153.973 169.789 153.326 171.754C152.678 173.72 152.356 177.317 152.358 182.544Z" fill="#5A5BB5"/>
<path d="M212.077 196.512L207.027 196.514L207.03 205.39L194.798 205.394L194.796 196.518L176.511 196.524L176.508 187.429L195.568 159.54L207.016 159.537L207.025 187.262L212.075 187.261L212.077 196.513V196.512ZM194.793 187.266L194.791 181.934C194.791 180.931 194.827 179.577 194.899 177.872C194.972 176.168 195.029 175.274 195.071 175.19H194.726C194.015 176.801 193.211 178.307 192.313 179.708L187.235 187.268L194.793 187.265V187.266Z" fill="#5A5BB5"/>
<path d="M138.192 228.876H131.741V217.305H138.192V218.5H133.087V222.228H137.883V223.415H133.087V227.673H138.192V228.876Z" fill="#5A5BB5"/>
<path d="M142.102 224.064V228.876H140.756V217.305H143.93C145.349 217.305 146.398 217.577 147.076 218.12C147.754 218.663 148.093 219.481 148.093 220.574C148.093 222.104 147.318 223.138 145.766 223.676L148.908 228.877H147.318L144.516 224.064H142.102V224.064ZM142.102 222.908H143.946C144.896 222.908 145.592 222.719 146.036 222.342C146.479 221.964 146.7 221.398 146.7 220.644C146.7 219.889 146.475 219.327 146.023 218.99C145.572 218.652 144.848 218.483 143.851 218.483H142.102V222.907V222.908Z" fill="#5A5BB5"/>
<path d="M152.121 224.064V228.876H150.776V217.305H153.95C155.369 217.305 156.417 217.577 157.096 218.12C157.774 218.663 158.113 219.481 158.113 220.574C158.113 222.104 157.337 223.138 155.786 223.676L158.928 228.877H157.337L154.535 224.064H152.121V224.064ZM152.121 222.908H153.966C154.915 222.908 155.612 222.719 156.055 222.342C156.498 221.964 156.72 221.398 156.72 220.644C156.72 219.889 156.494 219.327 156.043 218.99C155.591 218.652 154.867 218.483 153.871 218.483H152.121V222.907V222.908Z" fill="#5A5BB5"/>
<path d="M170.839 223.075C170.839 224.926 170.371 226.383 169.434 227.444C168.498 228.504 167.196 229.034 165.528 229.034C163.861 229.034 162.509 228.513 161.583 227.471C160.657 226.429 160.194 224.958 160.194 223.059C160.194 221.159 160.658 219.715 161.587 218.678C162.515 217.641 163.835 217.122 165.544 217.122C167.253 217.122 168.504 217.65 169.438 218.705C170.372 219.761 170.839 221.217 170.839 223.074L170.839 223.075ZM161.619 223.075C161.619 224.642 161.952 225.83 162.621 226.641C163.288 227.45 164.258 227.855 165.529 227.855C166.8 227.855 167.78 227.452 168.434 226.645C169.087 225.837 169.415 224.647 169.415 223.075C169.415 221.502 169.089 220.338 168.438 219.533C167.786 218.729 166.821 218.326 165.545 218.326C164.268 218.326 163.287 218.731 162.62 219.541C161.952 220.35 161.618 221.529 161.618 223.075H161.619Z" fill="#5A5BB5"/>
<path d="M174.766 224.064V228.876H173.42V217.305H176.594C178.013 217.305 179.062 217.577 179.74 218.12C180.418 218.663 180.757 219.481 180.757 220.574C180.757 222.104 179.981 223.138 178.43 223.676L181.572 228.877H179.981L177.179 224.064H174.766V224.064ZM174.766 222.908H176.61C177.559 222.908 178.256 222.719 178.699 222.342C179.142 221.964 179.364 221.398 179.364 220.644C179.364 219.889 179.138 219.327 178.687 218.99C178.236 218.652 177.511 218.483 176.515 218.483H174.766V222.907V222.908Z" fill="#5A5BB5"/>
<path d="M258.427 211.611L255.246 213.508L257.217 218.491L252.723 226.857C252.723 226.857 251.583 226.968 250.234 227.898C250.234 228.184 250.502 228.382 250.75 228.278L251.479 227.973C251.479 227.973 249.716 229.534 249.854 230.91C249.854 230.91 250.165 232.844 251.755 232.472C251.755 232.472 253.276 232.62 254.52 229.088L259.739 219.396C259.995 218.923 260.065 218.361 259.936 217.832L258.426 211.611H258.427Z" fill="#DB965F"/>
<path d="M224.08 182.499L228.194 187.642C229.946 189.831 229.883 192.766 228.053 194.195C226.223 195.624 223.319 195.007 221.568 192.818L217.449 187.669C216.357 190.802 217.062 194.754 219.609 197.992C221.474 200.363 223.967 201.885 226.485 202.432C227.723 202.701 228.897 203.462 229.754 204.533L247.924 227.246C250.05 229.903 253.573 230.651 255.793 228.917C258.013 227.183 258.089 223.623 255.964 220.966L237.838 198.308C236.973 197.226 236.498 195.906 236.525 194.642C236.581 192.111 235.681 189.377 233.812 187.039C231.222 183.801 227.451 182.176 224.081 182.499H224.08ZM253.525 226.037C252.591 226.766 251.168 226.526 250.348 225.5C249.527 224.474 249.619 223.051 250.554 222.322C251.488 221.592 252.91 221.833 253.731 222.858C254.551 223.884 254.459 225.307 253.525 226.037Z" fill="#5A5BB5"/>
<path d="M224.08 182.499L228.194 187.642C229.946 189.831 229.883 192.766 228.053 194.195C226.223 195.624 223.319 195.007 221.568 192.818L217.449 187.669C216.357 190.802 217.062 194.754 219.609 197.992C221.474 200.363 223.967 201.885 226.485 202.432C227.723 202.701 228.897 203.462 229.754 204.533L247.924 227.246C250.05 229.903 253.573 230.651 255.793 228.917C258.013 227.183 258.089 223.623 255.964 220.966L237.838 198.308C236.973 197.226 236.498 195.906 236.525 194.642C236.581 192.111 235.681 189.377 233.812 187.039C231.222 183.801 227.451 182.176 224.081 182.499H224.08ZM253.525 226.037C252.591 226.766 251.168 226.526 250.348 225.5C249.527 224.474 249.619 223.051 250.554 222.322C251.488 221.592 252.91 221.833 253.731 222.858C254.551 223.884 254.459 225.307 253.525 226.037Z" fill="white" fill-opacity="0.3"/>
<path d="M246.996 222.228C246.746 222.423 246.385 222.381 246.187 222.135L231.534 203.817C231.337 203.571 231.379 203.213 231.628 203.018C231.878 202.823 232.24 202.865 232.437 203.111L247.09 221.429C247.288 221.675 247.245 222.033 246.996 222.228Z" fill="white"/>
<path d="M251.282 218.879C251.032 219.074 250.67 219.033 250.473 218.786L235.819 200.469C235.622 200.222 235.665 199.865 235.914 199.67C236.163 199.475 236.525 199.516 236.723 199.763L251.376 218.08C251.573 218.327 251.531 218.684 251.282 218.879Z" fill="white"/>
<path d="M255.538 268.026L252.488 268.151L252.4 265.652L252.381 265.098L252.333 263.748L255.384 264.122L255.422 265.098L255.456 265.949L255.538 268.026Z" fill="#DB965F"/>
<path d="M256.082 269.443C256.214 268.665 256.288 267.277 255.509 266.058C255.509 266.058 253.81 267.254 252.46 265.693C252.46 265.693 251.202 265.891 248.029 267.816C247.673 268.032 247.308 268.229 246.936 268.409C246.424 268.657 245.618 269.117 245.217 269.716C244.803 270.333 245.094 271.205 245.773 271.418C247.075 271.827 250.732 272.587 255.465 270.294C255.788 270.138 256.018 269.818 256.082 269.443Z" fill="#303030"/>
<path d="M255.886 264.787H252.218L249.437 244.477L245.506 224.394L245.307 223.377L253.877 223.122L255.075 223.086C255.075 223.086 256.774 225.827 255.461 232.099L255.075 242.4C255.075 242.4 257.43 249.876 255.886 264.786V264.787Z" fill="#002345"/>
<path d="M255.886 264.787H252.218L249.437 244.477L245.506 224.394L245.307 223.377L253.877 223.122L255.075 223.086C255.075 223.086 256.774 225.827 255.461 232.099L255.075 242.4C255.075 242.4 257.43 249.876 255.886 264.786V264.787Z" fill="black" fill-opacity="0.2"/>
<path opacity="0.15" d="M252.628 264.787H252.218L249.437 244.477L245.506 224.394L248.857 223.58L251.741 223.768C251.741 228.343 252.135 229.456 250.649 235.708L249.6 239.233L252.628 264.788V264.787Z" fill="black"/>
<path d="M253.893 262.655L253.452 262.975L251.361 264.489L250.693 263.421L250.064 262.415L249.353 261.278L249.278 261.159L249.074 260.834L249.291 260.724L251.85 259.424L251.859 259.437L252.807 260.936L253.893 262.655Z" fill="#DB965F"/>
<path d="M254.821 264.666C251.965 269.343 248.484 270.781 247.267 271.157C246.671 271.341 246.063 270.89 246.023 270.225C245.975 269.448 246.471 268.48 246.803 267.926C247.032 267.543 247.245 267.148 247.441 266.745C248.532 264.508 249.314 263.348 249.727 262.811C249.948 262.523 250.064 262.414 250.064 262.414C251.985 262.934 252.807 260.936 252.807 260.936C253.737 261.351 254.329 262.11 254.69 262.774C254.78 262.938 254.855 263.096 254.918 263.242C255.116 263.703 255.08 264.242 254.821 264.666Z" fill="#303030"/>
<path d="M252.691 258.827L252.128 259.24L251.859 259.437L249.352 261.278L249.273 261.336L248.72 261.742L241.383 249.496L240.361 247.778C239.641 246.567 239.395 245.098 239.677 243.693L243.687 223.75L244.456 223.719L251.712 223.428L251.741 224.244C251.885 228.329 251.215 232.4 249.777 236.184L246.618 244.493C246.458 245.151 246.529 245.85 246.817 246.456L250.433 254.071L252.69 258.827H252.691Z" fill="#002345"/>
<path opacity="0.15" d="M255.422 265.098H252.381L252.333 263.748L255.384 264.122L255.422 265.098Z" fill="black"/>
<path d="M251.829 200.073L251.822 204.059L247.633 205.529C247.633 205.529 246.714 202.143 245.553 201.843C244.391 201.544 245.56 201.745 245.56 201.745L250.646 195.965L251.829 200.073H251.829Z" fill="#C9885B"/>
<path d="M251.036 198.24C249.569 201.372 247.886 202.812 246.707 203.47C246.386 203.649 246.104 203.77 245.873 203.852C245.829 203.868 245.784 203.879 245.74 203.886C245.393 203.941 245.049 203.739 244.896 203.377C243.326 199.668 245.191 194.925 245.191 194.925C247.698 192.312 251.036 198.24 251.036 198.24Z" fill="#DB965F"/>
<path d="M250.438 199.867C250.438 199.867 250.427 201.365 251.825 201.958C251.825 201.958 253.184 198.395 252.857 195.697C252.857 195.697 251.841 192.313 249.162 193.296C249.162 193.296 248.697 192.784 247.218 194.334C247.218 194.334 243.622 195.708 245.287 195.987C245.287 195.987 246.024 195.261 246.883 195.633C246.883 195.633 246.457 197.342 247.595 197.936L247.605 200.145L247.928 200.174L248.228 198.948C248.228 198.948 249.559 196.627 250.438 199.867H250.438Z" fill="black"/>
<path d="M256.344 206.798C256.344 206.798 258.461 206.74 259.222 214.548L255.557 215.998C255.557 215.998 252.74 207.302 256.344 206.798H256.344Z" fill="#5A5BB5"/>
<path opacity="0.15" d="M257.157 218.182L256.184 215.721L255.601 215.952C255.601 215.952 254.639 212.98 254.559 210.41L256.813 211.746L256.855 212.527L257.008 215.394L257.157 218.182Z" fill="black"/>
<path d="M251.944 203.591L252.914 204.274L253.076 204.388L256.526 206.815L256.788 212.171L256.835 213.138C256.837 213.162 256.837 213.186 256.837 213.21L256.651 223.099L256.642 223.553C256.635 223.967 256.391 224.334 256.027 224.471C253.633 225.375 250.614 225.376 248.019 225.102H248.017C245.92 224.882 244.099 224.483 243.11 224.239C242.656 224.128 242.351 223.671 242.396 223.173L243.005 216.398C243.009 216.355 243.01 216.312 243.009 216.269L242.709 206.746C242.703 206.563 243.07 205.91 243.227 205.837L245.945 204.936L246.065 204.88L247.151 204.375L251.945 203.591L251.944 203.591Z" fill="#5A5BB5"/>
<path opacity="0.15" d="M243.048 216.352C243.051 216.308 243.053 216.265 243.051 216.222L242.91 211.746L244.284 211.344L242.45 223.001L243.047 216.352L243.048 216.352Z" fill="black"/>
<path d="M231.245 211.369L231.331 211.166L231.811 210.034L232.748 207.823L233.578 207.862L235.031 207.931L242.352 208.277L237.041 212.721L231.245 211.369Z" fill="#DB965F"/>
<path d="M230.778 206.52L226.736 203.38C225.961 202.711 225.276 201.746 224.861 201.099C224.637 200.749 224.451 200.37 224.318 199.969C224.048 199.154 223.606 198.33 223.233 197.71C222.859 197.09 222.553 196.673 222.553 196.673C222.269 196.879 222.177 197.284 222.342 197.607L223.027 198.952L221.99 197.977C221.639 197.647 221.206 197.427 220.744 197.364C219.013 197.128 219.304 199.295 219.304 199.295C219.702 200.869 222.29 202.796 222.29 202.796L229.925 210.726C230.414 211.234 231.06 211.432 231.672 211.344C232.273 211.259 232.841 210.9 233.193 210.288L232.753 207.855L230.78 206.52H230.778Z" fill="#DB965F"/>
<path d="M242.991 213.432L238.814 213.242L235.519 212.926L235.755 207.546C240.755 206.09 243.484 205.667 243.991 205.837C244.174 205.899 244.554 206.309 244.554 206.309C245.493 208.318 245.202 210.739 243.818 212.424L242.991 213.431V213.432Z" fill="#5A5BB5"/>
<path d="M244.249 196.024C244.249 196.024 244.465 192.078 249.204 191.733C251.218 191.587 253.12 192.765 253.773 194.675C254.199 195.923 254.163 197.624 252.954 199.87L244.249 196.024V196.024Z" fill="#F6471E"/>
<path opacity="0.1" d="M246.476 197.014C246.476 197.014 246.603 194.697 249.385 194.494C250.568 194.409 251.684 195.1 252.067 196.222C252.317 196.955 252.296 197.953 251.587 199.272L246.476 197.014Z" fill="black"/>
<path d="M246.881 197.157C246.881 197.157 246.988 195.194 249.345 195.023C250.346 194.95 251.292 195.536 251.616 196.486C251.828 197.107 251.81 197.952 251.209 199.069L246.881 197.157Z" fill="#F6471E"/>
<path d="M244.002 195.642L243.964 195.718C243.899 195.849 243.955 196.007 244.088 196.068L252.782 200.031C252.913 200.091 253.069 200.031 253.126 199.898C253.181 199.77 253.124 199.622 252.998 199.563L244.342 195.523C244.215 195.464 244.064 195.517 244.002 195.642H244.002Z" fill="#F6471E"/>
<path d="M248.77 197.778C248.673 198.318 247.396 201.679 246.707 203.471C246.386 203.651 246.103 203.772 245.873 203.854C245.829 203.869 245.784 203.881 245.74 203.888C247.231 202.506 248.202 197.776 248.202 197.776L248.77 197.778Z" fill="#F6471E"/>
</g>
<g clip-path="url(#clip2_3805_20342)">
<path d="M106.568 150.967L106.938 157.669L113.056 164.264L113.49 162.331L111.361 152.293L106.568 150.967Z" fill="#F7D2AD"/>
<path d="M105.024 158.207C105.024 158.207 104.891 156.563 105.3 155.857C105.708 155.151 106.66 155.382 106.66 155.382C106.66 155.382 109.235 159.385 110.943 161.122C112.651 162.859 113.491 162.331 113.491 162.331C113.491 162.331 114.967 162.342 115.522 162.733C116.078 163.124 115.714 163.894 115.714 163.894L114.138 164.565L110.431 164.484L107.967 160.447L105.024 158.207Z" fill="#303030"/>
<path d="M105.01 158.373L105.762 161.276L106.343 165.606H107.105C107.105 165.606 106.672 159.545 107.464 160.427C108.66 161.76 108.859 164.837 109.914 165.401C110.823 165.888 115.427 165.606 115.427 165.606L115.714 163.892C115.714 163.892 113.337 164.788 111.345 163.838C109.353 162.887 109.744 161.48 108.011 159.95C106.278 158.418 105.01 158.373 105.01 158.373Z" fill="black"/>
<path d="M103.842 150.967L104.211 157.669L110.33 164.264L110.764 162.331L108.634 152.293L103.842 150.967Z" fill="#F7D2AD"/>
<path d="M102.297 158.207C102.297 158.207 102.163 156.563 102.573 155.857C102.981 155.151 103.933 155.382 103.933 155.382C103.933 155.382 106.508 159.385 108.216 161.122C109.924 162.859 110.764 162.331 110.764 162.331C110.764 162.331 112.239 162.342 112.795 162.733C113.351 163.124 112.987 163.894 112.987 163.894L111.41 164.565L107.704 164.484L105.24 160.447L102.297 158.207Z" fill="#303030"/>
<path d="M102.283 158.373L103.036 161.276L103.616 165.606H104.378C104.378 165.606 103.945 159.545 104.737 160.427C105.933 161.76 106.131 164.837 107.186 165.401C108.096 165.888 112.7 165.606 112.7 165.606L112.987 163.892C112.987 163.892 110.611 164.788 108.619 163.838C106.626 162.887 107.017 161.48 105.284 159.95C103.551 158.418 102.283 158.373 102.283 158.373Z" fill="black"/>
<path d="M92.6693 125.918C92.6693 125.918 106.836 128.492 110.417 131.972C112.845 134.333 111.631 153.565 111.631 153.565L107.121 153.767L105.003 137.935L92.6693 125.918Z" fill="#201F1F"/>
<path d="M77.5786 118.849C77.5786 118.849 70.689 133.543 78.1981 134.952C90.4446 137.251 102.452 136.712 102.452 136.712L103.535 153.583L108.967 153.859C108.967 153.859 112.324 135.328 111.365 132.929C110.417 130.557 91.0094 125.468 91.0094 125.468L91.1112 122.094L77.5786 118.849Z" fill="#303030"/>
<path d="M95.2617 109.593L90.6972 113.725C90.6972 113.725 90.7892 112.738 90.8799 112.01C90.9705 111.283 91.0583 110.816 91.0583 110.816L92.348 109.778L95.2617 109.593Z" fill="#EBC6A0"/>
<path d="M79.2528 93.3594C79.2528 93.3594 75.8207 97.6587 75.8207 101.05V131.234L85.7252 127.536L90.8474 125.14C90.8474 125.14 89.9539 117.906 91.023 110.993C91.9439 105.042 93.4071 106.363 92.3479 101.955C91.2886 97.5467 86.7852 93.3608 86.7852 93.3608H79.2528V93.3594Z" fill="#5A5BB5"/>
<path d="M76.893 99.4846C76.893 99.4846 75.6391 107.718 75.8428 111.677C76.0466 115.636 75.8204 115.701 75.8204 115.701V131.233L81.4132 129.145C81.4132 129.145 77.3103 127.968 77.3103 125.138C77.3103 118.535 79.0839 118.035 79.4014 118.007C83.5185 117.643 90.9504 111.617 90.9504 111.617L91.0747 110.802L90.8408 107.189L84.0748 109.081L83.1139 99.9277C83.1139 99.4881 76.893 97.7629 76.893 99.4839V99.4846Z" fill="#5A5BB5"/>
<path d="M86.7428 95.2002L89.9979 98.2449C89.9979 98.2449 89.908 97.6151 89.8926 97.0262C89.8771 96.4365 89.9361 95.8877 89.9361 95.8877C89.9361 95.8877 92.3195 98.0314 92.7059 104.025C93.0922 110.019 91.6129 112.596 91.884 119.093C92.1551 125.591 95.7095 126.164 95.9645 126.599C96.2195 127.033 90.4011 125.348 90.4011 125.348C90.4011 125.348 90.3941 120.857 90.3695 119.692C90.2382 113.496 91.4906 109.804 90.6969 104.009C89.6706 96.5246 86.7428 95.2009 86.7428 95.2009V95.2002Z" fill="#5A5BB5"/>
<path d="M86.7428 95.2002L89.9979 98.2449C89.9979 98.2449 89.908 97.6151 89.8926 97.0262C89.8771 96.4365 89.9361 95.8877 89.9361 95.8877C89.9361 95.8877 92.3195 98.0314 92.7059 104.025C93.0922 110.019 91.6129 112.596 91.884 119.093C92.1551 125.591 95.7095 126.164 95.9645 126.599C96.2195 127.033 90.4011 125.348 90.4011 125.348C90.4011 125.348 90.3941 120.857 90.3695 119.692C90.2382 113.496 91.4906 109.804 90.6969 104.009C89.6706 96.5246 86.7428 95.2009 86.7428 95.2009V95.2002Z" fill="black" fill-opacity="0.3"/>
<path d="M79.2523 93.3594L86.7355 98.2462C86.7355 98.2462 88.3047 102.505 88.2626 106.46C88.2211 110.414 86.569 114.063 86.569 114.063C86.569 114.063 85.5448 118.934 86.2859 122.928C87.027 126.923 89.5698 129.745 89.5333 130.041C89.4989 130.315 83.88 136.06 79.0423 136.217C74.7475 136.355 70.9999 135.665 70.9999 135.665C70.9999 135.665 74.5213 109.41 75.379 102.748C76.2374 96.087 79.2523 93.3594 79.2523 93.3594Z" fill="#5A5BB5"/>
<path d="M79.2523 93.3594L86.7355 98.2462C86.7355 98.2462 88.3047 102.505 88.2626 106.46C88.2211 110.414 86.569 114.063 86.569 114.063C86.569 114.063 85.5448 118.934 86.2859 122.928C87.027 126.923 89.5698 129.745 89.5333 130.041C89.4989 130.315 83.88 136.06 79.0423 136.217C74.7475 136.355 70.9999 135.665 70.9999 135.665C70.9999 135.665 74.5213 109.41 75.379 102.748C76.2374 96.087 79.2523 93.3594 79.2523 93.3594Z" fill="black" fill-opacity="0.3"/>
<g opacity="0.3">
<path d="M77.3991 96.9219C77.3991 96.9219 76.3124 119.022 75.8207 131.234C75.6472 135.545 78.9585 136.22 78.9585 136.22C78.9585 136.22 76.3335 136.389 74.3526 136.235C72.3716 136.081 71.0005 135.665 71.0005 135.665L75.081 105.392L77.3991 96.9226V96.9219Z" fill="#5A5BB5"/>
<path d="M77.3991 96.9219C77.3991 96.9219 76.3124 119.022 75.8207 131.234C75.6472 135.545 78.9585 136.22 78.9585 136.22C78.9585 136.22 76.3335 136.389 74.3526 136.235C72.3716 136.081 71.0005 135.665 71.0005 135.665L75.081 105.392L77.3991 96.9226V96.9219Z" fill="black" fill-opacity="0.8"/>
</g>
<path d="M75.8205 110.135C75.8205 110.135 75.3351 117.314 79.4669 117.225C83.5987 117.136 92.3477 109.778 92.3477 109.778L90.8409 107.19L83.114 110.856V110.135H75.8205Z" fill="#F7D2AD"/>
<path d="M101.019 98.6289L100.217 99.1805C100.117 99.1805 99.9909 99.2488 99.9347 99.3327L93.7265 107.111C93.7265 107.111 94.4275 107.712 94.5245 107.686L96.4934 107.158C96.5904 107.132 96.7133 107.042 96.7674 106.958L101.706 99.3298C101.76 99.2453 101.019 98.6296 101.019 98.6296V98.6289Z" fill="#565C63"/>
<path d="M100.926 98.5947L99.5209 98.5983C99.4211 98.5983 99.2947 98.6666 99.2385 98.7504L93.7531 106.999C93.6976 107.083 93.7313 107.129 93.8283 107.103L95.7972 106.575C95.8942 106.549 96.0171 106.459 96.0712 106.375L101.009 98.7469C101.064 98.6624 101.027 98.594 100.926 98.5947Z" fill="#6C737A"/>
<path d="M79.4668 96.3721C77.4529 96.3721 75.8204 97.7676 75.8204 99.4886C75.8204 99.4886 75.0035 104.855 74.7956 109.007C74.7464 109.997 74.1767 110.895 74.216 111.658C74.4197 115.618 76.636 115.327 76.636 115.327L83.1139 110.134C83.1139 110.134 83.9702 109.088 83.9702 108.08C83.9702 107.071 83.1139 106.103 83.1139 106.103V99.4886C83.1139 97.7669 81.4814 96.3721 79.4668 96.3721Z" fill="#5A5BB5"/>
<path d="M90.8408 107.191L94.051 104.455L96.7934 103.254C96.7934 103.254 96.9844 103.906 96.414 104.448C95.8436 104.99 94.613 105.505 94.613 105.505L97.0076 105.108C97.0076 105.108 97.9805 102.582 98.3514 103.254C98.723 103.927 98.4933 107.799 98.4933 107.799L95.8928 109.553L92.3476 109.778L90.9588 109.01L90.8408 107.191Z" fill="#F7D2AD"/>
<path d="M100.131 101.762L99.493 102.747L98.3515 103.254C98.3515 103.254 98.5679 104.154 98.5637 105.291C98.5594 106.503 98.4934 107.798 98.4934 107.798C98.4934 107.798 100.342 106.052 100.75 104.542C101.16 103.033 100.131 101.762 100.131 101.762Z" fill="#EBC6A0"/>
<path d="M86.9498 79.4412C86.9498 79.4412 91.8838 78.5881 92.8181 84.421C93.1644 86.583 92.2491 89.2113 91.036 91.8333C89.4 95.3676 90.3694 99.5267 90.3694 99.5267L85.7374 94.3356L86.9498 79.4412Z" fill="#303030"/>
<path d="M91.8156 87.1032C92.1907 84.0035 90.9783 81.6387 89.1751 81.6387C87.3719 81.6387 85.9094 84.1698 85.9094 87.2927C85.9094 90.4156 86.5051 92.7452 88.3083 92.7452C90.1114 92.7452 91.4236 90.343 91.8156 87.1039V87.1032Z" fill="#F7D2AD"/>
<path d="M88.3086 92.745L86.6241 92.5224L86.2862 93.6115L86.7428 95.2007L87.04 96.7519L81.6255 94.1271L82.2675 91.5418L82.4965 87.4453L85.9701 88.3837C85.9701 88.3837 86.3045 89.9898 86.5932 90.7535C86.9999 91.832 88.3086 92.745 88.3086 92.745Z" fill="#F7D2AD"/>
<path d="M87.6909 92.6636L86.6239 92.5227L86.286 93.6118L84.9668 90.0557C84.9668 90.0557 85.6054 91.2103 86.286 91.8626C86.9674 92.5149 87.6909 92.6643 87.6909 92.6643V92.6636Z" fill="#EECAA7"/>
<path d="M86.9504 79.4412L89.1758 81.6392C89.1758 81.6392 86.4138 85.091 85.9705 88.3837C85.5273 91.677 87.1499 99.5268 87.1499 99.5268C87.1499 99.5268 84.0381 98.6596 82.3543 97.5846C81.2255 96.864 81.2466 94.5435 80.2561 94.4498C77.787 94.2159 76.8605 97.3099 76.8605 97.3099C76.8605 97.3099 74.7482 95.2007 77.7189 90.0554C79.0163 87.8081 80.7935 82.9199 81.3885 81.6392C83.0645 78.0344 86.9504 79.4412 86.9504 79.4412Z" fill="#303030"/>
<path d="M83.1143 106.103C83.1143 106.103 80.4506 106.088 78.3938 106.459C76.3413 106.83 74.8942 107.584 74.8879 107.587C74.8521 108.068 74.8184 108.546 74.7959 109.007C74.7629 109.66 74.5142 110.268 74.3526 110.829C74.3526 110.829 75.6522 109.075 77.8761 107.686C80.1008 106.297 83.1143 106.103 83.1143 106.103Z" fill="#5A5BB5"/>
<path d="M83.1143 106.103C83.1143 106.103 80.4506 106.088 78.3938 106.459C76.3413 106.83 74.8942 107.584 74.8879 107.587C74.8521 108.068 74.8184 108.546 74.7959 109.007C74.7629 109.66 74.5142 110.268 74.3526 110.829C74.3526 110.829 75.6522 109.075 77.8761 107.686C80.1008 106.297 83.1143 106.103 83.1143 106.103Z" fill="black" fill-opacity="0.2"/>
<path d="M83.7993 108.932C83.7993 108.932 83.6806 109.243 83.5092 109.544C83.3385 109.845 83.1144 110.135 83.1144 110.135L76.6365 115.327C76.6365 115.327 76.3885 115.404 76.1279 115.332C75.868 115.261 75.5954 115.041 75.5954 115.041C75.5954 115.041 77.733 112.839 79.7834 111.311C81.8346 109.784 83.7993 108.932 83.7993 108.932Z" fill="#5A5BB5"/>
<path d="M83.7993 108.932C83.7993 108.932 83.6806 109.243 83.5092 109.544C83.3385 109.845 83.1144 110.135 83.1144 110.135L76.6365 115.327C76.6365 115.327 76.3885 115.404 76.1279 115.332C75.868 115.261 75.5954 115.041 75.5954 115.041C75.5954 115.041 77.733 112.839 79.7834 111.311C81.8346 109.784 83.7993 108.932 83.7993 108.932Z" fill="black" fill-opacity="0.2"/>
</g>
<g clip-path="url(#clip3_3805_20342)">
<path d="M49.2028 203.435C49.2028 203.435 44.2164 201.681 41.6757 208.73C40.8393 211.05 39.5335 218.592 39.0749 221.806C37.223 234.787 39.9435 255.491 39.9435 255.491H42.7811C42.7811 255.491 38.8464 234.752 39.9814 221.753C40.3592 217.431 41.3887 211.493 42.3191 208.73C44.3682 202.648 49.2028 203.435 49.2028 203.435Z" fill="#7BBE70"/>
<path d="M47.446 203.412C47.8502 203.441 47.2298 203.318 46.7258 202.654C44.3551 199.535 46.4132 195.718 49.8307 194.775C50.4156 194.614 51.2149 194.562 52.1404 194.629C52.2047 194.634 51.2561 195.674 50.7463 196.819C50.0798 198.319 49.7969 200.018 49.7969 200.018C49.7969 200.018 50.5772 198.324 51.5358 197.012C52.4943 195.699 53.5881 194.762 53.631 194.768C55.2411 194.98 56.3836 195.453 58.1612 196.346C58.2842 196.408 58.1563 196.831 58.1563 196.831C58.1563 196.831 58.9152 196.75 59.1057 196.862C59.99 197.387 60.8281 198.008 61.568 198.73C65.6256 202.692 67.287 209.107 67.287 209.107C67.287 209.107 63.867 205.446 58.9589 205.989C58.2627 206.066 57.7843 206.031 57.2126 206.287C57.1598 206.31 55.5101 206.109 54.2282 205.524C52.9471 204.938 51.9424 204.163 51.9424 204.163C51.9424 204.163 52.8721 205.437 53.9032 206.125C54.9343 206.813 56.1032 206.894 56.066 206.915C53.6813 208.231 52.6221 210.583 50.1582 211.248C50.0493 211.278 49.1667 210.856 49.1667 210.856C49.1667 210.856 49.5989 211.366 49.4834 211.38C48.9275 211.448 48.3228 211.423 47.653 211.278C42.7515 210.219 43.8907 203.147 47.446 203.412Z" fill="#85C67A"/>
<path d="M47.5729 203.411L47.2462 203.168C47.1992 203.198 48.4258 203.573 49.7407 202.671C52.1485 201.016 55.5883 199.137 58.3418 200.169C62.6741 201.794 67.2868 209.108 67.2868 209.108C67.2868 209.108 63.0807 202.073 58.0398 200.716C52.999 199.361 49.2795 205.068 47.1777 203.406L47.5729 203.411Z" fill="#C3EDBC"/>
<path d="M49.2029 203.435C48.5471 203.655 48.1082 205.675 49.0222 207.214C49.9362 208.753 52.8604 209.592 52.8604 209.592C52.8604 209.592 50.083 208.562 49.3299 206.945C48.5768 205.328 49.2012 203.869 49.664 203.22L49.2029 203.435Z" fill="#C3EDBC"/>
<path d="M52.3374 201.083C52.3374 201.083 52.4991 198.398 53.5805 197.037C54.6628 195.675 56.6656 195.636 56.6656 195.636C56.6656 195.636 54.8484 195.942 53.9195 197.239C52.9907 198.535 52.9503 200.82 52.9503 200.82L52.3374 201.083Z" fill="#C3EDBC"/>
<path d="M61.6472 213.36L56.7911 210.896C56.7911 210.896 47.6357 205.436 43.7447 216.293C39.8546 227.15 41.2404 255.491 41.2404 255.491H43.0914C43.0914 255.491 41.6528 227.845 44.8097 217.034C47.9665 206.224 56.0364 211.397 56.0364 211.397L61.6472 213.36Z" fill="#72B068"/>
<path d="M55.0545 212.341C54.2585 212.785 50.0269 217.143 51.2898 219.985C53.0476 223.94 55.6221 221.368 55.6221 221.368C55.6221 221.368 55.7582 223.353 57.1027 223.625C58.6659 223.94 59.0264 223.068 61.6487 223.311L55.0545 212.341Z" fill="#5B9651"/>
<path d="M59.1928 209.621C63.8229 207.712 67.0457 208.925 70.2224 212.746C70.4105 212.973 67.6405 213.436 67.6405 213.436C67.6405 213.436 71.1009 213.867 71.2576 214.083C71.5373 214.468 71.8177 214.873 72.0998 215.297C75.9422 221.072 76.0321 227.831 75.8687 232.324C75.8663 232.388 72.0767 230.709 67.7279 228.34C67.4178 228.172 66.6886 224.12 66.6886 224.12C66.6886 224.12 66.0617 227.414 65.6962 227.205C64.006 226.233 62.3076 225.186 60.7766 224.12C59.8684 223.488 60.2239 220.762 58.5139 218.881C56.804 216.999 54.6617 218.017 53.9358 216.593C52.2069 213.201 57.0745 210.494 59.1928 209.621Z" fill="#85C67A"/>
<path d="M57.2141 210.615C57.2141 210.615 62.1221 212.759 66.7861 218.186C71.45 223.614 75.8689 232.324 75.8689 232.324C75.8689 232.324 71.0689 223.878 66.1113 218.646C61.1529 213.414 56.0361 211.397 56.0361 211.397L57.2141 210.615Z" fill="#C3EDBC"/>
<path d="M63.0924 215.828C63.0924 215.828 61.9829 216.394 61.0021 218.163C60.0222 219.932 60.1797 222.949 60.1797 222.949C60.1797 222.949 60.1764 219.993 61.3461 218.386C62.5166 216.779 63.8497 216.473 63.8497 216.473L63.0924 215.828Z" fill="#C3EDBC"/>
<path d="M67.4912 219.033L68.053 219.745C68.053 219.745 68.5 219.009 69.9048 218.608C71.3104 218.207 73.6746 218.141 73.6746 218.141C73.6746 218.141 71.3525 217.886 69.8067 218.109C68.2608 218.332 67.4912 219.033 67.4912 219.033Z" fill="#C3EDBC"/>
<path d="M69.8637 223.173L70.4163 223.923C70.4163 223.923 69.5683 224.246 68.8969 225.35C68.2246 226.455 67.728 228.34 67.728 228.34C67.728 228.34 67.9103 226.468 68.444 225.176C68.9786 223.885 69.8637 223.173 69.8637 223.173Z" fill="#C3EDBC"/>
<path d="M29.9399 214.102C29.9399 214.102 32.3808 215.657 35.032 218.53C38.2441 222.012 42.0922 226.966 43.4037 231.848C45.7976 240.759 44.2798 255.492 44.2798 255.492H41.6558C41.6558 255.492 44.0018 241.27 42.305 232.326C41.377 227.436 37.8333 222.35 34.8125 218.745C32.309 215.757 29.9399 214.102 29.9399 214.102Z" fill="#81C476"/>
<path d="M25.0138 212.062C31.4875 213.9 35.8635 218.157 35.117 220.245C34.2987 222.534 32.0765 224.223 29.9573 225.227C25.1615 227.497 24.4529 224.447 23.4061 220.971C23.3228 220.694 23.8763 219.979 23.8763 219.979C23.8763 219.979 23.0473 219.827 22.9953 219.674C22.8963 219.386 22.6225 218.768 22.5094 218.485C22.4393 218.309 23.3236 218.5 23.3236 218.5C23.3236 218.5 22.3156 217.981 22.2389 217.829C21.5699 216.502 20.6262 215.345 19.1183 214.684C18.1252 214.248 17.1691 213.912 16.2684 213.652C16.0663 213.593 15.9351 213.093 15.9351 213.093C15.9351 213.093 15.4847 213.441 15.3931 213.418C11.7521 212.528 9.22217 212.893 9.22217 212.893C9.22217 212.893 18.5401 210.224 25.0138 212.062Z" fill="#85C67A"/>
<path d="M15.3511 213.412C15.4839 213.45 16.0027 212.934 16.0027 212.934C16.0027 212.934 16.1199 213.608 16.2684 213.653C17.6385 214.06 19.1753 214.556 20.2113 215.315C21.4181 216.198 21.9543 217.306 21.9543 217.306C21.9543 217.306 18.5723 215.185 15.7751 214.504C12.9771 213.822 9.22217 212.894 9.22217 212.894C9.22217 212.894 12.0334 212.481 15.3511 213.412Z" fill="#5B9651"/>
<path d="M17.8233 211.473C14.3126 211.68 11.1607 212.398 9.86312 212.725C9.86312 212.725 9.21806 212.894 9.22219 212.894C9.39541 212.855 19.7807 210.543 25.9938 212.698C32.2374 214.865 35.1748 219.67 35.1954 219.704C35.1451 217.491 30.9687 213.752 25.0138 212.062C22.7883 211.43 20.227 211.331 17.8233 211.473Z" fill="#C3EDBC"/>
<path d="M32.7895 216.074C33.0188 217.582 32.7367 219.177 31.8738 220.576C30.2356 223.233 27.0359 224.331 24.1958 223.419C24.1966 223.42 24.1966 223.421 24.1966 223.422C24.242 223.538 24.2915 223.646 24.3393 223.757C27.2537 224.857 30.6291 223.777 32.3275 221.023C33.1986 219.611 33.4783 218 33.2366 216.48C33.0939 216.345 32.9462 216.209 32.7895 216.074Z" fill="#C3EDBC"/>
<path d="M27.0802 212.757C27.4563 213.846 27.4778 215.065 27.0505 216.23C26.3757 218.073 24.7647 219.299 22.9541 219.569C22.9673 219.603 22.9854 219.646 22.9945 219.675C22.9995 219.688 23.0118 219.701 23.0259 219.714C23.03 219.717 23.0349 219.721 23.0399 219.725C23.0481 219.731 23.0589 219.737 23.0688 219.743C23.0861 219.753 23.1059 219.763 23.1273 219.773C23.1809 219.797 23.2436 219.821 23.3146 219.843C23.3162 219.843 23.3179 219.845 23.3195 219.845C25.1499 219.592 26.7841 218.36 27.4654 216.5C27.9084 215.291 27.8713 214.023 27.453 212.905C27.3301 212.854 27.2056 212.806 27.0802 212.757Z" fill="#C3EDBC"/>
<path d="M19.8764 211.417C19.8533 211.51 19.831 211.601 19.8013 211.693C19.4697 212.745 18.832 213.615 18.0195 214.239C18.1845 214.301 18.3511 214.365 18.5186 214.433H18.5202C19.2981 213.814 19.9069 212.964 20.2286 211.944C20.283 211.772 20.3267 211.599 20.3622 211.425C20.2005 211.421 20.0389 211.419 19.8764 211.417Z" fill="#C3EDBC"/>
<path d="M34.1074 249.796V260.245C34.1074 264.653 37.6734 268.226 42.0717 268.226C46.47 268.226 50.0368 264.653 50.0368 260.245V249.796H34.1074Z" fill="#C1C1C1"/>
<path d="M49.5147 269.495C48.618 268.765 45.509 268.226 41.811 268.226C38.1131 268.226 35.0041 268.765 34.1074 269.495H49.5147Z" fill="#C1C1C1"/>
<path d="M34.1074 254.208V258.702H50.0368V254.208H34.1074Z" fill="#303030"/>
<path d="M34.853 256.442L35.8924 254.191L36.9317 256.442L35.8924 258.694L34.853 256.442Z" fill="#5E5E5E"/>
<path d="M34.1074 254.827V258.056L34.8531 256.442L34.1074 254.827Z" fill="#5E5E5E"/>
<path d="M36.9316 256.451L37.971 254.2L39.0104 256.451L37.971 258.702L36.9316 256.451Z" fill="#5E5E5E"/>
<path d="M39.0107 256.451L40.0501 254.2L41.0895 256.451L40.0501 258.702L39.0107 256.451Z" fill="#5E5E5E"/>
<path d="M41.0894 256.451L42.1287 254.2L43.1681 256.451L42.1287 258.702L41.0894 256.451Z" fill="#5E5E5E"/>
<path d="M43.168 256.442L44.2073 254.191L45.2467 256.442L44.2073 258.694L43.168 256.442Z" fill="#5E5E5E"/>
<path d="M45.2466 256.451L46.2859 254.2L47.3253 256.451L46.2859 258.702L45.2466 256.451Z" fill="#5E5E5E"/>
<path d="M47.3252 256.451L48.3646 254.2L49.4039 256.451L48.3646 258.702L47.3252 256.451Z" fill="#5E5E5E"/>
<path d="M50.0367 254.827L49.3455 256.324L49.291 256.442L49.3488 256.568L50.0367 258.056V254.827Z" fill="#5E5E5E"/>
<path d="M33.3335 249.118H50.9226V249.795C50.9226 250.169 50.6206 250.472 50.2478 250.472H34.0091C33.6362 250.472 33.3335 250.169 33.3335 249.795V249.118Z" fill="#8B8B8B"/>
<path d="M33.0161 270.849H50.606V270.173C50.606 269.799 50.3033 269.496 49.9304 269.496H33.6917C33.3188 269.496 33.0161 269.799 33.0161 270.173V270.849Z" fill="#8B8B8B"/>
<path d="M38.2772 267.76H45.3449C45.6022 267.76 45.8101 267.968 45.8101 268.226C45.8101 268.484 45.6022 268.692 45.3449 268.692H38.2772C38.0199 268.692 37.812 268.483 37.812 268.226C37.812 267.969 38.0199 267.76 38.2772 267.76Z" fill="#8B8B8B"/>
</g>
</g>
<defs>
<linearGradient id="paint0_linear_3805_20342" x1="140.768" y1="-0.513672" x2="140.768" y2="273.486" gradientUnits="userSpaceOnUse">
<stop stop-color="white"/>
<stop offset="0.5" stop-color="#5A5BB5"/>
<stop offset="1" stop-color="#5A5BB5"/>
</linearGradient>
<linearGradient id="paint1_linear_3805_20342" x1="140.768" y1="-0.513672" x2="140.768" y2="273.486" gradientUnits="userSpaceOnUse">
<stop stop-color="white" stop-opacity="0"/>
<stop offset="1" stop-color="white"/>
</linearGradient>
<radialGradient id="paint2_radial_3805_20342" cx="0" cy="0" r="1" gradientUnits="userSpaceOnUse" gradientTransform="translate(156.787 249.86) scale(1.67253)">
<stop stop-color="#E5E5E5"/>
<stop offset="1" stop-color="#CBCBCB"/>
</radialGradient>
<clipPath id="clip0_3805_20342">
<rect width="280" height="274" fill="white"/>
</clipPath>
<clipPath id="clip1_3805_20342">
<rect width="200" height="136.874" fill="white" transform="translate(60 135)"/>
</clipPath>
<clipPath id="clip2_3805_20342">
<rect width="44.8309" height="86.5177" fill="white" transform="matrix(-1 0 0 1 115.831 79.1699)"/>
</clipPath>
<clipPath id="clip3_3805_20342">
<rect width="66.6913" height="76.2485" fill="white" transform="translate(9.22217 194.601)"/>
</clipPath>
</defs>
</svg>
