<svg width="52" height="52" viewBox="0 0 52 52" fill="none" xmlns="http://www.w3.org/2000/svg">
<path d="M17.1749 21.3413C13.1172 21.3413 9.81641 24.6378 9.81641 28.6902C9.81641 32.7479 13.1172 36.0487 17.1749 36.0487C21.2269 36.0487 24.5228 32.7479 24.5228 28.6902C24.5228 24.6378 21.2269 21.3413 17.1749 21.3413ZM17.9098 33.0536C17.9098 33.4598 17.5802 33.7894 17.1739 33.7894C16.7677 33.7894 16.4381 33.4598 16.4381 33.0536V32.9281C16.4381 32.5218 16.7677 32.1922 17.1739 32.1922C17.5802 32.1922 17.9098 32.5218 17.9098 32.9281V33.0536ZM18.1647 29.5765C18.042 29.6249 17.9098 29.7317 17.9098 29.8855V30.48C17.9098 30.8863 17.5802 31.2159 17.1739 31.2159C16.7677 31.2159 16.4381 30.8863 16.4381 30.48V29.8855C16.4381 29.1511 16.9037 28.4924 17.6243 28.2078C18.1062 28.0171 18.5144 27.4667 18.363 26.7826C18.2681 26.3485 17.9146 25.9892 17.4825 25.8862C17.1002 25.7966 16.7198 25.8743 16.418 26.1119C16.1219 26.3452 15.9523 26.6949 15.9523 27.071C15.9523 27.4772 15.6227 27.8068 15.2165 27.8068C14.8102 27.8068 14.4806 27.4772 14.4806 27.071C14.4806 26.2417 14.8543 25.4714 15.5058 24.9568C16.1583 24.4423 17.0005 24.2593 17.8236 24.4548C18.8076 24.689 19.5837 25.4785 19.8002 26.4659C20.0905 27.7785 19.4035 29.0874 18.1647 29.5765Z" fill="#010211"/>
<path d="M31.1508 33.6382C31.1508 33.6299 31.1553 33.6229 31.1556 33.6145V18.297C31.1556 17.5176 30.5213 16.8838 29.7423 16.8838H4.60466C3.82569 16.8838 3.19141 17.5176 3.19141 18.297V45.3079C3.19141 45.6097 3.35142 45.8717 3.62065 46.0092C3.88797 46.1467 4.19649 46.1228 4.43986 45.946L12.1787 40.3529C12.3042 40.2623 12.4547 40.2135 12.6099 40.2135H29.7423C30.5213 40.2135 31.1556 39.5797 31.1556 38.8002V33.662C31.1553 33.6536 31.1508 33.6466 31.1508 33.6382ZM17.1745 37.5201C12.3052 37.5201 8.34427 33.5587 8.34427 28.69C8.34427 23.8264 12.3052 19.8693 17.1745 19.8693C22.038 19.8693 25.9941 23.8264 25.9941 28.69C25.9941 33.5587 22.038 37.5201 17.1745 37.5201Z" fill="#010211"/>
<path d="M48.2583 39.5396C48.6041 39.3633 48.8101 39.028 48.8101 38.6419V7.63848C48.8101 6.68082 48.036 5.90186 47.0836 5.90186H18.2283C17.2712 5.90186 16.4922 6.68082 16.4922 7.63848V15.4123H29.7413C31.3318 15.4123 32.6263 16.7063 32.6263 18.2973V32.9026H37.8903C38.0445 32.9026 38.1959 32.9515 38.3205 33.042L47.2101 39.4587C47.5234 39.6853 47.9133 39.7145 48.2583 39.5396ZM43.6362 24.8916H36.8928C36.4866 24.8916 36.157 24.562 36.157 24.1558C36.157 23.7495 36.4866 23.4199 36.8928 23.4199H43.6362C44.0425 23.4199 44.3721 23.7495 44.3721 24.1558C44.3721 24.562 44.0425 24.8916 43.6362 24.8916ZM43.6362 18.4285H36.8928C36.4866 18.4285 36.157 18.0989 36.157 17.6927C36.157 17.2864 36.4866 16.9568 36.8928 16.9568H43.6362C44.0425 16.9568 44.3721 17.2864 44.3721 17.6927C44.3721 18.0989 44.0425 18.4285 43.6362 18.4285ZM43.6362 11.9659H23.66C23.2538 11.9659 22.9242 11.6363 22.9242 11.2301C22.9242 10.8238 23.2538 10.4942 23.66 10.4942H43.6362C44.0425 10.4942 44.3721 10.8238 44.3721 11.2301C44.3721 11.6363 44.0425 11.9659 43.6362 11.9659Z" fill="#010211"/>
</svg>
